<svg width="500" height="500" viewBox="0 0 500 500" fill="none" xmlns="http://www.w3.org/2000/svg">
<path d="M80.4096 95.5504C82.512 95.0749 84.6888 95.0291 86.8093 95.4158C88.9298 95.8024 90.9503 96.6135 92.7496 97.8004C96.3438 100.193 99.338 103.383 101.5 107.12C105.88 114.19 107.36 123.65 107.5 131.96C98.2696 131.5 90.4996 124.17 86.7196 120.21C80.7996 113.93 73.9996 99.0004 80.4096 95.5504Z" fill="#F5F5F5"/>
<path d="M122.28 137.671C120.442 136.11 119.051 134.09 118.246 131.818C117.442 129.545 117.253 127.1 117.7 124.731C118.188 122.374 119.14 120.137 120.499 118.151C121.859 116.165 123.599 114.469 125.62 113.161C127.47 111.931 129.74 110.951 131.87 111.601C132.844 111.965 133.705 112.582 134.362 113.388C135.019 114.195 135.45 115.162 135.61 116.191C135.889 118.26 135.623 120.366 134.84 122.301C132.44 129.001 128.9 135.051 122.28 137.671Z" fill="#F5F5F5"/>
<path d="M127.64 157.78C126.608 156.259 125.734 154.638 125.03 152.94C124.189 151.114 123.571 149.194 123.19 147.22C122.635 144.842 122.237 142.43 122 140C121.61 135.519 122.324 131.011 124.08 126.87C124.628 125.64 125.298 124.467 126.08 123.37C126.68 122.62 127.08 122.24 127.08 122.28C127.08 122.32 125.88 124.02 124.63 127.13C123.1 131.213 122.499 135.586 122.87 139.93C123.09 142.328 123.444 144.712 123.93 147.07C124.265 148.997 124.802 150.884 125.53 152.7C126.92 155.79 127.78 157.72 127.64 157.78Z" fill="#E0E0E0"/>
<path d="M86.6299 106.45C87.3351 107.057 87.9844 107.727 88.5699 108.45C89.7599 109.78 91.4699 111.73 93.5699 114.15C97.7399 119 103.43 125.76 109.57 133.37C115.71 140.98 121 148.05 124.7 153.23C126.57 155.83 128.06 157.94 129.06 159.42C129.623 160.163 130.121 160.953 130.55 161.78C129.898 161.118 129.302 160.402 128.77 159.64L124.17 153.64C120.29 148.56 114.89 141.58 108.79 133.97L93.0499 114.57L88.2899 108.69C87.678 107.989 87.1229 107.24 86.6299 106.45Z" fill="#E0E0E0"/>
<path d="M116 146.661C111.804 143.791 106.985 141.963 101.942 141.326C96.8992 140.69 91.7771 141.264 87 143.001C84.58 143.901 82 145.591 81.88 148.171C81.76 150.751 84.34 152.591 86.73 153.591C91.7446 155.571 97.2333 156.023 102.504 154.89C107.775 153.756 112.593 151.088 116.35 147.221" fill="#F5F5F5"/>
<path d="M93.4697 147.001C93.9047 146.768 94.3739 146.606 94.8597 146.521C95.7597 146.271 97.0897 145.981 98.7397 145.671C103.08 144.833 107.536 144.796 111.89 145.561C114.289 146.057 116.592 146.938 118.71 148.171C121.577 149.887 124.012 152.237 125.83 155.041C126.133 155.427 126.373 155.859 126.54 156.321C126.39 156.431 125.25 154.681 122.89 152.321C119.811 149.311 115.923 147.261 111.7 146.421C107.448 145.689 103.107 145.639 98.8397 146.271C95.5397 146.701 93.4997 147.101 93.4697 147.001Z" fill="#E0E0E0"/>
<path d="M129.53 349.671C159.35 335.191 170.98 301.361 174.89 269.911C175.55 264.661 177 259.251 175.24 254.271C173.48 249.291 168.19 245.271 163.16 246.701C159 247.901 156.59 252.151 153.83 255.531C150.137 260.043 145.246 263.422 139.72 265.281C136.12 266.471 131.84 266.871 128.84 264.541C124.73 261.341 125.19 255.031 126.05 249.841L130.85 220.841C131.71 215.651 132.57 210.351 131.74 205.161C130.91 199.971 128.07 194.831 123.35 192.661C118.63 190.491 112.07 192.371 110.22 197.281C109.44 199.331 109.53 201.591 109.04 203.731C108.55 205.871 107.17 208.081 105.04 208.361C102.91 208.641 101.04 206.841 99.7198 205.071C95.1998 198.971 92.6298 191.641 90.2998 184.381C87.9698 177.121 85.7698 169.721 81.8098 163.231C77.8498 156.741 71.8098 151.131 64.4798 149.521C57.1498 147.911 48.4798 151.251 45.4198 158.251C42.3598 165.251 45.4198 173.381 49.1598 180.051C54.6571 189.938 61.5551 198.978 69.6398 206.891C71.0898 208.321 72.6398 209.891 72.9798 211.891C73.5598 215.531 69.7298 218.451 66.1298 219.041C62.0598 219.711 57.9198 218.641 53.7898 218.481C49.6598 218.321 44.9998 219.401 42.8598 222.981C39.8598 227.981 43.4398 234.221 47.2298 238.561C54.8116 247.249 63.8335 254.566 73.8998 260.191C77.4898 262.191 81.3198 264.061 83.9698 267.241C86.6198 270.421 87.7398 275.381 85.2998 278.741C82.8598 282.101 77.8898 282.511 74.0098 281.131C70.1298 279.751 66.8898 277.001 63.2998 275.001C56.5998 271.171 47.2998 270.191 41.7498 275.631C38.0998 279.211 36.9398 284.811 37.6898 289.891C38.4398 294.971 40.8598 299.611 43.5198 303.971C52.8198 319.211 65.7398 332.351 81.3898 340.721C97.0398 349.091 112.12 353.101 129.53 349.721" fill="#EBEBEB"/>
<path d="M125.3 351.33C126.14 338.76 126.7 345.28 124.58 328.77C122.46 312.26 118.69 294.34 114.08 275.77L110.61 262C109.46 257.49 108.33 253 106.94 248.7C104.27 240.43 101.141 232.314 97.5698 224.39C94.2198 216.8 90.7598 209.72 87.4698 203.13C84.1798 196.54 80.9998 190.42 77.8398 185C72.9185 176.418 67.3243 168.239 61.1098 160.54C58.9198 157.82 57.1098 155.77 55.9298 154.39L54.5298 152.83C54.3813 152.643 54.2137 152.472 54.0298 152.32C54.1544 152.527 54.2984 152.721 54.4598 152.9C54.7898 153.3 55.2298 153.83 55.7798 154.52C56.9498 155.93 58.6698 158.03 60.7798 160.78C66.861 168.55 72.3529 176.762 77.2098 185.35C80.3098 190.78 83.4498 196.87 86.7198 203.46C89.9898 210.05 93.3898 217.15 96.7198 224.73C100.257 232.643 103.355 240.746 106 249C107.37 253.29 108.49 257.73 109.64 262.26C110.79 266.79 111.93 271.37 113.1 276.01C117.71 294.6 121.52 312.47 123.66 328.93C125.8 345.39 125.33 338.8 124.58 351.33" fill="#E0E0E0"/>
<path d="M106.68 248.59C107.039 247.908 107.327 247.191 107.54 246.45C108.04 245.06 108.7 243.03 109.47 240.5C111.03 235.44 112.94 228.39 115.02 220.61C117.1 212.83 119.11 205.81 120.74 200.8C121.54 198.29 122.22 196.26 122.74 194.87C123.037 194.16 123.255 193.419 123.39 192.66C122.985 193.313 122.65 194.007 122.39 194.73C121.8 196.09 121.02 198.08 120.13 200.58C118.33 205.58 116.21 212.58 114.13 220.35C112.05 228.12 110.26 234.99 108.85 240.35C108.21 242.74 107.66 244.76 107.22 246.35C106.95 247.072 106.769 247.824 106.68 248.59Z" fill="#E0E0E0"/>
<path d="M41.8896 225.48C42.737 225.814 43.6144 226.065 44.5096 226.23C46.1896 226.65 48.6396 227.23 51.6396 228.09C57.6396 229.73 65.8696 232.27 74.8196 235.48C83.7696 238.69 91.7397 241.97 97.4397 244.48C100.3 245.73 102.59 246.8 104.17 247.48C104.97 247.915 105.81 248.27 106.68 248.54C105.945 248.002 105.162 247.533 104.34 247.14C102.8 246.31 100.55 245.14 97.7197 243.81C92.0797 241.12 84.1197 237.74 75.1497 234.51C67.4967 231.733 59.7065 229.35 51.8097 227.37C48.8097 226.62 46.2997 226.11 44.5797 225.8C43.6943 225.614 42.7941 225.507 41.8896 225.48Z" fill="#E0E0E0"/>
<path d="M124 327.41C124 327.41 124.23 327.18 124.59 326.67L126.12 324.44C127.43 322.49 129.26 319.63 131.48 316.06C135.92 308.92 141.74 298.87 148.01 287.69C154.28 276.51 160.01 266.42 164.29 259.2C166.39 255.7 168.11 252.81 169.39 250.67C169.94 249.74 170.39 248.97 170.77 248.34C170.948 248.077 171.089 247.791 171.19 247.49C171.19 247.49 170.96 247.72 170.6 248.23L169 250.46C167.68 252.41 165.85 255.27 163.63 258.84C159.22 266 153.4 276 147.13 287.21C140.86 298.42 135.13 308.48 130.85 315.7C128.75 319.2 127.03 322.09 125.75 324.23L124.38 326.56C124.215 326.825 124.087 327.111 124 327.41Z" fill="#E0E0E0"/>
<path d="M39.7798 284.7C40.0292 284.903 40.3051 285.071 40.5998 285.2L42.9998 286.47L51.9998 291.06C59.6098 294.94 70.0598 300.42 81.5898 306.49C93.1198 312.56 103.59 317.94 111.33 321.67C115.17 323.53 118.33 325 120.48 325.98L123 327.09C123.284 327.236 123.587 327.343 123.9 327.41C123.65 327.207 123.375 327.039 123.08 326.91L120.64 325.64L111.64 321.05C104.03 317.17 93.5798 311.69 82.0498 305.62C70.5198 299.55 60.0498 294.16 52.3198 290.44C48.4698 288.58 45.3198 287.11 43.1598 286.13L40.6798 285C40.3941 284.861 40.0916 284.761 39.7798 284.7Z" fill="#E0E0E0"/>
<path d="M465.36 435C465.36 435.14 370.69 435.26 253.94 435.26C137.19 435.26 42.5 435.15 42.5 435C42.5 434.85 137.15 434.74 253.94 434.74C370.73 434.74 465.36 434.86 465.36 435Z" fill="#263238"/>
<path d="M65.73 269.39C65.73 269.39 72.63 264.73 81.25 281.26C89.87 297.79 93.17 307.34 93.17 307.34C93.17 307.34 95.4399 310.8 97.8099 308.5C100.18 306.2 103.39 299.72 107.47 300.85C111.55 301.98 113.13 306.7 112.39 313.62C111.65 320.54 110.59 335.76 110.5 337.13C110.41 338.5 111.2 340.46 113.06 339.13C114.92 337.8 125.61 325.7 131.06 331.13C136.51 336.56 131.29 355.48 130.76 357.56C130.23 359.64 130.64 360.56 131.63 361.03C132.62 361.5 135.83 357.12 139.01 353.8C142.19 350.48 146.46 347.17 149.34 350.56C152.22 353.95 153.27 368.11 140 391.25L133.15 401.57L120.72 401C94.19 398.15 83.34 389 82.3 384.67C81.26 380.34 86.42 378.83 90.98 378.21C95.54 377.59 100.98 377.58 101.17 376.48C101.36 375.38 100.87 374.53 98.87 373.74C96.87 372.95 78.48 366.06 77.3 358.47C76.12 350.88 92.2 349.35 94.36 348.6C96.52 347.85 95.36 346.06 94.22 345.34C93.08 344.62 80.11 336.53 74.08 333.06C68.05 329.59 65.0799 325.69 66.6299 321.58C68.1099 317.58 75.24 318.83 78.5 318.26C81.76 317.69 80.28 313.82 80.28 313.82C80.28 313.82 74.48 305.55 66.17 288.82C57.86 272.09 65.8799 269.25 65.8799 269.25" fill="#FF7F5C"/>
<path d="M73.48 284.18C73.542 284.273 73.5988 284.37 73.65 284.47L74.12 285.36L75.87 288.77L82.27 301.35C87.72 311.97 95.27 326.6 103.52 342.77C111.77 358.94 119.34 373.6 124.66 384.26C127.3 389.58 129.43 393.9 130.92 396.91L132.59 400.36L133.02 401.27C133.11 401.47 133.15 401.58 133.15 401.58C133.15 401.58 133.08 401.49 132.97 401.29L132.51 400.41C132.09 399.6 131.51 398.41 130.76 396.99C129.23 393.99 127.05 389.71 124.36 384.41C119 373.79 111.43 359.15 103.1 343C94.77 326.85 87.29 312.16 82 301.5L75.7 288.85C74.99 287.37 74.43 286.21 74.03 285.4C73.85 285.02 73.71 284.72 73.61 284.49C73.5519 284.393 73.5082 284.289 73.48 284.18Z" fill="#263238"/>
<path d="M103.34 310.1C103.183 311.201 102.953 312.29 102.65 313.36C102.17 315.49 101.55 318.19 100.86 321.19C100.17 324.19 99.5197 327 98.9997 329C98.7297 330 98.4997 330.79 98.3197 331.34C98.2518 331.631 98.1405 331.911 97.9897 332.17C98.1596 331.072 98.3865 329.984 98.6697 328.91L100.4 321.07C101.1 318.01 101.78 315.25 102.33 313.26C102.61 312.26 102.85 311.47 103.03 310.93C103.092 310.639 103.197 310.36 103.34 310.1Z" fill="#263238"/>
<path d="M96.8501 332.42C96.8501 332.54 91.1301 331.08 84.1501 329.14C77.1701 327.2 71.5501 325.54 71.5901 325.41C71.6301 325.28 77.3001 326.75 84.2801 328.68C91.2601 330.61 96.8801 332.29 96.8501 332.42Z" fill="#263238"/>
<path d="M112.89 360.239C112.594 360.323 112.288 360.367 111.98 360.369C111.4 360.429 110.55 360.489 109.5 360.539C107.4 360.639 104.5 360.709 101.28 360.619C98.0597 360.529 95.1797 360.299 93.0897 360.079C92.0897 359.969 91.1997 359.859 90.6097 359.769C90.3057 359.748 90.0062 359.684 89.7197 359.579C90.852 359.562 91.9842 359.615 93.1097 359.739C95.2097 359.879 98.1097 360.049 101.3 360.139C104.49 360.229 107.39 360.219 109.49 360.199C110.623 360.14 111.758 360.153 112.89 360.239Z" fill="#263238"/>
<path d="M123.21 341.34C122.82 342.314 122.355 343.257 121.82 344.16C120.9 345.87 119.61 348.22 118.16 350.8C116.71 353.38 115.37 355.71 114.38 357.38C113.887 358.306 113.322 359.192 112.69 360.03C113.08 359.055 113.545 358.113 114.08 357.21C115 355.5 116.29 353.15 117.74 350.57C119.19 347.99 120.53 345.66 121.52 344C122.015 343.071 122.58 342.182 123.21 341.34Z" fill="#263238"/>
<path d="M140.49 364.1C140.383 364.451 140.232 364.787 140.04 365.1L138.63 367.69C137.43 369.86 135.74 372.85 133.85 376.14C131.96 379.43 130.22 382.4 128.94 384.53C128.34 385.53 127.82 386.36 127.41 387.05C127.24 387.367 127.032 387.663 126.79 387.93C126.9 387.58 127.051 387.244 127.24 386.93L128.65 384.34C129.85 382.16 131.54 379.17 133.43 375.88C135.32 372.59 137.06 369.63 138.34 367.5L139.87 364.98C140.047 364.667 140.255 364.372 140.49 364.1Z" fill="#263238"/>
<path d="M127 387.26C126.622 387.341 126.236 387.375 125.85 387.36C125.1 387.36 124.02 387.41 122.69 387.42C120.03 387.42 116.34 387.42 112.28 387.15C108.22 386.88 104.54 386.58 101.9 386.27C100.57 386.12 99.4999 385.97 98.7699 385.86C98.3822 385.828 97.9996 385.751 97.6299 385.63C98.0157 385.595 98.404 385.595 98.7899 385.63L101.93 385.89C104.58 386.12 108.25 386.41 112.3 386.63C116.35 386.85 120.03 386.97 122.69 387.04L125.85 387.13C126.237 387.136 126.622 387.179 127 387.26Z" fill="#263238"/>
<path d="M452.12 263.89L418.65 296.48L387.81 355.33L353.13 421.88L310.52 401.88L264.46 378.3L293.92 322.02L312.23 259.02C299.29 267.6 275.23 279.29 246.53 273.19C215.39 266.59 230.34 149.19 230.34 149.19L264.56 148.31L268 231.08L306.65 214L306.71 214.14C309.04 213.14 311.08 212.14 312.16 211.59C333.55 199.92 347.59 198.51 370.54 206.7L403.65 217.7C412.16 221.7 443.53 237.15 452.12 263.89Z" fill="#6A7B83"/>
<path d="M335 204.239C335 204.239 334.23 204.679 332.93 205.609C331.107 206.935 329.49 208.522 328.13 210.319C326.133 213.001 324.543 215.963 323.41 219.109C322.032 222.976 320.854 226.911 319.88 230.899L314 252.529C313.23 255.239 312.61 257.459 312.15 259.059C311.94 259.789 311.76 260.379 311.63 260.829C311.582 261.041 311.508 261.245 311.41 261.439C311.423 261.225 311.463 261.013 311.53 260.809C311.64 260.339 311.78 259.749 311.96 259.009C312.37 257.389 312.96 255.159 313.64 252.429C315.12 246.829 317.14 239.199 319.38 230.759C320.36 226.758 321.555 222.812 322.96 218.939C324.13 215.762 325.775 212.782 327.84 210.099C329.249 208.291 330.937 206.718 332.84 205.439C333.353 205.092 333.887 204.778 334.44 204.499C334.62 204.399 334.808 204.312 335 204.239Z" fill="#263238"/>
<g opacity="0.3">
<path d="M322.51 220.83C312.94 246.74 295.73 261.22 271.36 274.2C285.748 272.606 299.537 267.556 311.55 259.48" fill="black"/>
</g>
<g opacity="0.3">
<path d="M353 202.39C357.053 267.31 361.107 332.226 365.16 397.14L353.16 421.88L353 202.39Z" fill="black"/>
</g>
<path d="M390.68 269.739C390.54 269.799 389.32 266.739 387.61 263.049C385.9 259.359 384.38 256.429 384.51 256.359C384.982 256.91 385.381 257.518 385.7 258.169C386.37 259.329 387.23 260.969 388.08 262.829C388.93 264.689 389.63 266.399 390.08 267.659C390.374 268.322 390.576 269.022 390.68 269.739Z" fill="#FAFAFA"/>
<path d="M417.92 256.05C415.858 257.653 413.686 259.11 411.42 260.41C409.25 261.866 406.985 263.176 404.64 264.33C406.715 262.739 408.889 261.282 411.15 259.97C413.318 258.515 415.579 257.205 417.92 256.05Z" fill="#FAFAFA"/>
<path d="M406.1 246.189C405.754 244.44 405.573 242.662 405.56 240.879C405.392 239.1 405.392 237.309 405.56 235.529C405.919 237.28 406.1 239.062 406.1 240.849C406.274 242.625 406.274 244.414 406.1 246.189Z" fill="#FAFAFA"/>
<path d="M433.29 244.289C429.935 242.625 426.741 240.653 423.75 238.399C425.467 239.154 427.11 240.064 428.66 241.119C430.299 242.029 431.849 243.09 433.29 244.289Z" fill="#FAFAFA"/>
<path d="M391.72 298.23C392.459 295.863 393.361 293.551 394.42 291.31C395.326 289.003 396.389 286.761 397.6 284.6C396.865 286.967 395.963 289.28 394.9 291.52C393.997 293.827 392.934 296.069 391.72 298.23Z" fill="#FAFAFA"/>
<path d="M379.61 310.489C378.649 309.145 377.832 307.704 377.17 306.189C376.349 304.749 375.679 303.227 375.17 301.649C376.132 302.995 376.953 304.436 377.62 305.949C378.442 307.388 379.109 308.91 379.61 310.489Z" fill="#FAFAFA"/>
<path d="M389.74 326.999C388.107 327.706 386.372 328.148 384.6 328.309C382.854 328.647 381.064 328.701 379.3 328.469C379.3 328.319 381.65 328.209 384.53 327.799C387.41 327.389 389.7 326.839 389.74 326.999Z" fill="#FAFAFA"/>
<path d="M402.73 308.939C403.164 307.269 403.761 305.644 404.51 304.089C405.101 302.467 405.855 300.909 406.76 299.439C406.332 301.111 405.739 302.735 404.99 304.289C404.403 305.915 403.646 307.474 402.73 308.939Z" fill="#FAFAFA"/>
<path d="M371.14 347.079C371.01 347.159 369.54 345.129 367.52 342.799C365.5 340.469 363.7 338.719 363.81 338.609C366.813 340.896 369.309 343.78 371.14 347.079Z" fill="#FAFAFA"/>
<path d="M365.41 306.069C364.702 307.816 363.828 309.49 362.8 311.069C361.926 312.748 360.898 314.341 359.73 315.829C360.452 314.088 361.329 312.414 362.35 310.829C363.222 309.152 364.246 307.559 365.41 306.069Z" fill="#FAFAFA"/>
<path d="M369.49 292C367.596 291.771 365.725 291.376 363.9 290.82C362.033 290.426 360.205 289.864 358.44 289.14C360.335 289.362 362.206 289.757 364.03 290.32C365.898 290.709 367.726 291.272 369.49 292Z" fill="#FAFAFA"/>
<path d="M369.25 263C370.349 264.284 371.352 265.648 372.25 267.08C373.28 268.409 374.209 269.813 375.03 271.28C373.799 270.12 372.724 268.806 371.83 267.37C370.78 266.035 369.912 264.565 369.25 263Z" fill="#FAFAFA"/>
<path d="M360 261.55C357.817 263.914 355.383 266.033 352.74 267.87C353.767 266.626 354.927 265.5 356.2 264.51C357.359 263.391 358.632 262.399 360 261.55Z" fill="#FAFAFA"/>
<path d="M367.31 246.379C363.933 243.716 361.119 240.409 359.03 236.649C359.16 236.569 360.8 238.909 363.09 241.589C365.38 244.269 367.42 246.269 367.31 246.379Z" fill="#FAFAFA"/>
<path d="M392.89 241.71C391.082 242.54 389.205 243.209 387.28 243.71C385.408 244.374 383.48 244.869 381.52 245.19C383.331 244.368 385.207 243.699 387.13 243.19C389.003 242.528 390.93 242.033 392.89 241.71Z" fill="#FAFAFA"/>
<path d="M356.88 217.349C356.73 217.349 356.8 215.059 356.44 212.279C356.08 209.499 355.44 207.279 355.62 207.279C356.977 210.462 357.414 213.961 356.88 217.379V217.349Z" fill="#FAFAFA"/>
<path d="M334.12 289.859C333.383 290.499 332.597 291.081 331.77 291.599C330.29 292.599 328.27 294.089 326.11 295.789C323.95 297.489 322.05 299.099 320.69 300.279C319.986 300.96 319.234 301.588 318.44 302.159C319.028 301.374 319.699 300.653 320.44 300.009C322.142 298.374 323.927 296.829 325.79 295.379C327.644 293.921 329.57 292.556 331.56 291.289C332.366 290.733 333.223 290.254 334.12 289.859Z" fill="#FAFAFA"/>
<path d="M332.81 281.84C332.68 281.91 331 279.3 328.67 276.25C326.34 273.2 324.28 270.88 324.39 270.77C324.959 271.156 325.468 271.625 325.9 272.16C327.026 273.362 328.091 274.62 329.09 275.93C330.25 277.47 331.22 278.93 331.87 280.01C332.267 280.573 332.584 281.189 332.81 281.84Z" fill="#FAFAFA"/>
<path d="M338.9 250.229C335.808 252.332 332.527 254.143 329.1 255.639C330.6 254.519 332.2 253.538 333.88 252.71C335.472 251.727 337.152 250.896 338.9 250.229Z" fill="#FAFAFA"/>
<path d="M332.87 236.429C332.24 236.061 331.665 235.606 331.16 235.079C329.864 233.896 328.658 232.62 327.55 231.259C326.431 229.901 325.412 228.464 324.5 226.959C324.078 226.362 323.742 225.709 323.5 225.019C323.64 224.939 325.35 227.779 327.94 230.929C330.53 234.079 333 236.309 332.87 236.429Z" fill="#FAFAFA"/>
<path d="M343.25 236.139C343.705 234.621 344.322 233.156 345.09 231.769C345.707 230.306 346.482 228.915 347.4 227.619C346.95 229.139 346.333 230.605 345.56 231.989C344.947 233.454 344.172 234.846 343.25 236.139Z" fill="#FAFAFA"/>
<path d="M340.48 220.349C340.32 220.349 340.48 217.239 339.9 213.489C339.32 209.739 338.21 206.839 338.36 206.779C338.738 207.352 339.024 207.979 339.21 208.639C339.762 210.188 340.167 211.785 340.42 213.409C340.669 215.034 340.773 216.677 340.73 218.319C340.756 219.005 340.672 219.69 340.48 220.349Z" fill="#FAFAFA"/>
<path d="M343 299.999C342.933 299.024 342.933 298.045 343 297.069C343.07 295.269 343.12 292.779 343.05 290.069C342.98 287.359 342.8 284.839 342.65 283.069C342.514 282.102 342.454 281.126 342.47 280.149C342.747 281.089 342.931 282.054 343.02 283.029C343.332 285.371 343.515 287.728 343.57 290.089C343.633 292.448 343.567 294.808 343.37 297.159C343.346 298.116 343.222 299.068 343 299.999Z" fill="#FAFAFA"/>
<path d="M341.52 324.89C340.123 323.604 338.643 322.411 337.09 321.32C335.449 320.371 333.749 319.529 332 318.8C333.917 319.125 335.749 319.832 337.387 320.878C339.026 321.924 340.438 323.288 341.54 324.89H341.52Z" fill="#FAFAFA"/>
<path d="M354 340.29C351.798 341.724 349.503 343.011 347.13 344.14C344.84 345.427 342.464 346.556 340.02 347.52C342.225 346.094 344.52 344.811 346.89 343.68C349.182 342.393 351.557 341.26 354 340.29Z" fill="#FAFAFA"/>
<path d="M318.82 347.119C316.995 345.088 315.305 342.941 313.76 340.689C312.072 338.54 310.522 336.286 309.12 333.939C310.94 335.978 312.63 338.129 314.18 340.379C315.864 342.528 317.414 344.779 318.82 347.119Z" fill="#FAFAFA"/>
<path d="M308 318.68C307.827 318.011 307.75 317.321 307.77 316.63C307.72 315.36 307.7 313.63 307.77 311.63C307.84 309.63 308.04 307.94 308.21 306.63C308.258 305.948 308.396 305.276 308.62 304.63C308.77 304.63 308.47 307.77 308.29 311.63C308.11 315.49 308.1 318.68 308 318.68Z" fill="#FAFAFA"/>
<path d="M296.22 367.23C294.172 365.86 292.22 364.349 290.38 362.71C288.431 361.201 286.589 359.557 284.87 357.79C286.919 359.159 288.871 360.67 290.71 362.31C292.66 363.819 294.501 365.463 296.22 367.23Z" fill="#FAFAFA"/>
<path d="M303.26 365.74C302.937 363.139 302.787 360.52 302.81 357.9C302.666 355.284 302.692 352.662 302.89 350.05C303.213 352.65 303.364 355.269 303.34 357.89C303.485 360.505 303.458 363.128 303.26 365.74Z" fill="#FAFAFA"/>
<path d="M317.16 395.849C317.16 395.929 315.91 395.439 313.9 394.789C308.666 393.105 303.175 392.356 297.68 392.579C295.57 392.659 294.27 392.809 294.26 392.719C294.549 392.606 294.852 392.536 295.16 392.509C295.74 392.399 296.6 392.299 297.66 392.209C303.204 391.79 308.774 392.554 314 394.449C314.796 394.737 315.574 395.071 316.33 395.449C316.626 395.539 316.906 395.674 317.16 395.849Z" fill="#FAFAFA"/>
<path d="M328.61 401.35C329.423 401.774 330.182 402.295 330.87 402.9C334.33 405.639 337.461 408.77 340.2 412.23C340.805 412.918 341.326 413.677 341.75 414.49C341.089 413.869 340.474 413.2 339.91 412.49C338.81 411.22 337.25 409.49 335.44 407.68C333.63 405.87 331.9 404.32 330.63 403.21C329.912 402.64 329.237 402.019 328.61 401.35Z" fill="#FAFAFA"/>
<path d="M333.6 349.25C332.585 347.378 331.719 345.428 331.01 343.42C330.147 341.48 329.441 339.473 328.9 337.42C329.915 339.292 330.781 341.241 331.49 343.25C332.353 345.19 333.059 347.196 333.6 349.25Z" fill="#FAFAFA"/>
<path d="M293.43 247.9C293.005 248.528 292.489 249.091 291.9 249.57C290.567 250.81 289.136 251.94 287.62 252.95C286.103 253.967 284.504 254.857 282.84 255.61C282.17 255.966 281.453 256.226 280.71 256.38C280.65 256.23 283.82 254.87 287.33 252.52C290.84 250.17 293.32 247.78 293.43 247.9Z" fill="#FAFAFA"/>
<path d="M296 237.299C295.793 234.327 295.934 231.34 296.42 228.399C296.627 231.372 296.486 234.359 296 237.299Z" fill="#FAFAFA"/>
<path d="M276.05 246.2C274.259 245.667 272.521 244.967 270.86 244.11C269.118 243.409 267.444 242.549 265.86 241.54C267.65 242.078 269.387 242.778 271.05 243.63C272.793 244.331 274.466 245.191 276.05 246.2Z" fill="#FAFAFA"/>
<path d="M311.64 232.639C311.524 230.795 311.581 228.943 311.81 227.109C311.858 225.261 312.085 223.423 312.49 221.619C312.607 223.463 312.553 225.315 312.33 227.149C312.274 228.997 312.043 230.835 311.64 232.639Z" fill="#FAFAFA"/>
<path d="M265.45 267.4C263.425 266.889 261.498 266.044 259.75 264.9C257.912 263.902 256.258 262.597 254.86 261.04C254.96 260.92 257.09 262.71 260.01 264.46C262.93 266.21 265.51 267.25 265.45 267.4Z" fill="#FAFAFA"/>
<path d="M250.62 247.05C249.332 248.825 247.908 250.497 246.36 252.05C244.936 253.733 243.385 255.305 241.72 256.75C244.428 253.273 247.404 250.013 250.62 247V247.05Z" fill="#FAFAFA"/>
<path d="M249.35 228.82C247.646 228.244 246.063 227.359 244.68 226.21C243.198 225.199 241.908 223.933 240.87 222.47C240.98 222.36 242.66 224.05 245 225.79C247.34 227.53 249.42 228.69 249.35 228.82Z" fill="#FAFAFA"/>
<path d="M240 232.64C239.434 233.71 238.717 234.693 237.87 235.56C237.152 236.537 236.3 237.409 235.34 238.15C236.622 236.099 238.191 234.244 240 232.64Z" fill="#FAFAFA"/>
<path d="M260 198.8C258.836 200.627 257.529 202.359 256.09 203.98C254.789 205.715 253.348 207.341 251.78 208.84C252.946 207.01 254.253 205.275 255.69 203.65C256.996 201.921 258.437 200.3 260 198.8Z" fill="#FAFAFA"/>
<path d="M242.87 202.65C241.328 201.281 239.903 199.786 238.61 198.18C237.192 196.69 235.901 195.084 234.75 193.38C236.294 194.743 237.719 196.235 239.01 197.84C240.428 199.333 241.719 200.942 242.87 202.65Z" fill="#FAFAFA"/>
<path d="M251.45 180.929C250.303 179.447 249.298 177.86 248.45 176.189C247.459 174.602 246.612 172.928 245.92 171.189C247.065 172.676 248.07 174.266 248.92 175.939C249.912 177.523 250.758 179.193 251.45 180.929Z" fill="#FAFAFA"/>
<path d="M251 166.92C250.88 166.82 252.38 164.92 253.57 162.23C254.76 159.54 255.19 157.17 255.35 157.23C255.101 160.884 253.559 164.33 251 166.95V166.92Z" fill="#FAFAFA"/>
<path d="M234.51 166.09C234.355 163.976 234.78 161.86 235.74 159.97C236.361 158.614 237.184 157.36 238.18 156.25C238.562 155.761 239.034 155.351 239.57 155.04C238.272 156.63 237.146 158.353 236.21 160.18C235.433 162.083 234.863 164.065 234.51 166.09Z" fill="#FAFAFA"/>
<path d="M378.69 142.3C378.23 138.155 378.18 133.975 378.54 129.82C378.913 125.64 380.514 121.663 383.14 118.39C385.87 115.23 390.07 113.2 394.2 113.73C396.76 114.06 399.2 115.32 401.75 115.25C404.75 115.16 407.32 113.32 410.03 112.09C414.302 110.151 419.088 109.649 423.67 110.66C426.085 111.115 428.321 112.246 430.12 113.92C431.006 114.765 431.663 115.821 432.029 116.99C432.394 118.158 432.457 119.401 432.21 120.6C435.232 120.467 438.258 120.733 441.21 121.39C444.167 122.056 446.746 123.85 448.4 126.39C449.89 129 449.79 132.63 447.65 134.74C449.059 134.551 450.488 134.89 451.662 135.691C452.836 136.492 453.672 137.699 454.01 139.08C454.276 140.477 454.134 141.921 453.602 143.24C453.07 144.56 452.171 145.698 451.01 146.52C448.214 148.232 444.901 148.898 441.66 148.4C438.88 147.87 435.66 147.09 433.43 145.4" fill="#263238"/>
<path d="M376.52 236.5C382.037 237.917 387.89 237.095 392.804 234.214C397.717 231.333 401.293 226.626 402.75 221.12C404.44 214.71 405.82 209.34 405.82 209.34C405.82 209.34 422.53 212.21 428.06 196.34C433.59 180.47 443.06 143.13 443.06 143.13C435.332 136.22 425.901 131.497 415.738 129.449C405.576 127.401 395.051 128.102 385.25 131.48L382.25 132.48L361.02 209.81C360.251 212.581 360.044 215.477 360.41 218.329C360.777 221.181 361.709 223.931 363.153 226.417C364.597 228.903 366.523 231.076 368.819 232.808C371.114 234.539 373.733 235.795 376.52 236.5Z" fill="#B78876"/>
<path d="M405.92 209.12C398.542 206.795 392.023 202.329 387.19 196.29C387.19 196.29 388.25 209.36 404.58 213.29L405.92 209.12Z" fill="#AA6550"/>
<path d="M378.74 149.66C378.51 149.45 368.91 142.77 365.62 153.75C362.33 164.73 374.02 165.75 374.13 165.46C374.24 165.17 378.74 149.66 378.74 149.66Z" fill="#B78876"/>
<path d="M372 160.289C372 160.289 371.77 160.369 371.4 160.419C370.897 160.461 370.397 160.311 370 159.999C369 159.229 368.55 157.089 369.09 155.099C369.341 154.149 369.802 153.267 370.44 152.519C370.651 152.215 370.931 151.965 371.258 151.791C371.586 151.617 371.95 151.524 372.32 151.519C372.563 151.517 372.798 151.603 372.982 151.761C373.166 151.919 373.286 152.139 373.32 152.379C373.38 152.729 373.24 152.929 373.32 152.969C373.4 153.009 373.61 152.849 373.65 152.369C373.671 152.082 373.594 151.796 373.43 151.559C373.312 151.397 373.163 151.261 372.991 151.157C372.819 151.054 372.628 150.987 372.43 150.959C371.952 150.911 371.47 150.987 371.031 151.18C370.591 151.373 370.208 151.676 369.92 152.059C369.165 152.868 368.623 153.85 368.34 154.919C367.74 157.149 368.25 159.559 369.7 160.499C369.97 160.673 370.276 160.783 370.594 160.823C370.912 160.863 371.236 160.831 371.54 160.729C371.93 160.549 372.06 160.329 372 160.289Z" fill="#AA6550"/>
<path d="M429.61 166.049C429.415 166.651 428.991 167.151 428.429 167.441C427.867 167.731 427.214 167.788 426.61 167.599C426.314 167.525 426.036 167.392 425.792 167.209C425.548 167.026 425.343 166.795 425.19 166.532C425.036 166.268 424.936 165.976 424.897 165.674C424.858 165.371 424.879 165.063 424.96 164.769C425.154 164.177 425.569 163.684 426.12 163.393C426.67 163.102 427.312 163.036 427.91 163.209C428.211 163.279 428.495 163.409 428.745 163.591C428.994 163.773 429.205 164.003 429.363 164.268C429.522 164.533 429.626 164.828 429.668 165.134C429.711 165.44 429.691 165.751 429.61 166.049Z" fill="#263238"/>
<path d="M432.57 164.51C432.19 164.71 430.9 162.87 428.46 162.05C426.02 161.23 423.81 161.86 423.65 161.47C423.56 161.3 424.03 160.86 425 160.55C426.311 160.163 427.71 160.198 429 160.65C430.272 161.071 431.375 161.887 432.15 162.98C432.68 163.81 432.75 164.43 432.57 164.51Z" fill="#263238"/>
<path d="M405.61 158C405.417 158.592 405.001 159.085 404.451 159.376C403.9 159.667 403.258 159.733 402.66 159.56C402.364 159.485 402.086 159.353 401.842 159.169C401.598 158.986 401.393 158.756 401.239 158.492C401.086 158.228 400.986 157.937 400.947 157.634C400.907 157.331 400.929 157.024 401.01 156.73C401.201 156.136 401.617 155.641 402.168 155.349C402.719 155.058 403.362 154.993 403.96 155.17C404.256 155.244 404.534 155.377 404.778 155.56C405.022 155.743 405.227 155.974 405.381 156.237C405.535 156.501 405.634 156.793 405.673 157.095C405.713 157.398 405.691 157.705 405.61 158Z" fill="#263238"/>
<path d="M408.43 156.909C408.05 157.119 406.75 155.269 404.31 154.449C401.87 153.629 399.67 154.259 399.5 153.869C399.42 153.699 399.88 153.259 400.86 152.959C402.17 152.572 403.569 152.604 404.86 153.049C406.133 153.473 407.239 154.289 408.02 155.379C408.53 156.209 408.61 156.829 408.43 156.909Z" fill="#263238"/>
<path d="M411.21 178C411.21 177.86 412.85 178.1 415.41 178.61C416.06 178.76 416.69 178.83 416.94 178.44C417.208 177.808 417.277 177.111 417.14 176.44C417.06 174.73 416.98 172.94 416.89 171.07C416.6 163.46 416.61 157.28 416.89 157.27C417.17 157.26 417.68 163.43 417.97 171.04C418.03 172.91 418.08 174.7 418.13 176.41C418.274 177.291 418.1 178.194 417.64 178.96C417.476 179.149 417.271 179.299 417.041 179.398C416.811 179.497 416.561 179.542 416.31 179.53C415.932 179.511 415.559 179.44 415.2 179.32C412.71 178.63 411.17 178.13 411.21 178Z" fill="#263238"/>
<path d="M403.46 177.269C403.86 177.379 402.98 180.029 404.62 182.669C406.26 185.309 409.17 185.969 409.07 186.339C409.07 186.519 408.26 186.649 407.07 186.279C405.511 185.78 404.179 184.746 403.31 183.359C402.468 182.032 402.181 180.426 402.51 178.889C402.77 177.749 403.28 177.189 403.46 177.269Z" fill="#263238"/>
<path d="M433.11 159.92C432.5 160.33 431.01 159.19 429 158.48C426.99 157.77 425.14 157.6 424.94 156.89C424.86 156.55 425.32 156.08 426.24 155.81C427.457 155.517 428.733 155.593 429.906 156.027C431.08 156.462 432.097 157.235 432.83 158.25C433.35 159.06 433.39 159.71 433.11 159.92Z" fill="#263238"/>
<path d="M408.21 146.999C407.84 147.199 407.21 146.869 406.5 146.439C405.581 145.891 404.617 145.419 403.62 145.029C402.609 144.665 401.569 144.391 400.51 144.209C399.66 144.039 399 143.909 398.85 143.509C398.7 143.109 399.18 142.509 400.26 142.109C401.698 141.655 403.245 141.694 404.658 142.219C406.071 142.745 407.268 143.726 408.06 145.009C408.61 146.059 408.56 146.839 408.21 146.999Z" fill="#263238"/>
<path d="M442.23 148.319C433.878 147.833 425.899 144.698 419.45 139.369C412.27 133.489 403.28 129.369 400.83 130.529C398.38 131.689 396.05 139.929 387.47 140.529C387.47 140.529 384.41 156.579 378.19 154.529C371.97 152.479 381.54 128.759 381.54 128.759L398.79 124.699L416.46 125.349L432.33 128.949L446.06 136.839L442.23 148.319Z" fill="#263238"/>
<path d="M353.13 85.3691H128.6V435.009H353.13V85.3691Z" fill="#FAFAFA"/>
<path d="M353.13 435C353.13 432.85 353.03 290.85 352.89 85.3596L353.13 85.5996H128.63L128.9 85.3396C128.9 217.62 128.9 339.42 128.84 434.98L128.63 434.77L353.16 434.98L128.63 435.18H128.43V435C128.43 339.44 128.43 217.64 128.37 85.3596V85.0996H128.66H353.16H353.4V85.3396C353.23 290.86 353.13 432.86 353.13 435Z" fill="#263238"/>
<path d="M188.78 163.229H160.05C159.097 163.229 158.183 162.851 157.508 162.178C156.833 161.505 156.453 160.592 156.45 159.639V119.869C156.453 118.916 156.833 118.003 157.508 117.33C158.183 116.657 159.097 116.279 160.05 116.279H178.27L192.37 130.809V159.639C192.37 160.591 191.992 161.505 191.319 162.178C190.645 162.851 189.732 163.229 188.78 163.229Z" fill="#FF7F5C"/>
<path d="M178.27 116.279V127.469C178.273 128.354 178.625 129.202 179.251 129.828C179.877 130.454 180.725 130.807 181.61 130.809H192.37L178.27 116.279Z" fill="#FF7F5C"/>
<g opacity="0.2">
<path d="M178.42 128.449C178.424 129.296 178.718 130.116 179.253 130.773C179.788 131.43 180.531 131.883 181.36 132.059L181.72 132.139C183.12 132.389 192.37 134.029 192.37 133.819V130.819H181.61C181.61 130.819 178.93 130.719 178.42 128.449Z" fill="black"/>
</g>
<g opacity="0.3">
<path d="M178.27 116.279V127.469C178.273 128.354 178.625 129.202 179.251 129.828C179.877 130.454 180.725 130.807 181.61 130.809H192.37L178.27 116.279Z" fill="white"/>
</g>
<path d="M175.86 127C173.654 127.257 171.43 127.344 169.21 127.26C166.994 127.344 164.774 127.257 162.57 127C164.774 126.743 166.994 126.656 169.21 126.74C171.43 126.656 173.654 126.743 175.86 127Z" fill="#FAFAFA"/>
<path d="M184.44 133.34C184.44 133.48 179.55 133.6 173.51 133.6C167.47 133.6 162.57 133.48 162.57 133.34C162.57 133.2 167.47 133.08 173.51 133.08C179.55 133.08 184.44 133.19 184.44 133.34Z" fill="#FAFAFA"/>
<path d="M186.41 138.619C186.41 138.769 181.08 138.879 174.49 138.879C167.9 138.879 162.57 138.769 162.57 138.619C162.57 138.469 167.91 138.359 174.49 138.359C181.07 138.359 186.41 138.479 186.41 138.619Z" fill="#FAFAFA"/>
<path d="M186.41 143.61C186.41 143.75 181.08 143.87 174.49 143.87C167.9 143.87 162.57 143.75 162.57 143.61C162.57 143.47 167.91 143.35 174.49 143.35C181.07 143.35 186.41 143.46 186.41 143.61Z" fill="#FAFAFA"/>
<path d="M186.41 148.59C186.41 148.74 181.08 148.85 174.49 148.85C167.9 148.85 162.57 148.74 162.57 148.59C162.57 148.44 167.91 148.33 174.49 148.33C181.07 148.33 186.41 148.45 186.41 148.59Z" fill="#FAFAFA"/>
<path d="M186.41 153.579C186.41 153.719 181.08 153.839 174.49 153.839C167.9 153.839 162.57 153.719 162.57 153.579C162.57 153.439 167.91 153.319 174.49 153.319C181.07 153.319 186.41 153.429 186.41 153.579Z" fill="#FAFAFA"/>
<path d="M202.42 136.709H199.42V135.609H206.73V136.709H203.73V144.449H202.48L202.42 136.709Z" fill="#263238"/>
<path d="M214.49 143.349V144.449H208.08V135.609H214.31V136.709H209.31V139.419H213.74V140.499H209.31V143.349H214.49Z" fill="#263238"/>
<path d="M222.44 144.45L220.53 141.73C220.347 141.741 220.163 141.741 219.98 141.73H217.8V144.42H216.53V135.58H220C222.3 135.58 223.68 136.74 223.68 138.66C223.711 139.274 223.537 139.881 223.186 140.386C222.835 140.891 222.327 141.265 221.74 141.45L223.84 144.45H222.44ZM222.44 138.69C222.44 137.43 221.6 136.69 219.98 136.69H217.8V140.69H219.94C221.56 140.69 222.4 140 222.4 138.69H222.44Z" fill="#263238"/>
<path d="M233.9 144.45V138L230.7 143.36H230.12L226.93 138.04V144.44H225.72V135.6H226.72L230.4 141.81L234.03 135.6H235.03V144.44L233.9 144.45Z" fill="#263238"/>
<path d="M237 143.44L237.46 142.44C238.286 143.105 239.32 143.458 240.38 143.44C241.91 143.44 242.56 142.84 242.56 142.07C242.56 139.91 237.21 141.28 237.21 138C237.21 136.63 238.27 135.47 240.59 135.47C241.593 135.45 242.581 135.725 243.43 136.26L243.02 137.26C242.293 136.799 241.451 136.553 240.59 136.55C239.09 136.55 238.45 137.18 238.45 137.95C238.45 140.1 243.8 138.75 243.8 141.95C243.8 143.3 242.71 144.46 240.38 144.46C239.169 144.519 237.976 144.159 237 143.44Z" fill="#263238"/>
<path d="M248.28 139.999C248.244 139.063 248.489 138.137 248.983 137.341C249.478 136.545 250.198 135.914 251.053 135.531C251.908 135.147 252.859 135.028 253.782 135.189C254.705 135.349 255.559 135.782 256.235 136.432C256.91 137.081 257.376 137.918 257.572 138.834C257.769 139.75 257.687 140.704 257.337 141.574C256.987 142.443 256.386 143.188 255.609 143.713C254.833 144.238 253.917 144.518 252.98 144.519C252.371 144.548 251.762 144.452 251.19 144.237C250.619 144.022 250.098 143.693 249.658 143.27C249.218 142.847 248.869 142.339 248.632 141.777C248.395 141.214 248.276 140.609 248.28 139.999ZM256.4 139.999C256.406 139.319 256.21 138.653 255.836 138.084C255.462 137.516 254.928 137.072 254.302 136.808C253.675 136.544 252.984 136.472 252.316 136.602C251.648 136.732 251.034 137.057 250.552 137.537C250.07 138.016 249.741 138.628 249.607 139.295C249.474 139.962 249.541 140.653 249.801 141.282C250.062 141.91 250.503 142.447 251.069 142.824C251.635 143.201 252.3 143.401 252.98 143.399C253.432 143.414 253.882 143.337 254.302 143.172C254.723 143.006 255.105 142.757 255.425 142.438C255.746 142.12 255.997 141.739 256.165 141.32C256.333 140.9 256.413 140.451 256.4 139.999Z" fill="#263238"/>
<path d="M260.86 136.709V139.789H265.29V140.879H260.86V144.449H259.6V135.609H265.83V136.709H260.86Z" fill="#263238"/>
<path d="M270.2 143.44L270.67 142.44C271.493 143.103 272.523 143.457 273.58 143.44C275.11 143.44 275.77 142.84 275.77 142.07C275.77 139.91 270.42 141.28 270.42 138C270.42 136.63 271.48 135.47 273.8 135.47C274.803 135.452 275.79 135.726 276.64 136.26L276.22 137.26C275.496 136.8 274.658 136.554 273.8 136.55C272.3 136.55 271.65 137.18 271.65 137.95C271.65 140.1 277 138.75 277 141.95C277 143.3 275.92 144.46 273.58 144.46C272.37 144.517 271.176 144.157 270.2 143.44Z" fill="#263238"/>
<path d="M285.26 143.349V144.449H278.85V135.609H285.08V136.709H280.08V139.419H284.51V140.499H280.08V143.349H285.26Z" fill="#263238"/>
<path d="M293.21 144.45L291.31 141.73C291.124 141.74 290.937 141.74 290.75 141.73H288.57V144.42H287.31V135.58H290.75C293.05 135.58 294.44 136.74 294.44 138.66C294.47 139.275 294.295 139.883 293.942 140.388C293.589 140.893 293.078 141.267 292.49 141.45L294.59 144.45H293.21ZM293.21 138.69C293.21 137.43 292.37 136.69 290.75 136.69H288.61V140.69H290.75C292.33 140.69 293.17 140 293.17 138.69H293.21Z" fill="#263238"/>
<path d="M304.15 135.609L300.28 144.449H299L295.11 135.609H296.48L299.66 142.869L302.86 135.609H304.15Z" fill="#263238"/>
<path d="M305.28 135.609H306.54V144.449H305.28V135.609Z" fill="#263238"/>
<path d="M308.47 140C308.463 139.39 308.58 138.786 308.815 138.224C309.049 137.661 309.396 137.153 309.835 136.729C310.273 136.306 310.793 135.977 311.363 135.762C311.933 135.547 312.542 135.451 313.15 135.48C313.777 135.455 314.401 135.565 314.981 135.803C315.561 136.041 316.082 136.402 316.51 136.86L315.69 137.65C315.37 137.316 314.982 137.054 314.553 136.881C314.124 136.709 313.662 136.63 313.2 136.65C312.637 136.652 312.084 136.794 311.589 137.063C311.095 137.332 310.675 137.719 310.367 138.191C310.059 138.662 309.874 139.203 309.826 139.764C309.779 140.324 309.871 140.888 310.096 141.405C310.32 141.921 310.669 142.373 311.112 142.721C311.554 143.07 312.076 143.302 312.63 143.399C313.185 143.496 313.755 143.453 314.289 143.275C314.823 143.097 315.304 142.79 315.69 142.38L316.51 143.17C316.081 143.63 315.558 143.992 314.977 144.232C314.395 144.472 313.769 144.583 313.14 144.56C312.529 144.587 311.919 144.489 311.347 144.271C310.775 144.053 310.254 143.72 309.816 143.292C309.379 142.865 309.033 142.352 308.802 141.786C308.57 141.219 308.457 140.611 308.47 140Z" fill="#263238"/>
<path d="M324.73 143.349V144.449H318.32V135.609H324.55V136.709H319.55V139.419H324V140.499H319.57V143.349H324.73Z" fill="#263238"/>
<path d="M210.35 153.52L207.99 160.52H206.94L205 154.94L203.07 160.56H202L199.65 153.56H200.65L202.55 159.29L204.55 153.56H205.48L207.42 159.32L209.36 153.56L210.35 153.52Z" fill="#E0E0E0"/>
<path d="M215.83 158.22H211.5C211.565 158.677 211.801 159.093 212.162 159.383C212.522 159.673 212.979 159.815 213.44 159.78C213.726 159.789 214.01 159.736 214.274 159.626C214.538 159.515 214.776 159.349 214.97 159.14L215.51 159.76C215.242 160.048 214.915 160.274 214.55 160.423C214.186 160.572 213.793 160.639 213.4 160.62C213.029 160.648 212.656 160.598 212.306 160.473C211.956 160.348 211.635 160.151 211.366 159.895C211.096 159.638 210.884 159.328 210.741 158.985C210.599 158.641 210.53 158.271 210.54 157.9C210.525 157.543 210.583 157.186 210.711 156.853C210.839 156.519 211.035 156.215 211.285 155.96C211.535 155.705 211.835 155.505 212.166 155.37C212.498 155.236 212.853 155.171 213.21 155.18C213.569 155.17 213.925 155.236 214.257 155.373C214.589 155.509 214.888 155.713 215.137 155.972C215.385 156.231 215.577 156.539 215.7 156.876C215.823 157.213 215.874 157.572 215.85 157.93C215.85 158 215.84 158.13 215.83 158.22ZM211.5 157.53H214.92C214.874 157.108 214.674 156.718 214.359 156.435C214.043 156.151 213.634 155.995 213.21 155.995C212.786 155.995 212.377 156.151 212.061 156.435C211.745 156.718 211.546 157.108 211.5 157.53Z" fill="#E0E0E0"/>
<path d="M217.19 153.1H218.19V160.56H217.19V153.1Z" fill="#E0E0E0"/>
<path d="M219.5 157.9C219.493 157.532 219.561 157.167 219.702 156.827C219.842 156.487 220.051 156.179 220.316 155.924C220.581 155.669 220.895 155.471 221.24 155.343C221.585 155.215 221.953 155.159 222.32 155.18C222.751 155.156 223.18 155.25 223.562 155.451C223.944 155.651 224.265 155.952 224.49 156.32L223.75 156.79C223.596 156.55 223.383 156.353 223.13 156.22C222.878 156.087 222.595 156.021 222.31 156.03C221.836 156.065 221.393 156.277 221.07 156.625C220.747 156.973 220.567 157.43 220.567 157.905C220.567 158.38 220.747 158.837 221.07 159.185C221.393 159.533 221.836 159.745 222.31 159.78C222.595 159.789 222.878 159.723 223.13 159.59C223.383 159.457 223.596 159.26 223.75 159.02L224.49 159.48C224.265 159.848 223.944 160.149 223.562 160.349C223.18 160.55 222.751 160.644 222.32 160.62C221.953 160.641 221.585 160.585 221.24 160.457C220.895 160.329 220.581 160.131 220.316 159.876C220.051 159.621 219.842 159.313 219.702 158.973C219.561 158.633 219.493 158.268 219.5 157.9Z" fill="#E0E0E0"/>
<path d="M225.16 157.9C225.15 157.351 225.304 156.811 225.602 156.349C225.899 155.887 226.328 155.524 226.832 155.307C227.337 155.089 227.895 155.026 228.435 155.127C228.976 155.227 229.474 155.486 229.867 155.87C230.259 156.254 230.529 156.747 230.641 157.285C230.753 157.823 230.703 158.382 230.496 158.891C230.29 159.401 229.936 159.837 229.481 160.145C229.026 160.453 228.489 160.618 227.94 160.62C227.576 160.637 227.212 160.578 226.871 160.448C226.53 160.318 226.22 160.119 225.959 159.864C225.698 159.609 225.493 159.303 225.355 158.965C225.218 158.627 225.151 158.265 225.16 157.9ZM229.73 157.9C229.714 157.547 229.595 157.207 229.388 156.922C229.18 156.636 228.893 156.418 228.563 156.294C228.232 156.171 227.873 156.147 227.529 156.226C227.185 156.305 226.871 156.483 226.628 156.739C226.385 156.994 226.222 157.316 226.16 157.663C226.098 158.011 226.139 158.369 226.279 158.693C226.419 159.017 226.651 159.293 226.946 159.486C227.241 159.679 227.587 159.782 227.94 159.78C228.184 159.786 228.428 159.741 228.654 159.648C228.88 159.554 229.084 159.415 229.252 159.237C229.421 159.06 229.551 158.85 229.633 158.619C229.715 158.389 229.748 158.144 229.73 157.9Z" fill="#E0E0E0"/>
<path d="M240.89 157.5V160.56H239.89V157.61C239.89 156.56 239.38 156.05 238.51 156.05C237.64 156.05 236.91 156.66 236.91 157.82V160.56H235.91V157.61C235.91 156.56 235.4 156.05 234.53 156.05C233.66 156.05 232.93 156.66 232.93 157.82V160.56H231.93V155.23H233V156.03C233.215 155.749 233.494 155.525 233.815 155.377C234.136 155.229 234.487 155.161 234.84 155.18C235.211 155.158 235.58 155.24 235.907 155.417C236.234 155.594 236.505 155.858 236.69 156.18C236.923 155.857 237.232 155.596 237.589 155.422C237.947 155.247 238.342 155.164 238.74 155.18C239.044 155.153 239.351 155.196 239.636 155.305C239.921 155.415 240.177 155.588 240.384 155.812C240.592 156.036 240.745 156.305 240.833 156.597C240.921 156.89 240.94 157.199 240.89 157.5Z" fill="#E0E0E0"/>
<path d="M247.5 158.22H243.18C243.24 158.678 243.474 159.095 243.833 159.385C244.193 159.676 244.65 159.817 245.11 159.78C245.398 159.79 245.684 159.738 245.95 159.628C246.216 159.517 246.455 159.351 246.65 159.14L247.18 159.76C246.787 160.167 246.283 160.451 245.731 160.577C245.179 160.702 244.602 160.664 244.071 160.467C243.54 160.269 243.079 159.921 242.743 159.465C242.407 159.009 242.211 158.465 242.18 157.9C242.166 157.542 242.226 157.186 242.355 156.852C242.485 156.518 242.681 156.215 242.932 155.96C243.183 155.705 243.484 155.504 243.815 155.37C244.147 155.236 244.503 155.171 244.86 155.18C245.218 155.17 245.575 155.236 245.906 155.373C246.237 155.509 246.536 155.713 246.784 155.972C247.032 156.231 247.222 156.539 247.344 156.876C247.466 157.213 247.515 157.572 247.49 157.93C247.52 158 247.51 158.13 247.5 158.22ZM243.18 157.53H246.6C246.555 157.108 246.355 156.718 246.039 156.435C245.723 156.151 245.314 155.995 244.89 155.995C244.466 155.995 244.057 156.151 243.741 156.435C243.426 156.718 243.226 157.108 243.18 157.53Z" fill="#E0E0E0"/>
<path d="M248.64 160C248.64 159.914 248.657 159.829 248.691 159.75C248.724 159.671 248.773 159.6 248.835 159.54C248.896 159.481 248.969 159.434 249.049 159.403C249.129 159.372 249.214 159.357 249.3 159.36C249.47 159.36 249.633 159.427 249.753 159.548C249.873 159.668 249.94 159.83 249.94 160C249.94 160.17 249.873 160.333 249.753 160.453C249.633 160.573 249.47 160.64 249.3 160.64C249.214 160.643 249.129 160.628 249.049 160.597C248.969 160.566 248.896 160.52 248.835 160.46C248.773 160.4 248.724 160.329 248.691 160.25C248.657 160.171 248.64 160.086 248.64 160ZM248.73 153.54H249.87L249.68 158.36H248.91L248.73 153.54Z" fill="#E0E0E0"/>
<path d="M338.72 106.89H337.54C336.805 106.89 336.21 107.485 336.21 108.22V399.13C336.21 399.864 336.805 400.46 337.54 400.46H338.72C339.455 400.46 340.05 399.864 340.05 399.13V108.22C340.05 107.485 339.455 106.89 338.72 106.89Z" fill="#E0E0E0"/>
<path d="M338.72 106.89H337.54C336.805 106.89 336.21 107.485 336.21 108.22V256.91C336.21 257.644 336.805 258.24 337.54 258.24H338.72C339.455 258.24 340.05 257.644 340.05 256.91V108.22C340.05 107.485 339.455 106.89 338.72 106.89Z" fill="#FF7F5C"/>
<path d="M163.75 194.52V201.52H162.75V195.4H161.16V194.52H163.75Z" fill="#263238"/>
<path d="M165.27 200.93C165.272 200.796 165.314 200.665 165.39 200.555C165.466 200.444 165.573 200.359 165.697 200.309C165.821 200.259 165.958 200.247 166.089 200.274C166.22 200.301 166.34 200.367 166.435 200.462C166.529 200.558 166.592 200.679 166.618 200.811C166.643 200.942 166.629 201.079 166.578 201.202C166.526 201.326 166.439 201.432 166.327 201.506C166.215 201.58 166.084 201.62 165.95 201.62C165.86 201.621 165.77 201.604 165.686 201.57C165.602 201.536 165.526 201.485 165.463 201.42C165.399 201.356 165.349 201.279 165.316 201.195C165.283 201.11 165.268 201.02 165.27 200.93Z" fill="#263238"/>
<path d="M172.25 195.4H169.83V194.52H175.66V195.4H173.24V201.56H172.24L172.25 195.4Z" fill="#263238"/>
<path d="M180.86 199.22H176.53C176.593 199.677 176.827 200.092 177.186 200.382C177.544 200.672 178 200.814 178.46 200.78C178.749 200.789 179.036 200.735 179.301 200.623C179.567 200.511 179.806 200.343 180 200.13L180.53 200.76C180.139 201.172 179.635 201.46 179.081 201.588C178.528 201.716 177.949 201.679 177.416 201.481C176.883 201.283 176.42 200.932 176.085 200.474C175.75 200.015 175.557 199.467 175.53 198.9C175.515 198.543 175.573 198.186 175.701 197.853C175.83 197.519 176.025 197.215 176.275 196.96C176.526 196.705 176.826 196.505 177.157 196.37C177.488 196.236 177.843 196.171 178.2 196.18C178.559 196.17 178.915 196.236 179.247 196.373C179.579 196.509 179.879 196.713 180.127 196.972C180.375 197.231 180.567 197.539 180.69 197.876C180.813 198.213 180.864 198.572 180.84 198.93C180.88 199 180.87 199.13 180.86 199.22ZM176.53 198.52H180C179.955 198.098 179.755 197.708 179.439 197.425C179.123 197.141 178.714 196.985 178.29 196.985C177.866 196.985 177.457 197.141 177.141 197.425C176.826 197.708 176.626 198.098 176.58 198.52H176.53Z" fill="#263238"/>
<path d="M185.08 196.179V197.119H184.86C184.625 197.104 184.389 197.141 184.17 197.228C183.951 197.314 183.754 197.449 183.593 197.621C183.433 197.793 183.312 197.999 183.241 198.224C183.169 198.448 183.149 198.686 183.18 198.919V201.569H182.18V196.239H183.1V197.139C183.3 196.803 183.594 196.533 183.946 196.362C184.298 196.192 184.692 196.128 185.08 196.179Z" fill="#263238"/>
<path d="M195.12 198.49V201.56H194.12V198.56C194.12 197.56 193.62 197.01 192.74 197.01C191.86 197.01 191.15 197.62 191.15 198.78V201.52H190.15V198.52C190.15 197.52 189.65 196.97 188.77 196.97C188.542 196.96 188.315 197.001 188.105 197.089C187.895 197.177 187.707 197.31 187.554 197.479C187.401 197.648 187.288 197.848 187.221 198.066C187.155 198.284 187.137 198.514 187.17 198.74V201.48H186.17V196.15H187.09V196.95C187.304 196.668 187.583 196.444 187.904 196.295C188.225 196.147 188.577 196.08 188.93 196.1C189.301 196.078 189.67 196.16 189.997 196.337C190.324 196.513 190.595 196.778 190.78 197.1C191.013 196.775 191.324 196.514 191.684 196.339C192.043 196.165 192.441 196.082 192.84 196.1C193.161 196.047 193.49 196.073 193.799 196.177C194.107 196.28 194.386 196.457 194.611 196.693C194.836 196.928 194.999 197.215 195.088 197.528C195.177 197.841 195.188 198.171 195.12 198.49Z" fill="#263238"/>
<path d="M166.51 309.919V310.789H161.51V310.109L164.37 307.339C165.12 306.619 165.26 306.179 165.26 305.729C165.26 305.009 164.74 304.569 163.76 304.569C163.422 304.55 163.084 304.608 162.771 304.74C162.459 304.871 162.182 305.073 161.96 305.329L161.27 304.739C161.593 304.38 161.993 304.098 162.439 303.913C162.886 303.728 163.367 303.645 163.85 303.669C165.32 303.669 166.26 304.429 166.26 305.669C166.249 306.101 166.14 306.524 165.94 306.907C165.741 307.29 165.457 307.623 165.11 307.879L162.95 309.959L166.51 309.919Z" fill="#263238"/>
<path d="M167.42 310.16C167.418 310.069 167.433 309.979 167.466 309.895C167.499 309.811 167.549 309.734 167.613 309.669C167.676 309.605 167.752 309.554 167.836 309.52C167.92 309.485 168.01 309.468 168.1 309.47C168.283 309.47 168.459 309.542 168.588 309.672C168.718 309.801 168.79 309.977 168.79 310.16C168.79 310.343 168.718 310.518 168.588 310.648C168.459 310.777 168.283 310.85 168.1 310.85C168.01 310.85 167.921 310.832 167.838 310.797C167.755 310.762 167.679 310.711 167.616 310.647C167.553 310.583 167.503 310.507 167.469 310.423C167.436 310.339 167.419 310.25 167.42 310.16Z" fill="#263238"/>
<path d="M173 303.75H174V309.92H177.81V310.79H173V303.75Z" fill="#263238"/>
<path d="M178.67 303.81C178.67 303.726 178.687 303.642 178.72 303.564C178.753 303.486 178.801 303.416 178.861 303.357C178.922 303.299 178.994 303.253 179.073 303.222C179.151 303.192 179.236 303.177 179.32 303.18C179.444 303.184 179.563 303.224 179.664 303.296C179.765 303.367 179.843 303.467 179.888 303.582C179.932 303.698 179.942 303.824 179.915 303.945C179.889 304.066 179.827 304.176 179.738 304.262C179.65 304.348 179.537 304.406 179.416 304.429C179.294 304.452 179.168 304.438 179.054 304.39C178.94 304.342 178.843 304.261 178.775 304.158C178.706 304.055 178.67 303.934 178.67 303.81ZM178.84 305.46H179.84V310.79H178.84V305.46Z" fill="#263238"/>
<path d="M181.15 308.13C181.143 307.763 181.211 307.398 181.351 307.059C181.49 306.72 181.699 306.413 181.962 306.158C182.226 305.902 182.54 305.704 182.883 305.576C183.227 305.447 183.593 305.39 183.96 305.41C184.393 305.383 184.824 305.475 185.209 305.676C185.593 305.877 185.915 306.179 186.14 306.55L185.4 307.02C185.246 306.779 185.033 306.583 184.78 306.45C184.528 306.317 184.245 306.251 183.96 306.26C183.486 306.294 183.043 306.507 182.72 306.855C182.397 307.203 182.217 307.66 182.217 308.135C182.217 308.61 182.397 309.067 182.72 309.415C183.043 309.763 183.486 309.975 183.96 310.01C184.246 310.016 184.529 309.949 184.781 309.814C185.033 309.679 185.247 309.481 185.4 309.24L186.14 309.7C185.915 310.071 185.594 310.375 185.21 310.577C184.826 310.78 184.394 310.874 183.96 310.85C183.593 310.869 183.227 310.813 182.883 310.684C182.54 310.555 182.226 310.357 181.962 310.102C181.699 309.847 181.49 309.54 181.351 309.2C181.211 308.861 181.143 308.497 181.15 308.13Z" fill="#263238"/>
<path d="M192.1 308.45H187.78C187.843 308.907 188.077 309.323 188.436 309.613C188.795 309.903 189.25 310.045 189.71 310.01C189.999 310.019 190.286 309.966 190.551 309.854C190.817 309.741 191.056 309.573 191.25 309.36L191.78 309.99C191.387 310.398 190.883 310.682 190.331 310.807C189.779 310.933 189.202 310.895 188.671 310.697C188.14 310.5 187.679 310.152 187.343 309.696C187.007 309.24 186.811 308.696 186.78 308.13C186.767 307.773 186.826 307.416 186.955 307.082C187.085 306.749 187.281 306.445 187.532 306.19C187.783 305.936 188.084 305.735 188.415 305.601C188.747 305.466 189.103 305.402 189.46 305.41C189.818 305.401 190.175 305.467 190.506 305.603C190.837 305.74 191.136 305.944 191.384 306.203C191.632 306.462 191.822 306.77 191.944 307.107C192.066 307.444 192.115 307.803 192.09 308.16C192.12 308.24 192.11 308.36 192.1 308.45ZM187.78 307.75H191.2C191.155 307.328 190.955 306.938 190.639 306.655C190.324 306.372 189.914 306.215 189.49 306.215C189.066 306.215 188.657 306.372 188.341 306.655C188.026 306.938 187.826 307.328 187.78 307.75Z" fill="#263238"/>
<path d="M198.52 307.72V310.79H197.52V307.79C197.52 306.79 197 306.24 196.09 306.24C195.856 306.221 195.622 306.256 195.403 306.339C195.184 306.423 194.987 306.554 194.825 306.724C194.663 306.893 194.541 307.096 194.468 307.319C194.394 307.541 194.371 307.777 194.4 308.01V310.75H193.4V305.42H194.33V306.22C194.558 305.934 194.852 305.708 195.186 305.56C195.52 305.412 195.885 305.347 196.25 305.37C196.564 305.334 196.881 305.371 197.179 305.478C197.476 305.584 197.745 305.758 197.964 305.985C198.183 306.212 198.348 306.487 198.444 306.788C198.54 307.088 198.566 307.407 198.52 307.72Z" fill="#263238"/>
<path d="M199.85 308.13C199.841 307.762 199.908 307.397 200.048 307.057C200.187 306.717 200.395 306.41 200.659 306.154C200.923 305.899 201.237 305.701 201.582 305.572C201.926 305.444 202.293 305.389 202.66 305.41C203.093 305.383 203.524 305.475 203.909 305.676C204.293 305.877 204.615 306.179 204.84 306.55L204.1 307.02C203.944 306.779 203.729 306.582 203.475 306.449C203.221 306.315 202.937 306.25 202.65 306.26C202.176 306.294 201.733 306.507 201.41 306.855C201.087 307.203 200.907 307.66 200.907 308.135C200.907 308.61 201.087 309.067 201.41 309.415C201.733 309.763 202.176 309.975 202.65 310.01C202.937 310.017 203.222 309.95 203.476 309.815C203.73 309.68 203.945 309.482 204.1 309.24L204.84 309.7C204.615 310.071 204.294 310.375 203.91 310.577C203.525 310.78 203.093 310.874 202.66 310.85C202.293 310.869 201.927 310.813 201.583 310.684C201.24 310.555 200.926 310.357 200.662 310.102C200.399 309.847 200.19 309.54 200.051 309.2C199.911 308.861 199.843 308.497 199.85 308.13Z" fill="#263238"/>
<path d="M210.8 308.45H206.48C206.542 308.907 206.777 309.323 207.136 309.613C207.494 309.903 207.95 310.045 208.41 310.01C208.698 310.019 208.985 309.966 209.251 309.854C209.517 309.741 209.755 309.573 209.95 309.36L210.48 309.99C210.087 310.398 209.583 310.682 209.031 310.807C208.479 310.933 207.902 310.895 207.371 310.697C206.84 310.5 206.378 310.152 206.043 309.696C205.707 309.24 205.511 308.696 205.48 308.13C205.466 307.773 205.526 307.416 205.655 307.082C205.784 306.749 205.981 306.445 206.232 306.19C206.483 305.936 206.783 305.735 207.115 305.601C207.447 305.466 207.802 305.402 208.16 305.41C208.518 305.401 208.874 305.467 209.206 305.603C209.537 305.74 209.836 305.944 210.084 306.203C210.331 306.462 210.522 306.77 210.644 307.107C210.765 307.444 210.815 307.803 210.79 308.16C210.82 308.24 210.81 308.36 210.8 308.45ZM206.48 307.75H209.9C209.854 307.328 209.654 306.938 209.339 306.655C209.023 306.372 208.614 306.215 208.19 306.215C207.766 306.215 207.357 306.372 207.041 306.655C206.725 306.938 206.526 307.328 206.48 307.75Z" fill="#263238"/>
<path d="M315.23 217.39C315.23 217.54 280.72 217.65 238.16 217.65C195.6 217.65 161.08 217.54 161.08 217.39C161.08 217.24 195.59 217.13 238.16 217.13C280.73 217.13 315.23 217.25 315.23 217.39Z" fill="#263238"/>
<path d="M315.23 229.06C315.23 229.2 280.72 229.32 238.16 229.32C195.6 229.32 161.08 229.2 161.08 229.06C161.08 228.92 195.59 228.8 238.16 228.8C280.73 228.8 315.23 228.91 315.23 229.06Z" fill="#263238"/>
<path d="M315.23 240.72C315.23 240.87 280.72 240.98 238.16 240.98C195.6 240.98 161.08 240.87 161.08 240.72C161.08 240.57 195.59 240.46 238.16 240.46C280.73 240.46 315.23 240.58 315.23 240.72Z" fill="#263238"/>
<path d="M315.23 252.39C315.23 252.53 280.72 252.65 238.16 252.65C195.6 252.65 161.08 252.53 161.08 252.39C161.08 252.25 195.59 252.13 238.16 252.13C280.73 252.13 315.23 252.24 315.23 252.39Z" fill="#263238"/>
<path d="M315.23 264.05C315.23 264.2 280.72 264.31 238.16 264.31C195.6 264.31 161.08 264.2 161.08 264.05C161.08 263.9 195.59 263.79 238.16 263.79C280.73 263.79 315.23 263.91 315.23 264.05Z" fill="#263238"/>
<path d="M315.23 275.72C315.23 275.86 280.72 275.98 238.16 275.98C195.6 275.98 161.08 275.86 161.08 275.72C161.08 275.58 195.59 275.46 238.16 275.46C280.73 275.46 315.23 275.57 315.23 275.72Z" fill="#263238"/>
<path d="M315.23 319.999C315.23 320.139 280.72 320.259 238.16 320.259C195.6 320.259 161.08 320.139 161.08 319.999C161.08 319.859 195.59 319.739 238.16 319.739C280.73 319.739 315.23 319.879 315.23 319.999Z" fill="#263238"/>
<path d="M315.23 329.999C315.23 330.149 280.72 330.259 238.16 330.259C195.6 330.259 161.08 330.149 161.08 329.999C161.08 329.849 195.59 329.739 238.16 329.739C280.73 329.739 315.23 329.859 315.23 329.999Z" fill="#E0E0E0"/>
<path d="M315.23 339.999C315.23 340.139 280.72 340.259 238.16 340.259C195.6 340.259 161.08 340.139 161.08 339.999C161.08 339.859 195.59 339.739 238.16 339.739C280.73 339.739 315.23 339.839 315.23 339.999Z" fill="#EBEBEB"/>
<path d="M326.48 369.83H244.94V400.21H326.48V369.83Z" fill="#FF7F5C"/>
<path d="M272.1 386.59H268.1L267.27 388.48H266.16L269.58 380.93H270.64L274.07 388.48H272.94L272.1 386.59ZM271.72 385.73L270.09 382.03L268.47 385.73H271.72Z" fill="white"/>
<path d="M274.45 385.62C274.443 385.228 274.516 384.839 274.666 384.476C274.815 384.114 275.037 383.786 275.318 383.513C275.6 383.24 275.934 383.028 276.301 382.89C276.668 382.752 277.059 382.69 277.45 382.71C277.913 382.682 278.374 382.781 278.785 382.996C279.195 383.211 279.539 383.534 279.78 383.93L278.99 384.43C278.825 384.171 278.595 383.959 278.323 383.815C278.052 383.672 277.747 383.601 277.44 383.61C276.91 383.61 276.401 383.82 276.026 384.195C275.651 384.57 275.44 385.079 275.44 385.61C275.44 386.14 275.651 386.649 276.026 387.024C276.401 387.399 276.91 387.61 277.44 387.61C277.747 387.618 278.052 387.547 278.323 387.404C278.595 387.26 278.825 387.048 278.99 386.79L279.78 387.28C279.54 387.677 279.196 388.001 278.786 388.217C278.375 388.434 277.914 388.535 277.45 388.51C277.06 388.529 276.671 388.468 276.306 388.331C275.94 388.194 275.607 387.983 275.326 387.713C275.045 387.442 274.822 387.117 274.672 386.757C274.521 386.397 274.446 386.01 274.45 385.62Z" fill="white"/>
<path d="M280.52 385.62C280.513 385.228 280.586 384.839 280.735 384.477C280.885 384.114 281.107 383.786 281.388 383.514C281.67 383.241 282.004 383.029 282.371 382.89C282.737 382.752 283.129 382.691 283.52 382.71C283.983 382.681 284.445 382.78 284.855 382.995C285.266 383.21 285.61 383.533 285.85 383.93L285.06 384.43C284.894 384.171 284.665 383.96 284.393 383.816C284.121 383.672 283.817 383.601 283.51 383.61C282.98 383.61 282.471 383.821 282.096 384.196C281.721 384.571 281.51 385.079 281.51 385.61C281.51 386.14 281.721 386.649 282.096 387.024C282.471 387.399 282.98 387.61 283.51 387.61C283.817 387.619 284.121 387.548 284.393 387.404C284.665 387.26 284.894 387.049 285.06 386.79L285.85 387.28C285.61 387.678 285.267 388.002 284.856 388.219C284.446 388.436 283.984 388.536 283.52 388.51C283.13 388.529 282.741 388.468 282.375 388.331C282.01 388.194 281.677 387.984 281.396 387.713C281.115 387.442 280.892 387.117 280.741 386.757C280.591 386.397 280.515 386.01 280.52 385.62Z" fill="white"/>
<path d="M292.27 386H287.63C287.697 386.489 287.949 386.935 288.334 387.245C288.719 387.556 289.207 387.707 289.7 387.67C290.009 387.68 290.316 387.624 290.601 387.505C290.885 387.386 291.141 387.207 291.35 386.98L291.92 387.65C291.633 387.959 291.282 388.201 290.892 388.36C290.502 388.519 290.081 388.59 289.66 388.57C289.262 388.599 288.862 388.545 288.487 388.411C288.111 388.276 287.767 388.065 287.478 387.79C287.189 387.515 286.961 387.182 286.808 386.814C286.655 386.445 286.581 386.049 286.59 385.65C286.575 385.267 286.638 384.885 286.777 384.528C286.915 384.17 287.125 383.845 287.394 383.573C287.663 383.3 287.985 383.085 288.341 382.942C288.696 382.799 289.077 382.73 289.46 382.74C289.844 382.728 290.227 382.796 290.583 382.941C290.939 383.086 291.261 383.304 291.528 383.581C291.795 383.858 292 384.188 292.132 384.55C292.263 384.911 292.317 385.296 292.29 385.68C292.29 385.74 292.28 385.87 292.27 386ZM287.63 385.25H291.29C291.243 384.797 291.03 384.379 290.692 384.074C290.354 383.77 289.915 383.601 289.46 383.601C289.005 383.601 288.567 383.77 288.229 384.074C287.891 384.379 287.677 384.797 287.63 385.25Z" fill="white"/>
<path d="M299.64 385.62C299.661 386.006 299.601 386.393 299.464 386.755C299.327 387.117 299.115 387.446 298.843 387.721C298.571 387.996 298.244 388.211 297.883 388.352C297.523 388.493 297.137 388.557 296.75 388.54C296.368 388.552 295.989 388.476 295.641 388.316C295.294 388.156 294.989 387.918 294.75 387.62V390.57H293.75V382.76H294.75V383.67C294.978 383.355 295.279 383.099 295.628 382.925C295.976 382.751 296.361 382.663 296.75 382.67C297.139 382.652 297.528 382.717 297.891 382.86C298.253 383.002 298.582 383.22 298.855 383.499C299.128 383.777 299.338 384.11 299.474 384.475C299.609 384.841 299.666 385.231 299.64 385.62ZM298.59 385.62C298.576 385.241 298.452 384.875 298.231 384.567C298.011 384.259 297.705 384.023 297.351 383.887C296.998 383.752 296.612 383.724 296.242 383.806C295.873 383.888 295.535 384.077 295.272 384.35C295.01 384.622 294.833 384.966 294.764 385.338C294.695 385.711 294.737 386.095 294.885 386.444C295.032 386.792 295.28 387.09 295.595 387.299C295.911 387.508 296.281 387.62 296.66 387.62C296.921 387.626 297.181 387.578 297.422 387.478C297.664 387.379 297.882 387.231 298.063 387.043C298.245 386.855 298.385 386.631 298.476 386.386C298.566 386.142 298.605 385.881 298.59 385.62Z" fill="white"/>
<path d="M304.29 388.14C303.928 388.412 303.483 388.553 303.03 388.54C302.787 388.568 302.541 388.541 302.31 388.462C302.079 388.382 301.869 388.252 301.695 388.08C301.521 387.908 301.388 387.699 301.306 387.469C301.224 387.239 301.195 386.993 301.22 386.75V383.61H300.22V382.76H301.22V381.51H302.22V382.76H303.86V383.61H302.22V386.71C302.195 386.837 302.2 386.968 302.234 387.093C302.268 387.218 302.331 387.334 302.417 387.431C302.503 387.528 302.611 387.603 302.731 387.652C302.851 387.7 302.981 387.72 303.11 387.71C303.403 387.714 303.689 387.619 303.92 387.44L304.29 388.14Z" fill="white"/>
<path d="M157.27 400.449C157.27 400.449 157.2 400.449 157.07 400.319L156.49 399.869L154.06 397.999L153.97 397.929L154.08 397.879C163.92 394.109 196.01 382.069 235.56 367.329L235.7 367.279L235.81 367.369L238.97 369.909L239.07 369.989V400.749H238.81L180.51 400.649L163.42 400.579H158.84H157.66C157.53 400.586 157.4 400.586 157.27 400.579H157.68H158.87H163.48L180.59 400.509L238.81 400.409L238.56 400.659C238.56 393.609 238.56 386.229 238.56 378.659V370.279L238.66 370.479L235.5 367.929H235.75C196.19 382.649 164.05 394.549 154.14 398.129V398.019L156.5 399.969L157.08 400.449H157.27Z" fill="#FF7F5C"/>
<path d="M235.64 367.529H154.1V397.909H235.64V367.529Z" fill="white"/>
<path d="M235.65 397.91C235.65 397.91 235.65 397.72 235.65 397.36C235.65 397 235.65 396.47 235.65 395.79C235.65 394.4 235.65 392.37 235.65 389.79C235.65 384.56 235.59 376.99 235.55 367.56L235.73 367.74L154.19 367.82L154.45 367.56C154.45 378.16 154.45 388.42 154.45 397.94L154.2 397.69L212.57 397.81L229.57 397.88H234.14H235.33H235.74H235.36H234.2H229.69L212.74 397.95L154.19 398.07H153.94V397.82C153.94 388.3 153.94 378.04 153.94 367.44V367.18H154.21L235.75 367.26H235.93V367.44C235.93 376.91 235.85 384.52 235.83 389.78C235.83 392.37 235.83 394.38 235.83 395.78C235.83 396.44 235.83 396.95 235.83 397.32C235.83 397.69 235.65 397.91 235.65 397.91Z" fill="#FF7F5C"/>
<path d="M176.45 380.57H179.63C180.15 380.532 180.671 380.601 181.163 380.774C181.654 380.947 182.105 381.219 182.486 381.574C182.868 381.929 183.172 382.358 183.38 382.836C183.588 383.313 183.695 383.829 183.695 384.35C183.695 384.87 183.588 385.386 183.38 385.863C183.172 386.341 182.868 386.77 182.486 387.125C182.105 387.48 181.654 387.752 181.163 387.925C180.671 388.098 180.15 388.167 179.63 388.13H176.45V380.57ZM179.57 387.19C179.963 387.223 180.359 387.174 180.732 387.046C181.105 386.918 181.448 386.714 181.738 386.447C182.028 386.181 182.26 385.856 182.418 385.495C182.577 385.134 182.659 384.744 182.659 384.35C182.659 383.955 182.577 383.565 182.418 383.204C182.26 382.843 182.028 382.519 181.738 382.252C181.448 381.985 181.105 381.781 180.732 381.653C180.359 381.525 179.963 381.477 179.57 381.51H177.57V387.19H179.57Z" fill="#FF7F5C"/>
<path d="M190.35 385.61H185.71C185.778 386.101 186.031 386.549 186.418 386.859C186.805 387.17 187.296 387.32 187.79 387.28C188.099 387.293 188.407 387.238 188.692 387.118C188.977 386.999 189.233 386.819 189.44 386.59L190.01 387.26C189.587 387.687 189.049 387.983 188.461 388.112C187.874 388.24 187.261 388.196 186.698 387.985C186.135 387.774 185.645 387.404 185.287 386.92C184.929 386.437 184.718 385.86 184.68 385.26C184.664 384.876 184.726 384.493 184.864 384.135C185.002 383.776 185.212 383.45 185.481 383.176C185.75 382.902 186.073 382.687 186.429 382.543C186.785 382.399 187.166 382.33 187.55 382.34C187.935 382.329 188.318 382.399 188.674 382.545C189.03 382.691 189.352 382.91 189.619 383.188C189.885 383.466 190.091 383.797 190.222 384.159C190.353 384.52 190.407 384.906 190.38 385.29C190.38 385.39 190.36 385.51 190.35 385.61ZM185.71 384.87H189.38C189.323 384.424 189.105 384.013 188.768 383.716C188.43 383.419 187.995 383.255 187.545 383.255C187.095 383.255 186.661 383.419 186.323 383.716C185.985 384.013 185.768 384.424 185.71 384.87Z" fill="#FF7F5C"/>
<path d="M191.28 385.269C191.271 384.877 191.344 384.486 191.492 384.123C191.641 383.759 191.863 383.43 192.144 383.156C192.426 382.882 192.761 382.669 193.128 382.53C193.496 382.392 193.888 382.33 194.28 382.349C194.743 382.322 195.204 382.421 195.614 382.636C196.025 382.851 196.369 383.173 196.61 383.569L195.82 384.079C195.654 383.821 195.424 383.61 195.152 383.466C194.881 383.323 194.577 383.251 194.27 383.259C193.74 383.259 193.231 383.47 192.856 383.845C192.481 384.22 192.27 384.729 192.27 385.259C192.27 385.79 192.481 386.298 192.856 386.673C193.231 387.049 193.74 387.259 194.27 387.259C194.577 387.267 194.881 387.196 195.152 387.052C195.424 386.908 195.654 386.697 195.82 386.439L196.61 386.939C196.37 387.336 196.026 387.66 195.615 387.877C195.205 388.094 194.743 388.195 194.28 388.169C193.889 388.188 193.499 388.127 193.133 387.99C192.767 387.852 192.433 387.641 192.152 387.369C191.871 387.097 191.648 386.771 191.498 386.409C191.348 386.048 191.274 385.66 191.28 385.269Z" fill="#FF7F5C"/>
<path d="M197.89 380.119H198.89V388.119H197.89V380.119Z" fill="#FF7F5C"/>
<path d="M200.71 380.64C200.711 380.549 200.73 380.46 200.766 380.377C200.802 380.294 200.854 380.218 200.919 380.155C200.984 380.092 201.061 380.042 201.145 380.009C201.229 379.975 201.319 379.959 201.41 379.96C201.544 379.964 201.673 380.007 201.782 380.084C201.891 380.161 201.975 380.269 202.024 380.393C202.072 380.518 202.083 380.654 202.054 380.785C202.026 380.915 201.96 381.034 201.864 381.127C201.768 381.221 201.647 381.283 201.515 381.308C201.384 381.333 201.248 381.318 201.125 381.266C201.002 381.214 200.897 381.127 200.823 381.016C200.749 380.904 200.71 380.774 200.71 380.64ZM200.9 382.41H201.9V388.13H200.9V382.41Z" fill="#FF7F5C"/>
<path d="M209.33 384.84V388.13H208.33V385C208.33 383.88 207.76 383.33 206.78 383.33C206.53 383.312 206.279 383.349 206.045 383.44C205.811 383.53 205.6 383.671 205.427 383.853C205.254 384.034 205.123 384.252 205.044 384.49C204.965 384.728 204.94 384.981 204.97 385.23V388.18H203.97V382.46H204.97V383.32C205.215 383.013 205.53 382.769 205.888 382.608C206.247 382.448 206.638 382.377 207.03 382.4C207.348 382.387 207.665 382.442 207.959 382.562C208.253 382.682 208.519 382.864 208.737 383.095C208.955 383.326 209.121 383.602 209.223 383.903C209.325 384.204 209.362 384.523 209.33 384.84Z" fill="#FF7F5C"/>
<path d="M216.43 385.61H211.79C211.858 386.1 212.109 386.545 212.494 386.855C212.879 387.166 213.367 387.318 213.86 387.28C214.169 387.293 214.477 387.238 214.762 387.118C215.047 386.999 215.302 386.819 215.51 386.59L216.08 387.26C215.657 387.687 215.119 387.983 214.531 388.112C213.943 388.24 213.331 388.196 212.768 387.985C212.205 387.774 211.715 387.404 211.357 386.92C210.999 386.437 210.788 385.86 210.75 385.26C210.734 384.876 210.796 384.493 210.934 384.135C211.072 383.776 211.281 383.45 211.551 383.176C211.82 382.902 212.142 382.687 212.498 382.543C212.854 382.399 213.236 382.33 213.62 382.34C214.005 382.329 214.388 382.399 214.744 382.545C215.1 382.691 215.422 382.91 215.688 383.188C215.955 383.466 216.16 383.797 216.292 384.159C216.423 384.52 216.477 384.906 216.45 385.29C216.45 385.39 216.44 385.51 216.43 385.61ZM211.79 384.87H215.45C215.403 384.418 215.19 383.999 214.852 383.694C214.514 383.39 214.075 383.221 213.62 383.221C213.165 383.221 212.727 383.39 212.389 383.694C212.051 383.999 211.838 384.418 211.79 384.87Z" fill="#FF7F5C"/>
<path d="M238.81 400.449C238.71 400.559 237.92 399.959 237.05 399.119C236.18 398.279 235.55 397.519 235.65 397.409C235.75 397.299 236.54 397.909 237.41 398.749C238.28 399.589 238.91 400.349 238.81 400.449Z" fill="#FF7F5C"/>
<path d="M355.3 392.859L366.94 387.259L360.54 368.339L346.48 365.089C345.17 364.789 343.71 364.439 342.09 363.989C340.185 363.458 338.383 362.609 336.76 361.479C334.692 360.165 332.815 358.574 331.18 356.749C329.85 354.939 327.03 355.619 327.03 357.629C327.03 359.639 330.58 364.709 336.89 368.299C343.2 371.889 332.04 373.619 328 374.299C323.96 374.979 311.54 377.769 310.8 379.179C309.72 381.239 311.8 382.819 315.8 382.029C319.8 381.239 332.09 379.679 332.41 381.819V381.879C331.423 383.422 330.944 385.235 331.039 387.064C331.134 388.893 331.799 390.647 332.94 392.079C335.2 394.909 338.59 398.459 341.08 397.919C345.76 396.929 355.3 392.859 355.3 392.859Z" fill="#B78876"/>
<path d="M354.59 359.57L365.5 396.46L450.21 370.72C454.534 369.399 458.552 367.229 462.027 364.336C465.502 361.444 468.365 357.887 470.449 353.875C472.533 349.862 473.796 345.475 474.164 340.968C474.531 336.462 473.996 331.927 472.59 327.63L451.82 263L406.71 274.2L431.47 334L354.59 359.57Z" fill="#6A7B83"/>
<path d="M452.12 370.069L451.71 370.219L450.49 370.609L445.75 372.079L428 377.519L366.34 396.229L366.11 396.289L366.03 396.069C362.26 384.789 358.6 372.389 354.37 359.649L354.29 359.409L354.54 359.319L356.67 358.619L431.43 333.789L431.31 334.059C425.31 319.559 420.45 307.679 417.05 299.399C415.37 295.279 414.05 292.059 413.15 289.849C412.72 288.759 412.38 287.919 412.15 287.339C411.92 286.759 411.83 286.479 411.83 286.479C411.83 286.479 411.97 286.759 412.21 287.319L413.27 289.799C414.19 291.999 415.54 295.209 417.27 299.309C420.71 307.569 425.65 319.429 431.69 333.909L431.77 334.109L431.56 334.179L356.8 359.109L354.67 359.819L354.83 359.489C359.07 372.239 362.71 384.639 366.47 395.909L366.17 395.749L427.88 377.229L445.7 371.919L450.46 370.529L451.7 370.179L452.12 370.069Z" fill="#263238"/>
<path d="M447.13 344.75C447.05 344.75 446.49 343.82 445.36 342.41C442.393 338.726 438.359 336.05 433.81 334.75C432.07 334.25 430.95 334.11 430.96 334.02C431.225 333.972 431.496 333.972 431.76 334.02C432.481 334.087 433.197 334.208 433.9 334.38C436.236 334.946 438.456 335.914 440.46 337.24C442.466 338.566 444.223 340.235 445.65 342.17C446.083 342.753 446.47 343.368 446.81 344.01C446.961 344.235 447.069 344.486 447.13 344.75Z" fill="#263238"/>
<path d="M426.6 277.339C426.337 275.529 426.25 273.697 426.34 271.869C426.25 270.042 426.337 268.21 426.6 266.399C426.947 270.038 426.947 273.701 426.6 277.339Z" fill="#FAFAFA"/>
<path d="M443.61 278.21C442.832 276.526 442.216 274.771 441.77 272.97C441.155 271.22 440.706 269.415 440.43 267.58C441.821 271.016 442.886 274.575 443.61 278.21Z" fill="#FAFAFA"/>
<path d="M433.06 293.56C429.558 293.533 426.132 292.528 423.17 290.66C423.24 290.52 425.33 291.51 428.06 292.3C430.79 293.09 433.07 293.41 433.06 293.56Z" fill="#FAFAFA"/>
<path d="M452.3 302C452.34 300.243 452.554 298.494 452.94 296.78C453.154 295.033 453.539 293.311 454.09 291.64C454.045 293.399 453.831 295.151 453.45 296.87C453.239 298.614 452.854 300.332 452.3 302Z" fill="#FAFAFA"/>
<path d="M445.42 315.78C443.606 312.661 442.103 309.372 440.93 305.96C442.738 309.082 444.242 312.37 445.42 315.78Z" fill="#FAFAFA"/>
<path d="M442.6 327.839C440.953 327.336 439.362 326.666 437.85 325.839C436.265 325.171 434.754 324.339 433.34 323.359C434.98 323.875 436.567 324.544 438.08 325.359C439.667 326.03 441.182 326.861 442.6 327.839Z" fill="#FAFAFA"/>
<path d="M464.24 324.63C463.701 326.199 463.063 327.732 462.33 329.22C461.759 330.773 461.091 332.29 460.33 333.76C461.042 330.496 462.369 327.397 464.24 324.63Z" fill="#FAFAFA"/>
<path d="M458.22 353.679C457.498 349.979 457.126 346.219 457.11 342.449C457.545 344.285 457.816 346.156 457.92 348.039C458.192 349.906 458.292 351.794 458.22 353.679Z" fill="#FAFAFA"/>
<path d="M442.94 362.849C441.497 361.889 440.157 360.783 438.94 359.549C437.614 358.446 436.401 357.213 435.32 355.869C436.763 356.829 438.104 357.935 439.32 359.169C440.647 360.272 441.859 361.505 442.94 362.849Z" fill="#FAFAFA"/>
<path d="M416.54 365.479C414.649 368.654 412.459 371.641 410 374.399C410.868 372.767 411.893 371.224 413.06 369.789C414.082 368.247 415.248 366.804 416.54 365.479Z" fill="#FAFAFA"/>
<path d="M424.91 353.109C423.392 352.128 422.027 350.929 420.86 349.549C419.568 348.289 418.476 346.839 417.62 345.249C417.74 345.159 419.23 347.039 421.24 349.199C423.25 351.359 425 352.999 424.91 353.109Z" fill="#FAFAFA"/>
<path d="M405 355.919C403.733 356.43 402.353 356.599 401 356.409C399.638 356.392 398.302 356.027 397.12 355.349C397.18 355.199 398.87 355.739 401.03 355.889C403.19 356.039 405 355.769 405 355.919Z" fill="#FAFAFA"/>
<path d="M392.39 377.799C391.891 376.41 391.555 374.967 391.39 373.499C391.052 372.061 390.888 370.587 390.9 369.109C391.735 371.938 392.235 374.854 392.39 377.799Z" fill="#FAFAFA"/>
<path d="M377.51 385.339C374.06 383.576 370.777 381.504 367.7 379.149C369.466 379.958 371.156 380.921 372.75 382.029C374.431 382.991 376.023 384.099 377.51 385.339Z" fill="#FAFAFA"/>
<path d="M382.82 358.72C382.93 358.82 381.48 360.54 379.87 362.78C378.26 365.02 377.06 366.93 376.93 366.86C377.534 365.275 378.381 363.794 379.44 362.47C380.361 361.049 381.502 359.783 382.82 358.72Z" fill="#FAFAFA"/>
<path d="M371.32 363.77C370.286 363.542 369.296 363.147 368.39 362.6C367.412 362.206 366.506 361.652 365.71 360.96C367.723 361.578 369.619 362.528 371.32 363.77Z" fill="#FAFAFA"/>
<g opacity="0.2">
<path d="M430.76 332.47C435.28 332.93 439.81 333.4 444.32 333.97C445.893 334.085 447.442 334.421 448.92 334.97C449.655 335.256 450.325 335.688 450.888 336.24C451.452 336.792 451.898 337.451 452.2 338.18C452.482 338.919 452.513 339.73 452.287 340.487C452.061 341.245 451.591 341.907 450.95 342.37C450.31 342.698 449.595 342.854 448.876 342.822C448.158 342.791 447.459 342.573 446.85 342.19C445.639 341.42 444.507 340.532 443.47 339.54C441.436 337.858 439.072 336.621 436.53 335.91C435.372 335.69 434.253 335.299 433.21 334.75C432.689 334.46 432.271 334.016 432.013 333.479C431.755 332.942 431.67 332.338 431.77 331.75" fill="black"/>
</g>
</svg>
