<svg width="389" height="383" viewBox="0 0 389 383" fill="none" xmlns="http://www.w3.org/2000/svg">
<path d="M214.446 36.0176H51.9063C48.8126 36.0176 46.3047 38.4868 46.3047 41.5328V264.73C46.3047 267.776 48.8126 270.245 51.9063 270.245H214.446C217.54 270.245 220.048 267.776 220.048 264.73V41.5328C220.048 38.4868 217.54 36.0176 214.446 36.0176Z" fill="#F5F5F5"/>
<path d="M346.398 49.9738L346.717 51.5977L343.45 69.0242C342.294 69.8604 340.976 70.4554 339.578 70.7729C338.18 71.0903 336.731 71.1234 335.32 70.8703L316.803 67.4999C316.803 67.4999 313.855 66.8488 314.679 63.0877C314.679 63.0877 314.819 61.1038 316.547 60.9735C316.547 60.9735 312.96 59.5335 313.357 56.8142C313.754 54.0949 315.792 54.1255 315.792 54.1255C315.792 54.1255 312.431 53.2906 312.781 50.2266C313.131 47.1626 314.944 47.1626 314.944 47.1626C314.944 47.1626 311.054 46.228 312.011 42.8347C312.122 42.3838 312.323 41.9592 312.602 41.5855C312.881 41.2117 313.232 40.8963 313.636 40.6575C314.04 40.4188 314.488 40.2614 314.955 40.1947C315.421 40.1279 315.896 40.153 316.352 40.2686L329.524 42.6661L341.069 44.765C342.383 45.0116 343.593 45.6392 344.543 46.5672C345.492 47.4953 346.138 48.6816 346.398 49.9738Z" fill="#EBEBEB"/>
<path d="M343.102 45.516C343.102 45.516 339.049 41.9005 337.656 37.9709C337.01 36.0118 336.684 33.964 336.691 31.9042C336.691 31.751 336.956 30.3722 337.15 29.2538C337.224 28.8112 337.123 28.3576 336.866 27.9868C336.61 27.616 336.218 27.3566 335.773 27.2622C334.376 27.0642 332.954 27.3762 331.774 28.1396C330.595 28.903 329.74 30.0649 329.37 31.4063C327.814 36.6304 329.145 40.1923 329.191 41.7779L329.23 43.3712L343.102 45.516Z" fill="#EBEBEB"/>
<path d="M340.586 71.6436L353.516 73.9961L358.372 48.1221L345.443 45.7696L340.586 71.6436Z" fill="#EBEBEB"/>
<path d="M340.594 71.6286C340.594 71.6286 341.628 65.8299 342.967 58.6908C344.305 51.5517 345.433 45.7531 345.433 45.7607C345.433 45.7684 344.398 51.5594 343.052 58.7061C341.706 65.8529 340.617 71.6362 340.594 71.6286Z" fill="#E0E0E0"/>
<path d="M353.523 73.9878C353.523 73.9878 354.558 68.1815 355.904 61.0424C357.25 53.9033 358.355 48.1123 358.378 48.1123C358.402 48.1123 357.343 53.9186 356.005 61.0577C354.667 68.1968 353.555 73.9878 353.523 73.9878Z" fill="#E0E0E0"/>
<path d="M348.905 52.517C348.82 52.9878 348.879 53.4727 349.075 53.9104C349.27 54.3482 349.592 54.7192 350.002 54.9767C350.411 55.2342 350.888 55.3666 351.374 55.3573C351.859 55.3479 352.331 55.1972 352.73 54.9242C353.128 54.6512 353.436 54.268 353.614 53.8231C353.791 53.3782 353.831 52.8914 353.728 52.4242C353.625 51.957 353.384 51.5302 353.035 51.1977C352.686 50.8652 352.245 50.642 351.768 50.556C351.449 50.4987 351.121 50.5039 350.805 50.5716C350.488 50.6392 350.188 50.7679 349.922 50.9501C349.656 51.1324 349.429 51.3646 349.254 51.6335C349.08 51.9024 348.961 52.2027 348.905 52.517Z" fill="white"/>
<path d="M326.461 42.1299C326.461 42.1299 327.885 42.3367 329.62 42.6508C331.355 42.9648 332.771 43.2482 332.732 43.2712C332.693 43.2942 331.308 43.0644 329.573 42.7503C327.838 42.4363 326.461 42.1299 326.461 42.1299Z" fill="#E0E0E0"/>
<path d="M315.469 54.2021C315.469 54.2021 316.379 54.317 317.492 54.5162C318.167 54.6236 318.837 54.7642 319.499 54.9375C319.499 54.9375 318.589 54.8226 317.476 54.6158C316.8 54.513 316.13 54.3749 315.469 54.2021Z" fill="#E0E0E0"/>
<path d="M314.672 47.0479C314.672 47.0479 315.956 47.2317 317.535 47.5151C319.114 47.7985 320.39 48.059 320.382 48.0896C320.375 48.1203 319.099 47.9058 317.519 47.6147C315.94 47.3236 314.664 47.0785 314.672 47.0479Z" fill="#E0E0E0"/>
<path d="M315.703 60.8594C315.703 60.8594 316.987 61.0432 318.566 61.3266C320.146 61.6101 321.421 61.8705 321.414 61.8935C321.406 61.9165 320.13 61.7173 318.551 61.4262C316.971 61.1351 315.695 60.8824 315.703 60.8594Z" fill="#E0E0E0"/>
<path d="M348.359 47.0479C348.359 47.0479 350.18 47.3313 352.405 47.7373C354.63 48.1432 356.435 48.5033 356.435 48.5033C356.435 48.5033 354.614 48.2275 352.389 47.8215C350.164 47.4155 348.359 47.0785 348.359 47.0479Z" fill="white"/>
<path d="M313.983 51.5363C313.954 51.4916 313.933 51.4424 313.921 51.3908C313.881 51.2528 313.852 51.1119 313.835 50.9695C313.815 50.758 313.815 50.5452 313.835 50.3337C313.864 50.073 313.921 49.8162 314.006 49.5677C314.096 49.3207 314.214 49.0844 314.356 48.863C314.472 48.6848 314.607 48.5203 314.761 48.3727C314.862 48.2696 314.975 48.1772 315.096 48.097L315.228 48.0127C315.228 48.0127 315.057 48.1582 314.815 48.4187C314.672 48.5717 314.544 48.7385 314.434 48.9166C314.299 49.1308 314.19 49.3595 314.107 49.5983C314.02 49.8467 313.96 50.1035 313.929 50.3643C313.909 50.5707 313.909 50.7784 313.929 50.9848C313.936 51.3218 313.999 51.5286 313.983 51.5363Z" fill="white"/>
<path d="M313.303 44.6351C313.191 44.5477 313.103 44.4346 313.046 44.3057C312.883 44.0069 312.8 43.6721 312.805 43.3329C312.816 42.9945 312.91 42.6636 313.077 42.3678C313.142 42.2436 313.235 42.1361 313.349 42.0537C313.349 42.0537 313.256 42.1839 313.147 42.4061C313 42.6952 312.92 43.0129 312.913 43.3363C312.907 43.6596 312.973 43.9803 313.108 44.2751C313.179 44.3918 313.244 44.512 313.303 44.6351Z" fill="white"/>
<path d="M314.95 58.9823C314.804 58.9052 314.679 58.7949 314.585 58.6605C314.341 58.349 314.213 57.9656 314.219 57.5728C314.228 57.1822 314.368 56.8055 314.616 56.5004C314.81 56.2706 314.981 56.1787 314.989 56.194C314.878 56.3021 314.774 56.4172 314.678 56.5387C314.455 56.8418 314.335 57.2064 314.335 57.5805C314.335 57.9546 314.455 58.3191 314.678 58.6222C314.81 58.8367 314.958 58.9823 314.95 58.9823Z" fill="white"/>
<path d="M316.429 65.5772C316.321 65.4817 316.236 65.364 316.18 65.2325C316.025 64.9198 315.945 64.5766 315.945 64.229C315.945 63.8814 316.025 63.5383 316.18 63.2256C316.239 63.0956 316.323 62.9785 316.429 62.8809C316.429 62.8809 316.343 63.0264 316.242 63.2562C316.111 63.5643 316.043 63.895 316.043 64.229C316.043 64.563 316.111 64.8937 316.242 65.2018C316.343 65.4393 316.444 65.5695 316.429 65.5772Z" fill="white"/>
<path d="M329.507 37.4883C329.469 37.3969 329.44 37.302 329.422 37.2049C329.386 37.0918 329.357 36.9767 329.336 36.8602C329.336 36.7223 329.274 36.5691 329.251 36.3929C329.189 35.9923 329.155 35.5879 329.15 35.1826C329.142 34.6704 329.173 34.1583 329.243 33.6506C329.321 33.1579 329.435 32.6715 329.585 32.1952C329.708 31.8046 329.858 31.4231 330.036 31.0539C330.106 30.9007 330.184 30.7628 330.247 30.6402L330.425 30.3338C330.477 30.2458 330.534 30.1614 330.597 30.0811C330.564 30.1755 330.52 30.2656 330.464 30.3492L330.301 30.6632C330.239 30.7858 330.169 30.9237 330.099 31.0845C329.959 31.3986 329.811 31.7892 329.671 32.2182C329.534 32.6943 329.425 33.1777 329.344 33.6659C329.278 34.156 329.244 34.6499 329.243 35.1443C329.246 35.5463 329.272 35.9478 329.321 36.3469C329.321 36.5231 329.367 36.6763 329.391 36.8065C329.414 36.9368 329.437 37.0593 329.461 37.1512C329.49 37.2614 329.505 37.3745 329.507 37.4883Z" fill="white"/>
<path d="M326.371 209.341L327.25 210.329L332.012 223.557C331.553 224.584 330.886 225.507 330.051 226.27C329.216 227.033 328.231 227.619 327.157 227.993L313.106 232.864C313.106 232.864 310.827 233.569 309.878 230.674C309.878 230.674 309.178 229.257 310.313 228.491C310.313 228.491 307.271 228.904 306.423 226.882C305.575 224.86 307.015 224.094 307.015 224.094C307.015 224.094 304.369 224.86 303.381 222.562C302.393 220.264 303.63 219.613 303.63 219.613C303.63 219.613 300.573 220.493 299.88 217.789C299.775 217.437 299.742 217.067 299.783 216.702C299.824 216.337 299.938 215.983 300.119 215.661C300.3 215.34 300.544 215.057 300.837 214.829C301.13 214.602 301.466 214.434 301.825 214.335L311.815 210.85L320.575 207.786C321.588 207.435 322.684 207.397 323.719 207.674C324.754 207.952 325.679 208.533 326.371 209.341Z" fill="#EBEBEB"/>
<path d="M322.35 207.586C322.35 207.586 318.118 206.69 315.558 204.522C314.322 203.432 313.272 202.155 312.446 200.738L311.668 198.739C311.543 198.406 311.292 198.132 310.967 197.977C310.642 197.821 310.269 197.795 309.925 197.904C308.887 198.319 308.038 199.092 307.538 200.08C307.038 201.067 306.921 202.2 307.21 203.266C308.26 207.449 310.587 209.394 311.256 210.451L311.925 211.524L322.35 207.586Z" fill="#EBEBEB"/>
<path d="M331.095 226.476L340.906 223.052L333.838 203.421L324.027 206.846L331.095 226.476Z" fill="#EBEBEB"/>
<path d="M331.104 226.453C331.104 226.453 329.485 222.071 327.533 216.648C325.58 211.225 324.016 206.82 324.039 206.82C324.063 206.82 325.658 211.202 327.61 216.625C329.563 222.048 331.127 226.445 331.104 226.453Z" fill="#E0E0E0"/>
<path d="M340.916 223.029C340.916 223.029 339.298 218.648 337.345 213.224C335.392 207.801 333.828 203.404 333.852 203.396C333.875 203.389 335.47 207.778 337.423 213.201C339.376 218.625 340.939 223.021 340.916 223.029Z" fill="#E0E0E0"/>
<path d="M329.096 210.107C329.226 210.463 329.46 210.773 329.768 210.999C330.077 211.224 330.447 211.355 330.83 211.374C331.214 211.392 331.595 211.299 331.925 211.105C332.255 210.91 332.519 210.624 332.684 210.283C332.849 209.941 332.907 209.558 332.852 209.184C332.796 208.81 332.629 208.46 332.372 208.179C332.114 207.898 331.778 207.698 331.406 207.605C331.033 207.512 330.641 207.529 330.279 207.655C329.792 207.827 329.395 208.181 329.173 208.641C328.952 209.1 328.924 209.627 329.096 210.107Z" fill="white"/>
<path d="M309.547 211.715C309.547 211.715 310.605 211.301 311.928 210.842C313.25 210.382 314.324 210.022 314.332 210.076C314.339 210.129 313.273 210.489 311.951 210.949C310.628 211.408 309.555 211.73 309.547 211.715Z" fill="#E0E0E0"/>
<path d="M306.875 224.285C306.875 224.285 307.544 224.01 308.392 223.719C308.901 223.524 309.42 223.357 309.948 223.221C309.453 223.438 308.946 223.629 308.431 223.795C307.922 223.986 307.402 224.149 306.875 224.285Z" fill="#E0E0E0"/>
<path d="M303.422 219.697C303.422 219.697 304.379 219.322 305.577 218.931C306.775 218.54 307.748 218.165 307.755 218.211C307.763 218.257 306.798 218.586 305.6 218.977C304.402 219.368 303.461 219.72 303.422 219.697Z" fill="#E0E0E0"/>
<path d="M309.703 228.759C309.703 228.759 310.66 228.384 311.858 227.993C313.056 227.602 314.029 227.227 314.037 227.281C314.044 227.334 313.08 227.656 311.882 228.047C310.683 228.437 309.711 228.782 309.703 228.759Z" fill="#E0E0E0"/>
<path d="M326.547 206.575C326.547 206.575 327.901 206.055 329.597 205.465C331.293 204.875 332.662 204.415 332.709 204.438C332.755 204.461 331.355 204.952 329.659 205.541C327.963 206.131 326.555 206.591 326.547 206.575Z" fill="white"/>
<path d="M304.779 223.036L304.678 222.959C304.596 222.881 304.521 222.797 304.453 222.707C304.351 222.571 304.265 222.424 304.196 222.27C304.108 222.082 304.043 221.884 304.001 221.68C303.963 221.478 303.948 221.273 303.955 221.067C303.967 220.899 303.996 220.733 304.04 220.57C304.068 220.459 304.107 220.351 304.157 220.248C304.157 220.179 304.211 220.141 304.219 220.141C304.227 220.141 304.157 220.309 304.095 220.577C304.06 220.739 304.039 220.903 304.032 221.067C304.03 221.268 304.045 221.468 304.079 221.665C304.121 221.861 304.181 222.054 304.258 222.239C304.329 222.39 304.409 222.536 304.499 222.676C304.663 222.906 304.787 223.028 304.779 223.036Z" fill="white"/>
<path d="M301.537 218.571C301.428 218.554 301.324 218.512 301.234 218.448C301.003 218.306 300.813 218.108 300.681 217.874C300.547 217.64 300.477 217.376 300.479 217.108C300.469 216.998 300.488 216.887 300.534 216.786C300.534 216.786 300.534 216.909 300.534 217.108C300.554 217.363 300.628 217.611 300.751 217.836C300.879 218.059 301.054 218.252 301.265 218.402C301.428 218.517 301.545 218.563 301.537 218.571Z" fill="white"/>
<path d="M308.434 227.756C308.302 227.758 308.171 227.729 308.053 227.671C307.761 227.553 307.517 227.343 307.36 227.074C307.211 226.8 307.156 226.485 307.205 226.178C307.218 226.051 307.264 225.93 307.337 225.825C307.337 225.825 307.29 225.963 307.267 226.185C307.232 226.479 307.292 226.777 307.438 227.035C307.586 227.291 307.808 227.496 308.076 227.625C308.286 227.717 308.434 227.74 308.434 227.756Z" fill="white"/>
<path d="M312.102 231.715C311.99 231.69 311.884 231.643 311.79 231.577C311.556 231.425 311.362 231.22 311.222 230.98C311.083 230.747 311 230.484 310.981 230.214C310.954 230.103 310.954 229.988 310.981 229.877C310.981 229.877 310.981 230.007 310.981 230.206C311.014 230.476 311.101 230.736 311.238 230.972C311.376 231.199 311.555 231.399 311.767 231.562C311.882 231.606 311.994 231.657 312.102 231.715Z" fill="white"/>
<path d="M309.785 207.364L309.606 207.196C309.537 207.133 309.472 207.066 309.411 206.997C309.333 206.912 309.248 206.82 309.162 206.713C308.961 206.47 308.777 206.214 308.61 205.947C308.406 205.607 308.227 205.254 308.073 204.89C307.926 204.522 307.809 204.143 307.723 203.756C307.649 203.441 307.6 203.121 307.575 202.799C307.575 202.669 307.575 202.538 307.575 202.431C307.575 202.324 307.575 202.232 307.575 202.155C307.569 202.076 307.569 201.997 307.575 201.918C307.587 201.997 307.587 202.077 307.575 202.155C307.575 202.232 307.575 202.324 307.575 202.431C307.575 202.538 307.575 202.661 307.575 202.799C307.575 203.067 307.661 203.389 307.739 203.741C307.998 204.815 308.48 205.824 309.155 206.705C309.24 206.82 309.318 206.912 309.388 206.997L309.575 207.211C309.65 207.255 309.72 207.306 309.785 207.364Z" fill="white"/>
<path d="M204.9 303.521H167.019C161.3 303.521 156.664 308.085 156.664 313.716V351.013C156.664 356.643 161.3 361.208 167.019 361.208H204.9C210.619 361.208 215.255 356.643 215.255 351.013V313.716C215.255 308.085 210.619 303.521 204.9 303.521Z" fill="#E0E0E0"/>
<path d="M194.377 303.521H156.496C150.777 303.521 146.141 308.085 146.141 313.716V351.013C146.141 356.643 150.777 361.208 156.496 361.208H194.377C200.096 361.208 204.732 356.643 204.732 351.013V313.716C204.732 308.085 200.096 303.521 194.377 303.521Z" fill="#EBEBEB"/>
<path d="M155.211 333.195L161.108 327.381L172.49 337.347L191.505 318.557L196.982 324.363L171.65 348.553L155.211 333.195Z" fill="white"/>
<path d="M69.6112 315.898H44.863C39.144 315.898 34.5078 320.463 34.5078 326.094V350.46C34.5078 356.091 39.144 360.656 44.863 360.656H69.6112C75.3302 360.656 79.9664 356.091 79.9664 350.46V326.094C79.9664 320.463 75.3302 315.898 69.6112 315.898Z" fill="#E0E0E0"/>
<path d="M61.4471 315.898H36.6989C30.9799 315.898 26.3438 320.463 26.3438 326.094V350.46C26.3438 356.091 30.9799 360.656 36.6989 360.656H61.4471C67.1661 360.656 71.8023 356.091 71.8023 350.46V326.094C71.8023 320.463 67.1661 315.898 61.4471 315.898Z" fill="#EBEBEB"/>
<path d="M33.375 338.924L37.9574 334.412L46.7877 342.141L61.5308 327.564L65.7865 332.076L46.1342 350.836L33.375 338.924Z" fill="white"/>
<path d="M347.694 359.338C347.694 359.445 277.674 359.537 191.394 359.537C105.114 359.537 35.0781 359.445 35.0781 359.338C35.0781 359.231 105.051 359.139 191.394 359.139C277.736 359.139 347.694 359.254 347.694 359.338Z" fill="#263238"/>
<path d="M316.363 337.392C316.363 337.392 313.119 315.447 313.391 302.67C313.664 289.893 313.391 275.53 313.391 275.53H314.885C314.885 275.53 313.874 300.885 314.978 316.174C316.083 331.464 318.977 337.392 318.977 337.392H316.379" fill="#263238"/>
<path d="M326.031 250.835C325.798 250.057 325.321 249.371 324.67 248.874C323.721 248.284 322.476 248.529 321.418 248.874C316.905 250.444 312.899 258.732 311.078 263.091L317.069 283.007C327.891 273.118 329.766 260.157 326.031 250.835Z" fill="#455A64"/>
<path d="M324.32 249.717C324.3 249.806 324.272 249.893 324.234 249.977L323.939 250.697C323.674 251.325 323.309 252.229 322.865 253.363C321.986 255.661 320.858 258.779 319.854 262.34C318.851 265.902 318.166 269.173 317.738 271.532C317.52 272.727 317.365 273.693 317.264 274.359C317.209 274.673 317.17 274.926 317.131 275.125C317.122 275.217 317.101 275.307 317.069 275.393C317.06 275.301 317.06 275.209 317.069 275.117C317.069 274.911 317.116 274.658 317.147 274.351C317.225 273.677 317.357 272.704 317.551 271.502C318.059 268.382 318.742 265.293 319.598 262.249C320.467 259.205 321.506 256.21 322.71 253.279C323.176 252.153 323.565 251.256 323.861 250.644C323.993 250.353 324.102 250.123 324.196 249.931C324.229 249.855 324.271 249.784 324.32 249.717Z" fill="#263238"/>
<path d="M314.405 287.771C311.677 286.243 309.394 284.049 307.775 281.401C306.156 278.753 305.257 275.74 305.162 272.651C304.952 268.238 306.329 263.911 307.885 259.766C307.98 259.391 308.206 259.06 308.523 258.832C308.781 258.736 309.059 258.707 309.331 258.747C309.604 258.787 309.861 258.896 310.079 259.062C314.156 261.36 316.63 265.718 317.952 270.161C318.892 273.105 319.204 276.208 318.87 279.277C318.356 282.505 316.798 285.484 314.428 287.771" fill="#455A64"/>
<path d="M314.405 287.772C314.395 287.682 314.395 287.593 314.405 287.503C314.405 287.304 314.405 287.051 314.405 286.737C314.405 286.079 314.405 285.121 314.32 283.934C314.161 280.852 313.813 277.782 313.277 274.742C312.655 271.18 311.9 267.993 311.34 265.688L310.679 262.953C310.609 262.654 310.546 262.409 310.507 262.187C310.471 262.119 310.443 262.047 310.422 261.973C310.462 262.053 310.493 262.138 310.515 262.225C310.57 262.417 310.64 262.662 310.733 262.953C310.92 263.597 311.169 264.485 311.511 265.665C312.11 267.963 312.896 271.149 313.526 274.727C314.062 277.765 314.386 280.836 314.499 283.919C314.499 285.098 314.499 286.063 314.499 286.722L314.46 287.488C314.453 287.584 314.435 287.679 314.405 287.772Z" fill="#263238"/>
<g opacity="0.3">
<path d="M314.405 287.771C311.677 286.243 309.394 284.049 307.775 281.401C306.156 278.753 305.257 275.74 305.162 272.651C304.952 268.238 306.329 263.911 307.885 259.766C307.98 259.391 308.206 259.06 308.523 258.832C308.781 258.736 309.059 258.707 309.331 258.747C309.604 258.787 309.861 258.896 310.079 259.062C314.156 261.36 316.63 265.718 317.952 270.161C318.892 273.105 319.204 276.208 318.87 279.277C318.356 282.505 316.798 285.484 314.428 287.771" fill="black"/>
</g>
<path d="M320.75 321.353C326.274 322.555 330.864 326.393 336.162 328.247C339.694 329.48 343.685 329.916 346.502 332.345C345.825 330.667 344.222 329.549 342.666 328.591C338.266 325.886 333.568 323.681 328.662 322.019C326.149 321.169 323.426 320.487 320.882 321.153" fill="#455A64"/>
<path d="M312.756 326.21C305.831 326.095 298.542 320.288 291.648 319.944C298.86 317.646 309.185 319.522 312.756 326.21Z" fill="#455A64"/>
<path d="M315.453 309.847C319.021 308.686 322.827 308.423 326.524 309.081C330.202 309.746 333.816 310.712 337.33 311.969C336.973 309.602 334.996 307.825 333.199 306.255C331.865 305.025 330.414 303.924 328.866 302.969C327.307 302.007 325.501 301.505 323.661 301.521C322.557 301.591 321.48 301.88 320.492 302.369C319.504 302.859 318.626 303.54 317.912 304.37C316.514 305.875 315.651 307.787 315.453 309.817" fill="#455A64"/>
<path d="M301.243 302.326C296.886 298.657 290.281 299.017 284.547 299.147C293.751 303.465 302.431 308.792 310.423 315.026C310.672 311.035 306.751 306.952 301.243 302.326Z" fill="#455A64"/>
<g opacity="0.3">
<path d="M301.243 302.326C296.886 298.657 290.281 299.017 284.547 299.147C293.751 303.465 302.431 308.792 310.423 315.026C310.672 311.035 306.751 306.952 301.243 302.326Z" fill="black"/>
</g>
<path d="M317.422 297.262C319.55 295.811 321.793 294.531 324.129 293.432C326.416 292.406 328.563 290.774 330.773 289.602C333.651 288.07 336.141 285.941 338.778 284.041C341.416 282.141 344.31 280.426 347.539 279.92C344.881 279.456 342.149 279.613 339.564 280.38C336.989 281.143 334.479 282.103 332.056 283.252C328.657 284.784 325.202 286.316 322.417 288.752C319.632 291.188 317.127 293.616 317.422 297.278" fill="#455A64"/>
<path d="M336.037 326.209L335.819 326.117L335.212 325.803C334.691 325.535 333.944 325.129 333.003 324.662C332.536 324.417 332.015 324.164 331.447 323.896C330.879 323.628 330.288 323.36 329.65 323.084C328.273 322.479 326.847 321.989 325.386 321.621C323.937 321.228 322.411 321.191 320.944 321.514C320.303 321.651 319.674 321.835 319.061 322.065C317.763 322.579 316.592 323.363 315.63 324.363C315.233 324.784 315.039 325.045 315.016 325.029C315.051 324.96 315.093 324.893 315.14 324.83C315.271 324.647 315.411 324.47 315.56 324.302C316.109 323.672 316.745 323.123 317.451 322.67C317.942 322.351 318.463 322.079 319.007 321.858C319.625 321.613 320.263 321.416 320.913 321.268C322.414 320.925 323.979 320.957 325.464 321.36C326.94 321.732 328.38 322.232 329.766 322.854C330.404 323.137 331.011 323.413 331.564 323.697C332.116 323.98 332.637 324.225 333.12 324.463C334.053 324.953 334.792 325.374 335.298 325.681L335.882 326.025C335.975 326.155 336.045 326.201 336.037 326.209Z" fill="#263238"/>
<path d="M307.586 322.831C307.737 322.848 307.885 322.889 308.022 322.954C308.408 323.091 308.785 323.252 309.15 323.436C311.586 324.656 313.6 326.559 314.938 328.905C315.139 329.259 315.316 329.625 315.467 330.001C315.536 330.134 315.585 330.276 315.615 330.422C315.576 330.422 315.32 329.863 314.783 328.997C314.086 327.876 313.246 326.846 312.285 325.933C311.317 325.034 310.234 324.261 309.064 323.635C308.17 323.099 307.571 322.869 307.586 322.831Z" fill="#263238"/>
<path d="M292.266 301.98L292.561 302.065L293.386 302.356L294.701 302.831C295.214 303.022 295.767 303.298 296.389 303.597C299.638 305.079 302.67 306.983 305.406 309.257C306.911 310.507 308.327 311.856 309.646 313.294C310.705 314.483 311.7 315.725 312.626 317.017C313.404 318.12 314.018 319.039 314.431 319.667L314.905 320.433C314.961 320.516 315.011 320.603 315.053 320.694C314.981 320.624 314.916 320.547 314.859 320.464C314.742 320.303 314.563 320.066 314.345 319.752C313.91 319.131 313.295 318.22 312.486 317.147C311.677 316.075 310.665 314.803 309.475 313.47C308.168 312.036 306.767 310.688 305.282 309.434C302.558 307.176 299.557 305.264 296.35 303.742C295.728 303.466 295.183 303.175 294.677 302.976L293.386 302.463L292.53 302.111C292.437 302.078 292.348 302.034 292.266 301.98Z" fill="#263238"/>
<path d="M325.843 306.018C325.657 306.015 325.472 305.992 325.291 305.949L324.661 305.834C324.412 305.788 324.124 305.78 323.805 305.749C322.163 305.611 320.516 305.933 319.051 306.676C318.247 307.088 317.514 307.624 316.881 308.262C316.352 308.771 315.885 309.339 315.488 309.955C315.129 310.526 314.811 311.123 314.539 311.74C314.559 311.558 314.606 311.379 314.679 311.211C314.854 310.741 315.076 310.29 315.34 309.863C315.725 309.223 316.188 308.631 316.717 308.101C317.36 307.439 318.109 306.885 318.935 306.462C320.436 305.69 322.139 305.383 323.821 305.581C324.14 305.627 324.435 305.635 324.684 305.696L325.314 305.857C325.496 305.891 325.674 305.945 325.843 306.018Z" fill="#263238"/>
<path d="M332.808 284.761C332.727 284.823 332.638 284.875 332.543 284.914L331.765 285.328C331.096 285.688 330.124 286.216 328.949 286.898C327.774 287.58 326.405 288.43 324.942 289.464C323.343 290.565 321.843 291.8 320.461 293.156C319.749 293.852 319.134 294.637 318.633 295.492C318.174 296.35 317.746 297.178 317.341 297.974C316.627 299.379 315.985 300.818 315.419 302.287C315.045 303.289 314.734 304.312 314.486 305.351C314.307 306.079 314.245 306.492 314.221 306.484C314.198 306.477 314.221 306.385 314.221 306.186C314.221 305.987 314.291 305.696 314.369 305.328C314.581 304.287 314.87 303.263 315.233 302.264C315.773 300.779 316.402 299.326 317.115 297.913C317.512 297.109 317.94 296.274 318.391 295.416C318.903 294.538 319.53 293.732 320.259 293.018C321.652 291.652 323.168 290.411 324.787 289.311C326.265 288.284 327.657 287.449 328.84 286.775C330.022 286.101 331.011 285.611 331.695 285.243L332.473 284.876C332.58 284.824 332.692 284.786 332.808 284.761Z" fill="#263238"/>
<path d="M313.387 305.404C313.324 305.217 313.277 305.025 313.247 304.83C313.169 304.408 313.068 303.88 312.943 303.252C312.616 301.521 312.179 299.812 311.636 298.135C311.076 296.464 310.416 294.827 309.66 293.233L308.983 291.769C308.891 291.597 308.818 291.414 308.766 291.226C308.887 291.381 308.989 291.551 309.069 291.731C309.256 292.061 309.513 292.551 309.847 293.156C311.478 296.32 312.593 299.716 313.154 303.221C313.262 303.895 313.34 304.439 313.379 304.814C313.401 305.01 313.404 305.208 313.387 305.404Z" fill="#263238"/>
<path d="M312.889 289.894C312.669 287.311 311.9 284.804 310.633 282.532C308.923 279.411 306.539 276.697 303.649 274.58C300.759 272.462 297.434 270.994 293.906 270.276L309.396 293.004L311.396 297.063C312.66 294.892 313.183 292.379 312.889 289.894Z" fill="#455A64"/>
<path d="M335.1 334.682H299.086V340.963H335.1V334.682Z" fill="#B0C4CD"/>
<path d="M301.781 339.722L304.847 359.216H328.754L332.411 339.722H301.781Z" fill="#B0C4CD"/>
<path d="M335.083 340.97C335.083 341.039 326.953 341.1 316.94 341.1C306.927 341.1 298.797 341.039 298.797 340.97C298.797 340.901 306.919 340.848 316.94 340.848C326.96 340.848 335.083 340.871 335.083 340.97Z" fill="#263238"/>
<path d="M111.362 307.487H79.4177C73.6987 307.487 69.0625 312.052 69.0625 317.683V349.135C69.0625 354.766 73.6987 359.33 79.4177 359.33H111.362C117.081 359.33 121.718 354.766 121.718 349.135V317.683C121.718 312.052 117.081 307.487 111.362 307.487Z" fill="#B0C4CD"/>
<g opacity="0.3">
<path d="M111.362 307.487H79.4177C73.6987 307.487 69.0625 312.052 69.0625 317.683V349.135C69.0625 354.766 73.6987 359.33 79.4177 359.33H111.362C117.081 359.33 121.718 354.766 121.718 349.135V317.683C121.718 312.052 117.081 307.487 111.362 307.487Z" fill="black"/>
</g>
<path d="M101.909 307.487H69.9646C64.2455 307.487 59.6094 312.052 59.6094 317.683V349.135C59.6094 354.766 64.2455 359.33 69.9646 359.33H101.909C107.628 359.33 112.264 354.766 112.264 349.135V317.683C112.264 312.052 107.628 307.487 101.909 307.487Z" fill="#B0C4CD"/>
<path d="M67.7578 334.159L73.0638 328.935L83.2945 337.889L100.372 321.007L105.296 326.223L82.532 347.962L67.7578 334.159Z" fill="white"/>
<path d="M139.011 326.17H118.137C114.601 326.17 111.734 328.992 111.734 332.474V353.026C111.734 356.508 114.601 359.33 118.137 359.33H139.011C142.547 359.33 145.414 356.508 145.414 353.026V332.474C145.414 328.992 142.547 326.17 139.011 326.17Z" fill="#263238"/>
<path d="M132.964 326.17H112.09C108.554 326.17 105.688 328.992 105.688 332.474V353.026C105.688 356.508 108.554 359.33 112.09 359.33H132.964C136.5 359.33 139.367 356.508 139.367 353.026V332.474C139.367 328.992 136.5 326.17 132.964 326.17Z" fill="#455A64"/>
<path d="M110.906 343.229L114.298 339.889L120.841 345.619L131.772 334.818L134.923 338.158L120.359 352.061L110.906 343.229Z" fill="white"/>
<path d="M222.266 25.7832H59.7266C56.6329 25.7832 54.125 28.2524 54.125 31.2984V254.495C54.125 257.541 56.6329 260.011 59.7266 260.011H222.266C225.36 260.011 227.868 257.541 227.868 254.495V31.2984C227.868 28.2524 225.36 25.7832 222.266 25.7832Z" fill="white"/>
<path d="M222.263 260.011C222.965 259.999 223.658 259.861 224.31 259.605C225.113 259.287 225.827 258.786 226.395 258.142C227.188 257.265 227.679 256.162 227.795 254.993C227.834 249.632 227.795 241.788 227.795 231.653C227.795 211.385 227.756 182.055 227.733 145.816C227.733 127.692 227.733 107.845 227.733 86.5348C227.733 75.8823 227.733 64.8723 227.733 53.5049V31.8654C227.839 30.4133 227.358 28.9788 226.395 27.8745C225.925 27.3227 225.346 26.8711 224.693 26.5471C224.041 26.2231 223.328 26.0336 222.598 25.9901C221.112 25.9901 219.579 25.9901 218.062 25.9901H59.7236C58.8762 25.9928 58.041 26.1902 57.2847 26.5665C56.5283 26.9428 55.8716 27.4877 55.3668 28.1579C54.854 28.8334 54.5175 29.6225 54.3865 30.4559C54.3017 31.3009 54.2757 32.1506 54.3087 32.999V63.5778C54.3087 77.044 54.3087 90.3035 54.3087 103.356C54.3087 129.4 54.3087 154.586 54.3087 178.547C54.3087 202.507 54.3087 225.273 54.3087 246.598V254.519C54.321 255.796 54.7923 257.028 55.6391 257.996C56.4769 258.955 57.6364 259.586 58.9067 259.773C59.5445 259.845 60.1868 259.871 60.8284 259.85H74.2255H103.113L190.295 259.911L214.001 259.949H190.295L103.113 260.018H60.805C60.1481 260.041 59.4903 260.018 58.8367 259.949C57.4833 259.742 56.2492 259.067 55.3553 258.045C54.4615 257.023 53.9663 255.722 53.9586 254.373C53.9586 251.753 53.9586 249.113 53.9586 246.453C53.9586 225.135 53.9586 202.369 53.9586 178.401C53.9586 154.433 53.9586 129.285 53.9586 103.211V32.9378C53.9255 32.0687 53.9541 31.1985 54.0442 30.3334C54.1883 29.4472 54.5487 28.6087 55.0945 27.8898C55.6363 27.1745 56.3407 26.5941 57.1514 26.1951C57.962 25.796 58.8562 25.5894 59.7625 25.5918H218.101C219.657 25.5918 221.127 25.5918 222.66 25.5918C223.439 25.6417 224.199 25.8459 224.896 26.192C225.592 26.5382 226.21 27.0193 226.714 27.6064C227.709 28.7877 228.197 30.3045 228.075 31.8347V36.2316C228.075 42.0685 228.075 47.8237 228.075 53.4972C228.075 64.8493 228.075 75.8593 228.075 86.5271C228.075 107.837 228.075 127.684 228.075 145.808C228.075 182.047 228.021 211.377 228.005 231.646C228.005 241.788 228.005 249.647 227.943 254.993C227.824 256.18 227.319 257.298 226.503 258.18C225.924 258.817 225.199 259.308 224.387 259.612C223.89 259.807 223.365 259.925 222.831 259.965L222.263 260.011Z" fill="#263238"/>
<path d="M196.095 95.4512H119.073C116.366 95.4512 114.172 97.6118 114.172 100.277V100.744C114.172 103.409 116.366 105.57 119.073 105.57H196.095C198.802 105.57 200.997 103.409 200.997 100.744V100.277C200.997 97.6118 198.802 95.4512 196.095 95.4512Z" fill="#E0E0E0"/>
<path d="M100.8 89.415H84.9911C82.7826 89.415 80.9922 91.1778 80.9922 93.3523V108.917C80.9922 111.092 82.7826 112.855 84.9911 112.855H100.8C103.009 112.855 104.799 111.092 104.799 108.917V93.3523C104.799 91.1778 103.009 89.415 100.8 89.415Z" fill="#B0C4CD"/>
<path d="M84.6719 101.472L87.0759 99.1122L91.6972 103.164L99.4228 95.5273L101.648 97.8866L91.3549 107.714L84.6719 101.472Z" fill="white"/>
<path d="M196.095 131.813H119.073C116.366 131.813 114.172 133.974 114.172 136.639V137.107C114.172 139.772 116.366 141.932 119.073 141.932H196.095C198.802 141.932 200.997 139.772 200.997 137.107V136.639C200.997 133.974 198.802 131.813 196.095 131.813Z" fill="#E0E0E0"/>
<path d="M100.8 125.784H84.9911C82.7826 125.784 80.9922 127.547 80.9922 129.721V145.287C80.9922 147.461 82.7826 149.224 84.9911 149.224H100.8C103.009 149.224 104.799 147.461 104.799 145.287V129.721C104.799 127.547 103.009 125.784 100.8 125.784Z" fill="#B0C4CD"/>
<path d="M84.6719 137.842L87.0759 135.482L91.6972 139.527L99.4228 131.897L101.648 134.257L91.3549 144.085L84.6719 137.842Z" fill="white"/>
<path d="M196.095 168.183H119.073C116.366 168.183 114.172 170.343 114.172 173.008V173.476C114.172 176.141 116.366 178.301 119.073 178.301H196.095C198.802 178.301 200.997 176.141 200.997 173.476V173.008C200.997 170.343 198.802 168.183 196.095 168.183Z" fill="#E0E0E0"/>
<path d="M100.8 162.146H84.9911C82.7826 162.146 80.9922 163.909 80.9922 166.084V181.649C80.9922 183.823 82.7826 185.586 84.9911 185.586H100.8C103.009 185.586 104.799 183.823 104.799 181.649V166.084C104.799 163.909 103.009 162.146 100.8 162.146Z" fill="#B0C4CD"/>
<path d="M84.6719 174.204L87.0759 171.845L91.6972 175.897L99.4228 168.26L101.648 170.619L91.3549 180.447L84.6719 174.204Z" fill="white"/>
<path d="M196.095 204.545H119.073C116.366 204.545 114.172 206.705 114.172 209.371V209.838C114.172 212.503 116.366 214.664 119.073 214.664H196.095C198.802 214.664 200.997 212.503 200.997 209.838V209.371C200.997 206.705 198.802 204.545 196.095 204.545Z" fill="#E0E0E0"/>
<path d="M100.8 198.517H84.9911C82.7826 198.517 80.9922 200.279 80.9922 202.454V218.019C80.9922 220.193 82.7826 221.956 84.9911 221.956H100.8C103.009 221.956 104.799 220.193 104.799 218.019V202.454C104.799 200.279 103.009 198.517 100.8 198.517Z" fill="#B0C4CD"/>
<path d="M84.6719 210.573L87.0759 208.214L91.6972 212.258L99.4228 204.621L101.648 206.988L91.3549 216.816L84.6719 210.573Z" fill="white"/>
<path d="M102.775 64.6196H99.0254L98.3252 66.3201H95.7656L99.6556 57.5801H102.13L106.059 66.3201H103.468L102.775 64.6196ZM102.044 62.8119L100.9 60.0083L99.7568 62.8119H102.044Z" fill="#263238"/>
<path d="M106.797 57.5801H110.99C113.931 57.5801 115.946 59.2653 115.946 61.9539C115.946 64.6426 113.931 66.3201 110.99 66.3201H106.797V57.5801ZM110.889 64.3439C111.535 64.3439 112.154 64.0913 112.611 63.6416C113.068 63.192 113.324 62.5822 113.324 61.9463C113.324 61.3104 113.068 60.7006 112.611 60.2509C112.154 59.8013 111.535 59.5487 110.889 59.5487H109.333V64.3439H110.889Z" fill="#263238"/>
<path d="M125.974 57.5801L122.146 66.3201H119.672L115.922 57.5801H118.629L121.041 63.2715L123.5 57.5801H125.974Z" fill="#263238"/>
<path d="M132.135 64.6196H128.369L127.677 66.3201H125.109L128.999 57.5801H131.481L135.41 66.3201H132.796L132.135 64.6196ZM131.357 62.8042L130.213 60.0006L129.147 62.8119L131.357 62.8042Z" fill="#263238"/>
<path d="M144.59 57.5801V66.3201H142.528L138.638 61.6629V66.3201H136.148V57.5801H138.218L142.108 62.2374V57.5801H144.59Z" fill="#263238"/>
<path d="M148.254 59.541H145.531V57.5801H153.482V59.541H150.767V66.3201H148.254V59.541Z" fill="#263238"/>
<path d="M159.916 64.6196H156.166L155.466 66.3201H152.906L156.796 57.5801H159.27L163.199 66.3201H160.585L159.916 64.6196ZM159.185 62.8119L158.041 60.0083L156.905 62.8119H159.185Z" fill="#263238"/>
<path d="M169.754 61.7623H171.972V65.3855C170.87 66.1134 169.572 66.5002 168.245 66.4962C165.421 66.4962 163.352 64.6118 163.352 61.9538C163.352 59.2958 165.421 57.4497 168.292 57.4497C169.02 57.4099 169.748 57.5326 170.422 57.8084C171.095 58.0843 171.697 58.5063 172.182 59.043L170.587 60.4677C170.323 60.1591 169.993 59.9118 169.62 59.7436C169.248 59.5754 168.842 59.4905 168.432 59.4949C167.759 59.4949 167.114 59.758 166.638 60.2263C166.163 60.6946 165.896 61.3298 165.896 61.9921C165.896 62.6544 166.163 63.2895 166.638 63.7578C167.114 64.2262 167.759 64.4892 168.432 64.4892C168.902 64.4917 169.367 64.3923 169.793 64.1982L169.754 61.7623Z" fill="#263238"/>
<path d="M180.697 64.4128V66.3201H173.57V57.5801H180.572V59.4951H176.06V60.9658H179.997V62.8119H176.06V64.4128H180.697Z" fill="#263238"/>
<path d="M181.469 65.5314L182.293 63.716C183.173 64.2615 184.187 64.5583 185.226 64.5739C186.261 64.5739 186.674 64.2828 186.674 63.8615C186.674 62.4751 181.624 63.4862 181.624 60.2384C181.624 58.7064 182.916 57.4118 185.553 57.4118C186.675 57.3959 187.783 57.6594 188.774 58.1778L187.996 60.0086C187.242 59.5902 186.395 59.3589 185.53 59.3345C184.48 59.3345 184.098 59.6868 184.098 60.1005C184.098 61.441 189.132 60.4375 189.132 63.6624C189.132 65.1944 187.841 66.4813 185.203 66.4813C183.893 66.5151 182.599 66.186 181.469 65.5314Z" fill="#263238"/>
<path d="M258.46 332.283L257.791 349.572C257.791 349.572 275.413 356.052 275.615 359.254L241.507 359.185L241.43 332.199L258.46 332.283Z" fill="#263238"/>
<path d="M247.249 348.094C246.927 348.192 246.652 348.401 246.475 348.682C246.297 348.964 246.23 349.299 246.284 349.626C246.369 349.952 246.578 350.233 246.867 350.411C247.157 350.59 247.505 350.651 247.84 350.584C248.187 350.48 248.482 350.254 248.669 349.948C248.856 349.642 248.921 349.279 248.851 348.929C248.725 348.599 248.474 348.33 248.151 348.177C247.828 348.024 247.457 348 247.116 348.11" fill="#E0E0E0"/>
<path d="M241.508 359.185L241.609 356.466L274.285 357.554C274.285 357.554 275.841 358.205 275.631 359.254L241.508 359.185Z" fill="#455A64"/>
<path d="M258.342 349.404C258.342 349.565 257.501 349.641 256.685 350.17C255.868 350.698 255.424 351.38 255.269 351.311C255.113 351.242 255.37 350.3 256.373 349.687C257.377 349.074 258.381 349.251 258.342 349.404Z" fill="white"/>
<path d="M261.909 350.866C261.948 351.027 261.232 351.303 260.664 351.992C260.097 352.682 259.933 353.425 259.762 353.417C259.591 353.41 259.497 352.483 260.213 351.632C260.929 350.782 261.909 350.713 261.909 350.866Z" fill="white"/>
<path d="M263.939 355.088C263.791 355.088 263.557 354.322 263.993 353.403C264.429 352.483 265.199 352.154 265.269 352.292C265.339 352.43 264.857 352.905 264.491 353.648C264.125 354.391 264.11 355.072 263.939 355.088Z" fill="white"/>
<path d="M258.055 345.467C257.985 345.62 257.214 345.39 256.273 345.467C255.332 345.543 254.6 345.819 254.515 345.681C254.429 345.543 255.137 344.915 256.242 344.915C257.347 344.915 258.132 345.321 258.055 345.467Z" fill="white"/>
<path d="M216.709 329.924L214.865 350.828L218.234 367.68C218.292 367.969 218.289 368.266 218.225 368.554C218.161 368.841 218.038 369.113 217.862 369.351C217.687 369.59 217.464 369.79 217.207 369.94C216.95 370.09 216.664 370.187 216.367 370.223C216.022 370.267 215.672 370.229 215.346 370.112C215.019 369.994 214.727 369.801 214.492 369.549C211.458 366.286 200.332 354.229 200.558 352.697C200.815 350.935 201.025 330.567 201.025 330.567L216.709 329.924Z" fill="#263238"/>
<path d="M216.37 370.239L200.654 351.318L200.592 352.207C200.544 352.971 200.77 353.727 201.23 354.344C202.483 355.983 206.023 360.472 214.456 369.564C214.698 369.825 215.002 370.022 215.339 370.14C215.677 370.257 216.039 370.291 216.393 370.239H216.37Z" fill="#455A64"/>
<g opacity="0.6">
<path d="M205.446 344.853C205.694 345.059 205.856 345.348 205.902 345.665C205.948 345.981 205.874 346.303 205.695 346.569C205.494 346.821 205.204 346.988 204.883 347.036C204.563 347.085 204.235 347.011 203.967 346.83C203.705 346.609 203.535 346.301 203.489 345.965C203.443 345.629 203.525 345.287 203.718 345.007C203.954 344.766 204.275 344.624 204.615 344.611C204.954 344.598 205.285 344.715 205.539 344.938" fill="white"/>
</g>
<path d="M212.11 360.787C212.662 360.159 213.33 359.64 214.078 359.255C214.874 358.995 215.715 358.89 216.552 358.948C216.552 358.895 216.311 358.719 215.821 358.619C215.172 358.507 214.505 358.579 213.897 358.827C213.29 359.075 212.766 359.49 212.39 360.021C212.11 360.48 212.063 360.787 212.11 360.787Z" fill="white"/>
<path d="M213.441 363.698C214.072 363.407 214.719 363.152 215.378 362.932C216.073 362.851 216.772 362.807 217.471 362.801C217.157 362.581 216.794 362.438 216.413 362.383C216.031 362.329 215.642 362.364 215.277 362.487C214.001 362.755 213.332 363.636 213.441 363.698Z" fill="white"/>
<path d="M209.539 357.041C209.625 357.148 210.737 356.16 212.441 355.639C214.145 355.118 215.623 355.256 215.639 355.118C215.654 354.98 214.121 354.613 212.301 355.202C211.187 355.471 210.208 356.123 209.539 357.041Z" fill="white"/>
<path d="M209.562 350.653C209.609 350.783 210.807 350.377 212.34 350.415C213.873 350.454 215.055 350.898 215.11 350.768C214.282 350.257 213.329 349.976 212.352 349.956C211.375 349.936 210.411 350.177 209.562 350.653Z" fill="white"/>
<path d="M209.94 344.517C210.882 344.278 211.854 344.17 212.826 344.195C214.437 344.333 215.518 345.183 215.596 345.068C215.674 344.954 215.417 344.747 214.95 344.44C214.324 344.048 213.612 343.806 212.873 343.736C212.136 343.66 211.392 343.76 210.702 344.027C210.173 344.241 209.909 344.471 209.94 344.517Z" fill="white"/>
<path d="M212.871 343.023C212.957 342.777 212.986 342.515 212.957 342.257C212.931 341.529 212.759 340.813 212.451 340.15C212.269 339.643 211.922 339.209 211.463 338.917C211.303 338.837 211.122 338.807 210.944 338.83C210.767 338.853 210.6 338.929 210.467 339.047C210.225 339.298 210.084 339.628 210.07 339.974C210.08 340.677 210.335 341.355 210.793 341.895C211.25 342.435 211.883 342.803 212.583 342.938C213.28 343.053 213.996 342.961 214.64 342.675C215.284 342.388 215.827 341.92 216.201 341.33C216.295 341.18 216.354 341.012 216.376 340.838C216.397 340.663 216.38 340.486 216.325 340.319C216.254 340.156 216.132 340.019 215.977 339.928C215.822 339.837 215.642 339.797 215.462 339.813C214.932 339.893 214.432 340.11 214.015 340.441C213.407 340.856 212.88 341.375 212.459 341.973C212.286 342.177 212.159 342.415 212.085 342.67C212.691 341.92 213.404 341.259 214.201 340.709C214.574 340.436 215.01 340.259 215.47 340.196C215.568 340.184 215.667 340.203 215.753 340.251C215.839 340.3 215.906 340.375 215.944 340.464C215.971 340.576 215.974 340.692 215.954 340.805C215.934 340.919 215.891 341.027 215.828 341.123C215.489 341.624 215.011 342.02 214.451 342.261C213.891 342.503 213.273 342.581 212.669 342.487C212.074 342.374 211.536 342.067 211.142 341.615C210.748 341.163 210.521 340.592 210.498 339.997C210.501 339.758 210.589 339.527 210.747 339.346C210.818 339.275 210.91 339.229 211.009 339.213C211.109 339.198 211.211 339.215 211.3 339.262C211.684 339.51 211.983 339.868 212.155 340.288C212.556 341.151 212.799 342.077 212.871 343.023Z" fill="white"/>
<path d="M274.882 186.498C276.529 193.662 277.085 201.027 276.532 208.352C276.189 213.01 260.24 341.56 260.24 341.56H238.736L244.781 220.739L243.023 221.114C243.023 221.114 231.283 272.643 230.326 280.985C229.47 288.484 219.566 342.969 219.566 342.969L199.945 343.168L206.169 271.164L213.475 202.018L216.283 181.856L274.882 186.498Z" fill="#263238"/>
<path d="M244 212.543C244 212.543 244.039 212.604 244.14 212.688C244.295 212.802 244.473 212.883 244.661 212.926C245.016 213 245.382 212.996 245.735 212.914C246.087 212.832 246.417 212.674 246.7 212.451C247.106 212.11 247.438 211.692 247.677 211.222C247.917 210.753 248.058 210.241 248.092 209.716C248.248 208.567 248.271 207.334 248.357 206.024C248.505 203.404 248.614 201.037 248.668 199.322C248.734 198.396 248.734 197.467 248.668 196.541C248.493 197.454 248.392 198.378 248.365 199.306C248.232 201.022 248.077 203.381 247.929 206.001C247.843 207.303 247.828 208.567 247.703 209.663C247.658 210.635 247.231 211.552 246.513 212.221C246.265 212.432 245.975 212.59 245.661 212.685C245.348 212.779 245.018 212.809 244.692 212.773C244.455 212.718 244.223 212.641 244 212.543Z" fill="#455A64"/>
<path d="M212.391 200.11C212.576 200.216 212.779 200.289 212.99 200.325C213.553 200.469 214.129 200.564 214.709 200.608C216.639 200.771 218.58 200.486 220.377 199.775C222.174 199.065 223.777 197.949 225.056 196.518C225.441 196.087 225.79 195.626 226.099 195.139C226.228 194.964 226.327 194.77 226.395 194.564C226.332 194.564 225.85 195.284 224.839 196.311C223.538 197.647 221.963 198.694 220.219 199.384C218.475 200.073 216.602 200.389 214.725 200.309C213.262 200.263 212.391 200.041 212.391 200.11Z" fill="#455A64"/>
<path d="M266.313 194.733C266.307 195.453 266.417 196.169 266.64 196.855C267.547 200.248 269.572 203.249 272.397 205.388C272.957 205.855 273.586 206.235 274.264 206.514C274.357 206.399 271.393 204.737 269.152 201.366C266.912 197.996 266.453 194.687 266.313 194.733Z" fill="#455A64"/>
<path d="M332.005 158.363L336.938 159.895L345.9 155.016L350.989 168.964L338.79 171.822L329.547 170.818L332.005 158.363Z" fill="#AE7461"/>
<path d="M274.633 102.369C274.633 102.369 279.674 105.349 283.852 115.475C292.052 135.391 297.21 146.115 297.21 146.115L334.834 157.797L331.824 172.657C331.824 172.657 293.655 167.418 288.543 165.534C281.541 162.952 276.36 149.371 276.36 149.371L274.633 102.369Z" fill="#E0E0E0"/>
<path d="M264.251 57.7492C265.218 57.7843 266.163 57.4715 266.912 56.8695C267.661 56.2676 268.161 55.4176 268.32 54.4786C268.478 53.5396 268.283 52.576 267.772 51.7681C267.261 50.9602 266.469 50.3633 265.543 50.0892C266.118 49.4481 266.473 48.6448 266.558 47.7935C266.643 46.9422 266.453 46.0862 266.015 45.3473C265.577 44.6084 264.914 44.0242 264.12 43.6777C263.326 43.3312 262.441 43.2401 261.591 43.4173C261.512 42.5788 261.214 41.7748 260.725 41.0836C260.237 40.3924 259.575 39.8376 258.804 39.4734C258.032 39.1092 257.179 38.948 256.325 39.0056C255.472 39.0632 254.649 39.3375 253.935 39.8018C252.934 39.0806 251.716 38.7093 250.476 38.7467C249.236 38.7842 248.044 39.2283 247.089 40.0086C246.252 39.9061 245.403 40.0698 244.668 40.476C243.932 40.8821 243.348 41.5094 243 42.2659C242.652 43.0225 242.559 43.8688 242.735 44.681C242.911 45.4932 243.346 46.2287 243.977 46.7801" fill="#263238"/>
<path d="M246.441 43.8844H247.312C251.543 43.674 255.699 45.0409 258.952 47.7126C262.205 50.3844 264.316 54.1648 264.864 58.3005C265.922 66.2823 266.988 75.1066 267.151 79.4038C267.494 88.3048 258.523 90.1278 258.523 90.1278L259.83 100.775L237.867 101.181L233.977 62.5135C232.694 53.2832 237.066 44.8879 246.441 43.8844Z" fill="#AE7461"/>
<path d="M258.598 90.0822C254.414 90.2806 250.26 89.2972 246.625 87.248C246.625 87.248 249.737 93.5139 258.707 92.273L258.598 90.0822Z" fill="#6F4439"/>
<path d="M261.608 66.4737C261.63 66.8041 261.519 67.1296 261.299 67.3803C261.08 67.631 260.769 67.7867 260.434 67.8142C260.108 67.8485 259.781 67.7541 259.526 67.5515C259.271 67.349 259.107 67.055 259.072 66.7341C259.055 66.4034 259.168 66.0789 259.389 65.829C259.609 65.579 259.92 65.4229 260.255 65.3936C260.416 65.3766 260.578 65.3911 260.734 65.4363C260.889 65.4814 261.034 65.5563 261.159 65.6567C261.285 65.757 261.39 65.8809 261.467 66.0211C261.544 66.1613 261.592 66.3151 261.608 66.4737Z" fill="#263238"/>
<path d="M263.145 62.7132C262.99 62.8894 261.978 62.2229 260.586 62.2919C259.193 62.3608 258.252 63.0962 258.057 62.943C257.863 62.7898 258.127 62.56 258.555 62.2229C259.135 61.7841 259.839 61.5326 260.57 61.5029C261.293 61.4648 262.009 61.6524 262.616 62.0391C263.06 62.3455 263.215 62.6366 263.145 62.7132Z" fill="#263238"/>
<path d="M248.96 66.8189C248.973 66.9856 248.952 67.1531 248.898 67.3117C248.845 67.4704 248.76 67.617 248.649 67.7431C248.537 67.8691 248.401 67.9722 248.249 68.0463C248.097 68.1204 247.931 68.1641 247.762 68.1748C247.599 68.1961 247.433 68.1849 247.274 68.1417C247.115 68.0986 246.966 68.0245 246.837 67.9237C246.708 67.8229 246.601 67.6976 246.522 67.5552C246.443 67.4128 246.393 67.2562 246.377 67.0947C246.358 66.7648 246.469 66.4403 246.689 66.1901C246.908 65.9398 247.218 65.7835 247.552 65.7542C247.716 65.7295 247.883 65.7376 248.044 65.7783C248.205 65.8189 248.355 65.8911 248.487 65.9906C248.618 66.0901 248.728 66.2148 248.81 66.3571C248.891 66.4995 248.942 66.6566 248.96 66.8189Z" fill="#263238"/>
<path d="M249.508 63.6396C249.352 63.8081 248.341 63.1417 246.956 63.2183C245.571 63.2949 244.583 63.9843 244.42 63.8617C244.256 63.7391 244.49 63.4864 244.917 63.1417C245.498 62.7028 246.201 62.4513 246.933 62.4216C247.656 62.3842 248.373 62.5747 248.979 62.9655C249.422 63.2642 249.578 63.5783 249.508 63.6396Z" fill="#263238"/>
<path d="M255.047 73.5365C255.77 73.2751 256.523 73.1028 257.288 73.0233C257.638 72.9697 257.973 72.8854 258.019 72.6479C258.029 72.2853 257.929 71.928 257.732 71.6215C257.35 70.7942 256.954 69.921 256.549 69.0171C254.9 65.302 253.686 62.238 253.842 62.1767C253.997 62.1154 255.452 65.0722 257.101 68.7873C257.498 69.6988 257.879 70.5721 258.237 71.407C258.483 71.8175 258.574 72.3004 258.494 72.7705C258.449 72.8963 258.375 73.0102 258.278 73.1032C258.181 73.1962 258.063 73.2659 257.934 73.3067C257.74 73.3701 257.539 73.4088 257.335 73.4216C256.58 73.5558 255.812 73.5944 255.047 73.5365Z" fill="#263238"/>
<path d="M250.447 58.316C250.276 58.676 249.07 58.3543 247.599 58.3773C246.129 58.4003 244.915 58.7067 244.76 58.3773C244.697 58.2088 244.939 57.8794 245.452 57.6113C246.116 57.2399 246.867 57.0445 247.63 57.0444C248.382 57.033 249.123 57.2181 249.778 57.5806C250.283 57.8258 250.517 58.1475 250.447 58.316Z" fill="#263238"/>
<path d="M262.962 57.0748C262.682 57.3965 261.522 57.1284 260.138 57.182C258.753 57.2356 257.609 57.5191 257.321 57.182C257.197 57.0288 257.36 56.7071 257.858 56.416C258.543 56.0132 259.324 55.7989 260.122 55.7955C260.915 55.7597 261.703 55.9371 262.402 56.3088C262.868 56.5999 263.039 56.9139 262.962 57.0748Z" fill="#263238"/>
<path d="M263.786 54.2254C263.786 54.2254 261.117 48.7715 258.34 47.6071C254.955 46.1977 253.718 49.8362 250.56 49.1391C247.401 48.4421 244.133 47.0709 241.037 49.6217C237.653 52.4176 239.395 54.1718 239.372 58.132C239.302 74.1797 236.563 78.8523 235.334 71.3531C235.202 70.5335 232.837 69.9896 232.316 66.5197C231.646 62.0156 231.187 56.5617 232.051 53.2679C232.782 50.5179 234.253 48.5723 236.96 46.3739C241.231 42.9039 247.323 42.5439 251.485 42.743C255.648 42.9422 263.809 47.2318 263.786 54.2254Z" fill="#263238"/>
<path d="M235.855 71.0696C235.828 70.7432 235.733 70.4258 235.577 70.1366C235.421 69.8473 235.207 69.5922 234.948 69.3867C234.689 69.1812 234.391 69.0295 234.071 68.9409C233.75 68.8523 233.415 68.8286 233.086 68.8711C231.405 69.1086 229.585 70.1427 229.865 73.5667C230.37 79.6411 236.454 77.887 236.454 77.7184C236.454 77.5499 236.089 73.605 235.855 71.0696Z" fill="#AE7461"/>
<path d="M234.955 75.5362C234.955 75.5362 234.854 75.6204 234.683 75.72C234.442 75.8388 234.165 75.866 233.905 75.7966C233.228 75.6128 232.598 74.64 232.473 73.5522C232.416 73.0348 232.478 72.5114 232.652 72.0202C232.694 71.8256 232.783 71.6438 232.912 71.4904C233.041 71.337 233.205 71.2166 233.392 71.1393C233.513 71.0985 233.644 71.0998 233.765 71.143C233.885 71.1862 233.987 71.2687 234.053 71.3768C234.146 71.5453 234.115 71.6679 234.154 71.6755C234.193 71.6832 234.278 71.5606 234.208 71.3155C234.154 71.1704 234.056 71.0449 233.928 70.9555C233.84 70.8979 233.741 70.8586 233.636 70.8402C233.532 70.8217 233.425 70.8245 233.321 70.8483C233.072 70.918 232.845 71.0498 232.663 71.2309C232.48 71.412 232.348 71.6364 232.279 71.8824C232.06 72.4297 231.98 73.0212 232.046 73.6059C232.186 74.8238 232.917 75.9039 233.835 76.103C234.004 76.1376 234.179 76.1335 234.346 76.091C234.514 76.0485 234.669 75.9688 234.8 75.8579C234.955 75.6894 234.955 75.5515 234.955 75.5362Z" fill="#6F4439"/>
<path d="M235.38 59.2807C236.171 59.8486 237.094 60.2121 238.065 60.3378C238.553 60.3854 239.042 60.256 239.44 59.974C239.838 59.692 240.118 59.2766 240.227 58.8058C240.282 58.3768 240.15 57.8943 240.414 57.5496C240.679 57.2049 241.363 57.2355 241.884 57.2662C243.689 57.3657 245.689 55.3052 246.055 53.5664C246.308 53.8821 246.674 54.0915 247.078 54.1526C247.482 54.2137 247.895 54.122 248.233 53.8958C248.785 53.5235 249.267 53.0595 249.657 52.5246C249.881 52.1822 250.187 51.8987 250.547 51.6985C250.908 51.4983 251.312 51.3875 251.726 51.3756C252.167 51.5009 252.621 51.5755 253.08 51.5977C253.858 51.4905 254.239 50.533 254.325 49.7364C254.41 48.9397 254.457 48.0052 255.103 47.5456C255.748 47.086 256.558 47.3005 257.312 47.3771C258.067 47.4537 259.016 47.2315 259.172 46.4962C259.195 46.302 259.178 46.1051 259.12 45.9179C259.062 45.7307 258.966 45.5572 258.837 45.4085C258.298 44.6997 257.531 44.1904 256.662 43.9626C255.793 43.7347 254.871 43.8015 254.045 44.1522C253.676 43.1644 253.021 42.3051 252.16 41.6815C251.299 41.0579 250.27 40.6976 249.203 40.6453C248.135 40.593 247.076 40.8512 246.156 41.3876C245.237 41.924 244.498 42.715 244.032 43.662C243.346 43.1093 242.535 42.7276 241.667 42.5491C240.799 42.3706 239.901 42.4006 239.047 42.6366C238.194 42.8726 237.411 43.3076 236.764 43.9048C236.118 44.5019 235.627 45.2437 235.334 46.0672C234.567 45.9101 233.77 45.9781 233.043 46.2627C232.315 46.5473 231.688 47.036 231.24 47.6682C230.792 48.3004 230.542 49.0482 230.521 49.819C230.501 50.5897 230.711 51.3493 231.125 52.0037C230.565 52.3112 230.095 52.7538 229.757 53.2899C229.42 53.8259 229.226 54.4377 229.195 55.0677C229.195 56.324 230.541 57.5189 231.763 57.1283C231.632 57.3848 231.554 57.6641 231.533 57.9504C231.512 58.2367 231.548 58.5242 231.64 58.7966C231.731 59.0691 231.877 59.321 232.067 59.5382C232.258 59.7553 232.49 59.9333 232.751 60.0621C233.011 60.1908 233.295 60.2678 233.586 60.2886C233.877 60.3094 234.169 60.2736 234.445 60.1832C234.722 60.0929 234.978 59.9498 235.198 59.7621C235.419 59.5744 235.6 59.3457 235.731 59.0892" fill="#263238"/>
<path d="M254.6 45.96C254.6 45.96 254.6 45.9983 254.6 46.0749C254.6 46.1515 254.6 46.2587 254.6 46.4042C254.534 46.8177 254.403 47.2184 254.211 47.5915C253.904 48.1943 253.459 48.7187 252.911 49.1235C252.195 49.6651 251.317 49.9586 250.414 49.9585L250.515 49.79C250.727 50.3349 250.713 50.9403 250.476 51.4752C250.222 52.0278 249.893 52.5433 249.496 53.0072C249.304 53.2851 249.082 53.5419 248.835 53.7732C248.555 53.9849 248.226 54.1245 247.878 54.1791C247.516 54.2486 247.142 54.2298 246.79 54.1243C246.437 54.0188 246.116 53.8299 245.855 53.574L246.08 53.4974C246.026 54.1279 245.839 54.7403 245.531 55.2956C245.223 55.8509 244.801 56.3368 244.291 56.7223C243.726 57.1829 243.024 57.4516 242.292 57.4883C241.606 57.4905 240.925 57.3791 240.277 57.1589L240.432 57.0746C240.137 57.8147 239.658 58.4704 239.04 58.982C238.759 59.2435 238.423 59.4403 238.056 59.5582C237.688 59.6762 237.299 59.7122 236.916 59.6637C236.266 59.5572 235.661 59.2675 235.175 58.8297C234.689 58.392 234.343 57.8249 234.177 57.1972L234.317 57.2585C233.686 57.6304 232.943 57.774 232.216 57.6644C231.671 57.5951 231.151 57.3981 230.699 57.0899C230.416 56.8952 230.169 56.6543 229.968 56.3776C229.897 56.2839 229.839 56.1807 229.797 56.0712C230.059 56.4368 230.386 56.7533 230.762 57.0057C231.203 57.2898 231.707 57.4657 232.232 57.5189C232.923 57.61 233.625 57.4611 234.216 57.0976L234.333 57.0287V57.1589C234.495 57.7479 234.826 58.2782 235.287 58.6859C235.748 59.0936 236.319 59.3614 236.931 59.4569C237.281 59.5002 237.637 59.4648 237.971 59.3534C238.305 59.2419 238.609 59.0573 238.861 58.8134C239.436 58.3116 239.877 57.6774 240.144 56.9674L240.183 56.8525H240.308C240.928 57.0669 241.58 57.1757 242.237 57.1742C242.913 57.143 243.561 56.8956 244.081 56.4695C244.567 56.105 244.97 55.6439 245.264 55.116C245.558 54.5881 245.735 54.0053 245.785 53.4055V53.1221L245.995 53.3289C246.225 53.5545 246.508 53.7213 246.818 53.8147C247.129 53.9082 247.458 53.9255 247.776 53.8651C248.087 53.8185 248.381 53.6975 248.632 53.5127C248.861 53.3045 249.067 53.0735 249.247 52.8233C249.64 52.3795 249.965 51.8814 250.212 51.3449C250.325 51.1063 250.388 50.8476 250.397 50.5844C250.407 50.3212 250.362 50.0588 250.266 49.8129L250.212 49.6674H250.367C251.229 49.6763 252.071 49.4073 252.763 48.9014C253.309 48.5356 253.763 48.054 254.094 47.492C254.351 47.0138 254.522 46.4955 254.6 45.96Z" fill="#455A64"/>
<path d="M254.991 78.2244C254.944 77.9946 253.435 78.3853 252.035 77.3971C250.634 76.409 250.37 74.7851 250.16 74.831C249.95 74.877 249.957 75.2523 250.121 75.9264C250.342 76.7944 250.865 77.5586 251.599 78.0865C252.306 78.5929 253.184 78.8098 254.05 78.6917C254.695 78.5844 255.022 78.324 254.991 78.2244Z" fill="#263238"/>
<path d="M291.659 134.464C291.519 133.981 283.474 112.426 280.915 107.707C277.842 102.062 271.384 99.5648 267.378 99.2814C263.371 98.998 220.503 102.407 220.503 102.407C220.503 102.407 207.697 105.226 206.063 116.072C204.181 128.558 202.539 157.137 202.539 157.137L222.051 147.287L224.58 141.021L264.958 149.891L274.815 135.582L291.659 134.464Z" fill="#E0E0E0"/>
<path d="M217.667 103.671L234.409 96.4014L236.284 89.293L255.835 98.393L259.928 93.9349L261.647 98.9599L265.926 100.339L275.939 117.673V154.61L277.962 186.475L275.76 191.5L257.827 194.105C255.867 194.388 253.875 194.388 251.914 194.105L215.504 188.26L214.57 177.712L218.46 148.689L217.667 103.671Z" fill="#E0E0E0"/>
<path d="M236.29 89.293C236.29 89.293 238.476 89.9134 244.07 92.8625C249.57 95.7504 255.817 98.393 255.817 98.393L255.343 107.079L234.539 96.7998" fill="#E0E0E0"/>
<path d="M259.928 93.9346L255.836 98.3927L258.022 107.707L261.671 99.2889" fill="#E0E0E0"/>
<g opacity="0.3">
<path d="M255.918 99.3502C256.097 99.4881 257.233 110.074 257.233 110.074L236.383 97.665L255.366 107.049L255.918 99.3502Z" fill="black"/>
</g>
<path d="M255.777 138.976C255.458 130.856 256.757 110.144 256.757 110.144L259.48 109.707C262.947 124.454 265.288 139.435 266.482 154.526C267.26 164.484 267.26 176.089 267.26 176.089L261.814 187.625L255.777 176.135C255.777 176.135 256.158 148.85 255.777 138.976Z" fill="#455A64"/>
<path d="M216.424 104.942C216.385 104.981 216.984 105.44 217.832 106.298C220.035 108.544 221.564 111.346 222.251 114.395C222.508 115.559 222.57 116.302 222.617 116.295C222.645 116.122 222.645 115.946 222.617 115.774C222.588 115.298 222.528 114.825 222.438 114.357C222.16 112.802 221.635 111.3 220.882 109.906C220.122 108.514 219.145 107.248 217.987 106.153C217.642 105.821 217.272 105.514 216.883 105.233C216.741 105.12 216.587 105.022 216.424 104.942Z" fill="#263238"/>
<path d="M255.772 102.544L257.631 101.832L259.397 104.812L259.716 109.707L257.227 110.105L255.359 107.079L255.772 102.544Z" fill="#455A64"/>
<path d="M275.906 117.114C275.828 117.114 275.758 127.716 275.758 140.784C275.758 153.852 275.828 164.461 275.906 164.461C275.983 164.461 276.053 153.867 276.053 140.784C276.053 127.7 275.983 117.114 275.906 117.114Z" fill="#263238"/>
<path d="M255.641 98.3165C255.963 98.9234 256.316 99.5139 256.699 100.086C257.551 101.502 258.33 102.959 259.033 104.452C259.103 104.598 259.173 104.736 259.235 104.873L259.367 105.149L259.499 104.873C260.179 103.467 260.759 102.016 261.234 100.53C261.413 99.9711 261.546 99.5115 261.623 99.1898C261.686 99.0284 261.718 98.857 261.717 98.6842C261.678 98.6842 261.46 99.3659 261.048 100.469C260.517 101.925 259.912 103.355 259.235 104.751H259.499L259.297 104.33C258.582 102.826 257.763 101.372 256.847 99.9787C256.489 99.4502 256.185 99.0289 255.967 98.7378C255.75 98.4467 255.656 98.3012 255.641 98.3165Z" fill="#263238"/>
<path d="M234.414 96.4014C234.503 96.4679 234.6 96.5245 234.702 96.5699L235.542 97.0065L238.654 98.5921C241.276 99.9326 244.878 101.848 248.846 103.954C251.266 105.226 253.561 106.405 255.56 107.386L255.747 107.478V107.24C255.747 104.689 255.794 102.545 255.809 100.99C255.809 100.224 255.809 99.6722 255.809 99.2279C255.824 99.0188 255.824 98.8089 255.809 98.5998C255.773 98.8072 255.754 99.0174 255.755 99.2279C255.755 99.6645 255.716 100.254 255.685 100.982C255.646 102.514 255.591 104.689 255.521 107.233L255.708 107.125C253.724 106.122 251.437 104.935 249.009 103.663C245.034 101.572 241.424 99.6875 238.779 98.3853C237.456 97.7419 236.375 97.2287 235.628 96.8533L234.756 96.4703C234.646 96.4309 234.531 96.4076 234.414 96.4014Z" fill="#263238"/>
<path d="M273.395 103.104C273.348 103.104 273.675 103.671 274.103 104.636C274.645 105.846 275.044 107.113 275.293 108.412C275.532 109.716 275.616 111.042 275.542 112.365C275.488 113.383 275.379 114.004 275.426 114.012C275.491 113.876 275.535 113.731 275.558 113.583C275.642 113.185 275.705 112.784 275.745 112.38C276.024 109.687 275.516 106.971 274.282 104.551C274.103 104.185 273.898 103.832 273.667 103.494C273.504 103.219 273.411 103.088 273.395 103.104Z" fill="#263238"/>
<path d="M257.691 110.419C257.691 110.488 258.205 110.266 258.741 109.929C259.278 109.592 259.691 109.27 259.644 109.201C259.258 109.282 258.896 109.45 258.586 109.691C258.049 110.028 257.644 110.35 257.691 110.419Z" fill="#263238"/>
<path d="M256.797 109.225C257.3 108.441 257.722 107.61 258.057 106.743C258.48 105.922 258.821 105.062 259.076 104.177C258.564 104.954 258.139 105.783 257.808 106.651C257.381 107.472 257.043 108.335 256.797 109.225Z" fill="#263238"/>
<path d="M214.234 105.494C214.234 105.494 207.784 110.09 206.975 112.595C206.166 115.1 202.743 156.173 202.136 161.06C201.529 165.947 200.922 175.07 204.758 178.05C208.593 181.029 216.856 183.266 216.856 183.266L224.488 167.755L220.442 159.413L224.488 128.237L214.234 105.494Z" fill="#E0E0E0"/>
<path d="M215.016 182.714C215.153 182.701 215.291 182.701 215.428 182.714C215.826 182.712 216.223 182.687 216.618 182.638C218.098 182.504 219.518 181.997 220.742 181.167C222.568 179.833 223.941 177.985 224.678 175.866C225.675 173.19 226.18 170.36 226.172 167.509L226.211 167.617L220.283 159.535L220.236 159.474V159.397C220.236 159.191 220.29 158.961 220.322 158.739C221.457 149.999 222.492 142.078 223.247 136.31C223.62 133.468 223.924 131.155 224.142 129.516C224.243 128.75 224.321 128.122 224.383 127.662C224.445 127.202 224.468 127.019 224.476 127.019C224.489 127.074 224.489 127.132 224.476 127.187C224.476 127.294 224.476 127.463 224.476 127.67C224.429 128.129 224.375 128.75 224.305 129.531C224.142 131.14 223.877 133.468 223.527 136.341C222.842 142.093 221.854 150.029 220.718 158.792C220.718 159.014 220.664 159.237 220.633 159.443V159.305L226.538 167.394V167.448V167.502C226.536 170.397 226.009 173.269 224.982 175.981C224.199 178.139 222.766 180.009 220.874 181.343C220.161 181.823 219.373 182.183 218.54 182.408L218.011 182.554L217.513 182.638C217.226 182.695 216.934 182.728 216.642 182.737C216.243 182.771 215.842 182.771 215.444 182.737C215.3 182.744 215.157 182.736 215.016 182.714Z" fill="#263238"/>
<path d="M207.219 162.27C207.716 161.788 208.289 161.387 208.915 161.083C211.864 159.458 215.264 158.806 218.616 159.222C219.311 159.276 219.994 159.436 220.639 159.696C215.987 158.912 211.203 159.827 207.188 162.27H207.219Z" fill="#263238"/>
<path d="M257.84 121.396C257.84 121.396 258.214 122.759 258.797 125.165C260.123 123.291 261.816 121.697 263.776 120.477C263.776 120.477 273.735 110.733 276.917 100.492C279.251 93.0539 278.652 84.8117 278.652 84.8117C278.558 84.4211 277.78 80.9281 277.15 78.0709C276.901 76.9451 277.104 75.7682 277.716 74.7861C278.328 73.8039 279.301 73.0927 280.433 72.8008C285.358 71.491 298.748 68.9402 301.86 77.7798C306.442 90.9933 299.028 105.264 299.113 109.347C299.113 110.113 299.113 110.748 299.113 111.254C303.042 110.358 306.115 109.722 306.115 109.783L331.898 103.862C331.898 103.862 340.417 101.319 343.342 109.921C346.268 118.523 336.34 121.411 336.34 121.411C336.34 121.411 341.008 121.204 342.269 129.025C343.529 136.846 335.01 139.382 335.01 139.382C335.01 139.382 340.23 139.052 341.584 145.984C342.899 152.733 334.38 156.8 333.921 157.015C334.597 156.848 335.283 156.72 335.975 156.632C335.467 156.815 334.947 156.964 334.419 157.076C338.394 157.574 338.97 162.231 338.97 162.231C341.53 171.783 334.061 173.79 334.061 173.79L286.961 184.606C282.269 185.683 277.371 185.508 272.77 184.101C273.221 186.077 273.463 187.165 273.447 187.165L240.561 194.725C240.491 194.725 236.943 180.026 232.633 161.871C228.323 143.717 224.892 128.933 224.962 128.933L257.84 121.396Z" fill="#B0C4CD"/>
<g opacity="0.3">
<path d="M257.84 121.396C257.84 121.396 258.214 122.759 258.797 125.165C260.123 123.291 261.816 121.697 263.776 120.477C263.776 120.477 273.735 110.733 276.917 100.492C279.251 93.0539 278.652 84.8117 278.652 84.8117C278.558 84.4211 277.78 80.9281 277.15 78.0709C276.901 76.9451 277.104 75.7682 277.716 74.7861C278.328 73.8039 279.301 73.0927 280.433 72.8008C285.358 71.491 298.748 68.9402 301.86 77.7798C306.442 90.9933 299.028 105.264 299.113 109.347C299.113 110.113 299.113 110.748 299.113 111.254C303.042 110.358 306.115 109.722 306.115 109.783L331.898 103.862C331.898 103.862 340.417 101.319 343.342 109.921C346.268 118.523 336.34 121.411 336.34 121.411C336.34 121.411 341.008 121.204 342.269 129.025C343.529 136.846 335.01 139.382 335.01 139.382C335.01 139.382 340.23 139.052 341.584 145.984C342.899 152.733 334.38 156.8 333.921 157.015C334.597 156.848 335.283 156.72 335.975 156.632C335.467 156.815 334.947 156.964 334.419 157.076C338.394 157.574 338.97 162.231 338.97 162.231C341.53 171.783 334.061 173.79 334.061 173.79L286.961 184.606C282.269 185.683 277.371 185.508 272.77 184.101C273.221 186.077 273.463 187.165 273.447 187.165L240.561 194.725C240.491 194.725 236.943 180.026 232.633 161.871C228.323 143.717 224.892 128.933 224.962 128.933L257.84 121.396Z" fill="black"/>
</g>
<path d="M264.2 130.618L263.562 134.831L274.081 179.145C277.16 181.158 280.626 182.53 284.264 183.175C287.902 183.821 291.635 183.726 295.235 182.898L342.319 172.074C342.319 172.074 349.788 170.067 347.229 160.515C347.229 160.515 346.614 155.445 342.172 155.307C342.172 155.307 351.196 151.201 349.85 144.269C348.505 137.336 343.284 137.673 343.284 137.673C343.284 137.673 351.803 135.13 350.535 127.309C349.267 119.488 344.607 119.695 344.607 119.695C344.607 119.695 354.526 116.838 351.609 108.205C348.691 99.5725 340.164 102.146 340.164 102.146L306.71 109.806L277.364 116.555C273.987 117.322 270.924 119.075 268.576 121.584C266.227 124.093 264.702 127.242 264.2 130.618Z" fill="#B0C4CD"/>
<path d="M272.023 118.8C272.023 118.8 281.982 109.056 285.164 98.8147C287.498 91.3769 286.899 83.1424 286.899 83.1424C286.805 82.7441 286.027 79.2511 285.397 76.3939C285.148 75.2681 285.351 74.0912 285.963 73.1091C286.575 72.1269 287.548 71.4156 288.68 71.1238C293.628 69.8063 302.552 72.2269 305.625 81.0818C310.208 94.2877 307.267 103.579 307.345 107.662L307.422 111.745L272.023 118.8Z" fill="#B0C4CD"/>
<path d="M266.122 119.684L233.242 127.247L248.85 193.022L281.729 185.459L266.122 119.684Z" fill="#B0C4CD"/>
<path d="M281.717 185.487C281.787 185.487 278.356 170.734 274.046 152.549C269.736 134.364 266.188 119.672 266.118 119.688C266.048 119.703 269.479 134.441 273.789 152.626C278.099 170.81 281.632 185.502 281.717 185.487Z" fill="#263238"/>
<path d="M248.842 193.033C248.912 193.033 245.473 178.28 241.163 160.095C236.853 141.91 233.305 127.218 233.235 127.233C233.165 127.249 236.596 141.987 240.906 160.171C245.217 178.356 248.764 193.033 248.842 193.033Z" fill="#263238"/>
<path d="M258.087 137.436C258.371 138.634 258.287 139.888 257.848 141.039C257.408 142.19 256.632 143.188 255.617 143.904C254.602 144.621 253.393 145.026 252.145 145.067C250.896 145.108 249.663 144.783 248.602 144.134C247.541 143.486 246.699 142.542 246.182 141.422C245.666 140.302 245.498 139.056 245.701 137.842C245.903 136.629 246.466 135.501 247.319 134.603C248.172 133.704 249.277 133.075 250.493 132.794C252.125 132.42 253.842 132.698 255.265 133.569C256.689 134.439 257.704 135.83 258.087 137.436Z" fill="white"/>
<path d="M314.371 108.098C314.371 108.029 310.753 108.795 306.334 109.814C301.915 110.833 298.336 111.706 298.352 111.775C298.367 111.844 301.969 111.078 306.388 110.067C310.807 109.056 314.386 108.167 314.371 108.098Z" fill="#263238"/>
<path d="M344.012 137.827C344.012 137.758 341.678 138.233 338.861 138.876C337.138 139.221 335.434 139.656 333.758 140.179C333.758 140.248 336.092 139.773 338.908 139.129C340.631 138.78 342.334 138.345 344.012 137.827Z" fill="#263238"/>
<path d="M345.213 119.382C345.213 119.313 341.93 120.01 337.915 120.914C333.901 121.818 330.664 122.637 330.68 122.714C330.695 122.79 333.963 122.086 337.977 121.182C341.992 120.278 345.228 119.497 345.213 119.382Z" fill="#263238"/>
<path d="M344.244 154.916C344.244 154.847 340.961 155.536 336.946 156.448C332.932 157.359 329.695 158.171 329.711 158.24C329.727 158.309 332.994 157.62 337.009 156.708C341.023 155.797 344.26 154.985 344.244 154.916Z" fill="#263238"/>
<g opacity="0.3">
<path d="M288.966 74.3792C288.5 74.8902 288.181 75.5154 288.044 76.1892C287.907 76.8631 287.957 77.5608 288.188 78.2092C288.681 79.4998 289.282 80.7476 289.986 81.9396C291.336 84.7095 291.724 87.8397 291.09 90.8482C290.896 91.7597 290.639 92.8092 291.23 93.5369C292.071 94.5633 293.759 93.9965 294.825 93.1922C296.808 91.6243 298.3 89.5349 299.126 87.1663C299.952 84.7977 300.079 82.247 299.493 79.8101C299.03 77.7352 297.86 75.8784 296.178 74.5477C294.459 73.2915 291.822 72.1578 288.904 74.3562" fill="white"/>
</g>
<g opacity="0.3">
<path d="M343.229 103.319C342.057 103.187 340.87 103.31 339.751 103.679L319.881 108.643C317.718 109.186 313.657 109.669 313.61 111.844C313.175 113.032 314.093 114.38 315.275 114.862C316.506 115.253 317.823 115.301 319.08 115C321.733 114.587 324.354 113.974 326.976 113.361C332.236 112.12 337.51 110.849 342.536 108.765C343.292 108.496 343.996 108.105 344.621 107.608C344.933 107.357 345.183 107.04 345.354 106.681C345.525 106.322 345.612 105.929 345.609 105.533C345.502 104.963 345.213 104.441 344.786 104.044C344.358 103.646 343.813 103.392 343.229 103.319Z" fill="white"/>
</g>
<path d="M258.805 123.327C258.805 123.258 254.137 124.261 248.512 125.563C242.887 126.866 238.266 127.976 238.281 128.045C238.297 128.114 242.903 127.118 248.574 125.816C254.246 124.514 258.82 123.434 258.805 123.327Z" fill="white"/>
<path d="M347.516 130.81C347.578 130.69 347.62 130.561 347.641 130.427C347.737 130.072 347.794 129.707 347.812 129.34C347.85 128.795 347.832 128.249 347.757 127.708C347.652 127.045 347.475 126.396 347.228 125.77C346.97 125.148 346.641 124.557 346.248 124.008C345.925 123.562 345.555 123.151 345.143 122.783C344.87 122.533 344.573 122.309 344.256 122.116C344.149 122.033 344.028 121.968 343.898 121.925C343.898 121.971 344.357 122.277 345.019 122.921C345.4 123.296 345.744 123.707 346.046 124.146C346.416 124.685 346.728 125.26 346.979 125.862C347.218 126.469 347.398 127.098 347.516 127.739C347.598 128.266 347.635 128.799 347.625 129.332C347.602 130.221 347.462 130.795 347.516 130.81Z" fill="white"/>
<path d="M348.424 113.032C348.695 112.79 348.908 112.492 349.046 112.158C349.427 111.374 349.593 110.505 349.528 109.638C349.482 108.772 349.214 107.932 348.75 107.195C348.567 106.889 348.318 106.627 348.019 106.429C347.98 106.429 348.268 106.75 348.587 107.31C349.002 108.033 349.244 108.84 349.295 109.669C349.351 110.497 349.218 111.326 348.906 112.097C348.634 112.672 348.385 113.001 348.424 113.032Z" fill="white"/>
<path d="M345.943 149.96C346.301 149.746 346.602 149.452 346.823 149.102C347.418 148.278 347.709 147.279 347.647 146.269C347.585 145.26 347.173 144.302 346.48 143.556C346.22 143.228 345.884 142.965 345.5 142.79C345.5 142.79 345.873 143.089 346.34 143.656C346.948 144.403 347.311 145.313 347.383 146.268C347.433 147.225 347.183 148.174 346.667 148.987C346.278 149.623 345.905 149.929 345.943 149.96Z" fill="white"/>
<path d="M342.956 167.119C343.214 166.855 343.415 166.542 343.547 166.2C343.914 165.384 344.084 164.495 344.045 163.604C344.006 162.712 343.758 161.842 343.321 161.06C343.16 160.73 342.933 160.435 342.652 160.194C342.613 160.194 342.87 160.547 343.158 161.144C343.527 161.919 343.738 162.756 343.78 163.611C343.816 164.466 343.678 165.32 343.376 166.123C343.142 166.744 342.917 167.096 342.956 167.119Z" fill="white"/>
<path d="M305.992 96.6163C306.08 96.3671 306.145 96.1108 306.187 95.8503C306.241 95.6128 306.304 95.3141 306.358 94.9617C306.412 94.6094 306.483 94.1957 306.514 93.7668C306.628 92.7291 306.667 91.6847 306.63 90.6415C306.553 88.0752 306.056 85.5379 305.16 83.127C304.795 82.146 304.361 81.1912 303.861 80.2699C303.658 79.8639 303.441 79.5039 303.262 79.2204C303.083 78.937 302.911 78.6613 302.764 78.4544C302.63 78.2327 302.473 78.0248 302.297 77.834C302.405 78.0687 302.532 78.2942 302.678 78.5081C302.81 78.7225 302.966 78.983 303.129 79.2741C303.293 79.5651 303.511 79.9328 303.697 80.3388C304.164 81.2663 304.575 82.2204 304.927 83.196C305.349 84.3927 305.689 85.6159 305.946 86.8575C306.177 88.1054 306.325 89.3669 306.389 90.6338C306.432 91.6555 306.411 92.6787 306.327 93.6978C306.327 94.1421 306.249 94.5404 306.21 94.8851C306.171 95.2298 306.125 95.5362 306.086 95.7814C306.023 96.0554 305.992 96.3354 305.992 96.6163Z" fill="white"/>
<path d="M230.92 174.227C230.92 174.227 233.503 172.25 235.425 172.174C237.347 172.097 239.844 172.825 240.342 172.58C240.84 172.335 242.015 171.255 242.762 172.166C243.508 173.078 244.434 176.356 240.428 177.26H237.673C237.673 177.26 238.008 179.972 238.677 181.036C239.346 182.101 248.69 193.683 248.69 193.683C248.69 193.683 249.857 194.84 249.273 195.981C248.69 197.122 246.161 196.471 246.161 196.471C246.161 196.471 244.411 198.003 242.411 197.291C241.418 196.961 240.465 196.522 239.572 195.981C238.925 196.468 238.133 196.731 237.319 196.731C236.505 196.731 235.714 196.468 235.067 195.981C232.733 194.258 224.953 184.644 224.953 184.644L227.738 173.92L230.92 174.227Z" fill="#AE7461"/>
<path d="M222.811 167.869L230.918 174.227L224.966 184.652L213.094 180.409C213.094 180.409 213.436 168.091 222.811 167.869Z" fill="#AE7461"/>
<path d="M349.256 153.667C349.256 153.667 348.999 150.81 347.373 151.369C345.747 151.929 345.039 155.322 345.039 155.322L349.256 153.667Z" fill="#AE7461"/>
<path d="M343.446 156.487C343.446 156.487 346.271 153.377 350.192 153.63C354.113 153.883 351.647 157.161 351.647 157.161C351.647 157.161 354.556 158.923 352.425 161.451L352.082 162.125C352.082 162.125 354.556 163.044 351.997 165.648C352.256 166.115 352.362 166.648 352.301 167.176C352.24 167.704 352.014 168.201 351.654 168.597C350.371 169.854 347.173 168.176 347.173 168.176C347.173 168.176 344.224 168.85 343.968 167.671C343.865 167.275 343.875 166.86 343.995 166.469C344.116 166.079 344.343 165.729 344.652 165.457C344.909 165.288 346.45 164.691 346.45 164.691C346.45 164.691 343.034 165.112 342.949 164.27C342.863 163.427 342.521 162.5 345.08 161.665L346.45 161.305C346.45 161.305 342.902 161.412 342.879 160.539C342.855 159.666 342.692 159.36 343.968 158.777C344.774 158.409 345.554 157.986 346.302 157.513C346.302 157.513 342.941 158.256 343.446 156.487Z" fill="#AE7461"/>
<path d="M342.828 159.772C344.108 158.838 345.535 158.119 347.053 157.643C348.599 157.269 350.196 157.145 351.783 157.275C351.341 157.095 350.869 156.996 350.39 156.984C348.06 156.787 345.737 157.432 343.855 158.8C343.451 159.054 343.102 159.384 342.828 159.772Z" fill="#6F4439"/>
<path d="M343.214 164.575C343.214 164.575 343.136 164.468 343.051 164.277C342.952 163.994 342.952 163.686 343.051 163.403C343.181 162.975 343.456 162.602 343.829 162.346C344.302 162.04 344.83 161.824 345.385 161.711C346.866 161.446 348.363 161.266 349.866 161.174C349.431 161.055 348.979 161.006 348.528 161.029C347.444 161.02 346.363 161.136 345.307 161.374C344.705 161.498 344.135 161.743 343.634 162.094C343.216 162.398 342.923 162.842 342.809 163.342C342.761 163.508 342.746 163.681 342.767 163.852C342.787 164.022 342.841 164.188 342.926 164.338C343.097 164.545 343.206 164.591 343.214 164.575Z" fill="#6F4439"/>
<path d="M344.653 168.275C344.653 168.275 344.528 168.199 344.357 168.038C344.212 167.9 344.098 167.733 344.022 167.548C343.947 167.364 343.912 167.166 343.919 166.967C343.927 166.769 343.976 166.574 344.065 166.395C344.154 166.217 344.28 166.059 344.435 165.931C344.948 165.59 345.512 165.332 346.108 165.165C347.233 164.936 348.387 164.876 349.531 164.989C350.016 165.051 350.51 165.025 350.986 164.912C350.51 164.825 350.029 164.769 349.546 164.744C348.371 164.556 347.17 164.587 346.006 164.836C345.367 165.016 344.764 165.303 344.225 165.686C343.981 165.885 343.805 166.152 343.719 166.452C343.667 166.705 343.667 166.965 343.719 167.218C343.749 167.403 343.817 167.58 343.917 167.739C344.017 167.898 344.148 168.036 344.303 168.145C344.497 168.29 344.653 168.29 344.653 168.275Z" fill="#6F4439"/>
<path d="M343.403 156.624C343.403 156.624 343.473 156.517 343.652 156.356C343.9 156.136 344.159 155.929 344.43 155.736C345.312 155.087 346.287 154.571 347.324 154.204C348.35 153.82 349.45 153.663 350.545 153.744C350.989 153.843 351.428 153.966 351.86 154.112C351.51 153.786 351.067 153.575 350.591 153.507C349.455 153.342 348.295 153.469 347.223 153.874C344.655 154.778 343.193 156.509 343.403 156.624Z" fill="#6F4439"/>
</svg>
