<svg width="48" height="48" viewBox="0 0 48 48" fill="none" xmlns="http://www.w3.org/2000/svg">
<path d="M21.6731 24.7214L21.6701 24.0132C21.6701 21.0699 21.8424 18.3866 22.1021 16.6374L22.3295 15.5497C22.4561 14.9736 22.6224 14.3176 22.7959 13.9827C23.4308 12.7578 24.6722 12 26.0009 12H26.1166C26.9827 12.0286 28.8023 12.7887 28.8023 12.8151C31.7303 14.0437 37.3791 17.7514 39.988 20.3948L40.7461 21.1884C40.9447 21.4035 41.1677 21.658 41.3062 21.8564C41.7687 22.4689 42 23.2267 42 23.9846C42 24.8305 41.7404 25.617 41.2495 26.2603L40.4705 27.1009L40.296 27.2803C37.9288 29.8469 31.7478 34.0437 28.5143 35.3281L28.0262 35.5152C27.4387 35.7257 26.6156 35.9769 26.1166 36C25.4817 36 24.8751 35.8524 24.2969 35.5616C23.5748 35.154 22.9988 34.5107 22.6802 33.7529C22.4773 33.2286 22.1588 31.6534 22.1588 31.6247C21.8668 30.0365 21.6974 27.5304 21.6731 24.7214ZM6 23.9991C6 22.3226 7.34617 20.9633 9.00651 20.9633L16.405 21.6176C17.7075 21.6176 18.7635 22.6839 18.7635 23.9991C18.7635 25.3165 17.7075 26.3806 16.405 26.3806L9.00651 27.0349C7.34617 27.0349 6 25.6756 6 23.9991Z" fill="url(#paint0_linear_901_2570)"/>
<defs>
<linearGradient id="paint0_linear_901_2570" x1="24" y1="12" x2="24" y2="36" gradientUnits="userSpaceOnUse">
<stop stop-color="white"/>
<stop offset="1" stop-color="white" stop-opacity="0.21"/>
</linearGradient>
</defs>
</svg>
