<svg width="294" height="135" viewBox="0 0 294 135" fill="none" xmlns="http://www.w3.org/2000/svg">
<g clip-path="url(#clip0_880_2372)">
<path d="M270.29 76.2949C277.569 76.2949 283.47 70.3491 283.47 63.0146C283.47 55.6801 277.569 49.7344 270.29 49.7344C263.01 49.7344 257.109 55.6801 257.109 63.0146C257.109 70.3491 263.01 76.2949 270.29 76.2949Z" fill="#F2F2F2"/>
<path d="M270.293 66.5091C272.208 66.5091 273.761 64.9445 273.761 63.0143C273.761 61.0842 272.208 59.5195 270.293 59.5195C268.377 59.5195 266.824 61.0842 266.824 63.0143C266.824 64.9445 268.377 66.5091 270.293 66.5091Z" fill="#E6E6E6"/>
<path d="M269.657 63.0896C271.118 64.2906 271.563 66.1834 271.291 68.0111C270.957 70.0158 269.925 71.8349 268.38 73.1418C266.642 74.6978 264.523 75.7492 262.478 76.8258C260.599 77.792 258.794 78.8964 257.076 80.1301C250.499 84.9462 245.531 91.8038 242.687 99.4563C239.848 107.096 239.087 115.767 241.244 123.685C242.311 127.602 244.47 131.829 248.492 133.303C251.699 134.478 256.076 133.721 257.709 130.392C259.462 126.815 257.016 122.795 253.864 121.019C249.779 118.718 244.899 120.4 241.224 122.729C237.179 125.294 233.927 128.975 229.703 131.273C227.802 132.341 225.687 132.963 223.514 133.093C221.519 133.172 219.528 132.862 217.649 132.18C213.752 130.749 210.397 128.125 208.055 124.676C205.372 120.747 204.171 115.93 203.952 111.212C203.462 100.656 207.601 90.7797 210.922 80.9899C212.707 75.892 214.043 70.646 214.917 65.3124C215.748 59.9517 216.044 54.5206 215.8 49.1006C215.58 44.3079 215.111 39.2962 213.012 34.919C211.166 31.0701 207.792 27.9199 203.527 27.1257C201.604 26.7455 199.611 26.9761 197.824 27.7857C197.216 28.0654 197.744 28.9692 198.35 28.691C202.124 26.956 206.586 28.6441 209.374 31.4455C212.63 34.7169 213.825 39.5478 214.356 44.0054C215.549 54.5695 214.609 65.2676 211.592 75.4562C208.697 85.3647 204.143 94.8597 203.093 105.241C202.613 109.978 202.859 114.875 204.362 119.417C205.651 123.464 208.069 127.051 211.326 129.75C214.393 132.248 218.166 133.95 222.138 134.14C226.597 134.353 230.507 132.35 233.966 129.686C237.67 126.833 241.079 123.312 245.567 121.712C247.613 120.983 249.943 120.642 252.044 121.344C253.846 121.965 255.375 123.203 256.363 124.843C257.275 126.372 257.612 128.283 256.779 129.925C255.996 131.469 254.469 132.362 252.814 132.668C251.063 132.98 249.258 132.671 247.707 131.793C245.895 130.751 244.57 129.001 243.641 127.152C241.788 123.465 241.166 119.076 241.072 114.984C240.989 110.987 241.497 106.999 242.58 103.153C244.734 95.3722 249.082 88.3882 255.097 83.0478C256.613 81.7177 258.234 80.5151 259.944 79.452C261.811 78.2932 263.802 77.3672 265.705 76.2737C267.577 75.1978 269.421 73.9122 270.71 72.1417C271.809 70.6242 272.403 68.7951 272.406 66.9167C272.425 66.0528 272.255 65.1951 271.907 64.4053C271.559 63.6155 271.042 62.9131 270.393 62.3483C269.878 61.9252 269.137 62.6627 269.657 63.0896Z" fill="#CCCCCC"/>
<path d="M146.612 124.174C151.221 127.175 156.552 128.859 162.037 129.046C161.939 129.28 161.829 129.508 161.707 129.731C161.069 130.918 160.166 131.941 159.071 132.719C157.774 133.638 156.251 134.182 154.668 134.289C153.086 134.396 151.504 134.064 150.096 133.328C148.689 132.591 147.509 131.48 146.685 130.114C145.861 128.748 145.426 127.18 145.426 125.582V124.174H146.612Z" fill="#A0A0A0"/>
<path d="M178.959 124.586V125.582C178.96 127.521 178.32 129.405 177.139 130.936C175.958 132.468 174.305 133.559 172.44 134.038C170.575 134.517 168.605 134.356 166.841 133.581C165.077 132.806 163.62 131.461 162.699 129.758C162.572 129.53 162.457 129.296 162.355 129.056C162.609 129.063 162.858 129.066 163.112 129.066C168.703 129.073 174.188 127.522 178.959 124.586Z" fill="#A0A0A0"/>
<path d="M190.631 19.2601C190.371 19.2216 190.107 19.1972 189.844 19.1797C192.839 26.1354 193.047 33.9892 190.423 41.0956C190.687 41.0641 190.947 41.0222 191.207 40.9733C193.747 40.4773 196.03 39.0893 197.65 37.0562C199.269 35.0231 200.12 32.4769 200.051 29.8708C199.982 27.2647 198.997 24.7679 197.272 22.8249C195.547 20.8818 193.194 19.6186 190.631 19.2601Z" fill="#A0A0A0"/>
<path d="M136.383 19.1797C136.12 19.1972 135.856 19.2216 135.596 19.2601C133.033 19.6186 130.68 20.8818 128.955 22.8249C127.23 24.7679 126.245 27.2647 126.176 29.8708C126.107 32.4769 126.958 35.0231 128.577 37.0562C130.197 39.0893 132.48 40.4774 135.02 40.9733C135.28 41.0222 135.54 41.0641 135.804 41.0956C133.18 33.9892 133.388 26.1354 136.383 19.1797Z" fill="#A0A0A0"/>
<path d="M190.628 19.2596C187.771 12.3818 182.478 6.81973 175.778 3.654C169.078 0.488272 161.449 -0.0550876 154.374 2.12948C147.299 4.31405 141.282 9.07057 137.493 15.475C133.703 21.8794 132.412 29.4743 133.87 36.7844C135.327 44.0944 139.429 50.5976 145.38 55.0305C151.33 59.4634 158.703 61.5094 166.067 60.7712C173.431 60.033 180.259 56.5632 185.226 51.0359C190.192 45.5086 192.942 38.3185 192.942 30.8623C192.94 26.8786 192.154 22.9348 190.628 19.2596ZM190.42 41.0951C187.883 47.9673 182.885 53.6336 176.409 56.9789C169.933 60.3242 162.45 61.1061 155.43 59.1708C148.411 57.2355 142.365 52.7231 138.483 46.5217C134.6 40.3203 133.161 32.8792 134.451 25.6629C135.74 18.4466 139.663 11.9778 145.448 7.52975C151.233 3.08166 158.461 0.976472 165.709 1.62852C172.958 2.28058 179.701 5.64263 184.613 11.053C189.524 16.4633 192.248 23.5301 192.248 30.8623C192.247 34.3556 191.628 37.8207 190.42 41.0951Z" fill="#A0A0A0"/>
<path d="M178.374 24.0469H147.851C146.241 24.0469 144.697 24.6912 143.559 25.8382C142.421 26.9851 141.781 28.5407 141.781 30.1628C141.781 31.7848 142.421 33.3404 143.559 34.4874C144.697 35.6343 146.241 36.2787 147.851 36.2787H178.374C179.984 36.2787 181.528 35.6343 182.666 34.4874C183.805 33.3404 184.444 31.7848 184.444 30.1628C184.444 28.5407 183.805 26.9851 182.666 25.8382C181.528 24.6912 179.984 24.0469 178.374 24.0469Z" fill="#A0A0A0"/>
<path d="M163.112 66.8594C154.957 66.8631 147.128 70.0818 141.298 75.827C135.469 81.5722 132.102 89.3877 131.918 97.6018C131.734 105.816 134.748 113.777 140.314 119.781C145.88 125.785 153.557 129.356 161.703 129.731C162.033 129.748 162.366 129.759 162.699 129.759C162.838 129.766 162.973 129.766 163.112 129.766C171.391 129.766 179.331 126.452 185.185 120.553C191.04 114.655 194.328 106.654 194.328 98.3126C194.328 89.9707 191.04 81.9704 185.185 76.0718C179.331 70.1732 171.391 66.8594 163.112 66.8594ZM178.959 124.587C174.187 127.523 168.703 129.073 163.112 129.067C162.858 129.067 162.609 129.063 162.355 129.056C162.248 129.056 162.14 129.053 162.033 129.046C154.703 128.789 147.71 125.884 142.332 120.86C136.953 115.836 133.548 109.03 132.739 101.686C131.931 94.3413 133.772 86.9488 137.927 80.8594C142.081 74.77 148.272 70.3904 155.368 68.5211C162.463 66.6517 169.99 67.4174 176.571 70.6783C183.152 73.9392 188.349 79.4774 191.212 86.2808C194.075 93.0841 194.412 100.698 192.162 107.732C189.913 114.765 185.226 120.748 178.959 124.587Z" fill="#A0A0A0"/>
<path d="M185.024 90.5645H171.381C170.43 90.5645 169.519 90.184 168.847 89.5068C168.174 88.8295 167.797 87.9109 167.797 86.9532C167.797 85.9954 168.174 85.0768 168.847 84.3995C169.519 83.7223 170.43 83.3418 171.381 83.3418H185.024C185.975 83.3418 186.886 83.7223 187.558 84.3995C188.231 85.0768 188.608 85.9954 188.608 86.9532C188.608 87.9109 188.231 88.8295 187.558 89.5068C186.886 90.184 185.975 90.5645 185.024 90.5645Z" fill="#A0A0A0"/>
<path d="M172.292 88.7868C173.296 88.7868 174.111 87.9662 174.111 86.9539C174.111 85.9417 173.296 85.1211 172.292 85.1211C171.287 85.1211 170.473 85.9417 170.473 86.9539C170.473 87.9662 171.287 88.7868 172.292 88.7868Z" fill="#F2F2F2"/>
<path d="M178.202 88.7868C179.206 88.7868 180.021 87.9662 180.021 86.9539C180.021 85.9417 179.206 85.1211 178.202 85.1211C177.197 85.1211 176.383 85.9417 176.383 86.9539C176.383 87.9662 177.197 88.7868 178.202 88.7868Z" fill="#F2F2F2"/>
<path d="M184.112 88.7868C185.117 88.7868 185.931 87.9662 185.931 86.9539C185.931 85.9417 185.117 85.1211 184.112 85.1211C183.107 85.1211 182.293 85.9417 182.293 86.9539C182.293 87.9662 183.107 88.7868 184.112 88.7868Z" fill="#B0C4CD"/>
<path d="M57.1009 133.396C60.22 130.74 62.1146 126.545 61.6178 122.461C61.1209 118.378 58.0435 114.623 54.0517 113.756C50.0599 112.889 45.5095 115.289 44.2971 119.218C43.6298 111.643 42.8609 103.751 38.864 97.3006C35.2448 91.4597 28.9763 87.2803 22.1827 86.5326C15.3891 85.7849 8.2363 88.6089 3.99938 94.0116C-0.237541 99.4143 -1.27494 107.269 1.69249 113.471C3.8785 118.041 7.90588 121.441 12.1256 124.208C25.5879 133.034 42.2879 136.016 58.1781 133.66L57.1009 133.396Z" fill="#F2F2F2"/>
<path d="M10.7176 88.765C16.3232 93.3654 21.4657 98.5106 26.0708 104.126C30.6766 109.736 34.7316 115.783 38.1786 122.181C40.1054 125.771 41.8362 129.463 43.3634 133.243C43.6748 134.012 42.4358 134.346 42.1279 133.586C39.4228 126.923 36.0761 120.543 32.1358 114.537C28.2146 108.554 23.7266 102.967 18.7348 97.857C15.9114 94.9679 12.9325 92.2374 9.81159 89.6779C9.17188 89.1531 10.0832 88.2445 10.7176 88.765Z" fill="white"/>
<path d="M56.0415 23.0662C61.9799 23.0662 66.794 18.2157 66.794 12.2323C66.794 6.24893 61.9799 1.39844 56.0415 1.39844C50.1031 1.39844 45.2891 6.24893 45.2891 12.2323C45.2891 18.2157 50.1031 23.0662 56.0415 23.0662Z" fill="#2F2E41"/>
<path d="M96.1439 51.9027C95.9378 52.2149 95.6866 52.4944 95.3986 52.7318C94.9838 53.0765 94.5013 53.3289 93.9829 53.4725C93.4645 53.6162 92.9218 53.6478 92.3904 53.5654C91.859 53.483 91.3509 53.2884 90.8993 52.9943C90.4478 52.7002 90.063 52.3133 89.7702 51.859C89.7024 51.7531 89.6402 51.6437 89.5839 51.5312L72.6402 49.8841C71.3029 49.749 70.0446 49.183 69.0519 48.2701C68.0592 47.3573 67.3851 46.1462 67.1297 44.8168L66.168 39.7084L72.7805 38.6719L73.9672 42.7638L90.4871 46.8524C90.615 46.7393 90.7507 46.6353 90.8931 46.5413C91.63 46.0595 92.5093 45.8485 93.3827 45.9441C94.256 46.0397 95.0699 46.4359 95.6869 47.066C96.304 47.696 96.6864 48.5212 96.7696 49.4024C96.8529 50.2835 96.6319 51.1666 96.1439 51.9027Z" fill="#FFB8B8"/>
<path d="M74.3763 42.1461L66.9898 44.1566C66.5901 44.2649 66.1642 44.2091 65.8054 44.0013C65.4466 43.7936 65.1842 43.4509 65.0759 43.0485L62.4887 33.3987C62.2115 32.3651 62.324 31.2647 62.8044 30.3096C63.2849 29.3546 64.0992 28.6126 65.0905 28.2267C66.0817 27.8409 67.1797 27.8384 68.1726 28.2199C69.1655 28.6014 69.9831 29.3397 70.4677 30.2926L75.3585 39.9108C75.4645 40.1193 75.523 40.3491 75.5296 40.5833C75.5362 40.8175 75.4908 41.0502 75.3967 41.2645C75.3025 41.4788 75.1621 41.6691 74.9855 41.8217C74.809 41.9742 74.6009 42.0851 74.3763 42.1461Z" fill="#2F2E41"/>
<path d="M70.0948 130.753H74.3469L76.3701 114.227L70.0938 114.227L70.0948 130.753Z" fill="#FFB8B8"/>
<path d="M82.5508 134.73L69.1863 134.731L69.186 129.528L77.387 129.528C78.7565 129.528 80.0698 130.076 81.0382 131.052C82.0066 132.027 82.5507 133.351 82.5508 134.73Z" fill="#2F2E41"/>
<path d="M32.1953 126.576L36.1737 128.089L43.8607 113.349L37.9892 111.115L32.1953 126.576Z" fill="#FFB8B8"/>
<path d="M42.4531 134.73L29.9501 129.974L31.7741 125.107L39.4464 128.025C40.7276 128.513 41.7641 129.493 42.328 130.751C42.8918 132.008 42.9369 133.44 42.4531 134.73Z" fill="#2F2E41"/>
<path d="M69.9638 126.913C69.6342 126.913 69.3131 126.807 69.0467 126.612C68.7802 126.416 68.5821 126.141 68.4808 125.825L57.6352 92.0774C57.603 91.9773 57.5418 91.8893 57.4593 91.8248C57.3769 91.7603 57.2772 91.7223 57.173 91.7156C57.0689 91.7089 56.9652 91.734 56.8753 91.7875C56.7855 91.841 56.7136 91.9205 56.6692 92.0156L41.6385 124.238C41.4757 124.586 41.1918 124.863 40.8406 125.014C40.4893 125.166 40.0951 125.183 39.7324 125.061L33.8127 123.073C33.4367 122.946 33.1227 122.68 32.9341 122.328C32.7456 121.977 32.6967 121.566 32.7972 121.179L42.0042 86.0403C42.9676 82.3181 43.6635 78.5308 44.0865 74.7078C44.7322 68.4124 47.6615 62.5787 52.3128 58.3252C54.3437 56.4504 55.6639 53.9221 56.047 51.1738L56.0718 50.998L69.5553 53.1431L78.0961 123.364C78.1402 123.739 78.0491 124.119 77.8392 124.432C77.6294 124.746 77.3147 124.973 76.9525 125.073L70.3714 126.858C70.2385 126.895 70.1015 126.913 69.9638 126.913Z" fill="#2F2E41"/>
<path d="M60.316 23.0148C65.0209 23.0148 68.835 19.1718 68.835 14.4312C68.835 9.69066 65.0209 5.84766 60.316 5.84766C55.611 5.84766 51.7969 9.69066 51.7969 14.4312C51.7969 19.1718 55.611 23.0148 60.316 23.0148Z" fill="#FFB8B8"/>
<path d="M68.7151 54.6412C68.6884 54.6412 68.6617 54.6405 68.6348 54.6392L55.2685 53.9658C54.8954 53.9488 54.5409 53.7969 54.27 53.5379C53.9991 53.2789 53.83 52.9301 53.7937 52.5556L51.9677 34.6174C51.834 33.3038 52.0212 31.9772 52.5129 30.7531C53.0047 29.529 53.786 28.4447 54.7889 27.5946C55.7918 26.7445 56.9858 26.1544 58.2669 25.8757C59.548 25.5971 60.8773 25.6383 62.1389 25.9958C63.1842 26.2842 64.1583 26.7891 64.999 27.4782C74.4016 35.2584 71.3698 49.355 70.2166 53.49C70.1263 53.8213 69.9303 54.1134 69.659 54.3214C69.3877 54.5294 69.056 54.6418 68.7151 54.6412Z" fill="#B0C4CD"/>
<path d="M57.0859 66.6858C56.7138 66.6859 56.3437 66.63 55.988 66.5199C55.4734 66.3628 54.9976 66.0979 54.5917 65.7426C54.1859 65.3873 53.8591 64.9496 53.6328 64.4582C53.4066 63.9668 53.2859 63.4327 53.2788 62.891C53.2717 62.3493 53.3782 61.8122 53.5915 61.3149C53.6414 61.1994 53.6973 61.0866 53.7591 60.9771L45.7345 45.8511C45.1054 44.6545 44.8761 43.2853 45.0805 41.947C45.285 40.6086 45.9123 39.3723 46.8693 38.4216L50.5577 34.7852L55.077 39.7581L52.3532 43.0201L58.1256 59.143C58.2899 59.1876 58.4509 59.2439 58.6075 59.3112C59.4138 59.6625 60.0752 60.2833 60.48 61.0689C60.8848 61.8544 61.0082 62.7567 60.8294 63.6233C60.6506 64.4899 60.1805 65.2678 59.4986 65.8257C58.8166 66.3837 57.9644 66.6874 57.0859 66.6858Z" fill="#FFB8B8"/>
<path d="M53.0887 43.0186L47.3358 37.9358C47.0249 37.6606 46.8351 37.2723 46.808 36.8563C46.781 36.4402 46.9188 36.0303 47.1912 35.7165L53.7318 28.201C54.4324 27.3959 55.404 26.8807 56.4593 26.7547C57.5146 26.6287 58.5787 26.9009 59.4467 27.5186C60.3146 28.1364 60.9248 29.0561 61.1596 30.1003C61.3944 31.1445 61.2371 32.2394 60.7182 33.1737L55.4798 42.6042C55.3662 42.8087 55.2088 42.985 55.0189 43.1203C54.829 43.2556 54.6115 43.3464 54.3823 43.3861C54.1531 43.4258 53.918 43.4134 53.6942 43.3498C53.4704 43.2863 53.2635 43.1731 53.0887 43.0186Z" fill="#2F2E41"/>
<path d="M54.8332 22.7686C55.6105 23.0463 56.5634 23.2911 57.1751 22.7152C57.7722 22.1529 57.6634 21.1247 57.3116 20.3672C56.9599 19.6097 56.4143 18.9356 56.2471 18.1111C56.0073 16.9295 56.6272 15.7019 57.5119 14.9315C58.3967 14.1611 59.5104 13.7564 60.5977 13.367L66.5612 11.2311C68.0373 10.7024 69.628 10.0813 70.4541 8.68995C71.6493 6.67673 70.5566 3.79895 68.596 2.62419C66.6355 1.44944 64.159 1.66829 62.0437 2.49432C60.8738 2.95118 59.7609 3.58074 58.551 3.90234C56.1631 4.53705 53.4481 3.96765 51.3498 5.3242C49.5232 6.50506 48.676 8.91454 48.7375 11.169C48.799 13.4235 49.6229 15.5705 50.4919 17.6324C51.0088 18.859 51.5611 20.0998 52.4368 21.0754C53.3125 22.0511 54.5779 22.7336 55.8419 22.554L54.8332 22.7686Z" fill="#2F2E41"/>
<path d="M47.0269 13.9792C50.8582 13.9792 53.964 10.8499 53.964 6.9896C53.964 3.12935 50.8582 0 47.0269 0C43.1957 0 40.0898 3.12935 40.0898 6.9896C40.0898 10.8499 43.1957 13.9792 47.0269 13.9792Z" fill="#2F2E41"/>
<path d="M103.29 47.3378L103.166 47.3208L103.63 43.9229C103.701 43.4013 103.564 42.8726 103.248 42.4531C102.932 42.0335 102.464 41.7576 101.946 41.6859L94.8014 40.6962C94.2837 40.6245 93.759 40.763 93.3426 41.0811C92.9262 41.3992 92.6523 41.871 92.5812 42.3926L90.0379 61.034C89.9667 61.5556 90.1041 62.0843 90.4199 62.5038C90.7356 62.9233 91.2038 63.1993 91.7215 63.271L98.8665 64.2606C99.3842 64.3323 99.9089 64.1939 100.325 63.8758C100.742 63.5577 101.016 63.0859 101.087 62.5643L102.836 49.7395L102.96 49.7565L103.29 47.3378Z" fill="#A0A0A0"/>
<path d="M101.72 42.6824L100.831 42.5592C100.858 42.6659 100.859 42.7777 100.833 42.8848C100.807 42.9918 100.755 43.0908 100.683 43.173C100.61 43.2552 100.518 43.3182 100.415 43.3562C100.313 43.3943 100.202 43.4064 100.094 43.3914L96.1898 42.8506C96.0815 42.8356 95.9785 42.794 95.8899 42.7294C95.8013 42.6648 95.7298 42.5793 95.6817 42.4803C95.6337 42.3814 95.6105 42.272 95.6143 42.1619C95.618 42.0518 95.6486 41.9444 95.7033 41.849L94.8724 41.7339C94.6898 41.7086 94.5041 41.7198 94.3258 41.7668C94.1475 41.8139 93.9801 41.8958 93.8333 42.008C93.6864 42.1202 93.5629 42.2605 93.4699 42.4208C93.3768 42.581 93.316 42.7582 93.2909 42.9422L90.8685 60.6973C90.8179 61.0688 90.9157 61.4454 91.1406 61.7443C91.3655 62.0431 91.699 62.2397 92.0678 62.2908L98.9158 63.2392C99.2846 63.2903 99.6584 63.1917 99.9549 62.9651C100.252 62.7385 100.447 62.4025 100.497 62.0309L102.92 44.2758C102.97 43.9043 102.873 43.5277 102.648 43.2288C102.423 42.93 102.089 42.7334 101.72 42.6824Z" fill="white"/>
<path d="M96.8662 57.4229C98.9734 57.4229 100.682 55.7018 100.682 53.5787C100.682 51.4555 98.9734 49.7344 96.8662 49.7344C94.759 49.7344 93.0508 51.4555 93.0508 53.5787C93.0508 55.7018 94.759 57.4229 96.8662 57.4229Z" fill="#B0C4CD"/>
<path d="M96.4878 55.0448C96.4019 55.045 96.3183 55.017 96.2497 54.9651L96.2454 54.9619L95.3488 54.2702C95.307 54.2382 95.2719 54.1983 95.2455 54.1526C95.2191 54.1069 95.2019 54.0565 95.195 54.0041C95.188 53.9517 95.1913 53.8985 95.2048 53.8474C95.2183 53.7963 95.2417 53.7484 95.2736 53.7065C95.3055 53.6645 95.3453 53.6294 95.3907 53.603C95.4361 53.5765 95.4863 53.5594 95.5383 53.5526C95.5903 53.5458 95.6431 53.5494 95.6938 53.5632C95.7444 53.5769 95.7918 53.6007 95.8333 53.633L96.4141 54.0817L97.7866 52.2782C97.8184 52.2364 97.8581 52.2013 97.9034 52.1749C97.9487 52.1486 97.9987 52.1314 98.0505 52.1245C98.1024 52.1176 98.1551 52.1211 98.2056 52.1347C98.2562 52.1484 98.3036 52.1719 98.3451 52.204C98.4288 52.2688 98.4838 52.3646 98.4976 52.4701C98.5115 52.5756 98.4832 52.6824 98.419 52.7669L96.8047 54.8882C96.7673 54.937 96.7193 54.9766 96.6644 55.0038C96.6094 55.0309 96.549 55.045 96.4878 55.0448Z" fill="white"/>
<path d="M293.586 135H2.4743C2.36497 135 2.26024 134.956 2.18304 134.878C2.10585 134.8 2.0625 134.694 2.0625 134.584C2.0625 134.474 2.10585 134.368 2.18304 134.29C2.26024 134.212 2.36497 134.168 2.4743 134.168H293.586C293.696 134.168 293.801 134.212 293.879 134.29C293.956 134.368 293.999 134.474 293.999 134.584C293.999 134.694 293.956 134.8 293.879 134.878C293.801 134.956 293.696 135 293.586 135Z" fill="#CCCCCC"/>
</g>
<defs>
<clipPath id="clip0_880_2372">
<rect width="294" height="135" fill="white"/>
</clipPath>
</defs>
</svg>
