<svg width="323" height="383" viewBox="0 0 323 383" fill="none" xmlns="http://www.w3.org/2000/svg">
<g clip-path="url(#clip0_792_686)">
<path d="M317.328 375.366C315.501 377.837 313.236 379.95 310.647 381.598C310.096 381.949 309.531 382.279 308.956 382.585H295.422C295.584 382.26 295.742 381.929 295.894 381.598C300.09 372.71 301.406 362.725 299.657 353.047C297.907 343.369 293.18 334.485 286.141 327.643C294.321 330.179 301.882 335.124 306.827 342.136C309.23 345.551 310.939 349.407 311.856 353.486C312.674 345.329 311.375 337.1 308.086 329.597C314.727 335.02 319.899 342.447 321.87 350.806C323.842 359.17 322.411 368.452 317.328 375.366Z" fill="#F0F0F0"/>
<path d="M322.814 383H196.109V381.961H323.002L322.814 383Z" fill="#3F3D56"/>
<path d="M151.779 129.916C151.779 148.983 145.143 165.263 132.514 177.377C123.552 185.978 109.747 198.034 109.747 210.78V221.326H67.7155V210.78C67.7155 197.901 53.8573 185.821 44.9495 177.377C32.6053 165.687 25.6836 148.302 25.6836 129.916V129.526C25.7378 112.743 32.4309 96.6685 44.2908 84.8386C56.1507 73.0087 72.2061 66.392 88.9257 66.4437C105.645 66.4954 121.66 73.2113 133.447 85.1142C145.234 97.0172 151.828 113.132 151.779 129.916Z" fill="#B0C4CD"/>
<path d="M109.749 222.806C109.357 222.806 108.982 222.65 108.706 222.372C108.429 222.094 108.274 221.718 108.274 221.325V210.778C108.274 198.379 120.455 186.805 129.35 178.354C130.088 177.652 130.806 176.972 131.495 176.308C143.799 164.501 150.303 148.459 150.303 129.916C150.303 95.2598 123.259 68.1121 88.7341 68.1121H88.5601C72.3124 68.1304 56.7329 74.6055 45.2278 86.1217C33.7228 97.638 27.2284 113.258 27.1645 129.568V129.913C27.1645 148.073 34.0169 164.98 45.9658 176.303C46.5709 176.876 47.1997 177.467 47.8451 178.074C56.8547 186.541 69.1939 198.137 69.1939 210.778V221.325C69.1939 221.718 69.0386 222.094 68.762 222.372C68.4854 222.65 68.1103 222.806 67.7191 222.806C67.328 222.806 66.9529 222.65 66.6763 222.372C66.3997 222.094 66.2443 221.718 66.2443 221.325V210.778C66.2443 199.421 54.4459 188.332 45.8291 180.232C45.1807 179.623 44.5512 179.03 43.9408 178.453C31.405 166.574 24.2148 148.882 24.2148 129.914V129.558C24.3132 94.0063 53.1628 65.1493 88.5557 65.1493H88.738C105.76 65.0605 122.12 71.7629 134.219 83.7821C146.318 95.8012 153.164 112.153 153.253 129.239C153.254 129.465 153.254 129.69 153.253 129.916C153.253 149.287 146.434 166.069 133.534 178.449C132.841 179.113 132.12 179.799 131.378 180.504C122.873 188.585 111.222 199.653 111.222 210.778V221.325C111.222 221.718 111.067 222.094 110.79 222.372C110.513 222.65 110.138 222.806 109.747 222.806H109.749Z" fill="#3F3D56"/>
<path d="M102.745 241.802H74.7236C74.0717 241.802 73.4465 241.542 72.9856 241.079C72.5246 240.616 72.2656 239.989 72.2656 239.335C72.2656 238.68 72.5246 238.053 72.9856 237.59C73.4465 237.127 74.0717 236.867 74.7236 236.867H102.745C103.397 236.867 104.022 237.127 104.483 237.59C104.944 238.053 105.203 238.68 105.203 239.335C105.203 239.989 104.944 240.616 104.483 241.079C104.022 241.542 103.397 241.802 102.745 241.802Z" fill="#B0C4CD"/>
<path d="M91.7471 258.333H85.7166C83.6219 258.334 81.5664 257.763 79.7711 256.679C79.505 256.524 79.2988 256.282 79.1857 255.995C79.0726 255.707 79.0592 255.389 79.1476 255.093C79.2285 254.789 79.4075 254.52 79.6567 254.329C79.9059 254.138 80.2112 254.035 80.5249 254.036H96.9389C97.2526 254.035 97.5579 254.138 97.8071 254.329C98.0563 254.52 98.2354 254.789 98.3163 255.093C98.4047 255.389 98.3912 255.707 98.2781 255.995C98.165 256.282 97.9588 256.524 97.6926 256.679C95.8973 257.763 93.8418 258.334 91.7471 258.333Z" fill="#3F3D56"/>
<path d="M102.75 249.596L74.5625 249.593L74.4752 249.405C74.392 249.059 74.3886 248.699 74.4652 248.352C74.5419 248.005 74.6966 247.68 74.9175 247.402C75.1415 247.117 75.427 246.887 75.7526 246.729C76.0781 246.571 76.4352 246.489 76.7969 246.49H100.668C101.03 246.489 101.387 246.571 101.712 246.729C102.038 246.887 102.324 247.118 102.547 247.403C102.766 247.677 102.921 247.997 102.998 248.34C103.076 248.682 103.075 249.038 102.995 249.38L102.951 249.571L102.75 249.596Z" fill="#3F3D56"/>
<path d="M23.5473 71.7556C22.9531 71.7563 22.3789 71.54 21.9319 71.1471L0.822994 52.6514C0.339431 52.219 0.0454062 51.6125 0.0048326 50.9637C-0.035741 50.3149 0.180417 49.6763 0.606313 49.1865C1.03221 48.6968 1.63343 48.3956 2.27933 48.3483C2.92524 48.3011 3.56362 48.5116 4.05576 48.9342L25.1646 67.4298C25.5417 67.7602 25.8093 68.1981 25.9317 68.6852C26.0541 69.1723 26.0255 69.6853 25.8497 70.1556C25.6738 70.6259 25.3592 71.0312 24.9477 71.3172C24.5363 71.6032 24.0477 71.7563 23.5473 71.7561V71.7556Z" fill="#E4E4E4"/>
<path d="M150.42 71.7556C149.92 71.7558 149.431 71.6027 149.02 71.3167C148.608 71.0307 148.293 70.6255 148.118 70.1552C147.942 69.6848 147.913 69.1719 148.036 68.6848C148.158 68.1977 148.426 67.7597 148.803 67.4294L169.911 48.9322C170.403 48.5097 171.042 48.2991 171.687 48.3464C172.333 48.3936 172.935 48.6949 173.36 49.1846C173.786 49.6743 174.002 50.313 173.962 50.9618C173.921 51.6106 173.627 52.2171 173.144 52.6495L152.035 71.1452C151.588 71.5387 151.014 71.7556 150.42 71.7556Z" fill="#E4E4E4"/>
<path d="M109.748 233.045H67.7158C67.0639 233.045 66.4387 232.785 65.9777 232.322C65.5168 231.86 65.2578 231.232 65.2578 230.578C65.2578 229.923 65.5168 229.296 65.9777 228.833C66.4387 228.37 67.0639 228.11 67.7158 228.11H109.748C110.4 228.11 111.025 228.37 111.486 228.833C111.947 229.296 112.206 229.923 112.206 230.578C112.206 231.232 111.947 231.86 111.486 232.322C111.025 232.785 110.4 233.045 109.748 233.045Z" fill="#B0C4CD"/>
<path d="M87.6992 168.588L78.9585 221.325H73.9688L82.8471 167.779C82.954 167.133 83.3121 166.556 83.8427 166.175C84.3733 165.795 85.0328 165.641 85.6762 165.748C86.3197 165.856 86.8943 166.215 87.2737 166.748C87.653 167.28 87.8061 167.942 87.6992 168.588Z" fill="#E6E6E6"/>
<path d="M104.498 221.325H99.5083L90.7676 168.588C90.6607 167.942 90.8138 167.28 91.1932 166.748C91.5726 166.215 92.1472 165.856 92.7906 165.748C93.434 165.641 94.0936 165.795 94.6241 166.175C95.1547 166.556 95.5128 167.133 95.6198 167.779L104.498 221.325Z" fill="#E6E6E6"/>
<path d="M72.7578 166.827C72.7578 166.172 73.0168 165.545 73.4777 165.082C73.9387 164.619 74.5639 164.359 75.2158 164.359H102.25C102.902 164.359 103.528 164.619 103.989 165.082C104.45 165.545 104.708 166.172 104.708 166.827C104.708 167.481 104.45 168.109 103.989 168.571C103.528 169.034 102.902 169.294 102.25 169.294H75.2158C74.5639 169.294 73.9387 169.034 73.4777 168.571C73.0168 168.109 72.7578 167.481 72.7578 166.827Z" fill="#E6E6E6"/>
<path d="M88.7354 47.1262C88.0834 47.1262 87.4582 46.8663 86.9973 46.4036C86.5363 45.9408 86.2773 45.3133 86.2773 44.6589V2.46734C86.2773 1.81296 86.5363 1.18538 86.9973 0.722668C87.4582 0.259951 88.0834 0 88.7354 0C89.3873 0 90.0125 0.259951 90.4734 0.722668C90.9344 1.18538 91.1934 1.81296 91.1934 2.46734V44.6589C91.1934 45.3133 90.9344 45.9408 90.4734 46.4036C90.0125 46.8663 89.3873 47.1262 88.7354 47.1262Z" fill="#E4E4E4"/>
<path d="M289.663 376.097H283.637L280.77 352.762H289.664L289.663 376.097Z" fill="#FEB8B8"/>
<path d="M291.199 381.96H271.766V381.714C271.766 379.7 272.563 377.769 273.981 376.345C275.399 374.921 277.323 374.121 279.329 374.121H291.199L291.199 381.96Z" fill="#2F2E41"/>
<path d="M243.873 375.897L238.051 374.335L241.286 351.048L249.879 353.354L243.873 375.897Z" fill="#FEB8B8"/>
<path d="M243.852 381.961L225.078 376.922L225.142 376.683C225.66 374.738 226.927 373.079 228.663 372.071C230.4 371.063 232.465 370.789 234.403 371.309L245.869 374.387L243.852 381.961Z" fill="#2F2E41"/>
<path d="M293.128 245.321L298.176 251.209L291.648 370.846H277.701L270.671 278.789L248.869 373.315L234.371 369.746L247.554 249.685L293.128 245.321Z" fill="#2F2E41"/>
<path d="M250.924 168.081L264.81 161.088L286.163 161.465L304.539 170.903L294.084 223.319L298.6 250.647C281.145 255.115 262.869 255.266 245.343 251.087L245.203 251.054C245.203 251.054 255.583 214.085 251.164 202.803L250.924 168.081Z" fill="#E6E6E6"/>
<path d="M291.097 140.147C291.082 135.964 289.414 131.959 286.46 129.01C283.505 126.061 279.506 124.409 275.34 124.417C271.173 124.425 267.18 126.092 264.237 129.052C261.294 132.012 259.641 136.023 259.641 140.205C259.641 144.387 261.294 148.399 264.237 151.358C267.18 154.318 271.173 155.985 275.34 155.993C279.506 156.001 283.505 154.349 286.46 151.4C289.414 148.451 291.082 144.446 291.097 140.263V140.147Z" fill="#FEB8B8"/>
<path d="M249.009 206.295C249.308 207.066 249.771 207.761 250.367 208.333C250.962 208.904 251.676 209.337 252.456 209.602C253.236 209.867 254.065 209.956 254.884 209.865C255.702 209.773 256.491 209.503 257.194 209.072L285.389 224.033L286.302 217.139L258.905 200.922C258.106 199.784 256.919 198.98 255.569 198.662C254.219 198.344 252.799 198.534 251.579 199.197C250.359 199.859 249.424 200.947 248.95 202.256C248.476 203.564 248.497 205.001 249.009 206.295H249.009Z" fill="#FEB8B8"/>
<path d="M286.581 207.488C286.122 208.174 285.518 208.751 284.812 209.177C284.107 209.604 283.317 209.87 282.497 209.957C281.678 210.044 280.85 209.95 280.071 209.681C279.292 209.412 278.581 208.974 277.989 208.4L247.215 216.806L247.483 208.053L278.095 200.072C279.123 199.137 280.457 198.613 281.844 198.599C283.23 198.585 284.574 199.082 285.62 199.997C286.666 200.911 287.342 202.179 287.519 203.559C287.696 204.94 287.362 206.338 286.581 207.489L286.581 207.488Z" fill="#FEB8B8"/>
<path d="M298.539 171.283L304.539 170.905C304.539 170.905 311.564 180.21 307.668 190.306C307.668 190.306 308.342 226.576 292.784 225.086C277.225 223.596 272.309 223.596 272.309 223.596L276.979 210.519L287.427 207.281C287.427 207.281 284.207 193.023 290.302 187.091L298.539 171.283Z" fill="#E6E6E6"/>
<path d="M255.213 170.965L254.365 166.601C254.365 166.601 241.858 166.305 239.385 185.328C239.385 185.328 228.139 213.798 239.162 217.464C250.185 221.13 262.311 217.464 262.311 217.464L261.398 204.908L249.271 202.424C249.271 202.424 255.536 194.287 252.124 187.229L255.213 170.965Z" fill="#E6E6E6"/>
<path d="M280.813 147.9C279.656 147.444 278.375 147.468 277.153 147.243C272.78 146.434 269.409 141.96 269.824 137.517C269.928 136.941 269.938 136.352 269.852 135.773C269.549 134.506 268.145 133.825 266.856 133.673C265.566 133.522 264.234 133.716 262.98 133.379C261.043 132.858 259.596 131.085 259.105 129.134C258.688 127.149 258.906 125.083 259.728 123.23L260.33 124.489C260.956 123.823 261.383 122.993 261.562 122.095C262.088 122.123 262.597 122.287 263.042 122.569C263.487 122.852 263.852 123.245 264.102 123.71C264.879 124.058 264.784 122.276 265.559 121.923C265.908 121.838 266.276 121.886 266.591 122.058C268.299 122.633 270.109 121.77 271.801 121.152C274.731 120.085 277.871 119.725 280.965 120.101C283.022 120.353 285.097 120.963 286.698 122.282C287.962 123.431 288.99 124.818 289.724 126.364C291.699 130.07 293.186 134.157 293.146 138.36C293.106 141.801 292.051 145.153 290.115 147.993C289.107 149.466 285.848 154.577 283.683 154.014C280.962 153.309 284.07 149.182 280.813 147.9Z" fill="#2F2E41"/>
</g>
<defs>
<clipPath id="clip0_792_686">
<rect width="323" height="383" fill="white"/>
</clipPath>
</defs>
</svg>
