<svg width="56" height="56" viewBox="0 0 56 56" fill="none" xmlns="http://www.w3.org/2000/svg">
<path d="M54.6 31.1984C53.7091 31.1984 53.0727 31.6473 52.8182 32.3207H29.6546V26.3727H42.3818C42.6364 27.0461 43.4 27.495 44.1636 27.495C45.1818 27.495 46.0727 26.7094 46.0727 25.8116C46.0727 24.9138 45.1818 24.1282 44.1636 24.1282C43.2727 24.1282 42.6364 24.5771 42.3818 25.2505H29.6546V19.7515H50.2727L50.4 16.6093C51.2909 16.497 51.9273 15.7115 51.9273 14.9259C51.9273 14.0281 51.0364 13.2425 50.0182 13.2425C49 13.2425 48.1091 14.0281 48.1091 14.9259C48.1091 15.5992 48.4909 16.1604 49.1273 16.3848V18.6293H29.6546V12.6814H36.5273V5.83568C37.2909 5.61123 37.8 4.93793 37.8 4.26458C37.8 3.36679 36.9091 2.58122 35.8909 2.58122C34.8727 2.58122 33.9818 3.36679 33.9818 4.26458C33.9818 5.05015 34.4909 5.61123 35.2546 5.83568V11.5592H29.6546V6.06014C29.6546 2.69341 26.6 0 22.7818 0C22.5273 0 22.2727 0 22.1455 0C22.0182 0 22.0182 0 21.8909 0C21.7636 0 21.7636 0 21.6364 0C21.3818 0 21.1273 0.112265 20.8727 0.112265C20.7455 0.112265 20.4909 0.224462 20.3636 0.224462C20.2364 0.224462 20.1091 0.336701 19.8545 0.448925C19.6 0.561149 19.3455 0.67336 19.0909 0.785584C18.9636 0.897809 18.8364 0.897822 18.7091 1.01005C18.4545 1.12227 18.3273 1.34675 18.0727 1.45897C17.9455 1.5712 17.8182 1.68341 17.6909 1.79563C17.5636 1.90786 17.4364 2.02007 17.3091 2.13229C17.1818 2.24452 17.0546 2.46896 16.9273 2.69341C16.8 2.80564 16.8 2.91785 16.6727 3.03007C16.5454 3.25452 16.4182 3.47901 16.2909 3.70346C16.2909 3.81568 16.1636 3.92789 16.1636 4.04012C16.0364 4.26457 16.0364 4.48899 15.9091 4.71344C15.9091 4.82566 15.9091 4.93791 15.7818 5.16236C15.7818 5.38681 15.7818 5.61123 15.6546 5.83568C15.6546 5.94791 15.6546 5.94792 15.6546 6.06014C15.6546 6.28459 15.6546 6.39682 15.6546 6.62127V6.73346V6.84573C14.7636 6.95795 13.8727 7.07018 12.9818 7.40685C12.8545 7.40685 12.7273 7.51905 12.6 7.51905C12.3455 7.63127 12.0909 7.63129 11.8364 7.74351C11.8364 7.74351 11.8364 7.74351 11.7091 7.74351C7.38182 9.42688 4.45455 13.2425 4.45455 17.7315C4.45455 18.7415 4.58182 19.6393 4.83637 20.6493C1.78182 23.1183 0 26.5972 0 30.3006C0 34.2284 2.03637 37.9318 5.47273 40.4008C5.34546 40.8497 5.21817 41.1864 5.21817 41.6353C5.21817 41.8597 5.09091 42.0842 5.09091 42.3086C5.09091 42.4208 5.09091 42.5331 5.09091 42.5331C5.09091 46.5731 8.39999 49.9399 12.8545 50.7254C13.8727 53.8677 17.0545 56 20.8727 56C25.2 56 28.7637 53.0821 29.1455 49.3787C29.1455 49.2665 29.1455 49.2666 29.1455 49.1543C29.1455 49.0421 29.1455 48.8176 29.1455 48.7054V46.1243H37.0364V50.1643C36.2727 50.3888 35.7636 51.0621 35.7636 51.7355C35.7636 52.6333 36.6545 53.4188 37.6727 53.4188C38.6909 53.4188 39.5818 52.6333 39.5818 51.7355C39.5818 50.9499 39.0727 50.3888 38.3091 50.1643V45.002H29.1455V39.1663H44.1636V42.4209C43.4 42.6453 42.8909 43.3186 42.8909 43.992C42.8909 44.8898 43.7818 45.6753 44.8 45.6753C45.8182 45.6753 46.7091 44.8898 46.7091 43.992C46.7091 43.2064 46.2 42.6453 45.4364 42.4209V38.0441H29.1455V33.5551H52.3091C52.5636 34.2285 53.3273 34.6774 54.0909 34.6774C55.1091 34.6774 56 33.8918 56 32.994C56 32.0962 55.6182 31.1984 54.6 31.1984ZM14.5091 50.0521L14.3818 49.7155H14C9.92728 49.2666 7 46.2364 7 42.6453C7 42.3086 6.99999 41.972 7.12726 41.6353C7.25454 41.0742 7.63636 40.513 8.14545 39.9519C8.90909 39.2786 9.8 38.9419 10.8182 38.9419C11.8364 38.9419 12.7273 39.2785 13.4909 39.8397C14.2545 40.513 14.6364 41.2986 14.6364 42.1964H15.9091C15.9091 40.9619 15.4 39.9519 14.3818 39.0541C13.3636 38.1563 12.2182 37.8196 10.8182 37.8196C9.41819 37.8196 8.27273 38.2685 7.25454 39.1663C7.12727 39.2786 7.12728 39.3908 7 39.503C3.81818 37.2585 1.90909 33.8918 1.90909 30.3006C1.90909 27.0461 3.43637 24.016 6.1091 21.7716C6.87273 23.5671 8.27273 25.1383 9.92728 26.3727C8.27273 26.9339 7 28.3928 7 30.0762C7 32.3207 9.03637 34.004 11.4545 34.004V32.8818C9.67273 32.8818 8.27273 31.6473 8.27273 30.0762C8.27273 28.505 9.67272 27.2706 11.3273 27.2706C13.1091 28.1684 15.0182 28.7295 17.1818 28.7295V27.6072C12.2182 27.495 7.89092 24.4649 6.74546 20.0882C6.49092 18.9659 6.36363 17.9559 6.4909 16.9459C6.87272 15.8237 8.14545 15.1503 9.41818 15.1503C11.2 15.1503 12.6 16.3848 12.6 17.9559H13.8727C13.8727 15.8236 11.8364 14.028 9.41818 14.028C8.52727 14.028 7.76364 14.2525 7 14.7014C7.76364 12.6814 9.41817 10.8858 11.5818 9.65134C11.7091 9.53911 11.8364 9.42688 12.0909 9.42688H12.2182C13.4909 8.86575 14.8909 8.41686 16.4182 8.30463C16.8 9.20243 17.3091 9.98797 18.2 10.6613C17.8182 11.3347 17.5636 12.008 17.5636 12.7936C17.5636 14.0281 18.0727 15.1503 19.0909 15.9359L19.9818 15.1503C19.2182 14.4769 18.8364 13.6914 18.8364 12.7936C18.8364 11.8958 19.2182 10.998 19.9818 10.4369C21.3818 9.20245 23.9273 9.20245 25.3273 10.4369L26.2182 9.65134C24.3091 7.96797 20.8727 7.96797 18.9636 9.65134L18.8364 9.76354C18.2 9.09019 17.6909 8.41684 17.4364 7.51905C17.4364 7.40682 17.4364 7.40681 17.4364 7.29459V7.18239C17.4364 6.95794 17.3091 6.62125 17.3091 6.3968C17.3091 5.72346 17.4364 5.0501 17.6909 4.48898C17.8182 4.26453 17.9455 3.92791 18.2 3.70346C18.2 3.70346 18.2 3.70342 18.2 3.59119C18.3273 3.36675 18.5818 3.14232 18.8364 2.91788C18.8364 2.91788 18.9636 2.91783 18.9636 2.80561C19.2182 2.58116 19.4727 2.46894 19.7273 2.24449C19.7273 2.24449 19.8545 2.24452 19.8545 2.13229C20.1091 2.02007 20.3636 1.90786 20.6182 1.79563C20.6182 1.79563 20.7455 1.79559 20.7455 1.68337C21 1.57114 21.2546 1.45897 21.6364 1.45897C21.7636 1.45897 21.7636 1.45897 21.8909 1.45897C22.2727 1.34675 22.5273 1.34671 22.9091 1.34671C25.9636 1.34671 28.5091 3.59122 28.5091 6.28461V22.3327C28.5091 24.2405 26.7273 25.8116 24.5636 25.8116C22.4 25.8116 20.6182 24.2405 20.6182 22.3327H19.3455C19.3455 24.8016 21.6364 26.9339 24.5636 26.9339C26.0909 26.9339 27.4909 26.2605 28.5091 25.3628V44.7776C27.7455 43.6553 26.6 42.7575 25.2 42.0841C25.2 41.9719 25.2 41.8597 25.2 41.7475C25.2 38.8297 22.5273 36.5852 19.3455 36.5852V37.7074C21.8909 37.7074 23.9273 39.503 23.9273 41.7475C23.9273 43.992 21.8909 45.7876 19.3455 45.7876V46.9098C22.0182 46.9098 24.3091 45.3387 24.9455 43.2064C27.1091 44.3286 28.5091 46.3487 28.5091 48.5932C28.5091 51.8477 25.5818 54.5411 21.8909 54.7656C21.7636 54.7656 21.6364 54.7656 21.5091 54.7656C18.0727 54.8778 15.1455 52.97 14.5091 50.0521Z" fill="#010101"/>
</svg>
