<svg width="392" height="389" viewBox="0 0 392 389" fill="none" xmlns="http://www.w3.org/2000/svg">
<path d="M69.9088 199.985C0.266066 239.881 0.273909 304.564 69.9088 344.468C139.544 384.371 252.448 384.332 322.09 344.468C391.733 304.603 391.725 239.881 322.09 199.985C252.455 160.09 139.552 160.082 69.9088 199.985Z" fill="#FAFAFA"/>
<path d="M170.407 361.14C188.987 361.14 204.049 352.512 204.049 341.869C204.049 331.226 188.987 322.598 170.407 322.598C151.827 322.598 136.766 331.226 136.766 341.869C136.766 352.512 151.827 361.14 170.407 361.14Z" fill="#E0E0E0"/>
<path d="M226.759 347.283C246.686 347.283 262.839 338.028 262.839 326.612C262.839 315.195 246.686 305.94 226.759 305.94C206.833 305.94 190.68 315.195 190.68 326.612C190.68 338.028 206.833 347.283 226.759 347.283Z" fill="#E0E0E0"/>
<path d="M58.328 317.673L51.0211 321.859C51.0391 314.724 50.2502 307.61 48.6691 300.65C43.824 278.306 33.9927 274.424 29.2024 265.726C24.1691 256.577 30.6371 251.092 36.7367 252.033C42.2247 252.866 50.8487 259.518 55.1371 273.249C60.8682 291.353 59.4648 309.419 58.328 317.673Z" fill="#B0C4CD"/>
<path opacity="0.5" d="M58.328 317.673L51.0211 321.859C51.0391 314.724 50.2502 307.61 48.6691 300.65C43.824 278.306 33.9927 274.424 29.2024 265.726C24.1691 256.577 30.6371 251.092 36.7367 252.033C42.2247 252.866 50.8487 259.518 55.1371 273.249C60.8682 291.353 59.4648 309.419 58.328 317.673Z" fill="white"/>
<path d="M54.0341 315.907C53.9841 315.899 53.9361 315.882 53.8929 315.856C53.8497 315.83 53.8121 315.796 53.7822 315.755C53.7524 315.715 53.7308 315.669 53.7189 315.62C53.707 315.571 53.7048 315.521 53.7126 315.471C57.5856 288.576 45.4963 265.399 35.6806 257.541C35.6415 257.51 35.609 257.471 35.585 257.426C35.5611 257.382 35.5461 257.334 35.541 257.284C35.5359 257.234 35.5408 257.184 35.5553 257.136C35.5699 257.088 35.5938 257.043 35.6258 257.004C35.6557 256.964 35.6936 256.931 35.7371 256.906C35.7806 256.881 35.8288 256.865 35.8788 256.859C35.9287 256.853 35.9793 256.857 36.0275 256.872C36.0757 256.886 36.1204 256.91 36.1589 256.942C46.1235 264.924 58.3853 288.389 54.4731 315.58C54.4576 315.681 54.4029 315.771 54.3208 315.832C54.2387 315.893 54.1358 315.92 54.0341 315.907Z" fill="white"/>
<path d="M54.6692 319.758L51.0236 321.843L50.4278 322.185C49.2282 316.778 46.0217 311.138 39.9457 305.069C32.8191 297.982 22.8858 291.361 24.642 285.409C26.3982 279.458 34.4106 281.029 39.9457 284.553C45.1436 287.907 56.2137 300.129 54.6692 319.758Z" fill="#B0C4CD"/>
<path opacity="0.65" d="M54.6692 319.758L51.0236 321.843L50.4278 322.185C49.2282 316.778 46.0217 311.138 39.9457 305.069C32.8191 297.982 22.8858 291.361 24.642 285.409C26.3982 279.458 34.4106 281.029 39.9457 284.553C45.1436 287.907 56.2137 300.129 54.6692 319.758Z" fill="white"/>
<path d="M52.7347 318.101C52.6458 318.087 52.5646 318.043 52.5047 317.976C52.4447 317.91 52.4096 317.825 52.4054 317.735C51.8958 304.556 37.3212 287.495 30.375 284.694C30.3227 284.679 30.2741 284.654 30.2323 284.62C30.1906 284.585 30.1566 284.542 30.1328 284.494C30.1089 284.446 30.0957 284.393 30.094 284.339C30.0922 284.285 30.102 284.231 30.1226 284.182C30.1432 284.132 30.1743 284.087 30.2137 284.05C30.2531 284.013 30.3 283.984 30.3513 283.967C30.4025 283.949 30.457 283.942 30.5111 283.947C30.5652 283.951 30.6177 283.967 30.6651 283.994C37.9406 286.927 52.6171 304.012 53.1659 317.704C53.1691 317.755 53.1619 317.805 53.145 317.853C53.128 317.9 53.1015 317.944 53.067 317.981C53.0326 318.018 52.991 318.048 52.9446 318.068C52.8983 318.089 52.8482 318.1 52.7974 318.101H52.7347Z" fill="white"/>
<path d="M259.805 55.9463L263.983 74.5094L281.169 84.4911L276.896 65.7335L259.805 55.9463Z" fill="#B0C4CD"/>
<path opacity="0.2" d="M259.805 55.9463L263.983 74.5094L281.169 84.4911L276.896 65.7335L259.805 55.9463Z" fill="black"/>
<path d="M222.758 147.517L276.893 65.7337L259.802 55.9464L324.78 37.749L336.61 99.9501L319.566 90.1862L265.431 171.962L222.758 147.517Z" fill="#B0C4CD"/>
<path opacity="0.2" d="M222.758 147.517L276.893 65.7337L259.802 55.9464L324.78 37.749L336.61 99.9501L319.566 90.1862L265.431 171.962L222.758 147.517Z" fill="white"/>
<path d="M319.565 90.1865L265.453 171.962L275.034 182.776L323.9 108.967L340.905 118.716L336.609 99.9504L319.565 90.1865Z" fill="#B0C4CD"/>
<path opacity="0.2" d="M319.565 90.1865L265.453 171.962L275.034 182.776L323.9 108.967L340.905 118.716L336.609 99.9504L319.565 90.1865Z" fill="black"/>
<path d="M232.338 158.401L222.758 147.595L265.454 171.962L275.035 182.776L232.338 158.401Z" fill="#B0C4CD"/>
<path opacity="0.4" d="M232.338 158.401L222.758 147.595L265.454 171.962L275.035 182.776L232.338 158.401Z" fill="black"/>
<path opacity="0.2" d="M323.898 108.967L319.562 90.1865L336.607 99.9504L340.903 118.716L323.898 108.967Z" fill="black"/>
<path d="M81.7434 357.973L145.004 262.645L102.331 238.2L39.0703 333.529L81.7434 357.973Z" fill="#B0C4CD"/>
<path opacity="0.2" d="M81.7434 357.973L145.004 262.645L102.331 238.2L39.0703 333.529L81.7434 357.973Z" fill="white"/>
<path d="M145.003 262.645L81.7422 357.973L107.34 343.308L153.478 274.058L145.003 262.645Z" fill="#B0C4CD"/>
<path opacity="0.2" d="M145.003 262.645L81.7422 357.973L107.34 343.308L153.478 274.058L145.003 262.645Z" fill="black"/>
<path d="M257.874 307.791C257.874 312.288 257.874 318.372 257.874 322.239C257.874 323.079 257.874 324.121 257.874 325.498C257.255 329.544 254.236 333.504 248.827 336.6C236.596 343.602 216.769 343.602 204.539 336.6C198.267 332.991 195.178 328.214 195.382 323.483C195.382 323.079 195.46 322.659 195.507 322.223C195.507 322.223 195.507 322.223 195.507 322.176C196.04 317.578 196.416 312.973 196.675 308.655C197.091 301.801 197.036 298.782 196.981 295.094C196.91 290.543 195.005 286.972 190.168 282.934C185.331 278.896 175.711 265.095 175.711 265.095L239.505 232.551L257.639 289.563C257.639 289.563 257.874 303.294 257.874 307.791Z" fill="#FFA8A7"/>
<path d="M239.996 220.741C239.996 220.741 238.797 225.534 233.097 219.185C227.397 212.837 218.068 203.143 208.237 193.815C203.533 189.341 184.654 174.279 171.992 162.889C167.955 158.758 162.224 155.887 158.28 158.875C154.337 161.862 154.36 169.261 156.814 172.918C159.009 176.162 163.713 180.659 167.304 183.888C167.304 184.082 167.265 184.277 167.241 184.471C166.559 190.361 165.344 196.981 164.772 204.116C164.427 208.371 159.284 213.724 159.331 218.12C160.852 224.344 169.154 231.011 175.011 235.664C180.867 240.316 183.439 242.206 183.376 243.677C183.274 245.925 173.764 237.741 169.538 234.862C169.773 248.22 161.165 249.831 161.165 249.831C162.459 252.398 169.789 258.062 180.224 271.311C184.34 276.547 226.237 242.129 226.237 242.129L236.186 235.788L243.187 224.297L239.996 220.741Z" fill="#FFA8A7"/>
<path d="M236.527 232.528C232.607 237.429 217.154 253.067 229.306 273.801C228.468 273.028 227.706 272.176 227.033 271.257C225.293 268.959 223.916 266.412 222.948 263.703C222.909 263.601 222.878 263.508 222.846 263.407C220.087 255.518 221.027 247.481 226.178 240.697C230.232 235.368 237.609 230.186 238.597 224.437C238.597 224.227 238.652 224.017 238.667 223.814C238.84 225.619 239.044 229.401 236.527 232.528Z" fill="#F28F8F"/>
<path opacity="0.5" d="M156.02 161.823C154.452 165.34 154.93 170.179 156.804 172.918C158.999 176.162 163.703 180.659 167.294 183.887L167.247 184.354C168.815 185.7 170.532 187.132 172.397 188.765C176.898 192.694 182.848 197.767 187.34 201.704C189.591 203.672 200.276 212.207 204.157 215.638C198.191 209.141 184.785 197.354 178.042 190.742C172.954 185.77 165.443 178.83 163.005 176.061C160.567 173.291 159.132 171.393 158.301 170.366C157.353 169.172 156.661 167.798 156.268 166.329C155.876 164.86 155.791 163.326 156.02 161.823Z" fill="#F28F8F"/>
<path d="M167.475 255.573C168.654 255.414 169.787 255.018 170.806 254.408C171.824 253.798 172.705 252.987 173.394 252.025C174.962 249.434 175.268 247.419 174.845 243.374C174.631 241.483 174.245 239.616 173.692 237.795C172.297 236.799 170.839 235.726 169.545 234.847C169.78 248.205 161.172 249.815 161.172 249.815C161.76 250.975 163.587 252.78 166.378 255.635C166.746 255.627 167.107 255.604 167.475 255.573Z" fill="#F28F8F"/>
<path d="M160.587 201.595C160.25 201.898 165.017 206.457 165.519 206.73C167.283 207.71 170.654 206.496 172.112 205.283C173.023 204.495 173.73 203.503 174.174 202.388C175.742 198.654 174.958 194.383 174.174 190.407C174.154 190.089 174.067 189.779 173.917 189.497C173.767 189.215 173.558 188.969 173.304 188.773C173.21 190.858 171.36 191.761 169.995 193.014L166.075 196.585L160.587 201.595Z" fill="#F28F8F"/>
<path d="M171.421 204.045L196.368 229.034L167.242 204.807L171.421 204.045Z" fill="#F28F8F"/>
<path d="M168.008 225.393C169.216 224.997 170.318 224.334 171.23 223.454C172.143 222.574 172.843 221.5 173.276 220.313C173.99 218.283 173.872 216.073 173.731 213.926C173.709 212.097 173.396 210.283 172.806 208.55L161.14 212.486C160.121 214.424 159.298 216.376 159.329 218.104C159.948 220.632 161.571 223.192 163.853 225.65C165.239 225.885 166.662 225.797 168.008 225.393Z" fill="#F28F8F"/>
<path d="M164.906 183.708C170.033 183.241 172.746 185.474 173.875 190.041C174.342 192.637 174.342 195.295 173.875 197.891C173.389 201.283 170.159 205.352 165.988 204.745H165.784C159.042 203.656 158.281 200.077 158.281 194.266C158.281 188.454 160.343 184.121 164.906 183.708Z" fill="#FFA8A7"/>
<path opacity="0.5" d="M170.958 185.055C171.335 185.374 173.506 187.49 173.53 193.34C173.53 199.736 170.315 201.058 166.74 201.634C163.165 202.21 158.367 199.992 158.367 196.834C158.673 201.136 160.108 203.836 165.792 204.754H165.996C170.166 205.36 173.396 201.292 173.883 197.899C174.349 195.303 174.349 192.646 173.883 190.049C173.514 188.101 172.481 186.338 170.958 185.055Z" fill="#F28F8F"/>
<path d="M165.021 204.1C169.725 203.672 172.163 205.71 173.214 209.88C173.636 212.253 173.636 214.681 173.214 217.054C172.775 220.166 169.811 223.869 166.009 223.278H165.821C159.667 222.282 158.969 218.999 158.969 213.708C158.969 208.418 160.85 204.473 165.021 204.1Z" fill="#FFA8A7"/>
<path opacity="0.5" d="M171.551 206.302C172.21 207.274 172.688 209.67 172.335 213.304C171.826 218.057 170.767 220.36 166.62 220.664C162.284 220.967 159.619 218.975 159.156 216.883C159.572 220.337 161.038 222.523 165.859 223.301H166.048C169.85 223.861 172.814 220.189 173.253 217.077C173.675 214.704 173.675 212.277 173.253 209.904C172.955 208.595 172.375 207.366 171.551 206.302Z" fill="#F28F8F"/>
<path d="M165.273 232.854C170.134 232.419 173.771 234.706 173.771 238.861V246.306C173.776 247.241 173.578 248.167 173.19 249.02C172.803 249.872 172.235 250.632 171.526 251.248C170.817 251.864 169.982 252.322 169.079 252.59C168.176 252.858 167.226 252.931 166.292 252.802H166.104C159.714 251.768 159.793 245.979 159.714 242.937C159.636 239.895 160.945 233.251 165.273 232.854Z" fill="#FFA8A7"/>
<path opacity="0.5" d="M171.408 234.178C173.532 236.379 172.701 240.869 172.544 245.295C172.427 248.368 170.82 250.913 166.586 250.913C162.352 250.913 160.455 248.353 159.883 245.84C160.236 248.742 161.451 252.017 166.108 252.772H166.296C167.23 252.9 168.18 252.828 169.083 252.56C169.986 252.291 170.821 251.834 171.53 251.218C172.239 250.602 172.807 249.842 173.194 248.989C173.581 248.136 173.78 247.211 173.775 246.276V238.846C173.803 237.934 173.601 237.029 173.188 236.214C172.774 235.399 172.162 234.699 171.408 234.178Z" fill="#F28F8F"/>
<path d="M111.383 231.392L215.961 152.705L258.665 177.158L154.056 255.845L111.383 231.392Z" fill="#B0C4CD"/>
<path d="M258.664 177.157L268.244 187.964L162.53 267.25L154.055 255.844L258.664 177.157Z" fill="#B0C4CD"/>
<path opacity="0.2" d="M258.664 177.157L268.244 187.964L162.53 267.25L154.055 255.844L258.664 177.157Z" fill="black"/>
<path d="M111.383 231.392L119.858 242.805L162.531 267.25L154.056 255.844L111.383 231.392Z" fill="#B0C4CD"/>
<path opacity="0.4" d="M111.383 231.392L119.858 242.805L162.531 267.25L154.056 255.844L111.383 231.392Z" fill="black"/>
<path d="M257.646 289.548C257.671 276.636 258.554 263.74 260.288 250.944C262.131 238.177 261.77 227.253 261.214 224.165C260.657 221.076 260.484 216.595 255.686 210.9C253.428 208.216 248.466 204.31 244.326 199.487C240.187 194.663 236.259 189.217 234.048 186.261C231.837 183.304 226.357 188.058 226.623 197.479C226.843 205.174 232.111 211.904 234.189 214.782C236.69 218.291 238.462 221.683 238.658 223.799C238.83 225.589 239.034 229.385 236.51 232.528C232.59 237.422 217.145 253.06 229.297 273.762V292.784L257.646 289.548Z" fill="#FFA8A7"/>
<path d="M235.05 192.025C235.05 192.025 239.754 198.366 241.267 199.182C242.781 199.999 243.204 198.14 243.204 198.14C241.04 195.121 237.002 189.629 234.062 186.275C234.903 188.07 235.244 190.055 235.05 192.025Z" fill="#FFA8A7"/>
<path opacity="0.6" d="M235.05 192.025C235.05 192.025 239.754 198.366 241.267 199.182C242.781 199.999 243.204 198.14 243.204 198.14C241.04 195.121 237.002 189.629 234.062 186.275C234.903 188.07 235.244 190.055 235.05 192.025Z" fill="white"/>
<path d="M243.201 198.14C242.99 197.802 242.757 197.477 242.503 197.168C242.576 197.575 242.532 197.994 242.377 198.378C242.222 198.762 241.961 199.095 241.625 199.339C242.856 199.696 243.201 198.14 243.201 198.14Z" fill="#F28F8F"/>
<path opacity="0.2" d="M176.798 221.006C180.983 217.593 185.631 214.78 190.604 212.651C196.963 209.788 204.599 207.259 209.906 204.147C216.798 200.102 219.432 195.231 218.93 190.33C218.64 187.552 216.978 184.471 210.612 182.425C208.752 181.82 206.82 181.459 204.865 181.352C202.126 181.255 199.39 181.634 196.782 182.472C185.101 185.981 180.138 191.372 176.218 196.608C172.298 201.844 167.531 204.886 158.97 209.834C155.309 211.943 151.381 214.012 147.916 216.152L147.837 216.206C146.082 217.179 144.395 218.268 142.788 219.466C140.593 221.325 138.664 223.247 137.873 225.278C137.081 227.308 137.473 229.463 139.809 231.502C140.582 232.186 141.514 232.67 142.522 232.91C143.806 233.215 145.121 233.377 146.442 233.392C149.038 233.478 151.637 233.274 154.188 232.785C156.205 232.382 158.185 231.812 160.107 231.081C166.264 228.803 171.928 225.384 176.798 221.006Z" fill="black"/>
<path d="M140.961 117.75C140.318 119.438 138.452 123.017 138.57 123.468C138.907 124.585 138.945 125.77 138.679 126.907C138.515 127.77 130.988 130.703 130.988 130.703L130.808 129.521C130.685 128.73 130.788 127.922 131.106 127.187C132.543 123.985 133.619 120.634 134.313 117.197L140.961 117.75Z" fill="#FFA8A7"/>
<path d="M138.77 126.145L130.812 129.7L130.961 130.704C130.961 130.704 138.488 127.771 138.652 126.907C138.77 126.627 138.77 126.386 138.77 126.145Z" fill="#F28F8F"/>
<path d="M114.661 141.331L112.27 165.713C112.152 166.896 112.928 167.658 113.9 168.358L116.339 170.093C116.608 170.325 116.925 170.498 117.267 170.598C117.609 170.699 117.969 170.726 118.322 170.677C118.818 170.601 119.301 170.457 119.757 170.249H119.812L119.961 170.179L147.855 157.599C148.855 157.146 149.717 156.44 150.356 155.553C150.994 154.665 151.386 153.627 151.493 152.542L153.665 130.322C153.677 130.045 153.624 129.768 153.508 129.515C153.392 129.262 153.217 129.04 152.998 128.867L148.835 125.919C148.604 125.775 148.342 125.686 148.07 125.659C147.798 125.632 147.523 125.668 147.267 125.763L115.602 140.039C115.351 140.164 115.136 140.349 114.974 140.576C114.811 140.799 114.703 141.058 114.661 141.331Z" fill="#37474F"/>
<path d="M114.661 141.331L112.27 165.713C112.152 166.896 112.928 167.658 113.9 168.359L116.339 170.094C116.608 170.326 116.925 170.498 117.267 170.598C117.609 170.699 117.969 170.726 118.322 170.677C118.818 170.601 119.301 170.457 119.757 170.249C118.675 170.63 117.922 170.016 118.04 168.81L120.29 145.836C120.346 145.43 120.499 145.043 120.737 144.707L114.951 140.6C114.799 140.818 114.7 141.068 114.661 141.331Z" fill="#263238"/>
<path d="M120.293 145.828C120.359 145.413 120.522 145.019 120.768 144.677C121.015 144.335 121.338 144.056 121.713 143.86L151.614 130.377C152.798 129.84 153.668 130.455 153.535 131.738L151.505 152.527C151.397 153.613 151.004 154.652 150.364 155.539C149.724 156.427 148.86 157.132 147.859 157.584L119.956 170.164C118.773 170.701 117.91 170.086 118.036 168.802L120.293 145.828Z" fill="#455A64"/>
<path d="M152.39 131.349C152.385 131.439 152.385 131.53 152.39 131.621L150.352 152.409C150.264 153.291 149.945 154.135 149.426 154.857C148.908 155.58 148.208 156.154 147.396 156.525L119.502 169.105C119.412 169.146 119.317 169.175 119.219 169.191C119.219 169.191 119.219 169.058 119.219 168.918L121.469 145.944C121.503 145.728 121.587 145.524 121.715 145.347C121.843 145.17 122.011 145.025 122.206 144.925L152.1 131.434C152.19 131.393 152.285 131.364 152.383 131.349M152.383 130.182C152.11 130.19 151.843 130.256 151.599 130.376L121.689 143.859C121.314 144.055 120.991 144.335 120.745 144.676C120.498 145.018 120.336 145.412 120.27 145.827L118.043 168.825C117.949 169.79 118.412 170.381 119.157 170.381C119.429 170.371 119.696 170.305 119.941 170.186L147.835 157.606C148.836 157.154 149.7 156.449 150.34 155.562C150.98 154.674 151.373 153.635 151.481 152.549L153.512 131.761C153.613 130.796 153.143 130.205 152.398 130.205L152.383 130.182Z" fill="#37474F"/>
<path d="M150.188 126.876L118.475 141.339C118.028 141.544 117.642 141.861 117.356 142.26C117.07 142.658 116.893 143.124 116.845 143.611L114.383 168.701L114.814 169.012L117.299 143.657C117.342 143.25 117.489 142.86 117.728 142.526C117.967 142.192 118.29 141.925 118.663 141.751L150.619 127.179L150.188 126.876Z" fill="#B0C4CD"/>
<path opacity="0.2" d="M117.354 142.265C117.068 142.661 116.892 143.125 116.845 143.611L114.383 168.701L114.814 169.012L117.299 143.657C117.344 143.251 117.492 142.863 117.73 142.529L117.354 142.265Z" fill="black"/>
<path opacity="0.2" d="M117.736 142.529C117.972 142.193 118.294 141.925 118.669 141.751L150.624 127.179L150.193 126.876L118.48 141.339C118.032 141.545 117.645 141.864 117.359 142.265" fill="black"/>
<path d="M139.22 128.96L138.852 132.734L140.255 133.729L140.749 128.719C140.749 128.462 140.6 128.338 140.365 128.447L139.22 128.96Z" fill="#B0C4CD"/>
<path opacity="0.4" d="M139.22 128.96L138.852 132.734L140.255 133.729L140.749 128.719C140.749 128.462 140.6 128.338 140.365 128.447L139.22 128.96Z" fill="black"/>
<path d="M128.401 131.683L127.797 137.791L129.138 138.748L130.149 138.289L130.643 133.278C130.664 133.138 130.719 133.006 130.802 132.891C130.885 132.776 130.994 132.682 131.121 132.617L138.765 129.147L140.333 128.431C140.568 128.323 140.741 128.431 140.717 128.704L140.223 133.714L141.235 133.263L141.838 127.148V127.07C141.832 126.942 141.798 126.816 141.738 126.702C141.679 126.588 141.595 126.488 141.493 126.409L140.929 126.004C140.812 125.934 140.682 125.89 140.546 125.877C140.41 125.863 140.273 125.88 140.145 125.926L128.879 131.007C128.75 131.072 128.639 131.168 128.555 131.286C128.472 131.404 128.419 131.541 128.401 131.683Z" fill="#B0C4CD"/>
<path opacity="0.2" d="M129.744 132.633L129.141 138.748L130.152 138.289L130.646 133.279C130.667 133.139 130.722 133.006 130.805 132.891C130.888 132.776 130.997 132.682 131.124 132.617L138.768 129.147L140.336 128.432C140.571 128.323 140.744 128.432 140.72 128.704L140.226 133.714L141.238 133.263L141.841 127.148V127.07C141.841 126.868 141.669 126.782 141.457 126.876L130.191 131.956C130.069 132.027 129.965 132.125 129.888 132.242C129.81 132.36 129.761 132.493 129.744 132.633Z" fill="black"/>
<path d="M137.575 128.68C137.739 128.681 137.898 128.733 138.03 128.828C138.135 128.658 138.282 128.517 138.458 128.42C138.634 128.323 138.832 128.274 139.034 128.276C139.122 128.265 139.212 128.282 139.289 128.326C139.367 128.369 139.428 128.436 139.465 128.517C139.477 128.573 139.477 128.632 139.465 128.688C139.413 129.253 139.334 129.814 139.23 130.368C139.21 130.781 139.047 131.175 138.767 131.481C138.638 131.589 138.482 131.662 138.316 131.693C138.15 131.725 137.979 131.713 137.818 131.66C137.699 131.926 137.48 132.136 137.207 132.243C137.144 132.243 136.352 132.337 136.423 132.243C136.268 132.573 136.009 132.844 135.685 133.015C135.361 133.187 134.99 133.249 134.627 133.193C134.627 133.193 134.416 133.799 133.295 133.667C132.936 133.588 132.602 133.424 132.322 133.188C132.042 132.952 131.824 132.652 131.688 132.313C131.75 131.979 131.868 131.839 132.252 131.691C132.44 131.613 132.644 131.535 132.832 131.442C133.077 131.264 133.287 131.042 133.451 130.789C133.633 130.553 133.87 130.366 134.141 130.244C134.279 130.187 134.43 130.169 134.578 130.191C134.726 130.213 134.865 130.274 134.98 130.368C135.029 130.14 135.15 129.933 135.325 129.777C135.462 129.611 135.654 129.498 135.866 129.458C135.929 129.458 136.439 129.536 136.376 129.668C136.511 129.332 136.746 129.044 137.05 128.844C137.208 128.744 137.389 128.688 137.575 128.68Z" fill="#FFA8A7"/>
<path d="M142.088 117.182C141.602 119.414 140.379 121.422 140.92 123.297C141.288 124.565 141.39 124.432 141.241 125.724C141.159 126.302 141.017 126.87 140.818 127.42C140.724 127.685 140.63 127.957 140.528 128.198C140.433 128.485 140.315 128.763 140.175 129.03C139.964 129.359 139.725 129.669 139.461 129.956C139.038 130.489 138.545 130.962 137.995 131.364L137.901 131.419C137.829 131.437 137.753 131.434 137.682 131.411C137.611 131.387 137.548 131.344 137.501 131.287C137.007 130.75 137.376 129.972 137.635 129.435C137.986 128.856 138.195 128.203 138.246 127.529C138.246 127.443 138.246 127.179 138.246 126.751L137.548 126.58C137.548 126.58 135.298 126.043 135.259 124.962C135.22 123.88 136.082 122.845 136.733 121.577C137.384 120.309 137.65 119.484 138.301 116.217L142.088 117.182Z" fill="#FFA8A7"/>
<path d="M140.174 129.062C139.651 129.886 139.009 130.631 138.269 131.272C138.144 131.357 138.042 131.521 137.815 131.536C136.772 131.342 137.266 129.98 137.619 129.366C137.956 128.816 138.17 128.2 138.246 127.561C138.233 128.214 138.055 128.853 137.728 129.42C137.454 129.98 136.944 131.132 137.815 131.388C138.721 130.742 139.515 129.954 140.167 129.054L140.174 129.062Z" fill="#F28F8F"/>
<path d="M138.067 126.572C137.793 126.432 137.495 126.331 137.236 126.168C137.035 126.034 136.862 125.862 136.727 125.662C136.347 125.183 136.16 124.581 136.201 123.974C136.201 123.974 136.201 123.873 136.146 123.974C136.046 124.309 136.021 124.662 136.074 125.007C136.127 125.353 136.256 125.683 136.452 125.973C136.627 126.244 136.863 126.47 137.142 126.634C137.283 126.72 137.436 126.783 137.597 126.821C137.753 126.883 137.927 126.883 138.083 126.821C138.146 126.728 138.114 126.596 138.067 126.572Z" fill="#F28F8F"/>
<path d="M155.444 72.3922C150.591 72.0188 146.71 72.9757 144.193 79.3164C141.363 86.4818 138.564 92.0056 137.137 97.2104C135.71 102.415 133.656 118.901 133.656 118.901C133.656 118.901 137.325 122.075 141.363 120.628L147.478 101.894L155.42 86.7308L155.444 72.3922Z" fill="#E6E6E6"/>
<path d="M210.613 190.68C210.95 190.446 211.452 191.31 211.46 191.855C211.46 193.411 210.441 195.69 208.151 197.713C205.862 199.736 200.366 201.875 198.783 202.669C197.199 203.462 194.972 205.726 193.569 206.831C191.005 208.831 188.653 209.126 187.226 208.737C186.972 208.642 186.74 208.494 186.547 208.303C186.354 208.113 186.203 207.884 186.105 207.632C185.533 206.559 185.509 206.294 185.627 206.24L210.613 190.68Z" fill="#37474F"/>
<path d="M184.245 202.98C184.679 204.385 185.319 205.719 186.142 206.94C186.54 207.193 186.988 207.361 187.455 207.43C187.923 207.5 188.4 207.471 188.855 207.344C190.994 206.829 192.954 205.755 194.531 204.232C195.645 203.179 196.901 202.283 198.263 201.572C199.917 200.794 203.641 199.175 205.256 198.312C206.772 197.504 208.106 196.397 209.176 195.06C209.96 193.986 210.956 192.018 210.854 191.006C210.133 188.906 209.286 187.894 207.828 187.848C206.37 187.801 204.527 188.626 202.128 189.707C201.407 190.034 200.513 190.485 200.121 190.641C198.632 191.263 197.267 191.885 196.201 192.407C195.304 192.912 194.305 193.212 193.277 193.286C192.805 193.323 192.335 193.2 191.944 192.936C191.45 192.57 191.058 191.854 190.603 192.049C190.603 192.049 183.445 197.759 182.85 198.179C182.254 198.6 183.124 199.455 184.245 202.98Z" fill="#455A64"/>
<path d="M200.616 190.252C200.962 190.302 201.293 190.424 201.588 190.61C201.908 190.813 202.203 191.053 202.466 191.325C202.796 191.668 202.341 192.018 201.886 191.668C201.527 191.362 201.133 191.101 200.71 190.89C200.409 190.75 200.07 190.715 199.746 190.789L199.323 190.968C199.268 190.61 200.201 190.221 200.616 190.252Z" fill="#FAFAFA"/>
<path d="M196.827 191.808C196.951 191.718 197.092 191.655 197.242 191.623C197.392 191.591 197.547 191.59 197.697 191.621C198.081 191.699 198.436 191.879 198.724 192.143C199.078 192.453 199.406 192.791 199.704 193.154C199.877 193.395 199.265 193.722 199.038 193.473C198.748 193.157 198.442 192.856 198.121 192.571C197.948 192.43 197.258 191.933 196.796 192.096L196.6 192.189C196.545 192.104 196.6 191.971 196.709 191.909C196.745 191.871 196.784 191.838 196.827 191.808Z" fill="#FAFAFA"/>
<path d="M194.697 192.943C194.895 192.873 195.111 192.873 195.309 192.943C195.556 193.051 195.784 193.198 195.983 193.379C196.337 193.722 196.639 194.115 196.877 194.546C197.073 194.873 196.414 195.122 196.273 194.911C195.966 194.321 195.506 193.821 194.94 193.464C194.684 193.316 194.397 193.229 194.102 193.208C194.102 193.145 194.172 193.083 194.235 193.06C194.298 193.037 194.588 192.943 194.697 192.943Z" fill="#FAFAFA"/>
<path d="M177.828 190.018C177.828 190.018 181.842 197.075 182.955 198.646C183.308 199.152 184.445 198.802 185.096 198.74C185.874 198.609 186.669 198.609 187.448 198.74C189.518 199.315 190.686 199.066 190.2 196.328C190.098 195.768 190.286 195.394 190.984 195.169C191.508 195.071 192.011 194.879 192.465 194.601C192.505 194.515 192.403 194.43 192.316 194.391C191.969 194.253 191.656 194.042 191.398 193.774C191.14 193.505 190.942 193.185 190.819 192.835C189.384 189.762 188.083 183.421 188.083 183.421L177.828 190.018Z" fill="#FFA8A7"/>
<path d="M147.391 205.796C148.622 203.843 149.288 200.085 151.993 192.438L162.036 199.743L156.281 210.837C156.08 211.34 155.928 211.861 155.826 212.393C154.486 214.346 147.391 205.796 147.391 205.796Z" fill="#FFA8A7"/>
<path d="M143.666 209.966C143.666 209.849 143.627 208.931 143.666 208.822C143.932 207.827 144.552 207.554 145.344 207.002C146.144 206.47 146.878 205.846 147.531 205.142C147.798 204.777 147.845 204.59 148.26 204.427C148.795 204.259 149.361 204.209 149.917 204.281C150.473 204.352 151.008 204.542 151.482 204.839C153.756 206.029 154.454 207.461 154.32 209.009C154.226 210.192 154.124 211.763 155.175 212.463C155.614 212.759 156.304 210.907 156.304 210.907C156.947 211.989 156.037 213.475 155.567 215.661C155.287 216.865 155.266 218.113 155.504 219.325C155.732 221.239 155.998 221.231 157.025 221.364C157.903 221.48 160.412 221.317 161.933 222.367C162.518 222.7 162.983 223.206 163.264 223.814C163.545 224.422 163.628 225.102 163.501 225.759C163.227 226.499 160.945 230.07 152.611 228.731C150.189 228.35 145.108 224.577 145.187 224.219C145.23 223.86 145.23 223.497 145.187 223.138C145.187 222.29 145.124 221.449 145.085 220.601C145.117 219.792 145.07 218.982 144.944 218.182C144.792 217.523 144.687 216.855 144.63 216.182C144.473 214.486 144.314 212.788 144.152 211.086C144.042 210.557 143.603 210.448 143.666 209.966Z" fill="#455A64"/>
<path d="M142.62 209.632C141.836 210.41 142.29 212.744 143.404 215.459C143.897 216.681 144.807 218.781 144.54 221.014C144.274 223.247 144.219 224.297 144.799 225.348C145.708 226.981 150.554 229.074 153.423 229.736C151.7 227.33 150.697 224.49 150.53 221.543C150.248 216.619 149.864 213.444 147.598 211.258C144.697 208.504 142.62 209.632 142.62 209.632Z" fill="#263238"/>
<path d="M163.448 225.721C163.448 225.721 161.778 228.833 155.326 228.731C152.786 228.693 151.406 227.463 151.359 223.628C151.288 219.014 150.912 214.354 149.407 212.059C147.901 209.764 145.487 208.659 143.644 208.822C143.214 208.942 142.847 209.22 142.617 209.6C142.617 209.6 144.475 208.994 147.368 211.374C149.509 213.133 150.081 216.82 150.05 221.379C150.05 223.34 149.916 225.573 150.496 227.059C150.761 227.716 151.177 228.302 151.713 228.77C152.248 229.238 152.887 229.574 153.578 229.751C157.082 230.731 161.888 229.12 163.095 227.65C163.292 227.373 163.425 227.057 163.486 226.724C163.547 226.391 163.534 226.048 163.448 225.721Z" fill="#37474F"/>
<path d="M155.698 220.492C155.962 220.679 156.149 220.956 156.223 221.27C156.254 221.663 156.179 222.057 156.005 222.411C155.832 222.765 155.566 223.067 155.235 223.285C154.851 223.519 154.514 223.441 155.125 222.632C155.516 221.987 155.715 221.245 155.698 220.492Z" fill="#FAFAFA"/>
<path d="M155.349 218.104C155.349 218.104 155.553 218.228 155.608 218.882C155.507 219.695 155.09 220.437 154.448 220.951C153.766 221.278 154.134 220.5 154.448 220.119C154.895 219.522 155.203 218.833 155.349 218.104Z" fill="#FAFAFA"/>
<path d="M155.578 215.459C155.578 215.459 155.797 215.521 155.578 216.408C155.262 216.961 154.767 217.391 154.174 217.63C153.735 217.684 153.523 217.466 154.064 217.077C154.449 216.774 155.499 215.887 155.578 215.459Z" fill="#FAFAFA"/>
<path d="M172.045 116.793C172.045 116.793 175.965 121.461 178.317 130.112C180.448 138.182 182.074 146.374 183.186 154.643C183.75 158.338 184.283 161.901 185.585 169.012C186.815 175.765 189.873 190.368 189.873 190.368C189.873 190.368 189.34 192.601 186.306 193.916C184.314 194.694 182.157 194.962 180.034 194.694C180.034 194.694 177.956 191.17 173.629 182.884C171.646 179.281 170.299 175.369 169.646 171.315C169.127 168.563 168.828 165.774 168.752 162.975L152.468 135.605C151.06 133.95 149.956 132.062 149.207 130.027C146.91 124.308 149.842 116.062 149.842 116.062L172.045 116.793Z" fill="#37474F"/>
<path d="M172.045 116.793C172.045 116.793 175.965 121.461 178.317 130.112C180.448 138.182 182.074 146.374 183.186 154.643C183.75 158.338 184.283 161.901 185.585 169.012C186.815 175.765 189.873 190.368 189.873 190.368C189.873 190.368 189.34 192.601 186.306 193.916C184.314 194.694 182.157 194.962 180.034 194.694C180.034 194.694 177.956 191.17 173.629 182.884C171.646 179.281 170.299 175.369 169.646 171.315C169.127 168.563 168.828 165.774 168.752 162.975L152.468 135.605C151.06 133.95 149.956 132.062 149.207 130.027C146.91 124.308 149.842 116.062 149.842 116.062L172.045 116.793Z" fill="#37474F"/>
<path d="M182.854 152.534C181.796 144.976 180.277 137.488 178.307 130.112C177.667 127.752 176.836 125.447 175.822 123.219L155.234 122.861C153.666 126.417 152.49 130.859 155.846 136.29L156.724 142.763L168.727 162.991C168.803 165.79 169.102 168.578 169.62 171.331C170.273 175.384 171.62 179.297 173.603 182.9L173.979 183.615C175.522 181.425 176.897 179.123 178.095 176.73C179.271 173.96 180.087 168.608 181.318 161.839C181.765 159.357 182.353 155.74 182.854 152.534Z" fill="#263238"/>
<path d="M158.493 116.793C156.122 119.558 154.728 123.017 154.526 126.642C154.365 130.157 155.478 133.612 157.662 136.383C158.446 148.24 160.837 171.074 160.837 171.074C157.701 174.303 156.862 176.38 155.035 182.168C153.93 185.677 150.692 196.289 149.438 200.249C157.097 200.576 158.54 207.088 158.54 207.088C158.54 207.088 167.822 192.236 172.511 183.849C175.976 177.625 176.431 176.17 177.356 172.474C178.281 168.779 178.477 165.356 179.614 157.646C180.75 149.936 182.75 139.3 183.33 131.707C183.91 124.114 183.988 116.062 183.988 116.062L158.493 116.793Z" fill="#37474F"/>
<path d="M148.367 126.082C149.282 125.788 150.083 125.223 150.664 124.464C150.938 123.935 151.138 123.372 151.26 122.791C151.493 121.812 151.816 120.856 152.224 119.936L152.812 120.2C152.427 121.091 152.115 122.013 151.88 122.954C151.748 123.6 151.524 124.224 151.213 124.806C150.523 125.733 149.541 126.407 148.422 126.72C148.406 126.51 148.383 126.3 148.367 126.082Z" fill="#263238"/>
<path d="M163.715 132.874C163.577 132.888 163.437 132.888 163.299 132.874C162.358 132.672 161.629 132.041 160.163 130.197C159.058 128.797 159.168 127.786 159.379 126.121C159.45 125.506 160.101 122.231 160.163 121.367L160.783 121.71C160.783 122.589 160.116 125.6 160.046 126.191C159.865 127.848 159.779 128.61 160.72 129.808C162.061 131.512 162.703 132.08 163.472 132.244C165.155 132.281 166.825 131.949 168.364 131.271C168.866 130.929 169.712 126.603 170.206 122.869L170.849 122.954C170.598 124.86 169.705 131.131 168.732 131.8C167.76 132.469 165.016 132.913 163.715 132.874Z" fill="#263238"/>
<path d="M149.675 75.8311C147.488 79.9778 147.754 83.6966 148.389 89.5238C148.969 94.8998 149.377 98.2219 149.879 104.866C150.265 108.997 150.115 113.159 149.432 117.252C149.432 117.252 149.644 120.465 159.185 122.877C175.947 127.117 183.991 122.285 183.991 122.285C183.991 122.285 184.398 112.949 183.748 100.665C183.019 86.9331 182.775 84.9259 181.709 81.6583C180.862 79.7421 179.336 78.2004 177.421 77.3248C175.751 76.5468 171.768 75.2864 169.4 74.3762C165.587 73.057 161.577 72.3888 157.539 72.4001C152.764 72.0811 150.812 73.676 149.675 75.8311Z" fill="#F5F5F5"/>
<path d="M156.363 73.1317C156.723 73.1317 157.099 73.1317 157.484 73.1317H157.766C161.632 73.1446 165.468 73.7966 169.118 75.0612C170.083 75.4268 171.313 75.8392 172.505 76.2826C174.285 76.905 176.127 77.5508 177.091 77.9864C178.832 78.7661 180.226 80.1493 181.011 81.8764C182.023 84.9884 182.258 86.6767 183.003 100.642C183.559 111.223 183.332 119.742 183.262 121.741C182.148 122.278 178.456 123.78 172.144 123.78C167.838 123.764 163.55 123.215 159.381 122.146C151.486 120.154 150.365 117.672 150.232 117.275C150.892 113.16 151.037 108.979 150.663 104.827C150.239 99.2025 149.879 95.9505 149.432 91.8348L149.165 89.4542C148.538 83.6425 148.287 80.1648 150.373 76.2282C151.157 74.7188 152.497 73.1784 156.363 73.1784M156.363 72.4004C152.443 72.4004 150.718 73.9019 149.675 75.8703C147.488 80.017 147.754 83.7359 148.389 89.5631C148.969 94.9391 149.377 98.2611 149.879 104.905C150.265 109.036 150.115 113.198 149.432 117.291C149.432 117.291 149.644 120.504 159.185 122.916C163.402 124.028 167.742 124.613 172.105 124.659C180.11 124.659 183.991 122.325 183.991 122.325C183.991 122.325 184.398 112.989 183.748 100.704C183.019 86.9723 182.775 84.9651 181.709 81.6975C180.862 79.7813 179.336 78.2396 177.421 77.364C175.751 76.586 171.768 75.3257 169.4 74.4154C165.661 73.1166 161.728 72.4486 157.766 72.4393H157.539C157.123 72.4393 156.755 72.4393 156.363 72.4393V72.4004Z" fill="#E0E0E0"/>
<path d="M169.813 69.6777L169.343 74.7269C166.552 75.326 159.786 74.8981 158.516 73.1709L158.782 68.5029L169.813 69.6777Z" fill="#FFA8A7"/>
<path d="M177.071 56.7314C177.071 56.7314 178.364 57.7039 179.344 61.0571L177.431 62.4497C176.804 60.0924 176.122 57.6962 177.071 56.7314Z" fill="#F28F8F"/>
<path d="M172.129 47.3483C176.888 47.6595 177.68 50.118 176.974 58.1625C178.644 65.8025 176.339 68.8289 175.344 69.8325C173.109 71.0229 170.828 71.2251 167.731 70.4238C165.379 69.8092 159.397 68.0509 156.896 64.371C153.948 60.0453 153.18 53.479 156.316 51.0127C160.722 47.5506 170.24 47.2238 172.129 47.3483Z" fill="#FFA8A7"/>
<path d="M175.34 69.8256C174.791 70.3779 171.616 71.3816 169.656 71.1637L169.813 69.6777C171.64 69.9792 173.5 70.029 175.34 69.8256Z" fill="#F28F8F"/>
<path d="M172.634 52.9036C172.534 53.2501 172.383 53.5804 172.187 53.8839C171.632 54.6361 170.907 55.2489 170.07 55.6733C170.422 56.6562 170.635 57.6824 170.705 58.7231C170.733 59.0593 170.656 59.3959 170.486 59.6878C170.431 59.7941 170.348 59.8833 170.246 59.9457C170.144 60.0081 170.026 60.0411 169.906 60.0411C169.785 60.0411 169.668 60.0081 169.565 59.9457C169.463 59.8833 169.38 59.7941 169.325 59.6878C169.072 59.1163 168.748 58.578 168.361 58.0851C167.863 57.5093 167.167 57.1377 166.409 57.0426C163.54 56.7625 163.532 61.1971 164.676 62.6986C166.558 65.1493 168.11 63.5778 168.11 63.5778C168.11 63.5778 169.075 67.3666 166.307 69.0238C166.307 69.0238 161.854 70.113 158.812 68.5803C157.424 65.7406 155.543 64.0835 154.053 61.0571C151.435 55.7589 152.689 51.1142 154.469 50.1651C153.967 47.691 155.488 45.2637 158.71 43.7543C161.932 42.245 166.276 43.023 169.686 43.5598C171.7 43.8799 173.759 43.7631 175.723 43.2175C175.998 43.132 176.282 43.0797 176.57 43.0619C176.718 43.0505 176.867 43.0749 177.003 43.1332C177.14 43.1915 177.26 43.2818 177.354 43.3965C177.448 43.5585 177.497 43.7423 177.497 43.9294C177.497 44.1165 177.448 44.3003 177.354 44.4623C177.155 44.7772 176.977 45.1047 176.82 45.4426C177.177 45.3894 177.542 45.4562 177.856 45.6325C178.17 45.8087 178.415 46.0842 178.553 46.4151C178.754 46.8778 178.83 47.3843 178.773 47.885C178.717 48.3856 178.53 48.8631 178.232 49.2704C177.621 50.0785 176.754 50.6594 175.77 50.9197C174.791 51.176 173.779 51.2862 172.767 51.2465C172.862 51.8013 172.816 52.3708 172.634 52.9036Z" fill="#263238"/>
<path d="M169.558 72.5713C170.287 72.5713 171.079 74.0262 172.498 75.4966C169.395 77.0053 165.89 77.501 162.486 76.9126C156.488 76.0179 155.336 72.4002 155.336 72.4002C155.336 72.4002 156.708 71.3499 157.429 70.6497C158.307 69.7939 158.738 69.7783 158.738 69.7783L158.668 70.9998C158.668 70.9998 159.82 72.1823 163.474 72.9137C165.493 73.3812 167.605 73.2624 169.558 72.5713Z" fill="#E6E6E6"/>
<path d="M190.779 107.605C190.779 107.605 189.062 99.0472 187.815 93.0955C186.569 87.1438 187.031 80.2118 177.561 77.8467C175.993 80.1807 174.973 83.8606 175.499 88.3964C176.024 92.9321 178.117 100.066 178.635 102.455C179.576 106.186 181.117 109.743 183.198 112.989C186.2 117.424 191.822 124.923 194.08 127.678C195.13 128.954 196.04 130.245 197.012 131.568C198.101 132.907 199.283 134.171 200.548 135.349C201.134 135.931 201.864 136.352 202.664 136.57C203.174 136.71 203.684 136.516 204.162 136.648C204.64 136.78 204.946 137.239 205.557 137.255C206.169 137.27 206.749 136.827 207.345 136.881C207.963 137.01 208.589 137.098 209.219 137.146C209.745 137.065 210.283 137.113 210.787 137.286C211.241 137.473 211.884 138.064 212.409 137.768C212.935 137.473 212.817 136.788 212.613 136.259C212.129 135.258 211.331 134.439 210.34 133.925C209.383 133.313 208.39 132.757 207.368 132.26C206.388 131.794 205.524 131.119 204.836 130.284C204.35 129.739 204.052 128.907 205.024 128.899C206.192 128.899 207.651 129.327 208.717 128.588C209.454 128.082 209.203 127.436 208.489 127.125C207.312 126.619 206.175 126.026 205.087 125.351C203.974 124.667 202.947 123.873 201.825 123.22C201.224 122.886 200.6 122.593 199.96 122.34C198.196 121.609 197.427 119.859 196.533 118.31C195.295 116.179 192.167 110.476 190.779 107.605Z" fill="#FFA8A7"/>
<path d="M177.111 98.4864C177.111 98.4864 175.449 92.0056 175.018 89.2904C174.586 86.5752 174.351 79.5343 177.181 77.2236C179.22 77.7138 184.684 78.6785 186.26 83.7822C187.836 88.8859 190.18 102.306 190.18 102.306L197.299 118.979C197.299 118.979 197.299 120.535 194.343 122.534C191.388 124.534 189.843 123.857 189.843 123.857C189.843 123.857 183.971 115.034 181.125 110.685C179.228 107.768 178.757 105.807 177.111 98.4864Z" fill="#E6E6E6"/>
<path d="M196.941 334.657C195.27 332.076 192.963 329.96 190.238 328.511C179.262 322.24 161.528 322.24 150.576 328.511C147.851 329.958 145.546 332.074 143.88 334.657H142.367V340.344C142.571 344.296 145.299 348.217 150.56 351.236C161.536 357.507 179.27 357.507 190.223 351.236C195.491 348.217 198.235 344.296 198.439 340.344V334.657H196.941Z" fill="#B0C4CD"/>
<path opacity="0.25" d="M196.941 334.657C195.27 332.076 192.963 329.96 190.238 328.511C179.262 322.24 161.528 322.24 150.576 328.511C147.851 329.958 145.546 332.074 143.88 334.657H142.367V340.344C142.571 344.296 145.299 348.217 150.56 351.236C161.536 357.507 179.27 357.507 190.223 351.236C195.491 348.217 198.235 344.296 198.439 340.344V334.657H196.941Z" fill="black"/>
<path opacity="0.1" d="M170.411 323.804C163.229 323.804 156.056 325.36 150.576 328.511C147.851 329.958 145.546 332.074 143.88 334.657H142.367V340.344C142.571 344.296 145.299 348.217 150.56 351.236C156.048 354.348 163.214 355.943 170.395 355.943L170.411 323.804Z" fill="black"/>
<path opacity="0.1" d="M155.092 326.418C153.531 326.991 152.02 327.691 150.576 328.511C147.851 329.958 145.546 332.074 143.88 334.657H142.367V340.344C142.571 344.296 145.299 348.218 150.56 351.236C152.005 352.056 153.515 352.756 155.076 353.329L155.092 326.418Z" fill="black"/>
<path opacity="0.5" d="M185.719 326.418C187.28 326.991 188.79 327.691 190.235 328.511C192.959 329.961 195.266 332.076 196.938 334.657H198.451V340.344C198.247 344.296 195.503 348.218 190.235 351.236C188.79 352.056 187.28 352.756 185.719 353.329V326.418Z" fill="#B0C4CD"/>
<path d="M150.576 323.298C139.6 329.576 139.6 339.752 150.576 346.023C160.164 351.516 174.95 352.2 185.856 348.085L186.287 347.914C187.653 347.378 188.979 346.746 190.254 346.023C199.388 340.787 200.909 332.844 194.801 326.713C193.446 325.378 191.917 324.23 190.254 323.298C179.286 317.027 161.505 317.027 150.576 323.298Z" fill="#B0C4CD"/>
<path opacity="0.2" d="M150.576 323.298C139.6 329.576 139.6 339.752 150.576 346.023C160.164 351.516 174.95 352.2 185.856 348.085L186.287 347.914C187.653 347.378 188.979 346.746 190.254 346.023C199.388 340.787 200.909 332.844 194.801 326.713C193.446 325.378 191.917 324.23 190.254 323.298C179.286 317.027 161.505 317.027 150.576 323.298Z" fill="black"/>
<path opacity="0.5" d="M194.788 326.713C195.98 328.05 196.861 329.631 197.369 331.344C197.877 333.057 197.999 334.86 197.728 336.625C196.756 342.148 188.963 346.801 186.273 347.913C187.639 347.378 188.965 346.746 190.24 346.023C199.374 340.764 200.895 332.844 194.788 326.713Z" fill="#F5F5F5"/>
<path opacity="0.5" d="M146.032 342.608C144.839 341.271 143.958 339.69 143.451 337.977C142.944 336.263 142.824 334.46 143.1 332.696C144.072 327.172 151.865 322.528 154.546 321.407C153.181 321.944 151.855 322.576 150.579 323.298C141.446 328.534 139.933 336.477 146.032 342.608Z" fill="#F5F5F5"/>
<path d="M188.851 345.198C199.043 339.371 199.043 329.91 188.851 324.075C178.659 318.24 162.195 318.248 152.003 324.075C141.811 329.903 141.811 339.371 152.003 345.198C162.195 351.025 178.675 351.033 188.851 345.198Z" fill="#B0C4CD"/>
<path opacity="0.4" d="M188.851 345.198C199.043 339.371 199.043 329.91 188.851 324.075C178.659 318.24 162.195 318.248 152.003 324.075C141.811 329.903 141.811 339.371 152.003 345.198C162.195 351.025 178.675 351.033 188.851 345.198Z" fill="white"/>
<path opacity="0.2" d="M195.299 339.099C197.393 335.255 196.711 331.023 193.253 327.429C192.572 326.727 191.832 326.085 191.042 325.507C190.369 325.005 189.664 324.545 188.933 324.13C188.518 323.881 188.094 323.655 187.648 323.438C188.737 325.204 188.337 327.102 182.199 327.46C170.18 328.152 185.405 339.55 185.405 339.55C185.405 339.55 193.151 335.839 195.299 339.099Z" fill="white"/>
<path opacity="0.5" d="M194.062 335.948C195.865 335.745 196.759 333.909 196.061 331.84C195.363 329.77 193.325 328.253 191.522 328.456C189.719 328.658 188.825 330.494 189.531 332.563C190.236 334.633 192.259 336.15 194.062 335.948Z" fill="white"/>
<path d="M175.064 345.432C174.468 341.005 154.97 328.744 154.97 328.744C154.97 328.744 150.642 327.025 152.077 324.021C151.357 324.429 150.661 324.875 149.991 325.36C149.537 325.679 149.121 326.013 148.721 326.355C142.92 331.342 142.912 337.901 148.721 342.896C149.113 343.23 149.505 343.565 149.984 343.892C150.605 344.343 151.251 344.759 151.92 345.136C152.588 345.53 153.276 345.888 153.982 346.21C154.554 346.482 155.142 346.731 155.738 346.988C156.334 347.245 156.945 347.439 157.573 347.642C159.471 348.257 161.417 348.72 163.39 349.026L164.699 349.221C166.628 349.465 168.572 349.585 170.517 349.579C172.901 349.579 175.282 349.387 177.635 349.003C177.635 349.003 174.507 348.357 175.064 345.432Z" fill="#B0C4CD"/>
<path opacity="0.3" d="M175.064 345.432C174.468 341.005 154.97 328.744 154.97 328.744C154.97 328.744 150.642 327.025 152.077 324.021C151.357 324.429 150.661 324.875 149.991 325.36C149.537 325.679 149.121 326.013 148.721 326.355C142.92 331.342 142.912 337.901 148.721 342.896C149.113 343.23 149.505 343.565 149.984 343.892C150.605 344.343 151.251 344.759 151.92 345.136C152.588 345.53 153.276 345.888 153.982 346.21C154.554 346.482 155.142 346.731 155.738 346.988C156.334 347.245 156.945 347.439 157.573 347.642C159.471 348.257 161.417 348.72 163.39 349.026L164.699 349.221C166.628 349.465 168.572 349.585 170.517 349.579C172.901 349.579 175.282 349.387 177.635 349.003C177.635 349.003 174.507 348.357 175.064 345.432Z" fill="white"/>
<path d="M156.673 326.759C149.397 330.929 149.099 337.581 155.787 341.954C156.069 342.14 156.367 342.319 156.673 342.498C164.262 346.847 176.555 346.847 184.113 342.498C191.671 338.149 191.702 331.108 184.113 326.759L183.156 326.254C175.559 322.434 163.948 322.605 156.673 326.759Z" fill="#B0C4CD"/>
<path opacity="0.2" d="M156.673 326.759C149.397 330.929 149.099 337.581 155.787 341.954C156.069 342.14 156.367 342.319 156.673 342.498C164.262 346.847 176.555 346.847 184.113 342.498C191.671 338.149 191.702 331.108 184.113 326.759L183.156 326.254C175.559 322.434 163.948 322.605 156.673 326.759Z" fill="black"/>
<path d="M170.417 345.276C180.67 345.276 188.982 340.515 188.982 334.641C188.982 328.767 180.67 324.006 170.417 324.006C160.163 324.006 151.852 328.767 151.852 334.641C151.852 340.515 160.163 345.276 170.417 345.276Z" fill="#B0C4CD"/>
<path opacity="0.5" d="M170.417 345.276C180.67 345.276 188.982 340.515 188.982 334.641C188.982 328.767 180.67 324.006 170.417 324.006C160.163 324.006 151.852 328.767 151.852 334.641C151.852 340.515 160.163 345.276 170.417 345.276Z" fill="black"/>
<path d="M157.292 330.082C164.536 325.927 176.296 325.927 183.54 330.082C186.512 331.786 188.244 333.917 188.801 336.119C188.26 338.329 186.512 340.46 183.54 342.156C176.296 346.311 164.536 346.311 157.292 342.156C154.328 340.46 152.588 338.329 152.031 336.119C152.572 333.917 154.328 331.786 157.292 330.082Z" fill="#B0C4CD"/>
<path opacity="0.35" d="M157.292 330.082C164.536 325.927 176.296 325.927 183.54 330.082C186.512 331.786 188.244 333.917 188.801 336.119C188.26 338.329 186.512 340.46 183.54 342.156C176.296 346.311 164.536 346.311 157.292 342.156C154.328 340.46 152.588 338.329 152.031 336.119C152.572 333.917 154.328 331.786 157.292 330.082Z" fill="black"/>
<path d="M182.107 337.847C182.107 337.481 182.107 336.019 182.107 335.645C182.107 334.743 181.48 333.871 180.131 333.085H180.084C177.591 331.654 175.012 331.841 172.715 332.416C171.742 332.665 170.809 332.977 169.963 333.264C168.998 333.622 168.014 333.926 167.015 334.175C166.555 334.28 166.083 334.325 165.611 334.307C165.208 334.284 164.813 334.181 164.451 334.003L164.545 333.933L164.835 333.762C165.087 333.614 165.349 333.484 165.619 333.373C166.267 333.09 166.964 332.935 167.672 332.919C168.379 332.903 169.083 333.026 169.743 333.28L172.095 330.899V328.713C169.996 328.002 167.733 327.921 165.588 328.48C164.88 328.66 164.188 328.896 163.518 329.188L161.166 327.826L158.328 329.452V331.638L159.3 332.199C159.041 332.576 158.897 333.018 158.885 333.474V335.653C158.885 336.555 159.543 337.427 160.907 338.212C162.099 338.905 163.447 339.29 164.827 339.333H165.611C167.05 339.227 168.467 338.923 169.822 338.43L170.606 338.15L168.207 340.531V342.717C169.684 343.272 171.26 343.522 172.838 343.454C174.416 343.386 175.964 343 177.387 342.32L179.739 343.666L182.577 342.04V339.854L181.605 339.294C181.915 338.873 182.09 338.368 182.107 337.847ZM176.117 337.652C175.906 337.777 175.686 337.886 175.459 337.979C173.982 338.612 172.313 338.637 170.817 338.049C173.036 337.271 174.894 336.594 176.478 337.427C176.363 337.51 176.242 337.585 176.117 337.652Z" fill="#B0C4CD"/>
<path d="M172.715 332.385C171.742 332.634 170.809 332.945 169.963 333.233C168.998 333.591 168.014 333.895 167.015 334.143C166.555 334.249 166.083 334.293 165.611 334.276C165.136 334.25 164.673 334.111 164.263 333.871C163.346 333.35 163.212 332.587 164.545 331.716L164.835 331.537C165.089 331.394 165.35 331.267 165.619 331.156C166.267 330.872 166.964 330.718 167.672 330.702C168.379 330.686 169.083 330.808 169.743 331.063L172.095 328.682C169.996 327.971 167.733 327.89 165.588 328.448C164.88 328.628 164.188 328.865 163.518 329.156L161.166 327.795L158.328 329.421L160.68 330.767C158.328 332.564 158.25 334.431 160.931 335.972C162.123 336.664 163.471 337.049 164.851 337.092H165.635C167.075 336.987 168.492 336.681 169.845 336.182C172.573 335.279 174.784 334.213 176.619 335.264C177.85 335.972 177.505 336.859 176.156 337.598C175.945 337.722 175.725 337.831 175.498 337.924C174.756 338.241 173.957 338.407 173.15 338.413C172.342 338.42 171.541 338.267 170.794 337.963L168.293 340.445C169.77 341 171.346 341.251 172.924 341.182C174.502 341.114 176.05 340.728 177.473 340.048L179.825 341.394L182.663 339.768L180.311 338.422C182.663 336.61 182.954 334.634 180.194 333.031H180.147C177.591 331.623 175.012 331.809 172.715 332.385Z" fill="#B0C4CD"/>
<g opacity="0.3">
<path d="M172.715 332.385C171.742 332.634 170.809 332.945 169.963 333.233C168.998 333.591 168.014 333.895 167.015 334.143C166.555 334.249 166.083 334.293 165.611 334.276C165.136 334.25 164.673 334.111 164.263 333.871C163.346 333.35 163.212 332.587 164.545 331.716L164.835 331.537C165.089 331.394 165.35 331.267 165.619 331.156C166.267 330.872 166.964 330.718 167.672 330.702C168.379 330.686 169.083 330.808 169.743 331.063L172.095 328.682C169.996 327.971 167.733 327.89 165.588 328.448C164.88 328.628 164.188 328.865 163.518 329.156L161.166 327.795L158.328 329.421L160.68 330.767C158.328 332.564 158.25 334.431 160.931 335.972C162.123 336.664 163.471 337.049 164.851 337.092H165.635C167.075 336.987 168.492 336.681 169.845 336.182C172.573 335.279 174.784 334.213 176.619 335.264C177.85 335.972 177.505 336.859 176.156 337.598C175.945 337.722 175.725 337.831 175.498 337.924C174.756 338.241 173.957 338.407 173.15 338.413C172.342 338.42 171.541 338.267 170.794 337.963L168.293 340.445C169.77 341 171.346 341.251 172.924 341.182C174.502 341.114 176.05 340.728 177.473 340.048L179.825 341.394L182.663 339.768L180.311 338.422C182.663 336.61 182.954 334.634 180.194 333.031H180.147C177.591 331.623 175.012 331.809 172.715 332.385Z" fill="white"/>
</g>
<path opacity="0.45" d="M158.305 329.421L161.174 328.129L163.526 329.156L161.143 327.795L158.305 329.421Z" fill="#F5F5F5"/>
<path opacity="0.45" d="M165.266 328.534C167.29 328.134 169.381 328.206 171.373 328.744L169.719 331.078L172.071 328.697C169.873 327.954 167.498 327.897 165.266 328.534Z" fill="#F5F5F5"/>
<path opacity="0.45" d="M180.088 333.054H180.135C182.895 334.657 182.621 336.633 180.253 338.446C182.354 336.182 181.97 334.602 179.696 333.303C177.545 332.213 175.086 331.879 172.719 332.354C175.016 331.809 177.595 331.623 180.088 333.054Z" fill="#F5F5F5"/>
<path opacity="0.45" d="M180.252 338.477L182.055 339.854L179.766 341.449L182.604 339.823L180.252 338.477Z" fill="#F5F5F5"/>
<path opacity="0.45" d="M175.463 337.979C174.062 338.682 172.442 338.824 170.939 338.375L168.234 340.499L170.735 338.017C171.486 338.324 172.291 338.479 173.103 338.472C173.915 338.466 174.717 338.298 175.463 337.979Z" fill="#F5F5F5"/>
<path opacity="0.45" d="M166.994 334.143C166.443 334.367 165.845 334.454 165.253 334.399C164.66 334.343 164.09 334.146 163.591 333.824C162.807 333.124 163.293 332.369 164.524 331.716C163.191 332.587 163.324 333.35 164.242 333.871C164.652 334.111 165.115 334.25 165.59 334.275C166.062 334.293 166.534 334.249 166.994 334.143Z" fill="#F5F5F5"/>
<path opacity="0.45" d="M160.633 330.79C160.437 330.961 158.728 332.548 159.481 334.128C160.233 335.707 162.789 336.897 164.812 337.115C163.431 337.072 162.084 336.687 160.892 335.995C158.203 334.454 158.25 332.587 160.633 330.79Z" fill="#F5F5F5"/>
<path d="M202.277 326.651C200.613 324.067 198.308 321.95 195.582 320.505C184.606 314.226 166.872 314.226 155.919 320.505C153.194 321.95 150.888 324.067 149.224 326.651H147.703V332.338C147.907 336.29 150.627 340.211 155.896 343.23C166.872 349.509 184.606 349.509 195.558 343.23C200.827 340.219 203.571 336.298 203.767 332.338V326.651H202.277Z" fill="#B0C4CD"/>
<path opacity="0.25" d="M202.277 326.651C200.613 324.067 198.308 321.95 195.582 320.505C184.606 314.226 166.872 314.226 155.919 320.505C153.194 321.95 150.888 324.067 149.224 326.651H147.703V332.338C147.907 336.29 150.627 340.211 155.896 343.23C166.872 349.509 184.606 349.509 195.558 343.23C200.827 340.219 203.571 336.298 203.767 332.338V326.651H202.277Z" fill="black"/>
<path opacity="0.1" d="M175.723 315.798C168.542 315.798 161.368 317.354 155.888 320.466C153.163 321.911 150.857 324.028 149.193 326.612H147.672V332.299C147.876 336.251 150.596 340.173 155.865 343.191C161.353 346.303 168.518 347.859 175.7 347.859L175.723 315.798Z" fill="black"/>
<path opacity="0.1" d="M160.404 318.404C158.844 318.983 157.334 319.685 155.888 320.505C153.163 321.95 150.857 324.067 149.193 326.651H147.672V332.338C147.876 336.291 150.596 340.212 155.865 343.23C157.309 344.053 158.819 344.755 160.381 345.331L160.404 318.404Z" fill="black"/>
<path opacity="0.5" d="M191.031 318.404C192.591 318.983 194.101 319.685 195.547 320.505C198.273 321.95 200.578 324.067 202.242 326.651H203.756V332.338C203.56 336.291 200.808 340.212 195.547 343.23C194.103 344.053 192.592 344.755 191.031 345.331V318.404Z" fill="#B0C4CD"/>
<path d="M155.888 315.292C144.912 321.563 144.912 331.739 155.888 338.017C165.469 343.463 180.263 344.195 191.168 340.071L191.599 339.908C192.965 339.371 194.29 338.739 195.566 338.017C204.7 332.781 206.213 324.838 200.114 318.707C198.758 317.375 197.229 316.229 195.566 315.3C184.598 309.013 166.841 309.013 155.888 315.292Z" fill="#B0C4CD"/>
<path opacity="0.2" d="M155.888 315.292C144.912 321.563 144.912 331.739 155.888 338.017C165.469 343.463 180.263 344.195 191.168 340.071L191.599 339.908C192.965 339.371 194.29 338.739 195.566 338.017C204.7 332.781 206.213 324.838 200.114 318.707C198.758 317.375 197.229 316.229 195.566 315.3C184.598 309.013 166.841 309.013 155.888 315.292Z" fill="black"/>
<path opacity="0.5" d="M200.1 318.707C201.299 320.041 202.186 321.621 202.698 323.334C203.21 325.048 203.335 326.852 203.064 328.619C202.091 334.143 194.306 338.787 191.617 339.908C192.983 339.37 194.308 338.739 195.584 338.017C204.686 332.781 206.2 324.838 200.1 318.707Z" fill="#F5F5F5"/>
<path opacity="0.5" d="M151.32 334.602C150.128 333.265 149.247 331.683 148.74 329.97C148.234 328.257 148.113 326.455 148.388 324.69C149.352 319.166 157.145 314.514 159.834 313.401C158.468 313.937 157.142 314.569 155.867 315.292C146.757 320.536 145.244 328.471 151.32 334.602Z" fill="#F5F5F5"/>
<path d="M194.164 337.192C204.356 331.357 204.356 321.905 194.164 316.07C183.972 310.235 167.508 310.235 157.316 316.07C147.124 321.905 147.124 331.357 157.316 337.192C167.508 343.027 183.98 343.027 194.164 337.192Z" fill="#B0C4CD"/>
<path opacity="0.4" d="M194.164 337.192C204.356 331.357 204.356 321.905 194.164 316.07C183.972 310.235 167.508 310.235 157.316 316.07C147.124 321.905 147.124 331.357 157.316 337.192C167.508 343.027 183.98 343.027 194.164 337.192Z" fill="white"/>
<path opacity="0.2" d="M200.615 331.093C202.708 327.249 202.026 323.009 198.569 319.423C197.887 318.724 197.148 318.084 196.358 317.509C195.682 317.007 194.978 316.545 194.249 316.124C193.833 315.883 193.402 315.649 192.963 315.432C194.045 317.205 193.653 319.096 187.475 319.454C175.464 320.154 190.689 331.544 190.689 331.544C190.689 331.544 198.467 327.825 200.615 331.093Z" fill="white"/>
<path opacity="0.5" d="M199.378 327.943C201.181 327.74 202.075 325.896 201.369 323.827C200.664 321.757 198.641 320.248 196.838 320.443C195.035 320.637 194.141 322.489 194.839 324.558C195.537 326.628 197.575 328.137 199.378 327.943Z" fill="white"/>
<path d="M180.374 337.434C179.778 333.007 160.273 320.754 160.273 320.754C160.273 320.754 155.953 319.027 157.387 316.031C156.665 316.434 155.968 316.881 155.302 317.369C154.861 317.679 154.437 318.011 154.032 318.365C148.222 323.352 148.215 329.903 154.032 334.898C154.424 335.24 154.847 335.575 155.302 335.901C155.923 336.348 156.567 336.764 157.231 337.146C157.9 337.525 158.59 337.883 159.3 338.22C159.865 338.484 160.461 338.741 161.057 338.998C161.652 339.255 162.264 339.449 162.883 339.651C164.786 340.262 166.733 340.725 168.708 341.036C169.14 341.106 169.579 341.168 170.01 341.223C174.312 341.775 178.673 341.702 182.954 341.005C182.954 341.005 179.81 340.352 180.374 337.434Z" fill="#B0C4CD"/>
<path opacity="0.3" d="M180.374 337.434C179.778 333.007 160.273 320.754 160.273 320.754C160.273 320.754 155.953 319.027 157.387 316.031C156.665 316.434 155.968 316.881 155.302 317.369C154.861 317.679 154.437 318.011 154.032 318.365C148.222 323.352 148.215 329.903 154.032 334.898C154.424 335.24 154.847 335.575 155.302 335.901C155.923 336.348 156.567 336.764 157.231 337.146C157.9 337.525 158.59 337.883 159.3 338.22C159.865 338.484 160.461 338.741 161.057 338.998C161.652 339.255 162.264 339.449 162.883 339.651C164.786 340.262 166.733 340.725 168.708 341.036C169.14 341.106 169.579 341.168 170.01 341.223C174.312 341.775 178.673 341.702 182.954 341.005C182.954 341.005 179.81 340.352 180.374 337.434Z" fill="white"/>
<path d="M161.985 318.761C154.71 322.932 154.412 329.583 161.099 333.956C161.382 334.135 161.68 334.321 161.985 334.5C169.575 338.842 181.868 338.842 189.425 334.5C196.983 330.159 197.015 323.11 189.425 318.761C189.12 318.582 188.798 318.411 188.477 318.248C180.872 314.42 169.261 314.591 161.985 318.761Z" fill="#B0C4CD"/>
<path opacity="0.2" d="M161.985 318.761C154.71 322.932 154.412 329.583 161.099 333.956C161.382 334.135 161.68 334.321 161.985 334.5C169.575 338.842 181.868 338.842 189.425 334.5C196.983 330.159 197.015 323.11 189.425 318.761C189.12 318.582 188.798 318.411 188.477 318.248C180.872 314.42 169.261 314.591 161.985 318.761Z" fill="black"/>
<path d="M175.729 337.263C185.982 337.263 194.294 332.501 194.294 326.627C194.294 320.754 185.982 315.992 175.729 315.992C165.476 315.992 157.164 320.754 157.164 326.627C157.164 332.501 165.476 337.263 175.729 337.263Z" fill="#B0C4CD"/>
<path opacity="0.5" d="M175.729 337.263C185.982 337.263 194.294 332.501 194.294 326.627C194.294 320.754 185.982 315.992 175.729 315.992C165.476 315.992 157.164 320.754 157.164 326.627C157.164 332.501 165.476 337.263 175.729 337.263Z" fill="black"/>
<path d="M162.597 322.091C169.849 317.937 181.601 317.937 188.853 322.091C191.816 323.788 193.557 325.919 194.113 328.129C193.572 330.338 191.816 332.47 188.853 334.166C181.601 338.321 169.849 338.321 162.597 334.166C159.633 332.47 157.893 330.338 157.344 328.129C157.885 325.904 159.633 323.772 162.597 322.091Z" fill="#B0C4CD"/>
<path opacity="0.35" d="M162.597 322.091C169.849 317.937 181.601 317.937 188.853 322.091C191.816 323.788 193.557 325.919 194.113 328.129C193.572 330.338 191.816 332.47 188.853 334.166C181.601 338.321 169.849 338.321 162.597 334.166C159.633 332.47 157.893 330.338 157.344 328.129C157.885 325.904 159.633 323.772 162.597 322.091Z" fill="black"/>
<path d="M187.419 329.871V327.677C187.419 326.775 186.792 325.896 185.436 325.11H185.389C182.896 323.686 180.324 323.873 178.027 324.449C177.047 324.69 176.122 325.009 175.275 325.297C174.312 325.656 173.327 325.957 172.327 326.199C171.87 326.301 171.401 326.345 170.932 326.331C170.526 326.302 170.13 326.197 169.764 326.02L169.858 325.958L170.148 325.779C170.401 325.636 170.663 325.509 170.932 325.398C171.579 325.112 172.276 324.957 172.984 324.941C173.692 324.924 174.396 325.048 175.056 325.304L177.408 322.924V320.737C175.31 320.024 173.046 319.94 170.9 320.496C170.191 320.677 169.499 320.916 168.831 321.212L166.479 319.843L163.641 321.477V323.663L164.613 324.215C164.347 324.589 164.202 325.034 164.197 325.491V327.677C164.197 328.58 164.848 329.451 166.22 330.237C167.413 330.926 168.76 331.311 170.14 331.357C170.399 331.357 170.657 331.357 170.924 331.357C172.363 331.251 173.78 330.947 175.134 330.455L175.918 330.175L173.519 332.555V334.749C174.998 335.298 176.573 335.546 178.15 335.478C179.727 335.409 181.275 335.027 182.7 334.352L185.052 335.698L187.89 334.072V331.816L186.918 331.256C187.216 330.852 187.391 330.371 187.419 329.871ZM181.43 329.684C181.217 329.806 180.997 329.915 180.771 330.011C179.291 330.64 177.621 330.665 176.122 330.081C178.348 329.303 180.207 328.619 181.79 329.459C181.68 329.498 181.555 329.568 181.43 329.646V329.684Z" fill="#B0C4CD"/>
<path d="M178.027 324.379C177.047 324.62 176.122 324.939 175.275 325.227C174.312 325.587 173.327 325.888 172.327 326.13C171.87 326.231 171.401 326.276 170.932 326.262C170.454 326.236 169.989 326.098 169.575 325.857C168.666 325.336 168.533 324.566 169.858 323.702L170.148 323.523C170.401 323.381 170.663 323.253 170.932 323.142C171.579 322.856 172.276 322.701 172.984 322.685C173.692 322.669 174.396 322.793 175.056 323.049L177.408 320.668C175.31 319.955 173.046 319.871 170.9 320.427C170.191 320.607 169.499 320.847 168.831 321.143L166.479 319.773L163.641 321.407L165.993 322.753C163.641 324.558 163.554 326.425 166.243 327.966C167.437 328.655 168.784 329.04 170.163 329.086C170.425 329.102 170.686 329.102 170.947 329.086C172.386 328.98 173.803 328.676 175.158 328.184C177.886 327.281 180.089 326.215 181.931 327.266C183.154 327.974 182.817 328.86 181.469 329.6C181.256 329.721 181.036 329.83 180.81 329.926C180.065 330.235 179.266 330.394 178.458 330.394C177.651 330.394 176.851 330.235 176.106 329.926L173.613 332.408C175.091 332.962 176.666 333.213 178.244 333.146C179.821 333.079 181.369 332.696 182.794 332.019L185.146 333.365L187.984 331.739L185.632 330.393C187.984 328.573 188.266 326.597 185.506 324.994H185.459C182.896 323.648 180.324 323.803 178.027 324.379Z" fill="#B0C4CD"/>
<g opacity="0.3">
<path d="M178.027 324.379C177.047 324.62 176.122 324.939 175.275 325.227C174.312 325.587 173.327 325.888 172.327 326.13C171.87 326.231 171.401 326.276 170.932 326.262C170.454 326.236 169.989 326.098 169.575 325.857C168.666 325.336 168.533 324.566 169.858 323.702L170.148 323.523C170.401 323.381 170.663 323.253 170.932 323.142C171.579 322.856 172.276 322.701 172.984 322.685C173.692 322.669 174.396 322.793 175.056 323.049L177.408 320.668C175.31 319.955 173.046 319.871 170.9 320.427C170.191 320.607 169.499 320.847 168.831 321.143L166.479 319.773L163.641 321.407L165.993 322.753C163.641 324.558 163.554 326.425 166.243 327.966C167.437 328.655 168.784 329.04 170.163 329.086C170.425 329.102 170.686 329.102 170.947 329.086C172.386 328.98 173.803 328.676 175.158 328.184C177.886 327.281 180.089 326.215 181.931 327.266C183.154 327.974 182.817 328.86 181.469 329.6C181.256 329.721 181.036 329.83 180.81 329.926C180.065 330.235 179.266 330.394 178.458 330.394C177.651 330.394 176.851 330.235 176.106 329.926L173.613 332.408C175.091 332.962 176.666 333.213 178.244 333.146C179.821 333.079 181.369 332.696 182.794 332.019L185.146 333.365L187.984 331.739L185.632 330.393C187.984 328.573 188.266 326.597 185.506 324.994H185.459C182.896 323.648 180.324 323.803 178.027 324.379Z" fill="white"/>
</g>
<path opacity="0.45" d="M163.617 321.415L166.487 320.124L168.839 321.151L166.455 319.789L163.617 321.415Z" fill="#F5F5F5"/>
<path opacity="0.45" d="M170.578 320.536C172.6 320.134 174.688 320.203 176.678 320.738L175.031 323.072L177.383 320.691C175.184 319.95 172.809 319.896 170.578 320.536Z" fill="#F5F5F5"/>
<path opacity="0.45" d="M185.393 325.04H185.44C188.2 326.643 187.933 328.619 185.565 330.439C187.659 328.175 187.282 326.596 185.009 325.289C182.856 324.206 180.398 323.874 178.031 324.348C180.328 323.803 182.9 323.648 185.393 325.04Z" fill="#F5F5F5"/>
<path opacity="0.45" d="M185.564 330.471L187.367 331.84L185.078 333.443L187.916 331.817L185.564 330.471Z" fill="#F5F5F5"/>
<path opacity="0.45" d="M180.775 329.973C179.372 330.676 177.748 330.816 176.244 330.362L173.547 332.486L176.04 330.004C176.792 330.312 177.598 330.468 178.411 330.463C179.224 330.458 180.028 330.291 180.775 329.973Z" fill="#F5F5F5"/>
<path opacity="0.45" d="M172.304 326.137C171.752 326.358 171.155 326.443 170.563 326.386C169.971 326.329 169.401 326.132 168.902 325.811C168.118 325.11 168.612 324.363 169.835 323.71C168.51 324.574 168.643 325.344 169.553 325.865C169.966 326.105 170.431 326.244 170.909 326.27C171.378 326.283 171.847 326.239 172.304 326.137Z" fill="#F5F5F5"/>
<path opacity="0.45" d="M165.948 322.776C165.745 322.955 164.035 324.535 164.796 326.122C165.556 327.709 168.104 328.891 170.127 329.102C168.747 329.055 167.4 328.67 166.207 327.981C163.51 326.449 163.565 324.581 165.948 322.776Z" fill="#F5F5F5"/>
<path d="M195.879 317.284C194.21 314.701 191.902 312.585 189.176 311.138C178.2 304.867 160.473 304.867 149.521 311.138C146.795 312.585 144.487 314.701 142.818 317.284H141.305V322.971C141.509 326.923 144.237 330.844 149.505 333.863C160.481 340.134 178.208 340.134 189.16 333.863C194.429 330.844 197.173 326.923 197.376 322.971V317.284H195.879Z" fill="#B0C4CD"/>
<path opacity="0.25" d="M195.879 317.284C194.21 314.701 191.902 312.585 189.176 311.138C178.2 304.867 160.473 304.867 149.521 311.138C146.795 312.585 144.487 314.701 142.818 317.284H141.305V322.971C141.509 326.923 144.237 330.844 149.505 333.863C160.481 340.134 178.208 340.134 189.16 333.863C194.429 330.844 197.173 326.923 197.376 322.971V317.284H195.879Z" fill="black"/>
<path opacity="0.1" d="M169.348 306.431C162.175 306.431 154.993 307.987 149.521 311.138C146.795 312.585 144.487 314.701 142.818 317.284H141.305V322.971C141.509 326.923 144.237 330.844 149.505 333.863C154.993 336.975 162.159 338.57 169.333 338.57L169.348 306.431Z" fill="black"/>
<path opacity="0.1" d="M154.029 309.037C152.472 309.616 150.964 310.318 149.521 311.138C146.795 312.585 144.487 314.701 142.818 317.284H141.305V322.971C141.509 326.923 144.237 330.844 149.505 333.863C150.947 334.683 152.455 335.383 154.013 335.956L154.029 309.037Z" fill="black"/>
<path opacity="0.5" d="M184.664 309.037C186.221 309.616 187.729 310.318 189.172 311.138C191.898 312.585 194.206 314.701 195.875 317.284H197.388V322.971C197.185 326.923 194.441 330.844 189.172 333.863C187.73 334.683 186.222 335.383 184.664 335.956V309.037Z" fill="#B0C4CD"/>
<path d="M149.521 305.925C138.545 312.203 138.545 322.372 149.521 328.65C159.102 334.143 173.896 334.827 184.801 330.712L185.24 330.541C186.59 330.003 187.9 329.371 189.16 328.65C198.294 323.414 199.815 315.471 193.715 309.34C192.362 308.003 190.832 306.854 189.168 305.925C178.231 299.654 160.474 299.654 149.521 305.925Z" fill="#B0C4CD"/>
<path opacity="0.2" d="M149.521 305.925C138.545 312.203 138.545 322.372 149.521 328.65C159.102 334.143 173.896 334.827 184.801 330.712L185.24 330.541C186.59 330.003 187.9 329.371 189.16 328.65C198.294 323.414 199.815 315.471 193.715 309.34C192.362 308.003 190.832 306.854 189.168 305.925C178.231 299.654 160.474 299.654 149.521 305.925Z" fill="black"/>
<path opacity="0.5" d="M193.725 309.34C194.916 310.678 195.796 312.259 196.303 313.972C196.81 315.685 196.931 317.487 196.657 319.252C195.685 324.775 187.892 329.42 185.211 330.54C186.561 330.003 187.871 329.371 189.131 328.65C198.304 323.414 199.825 315.47 193.725 309.34Z" fill="#F5F5F5"/>
<path opacity="0.5" d="M144.964 325.203C143.773 323.866 142.893 322.284 142.386 320.571C141.88 318.859 141.759 317.056 142.032 315.292C143.004 309.768 150.797 305.123 153.479 304.003C152.129 304.542 150.819 305.174 149.559 305.893C140.386 311.199 138.865 319.104 144.964 325.203Z" fill="#F5F5F5"/>
<path d="M169.357 332.205C183.754 332.205 195.425 325.517 195.425 317.268C195.425 309.018 183.754 302.33 169.357 302.33C154.96 302.33 143.289 309.018 143.289 317.268C143.289 325.517 154.96 332.205 169.357 332.205Z" fill="#B0C4CD"/>
<path opacity="0.4" d="M169.357 332.205C183.754 332.205 195.425 325.517 195.425 317.268C195.425 309.018 183.754 302.33 169.357 302.33C154.96 302.33 143.289 309.018 143.289 317.268C143.289 325.517 154.96 332.205 169.357 332.205Z" fill="white"/>
<path opacity="0.2" d="M144.473 321.726C142.38 317.882 143.062 313.642 146.519 310.056C147.201 309.354 147.94 308.712 148.73 308.134C149.406 307.632 150.11 307.17 150.839 306.749C151.255 306.508 151.686 306.282 152.125 306.064C151.043 307.831 151.435 309.729 157.613 310.079C169.624 310.779 154.399 322.177 154.399 322.177C154.399 322.177 146.614 318.466 144.473 321.726Z" fill="white"/>
<path opacity="0.5" d="M145.709 318.575C143.906 318.372 143.012 316.536 143.718 314.467C144.424 312.397 146.446 310.88 148.25 311.083C150.053 311.285 150.947 313.121 150.249 315.19C149.551 317.26 147.513 318.777 145.709 318.575Z" fill="white"/>
<path d="M164.712 328.075C165.308 323.64 184.814 311.387 184.814 311.387C184.814 311.387 189.134 309.659 187.699 306.664C188.42 307.069 189.116 307.516 189.784 308.002C190.225 308.312 190.649 308.644 191.055 308.998C196.864 313.985 196.872 320.544 191.055 325.538C190.663 325.873 190.271 326.207 189.784 326.534C189.163 326.981 188.519 327.397 187.856 327.779C187.187 328.168 186.497 328.526 185.786 328.853C185.222 329.125 184.626 329.374 184.03 329.631C183.434 329.887 182.823 330.082 182.203 330.284C180.302 330.899 178.354 331.362 176.378 331.669L175.077 331.863C173.145 332.108 171.199 332.227 169.252 332.221C166.867 332.222 164.486 332.029 162.133 331.646C162.133 331.646 165.277 330.984 164.712 328.075Z" fill="#B0C4CD"/>
<path opacity="0.3" d="M164.712 328.075C165.308 323.64 184.814 311.387 184.814 311.387C184.814 311.387 189.134 309.659 187.699 306.664C188.42 307.069 189.116 307.516 189.784 308.002C190.225 308.312 190.649 308.644 191.055 308.998C196.864 313.985 196.872 320.544 191.055 325.538C190.663 325.873 190.271 326.207 189.784 326.534C189.163 326.981 188.519 327.397 187.856 327.779C187.187 328.168 186.497 328.526 185.786 328.853C185.222 329.125 184.626 329.374 184.03 329.631C183.434 329.887 182.823 330.082 182.203 330.284C180.302 330.899 178.354 331.362 176.378 331.669L175.077 331.863C173.145 332.108 171.199 332.227 169.252 332.221C166.867 332.222 164.486 332.029 162.133 331.646C162.133 331.646 165.277 330.984 164.712 328.075Z" fill="white"/>
<path d="M183.097 309.394C190.372 313.564 190.67 320.216 183.983 324.588C183.7 324.775 183.402 324.954 183.097 325.133C175.508 329.482 163.214 329.482 155.657 325.133C148.099 320.784 148.068 313.743 155.657 309.394C155.962 309.223 156.284 309.052 156.605 308.888C164.21 305.061 175.821 305.232 183.097 309.394Z" fill="#B0C4CD"/>
<path opacity="0.2" d="M183.097 309.394C190.372 313.564 190.67 320.216 183.983 324.588C183.7 324.775 183.402 324.954 183.097 325.133C175.508 329.482 163.214 329.482 155.657 325.133C148.099 320.784 148.068 313.743 155.657 309.394C155.962 309.223 156.284 309.052 156.605 308.888C164.21 305.061 175.821 305.232 183.097 309.394Z" fill="black"/>
<path d="M182.484 309.745C189.728 313.899 189.728 320.637 182.484 324.784C175.24 328.93 163.48 328.938 156.228 324.784C148.976 320.629 148.976 313.892 156.228 309.745C163.48 305.598 175.232 305.59 182.484 309.745Z" fill="#B0C4CD"/>
<path opacity="0.5" d="M182.484 309.745C189.728 313.899 189.728 320.637 182.484 324.784C175.24 328.93 163.48 328.938 156.228 324.784C148.976 320.629 148.976 313.892 156.228 309.745C163.48 305.598 175.232 305.59 182.484 309.745Z" fill="black"/>
<path d="M182.486 312.709C175.234 308.554 163.481 308.554 156.229 312.709C153.266 314.412 151.525 316.536 150.977 318.746C151.51 320.955 153.266 323.087 156.229 324.783C163.481 328.938 175.234 328.938 182.486 324.783C185.449 323.087 187.19 320.955 187.738 318.746C187.197 316.536 185.449 314.412 182.486 312.709Z" fill="#B0C4CD"/>
<path opacity="0.35" d="M182.486 312.709C175.234 308.554 163.481 308.554 156.229 312.709C153.266 314.412 151.525 316.536 150.977 318.746C151.51 320.955 153.266 323.087 156.229 324.783C163.481 328.938 175.234 328.938 182.486 324.783C185.449 323.087 187.19 320.955 187.738 318.746C187.197 316.536 185.449 314.412 182.486 312.709Z" fill="black"/>
<path d="M181.044 320.466C181.044 320.108 181.044 318.645 181.044 318.272C181.044 317.37 180.409 316.498 179.061 315.712H179.014C176.521 314.281 173.941 314.468 171.652 315.043C170.68 315.292 169.755 315.603 168.908 315.891C167.944 316.25 166.96 316.551 165.96 316.794C165.5 316.9 165.028 316.944 164.557 316.926C164.153 316.903 163.759 316.8 163.396 316.623L163.491 316.553L163.781 316.374C164.034 316.231 164.296 316.103 164.565 315.992C165.875 315.419 167.361 315.386 168.696 315.899L171.048 313.518V311.332C168.95 310.621 166.686 310.54 164.541 311.099C163.833 311.279 163.141 311.516 162.471 311.807L160.119 310.445L157.273 312.071V314.258L158.253 314.818C157.989 315.193 157.842 315.636 157.83 316.094C157.83 316.451 157.83 317.906 157.83 318.272C157.83 319.174 158.481 320.046 159.853 320.832C161.045 321.522 162.393 321.907 163.773 321.952C164.032 321.952 164.298 321.952 164.557 321.952C165.999 321.85 167.419 321.546 168.775 321.049L169.559 320.769L167.168 323.158V325.344C168.644 325.898 170.218 326.149 171.795 326.081C173.372 326.013 174.918 325.627 176.34 324.947L178.692 326.293L181.538 324.667V322.481L180.558 321.921C180.871 321.499 181.042 320.99 181.044 320.466ZM175.055 320.279C174.842 320.402 174.622 320.511 174.396 320.606C172.919 321.239 171.25 321.264 169.755 320.676C171.981 319.898 173.832 319.213 175.415 320.054C175.3 320.137 175.18 320.212 175.055 320.279Z" fill="#B0C4CD"/>
<path d="M171.699 315.012C170.727 315.261 169.802 315.572 168.955 315.86C167.991 316.218 167.007 316.52 166.007 316.763C165.547 316.868 165.075 316.913 164.604 316.895C164.128 316.868 163.666 316.73 163.255 316.49C162.338 315.969 162.205 315.199 163.537 314.335L163.828 314.156C164.081 314.013 164.343 313.886 164.612 313.775C165.922 313.202 167.408 313.168 168.743 313.682L171.095 311.301C168.996 310.59 166.733 310.509 164.588 311.068C163.88 311.248 163.188 311.484 162.518 311.776L160.166 310.414L157.32 312.04L159.672 313.386C157.32 315.183 157.234 317.05 159.923 318.591C161.116 319.282 162.463 319.667 163.843 319.711C164.102 319.711 164.368 319.711 164.627 319.711C166.069 319.609 167.489 319.305 168.845 318.809C171.566 317.906 173.776 316.84 175.611 317.891C176.842 318.599 176.505 319.486 175.148 320.225C174.936 320.347 174.716 320.457 174.49 320.551C173.748 320.867 172.949 321.034 172.142 321.04C171.334 321.047 170.533 320.894 169.786 320.59L167.293 323.072C168.769 323.626 170.343 323.877 171.92 323.809C173.497 323.741 175.044 323.355 176.466 322.675L178.818 324.021L181.664 322.395L179.312 321.049C181.664 319.237 181.946 317.26 179.186 315.658H179.139C176.528 314.25 173.949 314.436 171.699 315.012Z" fill="#B0C4CD"/>
<g opacity="0.3">
<path d="M171.699 315.012C170.727 315.261 169.802 315.572 168.955 315.86C167.991 316.218 167.007 316.52 166.007 316.763C165.547 316.868 165.075 316.913 164.604 316.895C164.128 316.868 163.666 316.73 163.255 316.49C162.338 315.969 162.205 315.199 163.537 314.335L163.828 314.156C164.081 314.013 164.343 313.886 164.612 313.775C165.922 313.202 167.408 313.168 168.743 313.682L171.095 311.301C168.996 310.59 166.733 310.509 164.588 311.068C163.88 311.248 163.188 311.484 162.518 311.776L160.166 310.414L157.32 312.04L159.672 313.386C157.32 315.183 157.234 317.05 159.923 318.591C161.116 319.282 162.463 319.667 163.843 319.711C164.102 319.711 164.368 319.711 164.627 319.711C166.069 319.609 167.489 319.305 168.845 318.809C171.566 317.906 173.776 316.84 175.611 317.891C176.842 318.599 176.505 319.486 175.148 320.225C174.936 320.347 174.716 320.457 174.49 320.551C173.748 320.867 172.949 321.034 172.142 321.04C171.334 321.047 170.533 320.894 169.786 320.59L167.293 323.072C168.769 323.626 170.343 323.877 171.92 323.809C173.497 323.741 175.044 323.355 176.466 322.675L178.818 324.021L181.664 322.395L179.312 321.049C181.664 319.237 181.946 317.26 179.186 315.658H179.139C176.528 314.25 173.949 314.436 171.699 315.012Z" fill="white"/>
</g>
<path opacity="0.45" d="M157.25 312.048L160.112 310.756L162.464 311.783L160.088 310.422L157.25 312.048Z" fill="#F5F5F5"/>
<path opacity="0.45" d="M164.203 311.199C166.228 310.799 168.319 310.871 170.31 311.409L168.664 313.743L171.016 311.363C168.815 310.618 166.437 310.561 164.203 311.199Z" fill="#F5F5F5"/>
<path opacity="0.45" d="M179.018 315.681H179.065C181.825 317.284 181.55 319.26 179.19 321.073C181.284 318.809 180.907 317.229 178.634 315.922C176.481 314.839 174.023 314.508 171.656 314.981C173.946 314.436 176.525 314.25 179.018 315.681Z" fill="#F5F5F5"/>
<path opacity="0.45" d="M179.189 321.104L180.992 322.481L178.695 324.075L181.541 322.449L179.189 321.104Z" fill="#F5F5F5"/>
<path opacity="0.45" d="M174.393 320.605C172.992 321.309 171.372 321.451 169.869 321.002L167.172 323.126L169.665 320.644C170.416 320.951 171.221 321.106 172.033 321.099C172.845 321.093 173.647 320.925 174.393 320.605Z" fill="#F5F5F5"/>
<path opacity="0.45" d="M165.939 316.77C165.388 316.992 164.791 317.079 164.198 317.024C163.606 316.968 163.036 316.772 162.536 316.451C161.713 315.751 162.246 314.996 163.469 314.343C162.137 315.206 162.27 315.977 163.187 316.498C163.598 316.737 164.06 316.876 164.536 316.902C165.007 316.92 165.479 316.876 165.939 316.77Z" fill="#F5F5F5"/>
<path opacity="0.45" d="M159.577 313.417C159.373 313.588 157.664 315.175 158.417 316.755C159.17 318.334 161.725 319.524 163.748 319.742C162.368 319.698 161.021 319.313 159.828 318.622C157.139 317.081 157.186 315.214 159.577 313.417Z" fill="#F5F5F5"/>
<path d="M144.579 314.459L145.285 309.13L145.991 314.459L155.281 314.864L145.991 315.268L145.285 320.59L144.579 315.268L135.281 314.864L144.579 314.459Z" fill="white"/>
<g opacity="0.3">
<path d="M312.64 325.267C312.602 325.277 312.561 325.277 312.522 325.267L297.344 316.569C297.308 316.548 297.279 316.519 297.258 316.483C297.237 316.448 297.227 316.408 297.227 316.367C297.227 316.327 297.238 316.288 297.259 316.254C297.28 316.219 297.309 316.191 297.344 316.172L316.325 305.28C316.36 305.261 316.399 305.251 316.438 305.251C316.478 305.251 316.517 305.261 316.552 305.28L331.738 313.978C331.774 313.999 331.804 314.028 331.824 314.064C331.845 314.099 331.856 314.139 331.856 314.18C331.855 314.221 331.844 314.261 331.823 314.297C331.803 314.332 331.774 314.362 331.738 314.383L312.758 325.275C312.719 325.284 312.678 325.281 312.64 325.267ZM297.924 316.335L312.632 324.769L331.142 314.165L316.435 305.755L297.924 316.335Z" fill="#B0C4CD"/>
</g>
<path d="M312.634 322.863V244.884L301.25 238.364V316.343L312.634 322.863Z" fill="#B0C4CD"/>
<path opacity="0.2" d="M312.634 322.863V244.884L301.25 238.364V316.343L312.634 322.863Z" fill="black"/>
<path d="M312.641 322.863L327.827 314.165V236.193L312.641 244.884V322.863Z" fill="#B0C4CD"/>
<path d="M327.82 236.193L316.436 229.666L301.25 238.364L312.634 244.884L327.82 236.193Z" fill="#B0C4CD"/>
<path opacity="0.25" d="M327.82 236.193L316.436 229.666L301.25 238.364L312.634 244.884L327.82 236.193Z" fill="white"/>
<path opacity="0.3" d="M327.82 236.193L312.485 244.58L307.506 241.818L301.234 238.364L307.381 242.013L312.414 244.993C312.297 246.689 312.265 315.969 312.289 317.666C312.297 319.403 312.407 321.138 312.618 322.863C312.832 321.138 312.944 319.403 312.955 317.666C312.955 316.024 312.955 246.797 312.83 245.156L327.82 236.193Z" fill="white"/>
<g opacity="0.3">
<path d="M284.179 341.581C284.14 341.59 284.1 341.59 284.061 341.581L268.914 332.844C268.879 332.825 268.85 332.797 268.829 332.763C268.809 332.728 268.797 332.69 268.797 332.65C268.797 332.609 268.808 332.568 268.828 332.533C268.849 332.497 268.879 332.468 268.914 332.447L287.895 321.555C287.931 321.536 287.972 321.526 288.013 321.526C288.054 321.526 288.094 321.536 288.13 321.555L303.309 330.253C303.343 330.275 303.372 330.305 303.393 330.34C303.413 330.375 303.425 330.415 303.426 330.456C303.426 330.497 303.415 330.537 303.395 330.573C303.374 330.608 303.344 330.638 303.309 330.658L284.328 341.55C284.283 341.575 284.231 341.586 284.179 341.581ZM269.463 332.65L284.179 341.075L302.681 330.471L287.974 322.046L269.463 332.65Z" fill="#B0C4CD"/>
</g>
<path d="M284.181 339.17L284.173 292.389L272.789 285.861V332.65L284.181 339.17Z" fill="#B0C4CD"/>
<path opacity="0.1" d="M284.181 339.17L284.173 292.389L272.789 285.861V332.65L284.181 339.17Z" fill="white"/>
<path d="M284.18 339.17L299.358 330.472V283.69L284.172 292.388L284.18 339.17Z" fill="#B0C4CD"/>
<path opacity="0.3" d="M284.18 339.17L299.358 330.472V283.69L284.172 292.388L284.18 339.17Z" fill="white"/>
<path d="M299.359 283.691L287.975 277.163L272.789 285.861L284.173 292.389L299.359 283.691Z" fill="#B0C4CD"/>
<path opacity="0.55" d="M299.359 283.691L287.975 277.163L272.789 285.861L284.173 292.389L299.359 283.691Z" fill="white"/>
<path opacity="0.3" d="M284.377 292.669L299.359 283.69L284.024 292.085C282.37 291.151 280.708 290.241 279.045 289.323L272.773 285.861L278.92 289.51C280.598 290.516 282.278 291.512 283.961 292.497C283.906 294.256 283.851 302.744 283.836 304.502C283.82 306.26 283.836 326.605 283.836 328.402C283.836 330.199 283.836 331.989 283.938 333.786C284.04 335.583 284.055 337.38 284.173 339.17C284.283 337.38 284.358 335.586 284.4 333.786C284.463 331.989 284.494 330.199 284.502 328.402C284.51 326.605 284.502 306.291 284.502 304.502C284.502 302.713 284.432 294.365 284.377 292.669Z" fill="white"/>
<g opacity="0.3">
<path d="M255.711 357.881C255.672 357.888 255.632 357.888 255.593 357.881L240.407 349.183C240.373 349.161 240.344 349.131 240.325 349.096C240.306 349.06 240.296 349.021 240.297 348.98C240.295 348.94 240.305 348.9 240.324 348.864C240.343 348.829 240.372 348.799 240.407 348.778L259.387 337.886C259.422 337.863 259.463 337.851 259.505 337.851C259.547 337.851 259.588 337.863 259.623 337.886L274.801 346.584C274.836 346.603 274.865 346.631 274.886 346.666C274.907 346.7 274.918 346.739 274.919 346.779C274.919 346.82 274.908 346.86 274.887 346.895C274.866 346.931 274.837 346.96 274.801 346.981L255.828 357.873C255.79 357.882 255.75 357.885 255.711 357.881ZM240.995 348.949L255.711 357.383L274.221 346.771L259.505 338.353L240.995 348.949Z" fill="#B0C4CD"/>
</g>
<path d="M255.712 355.476L255.704 339.037L244.32 332.518V348.957L255.712 355.476Z" fill="#B0C4CD"/>
<path opacity="0.45" d="M255.712 355.476L255.704 339.037L244.32 332.518V348.957L255.712 355.476Z" fill="black"/>
<path d="M255.711 355.476L270.889 346.786V330.339L255.703 339.037L255.711 355.476Z" fill="#B0C4CD"/>
<path opacity="0.3" d="M255.711 355.476L270.889 346.786V330.339L255.703 339.037L255.711 355.476Z" fill="black"/>
<path d="M270.89 330.339L259.506 323.819L244.32 332.517L255.704 339.037L270.89 330.339Z" fill="#B0C4CD"/>
<path opacity="0.15" d="M270.89 330.339L259.506 323.819L244.32 332.517L255.704 339.037L270.89 330.339Z" fill="black"/>
<path opacity="0.3" d="M270.89 330.339L255.586 338.733L250.608 335.972L244.336 332.517L250.482 336.166L255.516 339.146C255.398 340.173 255.367 351.244 255.39 352.278C255.402 353.352 255.515 354.423 255.727 355.476C255.938 354.423 256.048 353.352 256.057 352.278C256.057 351.298 256.057 340.282 255.947 339.301L270.89 330.339Z" fill="white"/>
<g opacity="0.3">
<path d="M341.101 308.96C341.062 308.971 341.022 308.971 340.983 308.96L325.805 300.231C325.769 300.21 325.74 300.181 325.719 300.145C325.698 300.11 325.687 300.07 325.688 300.029C325.689 299.988 325.7 299.948 325.721 299.913C325.741 299.878 325.77 299.848 325.805 299.826L344.778 288.934C344.814 288.915 344.854 288.905 344.896 288.905C344.937 288.905 344.977 288.915 345.013 288.934L360.199 297.632C360.234 297.653 360.263 297.683 360.282 297.719C360.301 297.754 360.311 297.794 360.309 297.835C360.309 297.875 360.299 297.914 360.28 297.95C360.261 297.985 360.233 298.015 360.199 298.037L341.219 308.929C341.183 308.95 341.142 308.961 341.101 308.96ZM326.385 300.029L341.101 308.462L359.611 297.858L344.896 289.417L326.385 300.029Z" fill="#B0C4CD"/>
</g>
<path d="M341.102 306.556V198.616L329.719 192.089V300.029L341.102 306.556Z" fill="#B0C4CD"/>
<path opacity="0.3" d="M341.102 306.556V198.616L329.719 192.089V300.029L341.102 306.556Z" fill="white"/>
<path d="M341.102 306.556L356.28 297.858L356.288 189.918L341.102 198.616V306.556Z" fill="#B0C4CD"/>
<path opacity="0.55" d="M341.102 306.556L356.28 297.858L356.288 189.918L341.102 198.616V306.556Z" fill="white"/>
<path d="M356.289 189.918L344.897 183.391L329.719 192.089L341.102 198.616L356.289 189.918Z" fill="#B0C4CD"/>
<path opacity="0.75" d="M356.289 189.918L344.897 183.391L329.719 192.089L341.102 198.616L356.289 189.918Z" fill="white"/>
<path opacity="0.3" d="M341.306 198.896L356.289 189.918L340.946 198.305C339.289 197.382 337.629 196.464 335.967 195.551L329.695 192.089L335.834 195.737C337.512 196.741 339.19 197.737 340.883 198.725C340.828 200.717 340.773 225.714 340.758 227.713C340.742 229.713 340.758 292.349 340.758 294.38C340.758 296.411 340.797 298.433 340.859 300.464C340.922 302.495 340.977 304.525 341.095 306.556C341.212 304.525 341.283 302.495 341.33 300.464C341.377 298.433 341.416 296.411 341.432 294.38C341.447 292.349 341.432 229.736 341.432 227.713C341.432 225.69 341.353 200.833 341.306 198.896Z" fill="white"/>
<path opacity="0.5" d="M76.8105 132.135L32.8281 157.334L54.8193 117.244L76.8105 132.135Z" fill="#B0C4CD"/>
<path opacity="0.3" d="M76.8105 150.465L32.8281 175.665L54.8193 135.574L76.8105 150.465Z" fill="#B0C4CD"/>
<path opacity="0.15" d="M76.8105 168.786L32.8281 193.986L54.8193 153.896L76.8105 168.786Z" fill="#B0C4CD"/>
<path d="M123.359 70.6195V60.591L131.858 59.7041C132.027 59.681 132.199 59.7168 132.344 59.8053L136.797 62.3649C136.905 62.4225 136.998 62.5044 137.068 62.604C137.138 62.7036 137.184 62.8181 137.201 62.9383C137.219 63.0586 137.207 63.1812 137.169 63.2965C137.13 63.4117 137.064 63.5163 136.977 63.6019L127.789 73.1869L123.359 70.6195Z" fill="#B0C4CD"/>
<path d="M96.7031 93.2434V62.2401C96.7154 61.9937 96.7864 61.7538 96.9105 61.5401C97.0345 61.3264 97.208 61.1449 97.4166 61.0108L122.912 46.4311C123.132 46.3204 123.375 46.2627 123.622 46.2627C123.868 46.2627 124.111 46.3204 124.331 46.4311L128.298 48.7651C128.505 48.9001 128.677 49.0819 128.8 49.2956C128.923 49.5092 128.993 49.7487 129.004 49.9944V81.021C128.992 81.2673 128.921 81.5073 128.797 81.721C128.673 81.9347 128.499 82.1161 128.29 82.2502L102.795 96.8222C102.575 96.9329 102.332 96.9906 102.085 96.9906C101.839 96.9906 101.596 96.9329 101.376 96.8222L97.4087 94.4882C97.1995 94.3517 97.0263 94.1674 96.9035 93.9509C96.7807 93.7343 96.712 93.4917 96.7031 93.2434Z" fill="#B0C4CD"/>
<path opacity="0.15" d="M102.701 96.8535C102.364 96.9857 102.105 96.799 102.105 96.3944V65.3522C102.113 65.1046 102.186 64.8633 102.316 64.652L96.9226 61.54C96.8002 61.7454 96.7327 61.9784 96.7266 62.2169V93.2435C96.7379 93.4892 96.8078 93.7287 96.9305 93.9423C97.0531 94.156 97.225 94.3378 97.4322 94.4728L101.399 96.8068C101.6 96.9066 101.82 96.9625 102.045 96.9705C102.269 96.9786 102.493 96.9387 102.701 96.8535Z" fill="black"/>
<path d="M136.331 62.2398L129.001 63.0178V49.9708C129.001 49.5195 128.679 49.3406 128.287 49.5662L102.792 64.1459C102.584 64.2793 102.411 64.4595 102.287 64.6717C102.163 64.884 102.092 65.1224 102.078 65.3674V96.394C102.078 96.8453 102.4 97.0242 102.792 96.7986L128.287 82.2266C128.496 82.0925 128.669 81.9111 128.793 81.6974C128.917 81.4837 128.988 81.2437 129.001 80.9974V71.9493L136.99 63.6013C137.125 63.4906 137.218 63.3383 137.256 63.1686C137.293 62.9989 137.273 62.8216 137.197 62.665C137.121 62.5083 136.995 62.3814 136.838 62.3043C136.681 62.2273 136.503 62.2046 136.331 62.2398Z" fill="#B0C4CD"/>
<path opacity="0.35" d="M136.331 62.2398L129.001 63.0178V49.9708C129.001 49.5195 128.679 49.3406 128.287 49.5662L102.792 64.1459C102.584 64.2793 102.411 64.4595 102.287 64.6717C102.163 64.884 102.092 65.1224 102.078 65.3674V96.394C102.078 96.8453 102.4 97.0242 102.792 96.7986L128.287 82.2266C128.496 82.0925 128.669 81.9111 128.793 81.6974C128.917 81.4837 128.988 81.2437 129.001 80.9974V71.9493L136.99 63.6013C137.125 63.4906 137.218 63.3383 137.256 63.1686C137.293 62.9989 137.273 62.8216 137.197 62.665C137.121 62.5083 136.995 62.3814 136.838 62.3043C136.681 62.2273 136.503 62.2046 136.331 62.2398Z" fill="white"/>
<path d="M122.967 76.2904C122.997 76.2355 123.013 76.174 123.013 76.1114C123.013 76.0489 122.997 75.9874 122.967 75.9325L121.877 74.7266C121.746 74.52 121.665 74.2855 121.642 74.0422C121.619 73.7989 121.654 73.5536 121.744 73.3262C121.876 72.7709 122.187 72.2737 122.63 71.9102L124.378 70.6499C124.489 70.5567 124.561 70.4267 124.582 70.2842C124.676 69.5462 124.723 68.803 124.723 68.0591C124.723 67.362 124.679 66.6656 124.59 65.9741C124.59 65.8574 124.488 65.8029 124.386 65.8418L122.646 66.5732C122.562 66.6144 122.471 66.6367 122.378 66.6384C122.285 66.6402 122.193 66.6214 122.108 66.5835C122.023 66.5455 121.948 66.4892 121.888 66.4188C121.827 66.3484 121.784 66.2656 121.76 66.1764C121.76 66.1764 121.76 66.1764 121.76 66.1375C121.604 65.62 121.655 65.0631 121.901 64.5815L122.991 62.1386C123.02 62.0819 123.035 62.0193 123.035 61.9557C123.035 61.8922 123.02 61.8296 122.991 61.7729C122.432 60.9741 121.646 60.3591 120.733 60.0068C120.647 60.0068 120.537 60.0068 120.458 60.1624L119.079 62.3953C118.969 62.6093 118.81 62.7952 118.616 62.9382C118.421 63.0813 118.196 63.1777 117.957 63.22C117.573 63.22 117.307 62.9166 117.268 62.442L117.072 60.2402C117.072 60.108 116.985 60.0535 116.883 60.0846C115.699 60.511 114.599 61.1375 113.63 61.9363C113.523 62.0339 113.456 62.1667 113.442 62.3097L113.238 64.7371C113.177 65.3144 112.936 65.8584 112.548 66.2931C112.164 66.7132 111.764 66.8921 111.427 66.7443L109.992 66.1297C109.906 66.1297 109.796 66.1297 109.71 66.2775C108.796 67.6412 108.024 69.0931 107.405 70.611C107.375 70.6675 107.36 70.7302 107.36 70.7938C107.36 70.8575 107.375 70.9202 107.405 70.9766L108.495 72.1748C108.625 72.382 108.704 72.6168 108.726 72.8601C108.748 73.1034 108.711 73.3483 108.62 73.5752C108.624 73.5905 108.624 73.6065 108.62 73.6218C108.487 74.1702 108.179 74.6613 107.742 75.0222L105.986 76.2904C105.874 76.3819 105.804 76.5133 105.79 76.656C105.693 77.3965 105.643 78.1423 105.641 78.8889C105.637 79.5786 105.685 80.2677 105.782 80.9506C105.782 81.0751 105.876 81.1295 105.978 81.0829L107.726 80.3593C107.811 80.3183 107.903 80.2965 107.997 80.2957C108.091 80.2949 108.184 80.315 108.269 80.3546C108.354 80.3941 108.429 80.4522 108.488 80.5244C108.548 80.5966 108.59 80.6811 108.612 80.7717C108.764 81.2894 108.714 81.8452 108.471 82.3277L107.405 84.8017C107.376 84.8597 107.361 84.9236 107.361 84.9884C107.361 85.0532 107.376 85.1171 107.405 85.1751C107.98 85.965 108.78 86.5664 109.702 86.9023C109.788 86.9023 109.898 86.9023 109.976 86.7389L111.348 84.5061C111.465 84.2998 111.627 84.1226 111.822 83.9878C112.018 83.853 112.242 83.7641 112.477 83.7281C112.861 83.7281 113.12 84.0159 113.167 84.5061L113.363 86.7078C113.363 86.8323 113.449 86.9023 113.551 86.8634C114.117 86.6575 114.66 86.3969 115.174 86.0854C115.746 85.7567 116.291 85.3848 116.805 84.9729C116.91 84.874 116.976 84.7419 116.993 84.5994L117.197 82.1721C117.26 81.5968 117.498 81.0542 117.879 80.6161C118.271 80.1882 118.663 80.0092 119.008 80.157L120.372 80.8261C120.451 80.8261 120.568 80.8261 120.647 80.6783C121.565 79.296 122.343 77.8261 122.967 76.2904ZM115.182 79.8303C112.524 81.3396 110.368 79.7136 110.376 76.197C110.384 72.6805 112.54 68.5726 115.198 67.0633C117.856 65.554 120.012 67.1878 120.004 70.7043C119.996 74.2209 117.832 78.3132 115.182 79.8303Z" fill="white"/>
</svg>
