<svg width="24" height="22" viewBox="0 0 24 22" fill="none" xmlns="http://www.w3.org/2000/svg">
<path d="M22.6501 13.3892L12.0001 21.1292L1.35014 13.3892C1.20737 13.2842 1.10146 13.1368 1.04758 12.9679C0.993694 12.7991 0.994592 12.6175 1.05014 12.4492L2.27014 8.66923L4.71014 1.15923C4.73381 1.09804 4.77148 1.04324 4.82014 0.999229C4.89938 0.92685 5.00282 0.886719 5.11014 0.886719C5.21746 0.886719 5.32091 0.92685 5.40014 0.999229C5.45153 1.04889 5.48939 1.11085 5.51014 1.17923L7.95014 8.66923H16.0501L18.4901 1.15923C18.5138 1.09804 18.5515 1.04324 18.6001 0.999229C18.6794 0.92685 18.7828 0.886719 18.8901 0.886719C18.9975 0.886719 19.1009 0.92685 19.1801 0.999229C19.2315 1.04889 19.2694 1.11085 19.2901 1.17923L21.7301 8.68923L23.0001 12.4492C23.0507 12.6227 23.0439 12.8079 22.9809 12.9772C22.9178 13.1465 22.8018 13.291 22.6501 13.3892V13.3892Z" stroke="white" stroke-linecap="round" stroke-linejoin="round"/>
</svg>
