<svg width="452" height="308" viewBox="0 0 452 308" fill="none" xmlns="http://www.w3.org/2000/svg">
<g clip-path="url(#clip0_792_1039)">
<path d="M269.022 299.787C268.954 302.337 268.526 304.866 267.752 307.297C267.735 307.353 267.716 307.409 267.697 307.465H262.958C262.962 307.415 262.968 307.358 262.973 307.297C263.289 303.667 261.483 281.834 259.305 278.056C259.496 278.362 269.39 288.252 269.022 299.787Z" fill="#E6E6E6"/>
<path d="M268.663 307.297C268.624 307.353 268.582 307.41 268.54 307.465H264.984C265.011 307.417 265.043 307.361 265.079 307.297C265.666 306.238 267.405 303.07 269.019 299.787C270.752 296.258 272.344 292.596 272.21 291.271C272.252 291.569 273.452 300.683 268.663 307.297Z" fill="#E6E6E6"/>
<path d="M451.277 211.504C451.094 211.504 450.918 211.434 450.784 211.309C450.65 211.184 450.568 211.013 450.555 210.83C449.957 202.706 446.31 195.106 440.345 189.553C434.38 184 426.536 180.902 418.384 180.881C417.406 180.881 416.381 180.93 415.337 181.028C415.199 181.041 415.06 181.013 414.936 180.949C414.813 180.885 414.71 180.787 414.641 180.667C410.899 174.123 405.312 168.825 398.576 165.434C391.84 162.043 384.254 160.709 376.765 161.599C369.275 162.489 362.214 165.564 356.462 170.439C350.71 175.314 346.522 181.774 344.421 189.012C344.376 189.165 344.282 189.299 344.153 189.394C344.024 189.488 343.868 189.538 343.709 189.535L343.466 189.528C343.339 189.523 343.212 189.519 343.084 189.519C336.893 189.538 330.895 191.672 326.085 195.566C321.275 199.461 317.942 204.881 316.639 210.929C316.605 211.092 316.516 211.237 316.387 211.342C316.257 211.447 316.096 211.504 315.93 211.504H254.967C254.775 211.504 254.59 211.428 254.454 211.292C254.319 211.156 254.242 210.972 254.242 210.78C254.242 210.587 254.319 210.403 254.454 210.267C254.59 210.132 254.775 210.055 254.967 210.055H315.348C316.83 203.811 320.371 198.247 325.402 194.259C330.434 190.271 336.662 188.091 343.084 188.07C343.119 188.07 343.154 188.071 343.189 188.071C345.649 180.101 350.533 173.094 357.161 168.024C364.086 162.718 372.576 159.854 381.302 159.882C388.246 159.895 395.066 161.715 401.092 165.163C407.117 168.611 412.14 173.568 415.665 179.545C416.594 179.47 417.507 179.432 418.384 179.432C426.903 179.455 435.099 182.692 441.332 188.495C447.566 194.298 451.376 202.239 452.001 210.729C452.008 210.824 451.996 210.919 451.966 211.009C451.936 211.099 451.888 211.183 451.825 211.255C451.763 211.326 451.687 211.385 451.602 211.428C451.517 211.47 451.424 211.495 451.329 211.502C451.312 211.503 451.295 211.504 451.277 211.504Z" fill="#E5E5E5"/>
<path d="M416.37 223.162H291.215C291.023 223.162 290.839 223.085 290.704 222.95C290.568 222.814 290.492 222.63 290.492 222.438C290.492 222.246 290.568 222.063 290.704 221.927C290.839 221.791 291.023 221.714 291.215 221.714H416.37C416.562 221.714 416.745 221.791 416.881 221.927C417.016 222.063 417.093 222.246 417.093 222.438C417.093 222.63 417.016 222.814 416.881 222.95C416.745 223.085 416.562 223.162 416.37 223.162Z" fill="#E5E5E5"/>
<path d="M327.609 236.347H277.561C277.369 236.347 277.184 236.271 277.048 236.135C276.912 235.999 276.836 235.815 276.836 235.623C276.836 235.431 276.912 235.246 277.048 235.111C277.184 234.975 277.369 234.898 277.561 234.898H327.609C327.801 234.898 327.986 234.975 328.122 235.111C328.258 235.246 328.334 235.431 328.334 235.623C328.334 235.815 328.258 235.999 328.122 236.135C327.986 236.271 327.801 236.347 327.609 236.347Z" fill="#E5E5E5"/>
<path d="M231.956 61.149C231.686 61.1487 231.425 61.0459 231.227 60.8614C231.029 60.6769 230.909 60.4243 230.89 60.1544C230.19 50.6536 225.926 41.7672 218.95 35.2735C211.975 28.7797 202.803 25.1576 193.269 25.132C192.128 25.132 190.93 25.1899 189.707 25.3043C189.502 25.3235 189.296 25.2834 189.114 25.1889C188.931 25.0943 188.78 24.9493 188.678 24.7711C184.299 17.1116 177.759 10.9104 169.875 6.94137C161.991 2.97238 153.112 1.41139 144.346 2.45322C135.58 3.49504 127.314 7.09354 120.582 12.7996C113.85 18.5057 108.948 26.0667 106.489 34.539C106.424 34.766 106.285 34.965 106.095 35.1047C105.904 35.2443 105.672 35.3167 105.436 35.3105L105.152 35.3019C105.004 35.2969 104.856 35.2917 104.707 35.2917C97.4755 35.3143 90.4695 37.8069 84.851 42.3557C79.2326 46.9045 75.3395 53.2362 73.8178 60.3001C73.7671 60.5402 73.6354 60.7555 73.4447 60.9101C73.2541 61.0646 73.016 61.149 72.7705 61.149H1.07024C0.786396 61.149 0.514175 61.0363 0.313466 60.8357C0.112756 60.6352 0 60.3631 0 60.0795C0 59.7959 0.112756 59.5239 0.313466 59.3233C0.514175 59.1227 0.786396 59.0101 1.07024 59.0101H71.914C73.6974 51.6626 77.8924 45.1237 83.8295 40.437C89.7665 35.7503 97.1035 33.1858 104.67 33.1528C107.363 24.4465 112.529 16.7092 119.54 10.8809C126.55 5.0526 135.104 1.38414 144.161 0.321191C153.219 -0.741758 162.39 0.846557 170.561 4.89317C178.732 8.93979 185.552 15.2705 190.191 23.1163C191.243 23.0343 192.276 22.9931 193.269 22.9931C203.344 23.0203 213.037 26.8482 220.408 33.7108C227.78 40.5734 232.286 49.9644 233.025 60.0046C233.035 60.1447 233.017 60.2854 232.972 60.4186C232.928 60.5518 232.858 60.6749 232.765 60.781C232.673 60.887 232.561 60.9738 232.435 61.0365C232.309 61.0992 232.172 61.1365 232.032 61.1463C232.007 61.1482 231.981 61.149 231.956 61.149Z" fill="#E5E5E5"/>
<path d="M219.223 74.8615H43.7031C43.4192 74.8615 43.147 74.7489 42.9463 74.5483C42.7456 74.3478 42.6328 74.0757 42.6328 73.7921C42.6328 73.5085 42.7456 73.2364 42.9463 73.0359C43.147 72.8353 43.4192 72.7227 43.7031 72.7227H219.223C219.506 72.7227 219.779 72.8353 219.979 73.0359C220.18 73.2364 220.293 73.5085 220.293 73.7921C220.293 74.0757 220.18 74.3478 219.979 74.5483C219.779 74.7489 219.506 74.8615 219.223 74.8615Z" fill="#E5E5E5"/>
<path d="M86.5116 90.3684H27.6484C27.3645 90.3684 27.0923 90.2557 26.8916 90.0551C26.6909 89.8546 26.5781 89.5826 26.5781 89.2989C26.5781 89.0153 26.6909 88.7433 26.8916 88.5427C27.0923 88.3422 27.3645 88.2295 27.6484 88.2295H86.5116C86.7955 88.2295 87.0677 88.3422 87.2684 88.5427C87.4691 88.7433 87.5819 89.0153 87.5819 89.2989C87.5819 89.5826 87.4691 89.8546 87.2684 90.0551C87.0677 90.2557 86.7955 90.3684 86.5116 90.3684Z" fill="#E5E5E5"/>
<path d="M197.443 295.032L199.69 289.256L178.465 277.847L175.148 286.371L197.443 295.032Z" fill="#FFB7B7"/>
<path d="M209.483 279.965C208.53 279.595 207.514 279.415 206.492 279.437C205.47 279.46 204.462 279.683 203.527 280.094C202.591 280.506 201.746 281.097 201.039 281.836C200.333 282.574 199.779 283.444 199.409 284.396L197.893 288.289L195.556 294.299L194.984 295.773L202.474 298.684L209.718 280.058L209.483 279.965Z" fill="#2F2E41"/>
<path d="M195.555 283.916L194.578 286.506L192.139 292.97L192.08 293.131C185.866 293.929 179.054 292.365 172.753 289.935C170.232 288.963 167.763 287.862 165.355 286.637C161.792 284.837 158.602 282.939 156.057 281.315C152.224 278.857 149.855 277.012 149.855 277.012C149.855 277.012 149.229 277.577 148.096 278.546C146.578 279.844 144.152 281.871 141.079 284.257C139.907 285.174 138.648 286.133 137.303 287.134C127.388 294.482 114.664 274.873 114.664 274.873C114.664 274.873 118.243 272.597 119.177 272.155C122.188 270.732 129.26 267.373 135.361 264.389C138.505 262.849 141.387 261.406 143.322 260.38C150.173 256.734 158.691 263.632 158.691 263.632L195.555 283.916Z" fill="#2F2E41"/>
<path opacity="0.14" d="M195.555 283.916L194.578 286.506L192.139 292.97L192.08 293.131C185.866 293.929 179.054 292.365 172.753 289.935C170.232 288.963 167.763 287.862 165.355 286.637C161.792 284.837 158.602 282.939 156.057 281.315C152.224 278.857 149.855 277.012 149.855 277.012C149.855 277.012 149.229 277.577 148.096 278.546C146.578 279.844 144.152 281.871 141.079 284.257C139.907 285.174 138.648 286.133 137.303 287.134C127.388 294.482 114.664 274.873 114.664 274.873C114.664 274.873 118.243 272.597 119.177 272.155C122.188 270.732 129.26 267.373 135.361 264.389C138.505 262.849 141.387 261.406 143.322 260.38C150.173 256.734 158.691 263.632 158.691 263.632L195.555 283.916Z" fill="black"/>
<path d="M124.284 245.426C123.601 245.546 122.953 245.814 122.385 246.211C121.817 246.608 121.343 247.125 120.996 247.726C120.65 248.326 120.439 248.994 120.379 249.685C120.319 250.375 120.412 251.07 120.65 251.721L112.672 259.053L115.948 264.984L127.069 254.472C128.137 254 128.994 253.153 129.478 252.091C129.963 251.03 130.041 249.828 129.697 248.713C129.354 247.598 128.614 246.647 127.616 246.042C126.618 245.436 125.433 245.217 124.284 245.426Z" fill="#FFB7B7"/>
<path d="M100.277 278.762C99.9171 278.762 99.5562 278.746 99.1948 278.715C97.0427 278.536 94.9715 277.813 93.1756 276.614C91.3797 275.416 89.918 273.781 88.9276 271.863L76.1466 247.282C75.3091 245.671 75.1252 243.8 75.6333 242.057C76.1414 240.314 77.3023 238.834 78.8745 237.925C80.4466 237.016 82.3091 236.747 84.0744 237.175C85.8397 237.603 87.3718 238.695 88.3522 240.223L100.144 266.66L116.188 253.634L125.478 257.247L109.789 274.555C108.583 275.878 107.114 276.935 105.477 277.66C103.839 278.384 102.068 278.759 100.277 278.762Z" fill="#B0C4CD"/>
<path d="M49.0374 307.621C49.7132 307.466 50.3468 307.165 50.8936 306.739C51.4404 306.313 51.887 305.772 52.202 305.155C52.5171 304.537 52.6928 303.859 52.7169 303.166C52.7409 302.474 52.6128 301.784 52.3414 301.147L59.9291 293.412L56.3501 287.658L45.7883 298.731C44.7465 299.258 43.9342 300.148 43.5053 301.233C43.0764 302.318 43.0608 303.522 43.4613 304.618C43.8617 305.714 44.6506 306.625 45.6783 307.178C46.706 307.732 47.9012 307.889 49.0374 307.621Z" fill="#FFB7B7"/>
<path d="M121.227 171.161H121.97V150.807C121.97 149.26 122.275 147.729 122.867 146.299C123.46 144.87 124.328 143.572 125.423 142.478C126.518 141.384 127.817 140.516 129.247 139.924C130.678 139.332 132.211 139.027 133.759 139.027H176.912C180.039 139.027 183.037 140.268 185.248 142.478C187.459 144.687 188.701 147.683 188.701 150.807V262.468C188.701 265.592 187.459 268.588 185.248 270.797C183.038 273.006 180.039 274.248 176.912 274.248H133.759C130.632 274.248 127.634 273.007 125.423 270.797C123.212 268.588 121.97 265.592 121.97 262.468V185.649H121.227V171.161Z" fill="#3F3D56"/>
<path d="M133.28 142.093H138.913C138.654 142.727 138.555 143.416 138.625 144.098C138.695 144.78 138.932 145.434 139.315 146.003C139.697 146.571 140.214 147.038 140.819 147.36C141.425 147.682 142.1 147.851 142.786 147.851H167.508C168.194 147.851 168.869 147.682 169.474 147.36C170.08 147.038 170.597 146.571 170.979 146.003C171.362 145.434 171.598 144.78 171.668 144.098C171.738 143.416 171.639 142.727 171.38 142.093H176.642C178.977 142.093 181.216 143.02 182.867 144.669C184.518 146.319 185.445 148.557 185.445 150.89V262.386C185.445 263.542 185.218 264.686 184.775 265.753C184.333 266.82 183.684 267.79 182.867 268.607C182.049 269.424 181.079 270.072 180.011 270.514C178.943 270.956 177.798 271.184 176.642 271.184H133.28C132.124 271.184 130.979 270.956 129.911 270.514C128.843 270.072 127.873 269.424 127.055 268.607C126.238 267.79 125.589 266.82 125.147 265.753C124.704 264.686 124.477 263.542 124.477 262.386V150.89C124.477 148.557 125.404 146.319 127.055 144.669C128.706 143.02 130.945 142.093 133.28 142.093Z" fill="white"/>
<path d="M154.985 231.736C168.784 231.736 179.971 220.558 179.971 206.769C179.971 192.981 168.784 181.803 154.985 181.803C141.186 181.803 130 192.981 130 206.769C130 220.558 141.186 231.736 154.985 231.736Z" fill="#22D497"/>
<path d="M152.603 217.309L145.125 207.7L149.473 204.32L153.014 208.87L164.976 196.252L168.976 200.039L152.603 217.309Z" fill="white"/>
<path d="M96.3801 229.554H67.0419C66.4384 229.553 65.8598 229.313 65.4331 228.887C65.0063 228.461 64.7663 227.882 64.7656 227.279V214.643C64.7681 210.154 66.5546 205.849 69.7322 202.676C72.9098 199.502 77.2185 197.72 81.711 197.72C86.2035 197.72 90.5122 199.502 93.6898 202.676C96.8674 205.849 98.6539 210.154 98.6564 214.643V227.279C98.6557 227.882 98.4157 228.461 97.9889 228.887C97.5622 229.313 96.9836 229.553 96.3801 229.554Z" fill="#2F2E41"/>
<path d="M195.649 303.155L198.333 297.569L178.048 284.563L174.086 292.808L195.649 303.155Z" fill="#FFB7B7"/>
<path d="M208.811 289.057C207.89 288.614 206.891 288.357 205.87 288.301C204.849 288.245 203.828 288.39 202.863 288.728C201.899 289.067 201.01 289.592 200.249 290.273C199.488 290.955 198.869 291.78 198.427 292.701L196.616 296.467L193.824 302.279L193.141 303.705L200.384 307.182L209.039 289.168L208.811 289.057Z" fill="#2F2E41"/>
<path d="M194.619 291.928L193.446 294.435L190.517 300.693L190.446 300.849C184.189 301.168 177.517 299.085 171.422 296.179C168.983 295.017 166.606 293.729 164.3 292.322C160.885 290.255 157.85 288.117 155.437 286.302C151.806 283.558 149.585 281.536 149.585 281.536C149.585 281.536 148.917 282.051 147.713 282.931C146.1 284.109 143.525 285.943 140.278 288.086C139.038 288.91 137.71 289.77 136.292 290.664C125.841 297.23 110.98 305.226 98.339 306.915C76.1381 309.882 81.3634 280.277 81.3634 280.277L99.0321 271.108L106.534 272.63L114.885 274.318L117.844 274.919C117.844 274.919 118.405 274.707 119.372 274.338C122.482 273.15 129.792 270.345 136.105 267.838C139.357 266.544 142.341 265.326 144.35 264.451C151.462 261.343 159.423 268.874 159.423 268.874L194.619 291.928Z" fill="#2F2E41"/>
<path d="M85.8686 230.118C92.4018 230.118 97.6981 224.826 97.6981 218.297C97.6981 211.769 92.4018 206.477 85.8686 206.477C79.3353 206.477 74.0391 211.769 74.0391 218.297C74.0391 224.826 79.3353 230.118 85.8686 230.118Z" fill="#FFB7B7"/>
<path d="M70.4766 251.11L80.7813 280.303L80.7194 280.405C79.2861 282.773 78.8177 284.682 79.3649 285.928C79.5091 286.244 79.7203 286.526 79.9839 286.753C80.2475 286.98 80.5572 287.148 80.8918 287.244L105.277 270.212L104.423 263.385L104.471 263.309C106.828 259.541 107.591 256.128 106.74 253.166C105.635 249.322 102.124 247.578 102.088 247.56L102.004 247.493L89.8408 232.701L73.5823 235.588L70.4766 251.11Z" fill="#B0C4CD"/>
<path d="M54.8018 302.351L47.8984 293.861L64.54 266.41L72.2988 242.445C72.7226 241.136 73.4224 239.933 74.351 238.917C75.2796 237.901 76.4153 237.095 77.6817 236.555C78.9481 236.014 80.3157 235.752 81.6924 235.784C83.069 235.816 84.4227 236.143 85.6622 236.743C86.9017 237.342 87.9983 238.2 88.8779 239.259C89.7575 240.317 90.3998 241.552 90.7615 242.88C91.1232 244.208 91.1958 245.597 90.9745 246.955C90.7532 248.314 90.2432 249.609 89.4787 250.753L75.2346 272.078L54.8018 302.351Z" fill="#B0C4CD"/>
<path d="M102.666 215.907H84.7267L84.5427 213.333L83.6229 215.907H80.8607L80.4961 210.806L78.6731 215.907H73.3281V215.654C73.3321 212.103 74.7456 208.698 77.2586 206.187C79.7715 203.676 83.1787 202.264 86.7325 202.26H89.2618C92.8157 202.264 96.2229 203.676 98.7359 206.187C101.249 208.698 102.662 212.103 102.666 215.654L102.666 215.907Z" fill="#2F2E41"/>
<path d="M84.5781 231.913C84.443 231.913 84.3083 231.901 84.1753 231.877L71.0391 229.561V207.867H85.4995L85.1415 208.284C80.1605 214.089 83.9131 223.502 86.5933 228.596C86.7908 228.969 86.8789 229.39 86.8474 229.811C86.8159 230.232 86.666 230.635 86.4151 230.975C86.2049 231.265 85.9289 231.502 85.6095 231.665C85.2902 231.828 84.9367 231.913 84.5781 231.913Z" fill="#2F2E41"/>
<path d="M318.09 308H29.6601C29.5182 308 29.3821 307.944 29.2817 307.843C29.1814 307.743 29.125 307.607 29.125 307.465C29.125 307.324 29.1814 307.188 29.2817 307.087C29.3821 306.987 29.5182 306.931 29.6601 306.931H318.09C318.232 306.931 318.368 306.987 318.469 307.087C318.569 307.188 318.625 307.324 318.625 307.465C318.625 307.607 318.569 307.743 318.469 307.843C318.368 307.944 318.232 308 318.09 308Z" fill="#CBCBCB"/>
</g>
<defs>
<clipPath id="clip0_792_1039">
<rect width="452" height="308" fill="white"/>
</clipPath>
</defs>
</svg>
