<svg width="244" height="185" viewBox="0 0 244 185" fill="none" xmlns="http://www.w3.org/2000/svg">
<g clip-path="url(#clip0_880_2309)">
<path d="M50.6542 121.686C39.6225 111.106 34.9633 100.069 37.5343 90.6071C40.8338 78.4651 55.4919 70.0699 77.75 67.5742L77.8322 68.2707C55.884 70.7315 41.4495 78.9383 38.2299 90.7864C35.7277 99.9945 40.3194 110.791 51.159 121.187L50.6542 121.686Z" fill="#F0F0F0"/>
<path d="M157.09 159.241C143.322 159.241 128.36 157.248 113.499 153.415C95.1213 148.675 78.2709 141.521 64.7695 132.725L65.1693 132.143C78.6057 140.896 95.3814 148.017 113.683 152.737C130.222 157.003 146.885 158.98 161.865 158.458L161.891 159.158C160.309 159.214 158.708 159.241 157.09 159.241Z" fill="#F0F0F0"/>
<path d="M188.678 154.833L188.447 154.169C200.761 150.113 208.463 143.579 210.72 135.274C213.589 124.715 207.356 112.462 193.168 100.772C178.908 89.0233 158.345 79.2745 135.266 73.3222L135.45 72.6445C158.63 78.623 179.293 88.4223 193.633 100.237C208.044 112.111 214.36 124.618 211.416 135.453C209.094 143.997 201.231 150.698 188.678 154.833Z" fill="#F0F0F0"/>
<path d="M75.6064 159.534C48.5527 147.845 27.7058 132.679 16.9062 116.831L17.5056 116.443C28.2305 132.182 48.968 147.258 75.898 158.894L75.6064 159.534Z" fill="#F0F0F0"/>
<path d="M170.725 179.785C167.935 179.785 165.097 179.725 162.211 179.603L162.242 178.903C183.777 179.811 202.779 177.3 217.195 171.641L217.464 172.291C204.888 177.228 188.86 179.785 170.725 179.785Z" fill="#F0F0F0"/>
<path d="M155.031 68.203C150.56 66.7847 145.96 65.4641 141.361 64.2778C114.893 57.4516 88.8757 55.0279 66.1192 57.2702L66.0469 56.5727C88.8882 54.323 114.995 56.7525 141.545 63.6002C146.157 64.7899 150.77 66.1142 155.254 67.5366L155.031 68.203Z" fill="#F0F0F0"/>
<path d="M33.7479 122.737C22.7163 112.157 18.057 101.12 20.6281 91.6579C23.9276 79.5159 38.5856 71.1207 60.8438 68.625L60.926 69.3215C38.9777 71.7823 24.5433 79.989 21.3237 91.8372C18.8215 101.045 23.4131 111.842 34.2528 122.238L33.7479 122.737Z" fill="#F0F0F0"/>
<path d="M140.184 160.294C126.415 160.294 111.454 158.301 96.5927 154.468C78.215 149.728 61.3646 142.573 47.8633 133.778L48.2631 133.195C61.6994 141.948 78.4752 149.07 96.7768 153.79C113.316 158.056 129.979 160.032 144.958 159.511L144.984 160.211C143.402 160.266 141.802 160.294 140.184 160.294Z" fill="#F0F0F0"/>
<path d="M171.768 155.886L171.537 155.222C183.851 151.166 191.553 144.632 193.81 136.326C196.679 125.768 190.446 113.515 176.258 101.825C161.998 90.076 141.435 80.3273 118.355 74.3749L118.54 73.6973C141.72 79.6758 162.383 89.475 176.722 101.29C191.134 113.164 197.45 125.671 194.505 136.506C192.184 145.05 184.321 151.751 171.768 155.886Z" fill="#F0F0F0"/>
<path d="M58.7002 160.587C31.6465 148.898 10.7996 133.732 0 117.884L0.599339 117.496C11.3243 133.235 32.0618 148.31 58.9918 159.946L58.7002 160.587Z" fill="#F0F0F0"/>
<path d="M153.819 180.838C151.029 180.838 148.19 180.777 145.305 180.656L145.336 179.956C166.871 180.864 185.873 178.353 200.289 172.693L200.558 173.344C187.982 178.28 171.953 180.838 153.819 180.838Z" fill="#F0F0F0"/>
<path d="M138.121 69.2538C133.65 67.8355 129.05 66.5149 124.451 65.3286C97.9833 58.5024 71.9655 56.0787 49.2091 58.321L49.1367 57.6234C71.978 55.3738 98.0849 57.8033 124.635 64.651C129.247 65.8406 133.86 67.165 138.344 68.5874L138.121 69.2538Z" fill="#F0F0F0"/>
<path d="M12.264 103.963C17.4343 98.3159 25.6818 94.874 33.1559 96.9344C26.2607 101.688 21.3138 108.665 19.1902 116.63C18.3827 119.704 17.8132 123.206 15.1885 125.086C13.5553 126.256 11.3914 126.535 9.38293 126.269C7.3744 126.002 5.47528 125.242 3.60179 124.488L3.09766 124.53C4.54709 117.096 7.09368 109.611 12.264 103.963Z" fill="#F2F2F2"/>
<path d="M33.1333 97.0923C26.8844 98.5663 21.2711 101.921 17.0908 106.68C16.1722 107.689 15.4225 108.833 14.8695 110.069C14.3707 111.29 14.2167 112.619 14.4235 113.918C14.5914 115.133 14.9075 116.357 14.7693 117.59C14.6889 118.221 14.4727 118.827 14.1348 119.371C13.7969 119.914 13.3449 120.381 12.8085 120.743C11.496 121.676 9.91746 122.095 8.35914 122.452C6.62892 122.848 4.82532 123.233 3.41491 124.354C3.24402 124.489 3.03783 124.223 3.20847 124.088C5.66233 122.139 9.07265 122.389 11.7876 120.973C13.0545 120.313 14.1247 119.276 14.3849 117.854C14.6124 116.61 14.2875 115.348 14.1067 114.119C13.8858 112.855 13.9861 111.557 14.3988 110.34C14.8854 109.08 15.5886 107.91 16.4781 106.88C18.4428 104.53 20.7745 102.496 23.3879 100.851C26.3598 98.9588 29.6421 97.5754 33.0928 96.761C33.3064 96.7107 33.3455 97.0423 33.1333 97.0923Z" fill="white"/>
<path d="M18.3431 105.071C17.6188 104.279 17.2069 103.262 17.181 102.202C17.1551 101.142 17.5169 100.107 18.2018 99.2827C18.3409 99.1164 18.6128 99.3192 18.4734 99.4858C17.8342 100.252 17.4973 101.216 17.5235 102.203C17.5497 103.191 17.9372 104.136 18.6162 104.87C18.7636 105.029 18.4897 105.229 18.3431 105.071Z" fill="white"/>
<path d="M14.2527 113.312C16.4731 113.456 18.6676 112.779 20.3985 111.416C20.5698 111.281 20.7761 111.547 20.6049 111.682C18.801 113.097 16.5159 113.797 14.2056 113.642C13.9854 113.627 14.0337 113.297 14.2527 113.312Z" fill="white"/>
<path d="M26.4344 99.394C26.6492 99.7572 26.9532 100.063 27.3191 100.283C27.685 100.504 28.1014 100.632 28.5309 100.657C28.7512 100.669 28.7026 101 28.4838 100.988C28.0094 100.958 27.5497 100.815 27.1449 100.573C26.74 100.33 26.4023 99.9943 26.1613 99.5951C26.1354 99.5593 26.1244 99.5153 26.1306 99.4719C26.1368 99.4285 26.1597 99.389 26.1947 99.3615C26.231 99.3351 26.2765 99.3236 26.3214 99.3297C26.3663 99.3358 26.4069 99.3589 26.4344 99.394Z" fill="white"/>
<path d="M43.7638 120.378C43.626 120.374 43.4883 120.371 43.3487 120.369C41.4963 120.328 39.6434 120.433 37.8085 120.684C37.6663 120.701 37.5225 120.721 37.3811 120.742C32.9669 121.392 28.715 122.836 24.8416 124.998C23.3011 125.86 21.8302 126.835 20.4415 127.915C18.5238 129.405 16.5662 131.17 14.3211 131.934C14.0878 132.017 13.8495 132.085 13.6075 132.138L3.18836 125.125C3.17289 125.098 3.15567 125.072 3.14008 125.045L2.71094 124.783C2.77857 124.723 2.85004 124.661 2.91767 124.601C2.95675 124.566 2.99816 124.532 3.03723 124.497C3.06402 124.474 3.09094 124.451 3.11376 124.428C3.12265 124.421 3.13165 124.413 3.1389 124.408C3.16173 124.385 3.18535 124.367 3.20653 124.347C3.6051 124.003 4.00684 123.661 4.41176 123.321C4.41341 123.319 4.41341 123.319 4.41738 123.318C7.50945 120.736 10.85 118.383 14.4509 116.598C14.5593 116.544 14.6692 116.488 14.7823 116.438C16.41 115.642 18.1017 114.978 19.8406 114.451C20.7937 114.165 21.761 113.927 22.7389 113.736C25.2665 113.249 27.857 113.152 30.4154 113.45C35.5156 114.043 40.3643 116.218 43.5253 120.081C43.606 120.18 43.6846 120.277 43.7638 120.378Z" fill="#F2F2F2"/>
<path d="M43.6514 120.492C37.7511 118.004 31.196 117.39 24.9172 118.738C23.5602 119.004 22.2549 119.478 21.0493 120.141C19.8962 120.823 18.9519 121.794 18.3143 122.953C17.6975 124.021 17.1936 125.183 16.321 126.087C15.8673 126.543 15.3197 126.901 14.7142 127.137C14.1087 127.372 13.4589 127.48 12.8074 127.454C11.1824 127.43 9.66335 126.838 8.19845 126.209C6.57197 125.511 4.8939 124.76 3.07548 124.827C2.85515 124.836 2.85508 124.502 3.07507 124.494C6.23881 124.377 8.80712 126.577 11.8497 127.039C13.2695 127.255 14.7645 127.055 15.8512 126.072C16.8015 125.213 17.3222 124.014 17.9371 122.927C18.5421 121.788 19.4241 120.811 20.5062 120.081C21.6733 119.36 22.9577 118.838 24.3044 118.538C27.3254 117.814 30.4443 117.557 33.547 117.777C37.0896 118.009 40.5653 118.83 43.8238 120.204C44.0254 120.289 43.8517 120.577 43.6514 120.492Z" fill="white"/>
<path d="M26.9099 118.188C26.8208 117.131 27.1203 116.078 27.7549 115.216C28.3894 114.354 29.3177 113.741 30.374 113.484C30.5879 113.433 30.6796 113.754 30.4654 113.806C29.4814 114.043 28.6167 114.615 28.0275 115.418C27.4383 116.222 27.1633 117.204 27.2523 118.188C27.2714 118.402 26.9289 118.401 26.9099 118.188Z" fill="white"/>
<path d="M18.5517 122.371C20.2358 123.788 22.4063 124.535 24.6303 124.462C24.8507 124.455 24.8508 124.788 24.6308 124.796C22.3162 124.867 20.0591 124.086 18.3099 122.607C18.1433 122.466 18.3859 122.231 18.5517 122.371Z" fill="white"/>
<path d="M36.8809 118.403C36.8279 118.819 36.8818 119.241 37.0377 119.632C37.1936 120.022 37.4467 120.369 37.7742 120.641C37.9426 120.78 37.6997 121.015 37.5324 120.877C37.172 120.575 36.893 120.192 36.7197 119.761C36.5465 119.329 36.4843 118.863 36.5386 118.403C36.5399 118.359 36.5584 118.318 36.5902 118.287C36.6219 118.256 36.6646 118.238 36.7095 118.236C36.7549 118.236 36.7983 118.254 36.8304 118.285C36.8625 118.316 36.8806 118.359 36.8809 118.403Z" fill="white"/>
<path d="M214.853 150.26C211.932 143.248 205.352 137.306 197.602 136.799C202.456 143.534 204.708 151.724 203.96 159.921C203.66 163.082 202.988 166.566 204.812 169.196C205.946 170.833 207.888 171.804 209.871 172.211C211.855 172.618 213.906 172.523 215.931 172.426L216.391 172.631C217.591 165.155 217.774 157.272 214.853 150.26Z" fill="#F2F2F2"/>
<path d="M197.571 136.954C202.948 140.389 207.077 145.386 209.372 151.237C209.89 152.488 210.201 153.811 210.295 155.156C210.344 156.47 210.03 157.772 209.387 158.928C208.81 160.017 208.09 161.066 207.795 162.273C207.653 162.893 207.647 163.535 207.778 164.158C207.909 164.78 208.174 165.368 208.554 165.884C209.468 167.193 210.81 168.104 212.155 168.951C213.648 169.891 215.214 170.844 216.155 172.361C216.27 172.545 216.556 172.361 216.442 172.178C214.803 169.539 211.505 168.658 209.436 166.435C208.471 165.398 207.82 164.072 208.066 162.647C208.281 161.401 209.022 160.319 209.617 159.221C210.261 158.102 210.614 156.847 210.645 155.565C210.622 154.22 210.363 152.887 209.881 151.626C208.841 148.77 207.347 146.09 205.453 143.686C203.306 140.93 200.692 138.553 197.723 136.656C197.539 136.538 197.388 136.838 197.571 136.954Z" fill="white"/>
<path d="M208.746 149.31C209.701 148.801 210.44 147.979 210.83 146.989C211.22 145.998 211.236 144.905 210.876 143.905C210.802 143.703 210.476 143.805 210.55 144.007C210.887 144.938 210.872 145.956 210.507 146.878C210.142 147.799 209.45 148.563 208.558 149.031C208.364 149.133 208.553 149.411 208.746 149.31Z" fill="white"/>
<path d="M209.752 158.413C207.611 157.821 205.778 156.465 204.618 154.615C204.503 154.432 204.217 154.615 204.331 154.798C205.542 156.721 207.453 158.129 209.682 158.74C209.895 158.798 209.963 158.471 209.752 158.413Z" fill="white"/>
<path d="M203.084 141.314C202.756 141.586 202.365 141.774 201.944 141.862C201.523 141.95 201.087 141.934 200.674 141.817C200.462 141.757 200.394 142.084 200.604 142.144C201.061 142.271 201.543 142.288 202.008 142.192C202.473 142.096 202.907 141.89 203.272 141.593C203.309 141.568 203.334 141.53 203.343 141.487C203.352 141.444 203.345 141.399 203.321 141.362C203.296 141.325 203.257 141.3 203.213 141.291C203.168 141.282 203.122 141.29 203.084 141.314Z" fill="white"/>
<path d="M179.523 155.404C179.654 155.446 179.786 155.487 179.917 155.532C181.676 156.099 183.385 156.805 185.027 157.642C185.155 157.705 185.284 157.771 185.409 157.837C189.342 159.895 192.849 162.646 195.751 165.952C196.904 167.268 197.953 168.668 198.889 170.139C200.181 172.171 201.416 174.474 203.267 175.929C203.458 176.083 203.659 176.225 203.868 176.355L216.101 173.161C216.125 173.14 216.15 173.122 216.174 173.101L216.668 172.996C216.626 172.916 216.579 172.835 216.537 172.756C216.512 172.71 216.485 172.665 216.46 172.619C216.443 172.588 216.425 172.558 216.411 172.529C216.406 172.519 216.4 172.509 216.395 172.502C216.381 172.473 216.365 172.448 216.352 172.422C216.095 171.968 215.835 171.514 215.571 171.061C215.57 171.059 215.57 171.059 215.567 171.057C213.545 167.612 211.211 164.302 208.435 161.442C208.352 161.356 208.267 161.268 208.178 161.183C206.92 159.901 205.556 158.721 204.1 157.655C203.301 157.074 202.472 156.533 201.617 156.033C199.404 154.747 196.998 153.807 194.486 153.25C189.477 152.138 184.16 152.6 179.851 155.202C179.741 155.269 179.633 155.335 179.523 155.404Z" fill="#F2F2F2"/>
<path d="M179.589 155.549C186.005 155.138 192.391 156.706 197.839 160.031C199.025 160.727 200.091 161.6 200.998 162.619C201.848 163.64 202.403 164.863 202.604 166.163C202.816 167.371 202.89 168.631 203.4 169.768C203.67 170.346 204.062 170.862 204.551 171.283C205.04 171.703 205.615 172.017 206.237 172.206C207.776 172.715 209.411 172.655 211.008 172.542C212.78 172.417 214.62 172.26 216.309 172.919C216.514 172.998 216.629 172.684 216.425 172.605C213.485 171.459 210.307 172.69 207.282 172.129C205.871 171.867 204.532 171.189 203.847 169.908C203.249 168.787 203.172 167.488 202.968 166.263C202.791 164.992 202.297 163.783 201.53 162.74C200.68 161.68 199.65 160.768 198.485 160.044C195.89 158.373 193.041 157.11 190.043 156.301C186.626 155.36 183.069 154.995 179.526 155.222C179.307 155.236 179.372 155.564 179.589 155.549Z" fill="white"/>
<path d="M196.152 158.86C196.601 157.893 196.682 156.803 196.382 155.784C196.082 154.764 195.419 153.882 194.513 153.295C194.329 153.176 194.132 153.449 194.316 153.568C195.161 154.113 195.778 154.935 196.056 155.885C196.333 156.835 196.253 157.85 195.83 158.747C195.738 158.942 196.061 159.054 196.152 158.86Z" fill="white"/>
<path d="M202.58 165.536C200.505 166.319 198.203 166.311 196.133 165.515C195.928 165.436 195.813 165.75 196.018 165.829C198.173 166.654 200.568 166.657 202.726 165.837C202.931 165.759 202.784 165.458 202.58 165.536Z" fill="white"/>
<path d="M186.69 155.798C186.596 156.207 186.4 156.587 186.118 156.904C185.836 157.221 185.478 157.465 185.076 157.613C184.87 157.689 185.017 157.99 185.222 157.915C185.666 157.749 186.061 157.479 186.373 157.129C186.685 156.78 186.904 156.361 187.012 155.91C187.026 155.869 187.023 155.823 187.003 155.784C186.984 155.744 186.95 155.713 186.908 155.697C186.866 155.682 186.819 155.685 186.778 155.704C186.737 155.722 186.705 155.756 186.69 155.798Z" fill="white"/>
<path d="M158.183 174.135C159.772 174.135 161.061 172.88 161.061 171.331C161.061 169.783 159.772 168.527 158.183 168.527C156.593 168.527 155.305 169.783 155.305 171.331C155.305 172.88 156.593 174.135 158.183 174.135Z" fill="#FD6584"/>
<path d="M168.374 126.381C169.963 126.381 171.252 125.126 171.252 123.577C171.252 122.029 169.963 120.773 168.374 120.773C166.785 120.773 165.496 122.029 165.496 123.577C165.496 125.126 166.785 126.381 168.374 126.381Z" fill="#E6E6E6"/>
<path d="M114.823 48.6114C116.413 48.6114 117.701 47.3561 117.701 45.8077C117.701 44.2592 116.413 43.0039 114.823 43.0039C113.234 43.0039 111.945 44.2592 111.945 45.8077C111.945 47.3561 113.234 48.6114 114.823 48.6114Z" fill="#E6E6E6"/>
<path d="M54.5157 153.358C54.5157 154.072 54.5398 154.785 54.591 155.493C54.6453 156.339 54.7388 157.179 54.8654 158.013C55.2909 160.822 56.1042 163.562 57.2832 166.158C57.3435 166.287 57.4038 166.416 57.4641 166.546L57.5546 166.739C57.5847 166.804 57.6179 166.869 57.648 166.93C57.6902 167.015 57.7294 167.098 57.7716 167.18C57.8229 167.283 57.8741 167.386 57.9284 167.488C57.9344 167.5 57.9405 167.515 57.9495 167.529C57.9947 167.618 58.0369 167.703 58.0852 167.791C58.094 167.81 58.1041 167.829 58.1153 167.847C58.1666 167.947 58.2208 168.049 58.2751 168.149C58.3354 168.255 58.3927 168.364 58.453 168.469C58.5977 168.731 58.7484 168.989 58.9022 169.248C58.9474 169.324 58.9926 169.4 59.0409 169.477C59.0831 169.547 59.1253 169.618 59.1705 169.688C59.2006 169.735 59.2308 169.785 59.2609 169.832C59.3092 169.911 59.3574 169.988 59.4087 170.067C59.5202 170.24 59.6348 170.414 59.7463 170.587H59.7493C59.8006 170.666 59.8549 170.746 59.9091 170.822V170.825C60.0689 171.06 60.2347 171.295 60.4005 171.527L60.4017 171.527L60.4027 171.528L60.4033 171.529L60.4036 171.53C60.5362 171.718 60.6749 171.9 60.8105 172.082V172.085C60.901 172.199 60.9884 172.317 61.0789 172.431C61.1512 172.525 61.2266 172.622 61.302 172.716C61.317 172.737 61.3351 172.754 61.3502 172.775V172.778C61.3713 172.804 61.3924 172.828 61.4135 172.854C61.7331 173.254 62.0627 173.644 62.4024 174.026L62.4566 174.088C62.4747 174.109 62.4958 174.129 62.5139 174.153C62.5441 174.185 62.5712 174.217 62.6013 174.25C62.6285 174.282 62.6586 174.314 62.6888 174.346C64.4594 176.29 66.467 178.015 68.6671 179.483C68.9595 179.68 69.258 179.871 69.5565 180.056C69.6318 180.103 69.7072 180.15 69.7826 180.194C69.8037 180.209 69.8278 180.224 69.8489 180.238C69.8911 180.262 69.9303 180.285 69.9725 180.312C70.0117 180.335 70.0509 180.359 70.0931 180.382C70.2529 180.479 70.4157 180.573 70.5785 180.667C70.6177 180.691 70.6599 180.714 70.7021 180.738C70.7413 180.758 70.7835 180.782 70.8257 180.805C70.8257 180.808 70.8257 180.808 70.8287 180.808H70.8317V180.811H70.8347C71.0367 180.926 71.2417 181.037 71.4498 181.146C71.5613 181.205 71.6759 181.266 71.7904 181.322C72.0497 181.46 72.312 181.592 72.5743 181.719C72.6677 181.763 72.7642 181.807 72.8577 181.854C72.9361 181.889 73.0144 181.927 73.0928 181.962C73.1169 181.974 73.138 181.983 73.1592 181.995C73.2255 182.024 73.2888 182.053 73.3551 182.083C73.4275 182.115 73.4998 182.147 73.5692 182.18C73.6506 182.215 73.7289 182.25 73.8103 182.282C74.1118 182.415 74.4163 182.541 74.7208 182.661C75.812 183.097 76.9272 183.474 78.0612 183.789C78.1125 183.804 78.1667 183.819 78.221 183.833C78.7064 183.965 79.1948 184.086 79.6862 184.194C80.5454 184.388 81.4127 184.547 82.288 184.67H82.294C82.3995 184.685 82.502 184.7 82.6075 184.714C82.6166 184.714 82.6256 184.717 82.6377 184.717C82.6377 184.72 82.6377 184.72 82.6407 184.717C82.7553 184.732 82.8728 184.747 82.9874 184.761C82.9952 184.764 83.0034 184.765 83.0115 184.764C83.1201 184.779 83.2316 184.791 83.3401 184.802C83.4577 184.814 83.5753 184.826 83.6929 184.838C83.7833 184.847 83.8738 184.855 83.9642 184.864C83.9719 184.867 83.9801 184.868 83.9883 184.867C84.0697 184.873 84.1511 184.882 84.2325 184.888H84.2446C84.3139 184.894 84.3863 184.899 84.4556 184.905C85.2967 184.97 86.1409 184.999 86.9971 184.999C87.9226 184.999 88.8421 184.964 89.7496 184.888H89.7586C89.9546 184.87 90.1475 184.852 90.3405 184.835C90.3917 184.829 90.44 184.826 90.4912 184.82C90.5003 184.82 90.5123 184.817 90.5214 184.817C90.5364 184.814 90.5515 184.814 90.5696 184.811C90.5778 184.812 90.5859 184.811 90.5937 184.808C90.6601 184.802 90.7264 184.794 90.7957 184.788L91.0218 184.761C91.0972 184.753 91.1726 184.741 91.2479 184.732C91.266 184.729 91.2811 184.729 91.2992 184.726C91.3535 184.72 91.4077 184.711 91.462 184.703C91.4891 184.7 91.5163 184.697 91.5404 184.694C91.5946 184.685 91.6459 184.679 91.7002 184.67H91.7032C93.3575 184.438 94.9905 184.08 96.5871 183.598C96.6715 183.572 96.756 183.548 96.8404 183.522C96.8434 183.522 96.8464 183.519 96.8494 183.519C96.8735 183.51 96.9007 183.504 96.9248 183.495C97.1509 183.425 97.374 183.352 97.5971 183.275C97.9046 183.175 98.2091 183.067 98.5136 182.955C98.595 182.923 98.6764 182.893 98.7578 182.861C98.9236 182.799 99.0864 182.735 99.2492 182.67C99.5266 182.561 99.8039 182.447 100.078 182.329C100.335 182.218 100.588 182.106 100.841 181.989C100.847 181.986 100.856 181.986 100.862 181.98C100.919 181.953 100.977 181.927 101.031 181.901H101.034C102.422 181.251 103.761 180.507 105.041 179.671C105.451 179.404 105.855 179.128 106.253 178.843C106.572 178.611 106.886 178.376 107.199 178.135C108.746 176.937 110.178 175.604 111.477 174.153V174.15C111.571 174.05 111.658 173.947 111.749 173.844C111.764 173.83 111.776 173.815 111.788 173.803C111.845 173.736 111.899 173.671 111.957 173.606V173.603C112.032 173.518 112.107 173.43 112.18 173.342C112.198 173.321 112.213 173.304 112.228 173.286V173.283C112.288 173.213 112.345 173.142 112.406 173.069C112.436 173.034 112.463 172.998 112.493 172.963V172.96C112.671 172.743 112.843 172.525 113.015 172.302C113.06 172.243 113.105 172.182 113.153 172.12C113.371 171.835 113.582 171.544 113.787 171.254V171.251C113.865 171.142 113.94 171.03 114.019 170.922C114.094 170.81 114.169 170.699 114.245 170.587C114.32 170.469 114.399 170.355 114.474 170.237L114.483 170.22C114.558 170.108 114.634 169.991 114.706 169.876C114.763 169.782 114.821 169.691 114.878 169.6C114.914 169.538 114.953 169.477 114.989 169.412C115.004 169.392 115.017 169.372 115.029 169.35C115.113 169.207 115.197 169.063 115.282 168.919C115.381 168.751 115.478 168.581 115.574 168.411C115.611 168.34 115.65 168.27 115.689 168.199C115.704 168.176 115.716 168.152 115.728 168.129C115.773 168.046 115.819 167.961 115.861 167.876C115.906 167.794 115.951 167.709 115.996 167.623C116.039 167.541 116.084 167.456 116.126 167.371C116.159 167.306 116.189 167.242 116.222 167.177C116.225 167.172 116.228 167.167 116.232 167.162C116.247 167.13 116.262 167.101 116.274 167.071C116.277 167.067 116.28 167.062 116.283 167.057C116.316 166.992 116.346 166.924 116.379 166.86C116.421 166.775 116.461 166.687 116.503 166.601C116.53 166.543 116.56 166.481 116.587 166.419C116.626 166.334 116.669 166.249 116.705 166.161C116.747 166.073 116.786 165.985 116.825 165.894C116.837 165.872 116.847 165.849 116.856 165.826C116.877 165.785 116.892 165.744 116.91 165.703C116.958 165.594 117.006 165.482 117.052 165.374C117.106 165.25 117.157 165.124 117.205 165.001C117.254 164.886 117.299 164.769 117.344 164.651L117.362 164.61C118.065 162.808 118.597 160.947 118.954 159.05V159.047C119.155 157.964 119.299 156.872 119.385 155.775C119.388 155.714 119.394 155.655 119.397 155.596C119.451 154.853 119.475 154.107 119.475 153.358C119.475 153.026 119.469 152.697 119.46 152.368C119.25 145.489 116.732 138.865 112.291 133.512C112.195 133.395 112.098 133.277 111.999 133.16C111.899 133.042 111.797 132.928 111.697 132.813C108.392 129.043 104.224 126.081 99.5291 124.168C94.8338 122.255 89.7428 121.443 84.6665 121.798C79.5902 122.153 74.6706 123.666 70.3042 126.213C65.9379 128.761 62.2471 132.272 59.5293 136.464C59.3815 136.693 59.2338 136.925 59.0921 137.157C58.9474 137.392 58.8087 137.627 58.6701 137.865C55.9388 142.595 54.5078 147.931 54.5157 153.358Z" fill="#F2F2F2"/>
<path d="M85.7064 132.662C91.0473 133.998 96.5205 134.767 102.031 134.958C102.864 135.002 103.699 134.997 104.532 134.941C106.362 134.791 107.929 134.231 109.674 133.925C110.514 133.778 111.448 133.671 112.293 133.512C112.098 133.276 111.899 133.043 111.697 132.813C109.875 132.963 108.025 133.454 106.182 133.682C103.048 134.07 99.5371 133.637 97.1615 132.569C96.0089 132.05 95.1261 131.403 93.9776 130.882C93.8214 130.804 93.6522 130.754 93.4778 130.733C93.1467 130.724 92.8196 130.806 92.5351 130.971C90.6082 131.919 87.8106 132.689 85.2139 132.266C85.0203 132.413 85.388 132.581 85.7064 132.662Z" fill="white"/>
<path d="M74.2158 135.997C74.192 135.993 74.1683 135.989 74.1445 135.985C74.2443 135.925 74.3382 135.856 74.4252 135.779L74.2158 135.997Z" fill="white"/>
<path d="M58.6719 137.866C59.7564 137.951 60.8466 138.014 61.9425 138.055C62.7757 138.099 63.611 138.093 64.4436 138.038C66.2733 137.888 67.8405 137.328 69.586 137.022C71.1856 136.742 73.1295 136.607 74.1452 135.985C71.5201 135.542 68.8003 136.444 66.0935 136.779C63.9039 137.041 61.6844 136.934 59.532 136.463C59.2324 136.923 58.9456 137.39 58.6719 137.866Z" fill="white"/>
<path d="M71.7891 181.322C72.0483 181.46 72.3106 181.592 72.5729 181.719C72.6664 181.763 72.7628 181.807 72.8563 181.854C72.9347 181.889 73.0131 181.927 73.0915 181.963C73.1156 181.974 73.1367 181.983 73.1578 181.995C73.2241 182.024 73.2874 182.054 73.3537 182.083C73.4261 182.115 73.4985 182.148 73.5678 182.18C73.6492 182.215 73.7276 182.25 73.809 182.283C74.1105 182.415 74.4149 182.541 74.7194 182.662C75.8107 183.097 76.9258 183.474 78.0598 183.789C78.1111 183.804 78.1654 183.819 78.2196 183.833C78.705 183.966 79.1934 184.086 79.6848 184.195C80.544 184.389 81.4113 184.547 82.2866 184.671H82.2926C82.3981 184.685 82.5007 184.7 82.6062 184.715C82.6152 184.715 82.6243 184.718 82.6363 184.718C82.6363 184.72 82.6363 184.72 82.6393 184.718C82.7539 184.732 82.8715 184.747 82.986 184.762C82.9938 184.764 83.002 184.765 83.0101 184.765C83.1187 184.779 83.2302 184.791 83.3388 184.803C83.4563 184.814 83.5739 184.826 83.6915 184.838C83.7819 184.847 83.8724 184.856 83.9628 184.864C83.9706 184.867 83.9788 184.868 83.9869 184.867C84.0683 184.873 84.1497 184.882 84.2311 184.888H84.2432C84.3125 184.894 84.3849 184.9 84.4542 184.906C85.2954 184.97 86.1395 184.999 86.9957 184.999C87.9213 184.999 88.8408 184.964 89.7482 184.888H89.7573C89.9532 184.87 90.1462 184.853 90.3391 184.835C90.3904 184.829 90.4386 184.826 90.4899 184.82C90.4989 184.82 90.511 184.817 90.52 184.817C90.5351 184.814 90.5502 184.814 90.5682 184.812C90.5764 184.812 90.5845 184.811 90.5924 184.809C90.6587 184.803 90.725 184.794 90.7944 184.788L91.0205 184.762C91.0958 184.753 91.1712 184.741 91.2466 184.732C91.2647 184.729 91.2797 184.729 91.2978 184.726C91.3521 184.72 91.4064 184.712 91.4606 184.703C91.4878 184.7 91.5149 184.697 91.539 184.694C91.5933 184.685 91.6445 184.679 91.6988 184.671H91.7018C93.3561 184.439 94.9892 184.08 96.5858 183.599C96.6702 183.572 96.7546 183.549 96.839 183.522C96.4498 181.754 95.6484 180.096 94.4968 178.677C93.3451 177.258 91.8742 176.116 90.1974 175.339C90.6121 174.955 90.8988 174.457 91.0205 173.912C91.0987 173.56 91.1049 173.197 91.0387 172.844C90.9725 172.49 90.8351 172.152 90.6346 171.85C90.2434 171.265 89.6296 170.855 88.9282 170.711L84.4603 169.8C83.741 169.663 82.9955 169.809 82.3858 170.205C81.7761 170.601 81.3515 171.215 81.2043 171.915C81.1587 172.129 81.1385 172.348 81.144 172.567C76.8419 175.357 73.7457 178.25 71.7891 181.322Z" fill="#B0C4CD"/>
<path d="M84.9841 168.082C90.125 168.082 94.2925 164.022 94.2925 159.014C94.2925 154.005 90.125 149.945 84.9841 149.945C79.8433 149.945 75.6758 154.005 75.6758 159.014C75.6758 164.022 79.8433 168.082 84.9841 168.082Z" fill="#FFB8B8"/>
<path d="M79.1818 166.831C78.1891 166.17 77.1755 164.901 76.4988 163.95C75.602 162.699 74.985 161.279 74.6877 159.781C74.3904 158.283 74.4194 156.742 74.7729 155.255C74.8856 154.661 75.1626 154.108 75.5741 153.656C76.0126 153.234 76.7286 153.033 77.2637 153.332C77.1177 152.951 77.0534 152.545 77.0747 152.139C77.096 151.733 77.2026 151.335 77.3878 150.971C77.7639 150.243 78.3088 149.611 78.9794 149.124C80.2619 148.162 81.7878 147.556 83.3952 147.371C85.0026 147.185 86.6316 147.427 88.1092 148.071C88.6907 148.333 87.7357 146.306 88.3443 146.502C88.9488 146.73 89.621 146.718 90.2169 146.47C90.7893 146.189 92.6866 147.857 92.4671 147.27C92.9015 147.462 93.2789 147.758 93.5641 148.131C93.8494 148.503 94.0333 148.94 94.0987 149.401C94.164 149.861 94.1087 150.33 93.9379 150.764C93.7671 151.198 93.4864 151.583 93.1218 151.882C92.6414 152.277 92.0416 152.505 91.5156 152.84C90.594 153.472 89.9417 154.411 89.6818 155.479C89.4219 156.547 89.5724 157.671 90.105 158.638C89.5515 158.292 88.9443 158.035 88.3068 157.877C87.9869 157.801 87.653 157.8 87.3329 157.875C87.0128 157.95 86.7157 158.099 86.4663 158.308C86.2579 158.541 86.1005 158.812 86.0037 159.106C85.9069 159.399 85.8728 159.709 85.9034 160.016C85.9243 160.632 86.0745 161.238 86.0914 161.854C86.1409 163.66 87.1337 167.093 85.6964 168.053C84.5621 168.811 80.5371 167.733 79.1818 166.831Z" fill="#2F2E41"/>
<path d="M91.3827 113.624C91.1867 113.623 90.9927 113.585 90.8118 113.511C90.542 113.406 90.3111 113.223 90.1496 112.987C89.988 112.752 89.9032 112.474 89.9062 112.191V110.755C89.9059 110.454 89.783 110.166 89.5645 109.953C89.346 109.74 89.0497 109.62 88.7406 109.62C88.3517 109.619 87.9787 109.469 87.7036 109.201C87.4286 108.933 87.2739 108.569 87.2734 108.19V88.5251C87.2739 88.1461 87.4286 87.7828 87.7036 87.5149C87.9786 87.2469 88.3515 87.0962 88.7405 87.0957H155.617C156.006 87.0961 156.379 87.2469 156.654 87.5148C156.929 87.7828 157.083 88.1461 157.084 88.5251V108.19C157.083 108.569 156.929 108.933 156.654 109.201C156.379 109.469 156.006 109.619 155.617 109.62H96.5703C96.4171 109.619 96.2654 109.649 96.1239 109.706C95.9824 109.763 95.8539 109.847 95.7459 109.952L92.411 113.201C92.2768 113.335 92.1168 113.44 91.9403 113.513C91.7638 113.585 91.5743 113.623 91.3827 113.624Z" fill="white"/>
<path d="M91.3834 113.916C91.1477 113.916 90.9144 113.87 90.697 113.781C90.3717 113.654 90.0935 113.434 89.8988 113.15C89.704 112.866 89.6018 112.531 89.6055 112.19V110.754C89.6052 110.531 89.5142 110.317 89.3522 110.159C89.1902 110.001 88.9705 109.913 88.7413 109.912C88.2724 109.912 87.8228 109.73 87.4912 109.407C87.1597 109.084 86.9732 108.646 86.9727 108.189V88.5239C86.9732 88.0671 87.1596 87.6291 87.4912 87.3061C87.8228 86.983 88.2723 86.8013 88.7412 86.8008H155.617C156.086 86.8013 156.536 86.983 156.867 87.306C157.199 87.6291 157.386 88.067 157.386 88.5239V108.189C157.386 108.646 157.199 109.084 156.868 109.407C156.536 109.73 156.086 109.912 155.617 109.912H96.571C96.4574 109.912 96.3449 109.934 96.24 109.976C96.1351 110.018 96.0398 110.08 95.9598 110.159L92.6248 113.408C92.4627 113.568 92.2695 113.696 92.0564 113.783C91.8433 113.87 91.6146 113.916 91.3834 113.916ZM88.7412 87.3882C88.4322 87.3886 88.1359 87.5083 87.9174 87.7212C87.6988 87.9341 87.5759 88.2228 87.5756 88.5239V108.189C87.5759 108.49 87.6988 108.779 87.9174 108.992C88.1359 109.205 88.4323 109.325 88.7413 109.325C89.1303 109.325 89.5033 109.476 89.7783 109.744C90.0533 110.012 90.208 110.375 90.2084 110.754V112.19C90.2085 112.414 90.2769 112.634 90.405 112.821C90.5331 113.007 90.7151 113.153 90.9281 113.239C91.1411 113.325 91.3755 113.347 91.6016 113.303C91.8277 113.259 92.0353 113.151 92.1984 112.993L95.5335 109.744C95.6694 109.61 95.8311 109.505 96.0091 109.433C96.1872 109.361 96.3782 109.324 96.571 109.325H155.617C155.926 109.325 156.223 109.205 156.441 108.992C156.66 108.779 156.783 108.49 156.783 108.189V88.5239C156.783 88.2228 156.66 87.9341 156.441 87.7212C156.223 87.5083 155.926 87.3885 155.617 87.3882L88.7412 87.3882Z" fill="#3F3D56"/>
<path d="M149.87 95.9985H95.6405C95.4333 95.9985 95.2346 95.9183 95.0881 95.7756C94.9417 95.6329 94.8594 95.4393 94.8594 95.2375C94.8594 95.0357 94.9417 94.8421 95.0881 94.6994C95.2346 94.5567 95.4333 94.4766 95.6405 94.4766H149.87C150.077 94.4766 150.276 94.5567 150.422 94.6994C150.569 94.8421 150.651 95.0357 150.651 95.2375C150.651 95.4393 150.569 95.6329 150.422 95.7756C150.276 95.9183 150.077 95.9985 149.87 95.9985Z" fill="#B0C4CD"/>
<path d="M149.77 99.2309H95.6405C95.4333 99.2309 95.2346 99.1507 95.0881 99.008C94.9417 98.8653 94.8594 98.6717 94.8594 98.4699C94.8594 98.2681 94.9417 98.0746 95.0881 97.9319C95.2346 97.7892 95.4333 97.709 95.6405 97.709H149.77C149.978 97.709 150.176 97.7892 150.323 97.9319C150.469 98.0746 150.552 98.2681 150.552 98.4699C150.552 98.6717 150.469 98.8653 150.323 99.008C150.176 99.1507 149.978 99.2309 149.77 99.2309Z" fill="#E6E6E6"/>
<path d="M149.717 102.463H95.6405C95.4333 102.463 95.2346 102.383 95.0881 102.24C94.9417 102.098 94.8594 101.904 94.8594 101.702C94.8594 101.501 94.9417 101.307 95.0881 101.164C95.2346 101.022 95.4333 100.941 95.6405 100.941H149.717C149.924 100.941 150.122 101.022 150.269 101.164C150.415 101.307 150.498 101.501 150.498 101.702C150.498 101.904 150.415 102.098 150.269 102.24C150.122 102.383 149.924 102.463 149.717 102.463Z" fill="#E6E6E6"/>
<path d="M235.268 84.0436C235.268 84.7573 235.244 85.471 235.193 86.1788C235.139 87.0247 235.045 87.8647 234.919 88.6988C234.493 91.5074 233.68 94.2471 232.501 96.8434C232.441 96.9726 232.38 97.1019 232.32 97.2311L232.229 97.4249C232.199 97.4896 232.166 97.5542 232.136 97.6158C232.094 97.701 232.055 97.7833 232.012 97.8655C231.961 97.9683 231.91 98.0711 231.856 98.1739C231.85 98.1856 231.844 98.2003 231.835 98.215C231.789 98.3031 231.747 98.3883 231.699 98.4764C231.69 98.4956 231.68 98.5142 231.669 98.5322C231.617 98.6321 231.563 98.7349 231.509 98.8347C231.449 98.9405 231.391 99.0491 231.331 99.1549C231.186 99.4163 231.036 99.6747 230.882 99.9332C230.837 100.01 230.791 100.086 230.743 100.162C230.701 100.233 230.659 100.303 230.614 100.374C230.583 100.421 230.553 100.471 230.523 100.518C230.475 100.597 230.427 100.673 230.375 100.753C230.264 100.926 230.149 101.099 230.038 101.273H230.035C229.983 101.352 229.929 101.431 229.875 101.507V101.51C229.715 101.745 229.549 101.98 229.384 102.212C229.383 102.212 229.383 102.212 229.382 102.213C229.382 102.213 229.382 102.213 229.381 102.213C229.381 102.213 229.381 102.214 229.381 102.214C229.381 102.215 229.381 102.215 229.381 102.215C229.248 102.403 229.109 102.585 228.974 102.767V102.77C228.883 102.885 228.796 103.002 228.705 103.117C228.633 103.211 228.557 103.308 228.482 103.402C228.467 103.422 228.449 103.44 228.434 103.461V103.464C228.413 103.49 228.392 103.514 228.371 103.54C228.051 103.939 227.721 104.33 227.382 104.712L227.327 104.774C227.309 104.794 227.288 104.815 227.27 104.838C227.24 104.87 227.213 104.903 227.183 104.935C227.156 104.967 227.125 105 227.095 105.032C225.325 106.975 223.317 108.7 221.117 110.169C220.825 110.366 220.526 110.557 220.228 110.742C220.152 110.789 220.077 110.836 220.001 110.88C219.98 110.894 219.956 110.909 219.935 110.924C219.893 110.947 219.854 110.971 219.812 110.997C219.772 111.021 219.733 111.044 219.691 111.068C219.531 111.165 219.368 111.259 219.206 111.353C219.166 111.376 219.124 111.4 219.082 111.423C219.043 111.444 219.001 111.467 218.958 111.491C218.958 111.494 218.958 111.494 218.955 111.494H218.952V111.497H218.949C218.747 111.611 218.542 111.723 218.334 111.831C218.223 111.89 218.108 111.952 217.994 112.008C217.734 112.146 217.472 112.278 217.21 112.404C217.116 112.448 217.02 112.492 216.926 112.539C216.848 112.574 216.77 112.613 216.691 112.648C216.667 112.66 216.646 112.668 216.625 112.68C216.559 112.71 216.495 112.739 216.429 112.768C216.357 112.801 216.284 112.833 216.215 112.865C216.134 112.9 216.055 112.936 215.974 112.968C215.672 113.1 215.368 113.226 215.063 113.347C213.972 113.783 212.857 114.159 211.723 114.475C211.672 114.489 211.617 114.504 211.563 114.519C211.078 114.651 210.589 114.771 210.098 114.88C209.239 115.074 208.371 115.233 207.496 115.356H207.49C207.385 115.371 207.282 115.385 207.177 115.4C207.167 115.4 207.158 115.403 207.146 115.403C207.146 115.406 207.146 115.406 207.143 115.403C207.029 115.418 206.911 115.432 206.797 115.447C206.789 115.449 206.781 115.45 206.773 115.45C206.664 115.465 206.552 115.476 206.444 115.488C206.326 115.5 206.209 115.512 206.091 115.523C206.001 115.532 205.91 115.541 205.82 115.55C205.812 115.552 205.804 115.553 205.796 115.553C205.714 115.559 205.633 115.567 205.552 115.573H205.539C205.47 115.579 205.398 115.585 205.328 115.591C204.487 115.655 203.643 115.685 202.787 115.685C201.861 115.685 200.942 115.65 200.034 115.573H200.025C199.829 115.556 199.637 115.538 199.444 115.52C199.392 115.514 199.344 115.512 199.293 115.506C199.284 115.506 199.272 115.503 199.263 115.503C199.248 115.5 199.233 115.5 199.214 115.497C199.206 115.497 199.198 115.496 199.19 115.494C199.124 115.488 199.058 115.479 198.988 115.473L198.762 115.447C198.687 115.438 198.611 115.426 198.536 115.418C198.518 115.415 198.503 115.415 198.485 115.412C198.431 115.406 198.376 115.397 198.322 115.388C198.295 115.385 198.268 115.382 198.244 115.379C198.189 115.371 198.138 115.365 198.084 115.356H198.081C196.427 115.124 194.794 114.765 193.197 114.284C193.112 114.257 193.028 114.234 192.944 114.207C192.941 114.207 192.938 114.205 192.935 114.205C192.911 114.196 192.883 114.19 192.859 114.181C192.633 114.111 192.41 114.037 192.187 113.961C191.879 113.861 191.575 113.752 191.27 113.641C191.189 113.608 191.108 113.579 191.026 113.547C190.86 113.485 190.698 113.42 190.535 113.356C190.258 113.247 189.98 113.132 189.706 113.015C189.45 112.903 189.196 112.792 188.943 112.674C188.937 112.671 188.928 112.671 188.922 112.665C188.865 112.639 188.807 112.613 188.753 112.586H188.75C187.362 111.937 186.023 111.192 184.743 110.357C184.333 110.09 183.929 109.814 183.531 109.529C183.212 109.297 182.898 109.062 182.585 108.821C181.038 107.622 179.606 106.289 178.307 104.838V104.835C178.213 104.735 178.126 104.633 178.036 104.53C178.02 104.515 178.008 104.5 177.996 104.489C177.939 104.421 177.885 104.356 177.827 104.292V104.289C177.752 104.204 177.677 104.116 177.604 104.028C177.586 104.007 177.571 103.989 177.556 103.972V103.969C177.496 103.898 177.439 103.828 177.378 103.754C177.348 103.719 177.321 103.684 177.291 103.649V103.646C177.113 103.428 176.941 103.211 176.769 102.988C176.724 102.929 176.679 102.867 176.631 102.806C176.414 102.521 176.203 102.23 175.998 101.939V101.936C175.919 101.828 175.844 101.716 175.765 101.607C175.69 101.496 175.615 101.384 175.539 101.273C175.464 101.155 175.386 101.041 175.31 100.923L175.301 100.905C175.226 100.794 175.15 100.676 175.078 100.562C175.021 100.468 174.963 100.377 174.906 100.286C174.87 100.224 174.831 100.162 174.795 100.098C174.78 100.078 174.767 100.057 174.755 100.036C174.671 99.8921 174.587 99.7482 174.502 99.6043C174.403 99.4369 174.306 99.2665 174.21 99.0962C174.174 99.0257 174.134 98.9552 174.095 98.8847C174.08 98.8612 174.068 98.8377 174.056 98.8142C174.011 98.732 173.966 98.6468 173.923 98.5616C173.878 98.4794 173.833 98.3942 173.788 98.309C173.745 98.2268 173.7 98.1416 173.658 98.0564C173.625 97.9918 173.595 97.9272 173.562 97.8626C173.559 97.8573 173.556 97.8524 173.553 97.8479C173.537 97.8156 173.522 97.7862 173.51 97.7568C173.507 97.7524 173.504 97.7474 173.501 97.7422C173.468 97.6775 173.438 97.61 173.405 97.5454C173.363 97.4602 173.323 97.3721 173.281 97.2869C173.254 97.2282 173.224 97.1665 173.197 97.1048C173.158 97.0196 173.115 96.9345 173.079 96.8463C173.037 96.7582 172.998 96.6701 172.959 96.5791C172.947 96.5571 172.937 96.5346 172.928 96.5115C172.907 96.4704 172.892 96.4293 172.874 96.3882C172.826 96.2795 172.778 96.1679 172.732 96.0592C172.678 95.9358 172.627 95.8096 172.579 95.6862C172.531 95.5716 172.485 95.4542 172.44 95.3367L172.422 95.2956C171.72 93.4931 171.187 91.6321 170.83 89.7357V89.7327C170.629 88.65 170.485 87.5579 170.399 86.4608C170.396 86.3991 170.39 86.3404 170.387 86.2816C170.333 85.5386 170.309 84.7925 170.309 84.0436C170.309 83.7117 170.315 83.3827 170.324 83.0538C170.534 76.1741 173.052 69.5509 177.493 64.1977C177.589 64.0802 177.686 63.9627 177.785 63.8452C177.885 63.7277 177.987 63.6132 178.087 63.4986C181.392 59.7281 185.56 56.7668 190.255 54.8535C194.95 52.9402 200.041 52.1284 205.118 52.4837C210.194 52.8389 215.114 54.3512 219.48 56.8987C223.846 59.4461 227.537 62.9574 230.255 67.1494C230.403 67.3785 230.55 67.6106 230.692 67.8426C230.837 68.0776 230.975 68.3125 231.114 68.5505C233.845 73.2801 235.276 78.6168 235.268 84.0436Z" fill="#F2F2F2"/>
<path d="M204.079 63.3461C198.738 64.6812 193.265 65.4508 187.754 65.6415C186.921 65.6857 186.086 65.6802 185.253 65.6249C183.423 65.475 181.856 64.9147 180.111 64.6086C179.272 64.4618 178.337 64.3545 177.492 64.1959C177.687 63.96 177.886 63.7269 178.088 63.4968C179.91 63.6467 181.76 64.1375 183.603 64.3656C186.737 64.7538 190.248 64.3206 192.624 63.2522C193.776 62.7337 194.659 62.0867 195.808 61.5659C195.964 61.4878 196.133 61.4373 196.307 61.4168C196.639 61.4071 196.966 61.4898 197.25 61.6551C199.177 62.6028 201.975 63.3729 204.571 62.9492C204.765 63.0967 204.397 63.2648 204.079 63.3461Z" fill="white"/>
<path d="M215.569 66.6823C215.593 66.6781 215.616 66.6748 215.64 66.6708C215.54 66.6106 215.446 66.5416 215.359 66.4648L215.569 66.6823Z" fill="white"/>
<path d="M231.114 68.5518C230.029 68.6363 228.939 68.6991 227.843 68.7404C227.01 68.7842 226.175 68.7787 225.342 68.7238C223.513 68.5731 221.945 68.0137 220.2 67.7075C218.6 67.4274 216.656 67.2925 215.641 66.6707C218.266 66.228 220.985 67.1291 223.692 67.4645C225.882 67.7268 228.101 67.62 230.254 67.1488C230.553 67.6081 230.84 68.0757 231.114 68.5518Z" fill="white"/>
<path d="M199.127 97.8886C204.514 97.8886 208.882 93.5387 208.882 88.1728C208.882 82.8069 204.514 78.457 199.127 78.457C193.739 78.457 189.371 82.8069 189.371 88.1728C189.371 93.5387 193.739 97.8886 199.127 97.8886Z" fill="#FFB6B6"/>
<path d="M217.995 112.008C217.736 112.146 217.474 112.278 217.211 112.404C217.118 112.448 217.021 112.492 216.928 112.539C216.85 112.575 216.771 112.613 216.693 112.648C216.669 112.66 216.648 112.669 216.627 112.68C216.56 112.71 216.497 112.739 216.431 112.769C216.358 112.801 216.286 112.833 216.217 112.865C216.135 112.901 216.057 112.936 215.975 112.968C215.674 113.1 215.369 113.227 215.065 113.347C213.974 113.783 212.858 114.159 211.724 114.475C211.673 114.49 211.619 114.504 211.565 114.519C211.079 114.651 210.591 114.772 210.1 114.88C209.24 115.074 208.373 115.233 207.498 115.356H207.492C207.386 115.371 207.284 115.385 207.178 115.4C207.169 115.4 207.16 115.403 207.148 115.403C207.148 115.406 207.148 115.406 207.145 115.403C207.03 115.418 206.913 115.432 206.798 115.447C206.79 115.449 206.782 115.45 206.774 115.45C206.666 115.465 206.554 115.476 206.446 115.488C206.328 115.5 206.21 115.512 206.093 115.523C206.002 115.532 205.912 115.541 205.822 115.55C205.814 115.553 205.806 115.554 205.797 115.553C205.716 115.559 205.635 115.568 205.553 115.573H205.541C205.472 115.579 205.399 115.585 205.33 115.591C204.489 115.656 203.645 115.685 202.789 115.685C201.863 115.685 200.944 115.65 200.036 115.573H200.027C199.831 115.556 199.638 115.538 199.445 115.521C199.394 115.515 199.346 115.512 199.294 115.506C199.285 115.506 199.273 115.503 199.264 115.503C199.249 115.5 199.234 115.5 199.216 115.497C199.208 115.497 199.2 115.496 199.192 115.494C199.126 115.488 199.059 115.479 198.99 115.474L198.764 115.447C198.688 115.438 198.613 115.427 198.538 115.418C198.52 115.415 198.505 115.415 198.487 115.412C198.432 115.406 198.378 115.397 198.324 115.388C198.297 115.385 198.269 115.383 198.245 115.38C198.191 115.371 198.14 115.365 198.086 115.356H198.083C196.428 115.124 194.795 114.766 193.199 114.284C193.114 114.258 193.03 114.234 192.945 114.208C193.335 112.439 194.136 110.781 195.288 109.363C196.439 107.944 197.91 106.802 199.587 106.025C199.172 105.64 198.885 105.143 198.764 104.598C198.686 104.246 198.679 103.883 198.746 103.529C198.812 103.175 198.949 102.838 199.15 102.536C199.541 101.95 200.155 101.541 200.856 101.396L205.324 100.486C206.043 100.349 206.789 100.495 207.399 100.891C208.008 101.287 208.433 101.901 208.58 102.6C208.626 102.815 208.646 103.033 208.64 103.252C212.942 106.043 216.039 108.936 217.995 112.008Z" fill="#B0C4CD"/>
<path d="M225.234 83.9592C223.575 82.0753 222.787 79.5758 221.461 77.4365C220.136 75.2972 217.829 73.3826 215.392 73.8804C213.712 74.2236 212.414 75.6678 211.756 77.278C211.099 78.8881 210.976 80.6637 210.861 82.4032C210.901 78.8284 208.484 75.3629 205.154 74.2223C201.824 73.0816 197.839 74.354 195.746 77.2259C194.833 76.4013 193.641 75.9318 192.396 75.9064C191.151 75.8809 189.94 76.3013 188.992 77.0878C187.121 78.7175 186.707 81.8194 188.083 83.8981C189.46 85.9768 192.441 86.7512 194.628 85.5983L195.401 86.2914C194.966 87.7747 195.81 89.5268 197.229 90.0851C198.38 90.5379 200.005 90.4626 200.435 91.639C200.736 92.461 200.174 93.3384 199.575 93.9701C198.977 94.6018 198.267 95.2541 198.195 96.1282C198.087 97.447 199.486 98.3709 200.757 98.6492C203.824 99.3202 207.226 97.9367 208.994 95.3003C209.028 95.2495 209.065 95.1985 209.105 95.1476C210.096 93.9122 210.819 92.4928 211.228 90.9761C211.638 89.4594 211.726 87.8773 211.487 86.3265C211.387 85.7171 211.487 85.2639 211.919 85.1196C213.782 84.4958 219.005 85.805 220.585 86.9881C222.166 88.1713 223.431 89.7371 224.953 90.9966C226.476 92.2561 228.416 93.2277 230.349 92.8847C231.897 92.61 233.214 91.5151 234.1 90.1943C234.986 88.8736 235.495 87.3341 235.952 85.8042C232.529 87.7308 227.844 86.9243 225.234 83.9592Z" fill="#2F2E41"/>
<path d="M24.9688 64.3658C24.9688 65.0795 24.9929 65.7933 25.0442 66.5011C25.0984 67.347 25.1919 68.187 25.3185 69.0211C25.744 71.8297 26.5574 74.5694 27.7364 77.1657C27.7966 77.2949 27.8569 77.4241 27.9173 77.5534L28.0077 77.7472C28.0378 77.8118 28.071 77.8764 28.1011 77.9381C28.1434 78.0233 28.1826 78.1055 28.2248 78.1878C28.276 78.2906 28.3273 78.3934 28.3815 78.4962C28.3876 78.5079 28.3936 78.5226 28.4026 78.5373C28.4479 78.6254 28.4901 78.7106 28.5383 78.7987C28.5472 78.8179 28.5572 78.8365 28.5684 78.8545C28.6197 78.9543 28.674 79.0571 28.7282 79.157C28.7885 79.2628 28.8458 79.3714 28.9061 79.4771C29.0508 79.7385 29.2016 79.997 29.3553 80.2555C29.4005 80.3318 29.4457 80.4082 29.494 80.4846C29.5362 80.5551 29.5784 80.6256 29.6236 80.696C29.6538 80.743 29.6839 80.793 29.7141 80.84C29.7623 80.9193 29.8105 80.9956 29.8618 81.0749C29.9733 81.2482 30.0879 81.4215 30.1994 81.5948H30.2025C30.2537 81.6741 30.308 81.7534 30.3622 81.8298V81.8327C30.522 82.0677 30.6878 82.3026 30.8537 82.5346C30.8541 82.5346 30.8544 82.5347 30.8548 82.5349C30.8552 82.535 30.8555 82.5352 30.8558 82.5355C30.8561 82.5358 30.8563 82.5361 30.8565 82.5364C30.8566 82.5368 30.8567 82.5372 30.8567 82.5376C30.9893 82.7255 31.128 82.9076 31.2637 83.0897V83.0927C31.3541 83.2072 31.4415 83.3247 31.532 83.4393C31.6043 83.5332 31.6797 83.6302 31.7551 83.7242C31.7702 83.7447 31.7882 83.7623 31.8033 83.7829V83.7858C31.8244 83.8123 31.8455 83.8358 31.8666 83.8622C32.1862 84.2616 32.5158 84.6523 32.8555 85.0341L32.9098 85.0958C32.9278 85.1163 32.9489 85.1369 32.967 85.1604C32.9972 85.1927 33.0243 85.225 33.0545 85.2573C33.0816 85.2896 33.1117 85.3219 33.1419 85.3542C34.9125 87.2974 36.9202 89.0225 39.1202 90.4912C39.4127 90.688 39.7111 90.8789 40.0096 91.0639C40.085 91.1109 40.1603 91.1579 40.2357 91.202C40.2568 91.2167 40.2809 91.2314 40.302 91.246C40.3442 91.2695 40.3834 91.293 40.4256 91.3195C40.4648 91.343 40.504 91.3665 40.5462 91.39C40.706 91.4869 40.8688 91.5809 41.0316 91.6749C41.0708 91.6984 41.113 91.7219 41.1552 91.7454C41.1944 91.7659 41.2366 91.7894 41.2788 91.8129C41.2788 91.8159 41.2788 91.8159 41.2818 91.8159H41.2849V91.8188H41.2879C41.4899 91.9333 41.6949 92.0449 41.9029 92.1536C42.0144 92.2123 42.129 92.274 42.2436 92.3298C42.5028 92.4679 42.7651 92.6 43.0274 92.7263C43.1209 92.7704 43.2173 92.8145 43.3108 92.8614C43.3892 92.8967 43.4676 92.9349 43.5459 92.9701C43.5701 92.9819 43.5912 92.9907 43.6123 93.0024C43.6786 93.0318 43.7419 93.0612 43.8082 93.0905C43.8806 93.1229 43.9529 93.1552 44.0223 93.1875C44.1037 93.2227 44.1821 93.2579 44.2635 93.2903C44.565 93.4224 44.8694 93.5487 45.1739 93.6691C46.2652 94.1049 47.3803 94.4814 48.5143 94.797C48.5656 94.8117 48.6198 94.8264 48.6741 94.841C49.1595 94.9732 49.6479 95.0936 50.1393 95.2023C50.9985 95.3962 51.8658 95.5548 52.7411 95.6781H52.7471C52.8526 95.6928 52.9551 95.7075 53.0607 95.7222C53.0697 95.7222 53.0787 95.7251 53.0908 95.7251C53.0908 95.728 53.0908 95.728 53.0938 95.7251C53.2084 95.7398 53.326 95.7545 53.4405 95.7692C53.4483 95.7714 53.4565 95.7724 53.4646 95.7721C53.5732 95.7868 53.6847 95.7985 53.7933 95.8103C53.9108 95.822 54.0284 95.8338 54.146 95.8455C54.2364 95.8543 54.3269 95.8632 54.4173 95.872C54.4251 95.8746 54.4333 95.8756 54.4414 95.8749C54.5228 95.8808 54.6042 95.8896 54.6856 95.8955H54.6977C54.767 95.9013 54.8394 95.9072 54.9087 95.9131C55.7499 95.9777 56.594 96.0071 57.4502 96.0071C58.3757 96.0071 59.2952 95.9718 60.2027 95.8955H60.2118C60.4077 95.8778 60.6007 95.8602 60.7936 95.8426C60.8449 95.8367 60.8931 95.8338 60.9444 95.8279C60.9534 95.8279 60.9655 95.825 60.9745 95.825C60.9896 95.822 61.0046 95.822 61.0227 95.8191C61.0309 95.8194 61.039 95.8184 61.0469 95.8162C61.1132 95.8103 61.1795 95.8015 61.2488 95.7956L61.4749 95.7692C61.5503 95.7603 61.6257 95.7486 61.7011 95.7398C61.7191 95.7369 61.7342 95.7369 61.7523 95.7339C61.8066 95.728 61.8608 95.7192 61.9151 95.7104C61.9422 95.7075 61.9694 95.7046 61.9935 95.7016C62.0478 95.6928 62.099 95.6869 62.1533 95.6781H62.1563C63.8106 95.4461 65.4437 95.0877 67.0403 94.6061C67.1247 94.5797 67.2091 94.5561 67.2935 94.5297C67.2965 94.5297 67.2995 94.5268 67.3026 94.5268C67.3267 94.518 67.3538 94.5121 67.3779 94.5033C67.604 94.4328 67.8271 94.3594 68.0502 94.283C68.3577 94.1832 68.6622 94.0745 68.9667 93.9629C69.0481 93.9306 69.1295 93.9012 69.2109 93.8689C69.3767 93.8072 69.5395 93.7426 69.7023 93.678C69.9797 93.5693 70.257 93.4548 70.5314 93.3373C70.7877 93.2257 71.0409 93.1141 71.2941 92.9966C71.3002 92.9936 71.3092 92.9936 71.3152 92.9878C71.3725 92.9613 71.4298 92.9349 71.4841 92.9085H71.4871C72.8755 92.2593 74.2144 91.5143 75.4937 90.6792C75.9038 90.4119 76.3077 90.1358 76.7057 89.8509C77.0253 89.6189 77.3388 89.3839 77.6523 89.1431C79.1992 87.9444 80.631 86.6114 81.9303 85.1604V85.1575C82.0238 85.0576 82.1112 84.9548 82.2017 84.852C82.2167 84.8373 82.2288 84.8227 82.2409 84.8109C82.2981 84.7434 82.3524 84.6787 82.4097 84.6141V84.6112C82.4851 84.526 82.5604 84.4379 82.6328 84.3498C82.6509 84.3292 82.666 84.3116 82.681 84.294V84.291C82.7413 84.2205 82.7986 84.1501 82.8589 84.0766C82.889 84.0414 82.9162 84.0061 82.9463 83.9709V83.968C83.1242 83.7506 83.296 83.5333 83.4679 83.31C83.5131 83.2513 83.5583 83.1896 83.6066 83.1279C83.8236 82.8431 84.0347 82.5523 84.2397 82.2615V82.2586C84.3181 82.1499 84.3934 82.0383 84.4718 81.9296C84.5472 81.818 84.6225 81.7064 84.6979 81.5948C84.7733 81.4773 84.8517 81.3628 84.927 81.2453L84.9361 81.2277C85.0115 81.1161 85.0868 80.9986 85.1592 80.884C85.2165 80.79 85.2737 80.699 85.331 80.6079C85.3672 80.5463 85.4064 80.4846 85.4426 80.42C85.4567 80.4001 85.4698 80.3795 85.4818 80.3583C85.5662 80.2144 85.6506 80.0705 85.735 79.9265C85.8345 79.7591 85.931 79.5888 86.0274 79.4184C86.0636 79.3479 86.1028 79.2774 86.142 79.207C86.1571 79.1835 86.1691 79.16 86.1812 79.1365C86.2264 79.0542 86.2716 78.9691 86.3139 78.8839C86.3591 78.8016 86.4043 78.7165 86.4495 78.6313C86.4917 78.549 86.5369 78.4639 86.5792 78.3787C86.6123 78.3141 86.6425 78.2495 86.6756 78.1848C86.678 78.1796 86.681 78.1746 86.6847 78.1702C86.6997 78.1379 86.7148 78.1085 86.7269 78.0791C86.7306 78.0746 86.7336 78.0697 86.7359 78.0644C86.7691 77.9998 86.7992 77.9323 86.8324 77.8676C86.8746 77.7825 86.9138 77.6944 86.956 77.6092C86.9831 77.5504 87.0133 77.4888 87.0404 77.4271C87.0796 77.3419 87.1218 77.2567 87.158 77.1686C87.2002 77.0805 87.2394 76.9924 87.2786 76.9013C87.2899 76.8794 87.2999 76.8568 87.3087 76.8338C87.3298 76.7927 87.3449 76.7515 87.363 76.7104C87.4112 76.6018 87.4595 76.4902 87.5047 76.3815C87.559 76.2581 87.6102 76.1318 87.6585 76.0085C87.7067 75.8939 87.7519 75.7764 87.7971 75.6589L87.8152 75.6178C88.5177 73.8153 89.0505 71.9544 89.407 70.0579V70.055C89.6081 68.9723 89.752 67.8802 89.8382 66.7831C89.8412 66.7214 89.8472 66.6626 89.8502 66.6039C89.9045 65.8608 89.9286 65.1148 89.9286 64.3658C89.9286 64.034 89.9226 63.705 89.9135 63.376C89.7031 56.4963 87.1849 49.8732 82.7443 44.5199C82.6479 44.4025 82.5514 44.285 82.4519 44.1675C82.3524 44.05 82.2499 43.9355 82.1504 43.8209C78.8455 40.0503 74.6774 37.089 69.9822 35.1757C65.287 33.2624 60.196 32.4507 55.1196 32.8059C50.0433 33.1612 45.1237 34.6735 40.7574 37.2209C36.391 39.7684 32.7002 43.2796 29.9824 47.4717C29.8347 47.7008 29.687 47.9328 29.5453 48.1649C29.4005 48.3999 29.2619 48.6348 29.1232 48.8727C26.392 53.6024 24.961 58.9391 24.9688 64.3658Z" fill="#F2F2F2"/>
<path d="M56.1595 43.6683C61.5004 45.0035 66.9736 45.7731 72.4841 45.9638C73.3173 46.008 74.1526 46.0024 74.9852 45.9472C76.8149 45.7973 78.3821 45.237 80.1276 44.9309C80.9667 44.7841 81.9014 44.6768 82.7462 44.5182C82.551 44.2822 82.3522 44.0492 82.15 43.819C80.3284 43.969 78.4785 44.4598 76.6351 44.6878C73.5014 45.076 69.9902 44.6428 67.6146 43.5744C66.4621 43.056 65.5792 42.409 64.4307 41.8882C64.2745 41.81 64.1053 41.7596 63.931 41.739C63.5998 41.7294 63.2727 41.812 62.9882 41.9773C61.0613 42.925 58.2637 43.6952 55.667 43.2714C55.4735 43.419 55.8412 43.587 56.1595 43.6683Z" fill="white"/>
<path d="M44.6689 47.0027C44.6452 46.9984 44.6214 46.9951 44.5977 46.9911C44.6974 46.9309 44.7913 46.862 44.8783 46.7852L44.6689 47.0027Z" fill="white"/>
<path d="M29.125 48.8741C30.2095 48.9585 31.2997 49.0214 32.3956 49.0627C33.2289 49.1065 34.0641 49.101 34.8967 49.0461C36.7264 48.8954 38.2937 48.3359 40.0391 48.0298C41.6388 47.7496 43.5826 47.6147 44.5983 46.9929C41.9733 46.5503 39.2535 47.4514 36.5466 47.7867C34.3571 48.049 32.1375 47.9423 29.9852 47.4711C29.6855 47.9304 29.3988 48.398 29.125 48.8741Z" fill="white"/>
<path d="M42.2461 92.3281C42.5054 92.4662 42.7677 92.5983 43.0299 92.7246C43.1234 92.7687 43.2199 92.8127 43.3133 92.8597C43.3917 92.895 43.4701 92.9331 43.5485 92.9684C43.5726 92.9801 43.5937 92.989 43.6148 93.0007C43.6811 93.0301 43.7444 93.0594 43.8108 93.0888C43.8831 93.1211 43.9555 93.1534 44.0248 93.1857C44.1062 93.221 44.1846 93.2562 44.266 93.2885C44.5675 93.4207 44.872 93.547 45.1765 93.6674C46.2677 94.1032 47.3829 94.4797 48.5169 94.7953C48.5681 94.8099 48.6224 94.8246 48.6767 94.8393C49.1621 94.9715 49.6505 95.0919 50.1419 95.2006C51.0011 95.3944 51.8683 95.553 52.7436 95.6764H52.7497C52.8552 95.6911 52.9577 95.7058 53.0632 95.7205C53.0722 95.7205 53.0813 95.7234 53.0933 95.7234C53.0933 95.7263 53.0933 95.7263 53.0964 95.7234C53.2109 95.7381 53.3285 95.7528 53.4431 95.7674C53.4509 95.7697 53.459 95.7707 53.4672 95.7704C53.5757 95.7851 53.6873 95.7968 53.7958 95.8086C53.9134 95.8203 54.0309 95.8321 54.1485 95.8438C54.239 95.8526 54.3294 95.8614 54.4199 95.8702C54.4276 95.8728 54.4358 95.8738 54.444 95.8732C54.5254 95.8791 54.6068 95.8879 54.6882 95.8937H54.7002C54.7696 95.8996 54.8419 95.9055 54.9113 95.9114C55.7524 95.976 56.5965 96.0053 57.4527 96.0053C58.3783 96.0053 59.2978 95.9701 60.2052 95.8937H60.2143C60.4103 95.8761 60.6032 95.8585 60.7961 95.8409C60.8474 95.835 60.8956 95.8321 60.9469 95.8262C60.9559 95.8262 60.968 95.8232 60.977 95.8232C60.9921 95.8203 61.0072 95.8203 61.0253 95.8174C61.0334 95.8177 61.0416 95.8167 61.0494 95.8144C61.1157 95.8086 61.182 95.7998 61.2514 95.7939L61.4775 95.7674C61.5529 95.7586 61.6282 95.7469 61.7036 95.7381C61.7217 95.7351 61.7368 95.7351 61.7548 95.7322C61.8091 95.7263 61.8634 95.7175 61.9177 95.7087C61.9448 95.7058 61.9719 95.7028 61.996 95.6999C62.0503 95.6911 62.1016 95.6852 62.1558 95.6764H62.1588C63.8132 95.4444 65.4462 95.0859 67.0428 94.6044C67.1272 94.5779 67.2116 94.5544 67.296 94.528C66.9068 92.7594 66.1054 91.1016 64.9538 89.6828C63.8022 88.264 62.3312 87.1221 60.6545 86.3453C61.0692 85.9604 61.3559 85.4631 61.4775 84.9178C61.5558 84.5663 61.562 84.2032 61.4957 83.8494C61.4295 83.4956 61.2922 83.158 61.0916 82.856C60.7004 82.2708 60.0866 81.8609 59.3852 81.7164L54.9173 80.8059C54.1981 80.6693 53.4525 80.8148 52.8428 81.2108C52.2331 81.6068 51.8085 82.2213 51.6613 82.9206C51.6157 83.135 51.5955 83.3538 51.601 83.5727C47.2989 86.3629 44.2027 89.2559 42.2461 92.3281Z" fill="#B0C4CD"/>
<path d="M59.9222 77.8677C65.9285 77.8677 70.7975 73.1242 70.7975 67.2727C70.7975 61.4213 65.9285 56.6777 59.9222 56.6777C53.9159 56.6777 49.0469 61.4213 49.0469 67.2727C49.0469 73.1242 53.9159 77.8677 59.9222 77.8677Z" fill="#9E616A"/>
<path d="M58.3736 77.3025C55.651 78.0189 52.6494 77.0664 50.5246 75.2598C48.3999 73.4532 47.0707 70.8932 46.3049 68.249C45.744 66.3124 45.4781 64.1627 46.3632 62.3446C47.2483 60.5265 49.6304 59.2999 51.4682 60.2183C50.3344 58.9315 50.9008 56.8031 52.2249 55.7023C53.549 54.6015 55.3672 54.2858 57.0988 54.1133C59.612 53.8629 62.2079 53.8349 64.5993 54.6281C66.9907 55.4213 69.1635 57.1554 69.912 59.506C70.6764 59.8528 71.5373 59.9427 72.3598 59.7618C73.1823 59.5809 73.9199 59.1393 74.4573 58.5063C74.5958 59.2333 74.4845 59.9846 74.1407 60.6439C73.7968 61.3032 73.2395 61.8337 72.555 62.1533L76.2191 60.996C76.8493 62.2954 75.7451 63.9037 74.3331 64.3198C72.9211 64.736 71.3969 64.2811 70.057 63.6799C68.717 63.0787 67.4185 62.3187 65.9631 62.0842C64.5077 61.8497 62.7981 62.3053 62.1248 63.5841C61.7722 64.2539 61.7539 65.0383 61.5491 65.7642C61.3444 66.49 60.8258 67.2425 60.0556 67.3019C59.5689 67.3395 59.0925 67.087 58.6072 67.1386C58.3094 67.1957 58.0351 67.3362 57.818 67.5429C57.6009 67.7495 57.4504 68.0134 57.3849 68.3021C57.2641 68.8815 57.2626 69.4785 57.3805 70.0585L58.3113 76.9894L58.3736 77.3025Z" fill="#2F2E41"/>
</g>
<defs>
<clipPath id="clip0_880_2309">
<rect width="244" height="185" fill="white"/>
</clipPath>
</defs>
</svg>
