<svg width="471" height="300" viewBox="0 0 471 300" fill="none" xmlns="http://www.w3.org/2000/svg">
<g clip-path="url(#clip0_792_138)">
<path d="M393.139 284.211H375.836V300H393.139V284.211Z" fill="#F0F0F0"/>
<path d="M471.003 132.632C471.01 156.44 464.82 179.812 453.081 200.293C441.342 220.774 424.489 237.61 404.289 249.032C403.144 249.679 401.983 250.311 400.818 250.921C396.495 253.2 392.048 255.217 387.5 256.963C385.688 257.668 383.857 258.325 382.008 258.932C381.83 258.995 381.647 259.058 381.469 259.111C363.36 265.057 344.197 266.759 325.373 264.093C306.549 261.427 288.534 254.461 272.637 243.7C270.504 242.258 268.416 240.753 266.372 239.184C265.217 238.295 264.077 237.389 262.952 236.458C259.771 233.847 256.718 231.081 253.791 228.158C241.351 215.8 231.457 200.965 224.706 184.548C217.954 168.132 214.486 150.471 214.508 132.632C214.508 59.3789 271.924 0 342.755 0C413.587 0 471.003 59.3789 471.003 132.632Z" fill="#F2F2F2"/>
<path d="M373.382 194.527L370.491 205.832L381.469 259.111C351.961 268.723 320.094 267.029 291.695 254.337L300.265 217.174L300.55 197.016L301.482 130.548L301.716 130.421C301.73 130.412 301.746 130.405 301.762 130.4L323.594 118.806L361.265 117.832L389.372 131.99L389.158 132.816L373.382 194.527Z" fill="#3F3D56"/>
<path d="M388.783 291.655C387.918 290.59 387.29 289.341 386.941 287.998C386.593 286.654 386.534 285.248 386.768 283.878C387.003 282.509 387.524 281.209 388.297 280.07C389.069 278.932 390.074 277.982 391.24 277.288L385.125 244.074L400.807 250.833L404.209 281.337C405.206 283.44 405.423 285.848 404.818 288.104C404.213 290.361 402.829 292.31 400.927 293.582C399.026 294.853 396.739 295.36 394.501 295.005C392.263 294.649 390.229 293.457 388.783 291.655Z" fill="#FFB7B7"/>
<path d="M383.704 133.023L387.727 131.669C387.727 131.669 400.492 140.141 399.277 160.623C399.277 160.623 399.755 171.221 399.299 178.275C398.775 186.366 405.797 266.764 405.797 266.764H383.052L373.305 193.957L383.704 133.023Z" fill="#3F3D56"/>
<path d="M370.508 81.4893C370.508 86.8305 368.976 92.0518 366.107 96.4929C363.237 100.934 359.159 104.395 354.387 106.439C349.616 108.483 344.365 109.018 339.3 107.976C334.235 106.934 329.582 104.362 325.93 100.585C322.278 96.8084 319.791 91.9965 318.783 86.7579C317.775 81.5193 318.293 76.0893 320.269 71.1546C322.245 66.22 325.592 62.0022 329.887 59.0348C334.181 56.0674 339.23 54.4835 344.394 54.4835C347.815 54.4746 351.204 55.1627 354.368 56.5083C357.531 57.8539 360.407 59.8308 362.832 62.326C365.257 64.8212 367.183 67.786 368.5 71.0509C369.817 74.3159 370.499 77.8171 370.508 81.3547C370.508 81.3996 370.508 81.4444 370.508 81.4893Z" fill="#FFB7B7"/>
<path d="M318.371 45.2155C321.43 38.4127 327.349 39.7577 332.527 42.0636C339.083 40.5596 345.318 36.0569 352.382 38.7198C359.341 49.1862 382.703 46.1068 377.732 63.1462C377.726 67.2292 385.161 64.8526 383.863 71.5397C387.802 84.4088 369.646 108.781 359.223 103.649C361.8 98.7626 367.689 87.6651 358.758 86.5644C339.545 105.052 356.775 51.3589 332.635 66.9738C324.642 74.5389 313.699 52.7824 318.371 45.2155Z" fill="#2F2E41"/>
<path d="M358.332 261.844L316.648 253.306L327.337 197.496C342.086 203.265 355.98 206.111 369.02 206.034C357.624 223.319 352.447 241.878 358.332 261.844Z" fill="#E4E4E4"/>
<path d="M352.27 265.123L310.587 256.585C307.165 231.301 310.275 212.265 321.275 200.774C336.024 206.544 349.918 209.39 362.958 209.312C356.069 227.066 352.444 245.993 352.27 265.123Z" fill="#B0C4CD"/>
<path d="M324.651 249.577C324.485 248.196 324.029 246.87 323.315 245.692C322.601 244.513 321.645 243.511 320.516 242.756C319.386 242 318.11 241.511 316.778 241.32C315.446 241.13 314.089 241.245 312.804 241.655L293.446 214.409L287.555 230.889L306.841 254.236C307.651 256.422 309.209 258.226 311.219 259.304C313.229 260.383 315.552 260.661 317.747 260.087C319.942 259.513 321.857 258.125 323.13 256.188C324.402 254.251 324.943 251.899 324.651 249.577Z" fill="#FFB7B7"/>
<path d="M307.297 131.984L303.791 129.535C303.791 129.535 282.925 131.544 278.631 151.579C278.631 151.579 275.493 163.615 274.051 170.526C273.309 174.08 263.422 208.421 263.422 208.421L296.952 246.315L306.113 232.105L296.952 208.421L307.297 131.984Z" fill="#3F3D56"/>
<path d="M17.3032 66.5889H0V82.3783H17.3032V66.5889Z" fill="#B0C4CD"/>
<path d="M54.4556 129.747H37.1523V145.537H54.4556V129.747Z" fill="#B0C4CD"/>
<path d="M81.4282 237.642H64.125V253.431H81.4282V237.642Z" fill="#B0C4CD"/>
<path d="M64.2504 30.3418C63.7374 30.3418 63.2455 30.5525 62.8828 30.9276C62.5202 31.3027 62.3164 31.8114 62.3164 32.3419C62.3164 32.8723 62.5202 33.381 62.8828 33.7561C63.2455 34.1312 63.7374 34.3419 64.2504 34.3419H205.451C205.963 34.3407 206.454 34.1294 206.816 33.7545C207.178 33.3795 207.381 32.8715 207.381 32.3419C207.381 31.8122 207.178 31.3042 206.816 30.9292C206.454 30.5543 205.963 30.343 205.451 30.3418H64.2504Z" fill="#E4E4E4"/>
<path d="M64.2484 42.3418C63.9943 42.341 63.7425 42.392 63.5074 42.4919C63.2724 42.5918 63.0587 42.7386 62.8785 42.924C62.6984 43.1093 62.5553 43.3296 62.4575 43.5722C62.3597 43.8147 62.3091 44.0748 62.3086 44.3376C62.3081 44.6005 62.3576 44.8608 62.4544 45.1038C62.5512 45.3468 62.6934 45.5676 62.8728 45.7538C63.0522 45.9399 63.2653 46.0877 63.4999 46.1886C63.7346 46.2895 63.9861 46.3416 64.2402 46.3419H153.509C154.022 46.3419 154.514 46.1312 154.876 45.7561C155.239 45.381 155.443 44.8723 155.443 44.3419C155.443 43.8114 155.239 43.3027 154.876 42.9276C154.514 42.5525 154.022 42.3418 153.509 42.3418H64.2484Z" fill="#E4E4E4"/>
<path d="M45.93 174.025C45.4171 174.025 44.9252 174.236 44.5625 174.611C44.1999 174.986 43.9961 175.495 43.9961 176.025C43.9961 176.556 44.1999 177.065 44.5625 177.44C44.9252 177.815 45.4171 178.026 45.93 178.026H187.131C187.643 178.024 188.134 177.813 188.495 177.438C188.857 177.063 189.06 176.555 189.06 176.025C189.06 175.496 188.857 174.988 188.495 174.613C188.134 174.238 187.643 174.027 187.131 174.025H45.93Z" fill="#E4E4E4"/>
<path d="M45.9281 186.026C45.6739 186.026 45.4222 186.077 45.1871 186.176C44.9521 186.276 44.7384 186.423 44.5582 186.609C44.3781 186.794 44.235 187.014 44.1372 187.257C44.0394 187.499 43.9888 187.759 43.9883 188.022C43.9878 188.285 44.0373 188.545 44.1341 188.788C44.2309 189.031 44.3731 189.252 44.5525 189.438C44.7319 189.624 44.945 189.772 45.1796 189.873C45.4142 189.974 45.6658 190.026 45.9199 190.026H135.189C135.701 190.026 136.193 189.816 136.556 189.441C136.919 189.066 137.122 188.557 137.122 188.026C137.122 187.496 136.919 186.987 136.556 186.612C136.193 186.237 135.701 186.026 135.189 186.026H45.9281Z" fill="#E4E4E4"/>
<path d="M126.34 276.657C125.827 276.657 125.335 276.868 124.973 277.243C124.61 277.618 124.406 278.127 124.406 278.657C124.406 279.188 124.61 279.696 124.973 280.072C125.335 280.447 125.827 280.657 126.34 280.657H267.541C268.053 280.656 268.544 280.445 268.906 280.07C269.267 279.695 269.471 279.187 269.471 278.657C269.471 278.128 269.267 277.62 268.906 277.245C268.544 276.87 268.053 276.658 267.541 276.657H126.34Z" fill="#E4E4E4"/>
<path d="M126.338 288.657C126.084 288.656 125.832 288.707 125.597 288.807C125.362 288.907 125.149 289.054 124.968 289.239C124.788 289.425 124.645 289.645 124.547 289.888C124.45 290.13 124.399 290.39 124.398 290.653C124.398 290.916 124.447 291.176 124.544 291.419C124.641 291.662 124.783 291.883 124.963 292.069C125.142 292.255 125.355 292.403 125.59 292.504C125.824 292.605 126.076 292.657 126.33 292.657H215.599C216.112 292.657 216.604 292.447 216.966 292.072C217.329 291.696 217.533 291.188 217.533 290.657C217.533 290.127 217.329 289.618 216.966 289.243C216.604 288.868 216.112 288.657 215.599 288.657H126.338Z" fill="#E4E4E4"/>
<path d="M8.13807 74.5552C12.2833 73.6138 16.2048 71.8247 19.6717 69.2932C23.1387 66.7616 26.0812 63.5387 28.3262 59.814C29.6008 57.6963 30.6281 55.4297 31.3865 53.0618C31.4438 52.8658 31.4253 52.6543 31.3348 52.4722C31.2443 52.29 31.089 52.1512 30.9015 52.0852C30.714 52.0191 30.5091 52.031 30.3299 52.1181C30.1507 52.2053 30.0112 52.3611 29.9409 52.5526C28.6395 56.5103 26.5855 60.1586 23.8999 63.2827C21.2142 66.4069 17.9512 68.9436 14.3029 70.7435C12.2473 71.7593 10.0819 72.5182 7.8526 73.0041C6.89097 73.2139 7.17441 74.7654 8.13807 74.5552Z" fill="#3F3D56"/>
<path d="M23.0132 56.0858C25.7653 54.483 28.5175 52.8801 31.2696 51.2771C31.3971 51.2033 31.754 50.9237 31.8873 50.9571C31.7805 50.9303 31.8775 51.0122 31.8806 51.1121C31.8849 51.2467 31.9013 51.3834 31.9062 51.5189C31.9361 52.3501 31.9507 53.1822 31.973 54.0137L32.1009 58.7953C32.1279 59.8017 33.6516 59.9214 33.6244 58.9031L33.4742 53.2899C33.4397 52.0035 33.7509 49.1502 31.7355 49.3969C31.0082 49.4859 30.3358 50.0128 29.7155 50.3741L27.2027 51.8376L22.3566 54.6601C21.5032 55.1571 22.1561 56.585 23.0132 56.0858Z" fill="#3F3D56"/>
<path d="M45.9609 137.586C41.8577 138.7 38.0112 140.65 34.6473 143.323C31.2835 145.996 28.4702 149.338 26.3728 153.151C25.1822 155.319 24.2445 157.625 23.5795 160.021C23.5335 160.22 23.5641 160.43 23.6649 160.607C23.7656 160.783 23.9286 160.912 24.1196 160.966C24.3105 161.021 24.5144 160.996 24.6883 160.898C24.8622 160.8 24.9925 160.636 25.0517 160.441C26.2039 156.431 28.1206 152.7 30.6888 149.468C33.2569 146.237 36.4247 143.569 40.0053 141.623C42.0216 140.526 44.1572 139.682 46.3668 139.109C47.3188 138.86 46.9154 137.337 45.9609 137.586Z" fill="#3F3D56"/>
<path d="M31.8041 156.659L23.8258 161.746C23.689 161.833 23.5546 161.928 23.4123 162.006C23.2711 162.083 23.1258 162.08 23.2171 162.173C23.0939 162.048 23.1254 161.584 23.1161 161.443L22.9607 159.056L22.6499 154.284C22.5843 153.275 21.057 153.268 21.1232 154.284L21.488 159.886C21.5711 161.162 21.3413 163.802 23.2298 163.696C24.0706 163.648 24.8717 162.934 25.5608 162.494L27.8403 161.041L32.5746 158.022C33.4095 157.49 32.6436 156.124 31.8041 156.659Z" fill="#3F3D56"/>
<path d="M72.2115 244.898C76.1245 245.957 79.7929 247.816 83.0003 250.364C86.2078 252.913 88.8894 256.1 90.8872 259.737C92.0135 261.785 92.8995 263.965 93.5266 266.23C93.5858 266.425 93.7161 266.589 93.89 266.687C94.0639 266.785 94.2678 266.81 94.4587 266.755C94.6496 266.701 94.8127 266.572 94.9134 266.395C95.0142 266.219 95.0448 266.009 94.9988 265.81C93.7944 261.603 91.789 257.688 89.1006 254.295C86.4121 250.901 83.0948 248.097 79.3436 246.049C77.2118 244.885 74.9539 243.988 72.6174 243.375C71.6645 243.126 71.2579 244.649 72.2115 244.898Z" fill="#3F3D56"/>
<path d="M86.0053 263.812L90.7396 266.831L93.0191 268.284C93.7099 268.725 94.508 269.438 95.3501 269.486C97.2381 269.592 97.0088 266.952 97.0919 265.676L97.4567 260.074C97.5228 259.059 95.9957 259.064 95.93 260.074L95.6192 264.846L95.4705 267.129C95.4591 267.304 95.5034 267.818 95.3628 267.963C95.4632 267.859 95.3586 267.909 95.2465 267.839C95.0836 267.736 94.9167 267.64 94.7541 267.536L86.7759 262.449C85.9372 261.914 85.1695 263.279 86.0053 263.812Z" fill="#3F3D56"/>
<path d="M34.6053 45.0103C38.5403 45.0103 41.7302 41.7113 41.7302 37.6419C41.7302 33.5724 38.5403 30.2734 34.6053 30.2734C30.6704 30.2734 27.4805 33.5724 27.4805 37.6419C27.4805 41.7113 30.6704 45.0103 34.6053 45.0103Z" fill="#B0C4CD"/>
<path d="M22.3905 189.394C26.3254 189.394 29.5153 186.095 29.5153 182.026C29.5153 177.956 26.3254 174.657 22.3905 174.657C18.4555 174.657 15.2656 177.956 15.2656 182.026C15.2656 186.095 18.4555 189.394 22.3905 189.394Z" fill="#B0C4CD"/>
<path d="M99.2381 291.852C103.173 291.852 106.363 288.553 106.363 284.484C106.363 280.414 103.173 277.115 99.2381 277.115C95.3032 277.115 92.1133 280.414 92.1133 284.484C92.1133 288.553 95.3032 291.852 99.2381 291.852Z" fill="#B0C4CD"/>
</g>
<defs>
<clipPath id="clip0_792_138">
<rect width="471" height="300" fill="white"/>
</clipPath>
</defs>
</svg>
