<svg width="465" height="376" viewBox="0 0 465 376" fill="none" xmlns="http://www.w3.org/2000/svg">
<g opacity="0.3">
<path opacity="0.3" d="M464.949 356.556V350.972L463.109 350.113C462.585 352.742 458.86 354.487 455.734 354.849L434.537 365.181L425.292 367.96L395.748 355.26L396.436 354.936C393.908 353.951 392.546 351.708 391.185 349.651L389.195 350.636L388.014 350.923V356.643C388.092 357.294 388.373 357.916 388.83 358.447C389.287 358.978 389.903 359.401 390.617 359.672L420.251 373.905C422.2 374.723 424.351 375.148 426.533 375.148C428.716 375.148 430.867 374.723 432.816 373.905L462.405 359.672C463.106 359.404 463.713 358.991 464.166 358.471C464.619 357.952 464.904 357.344 464.993 356.706C465.001 356.656 465.001 356.606 464.993 356.556H464.949Z" fill="url(#paint0_linear_487_263)"/>
<path opacity="0.3" d="M455.732 354.85L434.535 365.182L426.487 367.6V375.153C428.675 375.19 430.838 374.761 432.77 373.906L462.359 359.673C463.06 359.406 463.667 358.992 464.12 358.472C464.573 357.953 464.858 357.345 464.947 356.707C464.955 356.657 464.955 356.607 464.947 356.557V350.974L463.257 350.188H463.077C462.509 352.781 458.829 354.438 455.732 354.85Z" fill="#0F054C"/>
<path opacity="0.3" d="M420.251 368.222L390.661 353.989C387.191 352.331 387.191 349.614 390.661 347.944L420.251 333.711C422.2 332.894 424.351 332.468 426.534 332.468C428.716 332.468 430.867 332.894 432.816 333.711L462.406 347.944C465.861 349.614 465.861 352.331 462.406 353.989L432.816 368.222C430.869 369.046 428.717 369.475 426.534 369.475C424.35 369.475 422.198 369.046 420.251 368.222Z" fill="url(#paint1_linear_487_263)"/>
<g opacity="0.3">
<path opacity="0.3" d="M420.25 368.222L390.661 353.989C387.19 352.331 387.19 349.614 390.661 347.944L420.25 333.711C422.199 332.894 424.351 332.468 426.533 332.468C428.715 332.468 430.867 332.894 432.816 333.711L462.405 347.944C465.861 349.614 465.861 352.331 462.405 353.989L432.816 368.222C430.869 369.046 428.716 369.475 426.533 369.475C424.35 369.475 422.197 369.046 420.25 368.222Z" fill="#0F054C"/>
</g>
</g>
<path d="M426.488 350.237C424.546 350.267 422.626 349.885 420.909 349.128L391.319 334.895C390.621 334.691 390.015 334.31 389.587 333.807C389.159 333.303 388.929 332.702 388.929 332.084C388.929 331.467 389.159 330.866 389.587 330.362C390.015 329.859 390.621 329.478 391.319 329.274L420.909 315.041C422.637 314.315 424.545 313.938 426.481 313.938C428.416 313.938 430.325 314.315 432.053 315.041L461.657 329.274C462.356 329.478 462.961 329.859 463.39 330.362C463.818 330.866 464.048 331.467 464.048 332.084C464.048 332.702 463.818 333.303 463.39 333.807C462.961 334.31 462.356 334.691 461.657 334.895L432.068 349.128C430.351 349.885 428.431 350.267 426.488 350.237ZM426.488 314.368C424.636 314.337 422.803 314.697 421.163 315.415L391.574 329.648C390.959 329.818 390.425 330.145 390.046 330.582C389.667 331.019 389.463 331.545 389.463 332.084C389.463 332.624 389.667 333.149 390.046 333.587C390.425 334.024 390.959 334.351 391.574 334.521L421.163 348.754C422.812 349.449 424.633 349.811 426.481 349.811C428.328 349.811 430.15 349.449 431.799 348.754L461.388 334.496C462.002 334.326 462.537 333.999 462.916 333.562C463.294 333.125 463.498 332.599 463.498 332.06C463.498 331.52 463.294 330.995 462.916 330.557C462.537 330.12 462.002 329.793 461.388 329.623L431.799 315.39C430.16 314.682 428.333 314.331 426.488 314.368Z" fill="#42E8E0"/>
<path opacity="0.4" d="M464.949 326.62V318.182L463.11 317.322C462.586 319.965 458.861 321.697 455.735 322.059L434.538 332.391L425.293 335.17L395.748 322.47L396.437 322.146C393.909 321.161 392.547 318.918 391.186 316.861L389.196 317.846L388.015 318.133V326.707C388.093 327.358 388.374 327.98 388.831 328.511C389.288 329.042 389.904 329.465 390.618 329.736L420.252 343.969C422.199 344.792 424.351 345.222 426.534 345.222C428.718 345.222 430.87 344.792 432.817 343.969L462.406 329.736C463.107 329.468 463.714 329.055 464.167 328.535C464.62 328.016 464.905 327.408 464.994 326.77C465.002 326.72 465.002 326.67 464.994 326.62H464.949Z" fill="#42E8E0"/>
<path d="M464.949 319.117V313.533L463.11 312.673C462.586 315.315 458.861 317.048 455.735 317.409L434.538 327.741L425.293 330.521L395.748 317.82L396.437 317.496C393.909 316.512 392.547 314.268 391.186 312.212L389.196 313.209L388.015 313.483V319.204C388.093 319.854 388.374 320.476 388.831 321.007C389.288 321.539 389.904 321.961 390.618 322.232L420.252 336.466C422.199 337.289 424.351 337.718 426.534 337.718C428.718 337.718 430.87 337.289 432.817 336.466L462.406 322.232C463.107 321.965 463.714 321.551 464.167 321.032C464.62 320.512 464.905 319.904 464.994 319.266C465.002 319.217 465.002 319.166 464.994 319.117H464.949Z" fill="url(#paint2_linear_487_263)"/>
<path opacity="0.3" d="M455.733 317.409L434.536 327.742L426.488 330.159V337.712C428.676 337.75 430.839 337.321 432.771 336.466L462.36 322.233C463.061 321.965 463.667 321.552 464.121 321.032C464.574 320.512 464.859 319.904 464.948 319.266C464.956 319.217 464.956 319.166 464.948 319.117V313.533L463.258 312.748H463.078C462.51 315.34 458.83 317.048 455.733 317.409Z" fill="#0F054C"/>
<path d="M420.252 330.757L390.662 316.524C387.192 314.854 387.192 312.137 390.662 310.479L420.252 296.284C422.199 295.46 424.351 295.031 426.535 295.031C428.718 295.031 430.87 295.46 432.817 296.284L462.407 310.517C465.862 312.174 465.862 314.891 462.407 316.562L432.772 330.757C430.829 331.569 428.686 331.991 426.512 331.991C424.338 331.991 422.195 331.569 420.252 330.757Z" fill="url(#paint3_linear_487_263)"/>
<path d="M462.361 316.562L432.772 330.758C430.823 331.575 428.671 332.001 426.489 332.001C424.307 332.001 422.155 331.575 420.206 330.758L390.617 316.524C389.971 316.271 389.404 315.897 388.958 315.433C388.512 314.968 388.199 314.425 388.044 313.845C387.834 315.091 388.702 316.337 390.617 317.21L420.251 331.48C422.198 332.304 424.35 332.733 426.534 332.733C428.717 332.733 430.87 332.304 432.817 331.48L462.406 317.247C463.196 316.974 463.865 316.504 464.323 315.902C464.781 315.299 465.005 314.594 464.964 313.882C464.804 314.465 464.487 315.009 464.035 315.474C463.584 315.938 463.011 316.31 462.361 316.562Z" fill="white"/>
<path d="M411.63 312.867L344.325 279.326L322.927 289.606H322.678L281.001 269.149L281.25 268.63L322.927 288.983L344.325 278.703L344.823 278.91L411.879 312.348L411.63 312.867Z" fill="url(#paint4_linear_487_263)"/>
<g opacity="0.3">
<path opacity="0.3" d="M76.9864 355.951V350.367L75.1305 349.507C74.6067 352.149 70.8801 353.882 67.7672 354.243L46.545 364.575L37.2959 367.355L7.73752 354.654L8.426 354.33C5.89671 353.346 4.53477 351.102 3.17284 349.046L1.18235 350.043L0 350.317V356.038C0.0783415 356.688 0.359991 357.31 0.816914 357.841C1.27384 358.373 1.89005 358.795 2.60411 359.066L32.2073 373.3C34.1552 374.123 36.3088 374.552 38.4932 374.552C40.6776 374.552 42.8311 374.123 44.779 373.3L74.3822 359.066C75.0862 358.801 75.6958 358.388 76.1521 357.868C76.6083 357.348 76.8957 356.739 76.9864 356.1C76.9864 356.1 76.9864 356 76.9864 355.951Z" fill="url(#paint5_linear_487_263)"/>
<path opacity="0.3" d="M67.7671 354.268L46.545 364.6L38.4932 367.018V374.571C40.6818 374.608 42.8455 374.179 44.779 373.324L74.3822 359.091C75.0862 358.825 75.6958 358.412 76.152 357.893C76.6083 357.373 76.8956 356.764 76.9864 356.125C76.9864 356.125 76.9864 356.025 76.9864 355.975V350.392L75.2802 349.606H75.1006C74.5319 352.174 70.8502 353.881 67.7671 354.268Z" fill="#0F054C"/>
<path opacity="0.3" d="M32.2074 367.629L2.60413 353.396C-0.868042 351.726 -0.868042 349.009 2.60413 347.351L32.2074 333.08C34.1552 332.257 36.3088 331.828 38.4932 331.828C40.6776 331.828 42.8311 332.257 44.779 333.08L74.3822 347.314C77.8394 348.971 77.8394 351.688 74.3822 353.358L44.779 367.629C42.8291 368.447 40.6763 368.872 38.4932 368.872C36.3101 368.872 34.1573 368.447 32.2074 367.629Z" fill="url(#paint6_linear_487_263)"/>
<g opacity="0.3">
<path opacity="0.3" d="M32.2074 367.629L2.60413 353.396C-0.868042 351.726 -0.868042 349.009 2.60413 347.351L32.2074 333.08C34.1552 332.257 36.3088 331.828 38.4932 331.828C40.6776 331.828 42.8311 332.257 44.779 333.08L74.3822 347.314C77.8394 348.971 77.8394 351.688 74.3822 353.358L44.779 367.629C42.8291 368.447 40.6763 368.872 38.4932 368.872C36.3101 368.872 34.1573 368.447 32.2074 367.629Z" fill="#0F054C"/>
</g>
</g>
<path d="M38.4934 346.916C36.5491 346.951 34.6266 346.569 32.9109 345.807L3.30769 331.573C2.6137 331.366 2.01349 330.986 1.58914 330.484C1.16478 329.982 0.937012 329.383 0.937012 328.769C0.937012 328.155 1.16478 327.556 1.58914 327.054C2.01349 326.552 2.6137 326.172 3.30769 325.965L32.9109 311.732C34.6408 311 36.5534 310.619 38.4934 310.619C40.4333 310.619 42.3459 311 44.0757 311.732L73.679 325.965C74.373 326.172 74.9732 326.552 75.3976 327.054C75.8219 327.556 76.0497 328.155 76.0497 328.769C76.0497 329.383 75.8219 329.982 75.3976 330.484C74.9732 330.986 74.373 331.366 73.679 331.573L44.0757 345.807C42.3601 346.569 40.4376 346.951 38.4934 346.916ZM33.1654 345.433C34.815 346.127 36.6375 346.489 38.4859 346.489C40.3343 346.489 42.1568 346.127 43.8064 345.433L73.4096 331.199C74.0709 331.074 74.6614 330.765 75.0844 330.324C75.5074 329.882 75.7377 329.334 75.7377 328.769C75.7377 328.204 75.5074 327.656 75.0844 327.215C74.6614 326.773 74.0709 326.464 73.4096 326.339L43.8064 312.106C42.1589 311.405 40.3355 311.04 38.4859 311.04C36.6362 311.04 34.8129 311.405 33.1654 312.106L3.56213 326.339C2.90083 326.464 2.31031 326.773 1.88734 327.215C1.46436 327.656 1.23398 328.204 1.23398 328.769C1.23398 329.334 1.46436 329.882 1.88734 330.324C2.31031 330.765 2.90083 331.074 3.56213 331.199L33.1654 345.433Z" fill="#42E8E0"/>
<path opacity="0.4" d="M76.9864 323.31V314.86L75.1305 314C74.6067 316.642 70.8801 318.375 67.7672 318.736L46.545 329.068L37.2959 331.835L7.73752 319.135L8.426 318.811C5.89671 317.826 4.53477 315.583 3.17284 313.526L1.18235 314.523L0 314.798V323.385C0.0718812 324.035 0.351202 324.658 0.809058 325.188C1.26691 325.718 1.88665 326.137 2.60411 326.401L32.2073 340.634C34.1552 341.458 36.3088 341.887 38.4932 341.887C40.6776 341.887 42.8311 341.458 44.779 340.634L74.3822 326.401C75.0862 326.135 75.6958 325.722 76.1521 325.203C76.6083 324.683 76.8957 324.074 76.9864 323.435C76.9864 323.435 76.9864 323.335 76.9864 323.285V323.31Z" fill="#42E8E0"/>
<path d="M76.9864 315.795V310.211L75.1305 309.351C74.6067 311.993 70.8801 313.726 67.7672 314.087L46.545 324.419L37.2959 327.199L7.73752 314.498L8.426 314.174C5.89671 313.19 4.53477 310.946 3.17284 308.902L1.18235 309.887L0 310.161V315.894C0.0808399 316.542 0.36365 317.162 0.820431 317.691C1.27721 318.22 1.89209 318.64 2.60411 318.91L32.2073 333.144C34.1552 333.967 36.3088 334.396 38.4932 334.396C40.6776 334.396 42.8311 333.967 44.779 333.144L74.3822 318.91C75.0862 318.645 75.6958 318.232 76.1521 317.712C76.6083 317.192 76.8957 316.583 76.9864 315.944C76.9864 315.944 76.9864 315.844 76.9864 315.795Z" fill="url(#paint7_linear_487_263)"/>
<path d="M32.2074 327.472L2.60413 313.239C-0.868042 311.569 -0.868042 308.852 2.60413 307.195L32.2074 292.961C34.1552 292.138 36.3088 291.709 38.4932 291.709C40.6776 291.709 42.8311 292.138 44.779 292.961L74.3822 307.195C77.8394 308.865 77.8394 311.569 74.3822 313.239L44.779 327.472C42.8311 328.296 40.6776 328.725 38.4932 328.725C36.3088 328.725 34.1552 328.296 32.2074 327.472Z" fill="url(#paint8_linear_487_263)"/>
<path d="M38.4943 324.88C36.7383 324.913 35.0016 324.57 33.4507 323.883L10.3278 312.766C9.69554 312.579 9.14828 312.233 8.76126 311.777C8.37425 311.321 8.1665 310.776 8.1665 310.217C8.1665 309.658 8.37425 309.113 8.76126 308.657C9.14828 308.2 9.69554 307.855 10.3278 307.668L33.4507 296.551C35.0127 295.888 36.741 295.542 38.4943 295.542C40.2476 295.542 41.9759 295.888 43.5379 296.551L66.6608 307.668C67.2931 307.855 67.8403 308.2 68.2273 308.657C68.6143 309.113 68.8221 309.658 68.8221 310.217C68.8221 310.776 68.6143 311.321 68.2273 311.777C67.8403 312.233 67.2931 312.579 66.6608 312.766L43.5379 323.883C41.987 324.57 40.2503 324.913 38.4943 324.88ZM33.7051 323.509C35.1865 324.136 36.8249 324.463 38.4868 324.463C40.1487 324.463 41.7871 324.136 43.2685 323.509L66.4063 312.392C66.9615 312.246 67.4463 311.956 67.7905 311.565C68.1346 311.174 68.3202 310.702 68.3202 310.217C68.3202 309.732 68.1346 309.26 67.7905 308.869C67.4463 308.478 66.9615 308.188 66.4063 308.042L43.2685 296.937C41.7871 296.31 40.1487 295.983 38.4868 295.983C36.8249 295.983 35.1865 296.31 33.7051 296.937L10.5823 308.055C10.0626 308.243 9.61251 308.543 9.27842 308.924C8.94434 309.305 8.73828 309.754 8.68152 310.223C8.74025 310.694 8.94688 311.143 9.28057 311.526C9.61425 311.909 10.0632 312.212 10.5823 312.404L33.7051 323.509Z" fill="#5351AF"/>
<path d="M74.3811 313.24L44.7778 327.473C42.83 328.297 40.6764 328.726 38.492 328.726C36.3076 328.726 34.154 328.297 32.2062 327.473L2.60294 313.24C1.95696 312.986 1.3892 312.613 0.943037 312.149C0.496878 311.684 0.184141 311.141 0.0287478 310.561C-0.00547326 311.275 0.222592 311.981 0.682516 312.584C1.14244 313.188 1.81236 313.66 2.60294 313.938L32.2062 328.171C34.1561 328.989 36.3089 329.415 38.492 329.415C40.6751 329.415 42.8279 328.989 44.7778 328.171L74.3811 313.938C75.1714 313.661 75.8406 313.188 76.2982 312.584C76.7559 311.98 76.98 311.274 76.9403 310.561C76.7876 311.14 76.4775 311.683 76.0339 312.148C75.5903 312.612 75.0249 312.986 74.3811 313.24Z" fill="white"/>
<path d="M42.1182 322.766L109.196 290.624L130.663 300.269L130.912 300.268L172.451 280.661L172.198 280.17L130.659 299.678L109.192 290.033L108.696 290.233L41.8659 322.275L42.1182 322.766Z" fill="url(#paint9_linear_487_263)"/>
<g opacity="0.3">
<path opacity="0.3" d="M464.154 130.08V124.497L462.3 123.637C461.777 126.267 458.054 128.012 454.944 128.373L433.742 138.693L424.502 141.485L394.972 128.784L395.66 128.448C393.133 127.476 391.773 125.22 390.412 123.176L388.423 124.16L387.242 124.435V130.168C387.312 130.819 387.591 131.442 388.049 131.972C388.506 132.503 389.126 132.921 389.844 133.184L419.419 147.417C421.365 148.24 423.516 148.669 425.698 148.669C427.881 148.669 430.032 148.24 431.978 147.417L461.553 133.184C462.256 132.918 462.865 132.505 463.321 131.986C463.777 131.466 464.064 130.857 464.154 130.218V130.08Z" fill="url(#paint10_linear_487_263)"/>
<path opacity="0.3" d="M454.944 128.372L433.742 138.692L425.698 141.123V148.675C427.884 148.713 430.046 148.284 431.978 147.429L461.552 133.196C462.256 132.93 462.865 132.517 463.32 131.997C463.776 131.478 464.063 130.869 464.154 130.23V130.092V124.509L462.464 123.724H462.285C461.687 126.304 458.024 128.011 454.944 128.372Z" fill="#0F054C"/>
<path opacity="0.3" d="M419.419 141.746L389.919 127.513C386.45 125.843 386.45 123.138 389.919 121.468L419.419 107.185C421.365 106.362 423.516 105.933 425.699 105.933C427.881 105.933 430.033 106.362 431.979 107.185L461.553 121.418C465.022 123.088 465.022 125.793 461.553 127.463L431.979 141.696C430.037 142.527 427.888 142.965 425.706 142.973C423.524 142.982 421.37 142.562 419.419 141.746Z" fill="url(#paint11_linear_487_263)"/>
<g opacity="0.3">
<path opacity="0.3" d="M419.419 141.746L389.919 127.513C386.45 125.843 386.45 123.138 389.919 121.468L419.419 107.185C421.365 106.362 423.516 105.933 425.699 105.933C427.881 105.933 430.033 106.362 431.979 107.185L461.553 121.418C465.022 123.088 465.022 125.793 461.553 127.463L431.979 141.696C430.037 142.527 427.888 142.965 425.706 142.973C423.524 142.982 421.37 142.562 419.419 141.746Z" fill="#0F054C"/>
</g>
</g>
<path d="M425.7 124.697C423.758 124.726 421.84 124.344 420.123 123.587L390.548 109.354C389.85 109.15 389.245 108.769 388.817 108.266C388.389 107.763 388.159 107.161 388.159 106.544C388.159 105.927 388.389 105.325 388.817 104.821C389.245 104.318 389.85 103.938 390.548 103.733L420.123 89.4999C421.853 88.7744 423.763 88.3965 425.7 88.3965C427.637 88.3965 429.547 88.7744 431.277 89.4999L460.852 103.733C461.55 103.938 462.155 104.318 462.583 104.821C463.011 105.325 463.241 105.927 463.241 106.544C463.241 107.161 463.011 107.763 462.583 108.266C462.155 108.769 461.55 109.15 460.852 109.354L431.277 123.587C429.56 124.344 427.642 124.726 425.7 124.697ZM425.7 88.8144C423.852 88.7877 422.025 89.1522 420.392 89.8738L390.802 104.107C390.188 104.277 389.654 104.604 389.275 105.041C388.897 105.479 388.693 106.004 388.693 106.544C388.693 107.083 388.897 107.609 389.275 108.046C389.654 108.483 390.188 108.81 390.802 108.98L420.392 123.213C422.04 123.908 423.861 124.27 425.707 124.27C427.554 124.27 429.375 123.908 431.023 123.213L460.598 108.98C461.212 108.81 461.746 108.483 462.124 108.046C462.503 107.609 462.707 107.083 462.707 106.544C462.707 106.004 462.503 105.479 462.124 105.041C461.746 104.604 461.212 104.277 460.598 104.107L431.023 89.8738C429.384 89.1522 427.553 88.7878 425.7 88.8144Z" fill="#42E8E0"/>
<path opacity="0.4" d="M464.155 101.078V92.6404L462.301 91.7804C461.778 94.4102 458.055 96.1551 454.945 96.5165L433.743 106.849L424.503 109.678L394.973 96.9777L395.661 96.6536C393.134 95.669 391.773 93.4256 390.412 91.3691L388.424 92.3537L387.243 92.6404V101.215C387.338 101.863 387.635 102.479 388.105 103.002C388.574 103.524 389.2 103.935 389.919 104.194L419.419 118.402C421.365 119.226 423.517 119.655 425.699 119.655C427.881 119.655 430.033 119.226 431.979 118.402L461.553 104.169C462.257 103.903 462.866 103.49 463.321 102.971C463.777 102.451 464.064 101.842 464.155 101.203V101.053V101.078Z" fill="#42E8E0"/>
<path d="M464.155 93.5757V87.9921L462.301 87.1321C461.778 89.7619 458.055 91.5067 454.945 91.8682L433.743 102.2L424.503 104.98L394.973 92.2296L395.661 91.9056C393.134 90.921 391.773 88.6776 390.412 86.6211L388.424 87.6057L387.243 87.8924V93.6131C387.321 94.2634 387.602 94.8852 388.059 95.4166C388.515 95.948 389.131 96.3704 389.844 96.6417L419.419 110.925C421.367 111.742 423.518 112.168 425.699 112.168C427.88 112.168 430.031 111.742 431.979 110.925L461.553 96.6915C462.257 96.4256 462.866 96.0128 463.321 95.4932C463.777 94.9735 464.064 94.3645 464.155 93.7252V93.5757Z" fill="url(#paint12_linear_487_263)"/>
<path opacity="0.3" d="M454.945 91.8683L433.743 102.2L425.699 104.618V112.171C427.885 112.209 430.047 111.78 431.979 110.925L461.553 96.6917C462.257 96.4258 462.866 96.013 463.321 95.4933C463.777 94.9736 464.064 94.3647 464.155 93.7254V93.5758V87.9922L462.465 87.207H462.286C461.688 89.7994 458.025 91.5069 454.945 91.8683Z" fill="#0F054C"/>
<path d="M395.661 91.9543L423.696 78.5187C424.32 78.2578 425.008 78.1219 425.707 78.1219C426.405 78.1219 427.093 78.2578 427.718 78.5187L455.244 91.7673L454.945 91.9169C458.055 91.5554 461.778 89.8106 462.301 87.1808L431.396 72.8479L422.425 70.8662L415.098 74.4557L390.428 86.7196C391.773 88.7263 393.134 90.9821 395.661 91.9543Z" fill="url(#paint13_linear_487_263)"/>
<path opacity="0.3" d="M425.699 71.5518L422.41 70.8164L415.083 74.4059L390.413 86.6698C391.773 88.7263 393.134 90.9697 395.661 91.9543L423.695 78.5188C424.308 78.2371 424.999 78.0953 425.699 78.1075V71.5518Z" fill="#0F054C"/>
<path d="M419.42 105.24L389.919 90.9822C386.451 89.3246 386.451 86.6076 389.919 84.9375L419.494 70.7043C421.442 69.8868 423.593 69.4609 425.774 69.4609C427.955 69.4609 430.106 69.8868 432.054 70.7043L461.629 84.9375C465.097 86.6076 465.097 89.3246 461.629 90.9822L432.054 105.215C430.101 106.053 427.937 106.492 425.74 106.496C423.544 106.5 421.377 106.07 419.42 105.24ZM427.718 72.8355C427.094 72.5746 426.405 72.4387 425.707 72.4387C425.008 72.4387 424.32 72.5746 423.696 72.8355L394.121 87.0687C393.875 87.1353 393.66 87.2653 393.508 87.4399C393.355 87.6146 393.273 87.8249 393.273 88.0409C393.273 88.2568 393.355 88.4672 393.508 88.6418C393.66 88.8165 393.875 88.9464 394.121 89.013L423.696 103.246C424.32 103.507 425.008 103.643 425.707 103.643C426.405 103.643 427.094 103.507 427.718 103.246L457.293 89.013C457.532 88.9404 457.739 88.8082 457.885 88.6343C458.031 88.4604 458.109 88.2532 458.109 88.0409C458.109 87.8285 458.031 87.6214 457.885 87.4474C457.739 87.2735 457.532 87.1413 457.293 87.0687L427.718 72.8355Z" fill="url(#paint14_linear_487_263)"/>
<path d="M457.292 87.0187L427.717 72.7855C427.093 72.5246 426.404 72.3887 425.706 72.3887C425.008 72.3887 424.319 72.5246 423.695 72.7855L394.12 87.0187C393.372 87.3801 393.133 87.8787 393.372 88.3398C393.541 88.0742 393.801 87.8571 394.12 87.7167L423.695 73.5333C424.319 73.2724 425.008 73.1365 425.706 73.1365C426.404 73.1365 427.093 73.2724 427.717 73.5333L457.292 87.7665C457.606 87.907 457.862 88.1245 458.024 88.3897C458.263 87.8787 458.024 87.3801 457.292 87.0187Z" fill="white"/>
<path d="M461.554 90.9826L431.98 105.216C430.034 106.039 427.882 106.468 425.7 106.468C423.518 106.468 421.366 106.039 419.42 105.216L389.92 90.9826C389.275 90.7325 388.707 90.3618 388.261 89.8993C387.815 89.4367 387.503 88.8948 387.348 88.3154C387.315 89.0279 387.544 89.7318 388.003 90.3331C388.463 90.9344 389.131 91.4045 389.92 91.6805L419.42 105.939C421.366 106.762 423.518 107.191 425.7 107.191C427.882 107.191 430.034 106.762 431.98 105.939L461.554 91.7055C462.343 91.4294 463.012 90.9594 463.471 90.358C463.931 89.7567 464.159 89.0528 464.126 88.3404C463.968 88.9152 463.654 89.4522 463.208 89.9102C462.762 90.3681 462.197 90.735 461.554 90.9826Z" fill="white"/>
<path d="M420.256 104.842L390.681 90.6085C387.691 89.1628 387.691 86.8695 390.681 85.3739L420.256 71.1407C421.941 70.423 423.806 70.0488 425.698 70.0488C427.591 70.0488 429.456 70.423 431.141 71.1407L460.716 85.3739C463.706 86.8197 463.706 89.1129 460.716 90.6085L431.141 104.842C429.456 105.559 427.591 105.934 425.698 105.934C423.806 105.934 421.941 105.559 420.256 104.842ZM428.539 72.4369C427.66 72.0617 426.686 71.8661 425.698 71.8661C424.711 71.8661 423.737 72.0617 422.858 72.4369L393.283 86.6202C392.938 86.7165 392.638 86.9006 392.426 87.1466C392.213 87.3926 392.099 87.6881 392.099 87.9912C392.099 88.2943 392.213 88.5898 392.426 88.8358C392.638 89.0818 392.938 89.266 393.283 89.3622L422.813 103.595C423.695 103.964 424.667 104.156 425.654 104.156C426.64 104.156 427.613 103.964 428.494 103.595L458.084 89.3622C458.429 89.266 458.729 89.0818 458.941 88.8358C459.154 88.5898 459.268 88.2943 459.268 87.9912C459.268 87.6881 459.154 87.3926 458.941 87.1466C458.729 86.9006 458.429 86.7165 458.084 86.6202L428.539 72.4369Z" fill="url(#paint15_linear_487_263)"/>
<path opacity="0.4" d="M427.719 72.7855C427.094 72.5246 426.406 72.3887 425.708 72.3887C425.009 72.3887 424.321 72.5246 423.696 72.7855L394.122 87.0187C393.875 87.0853 393.661 87.2153 393.508 87.3899C393.356 87.5646 393.274 87.7749 393.274 87.9908C393.274 88.2068 393.356 88.4171 393.508 88.5918C393.661 88.7664 393.875 88.8964 394.122 88.963L423.696 103.196C424.321 103.457 425.009 103.593 425.708 103.593C426.406 103.593 427.094 103.457 427.719 103.196L457.293 88.963C457.533 88.8904 457.739 88.7582 457.886 88.5843C458.032 88.4104 458.11 88.2032 458.11 87.9908C458.11 87.7785 458.032 87.5713 457.886 87.3974C457.739 87.2235 457.533 87.0913 457.293 87.0187L427.719 72.7855Z" fill="#42E8E0"/>
<path d="M405.407 116.542L336.874 148.312L336.866 168.884L336.741 169.064L294.629 188.892L294.213 188.453L336.218 168.573L336.226 148L336.691 147.745L404.992 116.103L405.407 116.542Z" fill="url(#paint16_linear_487_263)"/>
<path opacity="0.5" d="M362.625 206.63L374.222 212.22V234.54L362.625 228.96V206.63Z" fill="#758EF5"/>
<path opacity="0.2" d="M351.029 212.22L362.626 217.8V228.96L351.029 223.38V212.22Z" fill="#758EF5"/>
<path opacity="0.5" d="M339.433 173.14L351.029 178.73V223.38L339.433 217.8V173.14Z" fill="#758EF5"/>
<path opacity="0.2" d="M327.825 156.399L339.433 161.979V217.8L327.825 212.22V156.399Z" fill="#758EF5"/>
<path opacity="0.5" d="M316.229 161.979L327.825 167.56V212.22L316.229 206.63V161.979Z" fill="#758EF5"/>
<path opacity="0.2" d="M304.631 122.909L316.228 128.489V206.63L304.631 201.05V122.909Z" fill="#758EF5"/>
<path opacity="0.5" d="M293.037 128.489L304.633 134.069V201.05L293.037 195.47V128.489Z" fill="#758EF5"/>
<path opacity="0.2" d="M281.44 134.069L293.037 139.649V195.47L281.44 189.89V134.069Z" fill="#758EF5"/>
<path opacity="0.5" d="M269.833 106.159L281.441 111.749V189.89L269.833 184.31V106.159Z" fill="#758EF5"/>
<path opacity="0.2" d="M258.236 78.2588L269.833 83.8388V184.309L258.236 178.719V78.2588Z" fill="#758EF5"/>
<path opacity="0.5" d="M246.64 83.8389L258.236 89.4189V178.72L246.64 173.139V83.8389Z" fill="#758EF5"/>
<path opacity="0.2" d="M235.044 55.9287L246.64 61.5088V173.14L235.044 167.559V55.9287Z" fill="#758EF5"/>
<path opacity="0.5" d="M223.434 50.3486L235.042 55.9287V167.559L223.434 161.979V50.3486Z" fill="#758EF5"/>
<path opacity="0.2" d="M211.838 22.4385L223.434 28.0185V161.979L211.838 156.399V22.4385Z" fill="#758EF5"/>
<path opacity="0.4" d="M223.23 317.354C281.907 317.354 329.473 294.463 329.473 266.227C329.473 237.99 281.907 215.1 223.23 215.1C164.554 215.1 116.988 237.99 116.988 266.227C116.988 294.463 164.554 317.354 223.23 317.354Z" fill="#0F054C"/>
<path d="M223.231 297.026C290.015 297.026 344.155 270.973 344.155 238.834C344.155 206.696 290.015 180.643 223.231 180.643C156.447 180.643 102.308 206.696 102.308 238.834C102.308 270.973 156.447 297.026 223.231 297.026Z" fill="url(#paint17_linear_487_263)"/>
<path opacity="0.48" d="M344.167 219.673H341.178C336.325 209.31 325.517 199.455 308.745 191.394C261.523 168.665 184.952 168.665 137.79 191.394C121.95 199.017 111.49 208.224 106.218 217.959H102.428V230.863C101.484 246.318 113.271 261.922 137.79 273.71C185.012 296.429 261.583 296.429 308.805 273.71C332.415 262.34 344.227 247.454 344.227 232.557L344.167 219.673Z" fill="url(#paint18_linear_487_263)"/>
<path opacity="0.48" d="M341.178 214.671C341.011 214.313 340.832 213.954 340.64 213.595V205.116H334.304V204.508C332.649 202.656 330.852 200.896 328.925 199.237V205.116H325.338V196.317C323.657 195.042 321.855 193.793 319.935 192.57V205.135H316.348V190.338C314.615 189.342 312.762 188.345 310.921 187.409V205.086H307.334V185.655C305.565 184.825 303.752 184.028 301.895 183.264V205.086H298.308V181.879C296.515 181.214 294.698 180.55 292.857 179.886V205.086H289.271V184.709H283.807V205.116H280.221V190.338H274.733V205.145H271.147V195.938H265.648V205.145H262.133V201.548H256.67V205.145H189.89V201.548H184.367V205.145H180.852V195.938H175.377V205.145H171.79V190.338H166.303V205.145H162.717V184.709H157.253V205.116H153.667V179.896C151.826 180.52 150.009 181.184 148.215 181.889V205.145H144.629V183.274C142.776 184.041 140.959 184.828 139.189 185.655V205.116H135.603V187.409C133.714 188.352 131.905 189.325 130.175 190.328V205.116H126.589V192.521C124.664 193.736 122.871 194.992 121.185 196.267V205.116H117.599V199.137C115.679 200.798 113.882 202.555 112.219 204.398V205.066H105.883V212.888H103.193V234.52C104.242 238.559 106.054 242.434 108.561 245.999V232.517H112.219V250.623C113.876 252.467 115.673 254.221 117.599 255.874V232.517H121.185V258.803C122.871 260.069 124.676 261.324 126.589 262.54V232.517H130.175V264.732C131.913 265.729 133.722 266.705 135.603 267.662V232.517H139.189V269.386C140.959 270.203 142.772 270.997 144.629 271.767V232.517H148.215V273.202C150.009 273.866 151.826 274.531 153.667 275.195V232.547H157.253V276.391C159.046 276.959 160.84 277.497 162.717 278.015V232.517H166.303V278.892C168.12 279.36 169.889 279.798 171.79 280.217V232.517H175.377V281.014C177.194 281.383 179.023 281.741 180.876 282.07V232.547H184.391V282.678C186.22 282.977 188.061 283.246 189.914 283.505V232.517H193.417V283.924C195.246 284.153 197.099 284.352 198.952 284.541V232.517H202.431V284.86C204.272 285.01 206.125 285.139 207.99 285.259V232.517H211.444V285.448C213.309 285.528 215.162 285.598 217.027 285.647V232.517H220.47V285.707C222.351 285.707 224.228 285.707 226.101 285.707V232.517H229.544V285.647C231.409 285.647 233.262 285.528 235.127 285.448V232.517H238.582V285.259C240.447 285.139 242.3 285.01 244.141 284.85V232.517H247.62V284.531C249.473 284.352 251.326 284.143 253.155 283.924V232.517H256.67V283.465C258.523 283.216 260.364 282.937 262.193 282.638V232.517H265.708V282.01C267.561 281.672 269.39 281.323 271.207 280.944V232.517H274.793V280.207C276.634 279.788 278.463 279.34 280.28 278.882V232.517H283.867V277.925C285.708 277.417 287.537 276.929 289.33 276.311V232.517H292.917V275.145C294.758 274.517 296.575 273.87 298.368 273.152V232.517H301.955V271.767C303.812 270.997 305.625 270.203 307.394 269.386V232.517H310.981V267.642C312.869 266.685 314.679 265.705 316.408 264.702V232.517H319.994V262.51C321.907 261.281 323.708 260.032 325.398 258.764V232.517H328.985V255.844C330.914 254.187 332.712 252.426 334.364 250.573V232.517H337.963V245.959C340.49 242.363 342.302 238.45 343.33 234.371V214.681L341.178 214.671Z" fill="url(#paint19_linear_487_263)"/>
<path d="M223.231 272.883C290.015 272.883 344.155 246.829 344.155 214.691C344.155 182.552 290.015 156.499 223.231 156.499C156.447 156.499 102.308 182.552 102.308 214.691C102.308 246.829 156.447 272.883 223.231 272.883Z" fill="url(#paint20_linear_487_263)"/>
<path opacity="0.3" d="M223.279 156.459C195.879 156.459 168.478 160.913 146.171 169.811L110.091 235.177C115.973 242.701 125.166 249.745 137.73 255.794C145.839 259.642 154.4 262.787 163.278 265.18L223.279 156.459Z" fill="#91A2FA"/>
<path opacity="0.3" d="M257.158 158.83L195.089 271.288C210.088 272.986 225.264 273.32 240.35 272.284L297.482 168.765C284.604 164.034 271.053 160.696 257.158 158.83Z" fill="#91A2FA"/>
<g opacity="0.05">
<path opacity="0.05" d="M223.231 266.227C282.376 266.227 330.323 243.153 330.323 214.691C330.323 186.229 282.376 163.155 223.231 163.155C164.086 163.155 116.14 186.229 116.14 214.691C116.14 243.153 164.086 266.227 223.231 266.227Z" fill="url(#paint21_linear_487_263)"/>
<g opacity="0.05">
<path opacity="0.05" d="M31.9421 214.472L30.7944 213.914L217.362 124.135L218.509 124.693L31.9421 214.472Z" fill="#91A2FA"/>
<path opacity="0.05" d="M35.2287 216.046L34.0811 215.498L220.648 125.719L221.796 126.267L35.2287 216.046Z" fill="#91A2FA"/>
<path opacity="0.05" d="M38.5173 217.631L37.3696 217.083L223.937 127.304L225.085 127.852L38.5173 217.631Z" fill="#91A2FA"/>
<path opacity="0.05" d="M41.8044 219.215L40.6567 218.667L227.224 128.888L228.372 129.436L41.8044 219.215Z" fill="#91A2FA"/>
<path opacity="0.05" d="M45.093 220.799L43.9453 220.241L230.513 130.462L231.66 131.02L45.093 220.799Z" fill="#91A2FA"/>
<path opacity="0.05" d="M48.3796 222.374L47.2319 221.826L233.799 132.047L234.947 132.595L48.3796 222.374Z" fill="#91A2FA"/>
<path opacity="0.05" d="M51.6667 223.958L50.519 223.41L237.086 133.631L238.222 134.179L51.6667 223.958Z" fill="#91A2FA"/>
<path opacity="0.05" d="M54.9553 225.542L53.8076 224.994L240.375 135.215L241.511 135.763L54.9553 225.542Z" fill="#91A2FA"/>
<path opacity="0.05" d="M58.2424 227.127L57.0947 226.569L243.662 136.79L244.798 137.338L58.2424 227.127Z" fill="#91A2FA"/>
<path opacity="0.05" d="M61.5305 228.701L60.3828 228.153L246.95 138.374L248.086 138.922L61.5305 228.701Z" fill="#91A2FA"/>
<path opacity="0.05" d="M64.8056 230.285L63.6699 229.737L250.237 139.958L251.373 140.506L64.8056 230.285Z" fill="#91A2FA"/>
<path opacity="0.05" d="M68.0927 231.87L66.957 231.322L253.524 141.543L254.66 142.091L68.0927 231.87Z" fill="#91A2FA"/>
<path opacity="0.05" d="M71.3813 233.443L70.2456 232.895L256.813 143.116L257.949 143.664L71.3813 233.443Z" fill="#91A2FA"/>
<path opacity="0.05" d="M74.6694 235.028L73.5337 234.48L260.101 144.701L261.237 145.249L74.6694 235.028Z" fill="#91A2FA"/>
<path opacity="0.05" d="M77.9565 236.612L76.8208 236.064L263.388 146.285L264.524 146.833L77.9565 236.612Z" fill="#91A2FA"/>
<path opacity="0.05" d="M81.2434 238.196L80.0957 237.648L266.663 147.859L267.811 148.417L81.2434 238.196Z" fill="#91A2FA"/>
<path opacity="0.05" d="M84.5319 239.781L83.3843 239.223L269.952 149.444L271.099 149.992L84.5319 239.781Z" fill="#91A2FA"/>
<path opacity="0.05" d="M87.8191 241.355L86.6714 240.807L273.239 151.028L274.386 151.576L87.8191 241.355Z" fill="#91A2FA"/>
<path opacity="0.05" d="M91.1076 242.939L89.96 242.391L276.527 152.612L277.675 153.16L91.1076 242.939Z" fill="#91A2FA"/>
<path opacity="0.05" d="M94.3942 244.524L93.2466 243.966L279.814 154.188L280.962 154.746L94.3942 244.524Z" fill="#91A2FA"/>
<path opacity="0.05" d="M97.6814 246.098L96.5337 245.55L283.101 155.771L284.249 156.32L97.6814 246.098Z" fill="#91A2FA"/>
<path opacity="0.05" d="M100.97 247.682L99.8223 247.134L286.39 157.355L287.537 157.904L100.97 247.682Z" fill="#91A2FA"/>
<path opacity="0.05" d="M104.257 249.267L103.109 248.719L289.677 158.94L290.824 159.488L104.257 249.267Z" fill="#91A2FA"/>
<path opacity="0.05" d="M107.545 250.852L106.397 250.303L292.965 160.515L294.112 161.073L107.545 250.852Z" fill="#91A2FA"/>
<path opacity="0.05" d="M110.832 252.426L109.685 251.878L296.252 162.099L297.4 162.647L110.832 252.426Z" fill="#91A2FA"/>
<path opacity="0.05" d="M114.119 254.01L112.972 253.462L299.539 163.683L300.675 164.231L114.119 254.01Z" fill="#91A2FA"/>
<path opacity="0.05" d="M117.408 255.595L116.26 255.046L302.828 165.268L303.963 165.816L117.408 255.595Z" fill="#91A2FA"/>
<path opacity="0.05" d="M120.683 257.179L119.547 256.621L306.114 166.842L307.25 167.4L120.683 257.179Z" fill="#91A2FA"/>
<path opacity="0.05" d="M123.971 258.754L122.835 258.206L309.403 168.427L310.538 168.975L123.971 258.754Z" fill="#91A2FA"/>
<path opacity="0.05" d="M127.258 260.338L126.123 259.79L312.69 170.011L313.826 170.559L127.258 260.338Z" fill="#91A2FA"/>
<path opacity="0.05" d="M130.545 261.922L129.41 261.374L315.977 171.595L317.113 172.143L130.545 261.922Z" fill="#91A2FA"/>
<path opacity="0.05" d="M133.833 263.506L132.698 262.948L319.265 173.169L320.401 173.717L133.833 263.506Z" fill="#91A2FA"/>
<path opacity="0.05" d="M137.121 265.081L135.985 264.533L322.54 174.754L323.688 175.302L137.121 265.081Z" fill="#91A2FA"/>
<path opacity="0.05" d="M140.409 266.665L139.273 266.117L325.841 176.338L326.976 176.886L140.409 266.665Z" fill="#91A2FA"/>
<path opacity="0.05" d="M143.696 268.249L142.561 267.701L329.116 177.912L330.264 178.47L143.696 268.249Z" fill="#91A2FA"/>
<path opacity="0.05" d="M146.983 269.833L145.847 269.275L332.403 179.496L333.55 180.054L146.983 269.833Z" fill="#91A2FA"/>
<path opacity="0.05" d="M150.271 271.407L149.124 270.859L335.691 181.08L336.838 181.628L150.271 271.407Z" fill="#91A2FA"/>
<path opacity="0.05" d="M153.56 272.993L152.412 272.445L338.979 182.666L340.127 183.214L153.56 272.993Z" fill="#91A2FA"/>
<path opacity="0.05" d="M156.847 274.576L155.699 274.028L342.267 184.239L343.414 184.797L156.847 274.576Z" fill="#91A2FA"/>
<path opacity="0.05" d="M160.134 276.161L158.986 275.603L345.554 185.824L346.701 186.382L160.134 276.161Z" fill="#91A2FA"/>
<path opacity="0.05" d="M163.421 277.735L162.273 277.187L348.84 187.408L349.988 187.956L163.421 277.735Z" fill="#91A2FA"/>
<path opacity="0.05" d="M166.711 279.319L165.563 278.771L352.13 188.992L353.278 189.54L166.711 279.319Z" fill="#91A2FA"/>
<path opacity="0.05" d="M169.998 280.904L168.85 280.356L355.417 190.577L356.565 191.125L169.998 280.904Z" fill="#91A2FA"/>
<path opacity="0.05" d="M173.285 282.488L172.137 281.93L358.705 192.151L359.852 192.699L173.285 282.488Z" fill="#91A2FA"/>
<path opacity="0.05" d="M176.572 284.062L175.424 283.514L361.991 193.735L363.139 194.283L176.572 284.062Z" fill="#91A2FA"/>
<path opacity="0.05" d="M179.86 285.646L178.712 285.098L365.28 195.319L366.427 195.867L179.86 285.646Z" fill="#91A2FA"/>
<path opacity="0.05" d="M183.147 287.231L182 286.683L368.567 196.895L369.714 197.453L183.147 287.231Z" fill="#91A2FA"/>
<path opacity="0.05" d="M186.436 288.805L185.288 288.257L371.855 198.479L372.991 199.027L186.436 288.805Z" fill="#91A2FA"/>
<path opacity="0.05" d="M189.723 290.39L188.575 289.842L375.143 200.063L376.278 200.612L189.723 290.39Z" fill="#91A2FA"/>
<path opacity="0.05" d="M192.998 291.974L191.862 291.426L378.429 201.647L379.565 202.195L192.998 291.974Z" fill="#91A2FA"/>
<path opacity="0.05" d="M196.285 293.56L195.149 293.012L381.716 203.223L382.852 203.781L196.285 293.56Z" fill="#91A2FA"/>
<path opacity="0.05" d="M199.575 295.134L198.439 294.586L385.006 204.807L386.142 205.355L199.575 295.134Z" fill="#91A2FA"/>
<path opacity="0.05" d="M202.862 296.718L201.726 296.17L388.293 206.391L389.429 206.939L202.862 296.718Z" fill="#91A2FA"/>
<path opacity="0.05" d="M206.148 298.302L205.013 297.754L391.58 207.975L392.716 208.523L206.148 298.302Z" fill="#91A2FA"/>
<path opacity="0.05" d="M209.435 299.887L208.288 299.329L394.855 209.55L396.003 210.108L209.435 299.887Z" fill="#91A2FA"/>
<path opacity="0.05" d="M212.722 301.461L211.575 300.913L398.142 211.134L399.29 211.682L212.722 301.461Z" fill="#91A2FA"/>
<path opacity="0.05" d="M216.011 303.045L214.863 302.497L401.431 212.718L402.578 213.266L216.011 303.045Z" fill="#91A2FA"/>
<path opacity="0.05" d="M219.298 304.629L218.15 304.081L404.718 214.302L405.865 214.85L219.298 304.629Z" fill="#91A2FA"/>
<path opacity="0.05" d="M222.586 306.213L221.438 305.655L408.006 215.876L409.153 216.434L222.586 306.213Z" fill="#91A2FA"/>
<path opacity="0.05" d="M225.873 307.789L224.726 307.241L411.293 217.462L412.441 218.01L225.873 307.789Z" fill="#91A2FA"/>
<path opacity="0.05" d="M229.16 309.373L228.013 308.825L414.58 219.046L415.728 219.594L229.16 309.373Z" fill="#91A2FA"/>
</g>
</g>
<path d="M147.51 181.719C189.352 161.601 257.136 161.601 298.966 181.719C318.954 191.344 329.379 203.82 330.263 216.425C331.22 202.664 320.795 188.754 298.966 178.251C257.124 158.123 189.328 158.123 147.51 178.251C125.68 188.754 115.232 202.664 116.212 216.425C117.097 203.82 127.557 191.334 147.51 181.719Z" fill="url(#paint22_linear_487_263)"/>
<path d="M242.085 193.396V199.694L237.111 197.153L242.085 193.396Z" fill="url(#paint23_linear_487_263)"/>
<path d="M224.714 166.194C220.493 166.267 216.319 165.437 212.592 163.783C209.221 162.169 207.368 159.976 207.368 157.625C207.368 155.273 209.221 153.091 212.592 151.467C219.275 148.258 230.154 148.258 236.848 151.467C240.208 153.091 242.061 155.283 242.061 157.625C242.061 159.967 240.208 162.169 236.848 163.783C233.117 165.437 228.94 166.267 224.714 166.194ZM224.714 150.152C220.722 150.09 216.777 150.876 213.249 152.433C210.321 153.848 208.707 155.692 208.707 157.625C208.707 159.558 210.321 161.411 213.261 162.826C219.574 165.865 229.855 165.865 236.179 162.826C239.108 161.411 240.734 159.568 240.734 157.625C240.734 155.682 239.108 153.848 236.179 152.433C232.651 150.874 228.706 150.089 224.714 150.152Z" fill="#91A2FA"/>
<path d="M231.899 161.083C229.676 162.024 227.219 162.515 224.726 162.515C222.233 162.515 219.775 162.024 217.553 161.083C213.584 159.18 213.584 156.101 217.553 154.178C219.775 153.236 222.233 152.745 224.726 152.745C227.219 152.745 229.676 153.236 231.899 154.178C235.856 156.081 235.856 159.18 231.899 161.083Z" fill="#97A6FC"/>
<path d="M266.591 140.894L259.478 137.477L271.588 131.647L278.713 135.065L266.591 140.894Z" fill="#91A2FA"/>
<path opacity="0.8" d="M253.799 135.494L244.833 133.292L252.615 125.948L261.581 128.15L253.799 135.494Z" fill="#91A2FA"/>
<path opacity="0.6" d="M238.164 132.246L228.229 131.489L230.907 123.348L240.842 124.105L238.164 132.246Z" fill="#91A2FA"/>
<path opacity="0.4" d="M221.21 131.489L211.264 132.246L208.586 124.105L218.52 123.348L221.21 131.489Z" fill="#91A2FA"/>
<path opacity="0.2" d="M204.593 133.292L195.627 135.494L187.856 128.14L196.811 125.948L204.593 133.292Z" fill="#91A2FA"/>
<path opacity="0.1" d="M189.949 137.477L182.836 140.894L170.726 135.065L177.839 131.647L189.949 137.477Z" fill="#91A2FA"/>
<path opacity="0.2" d="M242.85 150.112L240.352 148.906L258.427 140.207L260.926 141.413L242.85 150.112Z" fill="#91A2FA"/>
<path opacity="0.4" d="M237.124 147.78L233.979 147.003L245.588 136.042L248.732 136.819L237.124 147.78Z" fill="#91A2FA"/>
<path opacity="0.6" d="M230.201 146.416L226.71 146.147L230.703 134L234.194 134.269L230.201 146.416Z" fill="#91A2FA"/>
<path opacity="0.8" d="M222.731 146.147L219.24 146.416L215.235 134.269L218.726 134L222.731 146.147Z" fill="#91A2FA"/>
<path d="M215.45 147.003L212.306 147.78L200.698 136.819L203.854 136.042L215.45 147.003Z" fill="#91A2FA"/>
<path d="M209.089 148.906L206.591 150.112L188.515 141.413L191.014 140.207L209.089 148.906Z" fill="#91A2FA"/>
<path d="M204.248 151.656L202.646 153.171L179.872 147.581L181.474 146.066L204.248 151.656Z" fill="#91A2FA"/>
<path d="M201.412 154.995L200.862 156.669L175.614 154.746L176.164 153.062L201.412 154.995Z" fill="#91A2FA"/>
<path d="M200.862 158.581L201.412 160.265L176.164 162.188L175.614 160.504L200.862 158.581Z" fill="#91A2FA"/>
<path d="M202.646 162.089L204.248 163.603L181.474 169.184L179.872 167.669L202.646 162.089Z" fill="#91A2FA"/>
<path d="M206.591 165.148L209.089 166.354L191.014 175.053L188.515 173.847L206.591 165.148Z" fill="#91A2FA"/>
<path opacity="0.6" d="M295.713 129.386C322.289 144.811 323.771 166.862 300.196 183.044L309.76 190.388C342.289 170.878 341.572 142.788 307.644 123.627L295.713 129.386Z" fill="#97A6FC"/>
<path d="M116.905 165.068L133.128 162.378C130.259 149.504 139.105 136.142 159.572 126.277C193.476 109.965 247.213 109.029 283.412 123.457L295.307 117.737C252.521 100.16 188.156 101.097 147.701 120.567C122.488 132.694 112.231 149.295 116.905 165.068Z" fill="#97A6FC"/>
<path d="M214.78 186.94L208.432 183.891L289.94 144.661L296.288 147.71L214.78 186.94Z" fill="#97A6FC"/>
<path opacity="0.8" d="M223.793 191.285L217.445 188.226L252.879 171.177L259.227 174.236L223.793 191.285Z" fill="#97A6FC"/>
<path opacity="0.6" d="M233.441 195.927L227.093 192.868L283.496 165.735L289.844 168.784L233.441 195.927Z" fill="#97A6FC"/>
<path opacity="0.2" d="M242.945 200.492L236.585 197.443L280.495 176.318L286.843 179.367L242.945 200.492Z" fill="#97A6FC"/>
<defs>
<linearGradient id="paint0_linear_487_263" x1="395.673" y1="339.868" x2="450.664" y2="377.972" gradientUnits="userSpaceOnUse">
<stop stop-color="#BCBEFF"/>
<stop offset="0.23" stop-color="#AAADF8"/>
<stop offset="0.68" stop-color="#7C83E5"/>
<stop offset="1" stop-color="#5761D7"/>
</linearGradient>
<linearGradient id="paint1_linear_487_263" x1="388.014" y1="350.973" x2="464.949" y2="350.973" gradientUnits="userSpaceOnUse">
<stop stop-color="#E9E9FD"/>
<stop offset="0.36" stop-color="#D3D2F9"/>
<stop offset="0.71" stop-color="#C5C4F7"/>
<stop offset="1" stop-color="#C0BFF6"/>
</linearGradient>
<linearGradient id="paint2_linear_487_263" x1="40310.3" y1="6108.99" x2="41347.6" y2="7917.36" gradientUnits="userSpaceOnUse">
<stop stop-color="#BCBEFF"/>
<stop offset="0.23" stop-color="#AAADF8"/>
<stop offset="0.68" stop-color="#7C83E5"/>
<stop offset="1" stop-color="#5761D7"/>
</linearGradient>
<linearGradient id="paint3_linear_487_263" x1="39892.2" y1="9024.26" x2="43849.1" y2="9024.26" gradientUnits="userSpaceOnUse">
<stop stop-color="#E9E9FD"/>
<stop offset="0.36" stop-color="#D3D2F9"/>
<stop offset="0.71" stop-color="#C5C4F7"/>
<stop offset="1" stop-color="#C0BFF6"/>
</linearGradient>
<linearGradient id="paint4_linear_487_263" x1="280.97" y1="290.735" x2="411.919" y2="290.735" gradientUnits="userSpaceOnUse">
<stop stop-color="#5778FF"/>
<stop offset="0.1042" stop-color="#567FFF"/>
<stop offset="0.2607" stop-color="#5394FF"/>
<stop offset="0.4503" stop-color="#4DB6FF"/>
<stop offset="0.6638" stop-color="#46E4FF"/>
<stop offset="0.7742" stop-color="#42FFFF"/>
</linearGradient>
<linearGradient id="paint5_linear_487_263" x1="33142.6" y1="7591.77" x2="34180" y2="9400.15" gradientUnits="userSpaceOnUse">
<stop stop-color="#BCBEFF"/>
<stop offset="0.23" stop-color="#AAADF8"/>
<stop offset="0.68" stop-color="#7C83E5"/>
<stop offset="1" stop-color="#5761D7"/>
</linearGradient>
<linearGradient id="paint6_linear_487_263" x1="32743.7" y1="11181" x2="36703.3" y2="11181" gradientUnits="userSpaceOnUse">
<stop stop-color="#E9E9FD"/>
<stop offset="0.36" stop-color="#D3D2F9"/>
<stop offset="0.71" stop-color="#C5C4F7"/>
<stop offset="1" stop-color="#C0BFF6"/>
</linearGradient>
<linearGradient id="paint7_linear_487_263" x1="33142.6" y1="6726.93" x2="34179.7" y2="8534.87" gradientUnits="userSpaceOnUse">
<stop stop-color="#BCBEFF"/>
<stop offset="0.23" stop-color="#AAADF8"/>
<stop offset="0.68" stop-color="#7C83E5"/>
<stop offset="1" stop-color="#5761D7"/>
</linearGradient>
<linearGradient id="paint8_linear_487_263" x1="32743.7" y1="9939.89" x2="36703.3" y2="9939.89" gradientUnits="userSpaceOnUse">
<stop stop-color="#E9E9FD"/>
<stop offset="0.36" stop-color="#D3D2F9"/>
<stop offset="0.71" stop-color="#C5C4F7"/>
<stop offset="1" stop-color="#C0BFF6"/>
</linearGradient>
<linearGradient id="paint9_linear_487_263" x1="172.627" y1="301.134" x2="41.6827" y2="302.062" gradientUnits="userSpaceOnUse">
<stop stop-color="#5778FF"/>
<stop offset="0.1042" stop-color="#567FFF"/>
<stop offset="0.2607" stop-color="#5394FF"/>
<stop offset="0.4503" stop-color="#4DB6FF"/>
<stop offset="0.6638" stop-color="#46E4FF"/>
<stop offset="0.7742" stop-color="#42FFFF"/>
</linearGradient>
<linearGradient id="paint10_linear_487_263" x1="20486.7" y1="3309.37" x2="21524.3" y2="5116.45" gradientUnits="userSpaceOnUse">
<stop stop-color="#BCBEFF"/>
<stop offset="0.23" stop-color="#AAADF8"/>
<stop offset="0.68" stop-color="#7C83E5"/>
<stop offset="1" stop-color="#5761D7"/>
</linearGradient>
<linearGradient id="paint11_linear_487_263" x1="20073.9" y1="5065.34" x2="24026.4" y2="5065.34" gradientUnits="userSpaceOnUse">
<stop stop-color="#E9E9FD"/>
<stop offset="0.36" stop-color="#D3D2F9"/>
<stop offset="0.71" stop-color="#C5C4F7"/>
<stop offset="1" stop-color="#C0BFF6"/>
</linearGradient>
<linearGradient id="paint12_linear_487_263" x1="20486.7" y1="2531.21" x2="21527.5" y2="4340.18" gradientUnits="userSpaceOnUse">
<stop stop-color="#BCBEFF"/>
<stop offset="0.23" stop-color="#AAADF8"/>
<stop offset="0.68" stop-color="#7C83E5"/>
<stop offset="1" stop-color="#5761D7"/>
</linearGradient>
<linearGradient id="paint13_linear_487_263" x1="398.562" y1="74.9168" x2="447.588" y2="108.874" gradientUnits="userSpaceOnUse">
<stop offset="0.24" stop-color="#5761D7"/>
<stop offset="0.39" stop-color="#7A82E5"/>
<stop offset="0.55" stop-color="#979CF0"/>
<stop offset="0.7" stop-color="#ACAFF8"/>
<stop offset="0.85" stop-color="#B8BAFD"/>
<stop offset="1" stop-color="#BCBEFF"/>
</linearGradient>
<linearGradient id="paint14_linear_487_263" x1="20093" y1="3943.35" x2="24049.4" y2="3943.35" gradientUnits="userSpaceOnUse">
<stop stop-color="#E9E9FD"/>
<stop offset="0.36" stop-color="#D3D2F9"/>
<stop offset="0.71" stop-color="#C5C4F7"/>
<stop offset="1" stop-color="#C0BFF6"/>
</linearGradient>
<linearGradient id="paint15_linear_487_263" x1="19540.1" y1="3823.6" x2="23255.6" y2="3823.6" gradientUnits="userSpaceOnUse">
<stop stop-color="#E9E9FD"/>
<stop offset="0.36" stop-color="#D3D2F9"/>
<stop offset="0.71" stop-color="#C5C4F7"/>
<stop offset="1" stop-color="#C0BFF6"/>
</linearGradient>
<linearGradient id="paint16_linear_487_263" x1="317.061" y1="199.708" x2="366.236" y2="97.4312" gradientUnits="userSpaceOnUse">
<stop stop-color="#5778FF"/>
<stop offset="0.1042" stop-color="#567FFF"/>
<stop offset="0.2607" stop-color="#5394FF"/>
<stop offset="0.4503" stop-color="#4DB6FF"/>
<stop offset="0.6638" stop-color="#46E4FF"/>
<stop offset="0.7742" stop-color="#42FFFF"/>
</linearGradient>
<linearGradient id="paint17_linear_487_263" x1="76919.8" y1="-10384.7" x2="87975.5" y2="11170.3" gradientUnits="userSpaceOnUse">
<stop stop-color="#35068C"/>
<stop offset="0.02" stop-color="#40DDDA"/>
<stop offset="0.09" stop-color="#3AAEC0"/>
<stop offset="0.17" stop-color="#3484A9"/>
<stop offset="0.26" stop-color="#2F6195"/>
<stop offset="0.35" stop-color="#2B4486"/>
<stop offset="0.44" stop-color="#282E79"/>
<stop offset="0.54" stop-color="#261E71"/>
<stop offset="0.66" stop-color="#24156C"/>
<stop offset="0.82" stop-color="#24126A"/>
</linearGradient>
<linearGradient id="paint18_linear_487_263" x1="84.0534" y1="232.517" x2="323.509" y2="232.517" gradientUnits="userSpaceOnUse">
<stop stop-color="#3671E9"/>
<stop offset="0.15" stop-color="#91A2FA"/>
<stop offset="0.33" stop-color="#8B97F1"/>
<stop offset="0.52" stop-color="#7366C8"/>
<stop offset="0.72" stop-color="#654CB3"/>
<stop offset="0.93" stop-color="#4127A7"/>
<stop offset="1" stop-color="#260672"/>
</linearGradient>
<linearGradient id="paint19_linear_487_263" x1="17061.7" y1="28923.1" x2="65298" y2="28923.1" gradientUnits="userSpaceOnUse">
<stop stop-color="#42E8E0"/>
<stop offset="0.15" stop-color="#43E3E0"/>
<stop offset="0.33" stop-color="#45D5DF"/>
<stop offset="0.52" stop-color="#49BDDD"/>
<stop offset="0.72" stop-color="#4E9CDB"/>
<stop offset="0.93" stop-color="#5472D8"/>
<stop offset="1" stop-color="#5761D7"/>
</linearGradient>
<linearGradient id="paint20_linear_487_263" x1="79025" y1="-14259.7" x2="90081.3" y2="7295.53" gradientUnits="userSpaceOnUse">
<stop stop-color="#654CB2"/>
<stop offset="0.02" stop-color="#40DDDA"/>
<stop offset="0.09" stop-color="#3AAEC0"/>
<stop offset="0.17" stop-color="#3484A9"/>
<stop offset="0.26" stop-color="#2F6195"/>
<stop offset="0.35" stop-color="#2B4486"/>
<stop offset="0.44" stop-color="#282E79"/>
<stop offset="0.54" stop-color="#261E71"/>
<stop offset="0.66" stop-color="#24156C"/>
<stop offset="0.82" stop-color="#24126A"/>
</linearGradient>
<linearGradient id="paint21_linear_487_263" x1="204.354" y1="136.062" x2="246.417" y2="388.245" gradientUnits="userSpaceOnUse">
<stop stop-color="#42E8E0"/>
<stop offset="0.02" stop-color="#40DDDA"/>
<stop offset="0.09" stop-color="#3AAEC0"/>
<stop offset="0.17" stop-color="#3484A9"/>
<stop offset="0.26" stop-color="#2F6195"/>
<stop offset="0.35" stop-color="#2B4486"/>
<stop offset="0.44" stop-color="#282E79"/>
<stop offset="0.54" stop-color="#261E71"/>
<stop offset="0.66" stop-color="#24156C"/>
<stop offset="0.82" stop-color="#24126A"/>
</linearGradient>
<linearGradient id="paint22_linear_487_263" x1="116.152" y1="189.79" x2="330.323" y2="189.79" gradientUnits="userSpaceOnUse">
<stop stop-color="#2B237C"/>
<stop offset="1" stop-color="#180D5B"/>
</linearGradient>
<linearGradient id="paint23_linear_487_263" x1="1154.92" y1="1648.36" x2="1158.98" y2="1702.47" gradientUnits="userSpaceOnUse">
<stop stop-color="#2B237C"/>
<stop offset="1" stop-color="#180D5B"/>
</linearGradient>
</defs>
</svg>
