<svg width="453" height="382" viewBox="0 0 453 382" fill="none" xmlns="http://www.w3.org/2000/svg">
<g clip-path="url(#clip0_792_300)">
<path d="M399.288 23.2052H0.626105C0.458786 23.2015 0.299575 23.1319 0.182554 23.0114C0.0655326 22.891 0 22.7291 0 22.5606C0 22.3921 0.0655326 22.2303 0.182554 22.1098C0.299575 21.9893 0.458786 21.9198 0.626105 21.916H399.288C399.456 21.9198 399.615 21.9893 399.732 22.1098C399.849 22.2303 399.915 22.3921 399.915 22.5606C399.915 22.7291 399.849 22.891 399.732 23.0114C399.615 23.1319 399.456 23.2015 399.288 23.2052Z" fill="#CACACA"/>
<path d="M14.7241 14.181C18.5283 14.181 21.6122 11.0065 21.6122 7.0905C21.6122 3.17453 18.5283 0 14.7241 0C10.9199 0 7.83594 3.17453 7.83594 7.0905C7.83594 11.0065 10.9199 14.181 14.7241 14.181Z" fill="#3F3D56"/>
<path d="M38.5131 14.181C42.3173 14.181 45.4012 11.0065 45.4012 7.0905C45.4012 3.17453 42.3173 0 38.5131 0C34.7089 0 31.625 3.17453 31.625 7.0905C31.625 11.0065 34.7089 14.181 38.5131 14.181Z" fill="#3F3D56"/>
<path d="M62.31 14.181C66.1142 14.181 69.1981 11.0065 69.1981 7.0905C69.1981 3.17453 66.1142 0 62.31 0C58.5058 0 55.4219 3.17453 55.4219 7.0905C55.4219 11.0065 58.5058 14.181 62.31 14.181Z" fill="#3F3D56"/>
<path d="M385.033 1.75781H368.13C367.795 1.76451 367.476 1.90323 367.241 2.14419C367.006 2.38515 366.875 2.70912 366.875 3.04655C366.875 3.38399 367.006 3.70796 367.241 3.94892C367.476 4.18988 367.795 4.3286 368.13 4.3353H385.033C385.368 4.3286 385.687 4.18988 385.921 3.94892C386.156 3.70796 386.287 3.38399 386.287 3.04655C386.287 2.70912 386.156 2.38515 385.921 2.14419C385.687 1.90323 385.368 1.76451 385.033 1.75781Z" fill="#3F3D56"/>
<path d="M385.033 6.59473H368.13C367.795 6.60142 367.476 6.74015 367.241 6.9811C367.006 7.22206 366.875 7.54605 366.875 7.88348C366.875 8.22091 367.006 8.54489 367.241 8.78584C367.476 9.0268 367.795 9.16552 368.13 9.17222H385.033C385.368 9.16552 385.687 9.0268 385.921 8.78584C386.156 8.54489 386.287 8.22091 386.287 7.88348C386.287 7.54605 386.156 7.22206 385.921 6.9811C385.687 6.74015 385.368 6.60142 385.033 6.59473Z" fill="#3F3D56"/>
<path d="M385.033 11.4258H368.13C367.795 11.4325 367.476 11.5712 367.241 11.8122C367.006 12.0531 366.875 12.3771 366.875 12.7145C366.875 13.052 367.006 13.3759 367.241 13.6169C367.476 13.8578 367.795 13.9966 368.13 14.0033H385.033C385.368 13.9966 385.687 13.8578 385.921 13.6169C386.156 13.3759 386.287 13.052 386.287 12.7145C386.287 12.3771 386.156 12.0531 385.921 11.8122C385.687 11.5712 385.368 11.4325 385.033 11.4258Z" fill="#3F3D56"/>
<path d="M378.714 44.9697H15.6002C13.5896 44.9727 11.6621 45.7784 10.2404 47.21C8.81867 48.6416 8.01863 50.5824 8.01562 52.607V53.8386C8.01863 55.8632 8.81867 57.8039 10.2404 59.2356C11.6621 60.6672 13.5896 61.4728 15.6002 61.4758H378.714C380.725 61.4728 382.652 60.6672 384.074 59.2356C385.496 57.8039 386.296 55.8632 386.299 53.8386V52.607C386.296 50.5824 385.496 48.6416 384.074 47.21C382.652 45.7784 380.725 44.9727 378.714 44.9697Z" fill="#F0F0F0"/>
<path d="M59.4241 56.2709H24.8598C24.0864 56.2698 23.3451 55.9597 22.7987 55.4086C22.2522 54.8576 21.9453 54.1107 21.9453 53.3319C21.9453 52.5532 22.2522 51.8063 22.7987 51.2553C23.3451 50.7042 24.0864 50.3941 24.8598 50.3929H59.4241C63.1882 50.34 63.2258 56.3243 59.4241 56.2709Z" fill="white"/>
<path d="M162.823 56.2709H128.258C127.485 56.2698 126.744 55.9597 126.197 55.4086C125.651 54.8576 125.344 54.1107 125.344 53.3319C125.344 52.5532 125.651 51.8063 126.197 51.2553C126.744 50.7042 127.485 50.3941 128.258 50.3929H162.823C166.587 50.34 166.624 56.3243 162.823 56.2709Z" fill="white"/>
<path d="M266.221 56.2709H231.657C230.883 56.2698 230.142 55.9597 229.596 55.4086C229.049 54.8576 228.742 54.1107 228.742 53.3319C228.742 52.5532 229.049 51.8063 229.596 51.2553C230.142 50.7042 230.883 50.3941 231.657 50.3929H266.221C269.985 50.34 270.023 56.3243 266.221 56.2709Z" fill="white"/>
<path d="M364.257 56.5883H329.692C328.918 56.5883 328.176 56.2787 327.628 55.7275C327.081 55.1763 326.773 54.4288 326.773 53.6493C326.773 52.8698 327.081 52.1223 327.628 51.5711C328.176 51.02 328.918 50.7103 329.692 50.7103H364.257C368.021 50.6574 368.058 56.6417 364.257 56.5883Z" fill="#B0C4CD"/>
<path d="M310.331 44.9697H309.07V61.4758H310.331V44.9697Z" fill="white"/>
<path d="M179.847 289.268H31.6524C30.3319 289.266 29.066 288.737 28.1323 287.797C27.1986 286.857 26.6734 285.582 26.6719 284.253V262.398C26.6734 261.068 27.1986 259.794 28.1323 258.853C29.066 257.913 30.3319 257.384 31.6524 257.383H179.847C181.167 257.384 182.433 257.913 183.367 258.853C184.301 259.794 184.826 261.068 184.827 262.398V284.253C184.826 285.582 184.301 286.857 183.367 287.797C182.433 288.737 181.167 289.266 179.847 289.268Z" fill="#F0F0F0"/>
<path d="M165.455 285.885H35.0196C33.6991 285.884 32.4332 285.355 31.4995 284.415C30.5658 283.475 30.0406 282.2 30.0391 280.87V265.784C30.0406 264.454 30.5658 263.179 31.4995 262.239C32.4332 261.299 33.6991 260.77 35.0196 260.769H176.494C177.815 260.77 179.081 261.299 180.014 262.239C180.948 263.179 181.473 264.454 181.475 265.784V269.754C181.47 274.031 179.781 278.131 176.777 281.155C173.774 284.18 169.702 285.881 165.455 285.885Z" fill="white"/>
<path d="M120.457 271.77H60.8939C60.5532 271.77 60.2265 271.634 59.9856 271.392C59.7447 271.149 59.6094 270.82 59.6094 270.477C59.6094 270.134 59.7447 269.805 59.9856 269.562C60.2265 269.32 60.5532 269.184 60.8939 269.184H120.457C120.797 269.184 121.124 269.32 121.365 269.562C121.606 269.805 121.741 270.134 121.741 270.477C121.741 270.82 121.606 271.149 121.365 271.392C121.124 271.634 120.797 271.77 120.457 271.77Z" fill="#E6E6E6"/>
<path d="M150.611 277.06H60.8967C60.7278 277.061 60.5604 277.028 60.4043 276.963C60.2481 276.898 60.1062 276.803 59.9866 276.683C59.867 276.562 59.7722 276.42 59.7074 276.263C59.6427 276.106 59.6094 275.937 59.6094 275.767C59.6094 275.597 59.6427 275.429 59.7074 275.271C59.7722 275.114 59.867 274.972 59.9866 274.851C60.1062 274.731 60.2481 274.636 60.4043 274.571C60.5604 274.506 60.7278 274.473 60.8967 274.474H150.611C150.952 274.474 151.277 274.611 151.518 274.853C151.758 275.096 151.893 275.424 151.893 275.767C151.893 276.11 151.758 276.438 151.518 276.681C151.277 276.923 150.952 277.06 150.611 277.06Z" fill="#E6E6E6"/>
<path d="M189.316 232.378H20.3434C18.9951 232.376 17.7025 231.836 16.749 230.876C15.7956 229.916 15.2593 228.614 15.2578 227.257V97.1969C15.2594 95.8392 15.7957 94.5376 16.7491 93.5776C17.7025 92.6176 18.9951 92.0777 20.3434 92.0762H189.316C190.665 92.0777 191.957 92.6176 192.911 93.5776C193.864 94.5376 194.4 95.8392 194.402 97.1969V227.257C194.4 228.614 193.864 229.916 192.911 230.876C191.957 231.836 190.665 232.376 189.316 232.378Z" fill="white"/>
<path d="M189.314 233.013H20.3411C18.8257 233.011 17.3728 232.404 16.3012 231.325C15.2296 230.246 14.6268 228.783 14.625 227.257V97.1969C14.6268 95.6709 15.2296 94.208 16.3012 93.129C17.3728 92.05 18.8257 91.4431 20.3411 91.4414H189.314C190.829 91.4431 192.282 92.05 193.354 93.129C194.425 94.208 195.028 95.6709 195.03 97.1969V227.257C195.028 228.783 194.425 230.246 193.354 231.325C192.282 232.404 190.829 233.011 189.314 233.013ZM20.3411 92.7111C19.16 92.7124 18.0276 93.1855 17.1924 94.0264C16.3572 94.8674 15.8873 96.0076 15.8859 97.1969V227.257C15.8873 228.446 16.3571 229.587 17.1923 230.428C18.0275 231.269 19.1599 231.742 20.3411 231.743H189.314C190.495 231.742 191.627 231.269 192.463 230.428C193.298 229.587 193.768 228.446 193.769 227.257V97.1969C193.768 96.0076 193.298 94.8673 192.463 94.0264C191.627 93.1854 190.495 92.7124 189.314 92.7111L20.3411 92.7111Z" fill="#F0F0F0"/>
<path d="M15.6484 207.618V227.256C15.6503 228.51 16.1456 229.711 17.0257 230.597C17.9058 231.484 19.099 231.982 20.3437 231.984H189.317C190.562 231.982 191.755 231.484 192.635 230.597C193.515 229.711 194.01 228.51 194.012 227.256V207.618H15.6484Z" fill="#F0F0F0"/>
<path d="M17.2423 92.9045L16.5625 93.9736L193.674 208.153L194.353 207.084L17.2423 92.9045Z" fill="#F0F0F0"/>
<path d="M194.174 92.9047L17.0625 207.084L17.7423 208.153L194.853 93.9739L194.174 92.9047Z" fill="#F0F0F0"/>
<path d="M343.841 373.157L336.029 373.156L332.312 342.817L343.842 342.818L343.841 373.157Z" fill="#FFB7B7"/>
<path d="M343.628 370.586L335.293 367.177L335.047 367.075L330.444 370.586C327.919 370.586 325.49 371.567 323.666 373.326C321.842 375.085 320.762 377.485 320.653 380.026C320.641 380.166 320.641 380.312 320.641 380.458V380.782H345.828V370.586H343.628Z" fill="#2F2E41"/>
<path d="M325.547 365.836L318.178 368.447L304.672 341.069L315.548 337.217L325.547 365.836Z" fill="#FFB7B7"/>
<path d="M324.499 363.481L315.513 363.051L315.248 363.038L312.064 367.887C309.681 368.731 307.714 370.469 306.573 372.738C305.432 375.007 305.205 377.632 305.939 380.065C305.973 380.201 306.021 380.339 306.069 380.476L306.176 380.782L329.936 372.364L326.575 362.746L324.499 363.481Z" fill="#2F2E41"/>
<path d="M346.6 242.341C353.747 242.062 344.894 299.407 344.894 299.407C344.894 299.407 347.484 349.754 346.935 352.396C346.386 355.039 346.866 362.164 346.866 362.164C345.466 359.598 331.02 361.535 331.02 361.535L329.055 310.509L319.022 269.625L305.113 297.03L318.445 339.095C318.445 339.095 323.843 344.126 323.269 346.114C322.695 348.102 308.554 352.585 305.955 352.686C303.356 352.788 304.53 349.466 304.404 346.195C304.278 342.924 292.049 312.609 287.748 302.294C283.447 291.979 286.791 277.435 288.986 266.866C291.182 256.298 302.733 236.464 302.733 236.464C317.07 220.181 339.454 242.62 346.6 242.341Z" fill="#2F2E41"/>
<path d="M259.508 195.997C259.899 196.75 260.45 197.408 261.121 197.924C261.792 198.439 262.567 198.8 263.392 198.982C264.217 199.163 265.071 199.16 265.894 198.973C266.718 198.786 267.49 198.419 268.158 197.899L285.343 209.189L285.291 198.452L268.979 189.377C268.037 188.306 266.737 187.62 265.326 187.449C263.915 187.278 262.491 187.635 261.323 188.451C260.156 189.267 259.326 190.486 258.991 191.877C258.657 193.268 258.84 194.734 259.508 195.997Z" fill="#FFB7B7"/>
<path d="M342.884 251.534C325.162 251.535 315.395 247.962 310.209 244.773C303.867 240.872 302.782 236.76 302.739 236.586L302.727 236.536L303.344 228.715L303.614 228.106C304.858 225.302 305.023 222.133 304.077 219.214L304.057 219.154L304.062 219.091L308.206 164.974L322.871 160.137L327.137 155.82L346.132 155.543L348.778 160.946L363.752 166.622L356.396 210.717L352.869 216.837L354.288 223.505L354.278 223.565L349.652 251.372L349.397 251.383C347.115 251.486 344.944 251.536 342.884 251.534Z" fill="#3F3D56"/>
<path d="M297.038 217.771L290.085 213.621L289.65 212.987C288.764 211.705 287.593 210.649 286.229 209.905C284.866 209.161 283.348 208.75 281.798 208.703L281.717 208.701L272.141 203.032L276.11 191.323L291.122 195.789L301.587 169.605C302.162 168.166 303.122 166.917 304.359 165.995C305.597 165.074 307.065 164.516 308.599 164.384C310.132 164.252 311.673 164.551 313.048 165.248C314.423 165.945 315.579 167.012 316.388 168.331C317.216 169.709 317.646 171.294 317.628 172.905V190.038L317.565 190.123L297.038 217.771Z" fill="#3F3D56"/>
<path d="M343.519 241.463C343.668 240.626 343.997 239.832 344.483 239.137C344.97 238.443 345.601 237.864 346.334 237.441C347.066 237.019 347.882 236.763 348.723 236.692C349.564 236.622 350.411 236.738 351.203 237.032L364.226 221.064L367.379 231.321L354.529 244.912C353.95 246.219 352.915 247.266 351.62 247.856C350.325 248.446 348.86 248.537 347.503 248.111C346.146 247.686 344.991 246.775 344.256 245.549C343.522 244.324 343.26 242.87 343.519 241.463Z" fill="#FFB7B7"/>
<path d="M362.989 239.446L354.341 230.737L359.846 217.231L367.824 206.262C359.323 202.095 352.942 192.222 348.318 184.05L348.266 183.958L349.417 174.877C349.686 172.753 350.531 170.745 351.859 169.073C353.014 167.619 354.498 166.464 356.186 165.705C357.875 164.947 359.72 164.606 361.566 164.712C363.412 164.819 365.206 165.368 366.798 166.316C368.39 167.263 369.733 168.581 370.716 170.158L386.22 204.864L386.046 205.126L373.575 226.533L370.171 228.755L362.989 239.446Z" fill="#3F3D56"/>
<path d="M350.274 137.339C349.704 141.524 347.507 145.309 344.167 147.864C340.827 150.419 336.615 151.534 332.459 150.965C328.303 150.395 324.541 148.187 322 144.826C319.459 141.465 318.347 137.226 318.908 133.04L318.939 132.814C319.594 128.684 321.836 124.979 325.18 122.498C328.524 120.018 332.703 118.96 336.815 119.554C340.926 120.148 344.641 122.345 347.158 125.672C349.675 128.999 350.793 133.189 350.27 137.338L350.274 137.339Z" fill="#FFB7B7"/>
<path d="M346.244 145.547C347.056 143.885 347.891 142.1 347.663 140.261C347.435 138.422 345.644 136.665 343.885 137.211C342.834 137.538 342.039 138.583 340.94 138.637C339.427 138.711 338.56 136.968 338.09 135.519L336.172 129.617C334.331 131.061 332.196 132.079 329.919 132.597C327.642 133.115 325.28 133.121 323.001 132.614C321.221 132.204 319.422 131.405 318.378 129.896C317.334 128.388 317.34 126.048 318.773 124.907C319.475 124.348 320.41 124.136 321.081 123.539C321.497 123.169 321.784 122.673 321.899 122.126C322.014 121.579 321.951 121.009 321.719 120.501C321.488 119.992 321.1 119.573 320.613 119.304C320.126 119.035 319.566 118.931 319.015 119.007L323.843 118.399L322.405 115.78C322.951 116.155 323.57 116.41 324.22 116.53C324.871 116.651 325.539 116.633 326.182 116.478C327.481 116.242 328.704 115.704 329.975 115.345C333.055 114.553 336.307 114.795 339.238 116.034C342.168 117.273 344.617 119.442 346.212 122.21C347.4 121.811 348.681 121.784 349.884 122.134C351.087 122.484 352.156 123.194 352.95 124.169C354.242 125.821 354.594 128.025 354.644 130.127C354.738 134.272 353.84 138.378 352.027 142.1C351.507 143.283 350.76 144.35 349.829 145.24C349.36 145.682 348.801 146.015 348.191 146.216C347.581 146.416 346.935 146.48 346.297 146.403" fill="#2F2E41"/>
<path d="M89.7637 129.15C90.022 132.861 91.108 136.467 92.941 139.698C96.8041 146.53 103.429 151.476 110.564 154.416C119.478 158.089 129.415 158.202 138.875 157.383C147.662 156.622 156.359 154.859 165.178 154.496C171.999 154.276 178.826 154.44 185.628 154.987C198.825 155.93 211.967 157.68 225.024 159.801C228.56 160.369 232.089 160.979 235.61 161.631C235.943 161.66 236.272 161.722 236.594 161.815C236.657 161.841 236.76 161.82 236.819 161.858C236.925 161.925 236.389 161.687 236.714 161.957C237.167 162.436 237.571 162.959 237.92 163.519L242.742 169.768C244.125 171.561 245.408 173.738 247.196 175.15C248.456 176.131 249.976 176.713 251.565 176.825C253.154 176.936 254.739 176.572 256.123 175.777C257.567 174.857 258.72 173.539 259.442 171.98C260.551 169.931 261.875 168.008 263.39 166.242C269.127 159.503 277.101 155.358 283.77 149.687C287 147.053 289.757 143.879 291.921 140.305C293.766 137.071 294.914 133.481 295.288 129.77C296.087 122.233 293.79 114.548 289.927 108.136C285.726 101.248 279.69 95.6852 272.505 92.0788C264.434 87.9382 255.502 85.9213 246.549 84.9163C237.044 83.8492 227.428 83.8525 217.877 83.9602C207.157 84.0804 196.457 84.5551 185.776 85.3843C175.081 86.2178 164.428 87.4027 153.817 88.9389C143.635 90.4129 133.329 91.9492 123.363 94.5574C114.558 96.8615 105.778 100.463 99.2038 106.988C93.358 112.79 89.2922 120.73 89.7637 129.15Z" fill="#22D497"/>
<path d="M138.977 131.546C138.542 131.527 138.116 131.416 137.725 131.223C137.334 131.029 136.987 130.756 136.706 130.42C136.425 130.085 136.216 129.694 136.093 129.274C135.969 128.853 135.933 128.411 135.987 127.976L136.213 126.182C136.257 125.839 136.216 125.489 136.096 125.164C135.975 124.84 135.778 124.549 135.521 124.318L134.184 123.114C133.745 122.72 133.426 122.211 133.26 121.643C133.095 121.076 133.09 120.473 133.247 119.903C133.405 119.333 133.717 118.819 134.149 118.418C134.581 118.018 135.116 117.747 135.694 117.637L137.457 117.299C137.795 117.235 138.113 117.088 138.382 116.873C138.652 116.657 138.865 116.379 139.004 116.062L139.728 114.407C139.965 113.865 140.347 113.402 140.832 113.068C141.317 112.735 141.885 112.544 142.472 112.519C143.059 112.493 143.641 112.633 144.153 112.923C144.665 113.213 145.086 113.642 145.368 114.16L146.231 115.745C146.397 116.049 146.633 116.308 146.92 116.5C147.208 116.691 147.537 116.81 147.879 116.845L149.665 117.026C150.249 117.086 150.806 117.309 151.271 117.67C151.736 118.032 152.091 118.517 152.297 119.071C152.502 119.625 152.55 120.226 152.434 120.806C152.318 121.385 152.043 121.921 151.641 122.352L150.411 123.668C150.175 123.92 150.004 124.227 149.911 124.561C149.819 124.895 149.809 125.246 149.882 125.585L150.262 127.352C150.386 127.93 150.347 128.532 150.15 129.089C149.952 129.646 149.604 130.136 149.144 130.504C148.684 130.872 148.132 131.103 147.548 131.171C146.965 131.239 146.374 131.142 145.843 130.89L144.219 130.119C143.908 129.971 143.566 129.901 143.222 129.916C142.877 129.931 142.542 130.03 142.245 130.205L140.693 131.114C140.174 131.42 139.579 131.57 138.977 131.546Z" fill="white"/>
<path d="M164.254 130.808C163.453 130.771 162.695 130.43 162.133 129.855C161.794 129.492 161.54 129.057 161.392 128.581C161.244 128.106 161.206 127.603 161.28 127.11L161.487 125.465C161.531 125.114 161.49 124.758 161.368 124.428C161.245 124.097 161.044 123.801 160.782 123.565L159.541 122.449C159.176 122.134 158.884 121.742 158.688 121.299C158.491 120.857 158.396 120.376 158.407 119.891C158.434 119.174 158.703 118.487 159.168 117.943C159.634 117.399 160.269 117.031 160.97 116.898L162.713 116.565C163.058 116.499 163.381 116.349 163.656 116.129C163.931 115.909 164.148 115.626 164.289 115.302L164.939 113.817C165.171 113.253 165.553 112.765 166.043 112.406C166.534 112.047 167.113 111.831 167.717 111.781C168.309 111.748 168.899 111.884 169.417 112.174C169.935 112.465 170.361 112.897 170.645 113.422L171.497 114.988C171.666 115.298 171.908 115.562 172.2 115.757C172.493 115.952 172.829 116.073 173.178 116.108L174.833 116.277C175.313 116.315 175.778 116.46 176.195 116.702C176.613 116.944 176.971 117.277 177.244 117.676C177.64 118.272 177.824 118.987 177.765 119.702C177.705 120.417 177.406 121.091 176.917 121.613L175.702 122.914C175.462 123.171 175.287 123.483 175.193 123.823C175.1 124.163 175.089 124.521 175.163 124.866L175.513 126.498C175.626 126.97 175.633 127.46 175.534 127.934C175.435 128.408 175.233 128.854 174.942 129.24C174.503 129.807 173.885 130.206 173.19 130.372C172.495 130.538 171.765 130.46 171.12 130.151L169.513 129.389C169.196 129.238 168.847 129.168 168.497 129.183C168.147 129.198 167.806 129.299 167.503 129.477L165.97 130.376C165.45 130.682 164.855 130.832 164.254 130.808Z" fill="white"/>
<path d="M189.602 130.7C189.167 130.68 188.741 130.57 188.35 130.376C187.959 130.182 187.612 129.909 187.331 129.573C187.05 129.238 186.841 128.848 186.718 128.427C186.594 128.006 186.558 127.564 186.612 127.129L186.838 125.336C186.882 124.992 186.841 124.642 186.721 124.318C186.6 123.993 186.403 123.702 186.146 123.471L184.809 122.268C184.37 121.874 184.051 121.364 183.885 120.796C183.72 120.229 183.715 119.626 183.872 119.056C184.03 118.486 184.342 117.972 184.774 117.571C185.207 117.171 185.741 116.9 186.319 116.79L188.082 116.453C188.42 116.388 188.738 116.242 189.007 116.026C189.276 115.81 189.49 115.532 189.629 115.215L190.353 113.56C190.59 113.019 190.972 112.555 191.457 112.222C191.942 111.888 192.51 111.698 193.097 111.672C193.684 111.646 194.266 111.786 194.778 112.077C195.29 112.367 195.711 112.795 195.993 113.314L196.856 114.898C197.022 115.202 197.258 115.462 197.545 115.653C197.833 115.845 198.162 115.963 198.504 115.998L200.29 116.18C200.874 116.239 201.431 116.462 201.896 116.824C202.361 117.185 202.716 117.67 202.922 118.224C203.127 118.778 203.175 119.379 203.059 119.959C202.943 120.539 202.668 121.074 202.266 121.505L201.036 122.822C200.8 123.074 200.629 123.38 200.536 123.714C200.444 124.048 200.434 124.399 200.507 124.738L200.887 126.506C201.011 127.084 200.972 127.685 200.775 128.242C200.577 128.799 200.229 129.289 199.769 129.657C199.309 130.025 198.757 130.256 198.173 130.324C197.59 130.393 196.999 130.295 196.468 130.043L194.844 129.273C194.533 129.124 194.191 129.054 193.847 129.069C193.502 129.084 193.167 129.183 192.87 129.358L191.318 130.268C190.799 130.574 190.204 130.724 189.602 130.7Z" fill="white"/>
<path d="M214.251 130.026C213.815 130.006 213.389 129.896 212.998 129.702C212.607 129.508 212.26 129.235 211.98 128.9C211.699 128.564 211.49 128.174 211.366 127.753C211.242 127.333 211.206 126.891 211.261 126.455L211.487 124.662C211.53 124.318 211.49 123.969 211.369 123.644C211.249 123.319 211.051 123.029 210.795 122.797L209.457 121.594C209.019 121.2 208.699 120.69 208.534 120.123C208.368 119.555 208.364 118.952 208.521 118.382C208.678 117.812 208.99 117.298 209.423 116.898C209.855 116.497 210.39 116.226 210.967 116.116L212.731 115.779C213.069 115.714 213.386 115.568 213.656 115.352C213.925 115.137 214.138 114.858 214.277 114.541L215.001 112.886C215.238 112.345 215.621 111.881 216.106 111.548C216.591 111.214 217.159 111.024 217.745 110.998C218.332 110.972 218.914 111.113 219.426 111.403C219.938 111.693 220.359 112.121 220.642 112.64L221.505 114.224C221.67 114.529 221.907 114.788 222.194 114.979C222.481 115.171 222.81 115.289 223.153 115.324L224.938 115.506C225.523 115.565 226.079 115.788 226.544 116.15C227.009 116.511 227.365 116.996 227.57 117.55C227.776 118.104 227.823 118.705 227.707 119.285C227.591 119.865 227.317 120.401 226.914 120.831L225.685 122.148C225.448 122.4 225.277 122.706 225.185 123.04C225.093 123.374 225.083 123.726 225.156 124.064L225.535 125.832C225.659 126.41 225.621 127.011 225.423 127.568C225.225 128.125 224.877 128.615 224.417 128.983C223.958 129.351 223.405 129.582 222.822 129.651C222.238 129.719 221.648 129.621 221.116 129.369L219.493 128.599C219.182 128.45 218.839 128.38 218.495 128.395C218.151 128.41 217.816 128.509 217.518 128.684L215.967 129.594C215.447 129.9 214.852 130.05 214.251 130.026Z" fill="white"/>
<path d="M238.907 129.353C238.472 129.333 238.045 129.223 237.654 129.029C237.263 128.835 236.917 128.562 236.636 128.227C236.355 127.891 236.146 127.501 236.022 127.08C235.899 126.66 235.863 126.218 235.917 125.782L236.143 123.989C236.186 123.645 236.146 123.296 236.025 122.971C235.905 122.646 235.708 122.356 235.451 122.125L234.113 120.921C233.675 120.527 233.355 120.017 233.19 119.45C233.024 118.882 233.02 118.279 233.177 117.709C233.334 117.139 233.647 116.625 234.079 116.225C234.511 115.824 235.046 115.553 235.623 115.443L237.387 115.106C237.725 115.041 238.042 114.895 238.312 114.679C238.581 114.464 238.794 114.185 238.933 113.868L239.657 112.213C239.894 111.672 240.277 111.208 240.762 110.875C241.247 110.541 241.815 110.351 242.402 110.325C242.988 110.3 243.571 110.44 244.082 110.73C244.594 111.02 245.015 111.448 245.298 111.967L246.161 113.552C246.326 113.856 246.563 114.115 246.85 114.307C247.137 114.498 247.466 114.617 247.809 114.651L249.595 114.833C250.179 114.893 250.735 115.116 251.2 115.477C251.665 115.838 252.021 116.323 252.226 116.877C252.432 117.431 252.48 118.032 252.364 118.612C252.248 119.192 251.973 119.728 251.57 120.159L250.341 121.475C250.105 121.727 249.933 122.033 249.841 122.367C249.749 122.701 249.739 123.053 249.812 123.391L250.191 125.159C250.316 125.737 250.277 126.339 250.079 126.895C249.882 127.452 249.533 127.942 249.074 128.31C248.614 128.678 248.061 128.909 247.478 128.978C246.895 129.046 246.304 128.948 245.773 128.696L244.149 127.926C243.838 127.777 243.495 127.708 243.151 127.723C242.807 127.737 242.472 127.837 242.174 128.011L240.623 128.921C240.104 129.227 239.508 129.377 238.907 129.353Z" fill="white"/>
<path d="M395.959 341.148L396.68 324.82C404.198 320.774 412.583 318.636 421.108 318.594C409.376 328.252 410.842 346.87 402.888 359.859C400.376 363.89 396.996 367.301 392.997 369.839C388.998 372.376 384.484 373.975 379.788 374.517L369.97 380.57C368.623 373.007 368.92 365.241 370.84 357.805C372.761 350.369 376.26 343.441 381.096 337.498C383.842 334.191 386.99 331.246 390.467 328.731C392.818 334.974 395.959 341.148 395.959 341.148Z" fill="#F2F2F2"/>
<path d="M452.25 382H189.102C188.903 382 188.712 381.92 188.571 381.779C188.431 381.637 188.352 381.445 188.352 381.244C188.352 381.044 188.431 380.851 188.571 380.71C188.712 380.568 188.903 380.488 189.102 380.488H452.25C452.449 380.488 452.64 380.568 452.781 380.71C452.922 380.851 453.001 381.044 453.001 381.244C453.001 381.445 452.922 381.637 452.781 381.779C452.64 381.92 452.449 382 452.25 382Z" fill="#CACACA"/>
</g>
<defs>
<clipPath id="clip0_792_300">
<rect width="453" height="382" fill="white"/>
</clipPath>
</defs>
</svg>
