<svg width="203" height="203" viewBox="0 0 203 203" fill="none" xmlns="http://www.w3.org/2000/svg">
<path d="M174.197 106.664C174.197 106.664 169.325 104.585 169.325 94.435C169.325 84.285 168.513 72.9779 157.957 64.0094C147.401 55.0408 138.875 60.9441 122.635 63.7617C106.395 66.5794 105.583 50.4003 71.4789 52.0933C37.3749 53.7863 30.0669 74.2203 28.4429 88.142C26.8189 102.064 41.8409 107.865 34.9389 118.523C28.0369 129.18 20.7289 131.34 23.5709 144.937C26.4129 158.534 35.7509 166.37 56.4569 166.861C77.1629 167.353 88.9369 147.828 101.117 146.935C113.297 146.042 119.793 167.081 147.807 163.394C175.821 159.708 191.655 132.177 174.197 106.664Z" fill="#B0C4CD"/>
<path opacity="0.7" d="M174.197 106.664C174.197 106.664 169.325 104.585 169.325 94.435C169.325 84.285 168.513 72.9779 157.957 64.0094C147.401 55.0408 138.875 60.9441 122.635 63.7617C106.395 66.5794 105.583 50.4003 71.4789 52.0933C37.3749 53.7863 30.0669 74.2203 28.4429 88.142C26.8189 102.064 41.8409 107.865 34.9389 118.523C28.0369 129.18 20.7289 131.34 23.5709 144.937C26.4129 158.534 35.7509 166.37 56.4569 166.861C77.1629 167.353 88.9369 147.828 101.117 146.935C113.297 146.042 119.793 167.081 147.807 163.394C175.821 159.708 191.655 132.177 174.197 106.664Z" fill="white"/>
<path d="M138.039 126.326H170.674C171.135 126.326 171.578 126.51 171.905 126.836C172.232 127.163 172.415 127.606 172.415 128.068V149.294H136.281V128.068C136.281 127.838 136.327 127.61 136.415 127.398C136.504 127.185 136.634 126.993 136.797 126.831C136.961 126.669 137.155 126.541 137.368 126.454C137.581 126.368 137.809 126.324 138.039 126.326Z" fill="#B0C4CD" stroke="#263238" stroke-linecap="round" stroke-linejoin="round"/>
<path d="M139.894 128.068H168.818C169.28 128.068 169.723 128.252 170.049 128.578C170.376 128.905 170.559 129.348 170.559 129.81V149.603H138.148V129.814C138.148 129.351 138.332 128.907 138.66 128.58C138.987 128.252 139.431 128.068 139.894 128.068Z" fill="#263238" stroke="#263238" stroke-linecap="round" stroke-linejoin="round"/>
<path d="M172.104 151.152H134.996C134.59 151.152 134.187 151.072 133.812 150.917C133.437 150.761 133.096 150.533 132.808 150.246C132.521 149.959 132.293 149.618 132.138 149.243C131.982 148.867 131.902 148.465 131.902 148.059H175.198C175.198 148.465 175.118 148.867 174.963 149.243C174.807 149.618 174.579 149.959 174.292 150.246C174.005 150.533 173.664 150.761 173.288 150.917C172.913 151.072 172.511 151.152 172.104 151.152Z" fill="#B0C4CD" stroke="#263238" stroke-linecap="round" stroke-linejoin="round"/>
<path d="M88.2424 126.326H120.877C121.339 126.326 121.782 126.51 122.108 126.836C122.435 127.163 122.618 127.606 122.618 128.068V149.294H86.4844V128.068C86.4844 127.838 86.5299 127.61 86.6185 127.398C86.707 127.185 86.8368 126.993 87.0002 126.831C87.1637 126.669 87.3576 126.541 87.5708 126.454C87.784 126.368 88.0123 126.324 88.2424 126.326Z" fill="#B0C4CD" stroke="#263238" stroke-linecap="round" stroke-linejoin="round"/>
<path d="M90.1011 128.068H119.025C119.486 128.068 119.93 128.252 120.256 128.578C120.583 128.905 120.766 129.348 120.766 129.81V149.603H88.3594V129.814C88.3588 129.585 88.4035 129.358 88.4908 129.146C88.5781 128.935 88.7063 128.742 88.8681 128.58C89.0299 128.418 89.2221 128.289 89.4336 128.201C89.6452 128.114 89.872 128.068 90.1011 128.068Z" fill="#263238" stroke="#263238" stroke-linecap="round" stroke-linejoin="round"/>
<path d="M122.316 151.152H85.2031C84.7968 151.152 84.3945 151.072 84.0192 150.917C83.6438 150.761 83.3028 150.533 83.0155 150.246C82.7282 149.959 82.5003 149.618 82.3449 149.243C82.1894 148.867 82.1094 148.465 82.1094 148.059H125.405C125.405 148.878 125.08 149.665 124.501 150.245C123.921 150.825 123.135 151.151 122.316 151.152Z" fill="#B0C4CD" stroke="#263238" stroke-linecap="round" stroke-linejoin="round"/>
<path d="M37.2117 126.326H69.8298C70.2917 126.326 70.7347 126.51 71.0614 126.837C71.388 127.163 71.5715 127.606 71.5715 128.068V149.294H35.4375V128.068C35.4375 127.837 35.4836 127.608 35.5731 127.394C35.6627 127.181 35.7939 126.987 35.9591 126.825C36.1243 126.663 36.3201 126.535 36.5352 126.45C36.7503 126.364 36.9803 126.322 37.2117 126.326Z" fill="#B0C4CD" stroke="#263238" stroke-linecap="round" stroke-linejoin="round"/>
<path d="M39.0699 128.068H67.9933C68.4552 128.068 68.8983 128.252 69.2249 128.578C69.5515 128.905 69.735 129.348 69.735 129.81V149.603H37.3281V129.814C37.3281 129.352 37.5115 128.908 37.838 128.581C38.1645 128.254 38.6076 128.069 39.0699 128.068Z" fill="#263238" stroke="#263238" stroke-linecap="round" stroke-linejoin="round"/>
<path d="M71.2842 151.154H34.1717C33.3519 151.153 32.566 150.827 31.9867 150.247C31.4074 149.667 31.082 148.88 31.082 148.061H74.3779C74.3779 148.467 74.2979 148.869 74.1424 149.244C73.9869 149.62 73.759 149.961 73.4717 150.248C73.1845 150.535 72.8434 150.763 72.4681 150.919C72.0927 151.074 71.6904 151.154 71.2842 151.154Z" fill="#B0C4CD" stroke="#263238" stroke-linecap="round" stroke-linejoin="round"/>
<path d="M58.4149 145.623H47.0469V130.398H55.0288L58.4149 133.5V145.623Z" fill="white" stroke="#263238" stroke-linecap="round" stroke-linejoin="round"/>
<path d="M55.0273 130.398V133.5H58.4134L55.0273 130.398Z" fill="white" stroke="#263238" stroke-linecap="round" stroke-linejoin="round"/>
<path d="M159.558 109.654C159.307 105.704 158.043 101.885 155.888 98.564C153.734 95.2435 150.761 92.5332 147.256 90.6937C149.553 85.6814 149.977 80.0124 148.454 74.7138C146.93 69.4153 143.559 64.8377 138.952 61.8105C134.344 58.7833 128.804 57.5067 123.336 58.2121C117.868 58.9175 112.834 61.5582 109.145 65.6557C106.917 60.2715 102.734 55.9299 97.436 53.5028C92.1384 51.0758 86.1187 50.7431 80.5859 52.5716C75.0531 54.4001 70.417 58.2544 67.6089 63.3602C64.8008 68.4661 64.0286 74.4453 65.4474 80.0971C64.7369 80.0321 64.0223 79.9915 63.2956 79.9915C59.7024 79.9915 56.1589 80.8308 52.9476 82.4426C49.7362 84.0544 46.9457 86.394 44.7985 89.2751C42.6513 92.1561 41.2068 95.4989 40.5801 99.037C39.9535 102.575 40.1619 106.211 41.1889 109.654H159.558Z" fill="#B0C4CD" stroke="#263238" stroke-linecap="round" stroke-linejoin="round"/>
<path d="M91.2779 73.4861L92.3416 72.9989L92.1142 71.7199L90.9409 71.6306C90.7921 71.2366 90.5943 70.8629 90.3522 70.5182L90.9612 69.4951L90.0436 68.5775L89.0124 69.1906C88.4204 68.7844 87.7494 68.5077 87.0433 68.3786L86.7469 67.2012H85.4477L85.1513 68.3867C84.7483 68.463 84.3557 68.587 83.982 68.7562L83.0564 67.9442L82.0129 68.7115L82.4514 69.8564C82.1656 70.1498 81.9149 70.4754 81.7044 70.8267L80.4864 70.7009L80.0438 71.9189L81.0548 72.605C81.0078 72.8896 80.9833 73.1774 80.9817 73.4657C80.9817 73.5875 80.9817 73.7094 80.9817 73.8312L79.918 74.4239L80.2509 75.6784H81.4689C81.6468 76.0541 81.869 76.4071 82.1307 76.73L81.6069 77.7937L82.6016 78.6301L83.5639 77.9399C83.9291 78.15 84.3192 78.3137 84.725 78.4271L84.9158 79.5923L86.211 79.7019L86.617 78.6017C87.0407 78.565 87.4581 78.4749 87.8593 78.3337L88.6713 79.1457L89.7959 78.4961L89.4874 77.3796C89.8124 77.1027 90.1015 76.7863 90.3481 76.4377L91.493 76.6488L92.0411 75.4754L91.1439 74.7325C91.2392 74.324 91.2842 73.9054 91.2779 73.4861ZM89.3575 73.4617C89.3575 74.1041 89.167 74.7321 88.8101 75.2662C88.4532 75.8003 87.9459 76.2166 87.3524 76.4625C86.7589 76.7083 86.1059 76.7726 85.4758 76.6473C84.8458 76.522 84.267 76.2126 83.8128 75.7584C83.3585 75.3041 83.0492 74.7254 82.9239 74.0953C82.7986 73.4653 82.8629 72.8122 83.1087 72.2187C83.3545 71.6252 83.7708 71.118 84.305 70.7611C84.8391 70.4042 85.4671 70.2137 86.1095 70.2137C86.5381 70.2137 86.9624 70.2985 87.3581 70.4632C87.7537 70.628 88.1129 70.8694 88.4148 71.1736C88.7167 71.4778 88.9555 71.8387 89.1173 72.2356C89.279 72.6325 89.3607 73.0575 89.3575 73.4861V73.4617Z" fill="#263238"/>
<path d="M128.056 92.7068L129.12 92.2196L128.896 90.9447L127.723 90.8513C127.571 90.4588 127.373 90.0855 127.134 89.7389L127.739 88.7158L126.822 87.7982L125.79 88.4113C125.198 88.0061 124.527 87.7295 123.821 87.5993L123.525 86.4219H122.23L121.929 87.6074C121.527 87.6831 121.136 87.8071 120.764 87.9769L119.834 87.1649L118.771 87.9078L119.209 89.0568C118.922 89.347 118.673 89.6715 118.466 90.0231L117.248 89.8972L116.801 91.1152L117.812 91.8014C117.767 92.086 117.744 92.3738 117.743 92.6621C117.743 92.788 117.743 92.9057 117.743 93.0275L116.68 93.6203L117.017 94.8748H118.235C118.413 95.2504 118.635 95.6034 118.896 95.9263L118.369 97.0347L119.363 97.8467L120.326 97.1565C120.691 97.3663 121.081 97.5312 121.487 97.6478L121.682 98.8089L122.973 98.9226L123.379 97.8224C123.803 97.7847 124.22 97.6933 124.621 97.5503L125.433 98.3623L126.558 97.7127L126.249 96.5962C126.574 96.3185 126.865 96.0022 127.114 95.6543L128.255 95.8654L128.803 94.688L127.889 93.9694C127.998 93.5573 128.054 93.133 128.056 92.7068ZM126.135 92.6824C126.135 93.3248 125.945 93.9528 125.588 94.4869C125.231 95.021 124.724 95.4373 124.13 95.6832C123.537 95.929 122.884 95.9933 122.254 95.868C121.624 95.7427 121.045 95.4333 120.591 94.9791C120.136 94.5248 119.827 93.9461 119.702 93.3161C119.577 92.686 119.641 92.0329 119.887 91.4394C120.132 90.8459 120.549 90.3387 121.083 89.9818C121.617 89.6249 122.245 89.4344 122.887 89.4344C123.749 89.4344 124.575 89.7766 125.184 90.3857C125.793 90.9948 126.135 91.821 126.135 92.6824Z" fill="#263238"/>
<path d="M52.6016 102.872V89.6773C52.6016 88.6544 53.0079 87.6733 53.7313 86.95C54.4546 86.2267 55.4356 85.8203 56.4586 85.8203H84.0666" stroke="#263238" stroke-width="7" stroke-linejoin="round"/>
<path d="M125.207 82.6426H131.297C131.813 82.6426 132.323 82.7441 132.799 82.9414C133.276 83.1387 133.709 83.4279 134.073 83.7925C134.438 84.157 134.727 84.5898 134.924 85.0662C135.121 85.5425 135.223 86.053 135.223 86.5686V100.507" stroke="#263238" stroke-width="7" stroke-linejoin="round"/>
<path d="M91.3493 48.4199V63.8763C91.3493 64.2101 91.4819 64.5303 91.7179 64.7663C91.954 65.0023 92.2741 65.1349 92.6079 65.1349H97.5408C97.8746 65.1349 98.1947 65.2675 98.4308 65.5036C98.6668 65.7396 98.7994 66.0597 98.7994 66.3935V70.0232H85.2593C84.8745 70.0232 84.4936 70.099 84.1381 70.2464C83.7827 70.3938 83.4599 70.6097 83.188 70.882C82.9161 71.1542 82.7006 71.4774 82.5537 71.833C82.4068 72.1887 82.3315 72.5697 82.332 72.9545V93.8229C82.3315 94.2077 82.4068 94.5887 82.5537 94.9444C82.7006 95.3 82.9161 95.6232 83.188 95.8954C83.4599 96.1677 83.7827 96.3837 84.1381 96.531C84.4936 96.6784 84.8745 96.7542 85.2593 96.7542H123.708C124.092 96.7542 124.473 96.6784 124.829 96.531C125.184 96.3837 125.507 96.1677 125.779 95.8954C126.051 95.6232 126.266 95.3 126.413 94.9444C126.56 94.5887 126.635 94.2077 126.635 93.8229V72.9545C126.635 72.5697 126.56 72.1887 126.413 71.833C126.266 71.4774 126.051 71.1542 125.779 70.882C125.507 70.6097 125.184 70.3938 124.829 70.2464C124.473 70.099 124.092 70.0232 123.708 70.0232H110.151V66.3935C110.151 66.0597 110.284 65.7396 110.52 65.5036C110.756 65.2675 111.076 65.1349 111.41 65.1349H116.347C116.512 65.1349 116.675 65.1024 116.828 65.0391C116.98 64.9758 117.119 64.883 117.235 64.7661C117.352 64.6491 117.444 64.5104 117.507 64.3577C117.57 64.205 117.602 64.0414 117.601 63.8763V48.8016" fill="white"/>
<path d="M91.3493 48.4199V63.8763C91.3493 64.2101 91.4819 64.5303 91.7179 64.7663C91.954 65.0023 92.2741 65.1349 92.6079 65.1349H97.5408C97.8746 65.1349 98.1947 65.2675 98.4308 65.5036C98.6668 65.7396 98.7994 66.0597 98.7994 66.3935V70.0232H85.2593C84.8745 70.0232 84.4936 70.099 84.1381 70.2464C83.7827 70.3938 83.4599 70.6097 83.188 70.882C82.9161 71.1542 82.7006 71.4774 82.5537 71.833C82.4068 72.1887 82.3315 72.5697 82.332 72.9545V93.8229C82.3315 94.2077 82.4068 94.5887 82.5537 94.9444C82.7006 95.3 82.9161 95.6232 83.188 95.8954C83.4599 96.1677 83.7827 96.3837 84.1381 96.531C84.4936 96.6784 84.8745 96.7542 85.2593 96.7542H123.708C124.092 96.7542 124.473 96.6784 124.829 96.531C125.184 96.3837 125.507 96.1677 125.779 95.8954C126.051 95.6232 126.266 95.3 126.413 94.9444C126.56 94.5887 126.635 94.2077 126.635 93.8229V72.9545C126.635 72.5697 126.56 72.1887 126.413 71.833C126.266 71.4774 126.051 71.1542 125.779 70.882C125.507 70.6097 125.184 70.3938 124.829 70.2464C124.473 70.099 124.092 70.0232 123.708 70.0232H110.151V66.3935C110.151 66.0597 110.284 65.7396 110.52 65.5036C110.756 65.2675 111.076 65.1349 111.41 65.1349H116.347C116.512 65.1349 116.675 65.1024 116.828 65.0391C116.98 64.9758 117.119 64.883 117.235 64.7661C117.352 64.6491 117.444 64.5104 117.507 64.3577C117.57 64.205 117.602 64.0414 117.601 63.8763V48.8016" stroke="#263238" stroke-linecap="round" stroke-linejoin="round"/>
<path d="M89.3398 42.582C89.3398 42.582 97.5938 43.593 99.0635 52.6711" stroke="#263238" stroke-width="2" stroke-linecap="round" stroke-linejoin="round"/>
<path d="M96.9531 52.2699L99.2917 55.5747L100.985 51.9004L96.9531 52.2699Z" fill="#263238"/>
<path d="M113.498 42.582C113.498 42.582 104.647 44.2426 103.645 59.565" stroke="#263238" stroke-width="2" stroke-linecap="round" stroke-linejoin="round"/>
<path d="M101.668 58.8945L103.556 62.4755L105.712 59.0529L101.668 58.8945Z" fill="#263238"/>
<path d="M90.9648 35.8828C90.9648 35.8828 99.2188 36.8938 100.689 45.9719" stroke="#263238" stroke-width="2" stroke-linecap="round" stroke-linejoin="round"/>
<path d="M98.5781 45.5706L100.917 48.8755L102.61 45.2012L98.5781 45.5706Z" fill="#263238"/>
<path d="M120.399 42.582C120.399 42.582 112.149 43.593 110.68 52.6711" stroke="#263238" stroke-width="2" stroke-linecap="round" stroke-linejoin="round"/>
<path d="M108.762 51.9004L110.459 55.5747L112.793 52.2699L108.762 51.9004Z" fill="#263238"/>
<path d="M121.801 73.433H108.427V69.373H100.307V73.433H87.1729C86.8575 73.433 86.5451 73.4952 86.2537 73.6161C85.9623 73.7369 85.6977 73.914 85.4748 74.1373C85.2519 74.3605 85.0753 74.6255 84.9549 74.9171C84.8346 75.2087 84.7729 75.5211 84.7734 75.8366V91.228C84.7734 91.8644 85.0262 92.4747 85.4762 92.9247C85.9262 93.3747 86.5365 93.6275 87.1729 93.6275H121.801C122.437 93.6275 123.048 93.3748 123.499 92.9249C123.949 92.4751 124.203 91.8648 124.204 91.228V75.8366C124.204 75.1991 123.951 74.5878 123.5 74.137C123.049 73.6863 122.438 73.433 121.801 73.433Z" fill="#263238"/>
<path d="M87.7695 76.6543H92.9907" stroke="white" stroke-linecap="round" stroke-linejoin="round"/>
<path d="M87.7695 79.1211H100.956" stroke="white" stroke-linecap="round" stroke-linejoin="round"/>
<path d="M101.941 79.1211H105.681" stroke="white" stroke-linecap="round" stroke-linejoin="round"/>
<path d="M106.738 79.1211H113.015" stroke="white" stroke-linecap="round" stroke-linejoin="round"/>
<path d="M97.7109 76.6543H102.932" stroke="white" stroke-linecap="round" stroke-linejoin="round"/>
<path d="M113.652 76.6543H120.985" stroke="white" stroke-linecap="round" stroke-linejoin="round"/>
<path d="M113.652 79.1211H120.985" stroke="white" stroke-linecap="round" stroke-linejoin="round"/>
<path d="M94.332 76.6543H96.7274" stroke="white" stroke-linecap="round" stroke-linejoin="round"/>
<path d="M103.973 76.6543H106.368" stroke="white" stroke-linecap="round" stroke-linejoin="round"/>
<path d="M107.43 76.6543H109.208" stroke="white" stroke-linecap="round" stroke-linejoin="round"/>
<path d="M110.25 76.6543H112.645" stroke="white" stroke-linecap="round" stroke-linejoin="round"/>
<path d="M120.983 81.3789H115.766" stroke="white" stroke-linecap="round" stroke-linejoin="round"/>
<path d="M120.984 83.8477H107.797" stroke="white" stroke-linecap="round" stroke-linejoin="round"/>
<path d="M106.81 83.8477H103.07" stroke="white" stroke-linecap="round" stroke-linejoin="round"/>
<path d="M102.015 83.8477H95.7383" stroke="white" stroke-linecap="round" stroke-linejoin="round"/>
<path d="M111.041 81.3789H105.824" stroke="white" stroke-linecap="round" stroke-linejoin="round"/>
<path d="M95.106 81.3789H87.7695" stroke="white" stroke-linecap="round" stroke-linejoin="round"/>
<path d="M95.106 83.8477H87.7695" stroke="white" stroke-linecap="round" stroke-linejoin="round"/>
<path d="M114.427 81.3789H112.027" stroke="white" stroke-linecap="round" stroke-linejoin="round"/>
<path d="M104.782 81.3789H102.387" stroke="white" stroke-linecap="round" stroke-linejoin="round"/>
<path d="M101.325 81.3789H99.5469" stroke="white" stroke-linecap="round" stroke-linejoin="round"/>
<path d="M98.5088 81.3789H96.1094" stroke="white" stroke-linecap="round" stroke-linejoin="round"/>
<path d="M120.983 86.0312H115.766" stroke="white" stroke-linecap="round" stroke-linejoin="round"/>
<path d="M87.7695 88.5H100.956" stroke="white" stroke-linecap="round" stroke-linejoin="round"/>
<path d="M101.941 88.5H105.681" stroke="white" stroke-linecap="round" stroke-linejoin="round"/>
<path d="M106.738 88.5H113.015" stroke="white" stroke-linecap="round" stroke-linejoin="round"/>
<path d="M111.041 86.0312H105.824" stroke="white" stroke-linecap="round" stroke-linejoin="round"/>
<path d="M95.106 86.0312H87.7695" stroke="white" stroke-linecap="round" stroke-linejoin="round"/>
<path d="M113.652 88.5H120.985" stroke="white" stroke-linecap="round" stroke-linejoin="round"/>
<path d="M114.427 86.0312H112.027" stroke="white" stroke-linecap="round" stroke-linejoin="round"/>
<path d="M104.782 86.0312H102.387" stroke="white" stroke-linecap="round" stroke-linejoin="round"/>
<path d="M101.325 86.0312H99.5469" stroke="white" stroke-linecap="round" stroke-linejoin="round"/>
<path d="M98.5088 86.0312H96.1094" stroke="white" stroke-linecap="round" stroke-linejoin="round"/>
<path d="M120.983 90.6895H115.766" stroke="white" stroke-linecap="round" stroke-linejoin="round"/>
<path d="M111.041 90.6895H105.824" stroke="white" stroke-linecap="round" stroke-linejoin="round"/>
<path d="M95.106 90.6895H87.7695" stroke="white" stroke-linecap="round" stroke-linejoin="round"/>
<path d="M114.427 90.6895H112.027" stroke="white" stroke-linecap="round" stroke-linejoin="round"/>
<path d="M104.782 90.6895H102.387" stroke="white" stroke-linecap="round" stroke-linejoin="round"/>
<path d="M101.325 90.6895H99.5469" stroke="white" stroke-linecap="round" stroke-linejoin="round"/>
<path d="M98.5088 90.6895H96.1094" stroke="white" stroke-linecap="round" stroke-linejoin="round"/>
<path d="M76.1864 97.5298L77.7049 96.8396L77.3842 95.0045L75.7114 94.8746C75.4988 94.3144 75.2179 93.7826 74.8751 93.2912L75.7358 91.8336L74.4285 90.5385L72.9628 91.4114C72.1185 90.8397 71.1645 90.4498 70.1614 90.2665L69.7554 88.5938H67.9081L67.4818 90.2786C66.909 90.3867 66.3514 90.564 65.8213 90.8064L64.5018 89.6656L62.9874 90.7212L63.6086 92.3452C63.204 92.7621 62.8485 93.2239 62.5489 93.7215L60.8112 93.5429L60.1779 95.2765L61.6192 96.255C61.5494 96.6572 61.5141 97.0647 61.5136 97.473C61.5136 97.6475 61.5136 97.8221 61.5339 97.9926L60.0195 98.8371L60.4986 100.624L62.2119 100.599C62.4648 101.134 62.7811 101.637 63.1539 102.097L62.4149 103.636L63.8278 104.822L65.2001 103.839C65.7195 104.14 66.2746 104.375 66.8525 104.537L67.1286 106.194L68.9678 106.352L69.524 104.789C70.1285 104.727 70.7231 104.591 71.2942 104.383L72.4553 105.565L74.0549 104.639L73.6165 103.047C74.0768 102.653 74.486 102.203 74.8345 101.708L76.4585 102.008L77.238 100.335L75.9632 99.2837C76.1083 98.7103 76.1833 98.1213 76.1864 97.5298ZM73.4541 97.4973C73.4541 98.4095 73.1836 99.3012 72.6768 100.06C72.17 100.818 71.4497 101.409 70.6069 101.758C69.7641 102.107 68.8368 102.199 67.9421 102.021C67.0475 101.843 66.2256 101.404 65.5806 100.759C64.9356 100.114 64.4963 99.2918 64.3184 98.3971C64.1404 97.5024 64.2317 96.5751 64.5808 95.7323C64.9299 94.8896 65.5211 94.1692 66.2795 93.6625C67.038 93.1557 67.9297 92.8852 68.8419 92.8852C70.0651 92.8852 71.2383 93.3711 72.1032 94.236C72.9681 95.101 73.4541 96.2741 73.4541 97.4973Z" fill="#263238"/>
<path d="M45.5743 109.654H48.3351C48.5197 108.583 49.0766 107.612 49.9075 106.912C50.7384 106.212 51.7898 105.828 52.8762 105.828C53.9626 105.828 55.0141 106.212 55.845 106.912C56.6759 107.612 57.2328 108.583 57.4173 109.654H61.7128L61.4124 107.956L59.7437 107.827C59.5296 107.266 59.2474 106.734 58.9033 106.243L59.7681 104.786L58.4648 103.478L56.9951 104.343C56.1514 103.77 55.1972 103.38 54.1937 103.198L53.7877 101.525H51.9404L51.5344 103.21C50.9604 103.319 50.4016 103.496 49.8698 103.738L48.5503 102.593L47.04 103.653L47.6612 105.277C47.2542 105.692 46.8984 106.154 46.6015 106.653L44.8598 106.475L44.2305 108.208L45.6677 109.187C45.6068 109.353 45.5906 109.503 45.5743 109.654Z" fill="#263238"/>
<path d="M146.046 102.402H137.926V105.65H146.046V102.402Z" fill="white" stroke="#263238" stroke-linecap="round" stroke-linejoin="round"/>
<path d="M152.543 97.7402H143.883V109.648H152.543V97.7402Z" fill="white" stroke="#263238" stroke-linecap="round" stroke-linejoin="round"/>
<path d="M130.351 102.616H121.419V99.3926H104.566V102.401" stroke="#263238" stroke-width="2" stroke-linecap="round" stroke-linejoin="round"/>
<path d="M130.621 107.273H111.133" stroke="#263238" stroke-width="2" stroke-linecap="round" stroke-linejoin="round"/>
<path d="M115.733 103.367H109.777V109.648H115.733V103.367Z" fill="white" stroke="#263238" stroke-linecap="round" stroke-linejoin="round"/>
<path d="M112.753 101.318H96.7852V118.642H112.753V101.318Z" fill="white" stroke="#263238" stroke-linecap="round" stroke-linejoin="round"/>
<path d="M111.405 101.318H98.1406V118.642H111.405V101.318Z" fill="white" stroke="#263238" stroke-linecap="round" stroke-linejoin="round"/>
<path d="M121.413 103.538C122.03 103.538 122.53 103.038 122.53 102.421C122.53 101.805 122.03 101.305 121.413 101.305C120.797 101.305 120.297 101.805 120.297 102.421C120.297 103.038 120.797 103.538 121.413 103.538Z" fill="#263238"/>
<path d="M104.601 100.51C105.218 100.51 105.717 100.01 105.717 99.3938C105.717 98.7772 105.218 98.2773 104.601 98.2773C103.984 98.2773 103.484 98.7772 103.484 99.3938C103.484 100.01 103.984 100.51 104.601 100.51Z" fill="#263238"/>
<path d="M140.906 97.7402H129.266V109.648H140.906V97.7402Z" fill="white" stroke="#263238" stroke-linecap="round" stroke-linejoin="round"/>
<path d="M112.753 101.318H96.7852V104.116H112.753V101.318Z" fill="#263238" stroke="#263238" stroke-linecap="round" stroke-linejoin="round"/>
<path d="M139.692 102.299H135.38V100.684L129.773 103.923L135.38 107.163V105.547H139.692V102.299Z" fill="#263238"/>
<path d="M102.659 106.275V110.583H101.043L104.283 116.194L107.523 110.583H105.907V106.275H102.659Z" fill="#263238"/>
<path d="M139.219 84.1934V90.6122" stroke="#263238" stroke-miterlimit="10"/>
<path d="M138.207 90.3145L139.218 92.0684L140.233 90.3145H138.207Z" fill="#263238"/>
<path d="M136.168 75.5527C137.073 75.9352 137.844 76.576 138.387 77.395C138.929 78.2139 139.218 79.1746 139.217 80.1568V81.5291" stroke="#263238" stroke-miterlimit="10"/>
<path d="M138.207 81.2324L139.218 82.9863L140.233 81.2324H138.207Z" fill="#263238"/>
<path d="M128.652 75.1602H132.765" stroke="#263238" stroke-miterlimit="10"/>
<path d="M132.469 76.1744L134.223 75.1634L132.469 74.1484V76.1744Z" fill="#263238"/>
<path d="M40.3555 158.125C41.5762 156.872 41.5503 154.867 40.2977 153.647C39.0451 152.426 37.0402 152.452 35.8195 153.705C34.5989 154.957 34.6248 156.962 35.8774 158.183C37.13 159.403 39.1349 159.378 40.3555 158.125Z" fill="#263238"/>
<path d="M39.029 155.929C39.029 155.74 38.9732 155.557 38.8686 155.4C38.764 155.244 38.6154 155.122 38.4416 155.05C38.2677 154.979 38.0765 154.96 37.8921 154.997C37.7077 155.034 37.5384 155.125 37.4057 155.258C37.273 155.391 37.1829 155.561 37.1467 155.746C37.1105 155.93 37.1299 156.121 37.2024 156.295C37.2749 156.468 37.3973 156.617 37.5541 156.72C37.7109 156.824 37.8949 156.879 38.083 156.879C38.2076 156.879 38.3309 156.854 38.446 156.806C38.561 156.758 38.6655 156.688 38.7534 156.6C38.8412 156.512 38.9108 156.407 38.9581 156.292C39.0054 156.177 39.0295 156.053 39.029 155.929Z" fill="white"/>
<path d="M58.6748 158.171C59.9115 156.934 59.9115 154.929 58.6748 153.692C57.4381 152.456 55.433 152.456 54.1963 153.692C52.9596 154.929 52.9596 156.934 54.1963 158.171C55.433 159.408 57.4381 159.408 58.6748 158.171Z" fill="#263238"/>
<path d="M57.3884 155.929C57.3884 155.741 57.3327 155.557 57.2285 155.401C57.1243 155.245 56.9762 155.123 56.8028 155.051C56.6295 154.979 56.4386 154.96 56.2545 154.996C56.0703 155.033 55.901 155.123 55.768 155.255C55.635 155.388 55.5441 155.557 55.507 155.741C55.4699 155.925 55.4882 156.116 55.5594 156.289C55.6307 156.463 55.7519 156.612 55.9076 156.717C56.0633 156.821 56.2465 156.878 56.4343 156.879C56.5594 156.879 56.6833 156.855 56.7991 156.807C56.9148 156.76 57.02 156.69 57.1087 156.602C57.1973 156.513 57.2677 156.409 57.3157 156.293C57.3637 156.178 57.3884 156.054 57.3884 155.929Z" fill="white"/>
<path d="M75.5339 159.005C77.2358 158.602 78.2885 156.895 77.8853 155.193C77.482 153.492 75.7755 152.439 74.0737 152.842C72.3718 153.245 71.3191 154.952 71.7223 156.654C72.1256 158.356 73.8321 159.408 75.5339 159.005Z" fill="#263238"/>
<path d="M75.7477 155.929C75.7477 155.741 75.692 155.557 75.5876 155.401C75.4832 155.245 75.3349 155.123 75.1613 155.051C74.9877 154.979 74.7966 154.96 74.6124 154.997C74.4281 155.033 74.2588 155.124 74.1259 155.257C73.993 155.39 73.9026 155.559 73.8659 155.743C73.8293 155.928 73.8481 156.119 73.92 156.292C73.9919 156.466 74.1136 156.614 74.2699 156.718C74.4261 156.823 74.6098 156.879 74.7977 156.879C75.0497 156.879 75.2913 156.779 75.4695 156.6C75.6476 156.422 75.7477 156.181 75.7477 155.929Z" fill="white"/>
<path d="M93.8894 159.007C95.5913 158.604 96.644 156.897 96.2408 155.195C95.8375 153.494 94.131 152.441 92.4291 152.844C90.7273 153.247 89.6745 154.954 90.0778 156.656C90.481 158.358 92.1876 159.41 93.8894 159.007Z" fill="#263238"/>
<path d="M94.1071 155.929C94.1071 155.741 94.0514 155.557 93.947 155.401C93.8426 155.245 93.6942 155.123 93.5206 155.051C93.347 154.979 93.156 154.96 92.9717 154.997C92.7874 155.033 92.6182 155.124 92.4853 155.257C92.3524 155.39 92.2619 155.559 92.2253 155.743C92.1886 155.928 92.2074 156.119 92.2793 156.292C92.3513 156.466 92.473 156.614 92.6293 156.718C92.7855 156.823 92.9692 156.879 93.1571 156.879C93.409 156.879 93.6507 156.779 93.8289 156.6C94.007 156.422 94.1071 156.181 94.1071 155.929Z" fill="white"/>
<path d="M112.018 159.055C113.744 158.775 114.916 157.147 114.635 155.421C114.354 153.695 112.727 152.523 111.001 152.804C109.274 153.085 108.103 154.712 108.383 156.438C108.664 158.164 110.291 159.336 112.018 159.055Z" fill="#263238"/>
<path d="M112.463 155.929C112.463 155.741 112.407 155.557 112.302 155.401C112.198 155.245 112.05 155.123 111.876 155.051C111.703 154.979 111.511 154.96 111.327 154.997C111.143 155.033 110.974 155.124 110.841 155.257C110.708 155.39 110.617 155.559 110.581 155.743C110.544 155.928 110.563 156.119 110.635 156.292C110.707 156.466 110.828 156.614 110.985 156.718C111.141 156.823 111.325 156.879 111.513 156.879C111.765 156.879 112.006 156.779 112.184 156.6C112.362 156.422 112.463 156.181 112.463 155.929Z" fill="white"/>
<path d="M132.112 158.169C133.349 156.932 133.349 154.927 132.112 153.69C130.876 152.454 128.871 152.454 127.634 153.69C126.397 154.927 126.397 156.932 127.634 158.169C128.871 159.406 130.876 159.406 132.112 158.169Z" fill="#263238"/>
<path d="M130.822 155.929C130.822 155.741 130.766 155.557 130.662 155.401C130.557 155.245 130.409 155.123 130.235 155.051C130.062 154.979 129.871 154.96 129.687 154.997C129.502 155.033 129.333 155.124 129.2 155.257C129.067 155.39 128.977 155.559 128.94 155.743C128.903 155.928 128.922 156.119 128.994 156.292C129.066 156.466 129.188 156.614 129.344 156.718C129.5 156.823 129.684 156.879 129.872 156.879C130.124 156.879 130.366 156.779 130.544 156.6C130.722 156.422 130.822 156.181 130.822 155.929Z" fill="white"/>
<path d="M150.468 158.167C151.705 156.93 151.705 154.925 150.468 153.688C149.231 152.452 147.226 152.452 145.989 153.688C144.753 154.925 144.753 156.93 145.989 158.167C147.226 159.404 149.231 159.404 150.468 158.167Z" fill="#263238"/>
<path d="M149.181 155.929C149.181 155.741 149.126 155.557 149.021 155.401C148.917 155.245 148.768 155.123 148.595 155.051C148.421 154.979 148.23 154.96 148.046 154.997C147.862 155.033 147.692 155.124 147.56 155.257C147.427 155.39 147.336 155.559 147.3 155.743C147.263 155.928 147.282 156.119 147.354 156.292C147.425 156.466 147.547 156.614 147.703 156.718C147.86 156.823 148.043 156.879 148.231 156.879C148.483 156.879 148.725 156.779 148.903 156.6C149.081 156.422 149.181 156.181 149.181 155.929Z" fill="white"/>
<path d="M167.24 159.018C168.952 158.663 170.052 156.986 169.697 155.274C169.341 153.562 167.665 152.462 165.952 152.817C164.24 153.173 163.14 154.849 163.495 156.562C163.851 158.274 165.527 159.374 167.24 159.018Z" fill="#263238"/>
<path d="M167.537 155.929C167.537 155.74 167.481 155.557 167.376 155.4C167.272 155.244 167.123 155.122 166.949 155.05C166.776 154.979 166.584 154.96 166.4 154.997C166.216 155.034 166.046 155.125 165.914 155.258C165.781 155.391 165.691 155.561 165.654 155.746C165.618 155.93 165.638 156.121 165.71 156.295C165.783 156.468 165.905 156.617 166.062 156.72C166.219 156.824 166.403 156.879 166.591 156.879C166.715 156.879 166.839 156.854 166.954 156.806C167.069 156.758 167.173 156.688 167.261 156.6C167.349 156.512 167.419 156.407 167.466 156.292C167.513 156.177 167.537 156.053 167.537 155.929Z" fill="white"/>
<path d="M176.635 151.443H28.0391V153.879H176.635V151.443Z" fill="#263238" stroke="#263238" stroke-linecap="round" stroke-linejoin="round"/>
<path d="M31.2852 153.814V151.447" stroke="white" stroke-linejoin="round"/>
<path d="M36.9727 153.814V151.447" stroke="white" stroke-linejoin="round"/>
<path d="M42.6562 153.814V151.447" stroke="white" stroke-linejoin="round"/>
<path d="M48.3398 153.814V151.447" stroke="white" stroke-linejoin="round"/>
<path d="M54.0234 153.814V151.447" stroke="white" stroke-linejoin="round"/>
<path d="M59.707 153.814V151.447" stroke="white" stroke-linejoin="round"/>
<path d="M65.3906 153.814V151.447" stroke="white" stroke-linejoin="round"/>
<path d="M71.0742 153.814V151.447" stroke="white" stroke-linejoin="round"/>
<path d="M76.7578 153.814V151.447" stroke="white" stroke-linejoin="round"/>
<path d="M82.4414 153.814V151.447" stroke="white" stroke-linejoin="round"/>
<path d="M88.1289 151.447V153.814" stroke="white" stroke-linejoin="round"/>
<path d="M93.8125 153.814V151.447" stroke="white" stroke-linejoin="round"/>
<path d="M99.4961 153.814V151.447" stroke="white" stroke-linejoin="round"/>
<path d="M105.18 153.814V151.447" stroke="white" stroke-linejoin="round"/>
<path d="M110.863 153.814V151.447" stroke="white" stroke-linejoin="round"/>
<path d="M116.547 153.814V151.447" stroke="white" stroke-linejoin="round"/>
<path d="M122.23 153.814V151.447" stroke="white" stroke-linejoin="round"/>
<path d="M127.914 153.814V151.447" stroke="white" stroke-linejoin="round"/>
<path d="M133.598 153.814V151.447" stroke="white" stroke-linejoin="round"/>
<path d="M139.281 153.814V151.447" stroke="white" stroke-linejoin="round"/>
<path d="M144.969 153.814V151.447" stroke="white" stroke-linejoin="round"/>
<path d="M150.652 153.814V151.447" stroke="white" stroke-linejoin="round"/>
<path d="M156.336 153.814V151.447" stroke="white" stroke-linejoin="round"/>
<path d="M162.02 153.814V151.447" stroke="white" stroke-linejoin="round"/>
<path d="M167.703 153.814V151.447" stroke="white" stroke-linejoin="round"/>
<path d="M173.387 153.814V151.447" stroke="white" stroke-linejoin="round"/>
<path d="M176.635 158.344H28.0391V160.78H176.635V158.344Z" fill="#263238" stroke="#263238" stroke-linecap="round" stroke-linejoin="round"/>
<path d="M31.2852 160.717V158.35" stroke="white" stroke-linejoin="round"/>
<path d="M36.9727 160.717V158.35" stroke="white" stroke-linejoin="round"/>
<path d="M42.6562 160.717V158.35" stroke="white" stroke-linejoin="round"/>
<path d="M48.3398 160.717V158.35" stroke="white" stroke-linejoin="round"/>
<path d="M54.0234 160.717V158.35" stroke="white" stroke-linejoin="round"/>
<path d="M59.707 160.717V158.35" stroke="white" stroke-linejoin="round"/>
<path d="M65.3906 160.717V158.35" stroke="white" stroke-linejoin="round"/>
<path d="M71.0742 160.717V158.35" stroke="white" stroke-linejoin="round"/>
<path d="M76.7578 160.717V158.35" stroke="white" stroke-linejoin="round"/>
<path d="M82.4414 160.717V158.35" stroke="white" stroke-linejoin="round"/>
<path d="M88.1289 160.717V158.35" stroke="white" stroke-linejoin="round"/>
<path d="M93.8125 160.717V158.35" stroke="white" stroke-linejoin="round"/>
<path d="M99.4961 160.717V158.35" stroke="white" stroke-linejoin="round"/>
<path d="M105.18 160.717V158.35" stroke="white" stroke-linejoin="round"/>
<path d="M110.863 160.717V158.35" stroke="white" stroke-linejoin="round"/>
<path d="M116.547 160.717V158.35" stroke="white" stroke-linejoin="round"/>
<path d="M122.23 160.717V158.35" stroke="white" stroke-linejoin="round"/>
<path d="M127.914 160.717V158.35" stroke="white" stroke-linejoin="round"/>
<path d="M133.598 160.717V158.35" stroke="white" stroke-linejoin="round"/>
<path d="M139.281 160.717V158.35" stroke="white" stroke-linejoin="round"/>
<path d="M144.969 160.717V158.35" stroke="white" stroke-linejoin="round"/>
<path d="M150.652 160.717V158.35" stroke="white" stroke-linejoin="round"/>
<path d="M156.336 160.717V158.35" stroke="white" stroke-linejoin="round"/>
<path d="M162.02 160.717V158.35" stroke="white" stroke-linejoin="round"/>
<path d="M167.703 160.717V158.35" stroke="white" stroke-linejoin="round"/>
<path d="M173.387 160.717V158.35" stroke="white" stroke-linejoin="round"/>
<path d="M110.665 132.417H99.2969V117.188H107.279L110.665 120.289V132.417Z" fill="white" stroke="#263238" stroke-linecap="round" stroke-linejoin="round"/>
<path d="M107.277 117.188V120.289H110.663L107.277 117.188Z" fill="white" stroke="#263238" stroke-linecap="round" stroke-linejoin="round"/>
</svg>
