<svg width="56" height="56" viewBox="0 0 56 56" fill="none" xmlns="http://www.w3.org/2000/svg">
<path d="M30.2501 55.9995C16.0815 55.9995 4.49917 44.2534 4.38672 29.8843V29.3141H29.9128L43.8566 7.64648L44.3064 7.98859C51.6156 12.8923 56.0012 20.9892 56.0012 29.8843C56.0012 44.3674 44.4188 55.9995 30.2501 55.9995ZM5.62366 30.4545C5.961 44.0253 16.8686 54.8591 30.2501 54.8591C43.8566 54.8591 54.8767 43.6832 54.8767 29.8843C54.8767 21.5594 50.9409 13.9187 44.1939 9.24304L30.4751 30.4545H5.62366Z" fill="#010101"/>
<path d="M26.3133 27.3758H0V26.8056C0 12.3225 11.5823 0.69043 25.751 0.69043H26.3133V27.3758ZM1.1245 26.2354H25.1888V1.71678C12.0321 2.0589 1.3494 12.8927 1.1245 26.2354Z" fill="#010101"/>
<path d="M28.1147 27.7179L27.7773 0.00612494H28.3396C33.3998 -0.107915 38.2352 1.37461 42.5083 4.11158L42.9581 4.45368L28.1147 27.7179ZM28.9018 1.03248L29.1267 23.8405L41.3838 4.68178C37.6729 2.40098 33.3998 1.14652 28.9018 1.03248Z" fill="#010101"/>
</svg>
