<svg width="56" height="51" viewBox="0 0 56 51" fill="none" xmlns="http://www.w3.org/2000/svg">
<path d="M48.2874 19.773C47.8403 19.773 47.3932 19.7731 46.9461 19.8936C46.6108 14.7092 42.5868 10.6099 37.6687 10.6099C37.5569 10.6099 37.4451 10.6099 37.3334 10.6099C35.992 4.46098 30.8503 0 24.9262 0C19.5609 0 14.8663 3.61702 12.9661 9.04256C12.8543 9.04256 12.8543 9.04256 12.7425 9.04256C5.70061 9.04256 0 15.1915 0 22.7872C0 30.383 5.70061 36.5319 12.7425 36.5319H20.1198L15.6487 40.7518H21.9082V51H34.2036V40.7518H40.4631L35.992 36.5319H48.2874C52.5349 36.5319 56 32.7943 56 28.2128C56 23.5106 52.5349 19.773 48.2874 19.773ZM33.0858 39.5461V49.7943H23.026V39.5461H18.6667L28.0559 30.7447L37.4451 39.5461H33.0858ZM48.2874 35.2057H34.7625L28.1677 29.0567L21.5729 35.2057H12.9661C6.59482 35.2057 1.34131 29.6596 1.34131 22.6667C1.34131 15.7943 6.48304 10.1277 12.9661 10.1277C13.1896 10.1277 13.3014 10.1277 13.525 10.1277H13.9721L14.0838 9.64539C15.6487 4.46099 20.008 1.0851 25.0379 1.0851C30.6268 1.0851 35.3214 5.30495 36.4391 11.2128L36.5509 11.695H37.1098C37.3333 11.695 37.5569 11.695 37.7804 11.695C42.2515 11.695 45.9401 15.6738 45.9401 20.4965V21.2198L46.6108 20.9787C47.1697 20.8582 47.7285 20.7376 48.2874 20.7376C51.9761 20.7376 54.8822 23.9929 54.8822 27.851C54.8822 32.0709 51.8643 35.2057 48.2874 35.2057Z" fill="#010101"/>
</svg>
