<svg width="307" height="546" viewBox="0 0 307 546" fill="none" xmlns="http://www.w3.org/2000/svg">
<path d="M-228.342 355.695C-207.768 457.132 -99.1982 520.818 14.2488 497.808C127.696 474.797 202.87 373.841 182.296 272.404C161.721 170.967 53.1514 107.281 -60.2956 130.292C-173.743 153.302 -248.917 254.258 -228.342 355.695Z" stroke="white"/>
<path d="M-151.245 293.12C-130.67 394.557 -22.1006 458.243 91.3464 435.232C204.793 412.222 279.968 311.266 259.393 209.829C238.818 108.392 130.249 44.7055 16.8021 67.7163C-96.6449 90.7271 -171.82 191.683 -151.245 293.12Z" stroke="#91A2FA"/>
<path d="M-268.139 290.3C-247.565 391.737 -138.995 455.423 -25.5481 432.412C87.8989 409.401 163.074 308.446 142.499 207.009C121.924 105.571 13.3545 41.8852 -100.092 64.896C-213.539 87.9068 -288.714 188.862 -268.139 290.3Z" stroke="#F7FA62"/>
<path d="M-193.514 326.182C-172.94 427.62 -64.3701 491.306 49.0769 468.295C162.524 445.284 237.699 344.329 217.124 242.891C196.549 141.454 87.9795 77.768 -25.4675 100.779C-138.914 123.79 -214.089 224.745 -193.514 326.182Z" stroke="#22D497"/>
</svg>
