<svg width="421" height="294" viewBox="0 0 421 294" fill="none" xmlns="http://www.w3.org/2000/svg">
<g clip-path="url(#clip0_792_275)">
<path d="M201.454 105.175H53.1556L25.5887 134.098V105.175H0V0H201.454V105.175Z" fill="#E5E5E5"/>
<path d="M168.419 30.8955H33.0312V36.5925H168.419V30.8955Z" fill="white"/>
<path d="M168.419 49.7393H33.0312V55.4362H168.419V49.7393Z" fill="white"/>
<path d="M168.419 68.583H33.0312V74.28H168.419V68.583Z" fill="white"/>
<path d="M25.9976 151.8C28.8095 151.8 31.089 149.653 31.089 147.005C31.089 144.356 28.8095 142.209 25.9976 142.209C23.1857 142.209 20.9062 144.356 20.9062 147.005C20.9062 149.653 23.1857 151.8 25.9976 151.8Z" fill="#E6E6E6"/>
<path d="M355.606 287.879H349.902L347.188 267.153H355.607L355.606 287.879Z" fill="#FFB7B7"/>
<path d="M357.058 293.088L338.664 293.088V292.869C338.664 291.08 339.419 289.365 340.761 288.1C342.104 286.836 343.925 286.125 345.824 286.125L357.059 286.125L357.058 293.088Z" fill="#2F2E41"/>
<path d="M300.002 287.454L294.594 285.746L299.015 265.282L306.997 267.803L300.002 287.454Z" fill="#FFB7B7"/>
<path d="M299.628 292.828L282.188 287.32L282.261 287.113C282.865 285.417 284.159 284.017 285.859 283.22C287.559 282.422 289.525 282.294 291.325 282.862L301.978 286.226L299.628 292.828Z" fill="#2F2E41"/>
<path d="M307.033 180.766L294.68 279.2L306.796 280.162C306.796 280.162 325.855 183.384 331.731 194.848C337.606 206.312 344.805 278.014 344.805 278.014H356.83C356.83 278.014 359.914 166.14 347.323 160.605L307.033 180.766Z" fill="#2F2E41"/>
<path d="M339.053 99.6722C340.219 93.4368 335.798 87.4915 329.178 86.393C322.559 85.2945 316.247 89.4588 315.08 95.6942C313.914 101.93 318.335 107.875 324.955 108.973C331.575 110.072 337.887 105.908 339.053 99.6722Z" fill="#FFB7B7"/>
<path d="M319.834 113.366L335.362 114.552C335.362 114.552 347.743 114.75 352.779 117.912C357.816 121.075 347.953 140.643 347.953 140.643C347.953 140.643 345.389 148.401 347.323 151.909C353.6 163.292 352.67 172.058 352.67 172.058C352.67 172.058 339.769 174.837 317.525 180.372C317.525 180.372 303.676 185.511 304.095 182.744C304.515 179.977 308.712 148.351 308.712 148.351V115.54L319.834 113.366Z" fill="#3F3D56"/>
<path d="M347.002 96.4403C346.381 93.1756 344.989 88.5445 341.889 85.0332C341.986 85.0338 342.084 85.0378 342.181 85.0351C343.247 85.0058 344.46 84.6893 344.9 83.7748C345.042 83.4086 345.077 83.0131 345.003 82.6296C344.928 82.246 344.746 81.8882 344.475 81.5933C343.925 81.0108 343.268 80.5271 342.535 80.1656C343.282 80.5932 344.339 80.9904 344.936 80.3881C345.09 80.2065 345.185 79.9875 345.211 79.7567C345.237 79.5259 345.192 79.293 345.083 79.0852C344.856 78.6729 344.538 78.3114 344.15 78.0253C342.893 76.9781 341.518 76.064 340.049 75.2994C338.912 74.7076 337.416 74.2323 336.395 74.9894C335.355 75.7606 335.522 77.2624 335.789 78.4835C335.207 78.1627 334.552 77.9766 333.878 77.9404C333.542 77.9313 333.212 78.0319 332.945 78.2251C332.678 78.4183 332.49 78.6923 332.413 79.0009C332.403 79.2444 332.461 79.4862 332.579 79.7027C332.698 79.9193 332.874 80.1034 333.09 80.2371C329.077 79.6155 323.95 80.3208 317.394 83.1778C317.394 83.1778 311.038 85.1734 310.715 93.0545C310.683 94.315 310.831 95.5738 311.157 96.7968C311.515 98.2255 312.789 105.234 311.261 108.067L318.915 110.636L319.003 106.317C313.054 98.2282 315.993 95.2599 318.309 90.395C318.313 90.3861 318.319 90.3784 318.327 90.3728C318.336 90.3672 318.345 90.3638 318.355 90.3631C318.366 90.3624 318.376 90.3643 318.385 90.3687C318.394 90.3731 318.401 90.3798 318.407 90.388C318.835 91.0799 320.475 93.4515 326.12 93.4515L323.939 91.3967C323.939 91.3967 333.537 95.0953 337.027 95.0953C337.027 95.0953 339.645 96.739 337.027 99.2047C334.41 101.67 328.68 105.3 331.735 109.82C334.789 114.34 334.526 115.944 334.526 115.944L341.506 112.246C341.506 112.246 345.77 104.3 346.526 101.96C347.147 100.182 347.311 98.2897 347.002 96.4403Z" fill="#2F2E41"/>
<path d="M263.117 185.529H401.987V258.03H384.347V277.968L365.345 258.03H263.117V185.529Z" fill="#22D497"/>
<path d="M379.219 206.826H285.891V210.753H379.219V206.826Z" fill="white"/>
<path d="M379.219 219.815H285.891V223.743H379.219V219.815Z" fill="white"/>
<path d="M379.219 232.806H285.891V236.733H379.219V232.806Z" fill="white"/>
<path d="M354.304 139.074L346.159 140.939L346.097 156.466L336.936 186.25C336.202 186.796 335.642 187.521 335.315 188.346C334.988 189.171 334.908 190.064 335.082 190.929C335.256 191.795 335.679 192.598 336.304 193.253C336.928 193.908 337.732 194.389 338.627 194.644C339.521 194.9 340.473 194.919 341.379 194.701C342.285 194.483 343.11 194.035 343.764 193.406C344.419 192.777 344.878 191.992 345.092 191.135C345.306 190.277 345.267 189.381 344.978 188.544L355.93 157.712L354.304 139.074Z" fill="#FFB7B7"/>
<path d="M300.094 138.747L309.865 141.377L309.927 156.904L319.088 186.687C319.822 187.233 320.382 187.958 320.709 188.783C321.036 189.608 321.116 190.502 320.942 191.367C320.768 192.232 320.345 193.036 319.72 193.691C319.095 194.346 318.292 194.827 317.397 195.082C316.503 195.337 315.551 195.357 314.645 195.139C313.739 194.92 312.914 194.472 312.26 193.844C311.605 193.215 311.146 192.429 310.932 191.572C310.718 190.715 310.757 189.819 311.046 188.981L300.094 158.149V138.747Z" fill="#FFB7B7"/>
<path d="M342.078 116.33L344.097 115.71C345.23 115.362 346.463 115.443 347.534 115.935C347.534 115.935 353.41 116.33 354.249 120.283C355.089 124.236 357.13 158.789 357.13 158.789L344.684 155.059L342.078 116.33Z" fill="#3F3D56"/>
<path d="M313.75 116.331L310.177 116.162L309.045 115.629C309.045 115.629 302.418 116.331 301.579 120.284C300.739 124.237 298.297 159.856 298.297 159.856L310.742 156.658L313.75 116.331Z" fill="#3F3D56"/>
<path d="M108.487 256.382L114.387 251.535C114.134 248.054 113.674 244.588 113.007 241.155L109.752 242.452L112.772 239.971C111.903 235.734 111.042 232.979 111.042 232.979C111.042 232.979 99.1399 242.935 92.4794 255.08L95.4012 264.133L90.9384 258.147C90.2747 259.592 89.7082 261.075 89.2422 262.587C84.598 277.847 86.1242 291.646 92.6512 293.408C99.1781 295.171 108.234 284.229 112.878 268.969C114.234 264.081 114.785 259.026 114.514 253.981L108.487 256.382Z" fill="#F1F1F1"/>
<path d="M124.114 268.247L131.824 266.97C133.519 263.867 135.026 260.676 136.34 257.412L132.841 256.938L136.788 256.284C138.369 252.234 139.144 249.457 139.144 249.457C139.144 249.457 123.492 252.184 111.125 259.338L108.658 268.511L108.123 261.213C106.762 262.127 105.463 263.121 104.235 264.188C91.8848 274.99 85.6186 287.546 90.2388 292.233C94.8591 296.919 108.616 291.962 120.966 281.16C124.808 277.635 128.055 273.577 130.591 269.125L124.114 268.247Z" fill="#F1F1F1"/>
<path d="M420.431 293.601H70.8235C70.6735 293.601 70.5296 293.545 70.4235 293.445C70.3174 293.345 70.2578 293.209 70.2578 293.068C70.2578 292.927 70.3174 292.791 70.4235 292.691C70.5296 292.591 70.6735 292.535 70.8235 292.535H420.431C420.581 292.535 420.725 292.591 420.831 292.691C420.937 292.791 420.997 292.927 420.997 293.068C420.997 293.209 420.937 293.345 420.831 293.445C420.725 293.545 420.581 293.601 420.431 293.601Z" fill="#CBCBCB"/>
</g>
<defs>
<clipPath id="clip0_792_275">
<rect width="421" height="294" fill="white"/>
</clipPath>
</defs>
</svg>
