<svg width="193" height="177" viewBox="0 0 193 177" fill="none" xmlns="http://www.w3.org/2000/svg">
<path d="M142.28 8.74422L130.989 13.9374C130.576 14.0986 130.223 14.3678 129.975 14.7115C129.728 15.0552 129.596 15.4582 129.596 15.8702V20.713C129.586 25.1154 130.986 29.4237 133.622 33.103C135.656 35.935 138.354 39.5776 142.843 41.6556H144.866C149.865 40.2396 153.593 36.5332 155.871 33.3472C158.507 29.6678 159.906 25.3596 159.897 20.9572V15.8702C159.897 15.4587 159.765 15.0562 159.518 14.7126C159.271 14.3691 158.92 14.0995 158.507 13.9374L145.646 8.9106C145.071 8.68758 142.851 8.5212 142.28 8.74422Z" fill="#E0E0E0"/>
<path d="M141.824 8.91107L128.963 13.9379C128.549 14.0991 128.197 14.3683 127.949 14.712C127.701 15.0557 127.569 15.4587 127.569 15.8707V20.7134C127.57 25.1999 129.021 29.5855 131.74 33.3153C134.459 37.0451 138.323 39.9515 142.843 41.6667C147.838 40.2507 151.567 36.5443 153.848 33.3583C156.485 29.6752 157.884 25.3635 157.874 20.9577V15.8707C157.874 15.4587 157.742 15.0557 157.495 14.712C157.247 14.3683 156.894 14.0991 156.481 13.9379L143.619 8.91107C143.335 8.80154 143.03 8.74512 142.722 8.74512C142.414 8.74512 142.108 8.80154 141.824 8.91107Z" fill="#F5F5F5"/>
<path d="M157.831 19.6436C157.849 19.7168 157.857 19.7917 157.855 19.8666C157.855 20.033 157.874 20.2454 157.886 20.5073C157.897 20.7693 157.916 21.1268 157.886 21.5233C157.855 21.9198 157.886 22.3729 157.816 22.8685C157.747 23.3641 157.727 23.9305 157.615 24.4934C157.565 24.7836 157.527 25.0845 157.461 25.3925C157.395 25.7005 157.314 26.012 157.241 26.3342C156.885 27.7318 156.387 29.0959 155.755 30.4087C155.105 31.715 154.33 32.966 153.439 34.1469C153.01 34.6779 152.613 35.2089 152.188 35.6302C151.98 35.8532 151.802 36.0798 151.59 36.278L151.003 36.848C150.636 37.202 150.262 37.5135 149.949 37.7896C149.637 38.0657 149.351 38.2817 149.116 38.4551L148.61 38.8587C148.55 38.909 148.484 38.953 148.413 38.9897C148.464 38.9309 148.523 38.8775 148.587 38.8304L149.108 38.402C149.336 38.2215 149.614 37.9949 149.915 37.694C150.216 37.3931 150.586 37.117 150.941 36.7418L151.517 36.1647C151.713 35.9665 151.903 35.7399 152.103 35.5169C152.52 35.0744 152.906 34.5611 153.327 34.0301C154.201 32.8545 154.963 31.6121 155.604 30.3167C156.23 29.0135 156.727 27.6618 157.09 26.2775L157.318 25.343C157.388 25.0385 157.43 24.7376 157.484 24.4509C157.6 23.8774 157.646 23.3358 157.704 22.8402C157.762 22.3446 157.77 21.8985 157.801 21.5021C157.831 21.1056 157.828 20.7693 157.828 20.4896C157.828 20.21 157.828 20.0153 157.828 19.8489C157.821 19.7805 157.823 19.7117 157.831 19.6436Z" fill="#E0E0E0"/>
<path d="M141.763 30.1715L134.386 24.7942L136.432 22.4331L141.381 26.0403L148.606 18.624L151.058 20.6347L141.763 30.1715Z" fill="white"/>
<path d="M176.61 35.2446H175.213V28.2744C175.213 27.4857 174.872 26.7294 174.263 26.1717C173.655 25.6141 172.831 25.3008 171.971 25.3008C171.111 25.3008 170.286 25.6141 169.678 26.1717C169.07 26.7294 168.728 27.4857 168.728 28.2744V35.2446H167.331V28.2744C167.331 27.1477 167.819 26.0672 168.688 25.2706C169.556 24.4739 170.735 24.0264 171.963 24.0264C173.192 24.0264 174.37 24.4739 175.238 25.2706C176.107 26.0672 176.595 27.1477 176.595 28.2744L176.61 35.2446Z" fill="#EBEBEB"/>
<path d="M177.031 30.5156H166.907C166.25 30.5156 165.718 31.0038 165.718 31.6059V38.4134C165.718 39.0155 166.25 39.5037 166.907 39.5037H177.031C177.688 39.5037 178.22 39.0155 178.22 38.4134V31.6059C178.22 31.0038 177.688 30.5156 177.031 30.5156Z" fill="#EBEBEB"/>
<path d="M172.928 35.2406C173.052 35.1249 173.15 34.9877 173.217 34.837C173.283 34.6864 173.316 34.5252 173.314 34.3627C173.316 34.1272 173.246 33.8958 173.112 33.6948C172.978 33.4938 172.786 33.3311 172.556 33.2251C172.327 33.1191 172.07 33.074 171.814 33.0948C171.558 33.1157 171.314 33.2017 171.109 33.3431C170.903 33.4846 170.745 33.6759 170.652 33.8954C170.559 34.1149 170.534 34.3539 170.581 34.5855C170.629 34.817 170.745 35.0319 170.919 35.2058C171.092 35.3798 171.314 35.5058 171.562 35.5699L171.268 36.7664H172.577L172.314 35.5699C172.543 35.51 172.75 35.3965 172.917 35.2406" fill="#FAFAFA"/>
<path d="M17.922 136.977C16.4228 136.117 14.7287 135.583 12.9696 135.416C12.159 135.338 11.2751 135.359 10.6266 135.809C10.5513 135.848 10.489 135.905 10.4462 135.975C10.4034 136.044 10.3817 136.122 10.3834 136.202C10.4229 136.314 10.5051 136.409 10.615 136.471C11.6665 137.159 12.9034 137.57 14.1915 137.659C15.4795 137.748 16.7697 137.512 17.922 136.977Z" fill="#E0E0E0"/>
<path d="M17.7947 136.85C16.6481 136.077 15.5774 135.213 14.5948 134.269C13.6101 133.318 12.9188 132.144 12.5914 130.867C12.5262 130.678 12.5066 130.478 12.5339 130.282C12.5613 130.085 12.6349 129.896 12.7497 129.728C15.2973 131.554 17.3006 133.919 17.7947 136.85Z" fill="#E0E0E0"/>
<path d="M17.8953 136.959C17.6604 135.681 17.6813 134.375 17.957 133.104C18.2405 131.823 19.0381 130.686 20.192 129.918C20.632 130.863 20.4429 131.953 20.1341 132.938C19.6541 134.467 18.9044 135.914 17.9146 137.221" fill="#E0E0E0"/>
<path d="M20.3964 141.069C18.896 141.292 17.508 141.936 16.4244 142.914C15.2847 143.863 14.491 145.112 14.1509 146.489C15.6408 146.404 16.9031 145.427 17.8179 144.365C18.7327 143.303 19.3619 142.103 20.3771 141.094" fill="#E0E0E0"/>
<path d="M20.9405 141.725C20.343 140.334 20.1334 138.829 20.3309 137.345C20.5284 135.861 21.1267 134.446 22.0715 133.229C22.9362 136.061 22.6158 139.247 20.9405 141.725Z" fill="#E0E0E0"/>
<path d="M24.2409 145.331C22.8537 145.254 21.4723 145.552 20.2681 146.188C19.0638 146.825 18.0897 147.771 17.4666 148.91C17.3855 149.062 17.3083 149.264 17.4241 149.395C17.4821 149.448 17.5534 149.486 17.6315 149.507C17.7096 149.528 17.7922 149.531 17.8719 149.516C19.2074 149.438 20.3886 148.701 21.3652 147.862C22.3417 147.023 23.1948 146.053 24.2717 145.328" fill="#E0E0E0"/>
<path d="M24.1368 145.14C23.4256 143.04 23.3814 140.798 24.0094 138.676C24.2603 137.844 24.6772 136.97 25.5148 136.58C25.5484 136.56 25.5863 136.545 25.6262 136.539C25.666 136.532 25.707 136.533 25.7464 136.541C25.8142 136.574 25.8654 136.63 25.8892 136.697C26.1724 137.278 26.2944 137.914 26.2444 138.549C26.1949 139.182 26.089 139.811 25.9278 140.428C25.6654 141.575 25.5418 142.807 24.8355 143.798C24.6742 144.037 24.5286 144.284 24.3993 144.538C24.2719 144.79 24.2719 144.892 24.1522 145.076" fill="#E0E0E0"/>
<path d="M32.8796 146.329C32.5857 145.15 32.5761 143.925 32.8515 142.741C33.1268 141.558 33.6805 140.443 34.4738 139.476C34.5858 139.338 34.7363 139.193 34.9254 139.207C35.2111 139.232 35.2844 139.582 35.2728 139.844C35.1544 142.168 34.3251 144.414 32.8796 146.326" fill="#E0E0E0"/>
<path d="M33.667 146.826C35.1966 147.157 36.7863 147.179 38.3264 146.892C39.8665 146.605 41.3203 146.014 42.5875 145.162C41.0949 144.473 39.388 144.282 37.7586 144.62C36.1451 144.974 34.6706 145.618 33.667 146.826Z" fill="#E0E0E0"/>
<path d="M34.3311 145.321C36.0102 142.815 39.2255 141.18 42.4371 141.027C42.0511 142.224 40.9973 143.151 39.7891 143.714C38.5506 144.224 37.2412 144.574 35.8982 144.755C35.381 144.847 34.6707 144.95 34.3542 145.321" fill="#E0E0E0"/>
<path d="M33.0454 138.018C33.5545 136.606 33.9012 135.149 34.0799 133.671C34.2593 132.183 33.9301 130.681 33.138 129.373C31.5709 132.152 31.4126 135.391 32.999 138.17" fill="#E0E0E0"/>
<path d="M38.3184 135.582C40.1519 132.53 43.8883 130.091 47.6673 129.748C46.2082 133.079 42.2324 135.653 38.3184 135.582Z" fill="#E0E0E0"/>
<path d="M37.168 136.173C39.897 136.556 42.2246 138.156 44.776 139.126C45.3119 139.361 45.905 139.464 46.4976 139.427C46.7729 139.423 47.0405 139.343 47.2643 139.196C47.4882 139.049 47.6576 138.842 47.7497 138.604C47.8418 138.366 47.8522 138.108 47.7794 137.865C47.7067 137.621 47.5544 137.404 47.3429 137.242C46.9818 136.932 46.5565 136.691 46.0923 136.534C43.3131 135.472 40.3293 135.448 37.4034 136.092" fill="#E0E0E0"/>
<path d="M35.5854 137.929C36.203 138.092 36.4153 138.386 36.9056 138.768C38.5802 140.073 40.5622 141.004 42.6956 141.487C42.9156 141.536 43.2051 141.558 43.317 141.377C43.429 141.196 43.29 141.023 43.1665 140.881C42.2426 139.884 41.0424 139.135 39.6925 138.711C38.3608 138.255 37.2066 137.706 35.6163 137.826" fill="#E0E0E0"/>
<path d="M33.8022 127.32C34.9225 128.267 36.2465 128.989 37.689 129.439C39.1316 129.889 40.6608 130.057 42.1784 129.933C42.3194 129.937 42.457 129.893 42.5644 129.809C42.7767 129.596 42.522 129.271 42.2788 129.101C39.8161 127.331 36.8323 126.623 33.81 127.331" fill="#E0E0E0"/>
<path d="M35.9175 126.608C37.4001 125.608 39.1196 124.944 40.9355 124.67C42.7515 124.395 44.6124 124.519 46.3665 125.03C44.9988 126.191 43.245 126.897 41.3871 127.033C39.5508 127.188 37.6992 127.044 35.9175 126.608Z" fill="#E0E0E0"/>
<path d="M35.0758 121.734C34.8365 119.479 34.9909 117.702 34.8211 115.436C34.8211 115.256 34.767 115.04 34.5818 114.972C34.3231 114.884 34.1108 115.171 34.0259 115.411C33.6677 116.461 33.5757 117.572 33.757 118.659C33.9383 119.746 34.388 120.781 35.072 121.684" fill="#E0E0E0"/>
<path d="M34.8984 121.982C36.5105 121.034 37.9002 119.8 38.9862 118.353C39.7891 117.345 40.4684 116.137 40.287 114.898C39.7207 114.912 39.1645 115.039 38.6572 115.27C38.1499 115.501 37.7036 115.831 37.3495 116.237C36.6485 117.053 36.1386 117.993 35.8519 118.998C35.5276 119.989 35.2999 121.008 34.9139 121.982" fill="#E0E0E0"/>
<path d="M38.9014 120.962C42.5721 119.72 45.971 117.886 48.9374 115.546C47.7408 115.103 46.3705 115.369 45.1739 115.811C42.4574 116.755 40.2131 118.58 38.8667 120.941" fill="#E0E0E0"/>
<path d="M36.0254 123.217C37.8696 123.457 39.741 123.465 41.5876 123.241C43.3903 122.965 45.0964 122.307 46.7794 121.659C46.9266 121.619 47.0528 121.531 47.1345 121.411C47.1599 121.34 47.1613 121.262 47.1386 121.19C47.1159 121.117 47.0701 121.053 47.0071 121.004C46.8768 120.911 46.725 120.845 46.5632 120.813C44.7297 120.346 42.7534 120.565 40.9507 121.121C39.2338 121.66 37.5831 122.363 36.0254 123.217Z" fill="#E0E0E0"/>
<path d="M25.4763 127.398C24.2141 125.062 24.3183 122.336 25.3875 119.929C26.1595 120.991 26.2483 122.364 26.1093 123.642C25.9704 124.92 25.5458 126.23 25.5149 127.511" fill="#E0E0E0"/>
<path d="M20.4233 125.065C18.8439 125.046 17.2774 125.33 15.8244 125.898C14.3713 126.466 13.0637 127.306 11.9854 128.365C13.5805 128.54 15.1962 128.266 16.6174 127.579C18.0243 126.894 19.3513 126.079 20.5777 125.147" fill="#E0E0E0"/>
<path d="M17.0343 124.024C15.4903 123.911 14.0119 123.737 12.5297 124.152C11.7818 124.345 11.0882 124.683 10.496 125.145C9.90379 125.606 9.42701 126.179 9.09814 126.824C10.5519 126.931 12.0103 126.678 13.321 126.091C14.6239 125.506 15.8667 124.814 17.0343 124.024Z" fill="#E0E0E0"/>
<path d="M22.0524 124.073C20.6667 123.242 19.2423 122.392 17.6289 122.045C16.0154 121.698 14.1549 121.957 13.02 123.072C14.3247 123.78 15.9112 123.858 17.4281 123.858C18.9451 123.858 20.7979 123.84 22.2261 124.304" fill="#E0E0E0"/>
<path d="M22.0602 124.141C19.6901 122.017 18.7946 118.173 19.7442 115.256C21.6143 117.883 22.4329 121.023 22.0602 124.141Z" fill="#E0E0E0"/>
<path d="M28.564 118.095C29.0117 117.139 29.336 116.14 29.722 115.17C30.0874 114.186 30.6489 113.273 31.3779 112.477C32.1165 111.669 33.1715 111.161 34.3154 111.061C33.95 112.531 33.2547 113.915 32.2738 115.126C31.2929 116.336 30.0479 117.346 28.618 118.091" fill="#E0E0E0"/>
<path d="M27.406 119.355C26.6688 118.421 25.8119 117.153 24.8083 116.456C23.8047 115.758 22.4923 115.337 21.2764 115.603C21.9105 116.622 22.7944 117.491 23.8584 118.142C24.9223 118.794 26.1369 119.209 27.406 119.355Z" fill="#E0E0E0"/>
<path d="M27.6337 118.173C27.1083 117.058 26.7199 115.894 26.4757 114.7C26.2332 113.492 26.4426 112.245 27.0702 111.16C28.371 113.415 28.7917 115.836 27.7148 118.191" fill="#E0E0E0"/>
<path d="M28.5913 111.156C29.3286 108.922 31.5596 107.262 33.9721 106.519C34.2701 106.406 34.5934 106.363 34.914 106.391C35.0742 106.406 35.2259 106.465 35.3496 106.56C35.4734 106.654 35.5636 106.78 35.6088 106.922C35.6976 107.301 35.354 107.63 35.0298 107.896C33.1468 109.372 30.9562 110.481 28.5913 111.156Z" fill="#E0E0E0"/>
<path d="M28.6182 109.341C28.7108 107.896 28.8073 106.434 29.3207 105.068C29.8341 103.701 30.8184 102.423 32.2505 101.825C32.4936 103.28 31.795 104.728 30.9496 105.981C30.1043 107.234 29.0852 108.417 28.5796 109.815" fill="#E0E0E0"/>
<path d="M28.564 110.332C27.9541 108.703 27.8923 106.632 26.827 105.213C26.082 104.222 24.897 103.546 24.2524 102.494C23.8653 103.502 23.9192 104.609 24.4029 105.581C24.8868 106.543 25.5534 107.418 26.3715 108.165C27.1435 108.937 27.8306 109.518 28.564 110.332Z" fill="#E0E0E0"/>
<path d="M28.591 158.317C28.5446 158.317 28.5022 147.449 28.4983 134.043C28.4945 120.637 28.5331 109.766 28.5794 109.766C28.6257 109.766 28.6682 120.63 28.672 134.043C28.6759 147.456 28.6373 158.317 28.591 158.317Z" fill="#E0E0E0"/>
<path d="M38.9474 125.756C38.8058 125.822 38.657 125.874 38.5035 125.912L37.2761 126.29C36.2416 126.613 34.8211 127.08 33.281 127.66C31.7408 128.241 30.3126 128.747 29.4943 129.399C29.1627 129.648 28.8985 129.964 28.7223 130.322C28.6026 130.577 28.5833 130.733 28.5679 130.733C28.5525 130.733 28.5679 130.691 28.5679 130.616C28.5875 130.509 28.6172 130.404 28.6567 130.301C28.8113 129.922 29.0659 129.584 29.3978 129.317C29.8929 128.933 30.447 128.618 31.0422 128.383C31.6984 128.099 32.4279 127.806 33.1999 127.515C34.7439 126.935 36.176 126.482 37.222 126.184C37.747 126.036 38.1716 125.926 38.4688 125.851C38.6247 125.806 38.785 125.774 38.9474 125.756Z" fill="#E0E0E0"/>
<path d="M42.3442 118.109C42.308 118.155 42.2651 118.195 42.2168 118.23L41.8308 118.559L40.4103 119.741L35.6857 123.6C33.8406 125.108 32.2464 126.545 31.1425 127.628C30.5866 128.17 30.1505 128.62 29.8532 128.931L29.5097 129.285C29.4738 129.33 29.4309 129.369 29.3823 129.402C29.4111 129.352 29.4461 129.306 29.4865 129.264C29.556 129.175 29.6602 129.044 29.8031 128.885C30.0848 128.559 30.5094 128.099 31.0537 127.547C32.4795 126.118 33.987 124.759 35.5699 123.476C37.4227 121.975 39.1057 120.623 40.3293 119.653C40.9314 119.178 41.4255 118.793 41.7845 118.506L42.1705 118.201C42.2235 118.164 42.282 118.133 42.3442 118.109Z" fill="#E0E0E0"/>
<path d="M33.7017 125.132C33.6515 125.111 34.0375 124.297 34.4235 123.263C34.8095 122.229 34.9909 121.362 35.0411 121.369C35.0011 122.035 34.8474 122.691 34.5856 123.313C34.4198 123.754 34.2278 124.186 34.0105 124.608C33.9329 124.795 33.8291 124.971 33.7017 125.132Z" fill="#E0E0E0"/>
<path d="M28.6029 131.71C28.4947 131.621 28.3988 131.52 28.3172 131.409L27.5877 130.553C26.9778 129.827 26.1325 128.825 25.1829 127.721C24.2334 126.616 23.3649 125.643 22.7318 124.931L22.0023 124.096C21.9046 123.996 21.818 123.888 21.7437 123.773C21.8563 123.858 21.9598 123.953 22.0525 124.057C22.2416 124.244 22.5118 124.524 22.8245 124.871C23.4807 125.579 24.3685 126.535 25.318 127.632C26.2676 128.729 27.0975 129.756 27.6842 130.485C27.9814 130.839 28.213 131.161 28.3713 131.374C28.4607 131.478 28.5383 131.591 28.6029 131.71Z" fill="#E0E0E0"/>
<path d="M26.3291 129.037C25.8715 128.573 25.5454 128.013 25.3796 127.405C25.199 126.872 25.1257 126.313 25.1634 125.756H25.2406C25.2301 125.823 25.2052 125.888 25.1673 125.947C25.1673 125.947 25.1673 125.873 25.1673 125.745H25.2445C25.2806 126.288 25.3815 126.826 25.5456 127.349C25.762 127.928 26.0239 128.493 26.3291 129.037Z" fill="#E0E0E0"/>
<path d="M23.3994 125.67C23.194 125.529 22.9712 125.41 22.7355 125.316C22.138 125.151 21.5088 125.105 20.8904 125.182C20.2641 125.223 19.6429 125.315 19.0337 125.454C18.7806 125.526 18.5227 125.583 18.2617 125.624C18.4871 125.497 18.7335 125.403 18.9913 125.348C19.6024 125.175 20.233 125.065 20.8711 125.022C21.5114 124.944 22.1627 125.009 22.7702 125.21C23.0317 125.292 23.2541 125.455 23.3994 125.67Z" fill="#E0E0E0"/>
<path d="M22.7046 124.835C22.7046 124.86 22.3186 124.694 21.6856 124.481C20.036 123.967 18.2707 123.845 16.5556 124.127C15.8994 124.234 15.5057 124.347 15.4941 124.322C15.5771 124.273 15.6685 124.237 15.7643 124.216C16.0168 124.135 16.2746 124.069 16.5363 124.018C17.3989 123.844 18.2844 123.787 19.165 123.848C20.044 123.911 20.9085 124.09 21.7319 124.379C21.9805 124.466 22.2229 124.568 22.4576 124.683C22.548 124.722 22.6313 124.773 22.7046 124.835Z" fill="#E0E0E0"/>
<path d="M28.5643 121.369C28.262 120.596 28.0145 119.806 27.8231 119.004C27.5738 118.215 27.3804 117.412 27.2441 116.601C27.5467 117.374 27.7955 118.163 27.9891 118.965C28.2362 119.755 28.4283 120.557 28.5643 121.369Z" fill="#E0E0E0"/>
<path d="M28.626 121.37C28.3887 120.88 28.114 120.407 27.8038 119.954C27.4563 119.524 27.0488 119.139 26.5918 118.807C26.7641 118.847 26.9239 118.923 27.0589 119.03C27.4029 119.259 27.7018 119.54 27.9428 119.862C28.3116 120.3 28.5473 120.82 28.626 121.37Z" fill="#E0E0E0"/>
<path d="M28.5913 152.521C28.5913 152.521 28.5373 152.259 28.4022 151.813C28.2129 151.164 27.9544 150.533 27.6302 149.93C26.4889 147.964 25.0775 146.14 23.4305 144.503C22.4925 143.519 21.5816 142.592 20.8096 141.703C20.1146 140.923 19.4874 140.095 18.9336 139.225C18.5611 138.638 18.2447 138.022 17.9879 137.384C17.8991 137.158 17.8374 136.981 17.8026 136.86C17.78 136.799 17.7633 136.737 17.7524 136.673C17.7524 136.673 17.8528 136.921 18.0497 137.363C18.3301 137.986 18.6604 138.59 19.0378 139.169C19.6034 140.025 20.2355 140.842 20.9292 141.615C21.7012 142.493 22.6199 143.413 23.5579 144.397C25.2169 146.044 26.6245 147.89 27.7421 149.884C28.0647 150.496 28.3145 151.138 28.4871 151.799C28.5328 151.979 28.5676 152.161 28.5913 152.344C28.5972 152.403 28.5972 152.463 28.5913 152.521Z" fill="#E0E0E0"/>
<path d="M37.9517 142.829C37.7931 142.921 37.6294 143.005 37.4615 143.081C37.0167 143.309 36.5909 143.567 36.1876 143.852C35.5902 144.276 35.0313 144.744 34.5163 145.251C33.9295 145.817 33.3274 146.475 32.7098 147.183C31.4784 148.599 30.3243 149.86 29.6218 150.862C29.2705 151.357 29.0158 151.775 28.8498 152.069C28.7705 152.225 28.6802 152.376 28.5796 152.522C28.5796 152.522 28.5796 152.476 28.6259 152.394C28.6722 152.313 28.7108 152.193 28.788 152.04C29.0071 151.615 29.2546 151.202 29.5291 150.805C30.4668 149.514 31.4836 148.273 32.5747 147.088C33.1923 146.38 33.806 145.721 34.4043 145.152C34.9308 144.647 35.5028 144.184 36.1143 143.767C36.5314 143.481 36.9758 143.23 37.4422 143.017C37.5673 142.958 37.6962 142.906 37.8281 142.861C37.9079 142.833 37.9491 142.822 37.9517 142.829Z" fill="#E0E0E0"/>
<path d="M38.1331 145.972C37.7911 146.041 37.4441 146.087 37.0948 146.11C36.2618 146.188 35.4387 146.338 34.636 146.556C33.842 146.793 33.0979 147.152 32.4358 147.618C31.9301 147.972 31.6908 148.273 31.6638 148.259C31.6368 148.245 31.7024 148.17 31.8143 148.039C31.9755 147.855 32.1566 147.685 32.3547 147.533C33.0114 147.03 33.7676 146.648 34.5819 146.407C35.3947 146.185 36.2327 146.05 37.0794 146.004C37.4288 145.964 37.7816 145.953 38.1331 145.972Z" fill="#E0E0E0"/>
<path d="M31.9687 147.909C31.9146 147.881 32.3817 147.226 32.7407 146.344C33.0996 145.463 33.1614 144.677 33.2193 144.688C33.2522 144.856 33.2522 145.029 33.2193 145.197C33.1666 145.607 33.0657 146.011 32.9182 146.401C32.7595 146.786 32.5577 147.155 32.3161 147.502C32.2263 147.655 32.1088 147.792 31.9687 147.909Z" fill="#E0E0E0"/>
<path d="M40.9817 134.383C40.9314 134.418 40.8754 134.445 40.8157 134.464L40.3294 134.666C40.1132 134.751 39.8546 134.857 39.5574 134.999C39.2601 135.14 38.9205 135.282 38.5653 135.477L38.0018 135.77C37.8049 135.877 37.6158 135.997 37.4035 136.124C36.9866 136.355 36.5697 136.641 36.122 136.932C35.1759 137.59 34.2832 138.311 33.4508 139.087C32.6341 139.873 31.8819 140.713 31.2005 141.601C30.8955 142.022 30.5983 142.415 30.359 142.804C30.2393 142.996 30.1119 143.18 30.0039 143.364L29.7221 143.895C29.5214 144.228 29.3785 144.546 29.2357 144.819C29.0929 145.091 28.9848 145.332 28.8999 145.527C28.815 145.721 28.7494 145.859 28.6953 145.98C28.6741 146.034 28.647 146.086 28.6143 146.136C28.6216 146.078 28.6385 146.022 28.6644 145.969L28.8381 145.505C28.9153 145.304 29.0118 145.056 29.1469 144.78C29.282 144.504 29.4171 144.178 29.614 143.842C29.7066 143.668 29.807 143.488 29.9074 143.304C30.0077 143.12 30.1351 142.95 30.2586 142.737C30.4941 142.341 30.7874 141.944 31.0885 141.519C32.4434 139.703 34.1229 138.108 36.0563 136.804C36.508 136.514 36.9326 136.231 37.3533 136.004C37.5656 135.887 37.7625 135.763 37.9593 135.65L38.5345 135.36C38.8973 135.172 39.2447 135.034 39.5419 134.903C39.7932 134.788 40.0509 134.685 40.3139 134.595L40.8157 134.418C40.8696 134.401 40.9252 134.39 40.9817 134.383Z" fill="#E0E0E0"/>
<path d="M33.582 138.935C33.6432 138.716 33.7784 138.522 33.968 138.379C34.4247 138.014 35.0072 137.81 35.6124 137.802C36.204 137.799 36.7904 137.904 37.3378 138.11C37.569 138.178 37.7886 138.276 37.9902 138.4C37.7539 138.359 37.5225 138.298 37.2992 138.216C36.7579 138.044 36.189 137.957 35.6162 137.958C35.0484 137.969 34.4993 138.146 34.0491 138.464C33.88 138.609 33.7239 138.767 33.582 138.935Z" fill="#E0E0E0"/>
<path d="M32.4668 139.982C32.6865 139.539 32.8435 139.071 32.9339 138.591C32.9651 138.105 32.9301 137.618 32.8296 137.14C32.929 137.259 32.9952 137.399 33.0226 137.547C33.2223 138.247 33.1272 138.99 32.7563 139.628C32.6096 139.869 32.4822 139.993 32.4668 139.982Z" fill="#E0E0E0"/>
<path d="M20.4043 154.079C20.6591 158.235 22.0255 162.458 24.1253 166.731H33.2542C35.2576 162.501 36.5275 158.285 36.7514 154.079H20.4043Z" fill="#E0E0E0"/>
<path d="M35.2727 160.802C35.2727 160.844 32.2658 160.88 28.5602 160.88C24.8546 160.88 21.8477 160.844 21.8477 160.802C21.8477 160.759 24.8507 160.717 28.5641 160.717C32.2774 160.717 35.2727 160.759 35.2727 160.802Z" fill="#FAFAFA"/>
<path d="M35.0684 162.305C35.0684 162.348 32.2506 162.383 28.7766 162.383C25.3026 162.383 22.481 162.348 22.481 162.305C22.481 162.263 25.2988 162.228 28.7766 162.228C32.2545 162.228 35.0684 162.263 35.0684 162.305Z" fill="#FAFAFA"/>
<path d="M24.2719 156.822C24.3852 158.105 24.3852 159.394 24.2719 160.677C24.1587 159.394 24.1587 158.105 24.2719 156.822Z" fill="#FAFAFA"/>
<path d="M29.1626 156.822C29.2758 158.151 29.2758 159.486 29.1626 160.815C29.0493 159.486 29.0493 158.151 29.1626 156.822Z" fill="#FAFAFA"/>
<path d="M33.7558 156.772C33.8691 158.129 33.8691 159.491 33.7558 160.847C33.6426 159.491 33.6426 158.129 33.7558 156.772Z" fill="#FAFAFA"/>
<path d="M36.4617 156.822C36.4617 156.865 32.9375 156.9 28.5912 156.9C24.2448 156.9 20.7129 156.865 20.7129 156.822C20.7129 156.78 24.2409 156.744 28.5912 156.744C32.9414 156.744 36.4617 156.762 36.4617 156.822Z" fill="#FAFAFA"/>
<path d="M178.097 118.07C178.932 117.732 179.641 117.176 180.136 116.472C180.63 115.768 180.889 114.947 180.88 114.109C180.88 111.744 178.95 109.819 176.522 109.812C174.094 109.804 172.133 111.709 172.125 114.06C172.108 114.904 172.363 115.734 172.859 116.445C173.355 117.156 174.07 117.717 174.912 118.056C168.177 118.987 168.482 125.699 168.482 125.699L184.412 125.766C184.412 125.766 184.775 118.994 178.097 118.07Z" fill="#EBEBEB"/>
<path d="M106.486 20.4652C107.073 20.3596 107.613 20.0999 108.042 19.7179C108.471 19.3358 108.77 18.8477 108.902 18.3129C109.012 17.9697 109.045 17.6096 108.998 17.2546C108.951 16.8995 108.826 16.5569 108.63 16.2477C108.434 15.9384 108.171 15.6691 107.858 15.456C107.545 15.2429 107.187 15.0905 106.808 15.0082C106.428 14.9259 106.034 14.9153 105.65 14.9772C105.266 15.039 104.9 15.1719 104.573 15.3679C104.247 15.5638 103.968 15.8186 103.752 16.1168C103.537 16.415 103.39 16.7503 103.321 17.1022C103.172 17.639 103.201 18.204 103.403 18.7258C103.605 19.2477 103.971 19.7027 104.456 20.0334C100.005 19.7112 99.1211 24.0371 99.1211 24.0371L109.273 26.2425C109.273 26.2425 110.601 21.9485 106.486 20.4652Z" fill="#EBEBEB"/>
<path d="M178.533 56.5024C179.02 56.2232 179.407 55.8191 179.645 55.3402C179.884 54.8614 179.964 54.3288 179.876 53.8084C179.847 53.464 179.742 53.1287 179.566 52.8231C179.39 52.5176 179.148 52.2484 178.854 52.0321C178.56 51.8159 178.221 51.6571 177.858 51.5657C177.494 51.4743 177.115 51.4521 176.742 51.5006C176.369 51.5491 176.01 51.6672 175.689 51.8476C175.368 52.028 175.09 52.2669 174.874 52.5495C174.657 52.8321 174.506 53.1525 174.43 53.4908C174.353 53.8291 174.353 54.1782 174.43 54.5164C174.501 55.0432 174.741 55.5388 175.12 55.9403C175.498 56.3417 175.998 56.631 176.557 56.7714C172.461 57.9078 173.307 62.0567 173.307 62.0567L183.219 60.7858C183.219 60.7858 182.775 56.5272 178.533 56.5024Z" fill="#F5F5F5"/>
<path d="M19.4852 57.7874L14.1313 53.8828L15.6136 52.1694L19.2072 54.7855L24.4491 49.4082L26.2286 50.8667L19.4852 57.7874Z" fill="#F5F5F5"/>
<path d="M181.675 166.855C181.675 166.908 143.017 166.947 95.3459 166.947C47.6749 166.947 9.00928 166.908 9.00928 166.855C9.00928 166.802 47.6556 166.763 95.3459 166.763C143.036 166.763 181.675 166.805 181.675 166.855Z" fill="#263238"/>
<path d="M26.7883 63.44L14.9496 68.888C14.5202 69.0596 14.1549 69.3428 13.899 69.7027C13.6431 70.0625 13.5078 70.4833 13.5099 70.9129V75.9928C13.4963 80.6136 14.9633 85.1362 17.7288 88.9987C19.8634 91.9794 22.6928 95.7885 27.3981 97.9656H29.5211C34.763 96.5 38.6732 92.5954 41.0625 89.2536C43.8292 85.3914 45.2976 80.8688 45.2854 76.2477V70.9129C45.2848 70.4815 45.1462 70.0597 44.8869 69.6998C44.6275 69.3399 44.2588 69.0577 43.8263 68.888L30.3202 63.617C29.7219 63.3833 27.4059 63.2063 26.7883 63.44Z" fill="#FF7F5C"/>
<path opacity="0.3" d="M26.7883 63.44L14.9496 68.888C14.5202 69.0596 14.1549 69.3428 13.899 69.7027C13.6431 70.0625 13.5078 70.4833 13.5099 70.9129V75.9928C13.4963 80.6136 14.9633 85.1362 17.7288 88.9987C19.8634 91.9794 22.6928 95.7885 27.3981 97.9656H29.5211C34.763 96.5 38.6732 92.5954 41.0625 89.2536C43.8292 85.3914 45.2976 80.8688 45.2854 76.2477V70.9129C45.2848 70.4815 45.1462 70.0597 44.8869 69.6998C44.6275 69.3399 44.2588 69.0577 43.8263 68.888L30.3202 63.617C29.7219 63.3833 27.4059 63.2063 26.7883 63.44Z" fill="black"/>
<path d="M26.3135 63.6165L12.8228 68.8875C12.3904 69.0572 12.0216 69.3394 11.7623 69.6993C11.5029 70.0593 11.3644 70.481 11.3638 70.9124V75.9923C11.3641 80.6969 12.8859 85.2957 15.7366 89.2069C18.5874 93.1181 22.639 96.166 27.3789 97.9651C32.6169 96.4995 36.5271 92.5949 38.9203 89.2532C41.687 85.3909 43.1554 80.8683 43.1431 76.2472V70.9124C43.1429 70.4814 43.0049 70.0599 42.7463 69.7001C42.4876 69.3402 42.1197 69.0577 41.6879 68.8875L28.1779 63.6165C27.8828 63.5029 27.5659 63.4443 27.2457 63.4443C26.9256 63.4443 26.6087 63.5029 26.3135 63.6165Z" fill="#FF7F5C"/>
<path opacity="0.3" d="M30.4546 86.6575C35.0081 85.0377 37.2676 80.3394 35.5015 76.1634C33.7353 71.9874 28.6122 69.9152 24.0587 71.5349C19.5053 73.1547 17.2457 77.8531 19.0119 82.0291C20.7781 86.205 25.9012 88.2773 30.4546 86.6575Z" fill="black"/>
<path d="M27.2514 79.5466C29.2788 79.5466 30.9223 78.0393 30.9223 76.18C30.9223 74.3207 29.2788 72.8135 27.2514 72.8135C25.2241 72.8135 23.5806 74.3207 23.5806 76.18C23.5806 78.0393 25.2241 79.5466 27.2514 79.5466Z" fill="white"/>
<path d="M20.5508 84.3824C21.1411 83.2497 22.0728 82.2957 23.2357 81.6332C24.3986 80.9707 25.744 80.6275 27.1128 80.6441C28.5164 80.6443 29.894 80.9917 31.1004 81.6496C32.3069 82.3074 33.2976 83.2515 33.9681 84.3824C33.9681 84.3824 31.8027 87.3206 27.0201 87.2144C25.7807 87.2098 24.5577 86.9534 23.4391 86.4638C22.3205 85.9741 21.3341 85.2633 20.5508 84.3824Z" fill="white"/>
<path d="M36.0948 79.0969C36.0904 79.0533 36.0904 79.0095 36.0948 78.9659C36.0948 78.8704 36.0948 78.7429 36.06 78.5836C36.06 78.4987 36.06 78.4031 36.06 78.3004C36.06 78.1978 36.0214 78.0845 36.0021 77.9464C35.9619 77.6654 35.9 77.3875 35.8169 77.1145C35.607 76.3585 35.2752 75.6354 34.8326 74.9693C34.2519 74.0852 33.492 73.3113 32.5938 72.6895C31.5087 71.9327 30.2445 71.421 28.9036 71.1956C27.3642 70.9358 25.777 71.058 24.3063 71.5496C23.9084 71.6763 23.5213 71.8302 23.1483 72.0098C22.7754 72.1972 22.4169 72.4078 22.0753 72.64C21.7278 72.8797 21.3965 73.1386 21.0832 73.4152C20.7762 73.7072 20.4899 74.017 20.2263 74.3427C19.6859 75.0139 19.2651 75.7595 18.9795 76.5517C18.3773 78.1939 18.3773 79.9716 18.9795 81.6139C19.2634 82.4067 19.6844 83.1525 20.2263 83.8228C20.4899 84.1497 20.7762 84.4606 21.0832 84.7538C21.3955 85.0303 21.7269 85.2881 22.0753 85.5256C22.7454 85.9943 23.4918 86.3634 24.287 86.6194C25.7577 87.1111 27.3449 87.2333 28.8843 86.9734C30.1069 86.7623 31.2671 86.3167 32.2888 85.6658C33.3106 85.0148 34.1708 84.1733 34.8133 83.1962C35.251 82.5345 35.5776 81.8161 35.7821 81.0652C35.8649 80.7909 35.9268 80.5118 35.9674 80.2297C35.9674 80.1094 36.0137 79.9961 36.0253 79.8757C36.0369 79.7554 36.0253 79.6775 36.0253 79.5925L36.06 79.2067C36.0561 79.1631 36.0561 79.1193 36.06 79.0757C36.0642 79.1193 36.0642 79.1631 36.06 79.2067C36.06 79.3058 36.06 79.4332 36.06 79.5961C36.06 79.681 36.06 79.7766 36.06 79.8793C36.06 79.9819 36.0292 80.0987 36.0099 80.2333C35.979 80.5191 35.9222 80.8021 35.84 81.0793C35.6442 81.8462 35.3199 82.5806 34.8789 83.2564C33.8299 84.8987 32.1868 86.1522 30.2348 86.7989C28.2829 87.4456 26.1457 87.4447 24.1944 86.7964C23.7971 86.6654 23.4101 86.5093 23.0364 86.3291C22.6564 86.1331 22.2926 85.9119 21.9479 85.6672C21.5888 85.4258 21.2484 85.162 20.9288 84.8777C20.6216 84.5834 20.3353 84.2713 20.0719 83.9432C19.5162 83.2578 19.0836 82.4953 18.7904 81.6847C18.4973 80.8479 18.3424 79.9757 18.3311 79.0969C18.3418 78.2178 18.498 77.3453 18.7943 76.5092C19.0846 75.6981 19.516 74.9354 20.0719 74.2507C20.3433 73.9178 20.6372 73.6009 20.952 73.3019C21.2704 73.0179 21.6095 72.7541 21.9672 72.5125C22.3094 72.273 22.6693 72.0554 23.0441 71.8612C23.4178 71.6799 23.8047 71.5225 24.2021 71.3903C25.7032 70.8915 27.3222 70.7693 28.892 71.0363C30.1372 71.2559 31.3169 71.7169 32.352 72.3884C33.3872 73.06 34.254 73.9266 34.8943 74.9303C35.3355 75.6074 35.6597 76.343 35.8555 77.111C35.9376 77.387 35.9944 77.6688 36.0253 77.9535C36.0253 78.0774 36.0678 78.1907 36.0755 78.3075V78.5942C36.0755 78.7571 36.0755 78.8845 36.0755 78.9801C36.0854 79.0185 36.0919 79.0576 36.0948 79.0969Z" fill="#263238"/>
<path d="M43.0971 74.8711C43.1151 74.9491 43.1241 75.0286 43.1241 75.1083C43.1241 75.2782 43.1241 75.5012 43.155 75.7809C43.1859 76.0605 43.1859 76.4287 43.155 76.8429C43.155 77.0517 43.155 77.2712 43.155 77.5084C43.155 77.7456 43.155 77.9934 43.1048 78.2518C43.0507 78.7722 43.0122 79.3457 42.8925 79.9545C42.8423 80.259 42.7998 80.574 42.7304 80.8962C42.6609 81.2183 42.576 81.5475 42.4988 81.8874C42.1276 83.3508 41.6107 84.7798 40.9548 86.1566C40.2769 87.5264 39.4669 88.8378 38.5346 90.0754C38.0868 90.6312 37.6738 91.1693 37.226 91.633C37.0099 91.8666 36.8091 92.1038 36.5968 92.3127L35.9831 92.9074C35.5971 93.3003 35.2111 93.6154 34.8791 93.8951C34.6014 94.1455 34.3089 94.3819 34.0029 94.6031L33.4316 95.0279C33.369 95.0794 33.3004 95.1245 33.2271 95.1624C33.2819 95.1031 33.3427 95.0486 33.4085 94.9995L33.9527 94.55C34.1959 94.3588 34.4854 94.1216 34.8019 93.842C35.1185 93.5623 35.5044 93.2331 35.8789 92.8401L36.481 92.2383C36.6895 92.0295 36.867 91.7923 37.0986 91.5587C37.5348 91.0949 37.9401 90.5568 38.384 89.9975C39.3002 88.7651 40.0984 87.4622 40.7695 86.1035C41.4218 84.7328 41.9385 83.311 42.3135 81.8555L42.5528 80.8714C42.6223 80.5528 42.6686 80.2377 42.7265 79.9368C42.85 79.335 42.8964 78.7651 42.9581 78.2483C42.9929 77.9898 43.016 77.742 43.0237 77.5084L43.0585 76.8464C43.0932 76.4322 43.0855 76.0747 43.0855 75.7844C43.0855 75.4941 43.0855 75.2853 43.0855 75.1118C43.0827 75.0314 43.0866 74.951 43.0971 74.8711Z" fill="#263238"/>
<path d="M136.957 166.855H45.683C45.085 166.845 44.4948 166.728 43.9463 166.51C43.3977 166.291 42.9015 165.976 42.486 165.581C42.0705 165.187 41.7439 164.721 41.5248 164.21C41.3057 163.7 41.1985 163.155 41.2092 162.607V34.664C41.1985 34.1156 41.3057 33.5706 41.5248 33.0603C41.7439 32.5499 42.0705 32.0841 42.486 31.6896C42.9015 31.2951 43.3977 30.9795 43.9463 30.761C44.4948 30.5425 45.085 30.4252 45.683 30.416H136.957C137.554 30.4252 138.144 30.5425 138.693 30.7611C139.241 30.9796 139.737 31.2952 140.152 31.6898C140.567 32.0844 140.894 32.5502 141.112 33.0605C141.331 33.5709 141.438 34.1158 141.426 34.664V162.614C141.437 163.161 141.329 163.706 141.11 164.215C140.891 164.725 140.564 165.19 140.149 165.583C139.734 165.977 139.239 166.292 138.691 166.51C138.143 166.728 137.554 166.845 136.957 166.855Z" fill="#263238"/>
<path d="M93.0685 160.649C93.0831 161.422 92.8465 162.181 92.3889 162.831C91.9312 163.48 91.2733 163.989 90.4988 164.294C89.7244 164.599 88.8685 164.686 88.04 164.544C87.2116 164.401 86.4482 164.036 85.847 163.494C85.2459 162.952 84.8341 162.258 84.6643 161.501C84.4944 160.744 84.5741 159.958 84.8932 159.242C85.2123 158.527 85.7564 157.915 86.4561 157.484C87.1559 157.053 87.9796 156.823 88.8225 156.822C89.9388 156.814 91.013 157.212 91.8092 157.93C92.6054 158.647 93.0583 159.625 93.0685 160.649Z" fill="#455A64"/>
<path d="M101.588 37.631H81.1296C80.939 37.6282 80.7508 37.591 80.5759 37.5215C80.401 37.4521 80.2427 37.3517 80.11 37.2261C79.9774 37.1006 79.873 36.9522 79.8029 36.7897C79.7328 36.6271 79.6983 36.4535 79.7014 36.2787C79.6952 35.9253 79.842 35.5841 80.1098 35.3299C80.3775 35.0758 80.7443 34.9294 81.1296 34.9229H101.588C101.973 34.9294 102.34 35.0758 102.607 35.3299C102.875 35.5841 103.022 35.9253 103.016 36.2787C103.019 36.4535 102.984 36.6271 102.914 36.7897C102.844 36.9522 102.74 37.1006 102.607 37.2261C102.474 37.3517 102.316 37.4521 102.141 37.5215C101.966 37.591 101.778 37.6282 101.588 37.631Z" fill="#455A64"/>
<path d="M138.184 40.1543H44.2856V154.093H138.184V40.1543Z" fill="white"/>
<path d="M138.184 40.1543H134.177V154.093H138.184V40.1543Z" fill="#F5F5F5"/>
<path d="M136.177 81.0909C135.846 81.09 135.529 80.9687 135.295 80.7537C135.061 80.5387 134.93 80.2475 134.93 79.9439V54.7427C134.93 54.4391 135.061 54.1479 135.295 53.9329C135.529 53.7179 135.846 53.5966 136.177 53.5957C136.509 53.5957 136.827 53.7165 137.061 53.9316C137.296 54.1467 137.428 54.4385 137.428 54.7427V79.9439C137.428 80.2481 137.296 80.5399 137.061 80.755C136.827 80.9701 136.509 81.0909 136.177 81.0909Z" fill="#E0E0E0"/>
<path d="M125.936 66.0849H56.7032C56.1749 66.0849 55.6683 65.8925 55.2948 65.5499C54.9213 65.2073 54.7114 64.7427 54.7114 64.2583C54.7114 63.7738 54.9213 63.3092 55.2948 62.9666C55.6683 62.6241 56.1749 62.4316 56.7032 62.4316H125.936C126.464 62.4316 126.971 62.6241 127.345 62.9666C127.718 63.3092 127.928 63.7738 127.928 64.2583C127.928 64.7427 127.718 65.2073 127.345 65.5499C126.971 65.8925 126.464 66.0849 125.936 66.0849Z" fill="#E0E0E0"/>
<path d="M115.286 52.7461H71.7339C71.2057 52.7461 70.6991 52.5536 70.3256 52.211C69.952 51.8685 69.7422 51.4039 69.7422 50.9194C69.7422 50.435 69.952 49.9703 70.3256 49.6278C70.6991 49.2852 71.2057 49.0928 71.7339 49.0928H115.286C115.815 49.0928 116.321 49.2852 116.695 49.6278C117.068 49.9703 117.278 50.435 117.278 50.9194C117.278 51.4039 117.068 51.8685 116.695 52.211C116.321 52.5536 115.815 52.7461 115.286 52.7461Z" fill="#FF7F5C"/>
<path d="M116.105 73.4375H66.5347C66.0065 73.4375 65.4999 73.245 65.1263 72.9024C64.7528 72.5599 64.543 72.0953 64.543 71.6108C64.543 71.1264 64.7528 70.6617 65.1263 70.3192C65.4999 69.9766 66.0065 69.7842 66.5347 69.7842H116.105C116.366 69.7842 116.625 69.8314 116.867 69.9232C117.109 70.015 117.328 70.1496 117.513 70.3192C117.698 70.4888 117.845 70.6902 117.945 70.9118C118.045 71.1334 118.097 71.3709 118.097 71.6108C118.097 71.8507 118.045 72.0882 117.945 72.3098C117.845 72.5315 117.698 72.7328 117.513 72.9024C117.328 73.0721 117.109 73.2066 116.867 73.2984C116.625 73.3902 116.366 73.4375 116.105 73.4375Z" fill="#E0E0E0"/>
<path d="M93.7247 105.492H55.584C55.0558 105.492 54.5492 105.3 54.1757 104.957C53.8021 104.615 53.5923 104.15 53.5923 103.666C53.5923 103.426 53.6438 103.188 53.7439 102.966C53.844 102.745 53.9907 102.543 54.1757 102.374C54.3606 102.204 54.5802 102.07 54.8218 101.978C55.0635 101.886 55.3225 101.839 55.584 101.839H93.7247C93.9863 101.839 94.2453 101.886 94.4869 101.978C94.7286 102.07 94.9481 102.204 95.1331 102.374C95.318 102.543 95.4648 102.745 95.5649 102.966C95.665 103.188 95.7165 103.426 95.7165 103.666C95.7165 104.15 95.5066 104.615 95.1331 104.957C94.7596 105.3 94.253 105.492 93.7247 105.492Z" fill="#E0E0E0"/>
<path d="M124.817 97.8353H55.584C55.0558 97.8353 54.5492 97.6428 54.1757 97.3003C53.8021 96.9577 53.5923 96.4931 53.5923 96.0086C53.5923 95.7689 53.6438 95.5316 53.744 95.3102C53.8441 95.0887 53.9909 94.8876 54.1759 94.7183C54.3609 94.5489 54.5805 94.4147 54.8221 94.3233C55.0638 94.2319 55.3227 94.1851 55.584 94.1856H124.817C125.078 94.1851 125.337 94.2319 125.579 94.3233C125.821 94.4147 126.04 94.5489 126.225 94.7183C126.41 94.8876 126.557 95.0887 126.657 95.3102C126.757 95.5316 126.809 95.7689 126.809 96.0086C126.809 96.2485 126.757 96.4861 126.657 96.7077C126.557 96.9293 126.41 97.1307 126.225 97.3003C126.04 97.4699 125.821 97.6044 125.579 97.6962C125.338 97.788 125.079 97.8353 124.817 97.8353Z" fill="#E0E0E0"/>
<path d="M124.817 118.82H64.2188C63.1188 118.82 62.2271 119.638 62.2271 120.647C62.2271 121.656 63.1188 122.474 64.2188 122.474H124.817C125.917 122.474 126.809 121.656 126.809 120.647C126.809 119.638 125.917 118.82 124.817 118.82Z" fill="#E0E0E0"/>
<path d="M124.817 130.272H55.584C55.0558 130.272 54.5492 130.08 54.1757 129.737C53.8021 129.395 53.5923 128.93 53.5923 128.446C53.5943 127.962 53.8051 127.5 54.1784 127.158C54.5517 126.817 55.0571 126.626 55.584 126.626H124.817C125.079 126.626 125.338 126.673 125.579 126.765C125.821 126.857 126.04 126.991 126.225 127.161C126.41 127.331 126.557 127.532 126.657 127.754C126.757 127.975 126.809 128.213 126.809 128.453C126.807 128.936 126.596 129.399 126.223 129.74C125.849 130.081 125.344 130.272 124.817 130.272Z" fill="#E0E0E0"/>
<path d="M124.817 138.209H55.584C55.0558 138.209 54.5492 138.016 54.1757 137.674C53.8021 137.331 53.5923 136.867 53.5923 136.382C53.5923 135.898 53.8021 135.433 54.1757 135.091C54.5492 134.748 55.0558 134.556 55.584 134.556H124.817C125.079 134.556 125.338 134.603 125.579 134.695C125.821 134.786 126.04 134.921 126.225 135.091C126.41 135.26 126.557 135.462 126.657 135.683C126.757 135.905 126.809 136.142 126.809 136.382C126.809 136.867 126.599 137.331 126.225 137.674C125.852 138.016 125.345 138.209 124.817 138.209Z" fill="#E0E0E0"/>
<path d="M58.699 120.647C58.699 121.023 58.5775 121.39 58.35 121.702C58.1225 122.014 57.7991 122.257 57.4209 122.401C57.0426 122.544 56.6264 122.582 56.2249 122.508C55.8235 122.435 55.4549 122.254 55.1657 121.988C54.8765 121.722 54.6797 121.384 54.6003 121.015C54.5209 120.647 54.5625 120.266 54.7196 119.919C54.8768 119.572 55.1426 119.276 55.4834 119.068C55.8241 118.86 56.2245 118.749 56.6339 118.75C57.1819 118.751 57.7072 118.951 58.0943 119.307C58.4815 119.663 58.699 120.145 58.699 120.647Z" fill="#FF7F5C"/>
<path d="M124.817 90.7021H64.2149C63.6867 90.7021 63.18 90.5097 62.8065 90.1671C62.433 89.8245 62.2231 89.3599 62.2231 88.8755C62.2231 88.391 62.433 87.9264 62.8065 87.5838C63.18 87.2413 63.6867 87.0488 64.2149 87.0488H124.817C125.078 87.0488 125.337 87.0961 125.579 87.1879C125.821 87.2797 126.04 87.4142 126.225 87.5838C126.41 87.7535 126.557 87.9548 126.657 88.1764C126.757 88.3981 126.809 88.6356 126.809 88.8755C126.809 89.1153 126.757 89.3529 126.657 89.5745C126.557 89.7961 126.41 89.9975 126.225 90.1671C126.04 90.3367 125.821 90.4713 125.579 90.5631C125.337 90.6549 125.078 90.7021 124.817 90.7021Z" fill="#E0E0E0"/>
<path d="M56.6339 90.7734C57.7766 90.7734 58.7029 89.9239 58.7029 88.876C58.7029 87.828 57.7766 86.9785 56.6339 86.9785C55.4912 86.9785 54.5649 87.828 54.5649 88.876C54.5649 89.9239 55.4912 90.7734 56.6339 90.7734Z" fill="#FF7F5C"/>
<path d="M122.883 149.824H107.346C106.505 149.824 105.698 149.517 105.103 148.971C104.508 148.426 104.173 147.686 104.173 146.914C104.173 146.142 104.508 145.402 105.103 144.856C105.698 144.31 106.505 144.004 107.346 144.004H122.883C123.724 144.004 124.531 144.31 125.126 144.856C125.721 145.402 126.056 146.142 126.056 146.914C126.056 147.686 125.721 148.426 125.126 148.971C124.531 149.517 123.724 149.824 122.883 149.824Z" fill="#FF7F5C"/>
<path d="M42.8459 12.5137L26.7419 19.9229C26.1527 20.1526 25.65 20.5362 25.2966 21.0259C24.9431 21.5156 24.7545 22.0898 24.754 22.677V29.5871C24.735 35.8759 26.7324 42.0311 30.4977 47.2871C33.4004 51.3298 37.245 56.5123 43.6487 59.4718H46.536C53.6616 57.4787 58.9807 52.1652 62.2346 47.6234C66 42.3674 67.9974 36.2122 67.9783 29.9234V22.677C67.9792 22.0913 67.7928 21.5183 67.4422 21.0288C67.0916 20.5393 66.5923 20.1548 66.0059 19.9229L47.6477 12.7438C46.8294 12.4358 43.6642 12.1951 42.8459 12.5137Z" fill="#FF7F5C"/>
<path opacity="0.3" d="M42.8459 12.5137L26.7419 19.9229C26.1527 20.1526 25.65 20.5362 25.2966 21.0259C24.9431 21.5156 24.7545 22.0898 24.754 22.677V29.5871C24.735 35.8759 26.7324 42.0311 30.4977 47.2871C33.4004 51.3298 37.245 56.5123 43.6487 59.4718H46.536C53.6616 57.4787 58.9807 52.1652 62.2346 47.6234C66 42.3674 67.9974 36.2122 67.9783 29.9234V22.677C67.9792 22.0913 67.7928 21.5183 67.4422 21.0288C67.0916 20.5393 66.5923 20.1548 66.0059 19.9229L47.6477 12.7438C46.8294 12.4358 43.6642 12.1951 42.8459 12.5137Z" fill="black"/>
<path d="M42.1973 12.7436L23.8507 19.9228C23.2619 20.1527 22.7598 20.5364 22.407 21.0261C22.0542 21.5158 21.8663 22.0899 21.8667 22.6769V29.587C21.8676 35.9854 23.9376 42.2399 27.8148 47.5594C31.692 52.8789 37.2023 57.0244 43.6487 59.4716C50.7742 57.4786 56.0933 52.1651 59.3434 47.6233C63.1105 42.368 65.108 36.2123 65.0871 29.9233V22.6769C65.0875 22.0899 64.8996 21.5158 64.5468 21.0261C64.194 20.5364 63.6919 20.1527 63.1031 19.9228L44.7758 12.7436C44.3684 12.5835 43.9298 12.501 43.4866 12.501C43.0433 12.501 42.6047 12.5835 42.1973 12.7436Z" fill="#FF7F5C"/>
<path d="M65.0292 28.0615C65.0339 28.0885 65.0339 28.116 65.0292 28.1429C65.0292 28.2067 65.0292 28.2845 65.0292 28.3801C65.0292 28.6067 65.0485 28.9111 65.0639 29.297C65.0793 29.6828 65.1025 30.1784 65.0639 30.7448C65.0639 31.028 65.0639 31.3289 65.033 31.6475C65.033 31.8104 65.033 31.9732 65.033 32.1431C65.033 32.3131 64.9983 32.4971 64.979 32.6635C64.9018 33.3715 64.8516 34.1503 64.6895 34.9751C64.6161 35.3858 64.5582 35.8177 64.4656 36.2531C64.373 36.6885 64.2572 37.1381 64.1491 37.5983C63.6393 39.5881 62.9299 41.5304 62.0299 43.4003C61.1103 45.2618 60.0124 47.0447 58.7489 48.728C58.1391 49.4856 57.5909 50.2184 56.9733 50.852C56.6761 51.1706 56.4059 51.4928 56.1164 51.776L55.2827 52.5902C54.7654 53.1212 54.2327 53.5424 53.7888 53.9354C53.5611 54.1265 53.3565 54.3106 53.1597 54.4699L52.6193 54.8699L51.8473 55.4505L51.6427 55.5992C51.5964 55.631 51.5693 55.6452 51.5693 55.6417C51.5693 55.6381 51.5693 55.6204 51.6272 55.5815L51.8202 55.4222L52.5652 54.8168L53.1095 54.3814C53.3063 54.2221 53.4955 54.0274 53.7271 53.8363C54.1633 53.4398 54.6844 53.015 55.1939 52.4804L56.0161 51.6592C56.3017 51.376 56.568 51.0538 56.8575 50.7352C57.4558 50.1051 58.0155 49.3723 58.61 48.6112C59.861 46.9314 60.9498 45.1547 61.864 43.3012C62.7561 41.4407 63.4653 39.5108 63.9831 37.5346C64.095 37.0779 64.1993 36.6319 64.3073 36.2C64.4154 35.7681 64.4617 35.3362 64.5389 34.9256C64.7088 34.1043 64.7667 33.329 64.8516 32.6246C64.8748 32.4511 64.8941 32.2706 64.9134 32.1113C64.9327 31.952 64.9134 31.7785 64.9365 31.6192C64.952 31.3006 64.9674 30.9997 64.9828 30.7165C65.0253 30.1537 65.0137 29.6545 65.0137 29.2722V28.3837V28.1429C65.013 28.1151 65.0182 28.0875 65.0292 28.0615Z" fill="#263238"/>
<path d="M50.7436 37.3472H48.7866V27.5803C48.7521 26.4959 48.2581 25.4664 47.4095 24.7105C46.5609 23.9545 45.4244 23.5317 44.2414 23.5317C43.0584 23.5317 41.922 23.9545 41.0733 24.7105C40.2247 25.4664 39.7307 26.4959 39.6963 27.5803V37.3472H37.7393V27.5803C37.7806 26.024 38.4838 24.5441 39.6987 23.4568C40.9136 22.3694 42.5439 21.7607 44.2414 21.7607C45.939 21.7607 47.5693 22.3694 48.7842 23.4568C49.999 24.5441 50.7022 26.024 50.7436 27.5803V37.3472Z" fill="#F5F5F5"/>
<path d="M50.7627 30.7197H37.7236C36.485 30.7197 35.481 31.6406 35.481 32.7765V41.2583C35.481 42.3942 36.485 43.315 37.7236 43.315H50.7627C52.0013 43.315 53.0054 42.3942 53.0054 41.2583V32.7765C53.0054 31.6406 52.0013 30.7197 50.7627 30.7197Z" fill="white"/>
<path d="M50.7626 43.3148C50.9589 43.2957 51.1536 43.265 51.3455 43.2227C51.8131 43.099 52.2237 42.8381 52.5144 42.4801C52.805 42.1221 52.9599 41.6866 52.9551 41.2403C52.9551 40.8261 52.9551 40.3766 52.9551 39.8916C52.9551 38.9252 52.9551 37.8242 52.9551 36.6065C52.9551 35.3887 52.9551 34.0612 52.9551 32.631C52.9261 32.2746 52.7923 31.932 52.568 31.6397C52.3438 31.3474 52.0373 31.1162 51.6813 30.9708C51.3016 30.8274 50.89 30.7692 50.4809 30.8009H49.1839L37.7236 30.7973C37.2418 30.7972 36.7741 30.9459 36.3959 31.2195C36.0177 31.4931 35.7511 31.8757 35.6392 32.3054C35.5891 32.5193 35.5683 32.7381 35.5774 32.9567V34.9497C35.5774 36.7197 35.5774 38.3906 35.5774 40.0013C35.6121 40.8014 35.4307 41.6262 35.8785 42.2563C36.0767 42.5658 36.3626 42.8204 36.7057 42.993C37.0489 43.1656 37.4366 43.2499 37.8278 43.2369H42.1703L48.4582 43.2687H50.1643H50.6082C50.6596 43.2643 50.7113 43.2643 50.7626 43.2687C50.7113 43.274 50.6595 43.274 50.6082 43.2687H50.1643H48.4582L42.1703 43.2971H37.8278C37.5088 43.3102 37.1903 43.2632 36.892 43.159C36.5936 43.0548 36.3217 42.8956 36.0931 42.6912C35.8645 42.4868 35.684 42.2417 35.5628 41.9708C35.4415 41.6999 35.3821 41.4092 35.3883 41.1164V40.0013C35.3883 38.3906 35.3883 36.702 35.3883 34.9497V32.9709C35.3767 32.7333 35.3987 32.4953 35.4539 32.2629C35.5793 31.7989 35.8717 31.3873 36.2838 31.0947C36.6992 30.7933 37.2131 30.6287 37.7429 30.6274H49.1607H50.4577C50.8928 30.5969 51.3296 30.6625 51.7315 30.8186C52.1155 30.9758 52.4455 31.2259 52.6862 31.5421C52.927 31.8583 53.0693 32.2286 53.0979 32.6133C53.0979 34.0577 53.0979 35.3816 53.0979 36.5994C53.0979 37.8171 53.0979 38.9181 53.0979 39.8845C53.0979 40.3695 53.0979 40.8191 53.0979 41.2332C53.0983 41.6209 52.9807 42.001 52.7582 42.3306C52.4556 42.7884 51.9691 43.1189 51.4034 43.251C51.196 43.3087 50.9787 43.3304 50.7626 43.3148Z" fill="#263238"/>
<path d="M45.5863 37.3431C45.763 37.1816 45.9031 36.9895 45.9985 36.7781C46.0939 36.5667 46.1427 36.34 46.1422 36.1112C46.1445 35.7814 46.0462 35.4576 45.8585 35.1763C45.6708 34.8949 45.4011 34.6673 45.0799 34.519C44.7587 34.3708 44.3987 34.3078 44.0405 34.3371C43.6823 34.3665 43.3402 34.487 43.0527 34.6851C42.7652 34.8833 42.5438 35.1512 42.4135 35.4585C42.2831 35.7659 42.249 36.1006 42.315 36.4248C42.381 36.749 42.5444 37.0499 42.7869 37.2934C43.0293 37.537 43.3412 37.7136 43.6872 37.8033L43.2742 39.4813H45.1077L44.7217 37.8033C45.0421 37.7194 45.3333 37.5609 45.5671 37.3431" fill="#FF7F5C"/>
<path d="M165.139 49.974V64.3181C165.173 66.7961 165.571 70.6901 161.279 70.5627C157.577 70.2087 156.593 66.9767 156.565 64.6615C156.565 63.5641 156.538 62.6472 156.527 62.5375C156.527 62.5375 152.474 62.2331 152.13 58.5585C151.964 56.7885 151.949 53.1034 151.976 49.7723C151.992 48.047 152.716 46.3907 154.004 45.1326C155.291 43.8746 157.048 43.107 158.924 42.9825L159.31 42.9578C163.506 42.9011 165.208 46.1331 165.139 49.974Z" fill="#FFBF9D"/>
<path d="M158.835 51.2801C158.916 51.3545 159.38 51.0111 160.047 50.9969C160.715 50.9828 161.205 51.2801 161.29 51.2022C161.375 51.1244 161.244 51.0288 161.024 50.8907C160.73 50.7098 160.382 50.6181 160.028 50.6288C159.677 50.6389 159.339 50.7518 159.063 50.9509C158.862 51.1067 158.797 51.2447 158.835 51.2801Z" fill="#263238"/>
<path d="M158.824 53.0184C158.832 53.1486 158.895 53.2707 159.001 53.3582C159.106 53.4457 159.245 53.4915 159.387 53.4857C159.457 53.4862 159.525 53.4739 159.589 53.4496C159.653 53.4253 159.711 53.3895 159.76 53.3443C159.808 53.2991 159.847 53.2454 159.872 53.1863C159.898 53.1273 159.91 53.0642 159.908 53.0007C159.899 52.8715 159.836 52.7504 159.732 52.6632C159.627 52.576 159.49 52.5295 159.349 52.5334C159.279 52.5334 159.211 52.546 159.147 52.5704C159.083 52.5948 159.025 52.6306 158.976 52.6757C158.927 52.7208 158.889 52.7743 158.863 52.8331C158.836 52.8919 158.823 52.9549 158.824 53.0184Z" fill="#263238"/>
<path d="M157.156 55.5786C156.823 55.5076 156.483 55.4743 156.141 55.4795C155.983 55.4795 155.832 55.4547 155.797 55.3591C155.772 55.2109 155.796 55.059 155.867 54.9237C155.99 54.5697 156.114 54.1909 156.253 53.7945C156.774 52.1873 157.141 50.8704 157.071 50.8527C157.002 50.835 156.519 52.12 155.998 53.7272C155.875 54.1237 155.755 54.5025 155.639 54.8635C155.555 55.044 155.543 55.2456 155.604 55.4335C155.63 55.4833 155.669 55.5268 155.716 55.5606C155.764 55.5944 155.819 55.6176 155.879 55.6282C155.968 55.6379 156.059 55.6379 156.149 55.6282C156.485 55.6484 156.824 55.6318 157.156 55.5786Z" fill="#263238"/>
<path d="M159.121 48.6609C159.187 48.799 159.723 48.6963 160.368 48.7246C161.013 48.753 161.526 48.8839 161.615 48.753C161.646 48.6928 161.545 48.5653 161.329 48.445C161.041 48.2968 160.719 48.2131 160.389 48.2008C160.059 48.1885 159.73 48.2479 159.43 48.3742C159.202 48.4768 159.094 48.5972 159.121 48.6609Z" fill="#263238"/>
<path d="M152.748 49.5817C152.821 49.695 153.342 49.5817 153.979 49.5534C154.616 49.5251 155.137 49.6101 155.207 49.4932C155.234 49.4366 155.13 49.3375 154.91 49.249C154.612 49.14 154.292 49.0917 153.972 49.1074C153.647 49.1156 153.329 49.188 153.038 49.3198C152.821 49.4225 152.717 49.5286 152.748 49.5817Z" fill="#263238"/>
<path d="M146.68 46.4768C146.703 46.4021 146.741 46.3323 146.793 46.2715C146.846 46.2107 146.911 46.1601 146.985 46.1228C147.305 45.9892 147.658 45.9366 148.008 45.9706C149.077 45.9525 150.119 45.662 151.019 45.1316C151.439 44.5782 151.907 44.0573 152.42 43.574C153.636 42.427 154.632 41.6447 155.666 41.2624C157.002 40.7703 159.237 40.5544 160.63 40.9084C162.024 41.2624 163.274 42.2819 163.471 43.5882C164.243 42.9828 165.424 42.9899 166.378 43.3404H166.401C167.458 43.6944 168.061 44.7139 168.373 45.7051C168.686 46.6963 168.821 47.7583 169.392 48.6468C169.512 48.8309 169.655 49.0539 169.551 49.2486C169.502 49.3191 169.432 49.3745 169.348 49.4073C169.265 49.4402 169.172 49.4491 169.083 49.4327C168.905 49.3976 168.736 49.3275 168.589 49.2274C168.709 49.4893 168.825 49.7478 168.944 50.0062C168.558 50.0678 168.161 50.0448 167.786 49.9389C167.592 50.8226 167.341 51.695 167.034 52.5514C166.639 52.5087 166.24 52.5979 165.911 52.8028C165.525 53.1108 165.374 53.6878 164.753 53.4683C164.44 53.355 164.154 52.7603 164.046 52.4594C163.348 50.4988 163.118 48.4235 163.371 46.3741C162.932 45.9453 162.408 45.597 161.827 45.3475L161.873 45.3865C160.754 45.0325 159.487 44.6785 158.426 45.1599C157.604 45.5352 157.121 46.3175 156.496 46.9299C155.93 47.5121 155.241 47.9826 154.47 48.3131C153.7 48.6435 152.865 48.8269 152.015 48.8521C151.957 49.8858 152.049 51.3478 151.991 52.3921L151.042 50.7354C150.967 50.6206 150.899 50.5025 150.837 50.3814V50.346C150.742 50.1438 150.635 49.9465 150.517 49.7548C150.385 49.8517 150.221 49.9022 150.052 49.8973C149.883 49.8924 149.722 49.8324 149.598 49.7281C149.473 49.6237 149.394 49.482 149.373 49.3285C149.353 49.175 149.393 49.0198 149.486 48.8911C149.581 48.7708 149.696 48.6646 149.826 48.576C149.688 48.6991 149.518 48.787 149.332 48.8311C149.145 48.8752 148.95 48.8739 148.764 48.8273C148.581 48.776 148.42 48.6704 148.309 48.5271C148.197 48.3837 148.14 48.2105 148.147 48.0344C148.163 47.916 148.212 47.8034 148.29 47.7079C148.368 47.6123 148.471 47.5369 148.591 47.4892C148.094 47.5258 147.596 47.4247 147.163 47.199C146.854 47.0467 146.576 46.8025 146.68 46.4768Z" fill="#263238"/>
<path d="M162.201 44.0166C162.341 44.1241 162.47 44.2425 162.587 44.3706C162.904 44.7203 163.116 45.1402 163.201 45.5884C163.271 45.8957 163.306 46.2089 163.305 46.5229C163.305 46.8769 163.278 47.2309 163.247 47.6062C163.211 48.0064 163.202 48.4084 163.22 48.8098C163.231 49.024 163.261 49.2371 163.309 49.447C163.345 49.6707 163.442 49.8826 163.591 50.0629C163.661 50.1344 163.75 50.1879 163.85 50.2183C163.949 50.2487 164.055 50.255 164.158 50.2364C164.354 50.2035 164.532 50.1113 164.664 49.9744C164.882 49.7006 165.015 49.3776 165.05 49.0399H164.969C165.088 49.3178 165.252 49.5779 165.455 49.8116C165.649 50.0264 165.925 50.1656 166.227 50.201C166.369 50.214 166.512 50.1907 166.64 50.1337C166.76 50.0765 166.858 49.9877 166.922 49.8788C166.98 49.7786 167.009 49.6666 167.007 49.5532C167.001 49.4475 166.954 49.3473 166.876 49.27L166.833 49.3054C167.072 49.5554 167.365 49.7568 167.694 49.8965C167.81 49.9437 167.899 49.9756 167.96 49.9921L168.057 50.0134L167.968 49.978C167.906 49.9532 167.817 49.9213 167.709 49.8718C167.391 49.7237 167.107 49.5191 166.876 49.27L166.833 49.3054C166.899 49.3824 166.937 49.4763 166.942 49.574C166.946 49.6717 166.918 49.7683 166.86 49.8505C166.803 49.9465 166.716 50.0243 166.609 50.0735C166.489 50.1265 166.355 50.1462 166.223 50.1302C165.941 50.1005 165.682 49.974 165.498 49.7762C165.304 49.5465 165.146 49.2926 165.031 49.0222L164.973 48.9053L164.946 49.0328C164.904 49.356 164.771 49.6636 164.56 49.9249C164.439 50.045 164.279 50.1269 164.104 50.1585C164.017 50.1748 163.927 50.1699 163.842 50.1445C163.757 50.119 163.681 50.0738 163.622 50.0134C163.483 49.8446 163.394 49.6459 163.363 49.4363C163.315 49.231 163.284 49.0228 163.27 48.8133C163.252 48.4143 163.261 48.0147 163.297 47.6168C163.321 47.2345 163.348 46.8734 163.344 46.53C163.341 46.2121 163.303 45.8953 163.228 45.5848C163.134 45.1282 162.909 44.7029 162.576 44.3529C162.473 44.2221 162.346 44.1083 162.201 44.0166Z" fill="#455A64"/>
<path d="M149.807 47.5883L149.841 47.6131C149.873 47.6377 149.907 47.6602 149.942 47.6804C149.994 47.7198 150.051 47.7542 150.112 47.783C150.19 47.8257 150.272 47.8646 150.355 47.8998C150.892 48.1231 151.481 48.2204 152.069 48.183C152.944 48.1289 153.783 47.8437 154.485 47.3618C155.334 46.769 156.041 46.0218 156.562 45.167C156.855 44.7245 157.09 44.2678 157.334 43.8465C157.583 43.4352 157.895 43.0586 158.26 42.7279C158.581 42.4277 158.979 42.2061 159.418 42.0836C159.616 42.0332 159.822 42.0117 160.028 42.0199C160.215 42.0329 160.399 42.0686 160.576 42.1261C160.888 42.2232 161.173 42.3801 161.414 42.5863C161.595 42.7419 161.748 42.9237 161.865 43.1244C161.959 43.2998 162.027 43.4853 162.07 43.6766C162.07 43.6766 162.07 43.6766 162.07 43.6377C162.07 43.5987 162.07 43.5704 162.051 43.5244C162.018 43.3809 161.967 43.2417 161.896 43.1102C161.626 42.6232 161.161 42.2505 160.599 42.0695C160.413 42.0102 160.22 41.9733 160.024 41.9597C159.811 41.9515 159.597 41.973 159.391 42.0234C158.939 42.1457 158.529 42.371 158.198 42.6783C157.834 43.0126 157.526 43.3943 157.283 43.8111C157.017 44.2359 156.778 44.6891 156.492 45.1316C155.975 45.9752 155.278 46.7145 154.442 47.3051C153.755 47.7828 152.932 48.0691 152.072 48.1299C151.493 48.1718 150.912 48.0844 150.378 47.8751C150.181 47.7905 149.99 47.6947 149.807 47.5883Z" fill="#455A64"/>
<path d="M149.444 45.9738C149.444 45.9738 149.49 46.0128 149.587 46.0659C149.723 46.1415 149.865 46.2077 150.011 46.2641C150.23 46.3492 150.456 46.4167 150.687 46.4659C150.969 46.5269 151.258 46.5624 151.548 46.5721C151.838 46.5787 152.129 46.5609 152.416 46.519C152.649 46.483 152.877 46.4285 153.099 46.3561C153.251 46.3087 153.398 46.2507 153.539 46.1827C153.593 46.1607 153.643 46.1334 153.69 46.1013C153.69 46.1013 153.462 46.1898 153.08 46.2995C152.857 46.3603 152.63 46.4076 152.401 46.4411C152.119 46.477 151.835 46.4924 151.551 46.4871C151.267 46.4756 150.985 46.4436 150.706 46.3915C150.479 46.3457 150.256 46.2841 150.038 46.2075C149.668 46.0765 149.452 45.9597 149.444 45.9738Z" fill="#455A64"/>
<path d="M152.721 51.2801C152.798 51.3544 153.262 51.011 153.933 50.9969C154.605 50.9827 155.091 51.2801 155.176 51.2022C155.261 51.1243 155.126 51.0287 154.91 50.8907C154.615 50.7099 154.265 50.6183 153.91 50.6287C153.56 50.6386 153.223 50.7516 152.949 50.9509C152.744 51.1066 152.679 51.2447 152.721 51.2801Z" fill="#263238"/>
<path d="M153.404 53.0184C153.413 53.1477 153.477 53.2687 153.581 53.3559C153.686 53.4431 153.823 53.4896 153.964 53.4857C154.033 53.4862 154.102 53.4739 154.166 53.4497C154.231 53.4254 154.289 53.3897 154.338 53.3445C154.387 53.2993 154.425 53.2456 154.451 53.1866C154.477 53.1276 154.49 53.0644 154.489 53.0007C154.479 52.8711 154.415 52.7501 154.31 52.663C154.205 52.5759 154.067 52.5295 153.925 52.5334C153.856 52.5334 153.788 52.546 153.724 52.5705C153.661 52.5949 153.603 52.6308 153.554 52.6759C153.506 52.721 153.468 52.7746 153.442 52.8334C153.416 52.8922 153.403 52.9551 153.404 53.0184Z" fill="#263238"/>
<path d="M165.035 52.7179C165.1 52.6861 167.737 51.7869 167.841 54.3038C167.945 56.8208 165.174 56.4031 165.166 56.3323C165.158 56.2615 165.035 52.7179 165.035 52.7179Z" fill="#FFBF9D"/>
<path d="M159.109 56.0804C159.132 56.0804 159.132 56.229 159.04 56.4344C158.905 56.7106 158.685 56.9445 158.407 57.107C158.136 57.2743 157.814 57.3585 157.488 57.3477C157.237 57.3264 157.102 57.2486 157.102 57.2309C157.102 57.2132 157.256 57.2309 157.488 57.2309C157.782 57.2109 158.066 57.1232 158.314 56.976C158.564 56.8289 158.774 56.6316 158.928 56.399C159.032 56.2043 159.078 56.0733 159.109 56.0804Z" fill="#263238"/>
<path d="M172.928 155.615L173.746 164.111L176.649 170.681C176.697 170.796 176.717 170.918 176.709 171.041C176.701 171.163 176.665 171.282 176.603 171.391C176.541 171.499 176.455 171.594 176.349 171.67C176.244 171.745 176.123 171.799 175.993 171.828C175.839 171.87 175.677 171.879 175.519 171.855C175.361 171.83 175.212 171.773 175.082 171.687C173.426 170.582 167.455 166.518 167.389 165.991C167.304 165.304 165.779 156.939 165.779 156.939L172.928 155.615Z" fill="#455A64"/>
<path d="M176.016 171.839L167.246 165.031L167.335 165.661C167.393 166.015 167.4 166.192 167.663 166.408C169.994 168.344 172.442 170.157 174.997 171.839C175.154 171.906 175.325 171.941 175.499 171.941C175.672 171.941 175.843 171.906 176.001 171.839H176.016Z" fill="#263238"/>
<path d="M168.953 162.377C169.081 162.437 169.179 162.541 169.226 162.666C169.274 162.792 169.267 162.929 169.207 163.049C169.13 163.166 169.009 163.253 168.867 163.294C168.725 163.335 168.572 163.327 168.435 163.272C168.301 163.207 168.2 163.098 168.151 162.966C168.102 162.835 168.11 162.691 168.173 162.564C168.266 162.45 168.403 162.37 168.556 162.342C168.709 162.314 168.868 162.339 169.003 162.412" fill="white"/>
<path d="M173.291 168.334C173.349 168.356 173.515 167.888 174.063 167.598C174.411 167.442 174.786 167.343 175.171 167.304C175.171 167.283 175.043 167.23 174.812 167.223C174.506 167.22 174.206 167.295 173.943 167.439C173.687 167.575 173.481 167.776 173.349 168.019C173.264 168.203 173.264 168.331 173.291 168.334Z" fill="#263238"/>
<path d="M174.133 169.407C174.183 169.443 174.465 169.135 174.959 168.965C175.271 168.882 175.588 168.817 175.908 168.77C175.746 168.702 175.569 168.668 175.39 168.672C175.212 168.676 175.037 168.717 174.878 168.791C174.314 168.99 174.086 169.39 174.133 169.407Z" fill="#263238"/>
<path d="M171.805 167C172.192 166.718 172.601 166.464 173.029 166.239C173.492 166.065 173.968 165.922 174.453 165.81C173.927 165.738 173.39 165.83 172.928 166.072C172.133 166.423 171.77 166.978 171.805 167Z" fill="#263238"/>
<path d="M171.307 164.43C171.338 164.479 171.859 164.232 172.562 164.147C173.264 164.062 173.847 164.147 173.862 164.101C173.448 163.918 172.979 163.869 172.531 163.959C172.076 163.984 171.645 164.15 171.307 164.43Z" fill="#263238"/>
<path d="M170.998 161.937C171.404 161.75 171.847 161.64 172.3 161.612C172.754 161.584 173.209 161.639 173.639 161.775C173.639 161.753 173.534 161.658 173.291 161.566C172.971 161.45 172.627 161.402 172.284 161.424C171.941 161.442 171.608 161.533 171.311 161.69C171.079 161.81 170.975 161.92 170.998 161.937Z" fill="#263238"/>
<path d="M172.214 161.138C172.214 161.138 172.237 161.021 172.191 160.816C172.123 160.523 171.992 160.246 171.805 160.001C171.678 159.808 171.486 159.658 171.257 159.573C171.178 159.551 171.093 159.551 171.014 159.573C170.934 159.594 170.863 159.636 170.809 159.693C170.763 159.75 170.73 159.815 170.711 159.884C170.693 159.952 170.689 160.024 170.701 160.094C170.768 160.385 170.943 160.646 171.196 160.833C171.45 161.019 171.766 161.12 172.091 161.117C172.415 161.121 172.734 161.039 173.008 160.88C173.283 160.721 173.5 160.492 173.635 160.221C173.665 160.155 173.679 160.083 173.675 160.011C173.671 159.94 173.649 159.87 173.612 159.807C173.562 159.745 173.494 159.699 173.416 159.673C173.337 159.647 173.252 159.643 173.172 159.662C172.938 159.731 172.727 159.852 172.558 160.016C172.318 160.218 172.118 160.458 171.967 160.724C171.905 160.817 171.865 160.923 171.851 161.032C172.072 160.686 172.346 160.373 172.666 160.101C172.818 159.963 173.003 159.861 173.206 159.803C173.25 159.792 173.297 159.793 173.339 159.807C173.382 159.821 173.419 159.847 173.446 159.881C173.467 159.924 173.478 159.97 173.478 160.017C173.478 160.064 173.467 160.111 173.446 160.154C173.323 160.383 173.132 160.577 172.895 160.712C172.659 160.847 172.385 160.919 172.106 160.918C171.831 160.919 171.563 160.835 171.346 160.68C171.129 160.525 170.975 160.307 170.91 160.062C170.891 159.965 170.913 159.865 170.971 159.782C171 159.749 171.039 159.725 171.083 159.713C171.128 159.701 171.175 159.702 171.218 159.715C171.412 159.786 171.577 159.91 171.693 160.069C171.937 160.393 172.114 160.755 172.214 161.138Z" fill="#263238"/>
<path d="M149.56 156.054L149.923 163.258C149.923 163.258 141.55 165.998 141.469 167.336L157.701 167.226L157.666 155.979L149.56 156.054Z" fill="#455A64"/>
<path d="M154.937 162.617C155.089 162.652 155.222 162.738 155.308 162.859C155.394 162.98 155.427 163.126 155.4 163.269C155.353 163.408 155.251 163.527 155.114 163.601C154.977 163.675 154.814 163.699 154.659 163.669C154.498 163.632 154.358 163.541 154.267 163.413C154.177 163.286 154.143 163.132 154.172 162.982C154.236 162.838 154.357 162.722 154.51 162.657C154.663 162.591 154.837 162.581 154.998 162.628" fill="#E0E0E0"/>
<path d="M157.701 167.227L157.647 166.094L142.102 166.621C142.102 166.621 141.384 166.897 141.469 167.329L157.701 167.227Z" fill="#263238"/>
<path d="M149.66 163.194C149.66 163.261 150.046 163.29 150.432 163.506C150.818 163.722 151.034 164.008 151.108 163.98C151.181 163.952 151.058 163.559 150.579 163.304C150.1 163.049 149.641 163.127 149.66 163.194Z" fill="#263238"/>
<path d="M147.962 163.806C147.962 163.874 148.29 163.987 148.56 164.274C148.83 164.56 148.915 164.868 148.993 164.865C149.07 164.861 149.12 164.472 148.773 164.121C148.425 163.771 147.966 163.743 147.962 163.806Z" fill="#263238"/>
<path d="M147.012 165.569C147.086 165.569 147.19 165.244 146.985 164.861C146.781 164.479 146.406 164.344 146.372 164.401C146.337 164.458 146.572 164.656 146.734 164.964C146.897 165.272 146.935 165.566 147.012 165.569Z" fill="#263238"/>
<path d="M149.787 161.538C149.822 161.601 150.173 161.506 150.633 161.538C151.092 161.569 151.432 161.679 151.47 161.623C151.509 161.566 151.177 161.322 150.648 161.3C150.119 161.279 149.768 161.484 149.787 161.538Z" fill="#263238"/>
<path d="M146.734 104.317C146.734 104.731 148.618 162.32 148.618 162.32H158.654L160.688 113.057C160.688 113.057 163.062 138.814 163.062 139.37C163.062 139.926 165.154 162.596 165.154 162.596L174.457 161.941L173.843 110.094L172.708 102.49L146.734 104.317Z" fill="#263238"/>
<path d="M161.734 111.234C161.607 111.301 161.471 111.351 161.329 111.383C161.062 111.468 160.673 111.585 160.194 111.737L160.105 111.762V111.68C160.051 110.99 159.985 110.063 159.928 109.047C159.862 107.946 159.816 106.951 159.792 106.215C159.792 105.861 159.773 105.56 159.773 105.358C159.762 105.253 159.77 105.146 159.796 105.043C159.829 105.144 159.847 105.249 159.85 105.354C159.877 105.556 159.904 105.85 159.931 106.208C159.993 106.916 160.063 107.925 160.124 109.04C160.186 110.056 160.229 110.983 160.252 111.677L160.155 111.62C160.642 111.496 161.035 111.397 161.313 111.334C161.45 111.288 161.591 111.255 161.734 111.234Z" fill="#455A64"/>
<path d="M160.962 105.248C160.962 105.248 160.993 105.202 161.097 105.17C161.244 105.134 161.399 105.147 161.537 105.205C161.641 105.24 161.73 105.305 161.79 105.389C161.851 105.474 161.88 105.575 161.873 105.676C161.86 105.804 161.802 105.924 161.707 106.019C161.612 106.114 161.486 106.177 161.348 106.2C161.208 106.219 161.064 106.203 160.934 106.152C160.803 106.101 160.69 106.019 160.607 105.913C160.549 105.832 160.518 105.736 160.518 105.639C160.518 105.541 160.549 105.446 160.607 105.364C160.687 105.255 160.803 105.171 160.939 105.127C161.039 105.095 161.097 105.102 161.101 105.11C161.105 105.117 160.873 105.177 160.734 105.418C160.693 105.482 160.674 105.555 160.678 105.63C160.682 105.704 160.71 105.775 160.757 105.835C160.82 105.911 160.903 105.97 160.999 106.006C161.095 106.042 161.199 106.054 161.302 106.041C161.397 106.024 161.485 105.981 161.554 105.918C161.623 105.855 161.669 105.774 161.688 105.687C161.695 105.614 161.678 105.541 161.639 105.478C161.599 105.414 161.54 105.364 161.468 105.333C161.313 105.256 161.136 105.226 160.962 105.248Z" fill="#455A64"/>
<path d="M165.571 105.846C165.517 105.846 165.44 105.598 165.401 105.286C165.363 104.975 165.374 104.716 165.428 104.713C165.482 104.709 165.559 104.957 165.598 105.269C165.637 105.58 165.625 105.846 165.571 105.846Z" fill="#455A64"/>
<path d="M166.266 105.779C166.212 105.779 166.166 105.514 166.166 105.185C166.166 104.855 166.204 104.59 166.262 104.59C166.32 104.59 166.362 104.855 166.362 105.185C166.362 105.514 166.324 105.779 166.266 105.779Z" fill="#455A64"/>
<path d="M154.173 106.176C154.119 106.176 154.034 105.882 153.983 105.51C153.933 105.138 153.937 104.827 153.983 104.823C154.03 104.82 154.122 105.117 154.173 105.492C154.223 105.868 154.227 106.172 154.173 106.176Z" fill="#455A64"/>
<path d="M155.018 106.232C154.84 106.034 154.751 105.781 154.771 105.524C154.729 105.277 154.791 105.024 154.945 104.816C155.003 104.816 154.945 105.142 154.972 105.524C154.999 105.907 155.072 106.218 155.018 106.232Z" fill="#455A64"/>
<path d="M151.845 105.464C151.849 105.549 151.837 105.634 151.81 105.715C151.762 105.945 151.695 106.171 151.609 106.391C151.323 107.135 150.903 107.829 150.366 108.445C149.809 109.08 149.148 109.631 148.406 110.08C148.177 110.218 147.94 110.344 147.695 110.455C147.606 110.501 147.512 110.538 147.414 110.565C147.414 110.544 147.776 110.36 148.328 109.995C149.038 109.533 149.675 108.983 150.22 108.36C150.746 107.752 151.173 107.079 151.49 106.36C151.725 105.811 151.814 105.457 151.845 105.464Z" fill="#455A64"/>
<path d="M173.538 109.344C173.439 109.371 173.337 109.385 173.233 109.387C172.953 109.407 172.672 109.407 172.392 109.387C171.475 109.306 170.594 109.024 169.821 108.565C169.089 108.126 168.499 107.515 168.111 106.795C167.998 106.586 167.91 106.367 167.849 106.14C167.817 106.061 167.803 105.977 167.806 105.893C167.837 105.893 167.922 106.247 168.227 106.753C168.634 107.437 169.219 108.02 169.929 108.448C170.678 108.892 171.524 109.177 172.407 109.284C173.098 109.355 173.534 109.316 173.538 109.344Z" fill="#455A64"/>
<path d="M157.191 138.506C157.191 138.545 155.516 138.212 153.478 137.77C151.44 137.327 149.795 136.931 149.811 136.892C149.826 136.853 151.486 137.182 153.524 137.628C155.562 138.074 157.203 138.467 157.191 138.506Z" fill="#455A64"/>
<path d="M173.357 136.411C173.38 136.446 171.932 137.136 170.126 137.958C168.32 138.779 166.83 139.413 166.806 139.374C166.783 139.335 168.231 138.644 170.037 137.827C171.844 137.009 173.334 136.375 173.357 136.411Z" fill="#455A64"/>
<path d="M141.863 84.8153L143.233 86.3906V83.6825H147.556C147.556 83.6825 148.035 89.881 147.942 91.2015C147.84 91.8897 147.663 92.5668 147.414 93.2228C147.285 93.6045 147.05 93.9493 146.734 94.2239C146.417 94.4985 146.028 94.6936 145.606 94.7904C145.183 94.8871 144.74 94.8823 144.319 94.7764C143.899 94.6705 143.516 94.467 143.206 94.1857C142.722 93.754 142.271 93.2928 141.855 92.8051C139.925 90.5395 136.745 85.0171 136.745 85.0171L140.08 83.1904L141.863 84.8153Z" fill="#FFBF9D"/>
<path d="M151.721 65.7733L156.28 64.1307L164.675 63.6953L168.62 65.0724L163.212 67.8265L158.55 67.6707L151.721 65.7733Z" fill="#FFBF9D"/>
<path d="M146.344 105.103C146.757 105.167 174.264 106.24 174.264 106.24L173.314 83.5446L173.233 79.0913L171.689 65.6003C171.689 65.6003 167.574 64.3011 165.478 63.6816C165.478 63.6816 163.27 65.8056 159.071 65.7348C154.968 65.6817 154.111 64.8321 154.111 64.8321L148.375 66.8499C148.375 66.8499 144.295 68.1916 143.592 69.8483C142.89 71.505 141.662 80.663 141.662 80.663H147.61L147.452 96.9364L146.344 105.103Z" fill="#455A64"/>
<g opacity="0.2">
<path d="M163.641 74.8291L164.494 80.5497L168.621 82.2383L171.67 79.8559V74.5459L163.641 74.8291Z" fill="black"/>
</g>
<path d="M171.562 76.464C171.562 76.51 169.848 76.549 167.733 76.549C165.618 76.549 163.9 76.51 163.9 76.464C165.175 76.3752 166.454 76.3457 167.733 76.3755C169.01 76.3457 170.288 76.3752 171.562 76.464Z" fill="#263238"/>
<path d="M144.492 72.2158C144.511 72.2654 144.527 72.3163 144.538 72.368C144.565 72.4813 144.6 72.6229 144.646 72.8035C144.794 73.3497 144.977 73.8875 145.194 74.4142C145.468 75.0903 145.854 75.8868 146.329 76.7789C146.804 77.671 147.182 78.7365 147.603 79.8693C147.603 81.2287 147.603 82.7013 147.572 84.2695C147.533 87.7387 147.495 90.8787 147.472 93.1691C147.448 94.2948 147.433 95.2117 147.418 95.8666C147.418 96.171 147.41 96.4153 147.394 96.5993C147.396 96.6847 147.39 96.77 147.375 96.8542C147.368 96.7682 147.368 96.6818 147.375 96.5958C147.375 96.4164 147.375 96.1722 147.375 95.863C147.375 95.2117 147.375 94.2913 147.375 93.1655C147.375 90.8752 147.406 87.7352 147.425 84.2695C147.425 82.7155 147.456 81.2287 147.468 79.8693V79.8941C147.055 78.7613 146.657 77.7099 146.225 76.8072C145.812 76.0299 145.444 75.2336 145.121 74.4212C144.912 73.8896 144.743 73.3455 144.615 72.7928C144.577 72.5981 144.546 72.4388 144.53 72.3468C144.513 72.3043 144.5 72.2605 144.492 72.2158Z" fill="#263238"/>
<path d="M173.654 69.5684C173.667 69.7298 173.667 69.8919 173.654 70.0533C173.654 70.4073 173.623 70.8392 173.6 71.3702C173.55 72.5101 173.484 74.0323 173.411 75.7138C173.337 77.3953 173.252 78.921 173.198 80.0609C173.164 80.5919 173.137 81.0344 173.113 81.3778C173.113 81.5395 173.094 81.7008 173.059 81.8592C173.045 81.6978 173.045 81.5357 173.059 81.3743C173.059 81.0203 173.059 80.5884 173.086 80.0574C173.117 78.9423 173.171 77.4059 173.248 75.7103C173.326 74.0146 173.411 72.4747 173.488 71.3667C173.526 70.8109 173.565 70.3613 173.6 70.0498C173.602 69.8882 173.62 69.7271 173.654 69.5684Z" fill="#263238"/>
<g opacity="0.3">
<path d="M144.507 73.0479C144.402 75.5389 145.373 77.9673 147.209 79.8057C146.649 77.4658 145.252 75.2887 144.507 73.0479Z" fill="black"/>
</g>
<g opacity="0.3">
<path d="M156.589 95.5022C157.882 95.3442 159.062 94.742 159.889 93.8172C160.76 92.9253 161.506 91.9371 162.109 90.8754C162.887 89.4313 163.329 87.8544 163.406 86.2451C161.804 90.1851 159.457 93.3003 156.589 95.5022Z" fill="black"/>
</g>
<path d="M163.915 84.5285C163.913 84.5775 163.905 84.6261 163.892 84.6737C163.865 84.787 163.83 84.9215 163.792 85.0843C163.753 85.2472 163.691 85.4773 163.606 85.7251C163.522 85.9729 163.44 86.2561 163.317 86.564C163.047 87.2887 162.729 87.9979 162.367 88.688C161.482 90.3777 160.345 91.9467 158.99 93.3502C158.437 93.9229 157.844 94.4621 157.214 94.9645C156.956 95.1875 156.697 95.3645 156.477 95.5273C156.257 95.6902 156.064 95.8211 155.898 95.9238L155.512 96.161C155.423 96.2105 155.377 96.2389 155.373 96.2318C155.407 96.1944 155.446 96.1612 155.489 96.1327L155.848 95.8707C156.006 95.7645 156.195 95.6264 156.408 95.4565C156.62 95.2866 156.871 95.1025 157.125 94.8795C157.735 94.3661 158.314 93.8225 158.859 93.2511C159.519 92.5458 160.134 91.8059 160.7 91.0351C161.253 90.2583 161.759 89.4535 162.213 88.6243C162.578 87.9431 162.904 87.2447 163.19 86.5322C163.321 86.2313 163.413 85.9481 163.502 85.7038C163.591 85.4596 163.664 85.2472 163.718 85.0737C163.772 84.9002 163.811 84.7834 163.85 84.6737C163.888 84.5639 163.908 84.525 163.915 84.5285Z" fill="#263238"/>
<path d="M163.12 77.4268C163.114 77.5053 163.103 77.5833 163.085 77.6604C163.054 77.8268 163.012 78.0463 162.962 78.3188C162.912 78.5914 162.834 78.9525 162.723 79.3525C162.611 79.7525 162.51 80.2163 162.337 80.7119C162.259 80.9597 162.174 81.2216 162.086 81.4942C161.997 81.7668 161.881 82.0429 161.773 82.3297C161.568 82.9138 161.29 83.5156 161.001 84.1528C159.733 86.9031 158.029 89.4666 155.944 91.7602C155.454 92.2771 154.995 92.7797 154.524 93.2116C154.292 93.4311 154.076 93.6506 153.852 93.8453C153.628 94.04 153.416 94.2311 153.208 94.4081C152.822 94.7621 152.405 95.0701 152.05 95.3392C151.694 95.6082 151.409 95.8312 151.154 96.0047L150.571 96.4082C150.508 96.4593 150.438 96.5033 150.363 96.5392C150.419 96.4821 150.481 96.4299 150.548 96.3835L151.108 95.9551C151.355 95.7746 151.656 95.5516 151.984 95.2719C152.312 94.9922 152.71 94.6949 153.107 94.3232L153.74 93.7568C153.96 93.5585 154.173 93.3391 154.4 93.1196C154.867 92.6842 155.319 92.1815 155.805 91.6611C157.872 89.3712 159.572 86.8227 160.854 84.0926C161.14 83.4589 161.418 82.8642 161.626 82.2872C161.738 81.9969 161.854 81.7243 161.947 81.4553C162.039 81.1862 162.124 80.9278 162.209 80.68C162.387 80.188 162.499 79.7313 162.618 79.3313C162.738 78.9313 162.823 78.5879 162.885 78.3047C162.946 78.0215 163.004 77.8197 163.043 77.6533C163.06 77.5755 163.085 77.4995 163.12 77.4268Z" fill="#263238"/>
<path d="M141.384 70.3722L151.976 85.1411C152.027 85.2108 152.055 85.2925 152.056 85.3763C152.057 85.46 152.032 85.5424 151.983 85.6134C151.935 85.6844 151.865 85.741 151.782 85.7766C151.7 85.8121 151.608 85.825 151.517 85.8137L139.319 84.3977C139.255 84.3895 139.193 84.3696 139.138 84.3392C139.082 84.3088 139.034 84.2685 138.995 84.2207L127.346 69.6288C127.288 69.5613 127.253 69.4798 127.245 69.3943C127.238 69.3088 127.257 69.2232 127.302 69.1478C127.347 69.0725 127.415 69.0109 127.497 68.9705C127.58 68.9302 127.673 68.9129 127.766 68.9208L140.315 69.7704C140.532 69.7884 140.741 69.8521 140.927 69.9565C141.112 70.0609 141.269 70.2032 141.384 70.3722Z" fill="#E0E0E0"/>
<path d="M141.384 70.3719C141.358 70.3238 141.326 70.2786 141.288 70.2374C141.18 70.1153 141.05 70.0121 140.902 69.933C140.651 69.8126 140.371 69.7506 140.087 69.7524L138.96 69.6675L131.727 69.1471L129.33 68.9772L128.056 68.8887C127.944 68.8887 127.847 68.8887 127.72 68.8887C127.59 68.8926 127.465 68.9391 127.369 69.0197C127.271 69.1016 127.208 69.2127 127.191 69.3333C127.174 69.4539 127.204 69.5761 127.276 69.6781L130.665 73.9438C133.058 76.9422 135.683 80.2379 138.443 83.7C138.621 83.916 138.779 84.1248 138.972 84.3514C139.031 84.4114 139.105 84.4576 139.188 84.4859C139.264 84.5103 139.343 84.5246 139.423 84.5284L139.856 84.5779L141.562 84.7762L144.897 85.1585L151.204 85.8665C151.335 85.8665 151.443 85.8984 151.59 85.9054C151.665 85.906 151.74 85.8928 151.809 85.8666C151.879 85.8405 151.942 85.802 151.995 85.7532C152.097 85.6581 152.156 85.532 152.161 85.3992C152.156 85.2698 152.104 85.1456 152.015 85.0452L151.196 83.8983L149.652 81.7743L146.889 77.9404C145.198 75.6076 143.832 73.7137 142.878 72.4004L141.778 70.8959C141.655 70.733 141.558 70.602 141.485 70.51C141.454 70.464 141.419 70.4202 141.38 70.379C141.407 70.4278 141.437 70.4751 141.469 70.5206L141.743 70.9171C141.99 71.2711 142.349 71.7844 142.809 72.4393L146.769 78.0148L149.513 81.8592L151.057 84.0009L151.86 85.1231C151.93 85.1976 151.97 85.2909 151.976 85.3886C151.972 85.4815 151.931 85.5698 151.86 85.6364C151.788 85.7018 151.691 85.7387 151.59 85.7391C151.486 85.7391 151.343 85.7107 151.223 85.7001L144.905 84.9603L141.57 84.5744L139.863 84.3762L139.435 84.3266C139.371 84.3217 139.308 84.311 139.246 84.2947C139.192 84.2755 139.143 84.2452 139.103 84.2062C138.933 83.9938 138.763 83.785 138.594 83.5691C135.83 80.114 133.19 76.8218 130.804 73.8234C129.604 72.3295 128.469 70.9065 127.403 69.5754C127.364 69.5229 127.34 69.4614 127.335 69.3975C127.331 69.3337 127.345 69.2699 127.377 69.2128C127.408 69.1558 127.456 69.1078 127.515 69.0737C127.574 69.0397 127.642 69.021 127.712 69.0197C127.801 69.0197 127.924 69.0197 128.029 69.0374L129.303 69.1223L131.703 69.2781L138.96 69.7383L140.095 69.8091C140.372 69.8005 140.646 69.8553 140.894 69.9684C141.087 70.069 141.254 70.2066 141.384 70.3719Z" fill="#263238"/>
<path d="M127.346 69.6386C127.429 69.6583 127.514 69.6701 127.6 69.674L128.342 69.7448L131.098 69.9678L140.47 70.6758L140.396 70.6369C140.983 71.4369 141.589 72.2653 142.195 73.1149C144.669 76.6018 146.827 79.809 148.46 82.0888C149.27 83.2322 149.946 84.1455 150.417 84.7756L150.965 85.4836C151.024 85.57 151.093 85.6507 151.17 85.7243C151.119 85.634 151.062 85.5465 151 85.4624L150.483 84.7225L148.58 82.0073C146.982 79.7099 144.839 76.4956 142.365 73.0051C141.759 72.1449 141.149 71.3165 140.558 70.5271L140.531 70.4917H140.504L131.128 69.8545L128.369 69.6846L127.624 69.6457C127.531 69.637 127.438 69.6346 127.346 69.6386Z" fill="#263238"/>
<path d="M134.606 71.8939C134.613 71.8645 134.627 71.8368 134.646 71.8123C134.665 71.7879 134.69 71.7673 134.718 71.7517C134.746 71.7362 134.777 71.726 134.81 71.7219C134.842 71.7177 134.875 71.7196 134.907 71.7275C135.031 71.7535 135.145 71.8112 135.235 71.8939C135.293 71.9419 135.33 72.0068 135.34 72.0772C135.351 72.1477 135.334 72.2194 135.293 72.2798C135.174 72.4178 134.907 72.3647 134.776 72.2515C134.717 72.2101 134.67 72.1555 134.64 72.093C134.611 72.0304 134.599 71.9619 134.606 71.8939Z" fill="white"/>
<path d="M140.303 80.1709C140.303 80.1709 140.782 79.1089 139.562 78.9814C138.088 78.9111 136.61 78.9111 135.135 78.9814C135.135 78.9814 133.379 79.1513 133.749 80.3054C133.749 80.3054 132.715 81.155 133.271 82.0754C133.826 82.9958 134.043 82.7197 134.043 82.7197C134.043 82.7197 133.896 83.8418 134.815 84.0082C134.815 84.0082 135.818 85.095 136.745 85.0277C137.671 84.9605 141.589 83.2294 141.847 82.9037C142.106 82.5781 142.477 82.3727 142.257 81.994C142.257 81.994 142.735 80.9992 141.701 80.847C141.709 80.8293 141.635 80.0045 140.303 80.1709Z" fill="#FFBF9D"/>
<path d="M175.603 74.8926C175.603 74.8926 173.11 84.0542 169.995 87.4384C166.976 90.7164 162.248 89.2084 160.611 84.9604C158.974 80.7124 156.056 71.0447 156.056 71.0447L159.638 68.5312L165.814 79.5371L168.605 72.0359L175.603 74.8926Z" fill="#FFBF9D"/>
<path d="M156.222 71.306L153.593 67.812C153.211 67.7363 152.836 67.6297 152.474 67.4934C152.177 67.3341 151.883 65.9465 151.891 65.6774C151.899 65.4084 151.382 64.7747 151.59 64.5942C151.799 64.4136 152.501 64.403 152.462 64.1446C152.462 64.088 151.941 63.5074 152.35 63.0826C152.576 62.9459 152.827 62.8486 153.092 62.7959L153.049 61.4613C153.049 61.4613 153.821 59.8895 154.636 60.4595C154.636 60.4595 157.658 62.5835 157.963 62.9375C158.268 63.2915 159.434 67.7129 159.638 68.5448" fill="#FFBF9D"/>
<path d="M171.658 65.6143C171.658 65.6143 176.765 66.7471 176.753 72.9598C176.742 79.1725 175.209 82.2381 175.209 82.2381L165.795 77.5264L167.91 72.7013L171.658 65.6143Z" fill="#455A64"/>
<path d="M175.209 82.2384C175.142 82.2203 175.077 82.1941 175.016 82.1605L174.468 81.9056L172.461 80.9356L165.749 77.6187L165.671 77.5833L165.702 77.5089L166.208 76.2982C166.81 74.8645 167.366 73.4981 167.906 72.2556C168.169 71.6361 168.416 71.0449 168.651 70.4856C168.857 69.966 169.106 69.4618 169.396 68.9775C169.784 68.253 170.369 67.6324 171.095 67.1757C171.298 67.0587 171.523 66.976 171.759 66.9314C171.818 66.9197 171.879 66.9126 171.94 66.9102H172.006C171.697 66.9691 171.402 67.0795 171.137 67.2358C170.441 67.703 169.884 68.324 169.52 69.0412C169.242 69.5238 169.004 70.0243 168.806 70.5387C168.578 71.0944 168.335 71.6856 168.076 72.3087L166.393 76.3584L165.888 77.5691L165.841 77.4558L172.542 80.8294L174.518 81.849L175.047 82.1322C175.105 82.162 175.16 82.1976 175.209 82.2384Z" fill="#263238"/>
</svg>
