<svg width="26" height="26" viewBox="0 0 26 26" fill="none" xmlns="http://www.w3.org/2000/svg">
<path d="M25.4016 7.79961V5.39961H21.925C21.65 4.81993 21.1812 4.35117 20.6016 4.07617V0.599609H18.2016V3.79961H14.2016V0.599609H11.8016V3.79961H7.80156V0.599609H5.40156V4.07149C4.81876 4.34805 4.35 4.81681 4.07344 5.39961H0.601562V7.79961H3.80156V11.7996H0.601562V14.1996H3.80156V18.1996H0.601562V20.5996H4.07344C4.35001 21.1824 4.81876 21.6512 5.40156 21.9277V25.3996H7.80156V22.1996H11.8016V25.3996H14.2016V22.1996H18.2016V25.3996H20.6016V21.923C21.1812 21.6481 21.65 21.1793 21.925 20.5996H25.4016V18.1996H22.2016V14.1996H25.4016V11.7996H22.2016V7.79961H25.4016ZM19.8016 11.7996V19.3996C19.8016 19.5059 19.7594 19.6074 19.6844 19.6824C19.6094 19.7574 19.5078 19.7996 19.4016 19.7996H6.60156C6.38125 19.7996 6.20156 19.6199 6.20156 19.3996V6.59961C6.20156 6.3793 6.38125 6.19961 6.60156 6.19961H19.4016C19.5078 6.19961 19.6094 6.2418 19.6844 6.3168C19.7594 6.3918 19.8016 6.49336 19.8016 6.59961V11.7996Z" fill="white"/>
</svg>
