<svg width="310" height="635" viewBox="0 0 310 635" fill="none" xmlns="http://www.w3.org/2000/svg">
<path d="M136.116 453.563C180.785 546.931 301.6 582.246 406.022 532.288C510.444 482.331 558.756 366.102 514.087 272.734C469.418 179.367 348.604 144.051 244.182 194.009C139.76 243.967 91.4473 360.196 136.116 453.563Z" stroke="white"/>
<path d="M195.648 374.089C240.317 467.456 361.131 502.771 465.553 452.814C569.975 402.856 618.287 286.627 573.618 193.26C528.949 99.892 408.135 64.5768 303.713 114.534C199.291 164.492 150.979 280.721 195.648 374.089Z" stroke="#91A2FA"/>
<path d="M81.589 399.835C126.258 493.202 247.072 528.517 351.494 478.56C455.916 428.602 504.229 312.373 459.56 219.006C414.891 125.638 294.076 90.3229 189.654 140.281C85.2324 190.238 36.92 306.467 81.589 399.835Z" stroke="#F7FA62"/>
<path d="M162.702 416.456C207.371 509.823 328.186 545.139 432.608 495.181C537.03 445.223 585.342 328.994 540.673 235.627C496.004 142.259 375.19 106.944 270.768 156.902C166.346 206.859 118.033 323.088 162.702 416.456Z" stroke="#22D497"/>
</svg>
