<svg width="466" height="298" viewBox="0 0 466 298" fill="none" xmlns="http://www.w3.org/2000/svg">
<g clip-path="url(#clip0_792_590)">
<path d="M32.3368 276.05C34.462 276.822 36.7437 277.015 38.9621 276.611C41.1806 276.208 43.261 275.221 45.003 273.746C49.4393 269.901 50.8319 263.566 51.9619 257.699L55.3092 240.348L48.3012 245.332C43.2612 248.915 38.1081 252.614 34.6182 257.806C31.1283 262.997 29.6053 270.084 32.409 275.701" fill="#E6E6E6"/>
<path d="M32.9409 297.058C32.2317 291.722 31.5022 286.318 31.9997 280.924C32.4417 276.135 33.8563 271.456 36.7373 267.62C38.2664 265.588 40.127 263.847 42.2355 262.475C42.7855 262.117 43.2911 263.017 42.744 263.373C39.0958 265.754 36.2741 269.27 34.6856 273.414C32.9311 278.023 32.6495 283.047 32.9542 287.942C33.1372 290.902 33.5244 293.842 33.9151 296.781C33.9466 296.914 33.9277 297.054 33.8622 297.173C33.7968 297.292 33.6898 297.381 33.5631 297.421C33.4342 297.457 33.2969 297.439 33.1808 297.371C33.0647 297.303 32.9794 297.19 32.9432 297.057L32.9409 297.058Z" fill="#F2F2F2"/>
<path d="M173.485 182.094C172.971 182.347 172.41 182.483 171.84 182.494L118.971 183.993C116.771 184.042 114.642 183.187 113.052 181.615C111.462 180.043 110.542 177.883 110.494 175.61C110.446 173.338 111.275 171.139 112.797 169.497C114.319 167.855 116.41 166.905 118.611 166.856L171.479 165.357C172.55 165.334 173.586 165.751 174.36 166.516C175.133 167.281 175.582 168.332 175.606 169.437L175.791 178.232C175.807 179.037 175.599 179.829 175.189 180.514C174.78 181.199 174.189 181.748 173.485 182.094Z" fill="#FFB7B7"/>
<path d="M105.644 297.169H97.1258C96.0547 297.168 95.0279 296.728 94.2705 295.946C93.5132 295.163 93.0871 294.103 93.0859 292.997V219.678C93.0871 218.572 93.5132 217.511 94.2705 216.729C95.0279 215.947 96.0547 215.507 97.1258 215.506H105.644C106.715 215.507 107.742 215.947 108.499 216.729C109.257 217.511 109.683 218.572 109.684 219.678V292.997C109.683 294.103 109.257 295.163 108.499 295.946C107.742 296.728 106.715 297.168 105.644 297.169Z" fill="#FFB7B7"/>
<path d="M128.269 297.169H119.751C118.68 297.168 117.653 296.728 116.896 295.946C116.138 295.163 115.712 294.103 115.711 292.997V219.678C115.712 218.572 116.138 217.511 116.896 216.729C117.653 215.947 118.68 215.507 119.751 215.506H128.269C129.34 215.507 130.367 215.947 131.124 216.729C131.882 217.511 132.308 218.572 132.309 219.678V292.997C132.308 294.103 131.882 295.163 131.124 295.946C130.367 296.728 129.34 297.168 128.269 297.169Z" fill="#FFB7B7"/>
<path d="M113.527 139.288C129.783 139.288 142.96 125.679 142.96 108.891C142.96 92.1033 129.783 78.4941 113.527 78.4941C97.2715 78.4941 84.0938 92.1033 84.0938 108.891C84.0938 125.679 97.2715 139.288 113.527 139.288Z" fill="#FFB7B7"/>
<path d="M123.518 241.505H102.344C97.9437 241.523 93.6172 240.339 89.8024 238.074C85.9875 235.81 82.8197 232.544 80.6196 228.609C78.4195 224.673 77.2652 220.207 77.2735 215.663C77.2818 211.119 78.4524 206.657 80.6669 202.731L110.279 149.762C110.608 149.173 111.082 148.684 111.652 148.344C112.222 148.004 112.869 147.825 113.527 147.825C114.186 147.825 114.833 148.004 115.403 148.344C115.973 148.684 116.447 149.173 116.776 149.762L145.792 201.664C148.049 205.702 149.237 210.282 149.237 214.944C149.237 219.607 148.049 224.187 145.792 228.225C143.534 232.263 140.288 235.616 136.378 237.947C132.468 240.278 128.033 241.505 123.518 241.505Z" fill="#2F2E41"/>
<path d="M120.477 121.651C122.385 121.596 124.76 121.528 126.589 120.148C127.134 119.72 127.581 119.174 127.9 118.549C128.219 117.924 128.402 117.234 128.436 116.528C128.469 116.026 128.389 115.524 128.203 115.059C128.017 114.595 127.729 114.181 127.362 113.85C126.407 113.016 125.012 112.821 123.508 113.277L125.066 101.52L123.922 101.358L122.091 115.18L123.046 114.727C124.153 114.203 125.673 113.936 126.617 114.76C126.849 114.976 127.03 115.244 127.145 115.543C127.261 115.842 127.308 116.165 127.283 116.486C127.255 117.012 127.117 117.524 126.88 117.99C126.643 118.456 126.312 118.863 125.908 119.185C124.485 120.259 122.592 120.397 120.445 120.459L120.477 121.651Z" fill="#2F2E41"/>
<path d="M136.935 102.534H130.719V103.726H136.935V102.534Z" fill="#2F2E41"/>
<path d="M117.318 102.534H111.102V103.726H117.318V102.534Z" fill="#2F2E41"/>
<path d="M106.606 234.707C106.361 234.175 106.229 233.596 106.219 233.008L104.768 178.408C104.72 176.136 105.548 173.937 107.07 172.295C108.592 170.653 110.684 169.703 112.884 169.653C115.085 169.604 117.214 170.459 118.804 172.031C120.393 173.603 121.313 175.763 121.361 178.036L122.812 232.635C122.834 233.741 122.431 234.811 121.69 235.61C120.949 236.409 119.932 236.872 118.861 236.897L110.345 237.088C109.566 237.105 108.799 236.889 108.136 236.467C107.472 236.044 106.941 235.433 106.606 234.707Z" fill="#FFB7B7"/>
<path d="M110.799 86.4218C114.375 91.2515 120.052 94.4914 126.052 93.7243C131.766 92.9938 136.479 88.881 137.662 82.9927C138.178 80.2088 138.039 77.3375 137.256 74.6209C136.473 71.9042 135.069 69.4217 133.162 67.3827C129.118 62.9898 123.33 60.6268 117.601 59.8165C106.749 58.2815 95.603 62.2295 87.3975 69.5926C83.2767 73.2531 79.9875 77.8064 77.7638 82.9286C75.6217 88.0129 74.6015 93.5256 74.7772 99.0674C75.0925 110.019 79.7376 120.95 87.7525 128.213C88.7479 129.112 89.7898 129.955 90.8736 130.738C91.7877 131.4 92.6538 129.851 91.7475 129.194C83.5396 123.247 78.3042 113.572 76.8673 103.405C76.1147 98.2825 76.4503 93.0523 77.8508 88.0772C79.2512 83.102 81.683 78.5011 84.9775 74.5937C91.6052 66.8109 101.323 61.7523 111.388 61.299C121.516 60.8429 134.173 65.5125 136.068 77.1557C136.917 82.3743 135.028 87.8598 130.398 90.4724C125.44 93.2697 119.361 92.1185 115.1 88.5059C114.057 87.6248 113.115 86.6227 112.294 85.5193C111.626 84.6174 110.122 85.5071 110.799 86.4218Z" fill="#2F2E41"/>
<path d="M408.637 7.05502L158.914 44.3105L176.032 166.688L425.755 129.433L408.637 7.05502Z" fill="#F1F1F1"/>
<path d="M402.965 18.6144L167.523 53.7393L181.805 155.843L417.247 120.718L402.965 18.6144Z" fill="white"/>
<path d="M407.536 0.000337413L157.812 37.2559L159.345 48.2122L409.068 10.9567L407.536 0.000337413Z" fill="#E5E5E5"/>
<path d="M166.604 44.5733C167.701 44.5733 168.591 43.6547 168.591 42.5215C168.591 41.3883 167.701 40.4697 166.604 40.4697C165.507 40.4697 164.617 41.3883 164.617 42.5215C164.617 43.6547 165.507 44.5733 166.604 44.5733Z" fill="white"/>
<path d="M174.065 43.46C175.162 43.46 176.052 42.5414 176.052 41.4082C176.052 40.2751 175.162 39.3564 174.065 39.3564C172.968 39.3564 172.078 40.2751 172.078 41.4082C172.078 42.5414 172.968 43.46 174.065 43.46Z" fill="white"/>
<path d="M181.526 42.3468C182.623 42.3468 183.513 41.4281 183.513 40.295C183.513 39.1618 182.623 38.2432 181.526 38.2432C180.429 38.2432 179.539 39.1618 179.539 40.295C179.539 41.4281 180.429 42.3468 181.526 42.3468Z" fill="white"/>
<path d="M466.003 59.7109H213.688V183.359H466.003V59.7109Z" fill="#E6E6E6"/>
<path d="M458.784 70.3145H220.898V173.478H458.784V70.3145Z" fill="white"/>
<path d="M465.894 52.5674H213.578V63.6374H465.894V52.5674Z" fill="#CBCBCB"/>
<path d="M221.541 61.128C222.639 61.128 223.528 60.2094 223.528 59.0762C223.528 57.943 222.639 57.0244 221.541 57.0244C220.444 57.0244 219.555 57.943 219.555 59.0762C219.555 60.2094 220.444 61.128 221.541 61.128Z" fill="white"/>
<path d="M229.081 61.128C230.178 61.128 231.067 60.2094 231.067 59.0762C231.067 57.943 230.178 57.0244 229.081 57.0244C227.983 57.0244 227.094 57.943 227.094 59.0762C227.094 60.2094 227.983 61.128 229.081 61.128Z" fill="white"/>
<path d="M236.627 61.128C237.725 61.128 238.614 60.2094 238.614 59.0762C238.614 57.943 237.725 57.0244 236.627 57.0244C235.53 57.0244 234.641 57.943 234.641 59.0762C234.641 60.2094 235.53 61.128 236.627 61.128Z" fill="white"/>
<path d="M391.48 85.999H357.977V88.5997H391.48V85.999Z" fill="#E6E6E6"/>
<path d="M409.713 93.6328H357.977V96.2334H409.713V93.6328Z" fill="#E6E6E6"/>
<path d="M400.68 100.904H358.516V103.505H400.68V100.904Z" fill="#E6E6E6"/>
<path d="M382.591 108.882H357.977V111.482H382.591V108.882Z" fill="#E6E6E6"/>
<path d="M395.126 116.675H357.977V119.275H395.126V116.675Z" fill="#E6E6E6"/>
<path d="M346.806 85.1807H342.703V89.4174H346.806V85.1807Z" fill="#E6E6E6"/>
<path d="M346.806 92.8154H342.703V97.0522H346.806V92.8154Z" fill="#E6E6E6"/>
<path d="M346.806 100.086H342.703V104.323H346.806V100.086Z" fill="#E6E6E6"/>
<path d="M346.806 108.064H342.703V112.301H346.806V108.064Z" fill="#E6E6E6"/>
<path d="M346.806 115.856H342.703V120.093H346.806V115.856Z" fill="#E6E6E6"/>
<path d="M391.48 124.516H357.977V127.116H391.48V124.516Z" fill="#E6E6E6"/>
<path d="M409.713 132.15H357.977V134.751H409.713V132.15Z" fill="#E6E6E6"/>
<path d="M400.68 139.422H358.516V142.022H400.68V139.422Z" fill="#E6E6E6"/>
<path d="M382.591 147.399H357.977V150H382.591V147.399Z" fill="#E6E6E6"/>
<path d="M395.126 155.192H357.977V157.793H395.126V155.192Z" fill="#E6E6E6"/>
<path d="M346.806 123.698H342.703V127.935H346.806V123.698Z" fill="#E6E6E6"/>
<path d="M346.806 131.333H342.703V135.57H346.806V131.333Z" fill="#E6E6E6"/>
<path d="M346.806 138.604H342.703V142.84H346.806V138.604Z" fill="#E6E6E6"/>
<path d="M346.806 146.581H342.703V150.818H346.806V146.581Z" fill="#E6E6E6"/>
<path d="M346.806 154.374H342.703V158.611H346.806V154.374Z" fill="#E6E6E6"/>
<path d="M285.495 144.915H251.992V147.516H285.495V144.915Z" fill="#E6E6E6"/>
<path d="M289.672 151.673H247.508V154.273H289.672V151.673Z" fill="#E6E6E6"/>
<path d="M290.52 112.109C290.518 116.018 289.535 119.86 287.667 123.259C285.798 126.658 283.108 129.498 279.859 131.503C276.61 133.508 272.913 134.608 269.129 134.696C265.346 134.784 261.604 133.857 258.271 132.006L258.267 132.001C254.862 130.107 252.004 127.314 249.985 123.908C247.965 120.502 246.856 116.603 246.771 112.61C246.685 108.617 247.627 104.672 249.498 101.177C251.37 97.6815 254.105 94.7612 257.426 92.7133C260.746 90.6655 264.533 89.5632 268.4 89.519C272.267 89.4747 276.077 90.49 279.441 92.4614C282.804 94.4327 285.601 97.2897 287.548 100.741C289.494 104.193 290.519 108.115 290.52 112.109Z" fill="#E6E6E6"/>
<path d="M268.751 111.013C272.036 111.013 274.698 108.264 274.698 104.872C274.698 101.48 272.036 98.7305 268.751 98.7305C265.467 98.7305 262.805 101.48 262.805 104.872C262.805 108.264 265.467 111.013 268.751 111.013Z" fill="white"/>
<path d="M278.906 123.703C272.258 126.113 265.009 126.084 258.379 123.621L258.375 123.618L262.805 114.586H274.699L278.906 123.703Z" fill="white"/>
<path d="M202.907 168.187C192.542 168.187 184.109 158.936 184.109 147.565C184.109 136.194 192.542 126.942 202.907 126.942C213.273 126.942 221.705 136.194 221.705 147.565C221.705 158.936 213.273 168.187 202.907 168.187ZM202.907 132.153C195.324 132.153 189.155 139.067 189.155 147.565C189.155 156.063 195.324 162.977 202.907 162.977C210.491 162.977 216.66 156.063 216.66 147.565C216.66 139.067 210.491 132.153 202.907 132.153Z" fill="#22D497"/>
<path d="M220.709 204.127H185.107C181.968 204.123 178.958 202.834 176.738 200.541C174.518 198.249 173.269 195.14 173.266 191.898V155.833C173.268 153.613 174.123 151.485 175.643 149.915C177.163 148.345 179.223 147.462 181.373 147.46H224.444C226.593 147.462 228.654 148.345 230.174 149.915C231.694 151.485 232.549 153.613 232.551 155.833V191.898C232.548 195.14 231.299 198.249 229.079 200.541C226.859 202.834 223.849 204.123 220.709 204.127Z" fill="#22D497"/>
<path d="M209.852 167.977C209.853 166.703 209.525 165.452 208.902 164.353C208.279 163.254 207.384 162.346 206.309 161.723C205.233 161.1 204.016 160.784 202.783 160.808C201.55 160.832 200.345 161.195 199.293 161.86C198.241 162.525 197.38 163.467 196.798 164.59C196.216 165.713 195.934 166.975 195.982 168.248C196.029 169.521 196.405 170.757 197.069 171.83C197.733 172.903 198.662 173.774 199.761 174.353V185.563H206.068V174.353C207.206 173.754 208.162 172.841 208.83 171.716C209.498 170.591 209.852 169.297 209.852 167.977Z" fill="white"/>
<path d="M220.461 298H0.577124C0.424061 298 0.277267 297.937 0.169035 297.825C0.0608035 297.713 0 297.562 0 297.404C0 297.246 0.0608035 297.094 0.169035 296.982C0.277267 296.87 0.424061 296.808 0.577124 296.808H220.461C220.614 296.808 220.761 296.87 220.869 296.982C220.977 297.094 221.038 297.246 221.038 297.404C221.038 297.562 220.977 297.713 220.869 297.825C220.761 297.937 220.614 298 220.461 298Z" fill="#3F3D56"/>
</g>
<defs>
<clipPath id="clip0_792_590">
<rect width="466" height="298" fill="white"/>
</clipPath>
</defs>
</svg>
