<svg width="501" height="342" viewBox="0 0 501 342" fill="none" xmlns="http://www.w3.org/2000/svg">
<g clip-path="url(#clip0_792_1069)">
<path d="M111.018 34.2585H79.0687C75.997 34.2612 73.052 35.4444 70.88 37.5485C68.708 39.6526 67.4866 42.5055 67.4838 45.4811V79.0367C67.0754 79.0131 66.6669 78.9777 66.2644 78.9304C58.6952 78.159 51.499 75.3544 45.4871 70.833C39.4753 66.3117 34.8868 60.2532 32.2391 53.3408C29.5914 46.4283 28.9898 38.9368 30.502 31.7108C32.0142 24.4849 35.5802 17.8119 40.7978 12.4441C46.0155 7.07639 52.6774 3.22744 60.0323 1.3312C67.3872 -0.565029 75.1427 -0.433126 82.4244 1.71205C89.7061 3.85722 96.2243 7.93036 101.244 13.4722C106.264 19.0141 109.586 25.8042 110.836 33.0772C110.903 33.467 110.964 33.8628 111.018 34.2585Z" fill="#F2F2F2"/>
<path d="M488.198 33.0771H79.0699C75.6752 33.0807 72.4205 34.3887 70.02 36.7142C67.6196 39.0396 66.2693 42.1925 66.2656 45.4811V254.576C66.2693 257.865 67.6196 261.018 70.02 263.343C72.4205 265.668 75.6752 266.976 79.0699 266.98H488.198C491.593 266.976 494.848 265.668 497.248 263.343C499.649 261.018 500.999 257.865 501.003 254.576V45.4811C500.999 42.1925 499.649 39.0396 497.248 36.7142C494.848 34.3887 491.593 33.0807 488.198 33.0771ZM499.783 254.576C499.78 257.552 498.559 260.405 496.387 262.509C494.215 264.613 491.27 265.796 488.198 265.799H79.0699C75.9983 265.796 73.0533 264.613 70.8813 262.509C68.7093 260.405 67.4879 257.552 67.4851 254.576V45.4811C67.4879 42.5055 68.7093 39.6525 70.8813 37.5485C73.0533 35.4444 75.9983 34.2612 79.0699 34.2585H488.198C491.27 34.2612 494.215 35.4444 496.387 37.5485C498.559 39.6525 499.78 42.5055 499.783 45.4811V254.576Z" fill="#3F3D56"/>
<path d="M468.074 66.9636H99.1879C99.0261 66.9636 98.8711 66.9013 98.7567 66.7906C98.6424 66.6798 98.5781 66.5295 98.5781 66.3729C98.5781 66.2162 98.6424 66.066 98.7567 65.9552C98.8711 65.8445 99.0261 65.7822 99.1879 65.7822H468.074C468.236 65.7822 468.391 65.8445 468.505 65.9552C468.619 66.066 468.684 66.2162 468.684 66.3729C468.684 66.5295 468.619 66.6798 468.505 66.7906C468.391 66.9013 468.236 66.9636 468.074 66.9636Z" fill="#3F3D56"/>
<path d="M203.453 241.582C203.292 241.582 203.137 241.52 203.022 241.409C202.908 241.298 202.844 241.148 202.844 240.991V46.6629C202.844 46.5063 202.908 46.356 203.022 46.2453C203.137 46.1345 203.292 46.0723 203.453 46.0723C203.615 46.0723 203.77 46.1345 203.885 46.2453C203.999 46.356 204.063 46.5063 204.063 46.6629V240.991C204.063 241.148 203.999 241.298 203.885 241.409C203.77 241.52 203.615 241.582 203.453 241.582Z" fill="#3F3D56"/>
<path d="M295.524 241.582C295.362 241.582 295.207 241.52 295.093 241.409C294.978 241.298 294.914 241.148 294.914 240.991V46.6629C294.914 46.5063 294.978 46.356 295.093 46.2453C295.207 46.1345 295.362 46.0723 295.524 46.0723C295.686 46.0723 295.841 46.1345 295.955 46.2453C296.069 46.356 296.134 46.5063 296.134 46.6629V240.991C296.134 241.148 296.069 241.298 295.955 241.409C295.841 241.52 295.685 241.582 295.524 241.582Z" fill="#3F3D56"/>
<path d="M387.594 241.582C387.432 241.582 387.277 241.52 387.163 241.409C387.049 241.298 386.984 241.148 386.984 240.991V46.6629C386.984 46.5063 387.049 46.356 387.163 46.2453C387.277 46.1345 387.432 46.0723 387.594 46.0723C387.756 46.0723 387.911 46.1345 388.025 46.2453C388.14 46.356 388.204 46.5063 388.204 46.6629V240.991C388.204 241.148 388.14 241.298 388.025 241.409C387.911 241.52 387.756 241.582 387.594 241.582Z" fill="#3F3D56"/>
<path d="M144.258 127.931H121.978C121.251 127.93 120.553 127.65 120.039 127.151C119.525 126.653 119.235 125.977 119.234 125.273V99.8035C119.235 99.0988 119.525 98.4232 120.039 97.9249C120.553 97.4266 121.251 97.1463 121.978 97.1455H144.258C144.985 97.1463 145.683 97.4266 146.197 97.9249C146.711 98.4232 147.001 99.0988 147.001 99.8035V125.273C147.001 125.977 146.711 126.653 146.197 127.151C145.683 127.65 144.985 127.93 144.258 127.931Z" fill="#B0C4CD"/>
<path d="M175.961 200.582H153.681C152.954 200.581 152.256 200.301 151.742 199.803C151.228 199.304 150.938 198.629 150.938 197.924V172.455C150.938 171.75 151.228 171.075 151.742 170.576C152.256 170.078 152.954 169.798 153.681 169.797H175.961C176.688 169.798 177.386 170.078 177.9 170.576C178.414 171.075 178.704 171.75 178.705 172.455V197.924C178.704 198.629 178.414 199.304 177.9 199.803C177.386 200.301 176.688 200.581 175.961 200.582Z" fill="#B0C4CD"/>
<path d="M247.914 143.287H225.634C224.907 143.286 224.21 143.006 223.695 142.508C223.181 142.009 222.891 141.334 222.891 140.629V115.16C222.891 114.455 223.181 113.78 223.695 113.281C224.21 112.783 224.907 112.503 225.634 112.502H247.914C248.641 112.503 249.339 112.783 249.853 113.281C250.368 113.78 250.657 114.455 250.658 115.16V140.629C250.657 141.334 250.368 142.009 249.853 142.508C249.339 143.006 248.641 143.286 247.914 143.287Z" fill="#B0C4CD"/>
<path d="M341.203 115.526H318.923C318.196 115.526 317.499 115.245 316.984 114.747C316.47 114.249 316.181 113.573 316.18 112.868V87.3992C316.181 86.6945 316.47 86.0189 316.984 85.5206C317.499 85.0223 318.196 84.742 318.923 84.7412H341.203C341.93 84.742 342.628 85.0223 343.142 85.5206C343.657 86.0189 343.946 86.6945 343.947 87.3992V112.868C343.946 113.573 343.657 114.249 343.142 114.747C342.628 115.245 341.93 115.526 341.203 115.526Z" fill="#B0C4CD"/>
<path d="M427.172 115.526H404.892C404.165 115.526 403.467 115.245 402.953 114.747C402.439 114.249 402.149 113.573 402.148 112.868V87.3992C402.149 86.6945 402.439 86.0189 402.953 85.5206C403.467 85.0223 404.165 84.742 404.892 84.7412H427.172C427.899 84.742 428.597 85.0223 429.111 85.5206C429.625 86.0189 429.915 86.6945 429.915 87.3992V112.868C429.915 113.573 429.625 114.249 429.111 114.747C428.597 115.245 427.899 115.526 427.172 115.526Z" fill="#B0C4CD"/>
<path d="M466.805 122.614H444.525C443.798 122.613 443.1 122.333 442.586 121.835C442.071 121.337 441.782 120.661 441.781 119.956V94.4871C441.782 93.7824 442.071 93.1068 442.586 92.6085C443.1 92.1102 443.798 91.8299 444.525 91.8291H466.805C467.532 91.8299 468.229 92.1102 468.744 92.6085C469.258 93.1068 469.547 93.7824 469.548 94.4871V119.956C469.547 120.661 469.258 121.337 468.744 121.835C468.229 122.333 467.532 122.613 466.805 122.614Z" fill="#E6E6E6"/>
<path d="M449.125 168.096H426.845C426.118 168.095 425.42 167.815 424.906 167.316C424.392 166.818 424.102 166.142 424.102 165.438V139.969C424.102 139.264 424.392 138.588 424.906 138.09C425.42 137.592 426.118 137.311 426.845 137.311H449.125C449.852 137.311 450.55 137.592 451.064 138.09C451.578 138.588 451.868 139.264 451.869 139.969V165.438C451.868 166.142 451.578 166.818 451.064 167.316C450.55 167.815 449.852 168.095 449.125 168.096Z" fill="#E6E6E6"/>
<path d="M373.515 158.645H351.236C350.509 158.644 349.811 158.363 349.297 157.865C348.782 157.367 348.493 156.691 348.492 155.987V130.517C348.493 129.813 348.782 129.137 349.297 128.639C349.811 128.14 350.509 127.86 351.236 127.859H373.515C374.243 127.86 374.94 128.14 375.455 128.639C375.969 129.137 376.258 129.813 376.259 130.517V155.987C376.258 156.691 375.969 157.367 375.455 157.865C374.94 158.363 374.243 158.644 373.515 158.645Z" fill="#FF6584"/>
<path d="M330.226 168.096H307.947C307.219 168.095 306.522 167.815 306.008 167.316C305.493 166.818 305.204 166.142 305.203 165.438V139.969C305.204 139.264 305.493 138.588 306.008 138.09C306.522 137.592 307.219 137.311 307.947 137.311H330.226C330.954 137.311 331.651 137.592 332.166 138.09C332.68 138.588 332.969 139.264 332.97 139.969V165.438C332.969 166.142 332.68 166.818 332.166 167.316C331.651 167.815 330.954 168.095 330.226 168.096Z" fill="#E6E6E6"/>
<path d="M236.937 208.261H214.658C213.93 208.26 213.233 207.98 212.719 207.481C212.204 206.983 211.915 206.307 211.914 205.603V180.134C211.915 179.429 212.204 178.753 212.719 178.255C213.233 177.757 213.93 177.476 214.658 177.476H236.937C237.665 177.476 238.362 177.757 238.877 178.255C239.391 178.753 239.68 179.429 239.681 180.134V205.603C239.68 206.307 239.391 206.983 238.877 207.481C238.362 207.98 237.665 208.26 236.937 208.261Z" fill="#E6E6E6"/>
<path d="M124.133 174.593H101.853C101.126 174.592 100.428 174.312 99.9139 173.813C99.3995 173.315 99.1102 172.639 99.1094 171.935V146.466C99.1102 145.761 99.3995 145.085 99.9139 144.587C100.428 144.089 101.126 143.808 101.853 143.808H124.133C124.86 143.808 125.558 144.089 126.072 144.587C126.586 145.085 126.876 145.761 126.876 146.466V171.935C126.876 172.64 126.586 173.315 126.072 173.813C125.558 174.312 124.86 174.592 124.133 174.593Z" fill="#FF6584"/>
<path d="M186.937 127.931H164.658C163.93 127.93 163.233 127.65 162.719 127.151C162.204 126.653 161.915 125.977 161.914 125.273V99.8035C161.915 99.0988 162.204 98.4232 162.719 97.9249C163.233 97.4266 163.93 97.1463 164.658 97.1455H186.937C187.665 97.1463 188.362 97.4266 188.877 97.9249C189.391 98.4232 189.68 99.0988 189.681 99.8035V125.273C189.68 125.977 189.391 126.653 188.877 127.151C188.362 127.65 187.665 127.93 186.937 127.931Z" fill="#E6E6E6"/>
<path d="M168.701 57.2946H133.947C133.3 57.2946 132.68 57.0457 132.222 56.6026C131.765 56.1596 131.508 55.5586 131.508 54.932C131.508 54.3054 131.765 53.7044 132.222 53.2613C132.68 52.8183 133.3 52.5693 133.947 52.5693H168.701C169.348 52.5693 169.968 52.8183 170.426 53.2613C170.883 53.7044 171.14 54.3054 171.14 54.932C171.14 55.5586 170.883 56.1596 170.426 56.6026C169.968 57.0457 169.348 57.2946 168.701 57.2946Z" fill="#CCCCCC"/>
<path d="M266.865 57.2946H232.111C231.464 57.2946 230.844 57.0457 230.386 56.6026C229.929 56.1596 229.672 55.5586 229.672 54.932C229.672 54.3054 229.929 53.7044 230.386 53.2613C230.844 52.8183 231.464 52.5693 232.111 52.5693H266.865C267.512 52.5693 268.133 52.8183 268.59 53.2613C269.047 53.7044 269.304 54.3054 269.304 54.932C269.304 55.5586 269.047 56.1596 268.59 56.6026C268.133 57.0457 267.512 57.2946 266.865 57.2946Z" fill="#CCCCCC"/>
<path d="M358.936 57.2946H324.181C323.534 57.2946 322.914 57.0457 322.457 56.6026C321.999 56.1596 321.742 55.5586 321.742 54.932C321.742 54.3054 321.999 53.7044 322.457 53.2613C322.914 52.8183 323.534 52.5693 324.181 52.5693H358.936C359.583 52.5693 360.203 52.8183 360.66 53.2613C361.118 53.7044 361.375 54.3054 361.375 54.932C361.375 55.5586 361.118 56.1596 360.66 56.6026C360.203 57.0457 359.583 57.2946 358.936 57.2946Z" fill="#CCCCCC"/>
<path d="M444.904 57.2946H410.15C409.503 57.2946 408.883 57.0457 408.425 56.6026C407.968 56.1596 407.711 55.5586 407.711 54.932C407.711 54.3054 407.968 53.7044 408.425 53.2613C408.883 52.8183 409.503 52.5693 410.15 52.5693H444.904C445.551 52.5693 446.172 52.8183 446.629 53.2613C447.086 53.7044 447.343 54.3054 447.343 54.932C447.343 55.5586 447.086 56.1596 446.629 56.6026C446.172 57.0457 445.551 57.2946 444.904 57.2946Z" fill="#CCCCCC"/>
<path d="M90.8557 230.294C89.9636 230.21 89.1015 229.937 88.3301 229.494C87.5588 229.052 86.8969 228.451 86.3912 227.734C85.8854 227.018 85.5481 226.202 85.4029 225.345C85.2578 224.488 85.3083 223.611 85.551 222.775L69.9219 208.681L78.1854 206.65L93.5541 218.726C94.9766 219.214 96.165 220.19 96.8939 221.47C97.6229 222.751 97.8418 224.245 97.5092 225.671C97.1765 227.097 96.3155 228.355 95.0892 229.208C93.863 230.06 92.3566 230.446 90.8557 230.294Z" fill="#FFB8B8"/>
<path d="M112.439 334.465H119.914L123.47 306.534H112.438L112.439 334.465Z" fill="#FFB8B8"/>
<path d="M134.328 341.188L110.835 341.19L110.834 332.396L125.251 332.396C127.658 332.396 129.967 333.322 131.669 334.971C133.372 336.62 134.328 338.856 134.328 341.188Z" fill="#2F2E41"/>
<path d="M61.1797 329.237L68.4038 331.1L79.2575 304.995L68.5964 302.246L61.1797 329.237Z" fill="#FFB8B8"/>
<path d="M80.5547 341.19L57.8519 335.336L60.1867 326.839L74.118 330.431C76.4443 331.031 78.4294 332.502 79.6365 334.52C80.8436 336.537 81.1739 338.937 80.5547 341.19Z" fill="#2F2E41"/>
<path d="M121.92 329.177H110.514C109.793 329.179 109.098 328.921 108.565 328.451C108.031 327.982 107.699 327.336 107.632 326.641L100.708 256.983C100.657 256.472 100.424 255.994 100.05 255.631C99.6756 255.268 99.1825 255.042 98.6551 254.992C98.1278 254.942 97.5989 255.072 97.159 255.358C96.7191 255.644 96.3956 256.069 96.2438 256.561L76.1389 321.652C75.9263 322.344 75.4461 322.929 74.7986 323.287C74.1511 323.644 73.3862 323.745 72.6635 323.569L62.0523 320.999C61.682 320.909 61.3336 320.75 61.0272 320.529C60.7208 320.308 60.4625 320.031 60.2672 319.713C60.0718 319.396 59.9432 319.044 59.8889 318.678C59.8345 318.312 59.8554 317.939 59.9504 317.581C60.1237 316.925 77.2732 252 77.423 251.333C81.3087 223.591 85.9574 216.157 88.4548 212.163C88.6616 211.833 88.8515 211.529 89.0226 211.242C89.2366 210.882 90.5545 207.317 91.3905 205.002C91.499 204.625 91.687 204.274 91.9426 203.971C92.1981 203.669 92.5157 203.421 92.8752 203.243C103.369 198.044 115.647 201.643 119.16 202.87C119.743 203.068 120.243 203.445 120.586 203.942C131.125 219.341 125.953 308.78 124.809 326.553C124.761 327.264 124.436 327.93 123.9 328.418C123.363 328.905 122.655 329.177 121.92 329.177Z" fill="#2F2E41"/>
<path d="M92.4834 152.737C100.754 152.737 107.459 146.242 107.459 138.23C107.459 130.218 100.754 123.723 92.4834 123.723C84.2126 123.723 77.5078 130.218 77.5078 138.23C77.5078 146.242 84.2126 152.737 92.4834 152.737Z" fill="#FFB8B8"/>
<path d="M90.9031 207.817L90.7955 207.717C90.5937 207.527 70.6405 188.591 73.2228 171.081C74.3272 163.592 80.5824 158.806 91.3121 157.241C95.2539 156.674 99.2746 157.504 102.635 159.579C105.996 161.654 108.47 164.834 109.604 168.535L120.213 203.671L90.9031 207.817Z" fill="#CCCCCC"/>
<path d="M80.6907 221.286L66.4728 207.6C65.5007 206.659 64.7949 205.491 64.4233 204.21C64.0517 202.928 64.0269 201.575 64.3511 200.281L71.2341 173.158C71.4403 172.346 71.8165 171.582 72.3393 170.916C72.8622 170.25 73.5207 169.695 74.274 169.285C75.0273 168.875 75.8594 168.62 76.7188 168.534C77.5782 168.448 78.4466 168.535 79.2703 168.787C80.8402 169.277 82.1515 170.34 82.9265 171.751C83.7014 173.161 83.8791 174.809 83.422 176.344L76.1757 200.205L87.8936 212.394L80.6907 221.286Z" fill="#CCCCCC"/>
<path d="M156.946 174.578C156.57 175.366 156.021 176.065 155.336 176.625C154.651 177.185 153.847 177.593 152.982 177.82C152.117 178.047 151.211 178.087 150.328 177.938C149.445 177.789 148.606 177.454 147.871 176.957L128.891 186.487L129.73 178.392L146.556 168.304C147.5 167.163 148.843 166.397 150.33 166.151C151.818 165.906 153.347 166.197 154.628 166.97C155.908 167.744 156.852 168.945 157.279 170.347C157.706 171.749 157.588 173.255 156.946 174.578Z" fill="#FFB8B8"/>
<path d="M145.799 180.604L127.296 188.349C126.065 188.861 124.718 189.057 123.385 188.918C122.053 188.78 120.78 188.312 119.688 187.559L96.1597 171.227C95.4575 170.74 94.866 170.118 94.4218 169.4C93.9776 168.683 93.6903 167.884 93.5775 167.054C93.4647 166.225 93.5289 165.381 93.766 164.577C94.0032 163.772 94.4083 163.023 94.9564 162.376C96.0094 161.146 97.5154 160.361 99.1553 160.188C100.795 160.016 102.44 160.468 103.742 161.45L123.917 176.832L139.953 170.822L145.799 180.604Z" fill="#CCCCCC"/>
<path d="M94.9666 142.878C96.8141 140.636 100.266 140.515 102.803 139.036C106.127 137.099 107.502 132.769 106.431 129.157C105.359 125.545 102.2 122.73 98.5782 121.383C94.9562 120.037 90.9265 120.02 87.1056 120.671C81.4167 121.64 75.8158 124.212 72.3462 128.686C68.8765 133.159 67.9936 139.711 71.138 144.405C72.5832 146.562 74.8142 148.343 75.3912 150.853C76.1486 154.149 73.7623 157.327 71.2058 159.622C68.2933 162.237 64.9519 164.426 62.4002 167.374C59.8485 170.321 58.1469 174.347 59.3113 178.024C60.2869 181.106 63.1257 183.376 66.2387 184.512C69.3517 185.649 72.7421 185.813 76.0683 185.876C79.2981 185.938 82.7287 185.862 85.4496 184.174C88.3623 182.368 89.9176 178.942 90.0325 175.594C90.1474 172.246 88.9924 168.965 87.4444 165.969C86.5217 164.184 85.4489 162.453 84.8358 160.547C84.2228 158.64 84.1165 156.477 85.0984 154.721C86.1305 152.876 88.2184 151.763 90.3446 151.358C90.455 151.337 90.5719 151.318 90.6941 151.301C91.2991 151.225 91.8818 151.031 92.4071 150.731C92.9324 150.43 93.3893 150.03 93.7503 149.554C94.1113 149.077 94.3688 148.535 94.5072 147.959C94.6456 147.384 94.6621 146.787 94.5557 146.205C94.3135 144.897 94.3344 143.646 94.9666 142.878Z" fill="#2F2E41"/>
<path d="M294.641 335.084H287.165L283.609 307.152L294.642 307.153L294.641 335.084Z" fill="#A0616A"/>
<path d="M281.827 333.015H296.243V341.808H272.75C272.75 340.653 272.985 339.51 273.441 338.443C273.897 337.376 274.566 336.407 275.409 335.59C276.251 334.774 277.252 334.126 278.353 333.684C279.455 333.242 280.635 333.015 281.827 333.015Z" fill="#2F2E41"/>
<path d="M348.874 326.881L342.075 329.89L326.859 305.915L336.895 301.475L348.874 326.881Z" fill="#A0616A"/>
<path d="M336.335 330.156L349.448 324.354L353.219 332.352L331.849 341.808C331.354 340.758 331.077 339.623 331.035 338.469C330.992 337.315 331.184 336.164 331.601 335.082C332.017 334 332.65 333.008 333.462 332.163C334.274 331.318 335.25 330.636 336.335 330.156Z" fill="#2F2E41"/>
<path d="M327.106 240.906C327.822 240.384 328.412 239.716 328.833 238.949C329.254 238.183 329.496 237.336 329.542 236.469C329.589 235.602 329.439 234.735 329.102 233.93C328.766 233.126 328.251 232.402 327.595 231.811L336.382 212.496L325.219 214.329L318.586 232.389C317.633 233.523 317.143 234.957 317.209 236.417C317.274 237.878 317.891 239.264 318.941 240.314C319.991 241.364 321.403 242.004 322.908 242.113C324.412 242.222 325.906 241.793 327.106 240.906Z" fill="#A0616A"/>
<path d="M294.162 327.719H287.021C286.328 327.716 285.662 327.461 285.155 327.005C284.648 326.548 284.337 325.922 284.284 325.253L280.39 224.511C280.361 224.125 280.419 223.737 280.561 223.375C280.703 223.013 280.925 222.686 281.211 222.415C281.497 222.145 281.84 221.939 282.217 221.81C282.594 221.682 282.995 221.635 283.393 221.673L324.693 225.922C325.362 225.985 325.984 226.284 326.441 226.763C326.898 227.241 327.157 227.865 327.17 228.517L328.035 272.956C328.04 273.197 328.088 273.435 328.178 273.66L345.119 316.219C345.25 316.548 345.312 316.899 345.302 317.251C345.292 317.603 345.209 317.95 345.059 318.271C344.909 318.592 344.695 318.881 344.429 319.121C344.162 319.361 343.849 319.548 343.508 319.669L336.271 322.252C335.643 322.476 334.951 322.47 334.327 322.235C333.703 321.999 333.189 321.551 332.883 320.974L312.071 281.772C311.958 281.559 311.875 281.332 311.825 281.097L308.27 264.503C308.166 264.022 307.89 263.592 307.489 263.291C307.089 262.989 306.59 262.836 306.084 262.858C305.577 262.881 305.095 263.077 304.724 263.412C304.353 263.747 304.118 264.2 304.06 264.688L296.888 325.363C296.812 326.012 296.492 326.61 295.989 327.044C295.486 327.479 294.836 327.719 294.162 327.719Z" fill="#2F2E41"/>
<path d="M297.718 145.739C305.989 145.739 312.693 139.244 312.693 131.232C312.693 123.22 305.989 116.725 297.718 116.725C289.447 116.725 282.742 123.22 282.742 131.232C282.742 139.244 289.447 145.739 297.718 145.739Z" fill="#A0616A"/>
<path d="M307.991 233.722C297.836 233.614 287.922 230.705 279.411 225.336L279.266 225.238L279.281 225.067L285.009 160.439C285.207 158.247 286.217 156.197 287.853 154.671C289.49 153.144 291.641 152.242 293.91 152.134C301.335 151.803 311.307 152.22 316.645 156.071C324.712 161.892 328.6 170.657 327.312 180.119C324.642 199.74 327.667 226.208 328.021 229.161L328.046 229.374L327.845 229.463C321.626 232.266 314.85 233.72 307.991 233.722Z" fill="#B0C4CD"/>
<path d="M327.949 229.27C327.527 229.27 327.109 229.184 326.723 229.019C326.337 228.854 325.99 228.613 325.705 228.312L322.429 224.85C322.075 224.474 321.827 224.016 321.708 223.52C321.59 223.024 321.605 222.507 321.753 222.018L329.222 197.527L317.857 174.406C317.326 173.324 317.196 172.097 317.489 170.933C317.747 169.911 318.318 168.989 319.128 168.288C319.938 167.588 320.948 167.141 322.026 167.008C323.103 166.874 324.196 167.061 325.162 167.542C326.128 168.023 326.921 168.776 327.435 169.702L342.858 193.944C343.485 194.928 343.853 196.045 343.929 197.199C344.006 198.352 343.789 199.506 343.297 200.559L330.731 227.531C330.524 227.977 330.206 228.366 329.805 228.663C329.404 228.96 328.933 229.156 328.434 229.232C328.274 229.257 328.112 229.27 327.949 229.27Z" fill="#B0C4CD"/>
<path d="M222.393 182.488C223.112 183.006 223.94 183.365 224.818 183.54C225.696 183.714 226.602 183.701 227.474 183.499C228.346 183.298 229.162 182.913 229.864 182.374C230.566 181.834 231.137 181.151 231.538 180.374L253.145 183.089L248.179 173.232L228.422 172.165C227.03 171.6 225.472 171.549 224.045 172.023C222.617 172.496 221.417 173.46 220.674 174.732C219.931 176.004 219.696 177.497 220.012 178.926C220.329 180.355 221.176 181.623 222.393 182.488Z" fill="#A0616A"/>
<path d="M270.016 187.871C269.64 187.871 269.264 187.846 268.891 187.796L234.898 183.228C234.343 183.154 233.815 182.948 233.363 182.627C232.91 182.306 232.547 181.881 232.307 181.391C232.229 181.233 232.164 181.069 232.113 180.901C231.981 180.465 231.944 180.007 232.005 179.557C232.065 179.106 232.221 178.672 232.463 178.283L235.276 173.765C235.579 173.282 236.005 172.883 236.512 172.605C237.02 172.327 237.593 172.181 238.176 172.179H238.181L267.811 172.212L289.941 153.005C290.97 152.114 292.285 151.592 293.664 151.529C294.875 151.474 296.075 151.777 297.105 152.396C298.135 153.016 298.947 153.923 299.434 154.999C299.921 156.075 300.059 157.268 299.832 158.422C299.604 159.575 299.021 160.635 298.16 161.461L276.078 185.252C275.314 186.076 274.379 186.735 273.335 187.186C272.291 187.638 271.16 187.871 270.016 187.871Z" fill="#B0C4CD"/>
<path d="M299.422 144.139C300.79 141.07 301.948 136.984 299.324 134.815C297.801 133.557 295.608 133.554 293.613 133.398C287.993 132.957 282.208 130.451 279.461 125.681C276.714 120.911 278.248 113.818 283.43 111.666C286.924 110.215 290.928 111.204 294.585 112.208L305.564 115.224C308.826 116.12 312.251 117.108 314.599 119.478C318.345 123.256 318.065 129.644 315.09 134.019C312.115 138.393 307.635 142.956 302.506 144.617L299.422 144.139Z" fill="#2F2E41"/>
<path d="M450.888 342H0.728101C0.632584 342.001 0.537956 341.983 0.449631 341.947C0.361306 341.912 0.281028 341.86 0.21339 341.795C0.145752 341.73 0.0920853 341.652 0.0554688 341.567C0.0188523 341.481 0 341.39 0 341.297C0 341.205 0.0188523 341.113 0.0554688 341.027C0.0920853 340.942 0.145752 340.864 0.21339 340.799C0.281028 340.734 0.361306 340.682 0.449631 340.647C0.537956 340.611 0.632584 340.593 0.728101 340.594H450.888C450.983 340.593 451.078 340.611 451.166 340.647C451.254 340.682 451.335 340.734 451.402 340.799C451.47 340.864 451.523 340.942 451.56 341.027C451.597 341.113 451.616 341.205 451.616 341.297C451.616 341.39 451.597 341.481 451.56 341.567C451.523 341.652 451.47 341.73 451.402 341.795C451.335 341.86 451.254 341.912 451.166 341.947C451.078 341.983 450.983 342.001 450.888 342Z" fill="#3F3D56"/>
</g>
<defs>
<clipPath id="clip0_792_1069">
<rect width="501" height="342" fill="white"/>
</clipPath>
</defs>
</svg>
