<svg width="478" height="412" viewBox="0 0 478 412" fill="none" xmlns="http://www.w3.org/2000/svg">
<g clip-path="url(#clip0_792_548)">
<path d="M442.573 381.839L455.449 377.783C457.054 370.92 456.947 363.772 455.139 356.96C449.966 368.382 434.789 371.181 426.142 380.297C423.467 383.161 421.475 386.586 420.314 390.319C419.153 394.051 418.853 397.995 419.436 401.858L416.727 410.984C423.054 410.447 429.188 408.554 434.708 405.436C440.227 402.319 445 398.049 448.699 392.923C450.744 390.027 452.415 386.886 453.671 383.576C448.18 383.03 442.573 381.839 442.573 381.839Z" fill="#F2F2F2"/>
<path d="M428.812 364.965L438.515 355.632C436.869 348.779 433.564 342.428 428.886 337.132C429.386 349.646 417.059 358.872 413.413 370.862C412.305 374.61 412.061 378.558 412.698 382.412C413.335 386.267 414.837 389.93 417.094 393.13L418.767 402.498C424.189 399.215 428.83 394.804 432.37 389.569C435.91 384.334 438.265 378.399 439.273 372.173C439.803 368.674 439.888 365.123 439.525 361.604C434.365 363.547 428.812 364.965 428.812 364.965Z" fill="#F2F2F2"/>
<path d="M364.311 27.3555H1.4129C1.03545 27.3476 0.676157 27.1931 0.412038 26.9252C0.147918 26.6573 0 26.2973 0 25.9224C0 25.5475 0.147918 25.1875 0.412038 24.9196C0.676157 24.6517 1.03545 24.4972 1.4129 24.4893H364.311C364.689 24.4972 365.048 24.6517 365.312 24.9196C365.576 25.1875 365.724 25.5475 365.724 25.9224C365.724 26.2973 365.576 26.6573 365.312 26.9252C365.048 27.1931 364.689 27.3476 364.311 27.3555Z" fill="#3F3D56"/>
<path d="M26.1138 17.172C30.7847 17.172 34.5713 13.3279 34.5713 8.58598C34.5713 3.84407 30.7847 0 26.1138 0C21.4428 0 17.6562 3.84407 17.6562 8.58598C17.6562 13.3279 21.4428 17.172 26.1138 17.172Z" fill="#3F3D56"/>
<path d="M55.3325 17.172C60.0035 17.172 63.79 13.3279 63.79 8.58598C63.79 3.84407 60.0035 0 55.3325 0C50.6616 0 46.875 3.84407 46.875 8.58598C46.875 13.3279 50.6616 17.172 55.3325 17.172Z" fill="#3F3D56"/>
<path d="M84.5513 17.172C89.2222 17.172 93.0088 13.3279 93.0088 8.58598C93.0088 3.84407 89.2222 0 84.5513 0C79.8803 0 76.0938 3.84407 76.0938 8.58598C76.0938 13.3279 79.8803 17.172 84.5513 17.172Z" fill="#3F3D56"/>
<path d="M346.716 2.12793H325.962C325.551 2.13606 325.159 2.30405 324.871 2.59583C324.583 2.8876 324.422 3.27989 324.422 3.68848C324.422 4.09706 324.583 4.48936 324.871 4.78113C325.159 5.07291 325.551 5.2409 325.962 5.24903H346.716C347.128 5.2409 347.52 5.07291 347.808 4.78113C348.096 4.48936 348.257 4.09706 348.257 3.68848C348.257 3.27989 348.096 2.8876 347.808 2.59583C347.52 2.30405 347.128 2.13606 346.716 2.12793Z" fill="#3F3D56"/>
<path d="M346.717 7.98633H325.963C325.551 7.99441 325.159 8.16238 324.871 8.45416C324.583 8.74594 324.422 9.13826 324.422 9.54688C324.422 9.9555 324.583 10.3478 324.871 10.6396C325.159 10.9314 325.551 11.0993 325.963 11.1074H346.717C347.128 11.0993 347.52 10.9314 347.808 10.6396C348.096 10.3478 348.257 9.9555 348.257 9.54688C348.257 9.13826 348.096 8.74594 347.808 8.45416C347.52 8.16238 347.128 7.99441 346.717 7.98633Z" fill="#3F3D56"/>
<path d="M346.717 13.8359H325.963C325.551 13.844 325.159 14.012 324.871 14.3038C324.583 14.5955 324.422 14.9879 324.422 15.3965C324.422 15.8051 324.583 16.1974 324.871 16.4892C325.159 16.781 325.551 16.949 325.963 16.957H346.717C347.128 16.949 347.52 16.781 347.808 16.4892C348.096 16.1974 348.257 15.8051 348.257 15.3965C348.257 14.9879 348.096 14.5955 347.808 14.3038C347.52 14.012 347.128 13.844 346.717 13.8359Z" fill="#3F3D56"/>
<path d="M28.1123 85.5824C33.887 85.5824 38.5684 80.9335 38.5684 75.1989C38.5684 69.4643 33.887 64.8154 28.1123 64.8154C22.3376 64.8154 17.6562 69.4643 17.6562 75.1989C17.6562 80.9335 22.3376 85.5824 28.1123 85.5824Z" fill="#E6E7E8"/>
<path d="M294.377 98.1918H20.7698C19.9441 98.1918 19.1521 97.866 18.5682 97.2862C17.9843 96.7063 17.6562 95.9199 17.6562 95.0998C17.6562 94.2798 17.9843 93.4933 18.5682 92.9134C19.1521 92.3336 19.9441 92.0078 20.7698 92.0078H294.377C295.203 92.0078 295.995 92.3336 296.579 92.9134C297.163 93.4933 297.491 94.2798 297.491 95.0998C297.491 95.9199 297.163 96.7063 296.579 97.2862C295.995 97.866 295.203 98.1918 294.377 98.1918Z" fill="#E6E7E8"/>
<path d="M222.619 110.409H20.77C19.9442 110.409 19.1522 110.083 18.5683 109.503C17.9843 108.923 17.6562 108.137 17.6562 107.317C17.6562 106.497 17.9843 105.71 18.5683 105.13C19.1522 104.55 19.9442 104.225 20.77 104.225H222.619C223.445 104.225 224.237 104.55 224.821 105.13C225.405 105.71 225.733 106.497 225.733 107.317C225.733 108.137 225.405 108.923 224.821 109.503C224.237 110.083 223.445 110.409 222.619 110.409Z" fill="#E6E7E8"/>
<path d="M28.1123 247.652C33.887 247.652 38.5684 243.003 38.5684 237.268C38.5684 231.534 33.887 226.885 28.1123 226.885C22.3376 226.885 17.6562 231.534 17.6562 237.268C17.6562 243.003 22.3376 247.652 28.1123 247.652Z" fill="#E6E7E8"/>
<path d="M294.374 260.261H20.767C20.3577 260.262 19.9523 260.182 19.574 260.027C19.1956 259.872 18.8518 259.644 18.5622 259.357C18.2725 259.07 18.0427 258.729 17.8859 258.354C17.7291 257.978 17.6484 257.576 17.6484 257.169C17.6484 256.763 17.7291 256.36 17.8859 255.985C18.0427 255.609 18.2725 255.268 18.5622 254.981C18.8518 254.694 19.1956 254.466 19.574 254.311C19.9523 254.156 20.3577 254.077 20.767 254.077H294.374C295.242 254.125 296.06 254.493 296.668 255.11C297.276 255.726 297.63 256.545 297.661 257.408C297.635 257.81 297.53 258.203 297.35 258.565C297.171 258.926 296.921 259.249 296.616 259.514C296.31 259.779 295.955 259.982 295.57 260.11C295.185 260.238 294.779 260.29 294.374 260.261Z" fill="#E6E7E8"/>
<path d="M222.619 272.479H20.77C19.9442 272.479 19.1522 272.153 18.5683 271.574C17.9843 270.994 17.6562 270.207 17.6562 269.387C17.6562 268.567 17.9843 267.78 18.5683 267.201C19.1522 266.621 19.9442 266.295 20.77 266.295H222.619C223.445 266.295 224.237 266.621 224.821 267.201C225.405 267.78 225.733 268.567 225.733 269.387C225.733 270.207 225.405 270.994 224.821 271.574C224.237 272.153 223.445 272.479 222.619 272.479Z" fill="#E6E7E8"/>
<path d="M28.1123 160.508C33.887 160.508 38.5684 155.859 38.5684 150.125C38.5684 144.39 33.887 139.741 28.1123 139.741C22.3376 139.741 17.6562 144.39 17.6562 150.125C17.6562 155.859 22.3376 160.508 28.1123 160.508Z" fill="#E6E7E8"/>
<path d="M294.377 173.118H20.7698C19.9441 173.118 19.1521 172.792 18.5682 172.212C17.9843 171.632 17.6562 170.846 17.6562 170.026C17.6562 169.206 17.9843 168.419 18.5682 167.839C19.1521 167.259 19.9441 166.934 20.7698 166.934H294.377C295.203 166.934 295.995 167.259 296.579 167.839C297.163 168.419 297.491 169.206 297.491 170.026C297.491 170.846 297.163 171.632 296.579 172.212C295.995 172.792 295.203 173.118 294.377 173.118Z" fill="#E6E7E8"/>
<path d="M256.275 185.336H20.77C19.9442 185.336 19.1522 185.01 18.5683 184.43C17.9843 183.85 17.6562 183.064 17.6562 182.244C17.6562 181.423 17.9843 180.637 18.5683 180.057C19.1522 179.477 19.9442 179.151 20.77 179.151H256.275C257.101 179.151 257.893 179.477 258.477 180.057C259.061 180.637 259.389 181.423 259.389 182.244C259.389 183.064 259.061 183.85 258.477 184.43C257.893 185.01 257.101 185.336 256.275 185.336Z" fill="#E6E7E8"/>
<path d="M240.291 197.553H20.77C19.9442 197.553 19.1522 197.228 18.5683 196.648C17.9843 196.068 17.6562 195.281 17.6562 194.461C17.6562 193.641 17.9843 192.855 18.5683 192.275C19.1522 191.695 19.9442 191.369 20.77 191.369H240.291C241.117 191.369 241.909 191.695 242.493 192.275C243.077 192.855 243.405 193.641 243.405 194.461C243.405 195.281 243.077 196.068 242.493 196.648C241.909 197.228 241.117 197.553 240.291 197.553Z" fill="#E6E7E8"/>
<path d="M244.831 334.25C287.596 334.25 322.263 299.823 322.263 257.355C322.263 214.887 287.596 180.46 244.831 180.46C202.066 180.46 167.398 214.887 167.398 257.355C167.398 299.823 202.066 334.25 244.831 334.25Z" fill="#22D497"/>
<path d="M244.726 284.184C250.835 284.184 255.788 279.266 255.788 273.199C255.788 267.132 250.835 262.214 244.726 262.214C238.617 262.214 233.664 267.132 233.664 273.199C233.664 279.266 238.617 284.184 244.726 284.184Z" fill="#3F3D56"/>
<path d="M244.73 278.269C247.55 278.269 249.836 275.999 249.836 273.199C249.836 270.399 247.55 268.129 244.73 268.129C241.911 268.129 239.625 270.399 239.625 273.199C239.625 275.999 241.911 278.269 244.73 278.269Z" fill="#B0C4CD"/>
<path d="M265.262 297.652H224.407C220.362 297.647 216.483 296.049 213.623 293.209C210.762 290.368 209.153 286.517 209.148 282.5V263.898C209.153 259.881 210.762 256.029 213.623 253.188C216.483 250.348 220.362 248.75 224.407 248.745H265.262C269.307 248.75 273.186 250.348 276.046 253.188C278.907 256.029 280.516 259.881 280.52 263.898V282.5C280.516 286.517 278.907 290.368 276.046 293.209C273.186 296.049 269.307 297.647 265.262 297.652ZM224.407 250.332C220.785 250.336 217.313 251.766 214.752 254.31C212.191 256.853 210.75 260.301 210.746 263.898V282.5C210.75 286.096 212.191 289.544 214.752 292.088C217.313 294.631 220.785 296.061 224.407 296.065H265.262C268.884 296.061 272.356 294.631 274.917 292.088C277.478 289.544 278.919 286.096 278.923 282.5V263.898C278.919 260.301 277.478 256.853 274.917 254.31C272.356 251.766 268.884 250.336 265.262 250.332L224.407 250.332Z" fill="white"/>
<path d="M221.988 287.555H258.251C260.133 287.555 261.997 287.187 263.736 286.471C265.475 285.756 267.055 284.708 268.386 283.386C269.717 282.064 270.772 280.495 271.493 278.768C272.213 277.041 272.584 275.191 272.584 273.321V257.755C272.581 256.028 272.261 254.317 271.638 252.705C273.407 254.028 274.843 255.741 275.831 257.709C276.82 259.677 277.335 261.846 277.335 264.045V279.612C277.335 281.481 276.964 283.332 276.244 285.059C275.523 286.786 274.468 288.355 273.137 289.676C271.806 290.998 270.226 292.047 268.487 292.762C266.748 293.477 264.884 293.845 263.002 293.845H226.739C223.833 293.844 220.996 292.964 218.605 291.324C216.214 289.684 214.382 287.36 213.352 284.661C215.834 286.539 218.868 287.555 221.988 287.555Z" fill="#3F3D56"/>
<path d="M333.032 401.827L324.122 401.827L319.883 367.694L333.035 367.695L333.032 401.827Z" fill="#FFB7B7"/>
<path d="M333.347 411.058L305.945 411.057V410.713C305.946 407.904 307.069 405.21 309.069 403.224C311.07 401.238 313.782 400.122 316.611 400.122L321.617 396.351L330.956 400.122L333.348 400.122L333.347 411.058Z" fill="#2F2E41"/>
<path d="M396.088 401.827L404.998 401.827L409.238 367.694L396.086 367.695L396.088 401.827Z" fill="#FFB7B7"/>
<path d="M395.774 411.058L423.176 411.057V410.713C423.176 407.904 422.052 405.21 420.052 403.224C418.051 401.238 415.339 400.122 412.51 400.122L407.504 396.351L398.165 400.122L395.773 400.122L395.774 411.058Z" fill="#2F2E41"/>
<path d="M319.494 342.612C319.625 340.665 320.672 329.894 320.672 329.894L323.178 307.052L327.595 246.503L327.884 242.539L351.023 238.128L366.838 230.599L385.635 236.566L400.272 242.017C400.272 242.017 400.297 244.35 400.41 247.169C400.56 250.858 400.824 255.382 401.45 256.558C402.497 258.636 402.233 269.793 402.233 269.793C402.233 269.793 403.273 292.492 404.583 294.981C405.893 297.47 406.156 302.653 405.761 303.692C405.366 304.731 407.071 331.991 407.071 331.991C407.071 331.991 411.445 380.231 408.7 387.505C405.956 394.779 395.585 390.014 395.585 390.014C395.585 390.014 396.087 388.073 393.079 387.158C390.071 386.243 380.911 317.841 380.911 317.841C380.911 317.841 379.207 303.816 377.64 299.797C376.074 295.777 374.633 284.484 374.633 284.484C374.633 284.484 364.958 265.792 364.833 261.635C364.833 261.635 363.567 257.747 362.37 262.027C361.174 266.308 357.646 276.563 357.646 276.563L354.206 289.157L350.158 307.973L347.539 323.815C347.539 323.815 343.617 344.84 342.99 345.748C342.364 346.657 342.99 365.865 342.99 365.865C342.99 365.865 339.958 382.223 335.672 385.08C331.386 387.936 320.031 385.125 320.031 385.125C320.031 385.125 319.362 344.56 319.494 342.612Z" fill="#2F2E41"/>
<path d="M329.369 187.316L334.514 202.704L328.166 210.208L330.961 213.064L328.899 217.102L323.523 259.426L352.998 270.527L362.923 258.169L370.749 270.527L404.854 262.251L396.156 208.279V204.751L393.701 197.937V183.514L400.185 140.58L380.83 133.848L371.576 126.574L368.581 136.803L355.83 134.551L355.498 126.866L345.742 136.02L337.527 138.346L327.69 140.58L326.437 143.692L328.943 143.07L328.536 183.546L329.369 187.316Z" fill="#2F2E41"/>
<path d="M320.552 243.618L325.502 196.036L326.808 176.453L312.953 173.965C312.953 173.965 313.502 187.967 311.687 195.868C309.896 203.664 311.449 242.573 311.56 243.614C310.543 244.517 309.825 245.706 309.503 247.024C309.181 248.341 309.269 249.724 309.756 250.991C310.242 252.257 311.105 253.347 312.229 254.116C313.353 254.885 314.685 255.297 316.05 255.298C317.415 255.299 318.748 254.888 319.873 254.12C320.998 253.352 321.861 252.263 322.349 250.997C322.837 249.731 322.926 248.347 322.605 247.03C322.285 245.712 321.568 244.523 320.552 243.618Z" fill="#FFB7B7"/>
<path d="M307.042 205.896L310.896 206.686L324.116 209.405L324.849 209.555L326.41 203.395L328.22 201.478L331.667 183.545L331.848 182.612L337.055 171.561L340.658 138.347L327.261 140.736C327.192 140.804 327.13 140.879 327.067 140.954C325.144 143.119 323.771 146.131 321.528 149.161C314.229 159.023 308.627 182.985 308.847 196.114C308.853 196.326 308.634 196.556 308.37 196.793C307.128 197.927 306.318 199.451 306.076 201.11C305.834 202.768 306.175 204.458 307.042 205.896Z" fill="#2F2E41"/>
<path d="M406.686 243.618L401.736 196.036L400.43 176.453L414.285 173.965C414.285 173.965 413.736 187.967 415.551 195.868C417.342 203.664 415.789 242.573 415.678 243.614C416.696 244.517 417.413 245.706 417.735 247.024C418.057 248.341 417.969 249.724 417.483 250.991C416.996 252.257 416.133 253.347 415.009 254.116C413.885 254.885 412.553 255.297 411.188 255.298C409.823 255.299 408.49 254.888 407.365 254.12C406.24 253.352 405.377 252.263 404.889 250.997C404.401 249.731 404.312 248.347 404.633 247.03C404.954 245.712 405.67 244.523 406.686 243.618Z" fill="#FFB7B7"/>
<path d="M420.201 205.896L416.347 206.686L403.126 209.405L402.393 209.555L400.833 203.395L399.022 201.478L395.576 183.545L395.394 182.612L390.188 171.561L391.378 138.347L399.981 140.736C400.05 140.804 400.113 140.879 400.175 140.954C402.099 143.119 403.471 146.131 405.714 149.161C413.014 159.023 418.615 182.985 418.396 196.114C418.39 196.326 418.609 196.556 418.872 196.793C420.114 197.927 420.925 199.451 421.167 201.11C421.409 202.768 421.068 204.458 420.201 205.896Z" fill="#2F2E41"/>
<path d="M349.203 143.261L355.497 126.867L371.575 126.574L376.91 143.261L396.087 249.642C396.087 249.642 337.338 265.889 337.934 246.36C338.561 225.826 341.388 198.551 341.388 198.551L349.203 143.261Z" fill="#B0C4CD"/>
<path d="M363.174 122.281C373.635 122.281 382.114 113.86 382.114 103.473C382.114 93.0849 373.635 84.6641 363.174 84.6641C352.714 84.6641 344.234 93.0849 344.234 103.473C344.234 113.86 352.714 122.281 363.174 122.281Z" fill="#FFB7B7"/>
<path d="M343.12 89.8276C346.203 86.4947 350.06 80.394 361.742 77.8321C376.177 74.6665 382.998 87.6161 379.358 87.8283C390.002 91.0293 383.164 112.904 380.113 111.07C380.086 111.052 380.061 111.032 380.037 111.011C378.396 109.811 377.019 108.291 375.989 106.544C374.959 104.798 374.299 102.861 374.048 100.852L373.469 95.6756C373.386 99.8873 369.051 100.444 364.623 98.8933C364.885 97.9699 365.384 97.1302 366.073 96.4572C366.761 95.7841 367.614 95.3009 368.548 95.0553C365.461 97.8345 361.54 99.529 357.387 99.8777C357.605 98.8232 358.047 97.827 358.684 96.9563C359.322 96.0855 360.139 95.3602 361.082 94.8291L360.907 94.6586C359.178 96.1069 357.192 97.2234 355.052 97.951C352.611 98.6458 349.686 98.2699 348.013 96.3723C347.563 95.8485 347.222 95.2405 347.013 94.5841C347.374 97.9196 345.121 101.727 343.371 101.073C341.915 100.792 341.067 92.0463 343.12 89.8276Z" fill="#2F2E41"/>
<path d="M477.998 411.056C477.998 411.18 477.974 411.303 477.926 411.418C477.879 411.533 477.809 411.637 477.72 411.725C477.632 411.812 477.527 411.882 477.411 411.929C477.296 411.976 477.172 412.001 477.047 412H253.146C252.894 412 252.652 411.901 252.474 411.724C252.295 411.547 252.195 411.307 252.195 411.056C252.195 410.806 252.295 410.566 252.474 410.389C252.652 410.212 252.894 410.112 253.146 410.112H477.047C477.172 410.112 477.296 410.136 477.411 410.183C477.527 410.231 477.632 410.3 477.72 410.388C477.809 410.476 477.879 410.58 477.926 410.695C477.974 410.809 477.998 410.932 477.998 411.056Z" fill="#CCCCCC"/>
<path d="M245.461 215.662C237.887 215.662 231.23 219.067 227.461 224.178C231.49 221.265 236.355 219.715 241.339 219.756C253.067 219.756 262.608 227.914 262.608 237.942V246.277H266.73V233.848C266.73 223.82 257.189 215.662 245.461 215.662Z" fill="#3F3D56"/>
<path d="M269.563 250.543H220.102V236.091C220.102 224.431 231.196 214.945 244.832 214.945C258.469 214.945 269.563 224.431 269.563 236.091V250.543ZM221.699 248.956H267.965V236.091C267.965 225.306 257.588 216.532 244.832 216.532C232.076 216.532 221.699 225.306 221.699 236.091V248.956Z" fill="white"/>
<path d="M257.5 245.026H232.166C231.026 245.024 229.933 244.574 229.128 243.774C228.322 242.973 227.868 241.888 227.867 240.756V235.005C227.867 226.986 235.478 220.463 244.833 220.463C254.188 220.463 261.799 226.986 261.799 235.005V240.756C261.798 241.888 261.345 242.973 260.539 243.774C259.733 244.574 258.64 245.024 257.5 245.026ZM244.833 222.049C236.359 222.049 229.465 227.861 229.465 235.005V240.756C229.466 241.468 229.75 242.15 230.257 242.652C230.763 243.155 231.45 243.438 232.166 243.439H257.5C258.217 243.438 258.903 243.155 259.41 242.652C259.916 242.15 260.201 241.468 260.201 240.756V235.005C260.201 227.861 253.307 222.049 244.833 222.049Z" fill="white"/>
</g>
<defs>
<clipPath id="clip0_792_548">
<rect width="478" height="412" fill="white"/>
</clipPath>
</defs>
</svg>
