<svg width="376" height="266" viewBox="0 0 376 266" fill="none" xmlns="http://www.w3.org/2000/svg">
<g clip-path="url(#clip0_792_1248)">
<path d="M344.094 264.583L343.705 264.664C339.959 247.002 326.874 235.024 326.742 234.905L327.01 234.613C327.142 234.733 340.32 246.792 344.094 264.583Z" fill="white"/>
<path d="M343.809 265.134L343.43 264.738C361.686 247.535 366.412 223.542 366.458 223.302L366.998 223.403C366.953 223.645 362.198 247.806 343.809 265.134Z" fill="white"/>
<path d="M88.4009 184.888C85.5136 184.878 82.639 184.509 79.8443 183.79L79.2934 183.638L78.7825 183.384C60.3091 174.194 44.7241 162.056 32.4604 147.305C22.3085 135.023 14.3937 121.079 9.07178 106.098C2.7076 88.1624 -0.354198 69.2375 0.0325568 50.2267C0.0403607 49.8277 0.0469653 49.5196 0.0469653 49.3073C0.0469653 40.066 5.21686 31.9575 13.2179 28.6497C19.3414 26.1181 74.9406 3.45927 78.9577 1.8221C86.5232 -1.93912 94.5941 1.20021 95.8857 1.7492C98.7828 2.92445 150.181 23.783 161.288 29.0307C172.735 34.4391 175.789 44.1552 175.789 49.0435C175.789 71.1744 171.926 91.8575 164.307 110.518C158.154 125.623 149.434 139.567 138.526 151.744C117.479 175.244 96.4276 183.575 96.2244 183.648C93.7084 184.507 91.0613 184.927 88.4009 184.888ZM83.4502 172.72C85.2753 173.126 89.4774 173.735 92.2162 172.744C95.6955 171.485 113.316 162.419 129.781 144.034C152.531 118.633 164.074 86.7005 164.091 49.1251C164.05 48.3639 163.505 42.9343 156.258 39.5106C145.367 34.3644 91.9428 12.6897 91.4044 12.4713L91.2568 12.4092C90.1372 11.9437 86.5742 10.9632 84.1181 12.2402L83.6263 12.4677C83.0309 12.7103 24.0117 36.7618 17.7173 39.364C13.3142 41.1844 11.7454 45.694 11.7454 49.3073C11.7454 49.5714 11.7385 49.9555 11.7288 50.4519C11.2257 76.1624 17.222 139.428 83.4502 172.72Z" fill="#3F3D56"/>
<path d="M81.3981 7.09926C81.3981 7.09926 21.8426 31.3689 15.4617 34.007C9.0807 36.645 5.89023 42.9762 5.89023 49.3074C5.89023 55.6387 1.10453 138.253 81.3981 178.196C81.3981 178.196 88.6856 180.197 94.2145 178.196C99.7434 176.196 169.934 142.429 169.934 49.0436C169.934 49.0436 169.934 39.5468 158.767 34.2708C147.6 28.9947 93.6115 7.09926 93.6115 7.09926C93.6115 7.09926 86.9815 4.19745 81.3981 7.09926Z" fill="#22D497"/>
<path opacity="0.1" d="M87.7856 26.0928V155.563C87.7856 155.563 27.6983 126.865 28.2301 51.4177L87.7856 26.0928Z" fill="black"/>
<path d="M88.5627 119.145L69.4219 94.7254L80.5531 86.1355L89.6162 97.6974L120.233 65.6289L130.471 75.2536L88.5627 119.145Z" fill="white"/>
<path d="M375.539 266H200.639C200.517 266 200.4 265.952 200.314 265.866C200.228 265.781 200.18 265.665 200.18 265.544C200.18 265.424 200.228 265.308 200.314 265.222C200.4 265.137 200.517 265.089 200.639 265.089H375.539C375.661 265.089 375.778 265.137 375.864 265.222C375.95 265.308 375.999 265.424 375.999 265.544C375.999 265.665 375.95 265.781 375.864 265.866C375.778 265.952 375.661 266 375.539 266Z" fill="#CACACA"/>
<path d="M251.197 258.821L258.296 258.82L261.674 231.649L251.195 231.65L251.197 258.821Z" fill="#FFB8B8"/>
<path d="M249.391 256.52L263.372 256.52H263.373C265.736 256.52 268.002 257.451 269.673 259.109C271.344 260.767 272.283 263.016 272.283 265.36V265.648L249.391 265.648L249.391 256.52Z" fill="#2F2E41"/>
<path d="M275.072 258.821L282.171 258.82L285.549 231.649L275.07 231.65L275.072 258.821Z" fill="#FFB8B8"/>
<path d="M273.258 256.52L287.24 256.52H287.24C289.603 256.52 291.87 257.451 293.54 259.109C295.211 260.767 296.15 263.016 296.15 265.36V265.648L273.258 265.648L273.258 256.52Z" fill="#2F2E41"/>
<path d="M262.361 163.403L264.064 249.602L250.287 248.755L240.73 193.85L237.711 156.415L262.361 163.403Z" fill="#2F2E41"/>
<path d="M286.004 148.928L287.935 250.969L271.868 250.513L268.397 189.857L262.361 167.895L237.711 156.415L241.735 128.963L277.955 128.464L286.004 148.928Z" fill="#2F2E41"/>
<path d="M258.297 57.5872C265.101 57.5872 270.617 52.1142 270.617 45.3629C270.617 38.6117 265.101 33.1387 258.297 33.1387C251.493 33.1387 245.977 38.6117 245.977 45.3629C245.977 52.1142 251.493 57.5872 258.297 57.5872Z" fill="#FFB8B8"/>
<path d="M268.518 62.7373L270.405 65.574L275.436 79.5495L271.412 133.955L247.768 134.454L244.75 72.0623L251.073 64.2208L268.518 62.7373Z" fill="#CCCCCC"/>
<path d="M235.19 73.5597L231.166 73.0605C231.166 73.0605 230.16 73.5597 229.657 77.0536C229.154 80.5475 223.117 111.494 223.117 111.494L231.166 149.428L240.221 137.449L234.687 116.485L240.221 95.5215L235.19 73.5597Z" fill="#2F2E41"/>
<path d="M286.505 73.0605H289.524L297.07 113.49L290.027 144.935L282.984 133.455L284.996 120.977L283.99 109.996L280.469 103.507L286.505 73.0605Z" fill="#2F2E41"/>
<path d="M265.583 45.3631L263.343 44.8075C263.343 44.8075 261.663 35.3614 257.743 36.4727C253.822 37.584 243.742 38.6953 243.742 34.2501C243.742 29.8049 253.262 25.9154 258.863 26.4711C264.463 27.0267 271.615 28.8701 273.423 37.0284C276.321 50.1065 267.443 53.4099 267.443 53.4099L267.591 52.9337C268.001 51.6116 268.03 50.202 267.675 48.8641C267.321 47.5263 266.596 46.3136 265.583 45.3631Z" fill="#2F2E41"/>
<path d="M231.672 73.0605L247.77 66.5717L251.542 63.8265L262.861 113.49L268.143 62.3291L289.02 73.0605L281.977 107.001L280.971 119.979L283.989 130.461C283.989 130.461 294.554 137.948 291.032 145.934C287.511 153.92 283.486 154.419 283.486 154.419C283.486 154.419 266.383 138.447 265.376 134.454C264.37 130.461 262.861 123.473 262.861 123.473C262.861 123.473 254.309 155.417 244.248 154.918C234.187 154.419 234.187 143.937 234.187 143.937L236.702 132.956L240.727 121.476L238.715 102.509L231.672 73.0605Z" fill="#2F2E41"/>
</g>
<defs>
<clipPath id="clip0_792_1248">
<rect width="376" height="266" fill="white"/>
</clipPath>
</defs>
</svg>
