<svg width="236" height="181" viewBox="0 0 236 181" fill="none" xmlns="http://www.w3.org/2000/svg">
<g clip-path="url(#clip0_880_1921)">
<path d="M218.507 167.75L224.864 165.968C225.657 162.953 225.604 159.813 224.711 156.82C222.157 161.838 214.664 163.068 210.395 167.073C209.074 168.331 208.091 169.836 207.517 171.475C206.944 173.115 206.796 174.848 207.084 176.545L205.746 180.554C208.87 180.318 211.899 179.487 214.624 178.117C217.349 176.747 219.706 174.872 221.531 172.62C222.542 171.347 223.366 169.968 223.986 168.513C221.275 168.273 218.507 167.75 218.507 167.75Z" fill="#F2F2F2"/>
<path d="M211.713 160.337L216.503 156.237C215.691 153.226 214.059 150.436 211.749 148.109C211.996 153.607 205.91 157.66 204.11 162.928C203.563 164.574 203.442 166.309 203.757 168.002C204.071 169.696 204.813 171.305 205.927 172.71L206.754 176.826C209.43 175.384 211.722 173.446 213.469 171.146C215.217 168.846 216.38 166.239 216.878 163.504C217.139 161.967 217.181 160.407 217.002 158.861C214.455 159.714 211.713 160.337 211.713 160.337Z" fill="#F2F2F2"/>
<path d="M179.869 12.017H0.697584C0.511226 12.0135 0.333835 11.9457 0.203433 11.828C0.0730309 11.7103 0 11.5521 0 11.3874C0 11.2227 0.0730309 11.0646 0.203433 10.9469C0.333835 10.8292 0.511226 10.7613 0.697584 10.7578H179.869C180.056 10.7613 180.233 10.8292 180.363 10.9469C180.494 11.0646 180.567 11.2227 180.567 11.3874C180.567 11.5521 180.494 11.7103 180.363 11.828C180.233 11.9457 180.056 12.0135 179.869 12.017Z" fill="#3F3D56"/>
<path d="M12.8944 7.54399C15.2006 7.54399 17.0701 5.85521 17.0701 3.77199C17.0701 1.68878 15.2006 0 12.8944 0C10.5883 0 8.71875 1.68878 8.71875 3.77199C8.71875 5.85521 10.5883 7.54399 12.8944 7.54399Z" fill="#3F3D56"/>
<path d="M27.3202 7.54399C29.6264 7.54399 31.4959 5.85521 31.4959 3.77199C31.4959 1.68878 29.6264 0 27.3202 0C25.014 0 23.1445 1.68878 23.1445 3.77199C23.1445 5.85521 25.014 7.54399 27.3202 7.54399Z" fill="#3F3D56"/>
<path d="M41.7421 7.54399C44.0482 7.54399 45.9178 5.85521 45.9178 3.77199C45.9178 1.68878 44.0482 0 41.7421 0C39.4359 0 37.5664 1.68878 37.5664 3.77199C37.5664 5.85521 39.4359 7.54399 41.7421 7.54399Z" fill="#3F3D56"/>
<path d="M171.183 0.935547H160.936C160.733 0.939121 160.54 1.01292 160.398 1.1411C160.255 1.26929 160.176 1.44163 160.176 1.62113C160.176 1.80063 160.255 1.97297 160.398 2.10115C160.54 2.22934 160.733 2.30314 160.936 2.30671H171.183C171.386 2.30314 171.58 2.22934 171.722 2.10115C171.864 1.97297 171.944 1.80063 171.944 1.62113C171.944 1.44163 171.864 1.26929 171.722 1.1411C171.58 1.01292 171.386 0.939121 171.183 0.935547Z" fill="#3F3D56"/>
<path d="M171.183 3.50781H160.936C160.733 3.51136 160.54 3.58516 160.398 3.71334C160.255 3.84153 160.176 4.01388 160.176 4.19339C160.176 4.37291 160.255 4.54527 160.398 4.67345C160.54 4.80164 160.733 4.87542 160.936 4.87898H171.183C171.386 4.87542 171.58 4.80164 171.722 4.67345C171.864 4.54527 171.944 4.37291 171.944 4.19339C171.944 4.01388 171.864 3.84153 171.722 3.71334C171.58 3.58516 171.386 3.51136 171.183 3.50781Z" fill="#3F3D56"/>
<path d="M171.183 6.07812H160.936C160.733 6.08168 160.54 6.15546 160.398 6.28365C160.255 6.41183 160.176 6.58419 160.176 6.76371C160.176 6.94322 160.255 7.11557 160.398 7.24376C160.54 7.37194 160.733 7.44574 160.936 7.44929H171.183C171.386 7.44574 171.58 7.37194 171.722 7.24376C171.864 7.11557 171.944 6.94322 171.944 6.76371C171.944 6.58419 171.864 6.41183 171.722 6.28365C171.58 6.15546 171.386 6.08168 171.183 6.07812Z" fill="#3F3D56"/>
<path d="M13.8812 37.598C16.7323 37.598 19.0436 35.5556 19.0436 33.0363C19.0436 30.5169 16.7323 28.4746 13.8812 28.4746C11.03 28.4746 8.71875 30.5169 8.71875 33.0363C8.71875 35.5556 11.03 37.598 13.8812 37.598Z" fill="#E6E7E8"/>
<path d="M145.342 43.1367H10.256C9.8483 43.1367 9.45729 42.9936 9.16899 42.7388C8.8807 42.4841 8.71875 42.1386 8.71875 41.7783C8.71875 41.418 8.8807 41.0725 9.16899 40.8178C9.45729 40.563 9.8483 40.4199 10.256 40.4199H145.342C145.75 40.4199 146.141 40.563 146.429 40.8178C146.718 41.0725 146.88 41.418 146.88 41.7783C146.88 42.1386 146.718 42.4841 146.429 42.7388C146.141 42.9936 145.75 43.1367 145.342 43.1367Z" fill="#E6E7E8"/>
<path d="M109.914 48.5059H10.2561C9.84836 48.5059 9.45734 48.3628 9.16903 48.1081C8.88072 47.8533 8.71875 47.5078 8.71875 47.1475C8.71875 46.7872 8.88072 46.4417 9.16903 46.1869C9.45734 45.9322 9.84836 45.7891 10.2561 45.7891H109.914C110.321 45.7891 110.712 45.9322 111.001 46.1869C111.289 46.4417 111.451 46.7872 111.451 47.1475C111.451 47.5078 111.289 47.8533 111.001 48.1081C110.712 48.3628 110.321 48.5059 109.914 48.5059Z" fill="#E6E7E8"/>
<path d="M13.8812 108.799C16.7323 108.799 19.0436 106.757 19.0436 104.237C19.0436 101.718 16.7323 99.6758 13.8812 99.6758C11.03 99.6758 8.71875 101.718 8.71875 104.237C8.71875 106.757 11.03 108.799 13.8812 108.799Z" fill="#E6E7E8"/>
<path d="M145.341 114.338H10.2546C10.0525 114.338 9.85231 114.303 9.66552 114.235C9.47873 114.167 9.30897 114.067 9.16597 113.941C9.02296 113.815 8.90951 113.665 8.8321 113.5C8.75469 113.335 8.71484 113.158 8.71484 112.979C8.71484 112.801 8.75469 112.624 8.8321 112.459C8.90951 112.294 9.02296 112.144 9.16597 112.018C9.30897 111.892 9.47873 111.792 9.66552 111.724C9.85231 111.656 10.0525 111.621 10.2546 111.621H145.341C145.769 111.642 146.173 111.804 146.473 112.075C146.774 112.345 146.948 112.705 146.964 113.084C146.951 113.261 146.899 113.434 146.81 113.593C146.722 113.751 146.598 113.893 146.448 114.01C146.297 114.126 146.121 114.215 145.931 114.271C145.741 114.328 145.541 114.35 145.341 114.338Z" fill="#E6E7E8"/>
<path d="M109.914 119.705H10.2561C9.84836 119.705 9.45734 119.562 9.16903 119.307C8.88072 119.053 8.71875 118.707 8.71875 118.347C8.71875 117.986 8.88072 117.641 9.16903 117.386C9.45734 117.131 9.84836 116.988 10.2561 116.988H109.914C110.321 116.988 110.712 117.131 111.001 117.386C111.289 117.641 111.451 117.986 111.451 118.347C111.451 118.707 111.289 119.053 111.001 119.307C110.712 119.562 110.321 119.705 109.914 119.705Z" fill="#E6E7E8"/>
<path d="M13.8812 70.514C16.7323 70.514 19.0436 68.4716 19.0436 65.9523C19.0436 63.433 16.7323 61.3906 13.8812 61.3906C11.03 61.3906 8.71875 63.433 8.71875 65.9523C8.71875 68.4716 11.03 70.514 13.8812 70.514Z" fill="#E6E7E8"/>
<path d="M145.342 76.0546H10.256C9.8483 76.0546 9.45729 75.9115 9.16899 75.6568C8.8807 75.402 8.71875 75.0565 8.71875 74.6963C8.71875 74.336 8.8807 73.9905 9.16899 73.7358C9.45729 73.481 9.8483 73.3379 10.256 73.3379H145.342C145.75 73.3379 146.141 73.481 146.429 73.7358C146.718 73.9905 146.88 74.336 146.88 74.6963C146.88 75.0565 146.718 75.402 146.429 75.6568C146.141 75.9115 145.75 76.0546 145.342 76.0546Z" fill="#E6E7E8"/>
<path d="M126.531 81.422H10.2561C9.84836 81.422 9.45734 81.2788 9.16903 81.0241C8.88072 80.7693 8.71875 80.4238 8.71875 80.0635C8.71875 79.7032 8.88072 79.3577 9.16903 79.1029C9.45734 78.8482 9.84836 78.7051 10.2561 78.7051H126.531C126.938 78.7051 127.329 78.8482 127.618 79.1029C127.906 79.3577 128.068 79.7032 128.068 80.0635C128.068 80.4238 127.906 80.7693 127.618 81.0241C127.329 81.2788 126.938 81.422 126.531 81.422Z" fill="#E6E7E8"/>
<path d="M118.639 86.7891H10.2561C9.84836 86.7891 9.45734 86.646 9.16903 86.3913C8.88072 86.1365 8.71875 85.791 8.71875 85.4307C8.71875 85.0704 8.88072 84.7249 9.16903 84.4701C9.45734 84.2154 9.84836 84.0723 10.2561 84.0723H118.639C119.047 84.0723 119.438 84.2154 119.726 84.4701C120.014 84.7249 120.176 85.0704 120.176 85.4307C120.176 85.791 120.014 86.1365 119.726 86.3913C119.438 86.646 119.047 86.7891 118.639 86.7891Z" fill="#E6E7E8"/>
<path d="M120.879 146.842C141.993 146.842 159.109 131.718 159.109 113.061C159.109 94.4038 141.993 79.2793 120.879 79.2793C99.7647 79.2793 82.6484 94.4038 82.6484 113.061C82.6484 131.718 99.7647 146.842 120.879 146.842Z" fill="#22D497"/>
<path d="M120.829 124.847C123.845 124.847 126.29 122.687 126.29 120.021C126.29 117.356 123.845 115.195 120.829 115.195C117.812 115.195 115.367 117.356 115.367 120.021C115.367 122.687 117.812 124.847 120.829 124.847Z" fill="#3F3D56"/>
<path d="M120.829 122.25C122.221 122.25 123.35 121.252 123.35 120.022C123.35 118.792 122.221 117.795 120.829 117.795C119.437 117.795 118.309 118.792 118.309 120.022C118.309 121.252 119.437 122.25 120.829 122.25Z" fill="#B0C4CD"/>
<path d="M130.966 130.765H110.795C108.798 130.763 106.883 130.061 105.471 128.813C104.058 127.565 103.264 125.873 103.262 124.108V115.936C103.264 114.171 104.058 112.479 105.471 111.231C106.883 109.983 108.798 109.281 110.795 109.279H130.966C132.964 109.281 134.878 109.983 136.291 111.231C137.703 112.479 138.497 114.171 138.5 115.936V124.108C138.497 125.873 137.703 127.565 136.291 128.813C134.878 130.061 132.964 130.763 130.966 130.765ZM110.795 109.976C109.007 109.978 107.293 110.607 106.028 111.724C104.764 112.841 104.053 114.356 104.051 115.936V124.108C104.053 125.688 104.764 127.203 106.028 128.32C107.293 129.438 109.007 130.066 110.795 130.068H130.966C132.754 130.066 134.469 129.438 135.733 128.32C136.998 127.203 137.709 125.688 137.711 124.108V115.936C137.709 114.356 136.998 112.841 135.733 111.724C134.469 110.607 132.754 109.978 130.966 109.976L110.795 109.976Z" fill="white"/>
<path d="M109.6 126.328H127.504C128.433 126.328 129.353 126.166 130.212 125.852C131.07 125.538 131.851 125.077 132.508 124.496C133.165 123.916 133.686 123.226 134.042 122.468C134.397 121.709 134.58 120.896 134.58 120.075V113.236C134.579 112.478 134.421 111.726 134.113 111.018C134.987 111.599 135.696 112.351 136.184 113.216C136.672 114.08 136.926 115.033 136.926 115.999V122.838C136.926 123.659 136.743 124.473 136.387 125.231C136.032 125.99 135.51 126.679 134.853 127.26C134.196 127.841 133.416 128.301 132.557 128.615C131.699 128.93 130.779 129.091 129.849 129.091H111.946C110.511 129.091 109.11 128.704 107.93 127.984C106.749 127.263 105.844 126.242 105.336 125.057C106.561 125.881 108.059 126.328 109.6 126.328Z" fill="#3F3D56"/>
<path d="M164.426 176.53L160.027 176.53L157.934 161.535L164.427 161.536L164.426 176.53Z" fill="#FFB7B7"/>
<path d="M164.584 180.586L151.055 180.586V180.435C151.055 179.201 151.61 178.017 152.597 177.145C153.585 176.272 154.924 175.782 156.321 175.782L158.792 174.125L163.403 175.782L164.584 175.782L164.584 180.586Z" fill="#2F2E41"/>
<path d="M195.555 176.53L199.955 176.53L202.048 161.535L195.555 161.536L195.555 176.53Z" fill="#FFB7B7"/>
<path d="M195.403 180.586L208.932 180.586V180.435C208.931 179.201 208.377 178.017 207.389 177.145C206.402 176.272 205.062 175.782 203.666 175.782L201.194 174.125L196.583 175.782L195.402 175.782L195.403 180.586Z" fill="#2F2E41"/>
<path d="M157.743 150.517C157.808 149.661 158.324 144.929 158.324 144.929L159.562 134.894L161.743 108.294L161.885 106.552L173.31 104.614L181.118 101.307L190.399 103.928L197.625 106.323C197.625 106.323 197.637 107.348 197.693 108.586C197.767 110.207 197.897 112.195 198.207 112.711C198.723 113.624 198.593 118.526 198.593 118.526C198.593 118.526 199.107 128.498 199.753 129.591C200.4 130.684 200.53 132.962 200.335 133.418C200.14 133.875 200.982 145.85 200.982 145.85C200.982 145.85 203.141 167.043 201.786 170.239C200.431 173.434 195.311 171.341 195.311 171.341C195.311 171.341 195.559 170.488 194.074 170.086C192.589 169.684 188.066 139.634 188.066 139.634C188.066 139.634 187.225 133.473 186.451 131.707C185.678 129.941 184.966 124.979 184.966 124.979C184.966 124.979 180.19 116.768 180.128 114.942C180.128 114.942 179.503 113.233 178.912 115.114C178.321 116.995 176.58 121.5 176.58 121.5L174.881 127.032L172.883 135.299L171.59 142.258C171.59 142.258 169.653 151.495 169.344 151.894C169.034 152.293 169.344 160.732 169.344 160.732C169.344 160.732 167.846 167.919 165.73 169.173C163.614 170.428 158.008 169.193 158.008 169.193C158.008 169.193 157.678 151.372 157.743 150.517Z" fill="#2F2E41"/>
<path d="M162.617 82.2926L165.157 89.0528L162.023 92.3493L163.403 93.6042L162.385 95.3781L159.73 113.972L174.283 118.849L179.183 113.42L183.047 118.849L199.885 115.213L195.591 91.5021V89.9519L194.379 86.9587V80.6222L197.58 61.7606L188.024 58.8028L183.455 55.6074L181.976 60.1014L175.681 59.112L175.517 55.7357L170.7 59.757L166.644 60.7792L161.788 61.7606L161.169 63.1274L162.406 62.8542L162.205 80.6361L162.617 82.2926Z" fill="#2F2E41"/>
<path d="M158.268 107.026L160.712 86.1221L161.357 77.5188L154.516 76.4258C154.516 76.4258 154.787 82.5774 153.891 86.0482C153.007 89.4732 153.774 106.567 153.828 107.024C153.326 107.421 152.972 107.943 152.813 108.522C152.654 109.101 152.697 109.708 152.937 110.265C153.178 110.821 153.604 111.3 154.159 111.638C154.713 111.976 155.371 112.157 156.045 112.157C156.719 112.157 157.377 111.977 157.933 111.639C158.488 111.302 158.914 110.824 159.155 110.267C159.396 109.711 159.44 109.104 159.282 108.525C159.123 107.946 158.77 107.423 158.268 107.026Z" fill="#FFB7B7"/>
<path d="M151.593 90.455L153.495 90.8022L160.023 91.9968L160.385 92.0624L161.155 89.3562L162.049 88.5142L163.75 80.636L163.84 80.226L166.411 75.3711L168.189 60.7793L161.575 61.829C161.541 61.859 161.51 61.8918 161.479 61.9246C160.53 62.8759 159.852 64.199 158.745 65.5303C155.141 69.863 152.375 80.39 152.484 86.1579C152.487 86.2508 152.378 86.3519 152.248 86.4558C151.635 86.954 151.235 87.6238 151.116 88.3524C150.996 89.0809 151.165 89.8235 151.593 90.455Z" fill="#2F2E41"/>
<path d="M200.792 107.026L198.348 86.1221L197.703 77.5188L204.544 76.4258C204.544 76.4258 204.273 82.5774 205.169 86.0482C206.053 89.4732 205.286 106.567 205.232 107.024C205.734 107.421 206.088 107.943 206.247 108.522C206.406 109.101 206.363 109.708 206.123 110.265C205.882 110.821 205.456 111.3 204.902 111.638C204.347 111.976 203.689 112.157 203.015 112.157C202.341 112.157 201.683 111.977 201.127 111.639C200.572 111.302 200.146 110.824 199.905 110.267C199.664 109.711 199.62 109.104 199.778 108.525C199.937 107.946 200.29 107.423 200.792 107.026Z" fill="#FFB7B7"/>
<path d="M207.463 90.4551L205.56 90.8022L199.033 91.9968L198.671 92.0624L197.9 89.3562L197.006 88.5142L195.305 80.636L195.215 80.226L192.645 75.3712L193.232 60.7793L197.48 61.829C197.514 61.8591 197.545 61.8919 197.576 61.9247C198.526 62.8759 199.203 64.199 200.311 65.5303C203.915 69.863 206.68 80.39 206.572 86.1579C206.569 86.2508 206.677 86.3519 206.807 86.4558C207.42 86.954 207.82 87.6238 207.94 88.3524C208.059 89.0809 207.891 89.8235 207.463 90.4551Z" fill="#2F2E41"/>
<path d="M172.41 62.9383L175.517 55.7359L183.455 55.6074L186.089 62.9383L195.557 109.674C195.557 109.674 166.552 116.811 166.846 108.232C167.155 99.2108 168.551 87.2281 168.551 87.2281L172.41 62.9383Z" fill="#B0C4CD"/>
<path d="M179.308 53.7213C184.473 53.7213 188.659 50.0218 188.659 45.4583C188.659 40.8948 184.473 37.1953 179.308 37.1953C174.144 37.1953 169.957 40.8948 169.957 45.4583C169.957 50.0218 174.144 53.7213 179.308 53.7213Z" fill="#FFB7B7"/>
<path d="M169.404 39.4633C170.926 37.9991 172.83 35.3189 178.598 34.1934C185.725 32.8027 189.093 38.4917 187.295 38.585C192.551 39.9912 189.175 49.6013 187.668 48.7954C187.655 48.7874 187.643 48.7788 187.631 48.7697C186.821 48.2424 186.14 47.5747 185.632 46.8073C185.124 46.0399 184.798 45.189 184.674 44.3066L184.388 42.0325C184.347 43.8827 182.207 44.1275 180.02 43.4461C180.15 43.0404 180.396 42.6715 180.736 42.3758C181.076 42.0801 181.497 41.8679 181.958 41.7599C180.434 42.9809 178.498 43.7253 176.448 43.8785C176.555 43.4152 176.774 42.9776 177.088 42.5951C177.403 42.2125 177.807 41.8939 178.272 41.6606L178.186 41.5857C177.332 42.2219 176.352 42.7124 175.295 43.0321C174.09 43.3373 172.645 43.1722 171.82 42.3385C171.597 42.1084 171.429 41.8413 171.326 41.553C171.504 43.0183 170.392 44.691 169.528 44.4038C168.809 44.2804 168.39 40.438 169.404 39.4633Z" fill="#2F2E41"/>
<path d="M236 180.585C236 180.639 235.988 180.693 235.964 180.744C235.941 180.794 235.906 180.84 235.863 180.878C235.819 180.917 235.767 180.947 235.71 180.968C235.653 180.989 235.592 181 235.53 180.999H124.985C124.86 180.999 124.741 180.956 124.653 180.878C124.565 180.8 124.516 180.695 124.516 180.585C124.516 180.475 124.565 180.369 124.653 180.291C124.741 180.214 124.86 180.17 124.985 180.17H235.53C235.592 180.17 235.653 180.18 235.71 180.201C235.767 180.222 235.819 180.252 235.863 180.291C235.906 180.33 235.941 180.375 235.964 180.426C235.988 180.476 236 180.53 236 180.585Z" fill="#CCCCCC"/>
<path d="M121.192 94.7441C117.452 94.7441 114.166 96.2399 112.305 98.4852C114.294 97.2058 116.696 96.5248 119.156 96.5425C124.947 96.5425 129.658 100.127 129.658 104.532V108.194H131.693V102.734C131.693 98.3283 126.982 94.7441 121.192 94.7441Z" fill="#3F3D56"/>
<path d="M133.092 110.068H108.672V103.719C108.672 98.5971 114.149 94.4297 120.882 94.4297C127.615 94.4297 133.092 98.5971 133.092 103.719V110.068ZM109.461 109.371H132.303V103.719C132.303 98.9813 127.18 95.1267 120.882 95.1267C114.584 95.1267 109.461 98.9813 109.461 103.719V109.371Z" fill="white"/>
<path d="M127.135 107.644H114.626C114.064 107.644 113.524 107.446 113.126 107.094C112.728 106.743 112.505 106.266 112.504 105.769V103.242C112.504 99.7194 116.262 96.8535 120.88 96.8535C125.499 96.8535 129.257 99.7195 129.257 103.242V105.769C129.256 106.266 129.033 106.743 128.635 107.094C128.237 107.446 127.697 107.644 127.135 107.644ZM120.88 97.5505C116.696 97.5505 113.293 100.104 113.293 103.242V105.769C113.293 106.081 113.434 106.381 113.684 106.602C113.934 106.823 114.273 106.947 114.626 106.947H127.135C127.488 106.947 127.827 106.823 128.077 106.602C128.327 106.381 128.468 106.081 128.468 105.769V103.242C128.468 100.104 125.064 97.5505 120.88 97.5505Z" fill="white"/>
</g>
<defs>
<clipPath id="clip0_880_1921">
<rect width="236" height="181" fill="white"/>
</clipPath>
</defs>
</svg>
