<svg width="439" height="372" viewBox="0 0 439 372" fill="none" xmlns="http://www.w3.org/2000/svg">
<g clip-path="url(#clip0_792_95)">
<path d="M385.955 358.161C390.755 367.454 401.245 371.606 401.245 371.606C401.245 371.606 403.953 360.691 399.153 351.398C394.353 342.104 383.863 337.952 383.863 337.952C383.863 337.952 381.155 348.868 385.955 358.161Z" fill="#F1F1F1"/>
<path d="M389.437 355.201C398.321 360.761 401.575 371.528 401.575 371.528C401.575 371.528 390.425 373.279 381.54 367.719C372.656 362.159 369.402 351.393 369.402 351.393C369.402 351.393 380.553 349.641 389.437 355.201Z" fill="#F1F1F1"/>
<path d="M264.596 365.172H258.366L255.402 341.235L264.597 341.236L264.596 365.172Z" fill="#FFB7B7"/>
<path d="M266.186 371.188L246.098 371.187V370.934C246.098 368.868 246.922 366.887 248.388 365.427C249.854 363.966 251.843 363.146 253.917 363.146L266.187 363.146L266.186 371.188Z" fill="#2F2E41"/>
<path d="M303.217 365.172H296.987L294.023 341.235L303.219 341.236L303.217 365.172Z" fill="#FFB7B7"/>
<path d="M304.807 371.188L284.719 371.187V370.934C284.719 368.868 285.543 366.887 287.009 365.427C288.475 363.966 290.464 363.146 292.538 363.146L304.808 363.146L304.807 371.188Z" fill="#2F2E41"/>
<path d="M285.128 230.346L272.87 205.775L276.027 185.394L261.29 181.345L259.766 208.679L278.877 234.549C278.74 235.518 278.887 236.506 279.302 237.393C279.717 238.28 280.381 239.028 281.214 239.547C282.047 240.065 283.014 240.332 283.996 240.315C284.978 240.298 285.934 239.997 286.748 239.45C287.563 238.902 288.2 238.131 288.583 237.23C288.967 236.329 289.079 235.337 288.908 234.374C288.737 233.41 288.288 232.517 287.617 231.802C286.947 231.087 286.082 230.581 285.128 230.346Z" fill="#FFB7B7"/>
<path d="M311.647 230.346L323.905 205.775L320.748 185.394L335.485 181.345L337.009 208.679L317.898 234.549C318.035 235.518 317.888 236.506 317.473 237.393C317.058 238.28 316.394 239.028 315.561 239.547C314.728 240.065 313.761 240.332 312.779 240.315C311.797 240.298 310.841 239.997 310.027 239.45C309.212 238.902 308.575 238.131 308.192 237.23C307.808 236.329 307.696 235.337 307.867 234.374C308.038 233.41 308.487 232.517 309.158 231.802C309.828 231.087 310.693 230.581 311.647 230.346Z" fill="#FFB7B7"/>
<path d="M303.462 146.371C310.867 146.371 316.869 140.392 316.869 133.016C316.869 125.64 310.867 119.661 303.462 119.661C296.057 119.661 290.055 125.64 290.055 133.016C290.055 140.392 296.057 146.371 303.462 146.371Z" fill="#FFB9B9"/>
<path d="M290.156 132.945C290.156 132.945 288.701 130.771 289.261 128.431C289.595 127.102 289.727 125.73 289.653 124.363C290.278 122.335 291.064 120.36 292.002 118.455C293.177 116.338 292.618 115.446 296.31 114.777C300.003 114.108 298.492 109.316 308.228 114.498C308.556 114.955 309.013 115.305 309.541 115.503C310.068 115.702 310.643 115.74 311.193 115.613C313.207 115.223 313.934 118.009 313.934 118.009C313.934 118.009 315.277 117.229 315.781 118.344C316.284 119.458 319.875 117.675 319.875 125.198C319.875 132.722 315.789 139.442 315.789 139.442C315.789 139.442 312.92 148.459 306.262 147.178C299.604 145.896 298.639 146.671 294.065 138.066C293.129 140.756 291.692 130.544 290.156 132.945Z" fill="#2F2E41"/>
<path d="M273.992 219.309L272.438 225.38C272.438 225.38 265.116 228.904 262.186 260.552L258.239 308.005L252.215 357.735L264.737 358.703L273.42 327.196L292.179 260.949L295.736 311.066L291.779 356.485L304.991 356.991L314.139 306.373C314.139 306.373 328.151 232.23 319.112 230.072L318.204 222.346L273.992 219.309Z" fill="#2F2E41"/>
<path d="M271.094 162.243L292.663 150.403L310.969 151.376L332.834 164.268L323.72 220.957C323.72 220.957 328.944 226.774 313.157 225.066C297.369 223.358 271.852 221.973 271.852 221.973C271.852 221.973 269.8 217.917 274.183 217.347C278.566 216.778 274.901 216.911 274.901 216.911C274.901 216.911 272.252 208.439 274.901 206.787L276.183 189.388L271.094 162.243Z" fill="#B0C4CD"/>
<path d="M277.041 163.121L271.093 162.242L258.492 184.634L278.966 193.625L277.041 163.121Z" fill="#B0C4CD"/>
<path d="M325.827 167.172L332.833 164.268L339.801 195.771L320.891 199.338L325.827 167.172Z" fill="#B0C4CD"/>
<path d="M164.065 372H438.438C438.587 372 438.73 371.941 438.835 371.836C438.94 371.731 438.999 371.589 438.999 371.441C438.999 371.292 438.94 371.15 438.835 371.046C438.73 370.941 438.587 370.882 438.438 370.882H164.065C163.916 370.882 163.773 370.941 163.668 371.046C163.563 371.15 163.504 371.292 163.504 371.441C163.504 371.589 163.563 371.731 163.668 371.836C163.773 371.941 163.916 372 164.065 372Z" fill="#CBCBCB"/>
<path d="M134.661 222.218H63.4023V257.987H134.661V222.218Z" fill="white"/>
<path d="M126.244 231.374H71.8242V233.212H126.244V231.374Z" fill="#B0C4CD"/>
<path d="M126.244 239.184H71.8242V241.021H126.244V239.184Z" fill="#B0C4CD"/>
<path d="M126.244 246.993H71.8242V248.831H126.244V246.993Z" fill="#B0C4CD"/>
<path d="M135.224 258.546H62.8438V221.659H135.224V258.546ZM63.9659 257.428H134.102V222.777H63.9659V257.428Z" fill="#3F3D56"/>
<path d="M83.4532 177.791C68.3672 177.803 53.5771 173.621 40.7477 165.715L40.4219 165.514L40.6234 165.189L83.2394 96.4893H164.691V96.8713C164.691 141.491 128.248 177.791 83.4532 177.791Z" fill="#22D497"/>
<path d="M31.1957 148.621L30.9339 148.459C16.5554 139.604 6.18986 125.534 2.02179 109.215C-2.14629 92.8963 0.208652 75.6029 8.5903 60.9796L8.74316 60.7139L65.638 93.0976L31.1957 148.621Z" fill="#F1F1F1"/>
<path d="M164.692 85.6502H82.9766L100.592 6.1582L100.966 6.2401C119.034 10.2178 135.198 20.2184 146.786 34.5883C158.373 48.9583 164.69 66.8369 164.692 85.2681V85.6502Z" fill="#D2D2D2"/>
<path d="M69.9608 73.1311L14.5938 41.6169L14.7426 41.3581C21.4549 29.6786 31.7362 20.4391 44.0883 14.9861C56.4404 9.53307 70.218 8.15137 83.4135 11.0423L83.7058 11.1063L69.9608 73.1311Z" fill="#F1F1F1"/>
<path d="M277.18 0.558594H205.922V36.3275H277.18V0.558594Z" fill="white"/>
<path d="M268.76 9.71484H214.34V11.5524H268.76V9.71484Z" fill="#B0C4CD"/>
<path d="M268.76 17.5244H214.34V19.3619H268.76V17.5244Z" fill="#B0C4CD"/>
<path d="M268.76 25.334H214.34V27.1715H268.76V25.334Z" fill="#B0C4CD"/>
<path d="M277.74 36.8867H205.359V0H277.74V36.8867ZM206.482 35.7689H276.618V1.11778H206.482V35.7689Z" fill="#3F3D56"/>
<path d="M99.7472 129.645H98.625V221.659H99.7472V129.645Z" fill="#3F3D56"/>
<path d="M205.645 18.4847L121.402 56.4385L121.865 57.4569L206.107 19.5031L205.645 18.4847Z" fill="#3F3D56"/>
</g>
<defs>
<clipPath id="clip0_792_95">
<rect width="439" height="372" fill="white"/>
</clipPath>
</defs>
</svg>
