<svg width="56" height="56" viewBox="0 0 56 56" fill="none" xmlns="http://www.w3.org/2000/svg">
<path d="M0 0V17.1881H56V0H0ZM54.8911 16.0792H1.10891V1.10891H54.8911V16.0792Z" fill="#010101"/>
<path d="M50.5675 5.43359H17.6328V11.7544H50.6784V5.43359H50.5675ZM49.4586 10.6455H18.7417V6.54251H49.5694V10.6455H49.4586Z" fill="#010101"/>
<path d="M8.54006 11.8653C10.3143 11.8653 11.7559 10.4237 11.7559 8.64947C11.7559 6.87521 10.3143 5.43359 8.54006 5.43359C6.7658 5.43359 5.32422 6.87521 5.32422 8.64947C5.32422 10.4237 6.7658 11.8653 8.54006 11.8653ZM8.54006 6.43164C9.75986 6.43164 10.647 7.42966 10.647 8.53857C10.647 9.64748 9.64897 10.6455 8.54006 10.6455C7.32026 10.6455 6.43313 9.64748 6.43313 8.53857C6.43313 7.42966 7.43115 6.43164 8.54006 6.43164Z" fill="#010101"/>
<path d="M0 55.9997H56V38.8115H0V55.9997ZM1.10891 39.9204H54.8911V54.8908H1.10891V39.9204Z" fill="#010101"/>
<path d="M17.6328 50.5669H50.6784V44.2461H17.6328V50.5669ZM18.7417 45.355H49.5694V49.458H18.7417V45.355Z" fill="#010101"/>
<path d="M8.54006 44.1348C6.7658 44.1348 5.32422 45.5763 5.32422 47.3506C5.32422 49.1249 6.7658 50.5664 8.54006 50.5664C10.3143 50.5664 11.7559 49.1249 11.7559 47.3506C11.7559 45.5763 10.3143 44.1348 8.54006 44.1348ZM8.54006 49.4575C7.32026 49.4575 6.43313 48.4595 6.43313 47.3506C6.43313 46.1308 7.43115 45.2437 8.54006 45.2437C9.75986 45.2437 10.647 46.2417 10.647 47.3506C10.647 48.5704 9.75986 49.4575 8.54006 49.4575Z" fill="#010101"/>
<path d="M0 36.5944H56V19.4062H0V36.5944ZM1.10891 20.5152H54.8911V35.4855H1.10891V20.5152Z" fill="#010101"/>
<path d="M17.6328 31.1607H50.6784V24.8398H17.6328V31.1607ZM18.7417 25.9488H49.5694V30.0517H18.7417V25.9488Z" fill="#010101"/>
<path d="M8.54006 24.7285C6.7658 24.7285 5.32422 26.1701 5.32422 27.9444C5.32422 29.7186 6.7658 31.1602 8.54006 31.1602C10.3143 31.1602 11.7559 29.7186 11.7559 27.9444C11.7559 26.1701 10.3143 24.7285 8.54006 24.7285ZM8.54006 30.1622C7.32026 30.1622 6.43313 29.1642 6.43313 28.0553C6.43313 26.9463 7.43115 25.9483 8.54006 25.9483C9.75986 25.9483 10.647 26.9463 10.647 28.0553C10.647 29.1642 9.75986 30.1622 8.54006 30.1622Z" fill="#010101"/>
</svg>
