<svg width="56" height="56" viewBox="0 0 56 56" fill="none" xmlns="http://www.w3.org/2000/svg">
<path d="M16.9886 30.7998C12.4058 30.7998 8.60547 34.6078 8.60547 39.1998C8.60547 43.7918 12.4058 47.5998 16.9886 47.5998C21.5713 47.5998 25.3717 43.7918 25.3717 39.1998C25.3717 34.6078 21.6831 30.7998 16.9886 30.7998ZM16.9886 46.4798C12.9647 46.4798 9.72322 43.2318 9.72322 39.1998C9.72322 35.1678 12.9647 31.9198 16.9886 31.9198C21.0125 31.9198 24.2539 35.1678 24.2539 39.1998C24.2539 43.2318 21.0125 46.4798 16.9886 46.4798Z" fill="#010101"/>
<path d="M28.3908 32.1445L30.9616 28.6725L27.1613 24.8645L23.5845 27.4405C22.5785 26.8805 21.4608 26.4325 20.2312 26.0965L19.5606 21.7285H14.4189L13.7483 26.0965C12.6305 26.4325 11.5128 26.8805 10.3951 27.4405L6.81826 24.8645L3.01792 28.6725L5.58874 32.1445C4.91809 33.1525 4.47099 34.3845 4.13566 35.6165L0 36.2885V41.6645L4.02389 42.3365C4.35922 43.5685 4.80631 44.8005 5.47696 46.0325L3.12969 49.2805L6.93003 53.0885L10.0597 50.7365C11.2892 51.5205 12.5188 51.9685 13.8601 52.3045L14.4189 56.0005H19.7841L20.343 52.1925C21.6843 51.8565 22.9138 51.2965 24.1434 50.6245L27.273 52.9765L31.0734 49.1685L28.7261 45.9205C29.3968 44.8005 29.8439 43.5685 30.1792 42.2245L34.2031 41.5525V36.1765L30.0674 35.5045C29.6203 34.3845 29.0614 33.2645 28.3908 32.1445ZM32.9736 40.6565L29.1732 41.2165L29.0614 41.5525C28.7261 43.0085 28.279 44.3525 27.4966 45.5845L27.273 45.9205L29.5085 48.9445L27.0495 51.4085L24.0316 49.1685L23.6962 49.3925C22.4667 50.1765 21.0137 50.8485 19.5606 51.1845L19.2253 51.2965L18.6664 54.9925H15.3131L14.7543 51.2965L14.4189 51.1845C12.9659 50.8485 11.5128 50.2885 10.2833 49.3925L9.94795 49.1685L6.93003 51.4085L4.47099 48.9445L6.70649 45.9205L6.48294 45.5845C5.70051 44.3525 5.14164 43.0085 4.91809 41.5525L4.80631 41.2165L1.00597 40.6565V37.2965L5.02986 36.7365L5.14164 36.4005C5.47696 35.0565 6.03584 33.8245 6.81826 32.5925L7.04181 32.2565L4.58277 28.8965L7.04181 26.4325L10.3951 28.8965L10.7304 28.6725C11.8481 28.0005 13.0776 27.4405 14.4189 27.2165L14.7543 27.1045L15.4249 22.9605H18.7782L19.4488 27.1045L19.7841 27.2165C21.1254 27.5525 22.355 28.0005 23.4727 28.6725L23.808 28.8965L27.1613 26.4325L29.6203 28.8965L27.1613 32.2565L27.3848 32.5925C28.1672 33.7125 28.7261 35.0565 29.0614 36.4005L29.1732 36.7365L33.1971 37.2965V40.6565H32.9736Z" fill="#010101"/>
<path d="M44.0389 21.7285C42.474 21.7285 41.0209 22.4005 39.9032 23.5205C38.7854 24.6405 38.2266 26.0965 38.2266 27.6645C38.2266 29.2325 38.8972 30.6885 40.015 31.8085C41.1327 32.9285 42.5858 33.4885 44.1506 33.4885C45.7155 33.4885 47.1685 32.8165 48.2863 31.6965C49.404 30.5765 49.9629 29.1205 49.9629 27.5525C49.9629 25.9845 49.2923 24.5285 48.1745 23.4085C47.1685 22.4005 45.6037 21.7285 44.0389 21.7285ZM47.5039 31.0245C46.6097 31.9205 45.3801 32.4805 44.1506 32.4805C42.9211 32.4805 41.6916 32.0325 40.7974 31.1365C39.9032 30.2405 39.3443 29.0085 39.3443 27.7765C39.3443 26.5445 39.7914 25.3125 40.6856 24.4165C41.5798 23.5205 42.8093 22.9605 44.0389 22.9605C45.2684 22.9605 46.4979 23.4085 47.3921 24.3045C48.2863 25.2005 48.8452 26.4325 48.8452 27.6645C48.8452 28.8965 48.3981 30.1285 47.5039 31.0245Z" fill="#010101"/>
<path d="M53.0924 29.9037L55.9985 29.4557V25.5357L52.9806 25.0877C52.7571 24.4157 52.5335 23.6317 52.0864 23.0717L53.8748 20.6077L51.0805 17.8077L48.6214 19.5997C47.9508 19.2637 47.2801 18.9277 46.6095 18.7037L46.1624 15.6797H42.2502L41.8031 18.5917C41.0207 18.8157 40.3501 19.0397 39.5676 19.4877L37.2204 17.8077L34.426 20.6077L36.1026 22.8477C35.6555 23.5197 35.3202 24.3037 35.0967 25.1997L32.4141 25.6477V29.5677L35.0967 30.0157C35.3202 30.9117 35.6555 31.6957 36.1026 32.4797L34.5378 34.6077L37.3322 37.4077L39.4559 35.8397C40.2383 36.2877 41.0207 36.6237 41.9149 36.8477L42.362 39.5357H46.2741L46.7212 36.7357C47.5037 36.5117 48.2861 36.1757 49.0685 35.7277L51.304 37.4077L54.0984 34.6077L52.31 32.2557C52.5335 31.4717 52.8688 30.6877 53.0924 29.9037ZM52.4217 34.3837L50.9687 35.8397L48.845 34.2717L48.5096 34.4957C47.7272 35.0557 46.833 35.3917 45.827 35.6157L45.4917 35.7277L45.1564 38.3037H43.1444L42.8091 35.8397L42.4738 35.7277C41.4678 35.5037 40.5736 35.1677 39.6794 34.6077L39.3441 34.3837L37.3322 35.8397L35.8791 34.3837L37.3322 32.3677L37.1086 32.0317C36.5497 31.1357 36.2144 30.2397 35.9909 29.2317L35.8791 28.8957L33.42 28.5597V26.5437L35.9909 26.2077L36.1026 25.8717C36.3262 24.8637 36.6615 23.9677 37.2204 23.1837L37.4439 22.8477L35.8791 20.7197L37.3322 19.2637L39.4559 20.8317L39.7912 20.6077C40.5736 20.1597 41.4678 19.8237 42.362 19.5997L42.6973 19.4877L43.1444 16.7997H45.1564L45.6035 19.5997L45.9388 19.7117C46.833 19.9357 47.6154 20.2717 48.3979 20.7197L48.7332 20.9437L50.9687 19.2637L52.4217 20.7197L50.7451 23.0717L50.9687 23.4077C51.4158 24.1917 51.7511 24.9757 51.9746 25.8717L52.0864 26.2077L54.8808 26.6557V28.6717L52.1982 29.1197L52.0864 29.4557C51.8629 30.3517 51.5275 31.2477 51.0805 32.0317L50.8569 32.3677L52.4217 34.3837Z" fill="#010101"/>
<path d="M14.418 9.408V13.216L16.9888 13.552C17.2123 14.336 17.5477 15.12 17.883 15.792L16.4299 17.808L19.1125 20.496L21.1245 19.04C21.7951 19.488 22.5775 19.712 23.3599 19.936L23.807 22.512H27.6074L27.9427 19.936C28.7251 19.712 29.3958 19.376 30.0664 19.04L32.1902 20.608L34.8727 17.92L33.1961 15.68C33.5315 15.008 33.8668 14.336 33.9785 13.664L36.7729 13.216V9.408L33.8668 8.96001C33.6432 8.288 33.4197 7.61601 33.0844 7.05601L34.761 4.704L32.0784 2.016L29.7311 3.69601C29.1722 3.36001 28.5016 3.02401 27.8309 2.91201L27.3838 0H23.5835L23.1364 2.8C22.4657 3.024 21.7951 3.248 21.1245 3.584L18.889 1.904L16.2064 4.59201L17.7712 6.72C17.3241 7.392 17.1006 8.064 16.877 8.848L14.418 9.408ZM17.9948 9.63201C18.2183 8.73601 18.5536 7.84 19.1125 7.168L19.3361 6.83201L17.883 4.81601L19.2243 3.47201L21.2362 4.928L21.5716 4.704C22.354 4.256 23.1364 3.92001 23.9188 3.69601L24.2541 3.584L24.5895 1.00799H26.4896L26.9367 3.69601L27.2721 3.808C28.0545 4.032 28.8369 4.36801 29.6193 4.81601L29.9547 5.04L32.0784 3.47201L33.4197 4.81601L31.8548 6.944L32.0784 7.28C32.5255 7.952 32.8608 8.73601 33.0844 9.63201L33.1961 9.968L35.8787 10.416V12.32L33.3079 12.768L33.1961 13.104C32.9726 14 32.749 14.784 32.3019 15.568L32.0784 15.904L33.6432 17.92L32.3019 19.264L30.29 17.808L29.9547 18.032C29.1722 18.592 28.3898 18.928 27.4956 19.152L27.1603 19.264L26.825 21.616H24.9248L24.5895 19.264L24.2541 19.152C23.3599 18.928 22.4658 18.592 21.6833 18.144L21.348 17.92L19.4478 19.264L18.1065 17.92L19.4478 16.016L19.2243 15.68C18.6654 14.896 18.3301 14 18.1065 13.104L17.9948 12.768L15.6475 12.432V10.528L17.9948 10.192V9.63201Z" fill="#010101"/>
<path d="M25.4885 17.0239C25.6003 17.0239 25.6003 17.0239 25.4885 17.0239C27.0533 17.0239 28.3946 16.4639 29.5124 15.3439C31.7479 13.1039 31.6361 9.51992 29.5124 7.39192C28.3946 6.38391 27.0533 5.71191 25.6003 5.71191C24.1472 5.71191 22.6941 6.27191 21.5764 7.39192C19.3409 9.63192 19.4527 13.2159 21.5764 15.3439C22.5824 16.4639 24.0354 17.0239 25.4885 17.0239ZM22.3588 8.17591C23.253 7.27991 24.3707 6.83191 25.6003 6.83191C26.8298 6.83191 27.9475 7.27991 28.73 8.17591C30.5184 9.96791 30.5184 12.7679 28.73 14.5599C27.8358 15.4559 26.718 15.9039 25.4885 15.9039C24.259 15.9039 23.1412 15.4559 22.247 14.5599C20.5704 12.8799 20.5704 9.96791 22.3588 8.17591Z" fill="#010101"/>
</svg>
