<svg width="211" height="24" viewBox="0 0 211 24" fill="none" xmlns="http://www.w3.org/2000/svg">
<path d="M13 1H9.72727C8.28064 1 6.89325 1.57946 5.87033 2.61091C4.8474 3.64236 4.27273 5.04131 4.27273 6.5V9.8H1V14.2H4.27273V23H8.63636V14.2H11.9091L13 9.8H8.63636V6.5C8.63636 6.20826 8.7513 5.92847 8.95588 5.72218C9.16047 5.51589 9.43795 5.4 9.72727 5.4H13V1Z" stroke="white" stroke-linecap="round" stroke-linejoin="round"/>
<path d="M51.6501 14.3892L41.0001 22.1292L30.3501 14.3892C30.2074 14.2842 30.1015 14.1368 30.0476 13.9679C29.9937 13.7991 29.9946 13.6175 30.0501 13.4492L31.2701 9.66923L33.7101 2.15923C33.7338 2.09804 33.7715 2.04324 33.8201 1.99923C33.8994 1.92685 34.0028 1.88672 34.1101 1.88672C34.2175 1.88672 34.3209 1.92685 34.4001 1.99923C34.4515 2.04889 34.4894 2.11085 34.5101 2.17923L36.9501 9.66923H45.0501L47.4901 2.15923C47.5138 2.09804 47.5515 2.04324 47.6001 1.99923C47.6794 1.92685 47.7828 1.88672 47.8901 1.88672C47.9975 1.88672 48.1009 1.92685 48.1801 1.99923C48.2315 2.04889 48.2694 2.11085 48.2901 2.17923L50.7301 9.68923L52.0001 13.4492C52.0507 13.6227 52.0439 13.8079 51.9809 13.9772C51.9178 14.1465 51.8018 14.291 51.6501 14.3892V14.3892Z" stroke="white" stroke-linecap="round" stroke-linejoin="round"/>
<path d="M85 21.9994V18.1294C85.0375 17.6526 84.9731 17.1733 84.811 16.7232C84.6489 16.2732 84.3929 15.8629 84.06 15.5195C87.2 15.1695 90.5 13.9794 90.5 8.51945C90.4997 7.12328 89.9627 5.78065 89 4.76945C89.4559 3.54796 89.4236 2.1978 88.91 0.999449C88.91 0.999449 87.73 0.649449 85 2.47945C82.708 1.85827 80.292 1.85827 78 2.47945C75.27 0.649449 74.09 0.999449 74.09 0.999449C73.5764 2.1978 73.5441 3.54796 74 4.76945C73.0301 5.78815 72.4925 7.14291 72.5 8.54945C72.5 13.9694 75.8 15.1594 78.94 15.5494C78.611 15.8894 78.3573 16.2949 78.1953 16.7394C78.0334 17.1839 77.9668 17.6575 78 18.1294V21.9994M78 18.9994C73 20.4994 73 16.4994 71 15.9994L78 18.9994Z" stroke="white" stroke-linecap="round" stroke-linejoin="round"/>
<path d="M131 2L120 13" stroke="white" stroke-linecap="round" stroke-linejoin="round"/>
<path d="M131 2L124 22L120 13L111 9L131 2Z" stroke="white" stroke-linecap="round" stroke-linejoin="round"/>
<path fill-rule="evenodd" clip-rule="evenodd" d="M154.762 2.02344C152.145 2.02344 150.023 4.14476 150.023 6.76153V17.2377C150.023 19.8545 152.145 21.9758 154.762 21.9758H165.238C167.855 21.9758 169.976 19.8545 169.976 17.2377V6.76153C169.976 4.14476 167.855 2.02344 165.238 2.02344H154.762ZM149.023 6.76153C149.023 3.59247 151.592 1.02344 154.762 1.02344H165.238C168.407 1.02344 170.976 3.59247 170.976 6.76153V17.2377C170.976 20.4068 168.407 22.9758 165.238 22.9758H154.762C151.592 22.9758 149.023 20.4068 149.023 17.2377V6.76153ZM160.586 8.30355C159.818 8.18969 159.034 8.32084 158.345 8.67835C157.656 9.03587 157.097 9.60154 156.748 10.2949C156.399 10.9883 156.278 11.774 156.401 12.5404C156.525 13.3068 156.887 14.0148 157.435 14.5637C157.984 15.1126 158.692 15.4744 159.459 15.5977C160.225 15.721 161.011 15.5996 161.704 15.2506C162.398 14.9016 162.963 14.3428 163.321 13.6538C163.678 12.9648 163.809 12.1806 163.696 11.4128C163.579 10.6295 163.214 9.90443 162.655 9.34455C162.095 8.78466 161.37 8.41969 160.586 8.30355ZM157.885 7.79073C158.76 7.33634 159.757 7.16965 160.733 7.31436C161.728 7.46198 162.65 7.92584 163.362 8.63744C164.073 9.34903 164.537 10.2706 164.685 11.2661C164.829 12.242 164.663 13.2387 164.208 14.1144C163.754 14.9901 163.035 15.7002 162.154 16.1438C161.272 16.5874 160.274 16.7417 159.3 16.585C158.326 16.4283 157.426 15.9684 156.728 15.2708C156.031 14.5732 155.571 13.6733 155.414 12.6993C155.257 11.7252 155.412 10.7266 155.855 9.84531C156.299 8.96407 157.009 8.24512 157.885 7.79073ZM165.762 5.73772C165.485 5.73772 165.262 5.96158 165.262 6.23772C165.262 6.51387 165.485 6.73772 165.762 6.73772H165.772C166.048 6.73772 166.272 6.51387 166.272 6.23772C166.272 5.96158 166.048 5.73772 165.772 5.73772H165.762Z" fill="white"/>
<path d="M192 5.5C192 4.57174 192.369 3.6815 193.025 3.02513C193.682 2.36875 194.572 2 195.5 2H199V9H195.5C194.572 9 193.682 8.63125 193.025 7.97487C192.369 7.3185 192 6.42826 192 5.5Z" stroke="white" stroke-linecap="round" stroke-linejoin="round"/>
<path d="M199 2H202.5C202.96 2 203.415 2.09053 203.839 2.26642C204.264 2.44231 204.65 2.70012 204.975 3.02513C205.3 3.35013 205.558 3.73597 205.734 4.16061C205.909 4.58525 206 5.04037 206 5.5C206 5.95963 205.909 6.41475 205.734 6.83939C205.558 7.26403 205.3 7.64987 204.975 7.97487C204.65 8.29988 204.264 8.55769 203.839 8.73358C203.415 8.90947 202.96 9 202.5 9H199V2Z" stroke="white" stroke-linecap="round" stroke-linejoin="round"/>
<path d="M199 12.5C199 12.0404 199.091 11.5852 199.266 11.1606C199.442 10.736 199.7 10.3501 200.025 10.0251C200.35 9.70012 200.736 9.44231 201.161 9.26642C201.585 9.09053 202.04 9 202.5 9C202.96 9 203.415 9.09053 203.839 9.26642C204.264 9.44231 204.65 9.70012 204.975 10.0251C205.3 10.3501 205.558 10.736 205.734 11.1606C205.909 11.5852 206 12.0404 206 12.5C206 12.9596 205.909 13.4148 205.734 13.8394C205.558 14.264 205.3 14.6499 204.975 14.9749C204.65 15.2999 204.264 15.5577 203.839 15.7336C203.415 15.9095 202.96 16 202.5 16C202.04 16 201.585 15.9095 201.161 15.7336C200.736 15.5577 200.35 15.2999 200.025 14.9749C199.7 14.6499 199.442 14.264 199.266 13.8394C199.091 13.4148 199 12.9596 199 12.5V12.5Z" stroke="white" stroke-linecap="round" stroke-linejoin="round"/>
<path d="M192 19.5C192 18.5717 192.369 17.6815 193.025 17.0251C193.682 16.3687 194.572 16 195.5 16H199V19.5C199 20.4283 198.631 21.3185 197.975 21.9749C197.318 22.6313 196.428 23 195.5 23C194.572 23 193.682 22.6313 193.025 21.9749C192.369 21.3185 192 20.4283 192 19.5Z" stroke="white" stroke-linecap="round" stroke-linejoin="round"/>
<path d="M192 12.5C192 11.5717 192.369 10.6815 193.025 10.0251C193.682 9.36875 194.572 9 195.5 9H199V16H195.5C194.572 16 193.682 15.6313 193.025 14.9749C192.369 14.3185 192 13.4283 192 12.5Z" stroke="white" stroke-linecap="round" stroke-linejoin="round"/>
</svg>
