<svg width="604" height="410" viewBox="0 0 604 410" fill="none" xmlns="http://www.w3.org/2000/svg">
<g clip-path="url(#clip0_792_168)">
<path d="M444.732 0.255859H0.191406V289.273H444.732V0.255859Z" fill="#E6E6E6"/>
<path d="M432.02 36.5059H12.9023V146.681H432.02V36.5059Z" fill="white"/>
<path d="M205.786 52.4199H117.152V57.5849H205.786V52.4199Z" fill="#E6E6E6"/>
<path d="M254.022 71.2607H117.152V76.4257H254.022V71.2607Z" fill="#22D497"/>
<path d="M228.698 89.0107H117.152V94.1757H228.698V89.0107Z" fill="#E6E6E6"/>
<path d="M182.271 106.694H117.152V111.859H182.271V106.694Z" fill="#E6E6E6"/>
<path d="M215.434 124.378H117.152V129.543H215.434V124.378Z" fill="#E6E6E6"/>
<path d="M87.607 50.584H76.7539V61.6015H87.607V50.584Z" fill="#E6E6E6"/>
<path d="M87.607 68.334H76.7539V79.3515H87.607V68.334Z" fill="#91A2FA"/>
<path d="M87.607 86.085H76.7539V97.1025H87.607V86.085Z" fill="#E6E6E6"/>
<path d="M87.607 103.835H76.7539V114.853H87.607V103.835Z" fill="#E6E6E6"/>
<path d="M87.607 121.586H76.7539V132.603H87.607V121.586Z" fill="#E6E6E6"/>
<path d="M373.408 75.6797H337.23V112.405H373.408V75.6797Z" fill="#E6E6E6"/>
<path d="M432.02 161.983H12.9023V272.159H432.02V161.983Z" fill="white"/>
<path d="M106.298 171.775H95.4453V182.793H106.298V171.775Z" fill="#E6E6E6"/>
<path d="M87.607 171.775H76.7539V182.793H87.607V171.775Z" fill="#91A2FA"/>
<path d="M260.77 195.869C257.462 190.184 252.873 185.377 247.378 181.843C241.884 178.31 235.641 176.151 229.165 175.543C222.688 174.936 216.162 175.898 210.123 178.35C204.084 180.802 198.704 184.674 194.426 189.647L191.781 187.301C196.424 181.901 202.263 177.698 208.818 175.035C215.373 172.373 222.457 171.329 229.487 171.988C236.518 172.647 243.293 174.991 249.257 178.827C255.221 182.663 260.203 187.881 263.793 194.053L260.77 195.869Z" fill="#E6E6E6"/>
<path d="M262.427 242.318L259.512 240.329C263.829 233.792 266.238 226.15 266.461 218.283C266.684 210.417 264.711 202.647 260.771 195.869L263.794 194.053C268.072 201.41 270.214 209.846 269.972 218.386C269.73 226.926 267.114 235.223 262.427 242.318Z" fill="#22D497"/>
<path d="M192.147 247.285C184.886 239.054 180.842 228.412 180.774 217.363C180.707 206.315 184.621 195.623 191.781 187.301L194.426 189.647C187.831 197.314 184.225 207.163 184.287 217.342C184.349 227.52 188.075 237.324 194.763 244.906L192.147 247.285Z" fill="#22D497"/>
<path d="M225.383 262.367C219.111 262.362 212.91 261.017 207.184 258.418C201.458 255.82 196.335 252.027 192.148 247.285L194.765 244.906C198.941 249.643 204.128 253.348 209.93 255.738C215.732 258.129 221.995 259.142 228.242 258.701C234.488 258.259 240.553 256.374 245.972 253.19C251.392 250.006 256.023 245.606 259.512 240.328L262.427 242.318C258.349 248.491 252.836 253.549 246.375 257.046C239.914 260.543 232.704 262.37 225.383 262.367Z" fill="#22D497"/>
<path d="M373.408 195.648H337.23V232.374H373.408V195.648Z" fill="#E6E6E6"/>
<path d="M111.423 219.52H75.2461V256.245H111.423V219.52Z" fill="#E6E6E6"/>
<path d="M444.541 0H0V19.1718H444.541V0Z" fill="#91A2FA"/>
<path d="M14.0355 13.3547C15.9687 13.3547 17.5358 11.7639 17.5358 9.8014C17.5358 7.83894 15.9687 6.24805 14.0355 6.24805C12.1023 6.24805 10.5352 7.83894 10.5352 9.8014C10.5352 11.7639 12.1023 13.3547 14.0355 13.3547Z" fill="white"/>
<path d="M27.3206 13.3547C29.2538 13.3547 30.821 11.7639 30.821 9.8014C30.821 7.83894 29.2538 6.24805 27.3206 6.24805C25.3875 6.24805 23.8203 7.83894 23.8203 9.8014C23.8203 11.7639 25.3875 13.3547 27.3206 13.3547Z" fill="white"/>
<path d="M40.6058 13.3547C42.539 13.3547 44.1061 11.7639 44.1061 9.8014C44.1061 7.83894 42.539 6.24805 40.6058 6.24805C38.6726 6.24805 37.1055 7.83894 37.1055 9.8014C37.1055 11.7639 38.6726 13.3547 40.6058 13.3547Z" fill="white"/>
<path d="M516.314 400.045H525.314L529.595 364.807L516.312 364.807L516.314 400.045Z" fill="#FFB8B8"/>
<path d="M514.016 397.062L531.739 397.062H531.74C534.735 397.062 537.608 398.27 539.726 400.42C541.844 402.57 543.034 405.486 543.034 408.527V408.9L514.016 408.901L514.016 397.062Z" fill="#2F2E41"/>
<path d="M493.898 365.449L500.54 371.615L527.126 348.545L517.325 339.445L493.898 365.449Z" fill="#FFB8B8"/>
<path d="M494.187 361.676L507.265 373.818L507.266 373.818C509.476 375.871 510.793 378.73 510.926 381.768C511.06 384.806 509.999 387.773 507.978 390.017L507.73 390.292L486.316 370.412L494.187 361.676Z" fill="#2F2E41"/>
<path d="M530.457 276.298L527.906 328.085L534.283 384.403L515.153 386.992L503.037 315.786L499.211 267.235L530.457 276.298Z" fill="#2F2E41"/>
<path d="M560.427 257.526C560.427 257.526 568.08 308.665 552.138 325.496C536.196 342.326 514.515 372.104 514.515 372.104L499.211 352.684L538.109 310.607L530.457 282.125L499.211 267.236L504.312 231.633L550.225 230.985L560.427 257.526Z" fill="#2F2E41"/>
<path d="M525.313 139.064C533.938 139.064 540.93 131.966 540.93 123.21C540.93 114.454 533.938 107.356 525.313 107.356C516.687 107.356 509.695 114.454 509.695 123.21C509.695 131.966 516.687 139.064 525.313 139.064Z" fill="#FFB7B7"/>
<path d="M538.269 145.742L540.662 149.421L547.039 167.547L541.937 238.105L511.966 238.753L508.141 157.836L516.155 147.666L538.269 145.742Z" fill="#2F2E41"/>
<path d="M496.023 159.778L490.921 159.131C490.921 159.131 489.646 159.778 489.008 164.31C488.371 168.841 480.719 208.975 480.719 208.975L490.921 258.173L502.4 242.637L495.385 215.449L502.4 188.261L496.023 159.778Z" fill="#B0C4CD"/>
<path d="M561.066 159.131H564.892L574.457 211.564L565.53 252.347L556.602 237.458L559.153 221.274L557.878 207.033L553.414 198.618L561.066 159.131Z" fill="#B0C4CD"/>
<path d="M534.544 123.21L531.705 122.489C531.705 122.489 529.575 110.239 524.606 111.68C519.637 113.121 506.859 114.562 506.859 108.797C506.859 103.032 518.927 97.9879 526.026 98.7085C533.125 99.4291 542.191 101.82 544.483 112.4C548.157 129.362 536.903 133.646 536.903 133.646L537.09 133.028C537.61 131.314 537.647 129.485 537.197 127.75C536.747 126.015 535.829 124.443 534.544 123.21Z" fill="#2F2E41"/>
<path d="M491.559 159.131L511.964 150.715L516.747 147.155L531.094 211.564L540.659 182.434L537.79 145.213L564.253 159.131L555.326 203.149L554.05 219.98L557.876 233.574C557.876 233.574 571.267 243.284 566.804 253.641C562.34 263.998 557.239 264.646 557.239 264.646C557.239 264.646 535.558 243.931 534.283 238.752C533.007 233.574 531.094 224.511 531.094 224.511C531.094 224.511 520.254 265.94 507.5 265.293C494.747 264.646 494.747 251.052 494.747 251.052L497.935 236.81L503.037 221.922L500.486 197.323L491.559 159.131Z" fill="#B0C4CD"/>
<path d="M603.369 410H434.038C433.871 410 433.71 409.932 433.591 409.812C433.473 409.691 433.406 409.528 433.406 409.358C433.406 409.188 433.473 409.025 433.591 408.905C433.71 408.784 433.871 408.717 434.038 408.717H603.369C603.536 408.717 603.697 408.784 603.815 408.905C603.934 409.025 604 409.188 604 409.358C604 409.528 603.934 409.691 603.815 409.812C603.697 409.932 603.536 410 603.369 410Z" fill="#CCCCCC"/>
</g>
<defs>
<clipPath id="clip0_792_168">
<rect width="604" height="410" fill="white"/>
</clipPath>
</defs>
</svg>
