<svg width="42" height="42" viewBox="0 0 42 42" fill="none" xmlns="http://www.w3.org/2000/svg">
<path fill-rule="evenodd" clip-rule="evenodd" d="M15.5878 4.30859C15.6846 4.31188 15.7814 4.32992 15.8716 4.36602C15.9619 4.40047 16.0455 4.45297 16.1194 4.51531C16.1932 4.5793 16.2539 4.65641 16.3015 4.74008C16.349 4.82539 16.3802 4.91727 16.3966 5.01406C16.4114 5.10922 16.4114 5.20766 16.3933 5.30281C16.3753 5.39797 16.3408 5.48984 16.2916 5.57352C16.1932 5.74086 16.0357 5.87211 15.8519 5.93774C11.1777 7.69812 7.84883 12.2117 7.84883 17.5125C7.84883 21.1039 9.37788 24.3279 11.8175 26.59C11.9176 26.6835 11.9947 26.8016 12.0406 26.9312C12.0849 27.0608 12.098 27.2003 12.0767 27.3365L11.0103 34.1665L24.1076 37.5855L24.7359 32.7719C24.7507 32.6571 24.7901 32.5439 24.8508 32.4438C24.9115 32.3437 24.9935 32.2568 25.0887 32.1911C25.1838 32.1239 25.2937 32.0779 25.4086 32.0566C25.5234 32.0336 25.6416 32.0369 25.7564 32.0615L29.6726 32.954L30.3436 28.8558C30.36 28.759 30.3928 28.6638 30.442 28.5785C30.4913 28.4932 30.5536 28.4161 30.6291 28.3521C30.7045 28.2881 30.7915 28.2372 30.8834 28.2044C30.9752 28.17 31.0753 28.1536 31.1738 28.1536H33.9612L32.3845 20.6658C32.3714 20.6002 32.3648 20.5313 32.3665 20.464L32.5109 16.1607C32.017 11.618 29.0623 7.81488 25.0084 6.10842C24.905 6.06741 24.8115 6.00507 24.7328 5.92632C24.654 5.84757 24.59 5.75405 24.5474 5.65233C24.5047 5.55061 24.4834 5.43905 24.4834 5.32749C24.4834 5.21592 24.5064 5.106 24.549 5.00264C24.5917 4.90092 24.6557 4.80741 24.7344 4.72866C24.8132 4.65155 24.9083 4.58921 25.0117 4.54819C25.115 4.50718 25.2266 4.48749 25.3365 4.48913C25.4481 4.49077 25.558 4.51538 25.6597 4.55968C30.2848 6.50709 33.6465 10.8546 34.1878 16.0408C34.1911 16.0785 34.1928 16.1179 34.1911 16.1556L34.0467 20.4178L35.8153 28.8195C35.8416 28.9409 35.8383 29.0689 35.8104 29.1903C35.7809 29.3117 35.7251 29.4249 35.6463 29.5217C35.5676 29.6185 35.4675 29.6972 35.3559 29.7514C35.2427 29.8055 35.1197 29.8334 34.995 29.8334H31.886L31.1871 34.1107C31.1691 34.2239 31.1264 34.3321 31.0657 34.4289C31.0034 34.5257 30.923 34.6078 30.8278 34.6718C30.7327 34.7357 30.6244 34.78 30.5128 34.8014C30.4013 34.8227 30.2831 34.8194 30.1716 34.7948L26.2833 33.9089L25.6517 38.7519C25.6369 38.87 25.5959 38.9832 25.5335 39.0849C25.4712 39.1866 25.3875 39.2736 25.2891 39.3392C25.1906 39.4048 25.0774 39.4508 24.961 39.4705C24.8445 39.4902 24.7231 39.4852 24.6082 39.4557L9.85404 35.6035C9.75396 35.5773 9.66044 35.533 9.57677 35.4723C9.4931 35.4116 9.42091 35.3361 9.36513 35.2508C9.30935 35.1655 9.26833 35.0687 9.247 34.9669C9.22567 34.8669 9.22239 34.7619 9.2388 34.6601L10.3561 27.5117C7.77867 24.9639 6.17578 21.4217 6.17578 17.5153C6.17578 11.5106 9.95251 6.37063 15.2667 4.36891C15.3717 4.32789 15.4832 4.30821 15.5948 4.31149L15.5878 4.30859Z" fill="white"/>
<path fill-rule="evenodd" clip-rule="evenodd" d="M22.6208 2.51953C22.7307 2.51953 22.8406 2.54086 22.9423 2.58351C23.044 2.62617 23.1376 2.68851 23.2147 2.76562C23.2918 2.84273 23.3541 2.93625 23.3968 3.03797C23.4394 3.13969 23.4608 3.24961 23.4608 3.35953V15.7411C25.1818 16.7058 26.3499 18.5466 26.3499 20.6501C26.3499 22.4253 25.5197 24.0134 24.2269 25.0454L26.1858 28.4366C26.2433 28.5317 26.2794 28.6383 26.2958 28.7483C26.3105 28.8582 26.3056 28.9714 26.2761 29.078C26.2482 29.1847 26.199 29.2864 26.1317 29.375C26.0644 29.4636 25.9791 29.5374 25.884 29.5932C25.7888 29.649 25.6805 29.6851 25.5706 29.6982C25.4607 29.713 25.3475 29.7048 25.2408 29.6752C25.1342 29.6457 25.0325 29.5948 24.9455 29.5276C24.8586 29.4587 24.7848 29.3734 24.7306 29.2766L22.7733 25.8887C22.1368 26.1397 21.4444 26.2775 20.7209 26.2775C17.6218 26.2775 15.0938 23.7493 15.0938 20.6503C15.0938 18.5471 16.2619 16.7046 17.9829 15.7414V3.35977C17.9829 3.24985 18.0042 3.13993 18.0469 3.03821C18.0895 2.93649 18.1519 2.84298 18.229 2.76587C18.3061 2.68876 18.3996 2.62641 18.5013 2.58376C18.603 2.5411 18.713 2.51978 18.8229 2.51978L22.6208 2.51953ZM21.7808 4.19953H19.6643V15.1279C20.0072 15.0623 20.3616 15.0279 20.7225 15.0279C21.0835 15.0279 21.4378 15.0623 21.7807 15.1279L21.7808 4.19953ZM20.7226 16.7076C18.5307 16.7076 16.7752 18.463 16.7752 20.6516C16.7752 22.8435 18.5307 24.5989 20.7226 24.5989C22.9095 24.5989 24.6699 22.8435 24.6699 20.6516C24.6699 18.4647 22.9095 16.7076 20.7226 16.7076Z" fill="white"/>
</svg>
