<svg width="40" height="38" viewBox="0 0 40 38" fill="" xmlns="http://www.w3.org/2000/svg">
<path d="M12.0015 25.4789C12.1906 25.668 12.2953 25.9258 12.2937 26.193C12.2921 26.4602 12.1828 26.7149 11.9921 26.9024C11.8 27.0883 11.5421 27.1899 11.2749 27.1852C11.0078 27.1805 10.7531 27.0696 10.5703 26.8758C9.16558 25.4399 8.10306 23.7039 7.46558 21.7994C7.37965 21.5463 7.39683 21.2697 7.51715 21.0306C7.6359 20.79 7.84527 20.6088 8.09995 20.526C8.35307 20.4416 8.63119 20.4635 8.86871 20.5853C9.10621 20.7088 9.28591 20.9197 9.36559 21.176C9.90779 22.7901 10.8093 24.2619 12.0015 25.4792L12.0015 25.4789ZM31.9015 20.5225C31.65 20.4382 31.375 20.4585 31.1374 20.5772C30.8999 20.6975 30.7202 20.9069 30.6374 21.1585C30.0968 22.7803 29.1952 24.2569 28.0015 25.4789C27.8125 25.6679 27.7078 25.9257 27.7093 26.1929C27.7109 26.4601 27.8203 26.7148 28.0109 26.9023C28.2031 27.0882 28.4609 27.1898 28.7281 27.1851C28.9953 27.1804 29.25 27.0695 29.4328 26.8757C30.839 25.4398 31.9 23.7039 32.5375 21.7993C32.625 21.5462 32.6062 21.2681 32.4875 21.0275C32.3671 20.7884 32.1562 20.6056 31.9015 20.5228L31.9015 20.5225ZM17.5015 6.76333C19.1609 6.38521 20.8828 6.38521 22.5423 6.76333C22.8033 6.83364 23.083 6.79302 23.3142 6.65396C23.547 6.51333 23.7126 6.2852 23.7736 6.02116C23.8345 5.75709 23.7845 5.47896 23.6376 5.2524C23.4892 5.02427 23.2564 4.86646 22.9892 4.81488C21.0376 4.36956 19.0095 4.36956 17.058 4.81488C16.5705 4.97425 16.283 5.47736 16.3923 5.97896C16.5017 6.48052 16.972 6.81648 17.4814 6.75864L17.5015 6.76333ZM7.97032 0.950931C10.2734 0.939994 12.1515 2.79625 12.1703 5.09933C12.1703 7.41965 10.2891 9.29933 7.97032 9.29933C5.65 9.29933 3.77032 7.41965 3.77032 5.09933C3.78751 2.79621 5.66564 0.940131 7.97032 0.950931ZM7.97032 2.95093C7.10624 2.97281 6.33908 3.50873 6.02188 4.31341C5.70626 5.11653 5.90313 6.03217 6.52032 6.63529C7.13908 7.23997 8.0594 7.41341 8.85468 7.07905C9.65156 6.74312 10.1688 5.96341 10.1703 5.09937C10.1547 3.89937 9.17032 2.93845 7.97032 2.95093ZM8.97812 13.7101L10.9172 11.7992H11.525C12 11.793 12.4578 11.9758 12.7969 12.3055C13.1375 12.6367 13.3312 13.0883 13.3375 13.5633V15.8555C13.3375 16.407 13.786 16.8555 14.3375 16.8555C14.8906 16.8555 15.3375 16.407 15.3375 15.8555V13.5633C15.3219 11.4726 13.6172 9.78825 11.525 9.79917H10.5094C10.2469 9.79917 9.99692 9.90386 9.8094 10.0867L7.96876 11.8945L6.12812 10.0867H6.12968C5.94375 9.90386 5.69216 9.79917 5.42968 9.79917H4.40156C2.31564 9.79448 0.617202 11.4773 0.601562 13.5633V15.8555C0.601562 16.407 1.05 16.8555 1.60156 16.8555C2.15312 16.8555 2.60156 16.407 2.60156 15.8555V13.5633C2.61406 12.5805 3.41876 11.7929 4.40156 11.7992H5.00936L6.95312 13.7117C7.5172 14.2617 8.4172 14.2601 8.97812 13.707L8.97812 13.7101ZM36.2329 5.09453C36.2329 7.41485 34.3532 9.29453 32.0329 9.29453C29.7142 9.29453 27.8329 7.41485 27.8329 5.09453C27.8329 2.77577 29.7142 0.894531 32.0329 0.894531C34.3532 0.894531 36.2329 2.77577 36.2329 5.09453ZM34.2329 5.09453C34.2548 4.20077 33.7329 3.38361 32.9126 3.02577C32.0923 2.66952 31.1376 2.84452 30.497 3.46953C29.8579 4.09453 29.6594 5.04453 29.997 5.87265C30.3345 6.70077 31.1392 7.24297 32.0329 7.24297C33.2344 7.25703 34.2188 6.29609 34.2329 5.09453H34.2329ZM35.6017 9.79933H34.5736C34.3111 9.79933 34.0595 9.90402 33.8736 10.0868L32.0329 11.8946L30.1923 10.0868H30.1938C30.0063 9.90402 29.7563 9.79933 29.4938 9.79933H28.4782C26.386 9.78839 24.6813 11.4728 24.6657 13.5634V15.8556C24.6657 16.4072 25.1126 16.8556 25.6657 16.8556C26.2173 16.8556 26.6657 16.4072 26.6657 15.8556V13.5634C26.672 13.0884 26.8657 12.6369 27.2064 12.3056C27.5454 11.9759 28.0032 11.7931 28.4782 11.7994H29.086L31.0298 13.7072C31.5892 14.2431 32.4704 14.2431 33.0298 13.7072L34.9814 11.7994H35.6017C36.0767 11.7931 36.5329 11.9759 36.8736 12.3056C37.2126 12.6369 37.4079 13.0884 37.4142 13.5634V15.8556C37.4142 16.4072 37.8611 16.8556 38.4142 16.8556C38.9658 16.8556 39.4142 16.4072 39.4142 15.8556V13.5634C39.3986 11.4728 37.6923 9.78841 35.6017 9.79933H35.6017ZM15.8017 25.2913C15.7814 23.5882 16.7908 22.0398 18.3579 21.3741C19.9251 20.7069 21.7407 21.0538 22.9531 22.2507C24.164 23.4476 24.5328 25.2585 23.8859 26.8335C23.239 28.4101 21.7047 29.4397 20.0016 29.4397C17.6984 29.4507 15.8188 27.5944 15.8016 25.2913H15.8017ZM17.8017 25.2913C17.7782 26.1851 18.3001 27.0054 19.1204 27.3632C19.9408 27.721 20.8954 27.5476 21.5361 26.9226C22.1767 26.2976 22.3767 25.3476 22.0392 24.5195C21.7017 23.6898 20.897 23.1476 20.0017 23.1476C18.8032 23.1335 17.8189 24.0929 17.8017 25.2913ZM23.5581 29.9945H22.5424C22.2799 29.9961 22.0284 30.0992 21.8424 30.2836L20.0018 32.0914L18.1612 30.2836C17.9752 30.0992 17.7236 29.9961 17.4612 29.9945H16.4455C14.3549 29.9836 12.6486 31.668 12.633 33.7586V36.0508C12.633 36.6039 13.0815 37.0508 13.633 37.0508C14.1862 37.0508 14.633 36.6039 14.633 36.0508V33.7586C14.6409 33.2852 14.8346 32.8321 15.1737 32.5024C15.5143 32.1711 15.9721 31.9883 16.4456 31.9946H17.0534L18.9971 33.9071C19.5565 34.443 20.4393 34.443 20.9971 33.9071L22.9409 31.9993H23.5502C24.0237 31.993 24.4815 32.1758 24.8206 32.5055C25.1612 32.8367 25.3549 33.2883 25.3612 33.7633V36.0555C25.3612 36.6071 25.8096 37.0555 26.3612 37.0555C26.9143 37.0555 27.3612 36.6071 27.3612 36.0555V33.7586C27.3471 31.6711 25.6456 29.9883 23.5581 29.9945Z" fill="white"/>
</svg>
