<svg width="462" height="273" viewBox="0 0 462 273" fill="none" xmlns="http://www.w3.org/2000/svg">
<g clip-path="url(#clip0_792_1268)">
<path d="M462.003 112.124H461.223V92.0289C461.223 90.5016 460.903 88.9892 460.281 87.5781C459.66 86.1671 458.748 84.8849 457.6 83.8049C456.451 82.7249 455.087 81.8682 453.586 81.2837C452.085 80.6993 450.476 80.3984 448.852 80.3984H403.567C401.942 80.3984 400.333 80.6993 398.832 81.2837C397.331 81.8682 395.968 82.7249 394.819 83.8049C393.67 84.8849 392.759 86.1671 392.137 87.5781C391.515 88.9892 391.195 90.5016 391.195 92.0289V202.272C391.195 203.8 391.515 205.312 392.137 206.723C392.759 208.134 393.67 209.416 394.819 210.496C395.968 211.576 397.331 212.433 398.832 213.018C400.333 213.602 401.942 213.903 403.567 213.903H448.852C450.476 213.903 452.085 213.602 453.586 213.018C455.087 212.433 456.451 211.576 457.6 210.496C458.748 209.416 459.66 208.134 460.281 206.723C460.903 205.312 461.223 203.8 461.223 202.272V126.428H462.003V112.124Z" fill="#3F3D56"/>
<path d="M458.588 92.7122V202.795C458.588 205.099 457.615 207.308 455.882 208.938C454.149 210.567 451.799 211.482 449.348 211.482H403.845C402.632 211.482 401.431 211.257 400.31 210.82C399.189 210.384 398.171 209.744 397.313 208.937C396.456 208.13 395.775 207.173 395.311 206.119C394.848 205.065 394.609 203.936 394.609 202.795V92.7122C394.609 90.4093 395.582 88.2008 397.315 86.5725C399.047 84.9441 401.396 84.0293 403.845 84.0293H409.366C409.095 84.6558 408.992 85.3353 409.066 86.008C409.139 86.6807 409.388 87.3261 409.789 87.8873C410.191 88.4486 410.732 88.9086 411.367 89.2268C412.002 89.5451 412.71 89.7119 413.429 89.7126H439.374C440.094 89.7139 440.803 89.5484 441.439 89.2306C442.075 88.9129 442.618 88.4528 443.019 87.8909C443.421 87.329 443.669 86.6828 443.742 86.0093C443.815 85.3357 443.71 84.6557 443.437 84.0293H449.348C451.798 84.0292 454.148 84.9438 455.881 86.5721C457.613 88.2004 458.587 90.4089 458.588 92.7122Z" fill="#D0CDE1"/>
<path d="M449.974 140.389H397.078V153.808H449.974V140.389Z" fill="#22D497"/>
<path d="M452.07 151.44H400.853C400.519 151.439 400.199 151.315 399.963 151.093C399.727 150.871 399.594 150.57 399.594 150.256V138.415C399.594 138.102 399.727 137.801 399.963 137.579C400.199 137.357 400.519 137.232 400.853 137.231H452.07C452.404 137.232 452.724 137.357 452.96 137.579C453.196 137.801 453.329 138.102 453.329 138.415V150.256C453.329 150.57 453.196 150.871 452.96 151.093C452.724 151.315 452.404 151.439 452.07 151.44ZM400.853 138.021C400.742 138.021 400.635 138.063 400.556 138.137C400.478 138.211 400.433 138.311 400.433 138.415V150.256C400.433 150.36 400.478 150.461 400.556 150.535C400.635 150.609 400.742 150.65 400.853 150.65H452.07C452.181 150.65 452.288 150.609 452.367 150.535C452.445 150.461 452.49 150.36 452.49 150.256V138.415C452.49 138.311 452.445 138.211 452.367 138.137C452.288 138.063 452.181 138.021 452.07 138.021H400.853Z" fill="#3F3D56"/>
<path d="M409.67 147.888H402.953V148.677H409.67V147.888Z" fill="#3F3D56"/>
<path d="M418.904 147.888H412.188V148.677H418.904V147.888Z" fill="#3F3D56"/>
<path d="M428.139 147.888H421.422V148.677H428.139V147.888Z" fill="#3F3D56"/>
<path d="M437.381 147.888H430.664V148.677H437.381V147.888Z" fill="#3F3D56"/>
<path d="M446.615 147.888H439.898V148.677H446.615V147.888Z" fill="#3F3D56"/>
<path opacity="0.1" d="M458.588 191.602V202.795C458.588 205.099 457.615 207.308 455.882 208.937C454.149 210.567 451.799 211.482 449.348 211.482H403.845C402.632 211.482 401.431 211.257 400.31 210.82C399.189 210.384 398.171 209.744 397.313 208.937C396.456 208.13 395.775 207.173 395.311 206.119C394.848 205.065 394.609 203.936 394.609 202.795V151.306L458.588 191.602Z" fill="black"/>
<path d="M240.492 181.436H41.9219V273H240.492V181.436Z" fill="#D0CDE1"/>
<path opacity="0.1" d="M190.009 273H42.7615C42.539 273 42.3258 272.916 42.1685 272.768C42.0112 272.621 41.9225 272.42 41.9219 272.211V182.225C41.9225 182.016 42.0112 181.815 42.1685 181.667C42.3258 181.52 42.539 181.436 42.7615 181.436H44.6254L190.009 273Z" fill="black"/>
<path d="M441.579 193.67H133.859V194.459H441.579V193.67Z" fill="#3F3D56"/>
<path d="M231.143 1.70411H143.198V0H103.32V1.70411H15.0114C14.2301 1.70411 13.4566 1.84878 12.7348 2.12984C12.0131 2.4109 11.3573 2.82285 10.8049 3.34218C10.2525 3.86151 9.81429 4.47805 9.51533 5.15659C9.21637 5.83513 9.0625 6.56238 9.0625 7.29683V120.512C9.0625 121.995 9.68925 123.418 10.8049 124.467C11.9205 125.515 13.4336 126.105 15.0114 126.105H231.143C232.721 126.105 234.234 125.515 235.35 124.467C236.465 123.418 237.092 121.995 237.092 120.512V7.29683C237.092 6.56238 236.938 5.83513 236.639 5.15659C236.34 4.47805 235.902 3.86151 235.35 3.34218C234.797 2.82285 234.141 2.4109 233.42 2.12984C232.698 1.84878 231.924 1.70411 231.143 1.70411Z" fill="#3F3D56"/>
<path d="M229.114 11.5859H17.0391V124.061H229.114V11.5859Z" fill="#D0CDE1"/>
<path d="M122.894 8.52055C124.095 8.52055 125.069 7.605 125.069 6.47561C125.069 5.34622 124.095 4.43066 122.894 4.43066C121.693 4.43066 120.719 5.34622 120.719 6.47561C120.719 7.605 121.693 8.52055 122.894 8.52055Z" fill="#22D497"/>
<path d="M80.1174 53.5602H75.0797C74.7458 53.5599 74.4257 53.435 74.1896 53.213C73.9535 52.9911 73.8207 52.6901 73.8203 52.3762V47.6401C73.8207 47.3262 73.9535 47.0252 74.1896 46.8032C74.4257 46.5813 74.7458 46.4564 75.0797 46.4561H80.1174C80.4514 46.4564 80.7715 46.5813 81.0076 46.8032C81.2437 47.0252 81.3765 47.3262 81.3769 47.6401V52.3762C81.3765 52.6901 81.2437 52.9911 81.0076 53.213C80.7715 53.435 80.4514 53.5599 80.1174 53.5602ZM75.0797 47.2454C74.9684 47.2455 74.8617 47.2872 74.783 47.3612C74.7044 47.4351 74.6601 47.5354 74.6599 47.6401V52.3762C74.6601 52.4808 74.7044 52.5811 74.783 52.6551C74.8617 52.7291 74.9684 52.7707 75.0797 52.7709H80.1174C80.2287 52.7707 80.3354 52.7291 80.4141 52.6551C80.4928 52.5811 80.5371 52.4808 80.5373 52.3762V47.6401C80.5371 47.5354 80.4928 47.4351 80.4141 47.3612C80.3354 47.2872 80.2287 47.2455 80.1174 47.2454H75.0797Z" fill="#3F3D56"/>
<path d="M169.959 52.7705H74.2422V53.5599H169.959V52.7705Z" fill="#3F3D56"/>
<path d="M167.445 74.4785H145.195V80.7933H167.445V74.4785Z" fill="#22D497"/>
<path d="M169.119 79.2145H148.548C148.215 79.2142 147.894 79.0893 147.658 78.8673C147.422 78.6454 147.289 78.3444 147.289 78.0305V73.2944C147.289 72.9805 147.422 72.6795 147.658 72.4575C147.894 72.2355 148.215 72.1107 148.548 72.1104H169.119C169.453 72.1107 169.773 72.2355 170.009 72.4575C170.245 72.6795 170.378 72.9805 170.379 73.2944V78.0305C170.378 78.3444 170.245 78.6454 170.009 78.8673C169.773 79.0893 169.453 79.2142 169.119 79.2145ZM148.548 72.8997C148.437 72.8998 148.33 72.9415 148.252 73.0155C148.173 73.0894 148.129 73.1897 148.129 73.2944V78.0305C148.129 78.1351 148.173 78.2354 148.252 78.3094C148.33 78.3834 148.437 78.425 148.548 78.4252H169.119C169.23 78.425 169.337 78.3834 169.416 78.3094C169.495 78.2354 169.539 78.1351 169.539 78.0305V73.2944C169.539 73.1897 169.495 73.0894 169.416 73.0155C169.337 72.9415 169.23 72.8998 169.119 72.8997H148.548Z" fill="#3F3D56"/>
<path d="M341.981 80H300V107.627H341.981V80Z" fill="#22D497"/>
<path d="M341.661 107.039H301.359C300.914 107.039 300.487 106.872 300.172 106.576C299.857 106.28 299.68 105.879 299.68 105.46V79.4117C299.68 78.9931 299.857 78.5919 300.172 78.2959C300.487 77.9999 300.914 77.8335 301.359 77.833H341.661C342.106 77.8335 342.533 77.9999 342.847 78.2959C343.162 78.5918 343.339 78.9931 343.34 79.4117V105.46C343.339 105.879 343.162 106.28 342.847 106.576C342.533 106.872 342.106 107.039 341.661 107.039ZM301.359 79.4117V105.46H341.662L341.661 79.4117H301.359Z" fill="#3F3D56"/>
<path d="M337.042 78.4253H335.363C335.363 74.971 333.904 71.6582 331.306 69.2157C328.707 66.7732 325.184 65.401 321.509 65.401C317.835 65.401 314.312 66.7732 311.713 69.2157C309.115 71.6582 307.656 74.971 307.656 78.4253H305.977C305.977 74.5523 307.613 70.838 310.526 68.0994C313.439 65.3608 317.39 63.8223 321.509 63.8223C325.629 63.8223 329.58 65.3608 332.493 68.0994C335.406 70.838 337.042 74.5523 337.042 78.4253Z" fill="#3F3D56"/>
<path d="M325.709 89.2785C325.71 88.5913 325.52 87.9157 325.157 87.3187C324.795 86.7217 324.274 86.2239 323.644 85.8747C323.014 85.5254 322.299 85.3368 321.568 85.3275C320.837 85.3182 320.116 85.4885 319.476 85.8215C318.837 86.1546 318.301 86.6388 317.922 87.2264C317.542 87.8139 317.333 88.4844 317.314 89.1714C317.295 89.8585 317.467 90.5383 317.813 91.1436C318.16 91.7488 318.668 92.2586 319.288 92.6225V96.8586C319.288 97.133 319.346 97.4047 319.457 97.6582C319.569 97.9117 319.733 98.1421 319.939 98.3361C320.146 98.5301 320.391 98.684 320.66 98.789C320.93 98.894 321.219 98.9481 321.511 98.9481C322.1 98.9481 322.666 98.7279 323.082 98.3361C323.499 97.9442 323.733 97.4128 323.733 96.8586V92.6225C324.338 92.2687 324.836 91.776 325.182 91.191C325.527 90.6059 325.709 89.9478 325.709 89.2785Z" fill="#3F3D56"/>
<path d="M126.092 222.087H119.375V222.876H126.092V222.087Z" fill="#3F3D56"/>
<path d="M135.326 222.087H128.609V222.876H135.326V222.087Z" fill="#3F3D56"/>
<path d="M144.561 222.087H137.844V222.876H144.561V222.087Z" fill="#3F3D56"/>
<path d="M153.795 222.087H147.078V222.876H153.795V222.087Z" fill="#3F3D56"/>
<path d="M163.029 222.087H156.312V222.876H163.029V222.087Z" fill="#3F3D56"/>
<path d="M249.304 266.291H52.4136C51.9684 266.291 51.5416 266.124 51.2267 265.828C50.9119 265.532 50.7349 265.131 50.7344 264.712V174.726C50.7348 174.308 50.9119 173.906 51.2267 173.61C51.5416 173.314 51.9684 173.148 52.4136 173.147H249.304C249.749 173.148 250.176 173.314 250.491 173.61C250.806 173.906 250.983 174.308 250.983 174.726V264.712C250.983 265.131 250.806 265.532 250.491 265.828C250.176 266.124 249.749 266.291 249.304 266.291ZM52.4136 174.726V264.712H249.305L249.304 174.726H52.4136Z" fill="#3F3D56"/>
<path d="M61.2298 188.144C62.6209 188.144 63.7486 187.084 63.7486 185.776C63.7486 184.468 62.6209 183.408 61.2298 183.408C59.8387 183.408 58.7109 184.468 58.7109 185.776C58.7109 187.084 59.8387 188.144 61.2298 188.144Z" fill="#3F3D56"/>
<path d="M70.0423 188.144C71.4334 188.144 72.5611 187.084 72.5611 185.776C72.5611 184.468 71.4334 183.408 70.0423 183.408C68.6512 183.408 67.5234 184.468 67.5234 185.776C67.5234 187.084 68.6512 188.144 70.0423 188.144Z" fill="#3F3D56"/>
<path d="M78.8626 188.144C80.2537 188.144 81.3815 187.084 81.3815 185.776C81.3815 184.468 80.2537 183.408 78.8626 183.408C77.4715 183.408 76.3438 184.468 76.3438 185.776C76.3438 187.084 77.4715 188.144 78.8626 188.144Z" fill="#3F3D56"/>
<path d="M169.543 227.612H112.869C112.535 227.612 112.215 227.487 111.979 227.265C111.743 227.043 111.61 226.742 111.609 226.428V213.009C111.61 212.695 111.743 212.394 111.979 212.172C112.215 211.95 112.535 211.826 112.869 211.825H169.543C169.877 211.826 170.197 211.95 170.433 212.172C170.669 212.394 170.802 212.695 170.802 213.009V226.428C170.802 226.742 170.669 227.043 170.433 227.265C170.197 227.487 169.877 227.612 169.543 227.612ZM112.869 212.615C112.757 212.615 112.651 212.656 112.572 212.73C112.493 212.804 112.449 212.905 112.449 213.009V226.428C112.449 226.533 112.493 226.633 112.572 226.707C112.651 226.781 112.757 226.823 112.869 226.823H169.543C169.654 226.823 169.761 226.781 169.84 226.707C169.918 226.633 169.963 226.533 169.963 226.428V213.009C169.963 212.905 169.918 212.804 169.84 212.73C169.761 212.656 169.654 212.615 169.543 212.615H112.869Z" fill="#3F3D56"/>
<path d="M183.814 228.007C187.988 228.007 191.371 224.827 191.371 220.903C191.371 216.979 187.988 213.799 183.814 213.799C179.641 213.799 176.258 216.979 176.258 220.903C176.258 224.827 179.641 228.007 183.814 228.007Z" fill="#22D497"/>
<path d="M186.336 227.217C184.758 227.217 183.216 226.778 181.904 225.954C180.593 225.13 179.57 223.958 178.967 222.588C178.363 221.218 178.205 219.71 178.513 218.256C178.82 216.801 179.58 215.465 180.696 214.416C181.811 213.367 183.232 212.653 184.78 212.364C186.327 212.074 187.931 212.223 189.388 212.791C190.846 213.358 192.091 214.319 192.968 215.552C193.844 216.786 194.312 218.235 194.312 219.719C194.31 221.707 193.469 223.613 191.973 225.019C190.478 226.424 188.45 227.215 186.336 227.217ZM186.336 213.009C184.924 213.009 183.544 213.403 182.371 214.14C181.197 214.877 180.282 215.925 179.742 217.151C179.202 218.377 179.061 219.726 179.336 221.028C179.612 222.329 180.291 223.525 181.289 224.463C182.287 225.401 183.559 226.04 184.943 226.299C186.328 226.558 187.763 226.425 189.067 225.917C190.371 225.41 191.486 224.55 192.27 223.446C193.054 222.343 193.473 221.046 193.473 219.719C193.47 217.94 192.718 216.234 191.38 214.976C190.042 213.719 188.228 213.011 186.336 213.009Z" fill="#3F3D56"/>
<path d="M186.447 222.519L182.383 218.698L183.57 217.582L186.223 220.076L193.625 210.187L194.998 211.095L186.447 222.519Z" fill="#3F3D56"/>
<path opacity="0.1" d="M182.095 124.061H17.0391V20.1074L182.095 124.061Z" fill="black"/>
<path d="M243.047 122.015H222.35V120.613C222.35 120.576 222.342 120.54 222.327 120.507C222.313 120.473 222.291 120.442 222.263 120.416C222.236 120.391 222.203 120.37 222.167 120.356C222.132 120.342 222.093 120.335 222.054 120.335H214.958C214.919 120.335 214.881 120.342 214.845 120.356C214.809 120.37 214.776 120.391 214.749 120.416C214.721 120.442 214.7 120.473 214.685 120.507C214.67 120.54 214.662 120.576 214.662 120.613V122.015H210.227V120.613C210.227 120.576 210.22 120.54 210.205 120.507C210.19 120.473 210.168 120.442 210.141 120.416C210.113 120.391 210.081 120.37 210.045 120.356C210.009 120.342 209.97 120.335 209.931 120.335H202.835C202.796 120.335 202.758 120.342 202.722 120.356C202.686 120.37 202.654 120.391 202.626 120.416C202.599 120.442 202.577 120.473 202.562 120.507C202.547 120.54 202.54 120.576 202.54 120.613V122.015H198.104V120.613C198.104 120.576 198.097 120.54 198.082 120.507C198.067 120.473 198.045 120.442 198.018 120.416C197.99 120.391 197.958 120.37 197.922 120.356C197.886 120.342 197.848 120.335 197.809 120.335H190.712C190.674 120.335 190.635 120.342 190.599 120.356C190.563 120.37 190.531 120.391 190.503 120.416C190.476 120.442 190.454 120.473 190.439 120.507C190.424 120.54 190.417 120.576 190.417 120.613V122.015H185.982V120.613C185.982 120.576 185.974 120.54 185.959 120.507C185.944 120.473 185.922 120.442 185.895 120.416C185.867 120.391 185.835 120.37 185.799 120.356C185.763 120.342 185.725 120.335 185.686 120.335H178.59C178.551 120.335 178.512 120.342 178.476 120.356C178.441 120.37 178.408 120.391 178.381 120.416C178.353 120.442 178.331 120.473 178.316 120.507C178.302 120.54 178.294 120.576 178.294 120.613V122.015H173.859V120.613C173.859 120.576 173.851 120.54 173.836 120.507C173.821 120.473 173.8 120.442 173.772 120.416C173.745 120.391 173.712 120.37 173.676 120.356C173.64 120.342 173.602 120.335 173.563 120.335H166.467C166.428 120.335 166.39 120.342 166.354 120.356C166.318 120.37 166.285 120.391 166.258 120.416C166.23 120.442 166.208 120.473 166.194 120.507C166.179 120.54 166.171 120.576 166.171 120.613V122.015H161.736V120.613C161.736 120.576 161.728 120.54 161.713 120.507C161.699 120.473 161.677 120.442 161.649 120.416C161.622 120.391 161.589 120.37 161.553 120.356C161.518 120.342 161.479 120.335 161.44 120.335H154.344C154.305 120.335 154.267 120.342 154.231 120.356C154.195 120.37 154.162 120.391 154.135 120.416C154.107 120.442 154.086 120.473 154.071 120.507C154.056 120.54 154.048 120.576 154.048 120.613V122.015H149.613V120.613C149.613 120.576 149.605 120.54 149.591 120.507C149.576 120.473 149.554 120.442 149.527 120.416C149.499 120.391 149.466 120.37 149.431 120.356C149.395 120.342 149.356 120.335 149.317 120.335H93.73C93.6911 120.335 93.6527 120.342 93.6168 120.356C93.5809 120.37 93.5483 120.391 93.5209 120.416C93.4934 120.442 93.4716 120.473 93.4568 120.507C93.4419 120.54 93.4343 120.576 93.4343 120.613V122.015H88.9991V120.613C88.9991 120.576 88.9915 120.54 88.9766 120.507C88.9617 120.473 88.94 120.442 88.9125 120.416C88.885 120.391 88.8525 120.37 88.8166 120.356C88.7807 120.342 88.7423 120.335 88.7034 120.335H81.6072C81.5683 120.335 81.5299 120.342 81.494 120.356C81.4581 120.37 81.4255 120.391 81.3981 120.416C81.3706 120.442 81.3488 120.473 81.334 120.507C81.3191 120.54 81.3115 120.576 81.3115 120.613V122.015H76.8763V120.613C76.8763 120.576 76.8687 120.54 76.8538 120.507C76.839 120.473 76.8172 120.442 76.7897 120.416C76.7623 120.391 76.7297 120.37 76.6938 120.356C76.6579 120.342 76.6195 120.335 76.5806 120.335H69.4844C69.4455 120.335 69.4071 120.342 69.3712 120.356C69.3353 120.37 69.3027 120.391 69.2753 120.416C69.2478 120.442 69.226 120.473 69.2112 120.507C69.1963 120.54 69.1887 120.576 69.1887 120.613V122.015H64.7535V120.613C64.7535 120.576 64.7459 120.54 64.731 120.507C64.7161 120.473 64.6944 120.442 64.6669 120.416C64.6395 120.391 64.6069 120.37 64.571 120.356C64.5351 120.342 64.4967 120.335 64.4578 120.335H57.3616C57.3227 120.335 57.2843 120.342 57.2484 120.356C57.2125 120.37 57.1799 120.391 57.1525 120.416C57.125 120.442 57.1033 120.473 57.0884 120.507C57.0735 120.54 57.0659 120.576 57.0659 120.613V122.015H52.6307V120.613C52.6307 120.576 52.6231 120.54 52.6082 120.507C52.5933 120.473 52.5716 120.442 52.5441 120.416C52.5167 120.391 52.4841 120.37 52.4482 120.356C52.4123 120.342 52.3739 120.335 52.335 120.335H45.2387C45.1999 120.335 45.1615 120.342 45.1256 120.356C45.0897 120.37 45.0571 120.391 45.0297 120.416C45.0022 120.442 44.9804 120.473 44.9656 120.507C44.9507 120.54 44.9431 120.576 44.9431 120.613V122.015H40.5079V120.613C40.5079 120.576 40.5003 120.54 40.4854 120.507C40.4706 120.473 40.4488 120.442 40.4213 120.416C40.3939 120.391 40.3613 120.37 40.3254 120.356C40.2895 120.342 40.2511 120.335 40.2122 120.335H33.116C33.0771 120.335 33.0387 120.342 33.0028 120.356C32.9669 120.37 32.9343 120.391 32.9069 120.416C32.8794 120.442 32.8576 120.473 32.8428 120.507C32.8279 120.54 32.8203 120.576 32.8203 120.613V122.015H28.3851V120.613C28.3851 120.576 28.3774 120.54 28.3626 120.507C28.3477 120.473 28.326 120.442 28.2985 120.416C28.271 120.391 28.2384 120.37 28.2026 120.356C28.1667 120.342 28.1282 120.335 28.0894 120.335H20.9931C20.9543 120.335 20.9159 120.342 20.88 120.356C20.8441 120.37 20.8115 120.391 20.7841 120.416C20.7566 120.442 20.7348 120.473 20.72 120.507C20.7051 120.54 20.6975 120.576 20.6975 120.613V122.015H7.09627C6.16438 122.015 5.24161 122.187 4.38065 122.523C3.51969 122.858 2.7374 123.349 2.07845 123.969C1.4195 124.588 0.896791 125.324 0.54017 126.133C0.183549 126.943 -5.513e-07 127.81 0 128.686V131.703C4.4536e-06 133.472 0.747647 135.169 2.07846 136.42C3.40927 137.672 5.21423 138.374 7.09627 138.374H243.047C243.979 138.374 244.902 138.202 245.763 137.867C246.624 137.531 247.406 137.04 248.065 136.42C248.724 135.801 249.247 135.065 249.604 134.256C249.96 133.447 250.144 132.579 250.144 131.703V128.686C250.144 127.81 249.96 126.943 249.604 126.133C249.247 125.324 248.724 124.588 248.065 123.969C247.406 123.349 246.624 122.858 245.763 122.523C244.902 122.187 243.979 122.015 243.047 122.015Z" fill="#3F3D56"/>
<path d="M178.355 85.924H67.5251C67.1911 85.9237 66.871 85.7988 66.6349 85.5768C66.3988 85.3549 66.266 85.0539 66.2656 84.74V41.3256C66.266 41.0117 66.3988 40.7107 66.6349 40.4888C66.871 40.2668 67.1911 40.1419 67.5251 40.1416H178.355C178.689 40.1419 179.009 40.2668 179.245 40.4888C179.481 40.7107 179.614 41.0117 179.614 41.3256V84.74C179.614 85.0539 179.481 85.3549 179.245 85.5768C179.009 85.7988 178.689 85.9237 178.355 85.924ZM67.5251 40.931C67.4138 40.9311 67.3071 40.9727 67.2284 41.0467C67.1497 41.1207 67.1054 41.221 67.1052 41.3256V84.74C67.1054 84.8446 67.1497 84.9449 67.2284 85.0189C67.3071 85.0929 67.4138 85.1345 67.5251 85.1347H178.355C178.466 85.1345 178.573 85.0929 178.651 85.0189C178.73 84.9449 178.774 84.8446 178.774 84.74V41.3256C178.774 41.221 178.73 41.1207 178.651 41.0467C178.573 40.9727 178.466 40.9311 178.355 40.931H67.5251Z" fill="#3F3D56"/>
<path d="M80.1174 65.4001H75.0797C74.7458 65.3997 74.4257 65.2749 74.1896 65.0529C73.9535 64.8309 73.8207 64.53 73.8203 64.216V59.4799C73.8207 59.166 73.9535 58.865 74.1896 58.6431C74.4257 58.4211 74.7458 58.2962 75.0797 58.2959H80.1174C80.4514 58.2962 80.7715 58.4211 81.0076 58.6431C81.2437 58.865 81.3765 59.166 81.3769 59.4799V64.216C81.3765 64.53 81.2437 64.8309 81.0076 65.0529C80.7715 65.2749 80.4514 65.3997 80.1174 65.4001ZM75.0797 59.0853C74.9684 59.0854 74.8617 59.127 74.783 59.201C74.7044 59.275 74.6601 59.3753 74.6599 59.4799V64.216C74.6601 64.3207 74.7044 64.421 74.783 64.495C74.8617 64.569 74.9684 64.6106 75.0797 64.6107H80.1174C80.2287 64.6106 80.3354 64.569 80.4141 64.495C80.4928 64.421 80.5371 64.3207 80.5373 64.216V59.4799C80.5371 59.3753 80.4928 59.275 80.4141 59.201C80.3354 59.127 80.2287 59.0854 80.1174 59.0853H75.0797Z" fill="#3F3D56"/>
<path d="M169.959 64.6113H74.2422V65.4007H169.959V64.6113Z" fill="#3F3D56"/>
<path d="M418.907 106.447H111.188V107.237H418.907V106.447Z" fill="#3F3D56"/>
<path d="M111.19 111.972C114.436 111.972 117.067 109.498 117.067 106.446C117.067 103.395 114.436 100.921 111.19 100.921C107.944 100.921 105.312 103.395 105.312 106.446C105.312 109.498 107.944 111.972 111.19 111.972Z" fill="#3F3D56"/>
<path d="M418.907 111.577C421.457 111.577 423.525 109.634 423.525 107.236C423.525 104.838 421.457 102.895 418.907 102.895C416.357 102.895 414.289 104.838 414.289 107.236C414.289 109.634 416.357 111.577 418.907 111.577Z" fill="#3F3D56"/>
<path d="M441.579 198.801C444.129 198.801 446.197 196.857 446.197 194.46C446.197 192.062 444.129 190.118 441.579 190.118C439.028 190.118 436.961 192.062 436.961 194.46C436.961 196.857 439.028 198.801 441.579 198.801Z" fill="#3F3D56"/>
<path d="M135.118 198.801C137.668 198.801 139.736 196.857 139.736 194.46C139.736 192.062 137.668 190.118 135.118 190.118C132.568 190.118 130.5 192.062 130.5 194.46C130.5 196.857 132.568 198.801 135.118 198.801Z" fill="#3F3D56"/>
</g>
<defs>
<clipPath id="clip0_792_1268">
<rect width="462" height="273" fill="white"/>
</clipPath>
</defs>
</svg>
